<svg xmlns="http://www.w3.org/2000/svg" width="40.801" height="42.528" viewBox="0 0 40.801 42.528">
  <g id="icon3" opacity="0.92">
    <path id="Path_1355" data-name="Path 1355" d="M40.8,2.127A2.09,2.09,0,0,0,38.673,0H6.065A2.09,2.09,0,0,0,3.938,2.127,2.131,2.131,0,0,0,6.065,4.254h.714L4.013,38.283H.706a.706.706,0,0,0,0,1.412h.706V40.4a2.09,2.09,0,0,0,2.127,2.127H36.148A2.09,2.09,0,0,0,38.275,40.4V39.7h.706a.706.706,0,0,0,0-1.412H35.467L38.225,4.312l-.748-.058h1.18A2.093,2.093,0,0,0,40.8,2.127Zm-35.45,0a.759.759,0,0,1,.706-.706H38.665a.667.667,0,0,1,.706.706.667.667,0,0,1-.706.706H6.065A.712.712,0,0,1,5.35,2.127ZM36.862,40.41a.667.667,0,0,1-.706.706H3.547a.667.667,0,0,1-.706-.706V39.7H36.871v.706ZM10.883,7.178h22.88l-1.471,17.53H9.421ZM9.3,26.2H32.168l-1.014,12.08H8.291Zm24.683,12.08H32.65L35.3,6.671a.667.667,0,0,0-.017-.224V6.43a.745.745,0,0,0-.748-.748H10.194a.745.745,0,0,0-.748.748v.058a.713.713,0,0,0-.025.141L6.779,38.283H5.508L8.275,4.254H36.746Z" transform="translate(0)" fill="#353535"/>
    <path id="Path_1356" data-name="Path 1356" d="M146.152,112.993a.647.647,0,0,0,.5-.216l2.127-2.127a.7.7,0,0,0-.989-.989l-2.127,2.127a.683.683,0,0,0,0,.989A.618.618,0,0,0,146.152,112.993Z" transform="translate(-133.366 -100.357)" fill="#353535"/>
    <path id="Path_1357" data-name="Path 1357" d="M213.8,114.2a.683.683,0,0,0,1,0l3.547-3.547a.7.7,0,0,0-.989-.989l-3.547,3.548A.663.663,0,0,0,213.8,114.2Z" transform="translate(-195.843 -100.357)" fill="#353535"/>
    <path id="Path_1358" data-name="Path 1358" d="M146.983,203.462l-1.421,1.421a.683.683,0,0,0,0,.989.683.683,0,0,0,1,0l1.421-1.421a.683.683,0,0,0,0-.989A.692.692,0,0,0,146.983,203.462Z" transform="translate(-133.274 -186.364)" fill="#353535"/>
    <path id="Path_1359" data-name="Path 1359" d="M146.152,163.387a.647.647,0,0,0,.5-.216l1.421-1.421a.7.7,0,1,0-.989-.989l-1.421,1.421a.683.683,0,0,0,0,.989A.593.593,0,0,0,146.152,163.387Z" transform="translate(-133.366 -147.212)" fill="#353535"/>
    <path id="Path_1360" data-name="Path 1360" d="M188.2,112.777a.683.683,0,0,0,1,0l2.127-2.127a.7.7,0,0,0-.989-.989l-2.127,2.127A.663.663,0,0,0,188.2,112.777Z" transform="translate(-172.37 -100.357)" fill="#353535"/>
    <circle id="Ellipse_675" data-name="Ellipse 675" cx="0.706" cy="0.706" r="0.706" transform="translate(15.327 15.471) rotate(-45)" fill="#353535"/>
  </g>
</svg>
