<svg id="icon5" xmlns="http://www.w3.org/2000/svg" width="36.174" height="42" viewBox="0 0 36.174 42">
  <path id="Path_1385" data-name="Path 1385" d="M11.258,32.208H9.187a1.275,1.275,0,0,0-1.274,1.274v1.167h-.6V33.474A1.275,1.275,0,0,0,6.04,32.2H3.977A3.991,3.991,0,0,0,0,36.177v1.282A1.843,1.843,0,0,0,1.841,39.3H4.684v4.364l-.855-.493a.613.613,0,0,0-.616,1.06l1.471.855v2.58l-.855-.493a.613.613,0,0,0-.616,1.06l1.471.846v2.58l-.855-.493a.613.613,0,1,0-.616,1.06l1.471.855v2.58l-.855-.493a.613.613,0,0,0-.616,1.06l1.471.846v2.58l-.855-.493a.613.613,0,0,0-.616,1.06l1.471.855v2.6a.616.616,0,0,0,1.233,0v-1.89l3.4,1.964V66.18a9.623,9.623,0,0,1-1.561,4.068.16.16,0,0,1-.279,0A9.739,9.739,0,0,1,5.917,66.18a.616.616,0,1,0-1.233,0A11.058,11.058,0,0,0,6.41,70.864a1.388,1.388,0,0,0,2.4,0,11.058,11.058,0,0,0,1.726-4.684V64.47l.855.493a.605.605,0,0,0,.3.082.612.612,0,0,0,.312-1.142l-1.471-.846v-2.58l.855.493a.605.605,0,0,0,.3.082.612.612,0,0,0,.312-1.142l-1.471-.846v-2.58l.855.493a.605.605,0,0,0,.3.082.612.612,0,0,0,.312-1.142l-1.471-.855v-2.58l.855.493a.605.605,0,0,0,.3.082.612.612,0,0,0,.312-1.142l-1.471-.846v-2.58l.855.493a.605.605,0,0,0,.3.082.612.612,0,0,0,.312-1.142l-1.471-.846V39.333h2.86a1.843,1.843,0,0,0,1.841-1.841V36.177a3.979,3.979,0,0,0-3.977-3.969ZM9.319,62.326l-3.4-1.964v-2.58l3.4,1.964Zm0-3.994-3.4-1.964v-2.58l3.4,1.964Zm0-4-3.4-1.964v-2.58l3.4,1.964Zm0-3.994-3.4-1.964v-2.58l3.4,1.964Zm0-4-3.4-1.964V39.3h3.4ZM14,37.467a.607.607,0,0,1-.608.608H1.841a.607.607,0,0,1-.608-.608v-1.29a2.75,2.75,0,0,1,2.745-2.745H6.048a.039.039,0,0,1,.041.041v1.463a.945.945,0,0,0,.945.945H8.209a.945.945,0,0,0,.945-.945V33.474a.039.039,0,0,1,.041-.041h2.063A2.75,2.75,0,0,1,14,36.177Zm0,0" transform="translate(0 -29.554)" fill="#353535"/>
  <path id="Path_1386" data-name="Path 1386" d="M235.919,0H220.067A1.171,1.171,0,0,0,218.9,1.167V7.478a1.171,1.171,0,0,0,1.167,1.167h2.473V9.779a.616.616,0,0,0,1.233,0V8.645h8.448V12.7a1.019,1.019,0,0,1-.666.953l-.37.14a1.857,1.857,0,0,0-1.208,1.734v4.281L226,17.5v-1.98a1.865,1.865,0,0,0-1.208-1.734l-.37-.14a1.023,1.023,0,0,1-.666-.953v-.46a.616.616,0,0,0-1.233,0v.46a2.251,2.251,0,0,0,1.463,2.1l.37.14a.622.622,0,0,1,.4.575v1.274l-.567-.329a.613.613,0,1,0-.616,1.06l1.183.682V20.79l-.567-.329a.613.613,0,1,0-.616,1.06l1.183.682v2.58l-.567-.329a.613.613,0,1,0-.616,1.06l1.183.682v2.58l-.567-.329a.613.613,0,1,0-.616,1.06l1.183.682v2.58l-.567-.329a.613.613,0,1,0-.616,1.06l1.183.682v5.58a2.216,2.216,0,0,0,2.211,2.211h2.022a2.211,2.211,0,0,0,2.211-2.211V37.9l.567.329a.6.6,0,0,0,.3.082.612.612,0,0,0,.312-1.142l-1.183-.682v-2.58l.567.329a.6.6,0,0,0,.3.082.612.612,0,0,0,.312-1.142l-1.183-.682v-2.58l.567.329a.6.6,0,0,0,.3.082.612.612,0,0,0,.312-1.142L231.2,28.5v-2.58l.567.329a.6.6,0,0,0,.3.082.612.612,0,0,0,.312-1.142L231.2,24.5v-2.58l.567.329a.6.6,0,0,0,.3.082.612.612,0,0,0,.312-1.142l-1.183-.682V15.523a.614.614,0,0,1,.4-.575l.37-.14a2.247,2.247,0,0,0,1.463-2.1V8.645h2.482a1.171,1.171,0,0,0,1.167-1.167V1.167A1.171,1.171,0,0,0,235.919,0Zm-5.941,39.781a.975.975,0,0,1-.978.978h-2.022a.975.975,0,0,1-.978-.978V34.908l3.977,2.293Zm0-3.994L226,33.495v-2.58l3.977,2.293Zm0-3.994L226,29.5v-2.58l3.977,2.293Zm0-4L226,25.5v-2.58l3.977,2.293Zm0-3.994L226,21.505v-2.58l3.977,2.293ZM220.124,7.412V1.233h3.657v6.18Zm4.889,0V1.233h5.958v6.18Zm10.839,0H232.2V1.233h3.657Zm0,0" transform="translate(-200.912 0)" fill="#353535"/>
</svg>
