<svg id="icon8" xmlns="http://www.w3.org/2000/svg" width="34.33" height="48.794" viewBox="0 0 34.33 48.794">
  <path id="Path_1427" data-name="Path 1427" d="M17.4,27.5H3.5A3.482,3.482,0,0,0,0,30.974V65.742a3.476,3.476,0,0,0,3.474,3.474h13.9a3.476,3.476,0,0,0,3.474-3.474V41.4h9.728a2.779,2.779,0,1,0,0-5.559h-9.7V30.974A3.476,3.476,0,0,0,17.4,27.5Zm2.085,38.242A2.076,2.076,0,0,1,17.4,67.827H3.5a2.076,2.076,0,0,1-2.085-2.085V30.974A2.076,2.076,0,0,1,3.5,28.89H17.4a2.076,2.076,0,0,1,2.085,2.085v4.864H15.235a5.493,5.493,0,0,0-4.787-2.779,5.559,5.559,0,1,0,0,11.118A5.493,5.493,0,0,0,15.235,41.4h4.246ZM10.423,41.4h3.114a4.174,4.174,0,0,1-7.283-2.779,4.185,4.185,0,0,1,4.169-4.169,4.139,4.139,0,0,1,3.114,1.39H10.423a2.779,2.779,0,1,0,0,5.559Zm21.566-2.779a1.384,1.384,0,0,1-1.39,1.39H10.423a1.39,1.39,0,1,1,0-2.779H30.6A1.384,1.384,0,0,1,31.989,38.618Z" transform="translate(0 -20.423)" fill="#353535"/>
  <path id="Path_1428" data-name="Path 1428" d="M34.466,124.7a2.078,2.078,0,0,0-.695,4.04v2.213a.695.695,0,1,0,1.39,0V128.74a2.078,2.078,0,0,0-.695-4.04Zm0,2.805a.695.695,0,1,1,.695-.695A.692.692,0,0,1,34.466,127.505Z" transform="translate(-24.043 -92.608)" fill="#353535"/>
  <g id="Group_810" data-name="Group 810" transform="translate(19.996)">
    <path id="Path_1429" data-name="Path 1429" d="M81.3,0V4.015h-.618L78.446,1.287V4.015H77.7V0h.618l2.213,2.728V0Z" transform="translate(-77.7)" fill="#353535"/>
    <path id="Path_1430" data-name="Path 1430" d="M98.837,3.4v.618H95.8V0h2.934V.618H96.546V1.673h1.93V2.29h-1.93V3.4Z" transform="translate(-91.142)" fill="#353535"/>
    <path id="Path_1431" data-name="Path 1431" d="M115.354,0l-1.338,4.015h-.8l-1-2.985-1,2.985h-.8L109.1,0h.772l1,3.062L111.905,0h.695l1.029,3.062L114.659,0Z" transform="translate(-101.019)" fill="#353535"/>
  </g>
</svg>
