<svg id="icon1" xmlns="http://www.w3.org/2000/svg" width="40.188" height="59.2" viewBox="0 0 40.188 59.2">
  <g id="Group_753" data-name="Group 753" transform="translate(0 0)">
    <path id="Path_1299" data-name="Path 1299" d="M299.415,310.807a.676.676,0,0,0,.715-.715v-2.877a.714.714,0,0,0-.715-.715.676.676,0,0,0-.715.715v2.869A.678.678,0,0,0,299.415,310.807Z" transform="translate(-273.571 -280.715)" fill="none"/>
    <path id="Path_1300" data-name="Path 1300" d="M162.915,247.5a.676.676,0,0,0-.715.715v2.869a.715.715,0,0,0,1.43,0v-2.869A.714.714,0,0,0,162.915,247.5Z" transform="translate(-148.555 -226.679)" fill="none"/>
    <rect id="Rectangle_725" data-name="Rectangle 725" width="10.768" height="0.656" transform="translate(22.251 43.073)" fill="none"/>
    <path id="Path_1301" data-name="Path 1301" d="M85.3,85.3v31.59H96.068V85.3Zm3.373,6.251-1.439,1.439a.692.692,0,0,1-1.01,0,.691.691,0,0,1,0-1l1.439-1.439a.711.711,0,0,1,1.01,1ZM87.243,89.4a.692.692,0,0,1-1.01,0,.691.691,0,0,1,0-1l2.154-2.162a.708.708,0,0,1,1,1Zm2.583-1.01,2.154-2.154a.708.708,0,0,1,1,1L90.827,89.4a.692.692,0,0,1-1.009,0A.708.708,0,0,1,89.826,88.387Zm4.812,14.142a2.154,2.154,0,1,1-4.307,0V99.66a2.154,2.154,0,1,1,4.307,0Z" transform="translate(-78.124 -78.124)" fill="none"/>
    <path id="Path_1302" data-name="Path 1302" d="M34.915,18.53H67.943a.715.715,0,1,0,0-1.43H34.915a.769.769,0,0,0-.715.715A.714.714,0,0,0,34.915,18.53Z" transform="translate(-31.323 -15.661)" fill="none"/>
    <path id="Path_1303" data-name="Path 1303" d="M292.518,439.03l-2.154,2.154a.691.691,0,0,0,0,1,.692.692,0,0,0,1.01,0l2.154-2.154a.711.711,0,1,0-1.009-1Z" transform="translate(-265.741 -401.896)" fill="#353535"/>
    <path id="Path_1304" data-name="Path 1304" d="M283.754,296.576a2.116,2.116,0,0,0,2.154-2.154v-2.869a2.154,2.154,0,0,0-4.307,0v2.869A2.116,2.116,0,0,0,283.754,296.576Zm-.715-5.022a.676.676,0,0,1,.715-.715.719.719,0,0,1,.715.715v2.869a.715.715,0,0,1-1.43,0Z" transform="translate(-257.91 -265.054)" fill="#353535"/>
    <path id="Path_1305" data-name="Path 1305" d="M97.228,94.065a.691.691,0,0,0-1,0l-2.162,2.154a.691.691,0,0,0,0,1,.692.692,0,0,0,1.01,0l2.154-2.154A.691.691,0,0,0,97.228,94.065Z" transform="translate(-85.955 -85.955)" fill="#353535"/>
    <path id="Path_1306" data-name="Path 1306" d="M95.5,145.265,94.065,146.7a.691.691,0,0,0,0,1,.692.692,0,0,0,1.01,0l1.439-1.439a.691.691,0,0,0,0-1A.7.7,0,0,0,95.5,145.265Z" transform="translate(-85.955 -132.847)" fill="#353535"/>
    <path id="Path_1307" data-name="Path 1307" d="M137.766,97.319l2.154-2.154a.708.708,0,0,0-1-1l-2.154,2.145a.691.691,0,0,0,0,1,.655.655,0,0,0,.5.219A.631.631,0,0,0,137.766,97.319Z" transform="translate(-125.063 -86.046)" fill="#353535"/>
    <path id="Path_1308" data-name="Path 1308" d="M147.254,230.4a2.116,2.116,0,0,0-2.154,2.154v2.869a2.154,2.154,0,0,0,4.307,0v-2.869A2.116,2.116,0,0,0,147.254,230.4Zm.715,5.022a.715.715,0,0,1-1.43,0v-2.869a.676.676,0,0,1,.715-.715.719.719,0,0,1,.715.715Z" transform="translate(-132.893 -211.017)" fill="#353535"/>
    <path id="Path_1309" data-name="Path 1309" d="M333,442.219a.692.692,0,0,0,1.01,0l2.154-2.154a.708.708,0,0,0-1-1L333,441.218A.678.678,0,0,0,333,442.219Z" transform="translate(-304.78 -401.931)" fill="#353535"/>
    <path id="Path_1310" data-name="Path 1310" d="M342.161,399.023a.656.656,0,0,0,.5-.219l1.439-1.439a.708.708,0,0,0-1-1l-1.439,1.439a.691.691,0,0,0,0,1A.626.626,0,0,0,342.161,399.023Z" transform="translate(-312.725 -362.823)" fill="#353535"/>
    <rect id="Rectangle_726" data-name="Rectangle 726" width="10.768" height="31.59" transform="translate(7.176 7.176)" fill="none"/>
    <rect id="Rectangle_727" data-name="Rectangle 727" width="10.768" height="0.656" transform="translate(22.251 43.073)" fill="none"/>
    <path id="Path_1311" data-name="Path 1311" d="M34.915,18.53H67.943a.715.715,0,1,0,0-1.43H34.915a.769.769,0,0,0-.715.715A.714.714,0,0,0,34.915,18.53Z" transform="translate(-31.323 -15.661)" fill="none"/>
    <path id="Path_1312" data-name="Path 1312" d="M51.707,477.808H34.2v.715a.676.676,0,0,0,.715.715H52.144V477.8h-.437Z" transform="translate(-31.323 -437.604)" fill="none"/>
    <path id="Path_1313" data-name="Path 1313" d="M409.6,477.9v1.439h2.154a.676.676,0,0,0,.715-.715v-.715H409.6Z" transform="translate(-375.142 -437.696)" fill="none"/>
    <rect id="Rectangle_728" data-name="Rectangle 728" width="10.768" height="0.656" transform="translate(22.251 43.073)" fill="none"/>
    <path id="Path_1314" data-name="Path 1314" d="M51.707,477.808H34.2v.715a.676.676,0,0,0,.715.715H52.144V477.8h-.437Z" transform="translate(-31.323 -437.604)" fill="none"/>
    <path id="Path_1315" data-name="Path 1315" d="M34.915,18.53H67.943a.715.715,0,1,0,0-1.43H34.915a.769.769,0,0,0-.715.715A.714.714,0,0,0,34.915,18.53Z" transform="translate(-31.323 -15.661)" fill="none"/>
    <rect id="Rectangle_729" data-name="Rectangle 729" width="10.768" height="31.59" transform="translate(7.176 7.176)" fill="none"/>
    <path id="Path_1316" data-name="Path 1316" d="M409.6,477.9v1.439h2.154a.676.676,0,0,0,.715-.715v-.715H409.6Z" transform="translate(-375.142 -437.696)" fill="none"/>
    <path id="Path_1317" data-name="Path 1317" d="M34.915,18.53H67.943a.715.715,0,1,0,0-1.43H34.915a.769.769,0,0,0-.715.715A.714.714,0,0,0,34.915,18.53Z" transform="translate(-31.323 -15.661)" fill="none"/>
    <rect id="Rectangle_730" data-name="Rectangle 730" width="10.768" height="31.59" transform="translate(7.176 7.176)" fill="none"/>
    <rect id="Rectangle_731" data-name="Rectangle 731" width="10.768" height="0.656" transform="translate(22.251 43.073)" fill="none"/>
    <path id="Path_1318" data-name="Path 1318" d="M409.6,477.9v1.439h2.154a.676.676,0,0,0,.715-.715v-.715H409.6Z" transform="translate(-375.142 -437.696)" fill="none"/>
    <path id="Path_1319" data-name="Path 1319" d="M51.707,477.808H34.2v.715a.676.676,0,0,0,.715.715H52.144V477.8h-.437Z" transform="translate(-31.323 -437.604)" fill="none"/>
    <path id="Path_1320" data-name="Path 1320" d="M292.518,439.03l-2.154,2.154a.691.691,0,0,0,0,1,.692.692,0,0,0,1.01,0l2.154-2.154a.711.711,0,1,0-1.009-1Z" transform="translate(-265.741 -401.896)" fill="none"/>
    <path id="Path_1321" data-name="Path 1321" d="M283.754,296.576a2.116,2.116,0,0,0,2.154-2.154v-2.869a2.154,2.154,0,0,0-4.307,0v2.869A2.116,2.116,0,0,0,283.754,296.576Z" transform="translate(-257.91 -265.054)" fill="none"/>
    <path id="Path_1322" data-name="Path 1322" d="M264.5,173.795h10.768V144.3H264.5Zm5.527-3.5-2.154,2.154a.692.692,0,0,1-1.01,0,.691.691,0,0,1,0-1l2.154-2.154a.711.711,0,0,1,1.01,1Zm-4.089-11.635a2.154,2.154,0,1,1,4.307,0v2.869a2.154,2.154,0,1,1-4.307,0Z" transform="translate(-242.249 -132.16)" fill="none"/>
    <path id="Path_1323" data-name="Path 1323" d="M39.481,38.766H37.327V4.19a2.109,2.109,0,0,0,1.439-2.036A2.116,2.116,0,0,0,36.612,0H3.592A2.116,2.116,0,0,0,1.439,2.154,2.147,2.147,0,0,0,2.877,4.181V38.766H.715a.715.715,0,0,0,0,1.43H1.43v.715a2.116,2.116,0,0,0,2.154,2.154H20.813v2.095H33.735a.676.676,0,0,0,.715-.715V43.073H36.6a2.116,2.116,0,0,0,2.154-2.154V40.2h.715a.719.719,0,0,0,.008-1.439ZM3.592,1.439H36.62a.676.676,0,0,1,.715.715.676.676,0,0,1-.715.715H3.592a.719.719,0,0,1-.715-.715A.769.769,0,0,1,3.592,1.439Zm17.229,40.2H3.592a.676.676,0,0,1-.715-.715V40.2H20.821ZM7.176,38.766V7.176H17.944v31.59ZM33.02,43.729H22.251v-.656H33.02Zm0-2.095H22.251V12.14H33.02Zm.723-30.925H20.821V38.766h-1.43V7.176h1.388V5.746H6.461a.676.676,0,0,0-.715.715v32.3H4.307V4.307H35.888V38.766H34.45V11.424A.665.665,0,0,0,33.743,10.709Zm3.584,30.21a.676.676,0,0,1-.715.715H34.458V40.2h2.869Z" transform="translate(0 0)" fill="#353535"/>
  </g>
  <path id="Path_1324" data-name="Path 1324" d="M297.782,565.1a.586.586,0,0,0-.412-.168.572.572,0,0,0-.412.168l-1.935,1.935v-9.75a.589.589,0,0,0-1.178,0v9.776l-1.943-1.943a.594.594,0,0,0-.412-.177h0a.547.547,0,0,0-.412.177.6.6,0,0,0-.177.421.547.547,0,0,0,.177.412l2.936,2.944a.581.581,0,0,0,.379.168h.093a.557.557,0,0,0,.412-.227l2.894-2.894A.6.6,0,0,0,297.782,565.1Z" transform="translate(-266.428 -509.867)" fill="#353535"/>
</svg>
