<svg id="Group_1261" data-name="Group 1261" xmlns="http://www.w3.org/2000/svg" width="42" height="42" viewBox="0 0 42 42">
  <circle id="Ellipse_676" data-name="Ellipse 676" cx="0.88" cy="0.88" r="0.88" transform="translate(35.629 28.629)" fill="none"/>
  <circle id="Ellipse_677" data-name="Ellipse 677" cx="0.88" cy="0.88" r="0.88" transform="translate(11.82 20.078)" fill="none"/>
  <circle id="Ellipse_678" data-name="Ellipse 678" cx="0.88" cy="0.88" r="0.88" transform="translate(29.509 20.078)" fill="none"/>
  <circle id="Ellipse_679" data-name="Ellipse 679" cx="0.88" cy="0.88" r="0.88" transform="translate(30.096 33.323)" fill="none"/>
  <circle id="Ellipse_680" data-name="Ellipse 680" cx="0.88" cy="0.88" r="0.88" transform="translate(4.611 28.629)" fill="none"/>
  <circle id="Ellipse_681" data-name="Ellipse 681" cx="0.88" cy="0.88" r="0.88" transform="translate(10.144 33.323)" fill="none"/>
  <path id="Path_1434" data-name="Path 1434" d="M117.3,392.5a1.3,1.3,0,1,0,1.3,1.3A1.306,1.306,0,0,0,117.3,392.5Zm0,2.18a.88.88,0,1,1,.88-.88A.88.88,0,0,1,117.3,394.68Z" transform="translate(-106.275 -359.596)" fill="#353535"/>
  <path id="Path_1435" data-name="Path 1435" d="M51.3,336.5a1.3,1.3,0,1,0,1.3,1.3A1.306,1.306,0,0,0,51.3,336.5Zm0,2.18a.88.88,0,1,1,.88-.88A.88.88,0,0,1,51.3,338.68Z" transform="translate(-45.808 -308.29)" fill="#353535"/>
  <path id="Path_1436" data-name="Path 1436" d="M137.3,234.5a1.3,1.3,0,1,0,1.3,1.3A1.306,1.306,0,0,0,137.3,234.5Zm0,2.18a.88.88,0,1,1,.88-.88A.88.88,0,0,1,137.3,236.68Z" transform="translate(-124.599 -214.841)" fill="#353535"/>
  <path id="Path_1437" data-name="Path 1437" d="M355.3,392.5a1.3,1.3,0,1,0,1.3,1.3A1.306,1.306,0,0,0,355.3,392.5Zm0,2.18a.88.88,0,1,1,.88-.88A.88.88,0,0,1,355.3,394.68Z" transform="translate(-324.323 -359.596)" fill="#353535"/>
  <path id="Path_1438" data-name="Path 1438" d="M421.3,336.5a1.3,1.3,0,1,0,1.3,1.3A1.306,1.306,0,0,0,421.3,336.5Zm0,2.18a.88.88,0,1,1,.88-.88A.88.88,0,0,1,421.3,338.68Z" transform="translate(-384.79 -308.29)" fill="#353535"/>
  <g id="Group_813" data-name="Group 813">
    <path id="Path_1439" data-name="Path 1439" d="M30.7,48.411,30.738,48H17.719A1.721,1.721,0,0,0,16,49.719V80.234a1.721,1.721,0,0,0,1.719,1.719H30.729l-.042-.411a4.525,4.525,0,0,1-.025-.469V48.88C30.671,48.729,30.679,48.578,30.7,48.411Zm-5.013,2.062a1.3,1.3,0,1,1-1.3,1.3A1.306,1.306,0,0,1,25.683,50.473ZM20.15,74.784a1.3,1.3,0,1,1,1.3-1.3A1.306,1.306,0,0,1,20.15,74.784Zm0-17.018a1.3,1.3,0,1,1,1.3-1.3A1.306,1.306,0,0,1,20.15,57.766Zm5.533,21.713a1.3,1.3,0,1,1,1.3-1.3A1.306,1.306,0,0,1,25.683,79.479Zm1.677-13.246a1.3,1.3,0,1,1,1.3-1.3A1.306,1.306,0,0,1,27.359,66.234Z" transform="translate(-14.659 -43.976)" fill="none"/>
    <circle id="Ellipse_682" data-name="Ellipse 682" cx="0.88" cy="0.88" r="0.88" transform="translate(35.629 11.611)" fill="none"/>
    <circle id="Ellipse_683" data-name="Ellipse 683" cx="0.88" cy="0.88" r="0.88" transform="translate(30.096 6.916)" fill="none"/>
    <path id="Path_1440" data-name="Path 1440" d="M214.078,17.048a3.74,3.74,0,0,0-.6-.486,3.533,3.533,0,0,0-3.823,0,3.74,3.74,0,0,0-.6.486A3.549,3.549,0,0,0,208.042,19a3.168,3.168,0,0,0-.042.562V51.754a4.222,4.222,0,0,0,.042.562,3.5,3.5,0,0,0,1.006,1.953,3.739,3.739,0,0,0,.6.486,3.533,3.533,0,0,0,3.823,0,3.74,3.74,0,0,0,.6-.486,3.549,3.549,0,0,0,1.006-1.953,3.165,3.165,0,0,0,.042-.562V19.563a4.212,4.212,0,0,0-.042-.562A3.549,3.549,0,0,0,214.078,17.048Z" transform="translate(-190.563 -14.659)" fill="none"/>
    <path id="Path_1441" data-name="Path 1441" d="M322.311,48H309.3l.042.411a4.519,4.519,0,0,1,.025.469V81.072a4.644,4.644,0,0,1-.025.469l-.042.411h13.011a1.721,1.721,0,0,0,1.719-1.719V49.719A1.721,1.721,0,0,0,322.311,48Zm-9.85,16.934a1.3,1.3,0,1,1,1.3,1.3A1.306,1.306,0,0,1,312.46,64.934Zm1.886,14.545a1.3,1.3,0,1,1,1.3-1.3A1.306,1.306,0,0,1,314.347,79.479Zm0-26.407a1.3,1.3,0,1,1,1.3-1.3A1.306,1.306,0,0,1,314.347,53.072Zm5.533,21.713a1.3,1.3,0,1,1,1.3-1.3A1.306,1.306,0,0,1,319.88,74.784Zm0-17.018a1.3,1.3,0,1,1,1.3-1.3A1.306,1.306,0,0,1,319.88,57.766Z" transform="translate(-283.371 -43.976)" fill="none"/>
    <circle id="Ellipse_684" data-name="Ellipse 684" cx="0.88" cy="0.88" r="0.88" transform="translate(4.611 11.611)" fill="none"/>
    <circle id="Ellipse_685" data-name="Ellipse 685" cx="0.88" cy="0.88" r="0.88" transform="translate(10.144 6.916)" fill="none"/>
    <path id="Path_1442" data-name="Path 1442" d="M38.94,2.683H25.376l-.134-.226a4.891,4.891,0,0,0-8.484,0l-.134.226H3.06A3.066,3.066,0,0,0,0,5.743V36.257a3.066,3.066,0,0,0,3.06,3.06H16.624l.134.226a4.891,4.891,0,0,0,8.484,0l.134-.226H38.94A3.066,3.066,0,0,0,42,36.257V5.743A3.066,3.066,0,0,0,38.94,2.683ZM16.121,37.557l.05.5H3.06a1.8,1.8,0,0,1-1.8-1.8V5.743a1.8,1.8,0,0,1,1.8-1.8h13.1l-.05.5a4.367,4.367,0,0,0-.025.461V37.1C16.1,37.247,16.1,37.4,16.121,37.557Zm8.526-.461a4.475,4.475,0,0,1-.042.578,3.609,3.609,0,0,1-1.023,2,3.856,3.856,0,0,1-.612.495,3.616,3.616,0,0,1-3.923,0,3.856,3.856,0,0,1-.612-.495,3.579,3.579,0,0,1-1.023-2,3.359,3.359,0,0,1-.042-.578V4.9a4.475,4.475,0,0,1,.042-.578,3.66,3.66,0,0,1,1.023-2,3.855,3.855,0,0,1,.612-.495,3.616,3.616,0,0,1,3.923,0,3.855,3.855,0,0,1,.612.495,3.579,3.579,0,0,1,1.023,2,3.359,3.359,0,0,1,.042.578Zm16.1-.838a1.8,1.8,0,0,1-1.8,1.8h-13.1l.05-.5a4.366,4.366,0,0,0,.025-.461V4.9a4.49,4.49,0,0,0-.025-.461l-.05-.5h13.1a1.8,1.8,0,0,1,1.8,1.8Z" fill="#353535"/>
    <path id="Path_1443" data-name="Path 1443" d="M117.3,80.1a1.3,1.3,0,1,0-1.3-1.3A1.306,1.306,0,0,0,117.3,80.1Zm0-2.18a.88.88,0,1,1-.88.88A.88.88,0,0,1,117.3,77.919Z" transform="translate(-106.275 -71.003)" fill="#353535"/>
    <path id="Path_1444" data-name="Path 1444" d="M51.3,133.5a1.3,1.3,0,1,0,1.3,1.3A1.306,1.306,0,0,0,51.3,133.5Zm0,2.18a.88.88,0,1,1,.88-.88A.88.88,0,0,1,51.3,135.68Z" transform="translate(-45.808 -122.308)" fill="#353535"/>
    <path id="Path_1445" data-name="Path 1445" d="M355.3,77.5a1.3,1.3,0,1,0,1.3,1.3A1.306,1.306,0,0,0,355.3,77.5Zm0,2.18a.88.88,0,1,1,.88-.88A.88.88,0,0,1,355.3,79.68Z" transform="translate(-324.323 -71.003)" fill="#353535"/>
    <path id="Path_1446" data-name="Path 1446" d="M421.3,133.5a1.3,1.3,0,1,0,1.3,1.3A1.306,1.306,0,0,0,421.3,133.5Zm0,2.18a.88.88,0,1,1,.88-.88A.88.88,0,0,1,421.3,135.68Z" transform="translate(-384.79 -122.308)" fill="#353535"/>
  </g>
  <path id="Path_1447" data-name="Path 1447" d="M349.6,235.8a1.3,1.3,0,1,0-1.3,1.3A1.306,1.306,0,0,0,349.6,235.8Zm-2.18,0a.88.88,0,1,1,.88.88A.88.88,0,0,1,347.419,235.8Z" transform="translate(-317.91 -214.841)" fill="#353535"/>
</svg>
