<svg id="Group_1262" data-name="Group 1262" xmlns="http://www.w3.org/2000/svg" width="40.293" height="42" viewBox="0 0 40.293 42">
  <path id="Path_1355" data-name="Path 1355" d="M40.293,2.1a2.064,2.064,0,0,0-2.1-2.1H5.989a2.064,2.064,0,0,0-2.1,2.1,2.1,2.1,0,0,0,2.1,2.1H6.7L3.963,37.807H.7A.7.7,0,0,0,.7,39.2h.7v.7A2.064,2.064,0,0,0,3.5,42H35.7a2.064,2.064,0,0,0,2.1-2.1v-.7h.7a.7.7,0,0,0,0-1.395H35.026L37.75,4.258,37.011,4.2h1.165A2.067,2.067,0,0,0,40.293,2.1Zm-35.01,0a.75.75,0,0,1,.7-.7h32.2a.659.659,0,0,1,.7.7.659.659,0,0,1-.7.7H5.989A.7.7,0,0,1,5.284,2.1ZM36.4,39.908a.659.659,0,0,1-.7.7H3.5a.659.659,0,0,1-.7-.7v-.7H36.413v.7ZM10.748,7.089h22.6L31.892,24.4H9.3ZM9.181,25.878H31.769l-1,11.93H8.188Zm24.376,11.93H32.245L34.862,6.588a.658.658,0,0,0-.016-.222V6.35a.735.735,0,0,0-.738-.738H10.067a.735.735,0,0,0-.738.738v.057a.7.7,0,0,0-.025.139L6.7,37.807H5.44L8.172,4.2H36.289Z" transform="translate(0)" fill="#353535"/>
  <path id="Path_1356" data-name="Path 1356" d="M146.143,112.949a.639.639,0,0,0,.492-.213l2.1-2.1a.69.69,0,0,0-.976-.976l-2.1,2.1a.674.674,0,0,0,0,.976A.61.61,0,0,0,146.143,112.949Z" transform="translate(-133.516 -100.47)" fill="#353535"/>
  <path id="Path_1357" data-name="Path 1357" d="M213.8,114.139a.675.675,0,0,0,.985,0l3.5-3.5a.69.69,0,1,0-.976-.976l-3.5,3.5A.655.655,0,0,0,213.8,114.139Z" transform="translate(-196.063 -100.47)" fill="#353535"/>
  <path id="Path_1358" data-name="Path 1358" d="M146.962,203.459l-1.4,1.4a.674.674,0,0,0,0,.976.675.675,0,0,0,.985,0l1.4-1.4a.674.674,0,0,0,0-.976A.684.684,0,0,0,146.962,203.459Z" transform="translate(-133.424 -186.574)" fill="#353535"/>
  <path id="Path_1359" data-name="Path 1359" d="M146.143,163.352a.639.639,0,0,0,.492-.213l1.4-1.4a.69.69,0,0,0-.976-.976l-1.4,1.4a.674.674,0,0,0,0,.976A.586.586,0,0,0,146.143,163.352Z" transform="translate(-133.516 -147.377)" fill="#353535"/>
  <path id="Path_1360" data-name="Path 1360" d="M188.2,112.736a.675.675,0,0,0,.985,0l2.1-2.1a.69.69,0,1,0-.976-.976l-2.1,2.1A.655.655,0,0,0,188.2,112.736Z" transform="translate(-172.564 -100.47)" fill="#353535"/>
  <circle id="Ellipse_675" data-name="Ellipse 675" cx="0.697" cy="0.697" r="0.697" transform="translate(15.136 15.279) rotate(-45)" fill="#353535"/>
</svg>
