<svg id="Group_11506" data-name="Group 11506" xmlns="http://www.w3.org/2000/svg" width="17.917" height="21.5" viewBox="0 0 17.917 21.5">
  <path id="Path_11523" data-name="Path 11523" d="M17.558,20.783H16.483V19.35H14.692V15.677a2.9,2.9,0,0,0-1.3-2.419L9.585,10.75,13.393,8.2a2.9,2.9,0,0,0,1.3-2.419V2.15h1.792V.717h1.075a.385.385,0,0,0,.358-.358A.385.385,0,0,0,17.558,0H.358A.385.385,0,0,0,0,.358.385.385,0,0,0,.358.717H1.433V2.15H3.225V5.823a2.9,2.9,0,0,0,1.3,2.419l3.807,2.553L4.524,13.348a2.9,2.9,0,0,0-1.3,2.419V19.44H1.433v1.433H.358A.385.385,0,0,0,0,21.231a.4.4,0,0,0,.358.269h17.2a.358.358,0,1,0,0-.717ZM2.15,1.433V.717H15.767v.717ZM4.927,7.615a2.121,2.121,0,0,1-.985-1.792V2.15H13.975V5.823a2.121,2.121,0,0,1-.985,1.792L8.958,10.3Zm-.985,8.063a2.121,2.121,0,0,1,.985-1.792L8.958,11.2l4.031,2.688a2.121,2.121,0,0,1,.985,1.792V19.35H3.942ZM2.15,20.067H15.767v.717H2.15Zm0,0" fill="#fff"/>
  <path id="Path_11524" data-name="Path 11524" d="M11.43,12.147a.766.766,0,0,1-.314-.582v-.806a.358.358,0,1,0-.717,0v.806a1.369,1.369,0,0,0,.672,1.209l1.657,1.12a.269.269,0,0,0,.179.045.338.338,0,0,0,.314-.179.4.4,0,0,0-.09-.493Zm0,0" transform="translate(-5.742 -5.742)" fill="#fff"/>
  <path id="Path_11525" data-name="Path 11525" d="M25.493,31.562l-1.657-1.12a.354.354,0,1,0-.4.582l1.657,1.12a.678.678,0,0,1,.314.627v.806a.358.358,0,1,0,.717,0v-.806a1.428,1.428,0,0,0-.627-1.209Zm0,0" transform="translate(-12.861 -16.781)" fill="#fff"/>
</svg>
