<svg xmlns="http://www.w3.org/2000/svg" width="30.302" height="30.303" viewBox="0 0 30.302 30.303">
  <path id="Path_546" data-name="Path 546" d="M3058.979,995.76h-2.189a1.9,1.9,0,0,0-3.758,0h-21.737a1.9,1.9,0,0,0-3.757,0h-1.647a.542.542,0,0,0-.542.543v4.339a.542.542,0,0,0,.542.542h1.647a1.9,1.9,0,0,0,3.757,0h21.737a1.9,1.9,0,0,0,3.758,0h2.189a.542.542,0,0,0,.542-.542V996.3A.542.542,0,0,0,3058.979,995.76Zm-32.547,1.085h1.085v3.255h-1.085Zm3.8,0v4.068a.814.814,0,0,1-1.627,0v-4.882a.818.818,0,0,1,.814-.814.815.815,0,0,1,.766.542.806.806,0,0,1,.047.271Zm22.783,3.255h-21.7v-3.255h21.7Zm2.712-3.255v4.068a.814.814,0,0,1-1.627,0v-4.882a.814.814,0,0,1,1.627,0Zm2.712,3.255h-1.627v-3.255h1.627Z" transform="translate(-2842.202 1460.451) rotate(-45)" fill="#575757"/>
</svg>
