<svg width="10" height="10" xmlns="http://www.w3.org/2000/svg"><path d="M4.985 8.164L1.419 4.598l3.566-3.565a.584.584 0 000-.832.584.584 0 00-.832 0L.173 4.183a.592.592 0 000 .831l3.98 3.98a.583.583 0 00.832 0 .583.583 0 000-.83z" fill="#fff"><animate attributeName="opacity" from="1" to="0" dur="0.75s" repeatCount="indefinite"/></path><path d="M8.966 8.164L5.4 4.598l3.566-3.565a.584.584 0 000-.832.584.584 0 00-.832 0l-3.98 3.982a.584.584 0 000 .83l3.98 3.982a.583.583 0 00.832 0 .584.584 0 000-.831z" fill="#fff"><animate attributeName="opacity" from="0" to="1" dur="0.75s" repeatCount="indefinite"/></path></svg>