<svg width="10" height="10" xmlns="http://www.w3.org/2000/svg"><path d="M.172 8.215l3.566-3.566L.172 1.083a.584.584 0 010-.83.584.584 0 01.831 0l3.981 3.98a.584.584 0 010 .832l-3.98 3.98a.583.583 0 01-.832 0 .584.584 0 010-.83z" fill="#fff"><animate attributeName="opacity" from="0" to="1" dur="0.75s" repeatCount="indefinite"/></path><path d="M4.153 8.215L7.72 4.649 4.153 1.083a.584.584 0 010-.83.584.584 0 01.831 0l3.982 3.98a.592.592 0 010 .831L4.984 9.046a.583.583 0 01-.83 0 .583.583 0 010-.831z" fill="#fff"><animate attributeName="opacity" from="1" to="0" dur="0.75s" repeatCount="indefinite"/></path></svg>