<?xml version="1.0" encoding="UTF-8"?>
<svg id="SVGDoc" width="127" height="127" xmlns="http://www.w3.org/2000/svg" version="1.1" xmlns:xlink="http://www.w3.org/1999/xlink" xmlns:avocode="https://avocode.com/" viewBox="0 0 127 127"><defs></defs><desc>Generated with Avocode.</desc><g><g><title>Group 12851</title><g><title>Path 20494</title><path d="M116.18552,47.00813l-7.21625,-4.17181l4.17084,-7.21517l7.21619,4.17077zM97.41513,79.522l-7.21588,-4.17078l16.68414,-28.90628l7.21619,4.17077zM83.37906,95.49746c-0.8811,-0.61405 -1.15192,-1.79571 -0.62518,-2.73254l1.04291,-1.81422l3.62897,2.0859l-1.04291,1.79362c-0.2923,0.5074 -0.78333,0.868 -1.35461,0.99525c-0.57153,0.12619 -1.16943,0.00809 -1.64917,-0.32801zM89.63577,89.47102l-1.04291,-0.60519l-3.08618,-1.7944l2.96094,-7.92516l6.56934,3.7961zM118.06155,31.24073c0.27612,-0.48289 0.73419,-0.8354 1.27313,-0.97882c0.53552,-0.13245 1.10181,-0.05814 1.58478,0.2086c0.48364,0.27507 0.83624,0.73345 0.9809,1.2711c0.13214,0.53581 0.05792,1.10213 -0.20886,1.58503l-1.04297,1.815l-3.62897,-2.08591zM125.92435,30.65798c-0.43073,-1.60197 -1.48175,-2.96799 -2.91895,-3.79585c-1.43927,-0.83228 -3.15027,-1.05728 -4.75537,-0.62656c-1.60223,0.43204 -2.96802,1.48204 -3.79608,2.92003l-1.04297,1.81422c-0.99115,-0.56841 -2.25598,-0.2344 -2.83551,0.75145l-5.29718,9.03017l-1.815,-1.04296c-0.48077,-0.27795 -1.05322,-0.3533 -1.58893,-0.20884c-0.53687,0.14575 -0.99316,0.49826 -1.26898,0.98089c-0.56537,0.99708 -0.22119,2.26322 0.77191,2.83553l1.81506,1.04296l-17.72736,30.72025l-4.37964,11.70065l-2.08594,3.8991c-1.22107,2.12448 -1.09064,4.76551 0.33429,6.75781l-4.69226,5.75554l-1.31384,-3.29391c-0.5929,-1.46873 -1.96497,-2.47493 -3.54242,-2.59826c-1.5777,-0.12413 -3.09021,0.65601 -3.90405,2.01368l-0.75067,1.27214l-0.70886,-8.34259c-0.16302,-1.97301 -1.69067,-3.55987 -3.65637,-3.79819c-1.9668,-0.23727 -3.8277,0.94101 -4.45605,2.81833l-5.13025,15.39167c-0.35858,1.08885 0.22809,2.26112 1.31281,2.62773c0.20386,0.09465 0.42261,0.15175 0.64685,0.16609c0.89612,0.00313 1.69489,-0.56841 1.98187,-1.41685l5.10889,-15.39167l0.73041,8.46695c0.15057,1.80563 1.4494,3.308 3.21436,3.71736c1.76593,0.40962 3.5932,-0.36868 4.52332,-1.92373l0.77203,-1.27215l1.29248,3.27437c0.54883,1.38008 1.79053,2.36515 3.26025,2.58392c1.46954,0.21902 2.94354,-0.36034 3.87225,-1.52063l4.85944,-6.15161c0.53754,0.14053 1.09161,0.21067 1.64783,0.20859c2.23553,0.01748 4.3103,-1.16003 5.44299,-3.08793l2.08582,-3.48243l7.9455,-9.65541l17.91461,-31.09624l1.815,1.04296c0.48364,0.27715 0.83624,0.73449 0.9798,1.27213c0.14453,0.53478 0.06909,1.10502 -0.20776,1.58479l-8.34259,14.45379c-0.3147,0.47453 -0.42187,1.05704 -0.29541,1.61215c0.12622,0.55511 0.47345,1.03487 0.96234,1.32716c0.48083,0.27924 1.05316,0.3546 1.58899,0.2099c0.5368,-0.14576 0.99316,-0.49802 1.26898,-0.9809l8.34155,-14.45249c0.83234,-1.43929 1.05731,-3.15052 0.62549,-4.75459c-0.43176,-1.60302 -1.48096,-2.96903 -2.91919,-3.79687l-1.81476,-1.04295l5.21375,-9.03017c0.56921,-0.99107 0.23413,-2.25617 -0.75067,-2.83656l1.04297,-1.81396c0.85443,-1.46171 1.08051,-3.20736 0.62524,-4.83801z" fill="currentColor" fill-opacity="1"></path><path d="M116.18552,47.00813l-7.21625,-4.17181l4.17084,-7.21517l7.21619,4.17077zM97.41513,79.522l-7.21588,-4.17078l16.68414,-28.90628l7.21619,4.17077zM83.37906,95.49746c-0.8811,-0.61405 -1.15192,-1.79571 -0.62518,-2.73254l1.04291,-1.81422l3.62897,2.0859l-1.04291,1.79362c-0.2923,0.5074 -0.78333,0.868 -1.35461,0.99525c-0.57153,0.12619 -1.16943,0.00809 -1.64917,-0.32801zM89.63577,89.47102l-1.04291,-0.60519l-3.08618,-1.7944l2.96094,-7.92516l6.56934,3.7961zM118.06155,31.24073c0.27612,-0.48289 0.73419,-0.8354 1.27313,-0.97882c0.53552,-0.13245 1.10181,-0.05814 1.58478,0.2086c0.48364,0.27507 0.83624,0.73345 0.9809,1.2711c0.13214,0.53581 0.05792,1.10213 -0.20886,1.58503l-1.04297,1.815l-3.62897,-2.08591zM125.92435,30.65798c-0.43073,-1.60197 -1.48175,-2.96799 -2.91895,-3.79585c-1.43927,-0.83228 -3.15027,-1.05728 -4.75537,-0.62656c-1.60223,0.43204 -2.96802,1.48204 -3.79608,2.92003l-1.04297,1.81422c-0.99115,-0.56841 -2.25598,-0.2344 -2.83551,0.75145l-5.29718,9.03017l-1.815,-1.04296c-0.48077,-0.27795 -1.05322,-0.3533 -1.58893,-0.20884c-0.53687,0.14575 -0.99316,0.49826 -1.26898,0.98089c-0.56537,0.99708 -0.22119,2.26322 0.77191,2.83553l1.81506,1.04296l-17.72736,30.72025l-4.37964,11.70065l-2.08594,3.8991c-1.22107,2.12448 -1.09064,4.76551 0.33429,6.75781l-4.69226,5.75554l-1.31384,-3.29391c-0.5929,-1.46873 -1.96497,-2.47493 -3.54242,-2.59826c-1.5777,-0.12413 -3.09021,0.65601 -3.90405,2.01368l-0.75067,1.27214l-0.70886,-8.34259c-0.16302,-1.97301 -1.69067,-3.55987 -3.65637,-3.79819c-1.9668,-0.23727 -3.8277,0.94101 -4.45605,2.81833l-5.13025,15.39167c-0.35858,1.08885 0.22809,2.26112 1.31281,2.62773c0.20386,0.09465 0.42261,0.15175 0.64685,0.16609c0.89612,0.00313 1.69489,-0.56841 1.98187,-1.41685l5.10889,-15.39167l0.73041,8.46695c0.15057,1.80563 1.4494,3.308 3.21436,3.71736c1.76593,0.40962 3.5932,-0.36868 4.52332,-1.92373l0.77203,-1.27215l1.29248,3.27437c0.54883,1.38008 1.79053,2.36515 3.26025,2.58392c1.46954,0.21902 2.94354,-0.36034 3.87225,-1.52063l4.85944,-6.15161c0.53754,0.14053 1.09161,0.21067 1.64783,0.20859c2.23553,0.01748 4.3103,-1.16003 5.44299,-3.08793l2.08582,-3.48243l7.9455,-9.65541l17.91461,-31.09624l1.815,1.04296c0.48364,0.27715 0.83624,0.73449 0.9798,1.27213c0.14453,0.53478 0.06909,1.10502 -0.20776,1.58479l-8.34259,14.45379c-0.3147,0.47453 -0.42187,1.05704 -0.29541,1.61215c0.12622,0.55511 0.47345,1.03487 0.96234,1.32716c0.48083,0.27924 1.05316,0.3546 1.58899,0.2099c0.5368,-0.14576 0.99316,-0.49802 1.26898,-0.9809l8.34155,-14.45249c0.83234,-1.43929 1.05731,-3.15052 0.62549,-4.75459c-0.43176,-1.60302 -1.48096,-2.96903 -2.91919,-3.79687l-1.81476,-1.04295l5.21375,-9.03017c0.56921,-0.99107 0.23413,-2.25617 -0.75067,-2.83656l1.04297,-1.81396c0.85443,-1.46171 1.08051,-3.20736 0.62524,-4.83801z" fill-opacity="0" fill="#ffffff" stroke-dashoffset="0" stroke-linejoin="miter" stroke-linecap="butt" stroke-opacity="1" stroke="#efefef" stroke-miterlimit="20" stroke-width="1.5"></path></g><g><title>Path 20495</title><path d="M33.90918,94.45447l-7.38126,7.36275v0l-4.42242,-4.42239c-0.81268,-0.80856 -2.12656,-0.80856 -2.94034,0c-0.39526,0.39215 -0.61719,0.92484 -0.61719,1.481c0,0.55614 0.22192,1.08987 0.61719,1.48099l4.42136,4.42134c0.78223,0.77597 1.83951,1.21089 2.94141,1.20984c1.10812,0.00627 2.17346,-0.42865 2.96094,-1.20984l7.36172,-7.38333c0.70892,-0.82785 0.66092,-2.06035 -0.10901,-2.83031c-0.77103,-0.77101 -2.00436,-0.81898 -2.8324,-0.11005z" fill="currentColor" fill-opacity="1"></path><path d="M33.90918,94.45447l-7.38126,7.36275v0l-4.42242,-4.42239c-0.81268,-0.80856 -2.12656,-0.80856 -2.94034,0c-0.39526,0.39215 -0.61719,0.92484 -0.61719,1.481c0,0.55614 0.22192,1.08987 0.61719,1.48099l4.42136,4.42134c0.78223,0.77597 1.83951,1.21089 2.94141,1.20984c1.10812,0.00627 2.17346,-0.42865 2.96094,-1.20984l7.36172,-7.38333c0.70892,-0.82785 0.66092,-2.06035 -0.10901,-2.83031c-0.77103,-0.77101 -2.00436,-0.81898 -2.8324,-0.11005z" fill-opacity="0" fill="#ffffff" stroke-dashoffset="0" stroke-linejoin="miter" stroke-linecap="butt" stroke-opacity="1" stroke="#efefef" stroke-miterlimit="20" stroke-width="1.5"></path></g><g><title>Path 20496</title><path d="M9.3426,100.06456c0,9.79073 7.93643,17.72711 17.72717,17.72711c9.78992,0 17.72733,-7.93638 17.72733,-17.72711c0,-1.15195 -0.93393,-2.08591 -2.08585,-2.08591c-1.15195,0 -2.08594,0.93396 -2.08594,2.08591c0,7.48685 -6.06949,13.55633 -13.55554,13.55633c-7.48688,0 -13.55637,-6.06948 -13.55637,-13.55633c0,-7.48711 6.06949,-13.55659 13.55637,-13.55659c2.93436,-0.00809 5.79123,0.94439 8.13293,2.71246c0.92175,0.69147 2.22961,0.50401 2.91998,-0.41771c0.69156,-0.92171 0.50507,-2.22853 -0.41663,-2.92001c-5.37143,-4.02815 -12.55927,-4.67609 -18.5643,-1.67342c-6.00613,3.00268 -9.79916,9.14124 -9.79916,15.85527z" fill="currentColor" fill-opacity="1"></path><path d="M9.3426,100.06456c0,9.79073 7.93643,17.72711 17.72717,17.72711c9.78992,0 17.72733,-7.93638 17.72733,-17.72711c0,-1.15195 -0.93393,-2.08591 -2.08585,-2.08591c-1.15195,0 -2.08594,0.93396 -2.08594,2.08591c0,7.48685 -6.06949,13.55633 -13.55554,13.55633c-7.48688,0 -13.55637,-6.06948 -13.55637,-13.55633c0,-7.48711 6.06949,-13.55659 13.55637,-13.55659c2.93436,-0.00809 5.79123,0.94439 8.13293,2.71246c0.92175,0.69147 2.22961,0.50401 2.91998,-0.41771c0.69156,-0.92171 0.50507,-2.22853 -0.41663,-2.92001c-5.37143,-4.02815 -12.55927,-4.67609 -18.5643,-1.67342c-6.00613,3.00268 -9.79916,9.14124 -9.79916,15.85527z" fill-opacity="0" fill="#ffffff" stroke-dashoffset="0" stroke-linejoin="miter" stroke-linecap="butt" stroke-opacity="1" stroke="#efefef" stroke-miterlimit="20" stroke-width="1.5"></path></g><g><title>Path 20497</title><path d="M76.07948,17.68517c1.15192,0 2.08594,-0.93292 2.08594,-2.08591c0,-1.15195 -0.93402,-2.08591 -2.08594,-2.08591h-54.22351c-1.15198,0 -2.08591,0.93396 -2.08591,2.08591v8.34261c0,1.15193 0.93393,2.08487 2.08591,2.08487h54.22351c1.15192,0 2.08594,-0.93294 2.08594,-2.08487c0,-1.15196 -0.93402,-2.08592 -2.08594,-2.08592h-52.13867v0v-4.17078v0z" fill="currentColor" fill-opacity="1"></path><path d="M76.07948,17.68517c1.15192,0 2.08594,-0.93292 2.08594,-2.08591c0,-1.15195 -0.93402,-2.08591 -2.08594,-2.08591h-54.22351c-1.15198,0 -2.08591,0.93396 -2.08591,2.08591v8.34261c0,1.15193 0.93393,2.08487 2.08591,2.08487h54.22351c1.15192,0 2.08594,-0.93294 2.08594,-2.08487c0,-1.15196 -0.93402,-2.08592 -2.08594,-2.08592h-52.13867v0v-4.17078v0z" fill-opacity="0" fill="#ffffff" stroke-dashoffset="0" stroke-linejoin="miter" stroke-linecap="butt" stroke-opacity="1" stroke="#efefef" stroke-miterlimit="20" stroke-width="1.5"></path></g><g><title>Path 20498</title><path d="M28.11165,30.19856c-1.15094,0 -2.0849,0.93318 -2.0849,2.08513c0,1.15273 0.93396,2.0859 2.0849,2.0859h41.71112c1.15198,0 2.08594,-0.93317 2.08594,-2.0859c0,-1.15195 -0.93396,-2.08513 -2.08594,-2.08513z" fill="currentColor" fill-opacity="1"></path><path d="M28.11165,30.19856c-1.15094,0 -2.0849,0.93318 -2.0849,2.08513c0,1.15273 0.93396,2.0859 2.0849,2.0859h41.71112c1.15198,0 2.08594,-0.93317 2.08594,-2.0859c0,-1.15195 -0.93396,-2.08513 -2.08594,-2.08513z" fill-opacity="0" fill="#ffffff" stroke-dashoffset="0" stroke-linejoin="miter" stroke-linecap="butt" stroke-opacity="1" stroke="#efefef" stroke-miterlimit="20" stroke-width="1.5"></path></g><g><title>Path 20499</title><path d="M82.33616,44.79706h-45.88171c-1.15192,0 -2.08588,0.93396 -2.08588,2.08591c0,1.15298 0.93396,2.08486 2.08588,2.08486h45.88171c1.15192,0 2.08594,-0.93188 2.08594,-2.08486c0,-1.15195 -0.93402,-2.08591 -2.08594,-2.08591z" fill="currentColor" fill-opacity="1"></path><path d="M82.33616,44.79706h-45.88171c-1.15192,0 -2.08588,0.93396 -2.08588,2.08591c0,1.15298 0.93396,2.08486 2.08588,2.08486h45.88171c1.15192,0 2.08594,-0.93188 2.08594,-2.08486c0,-1.15195 -0.93402,-2.08591 -2.08594,-2.08591z" fill-opacity="0" fill="#ffffff" stroke-dashoffset="0" stroke-linejoin="miter" stroke-linecap="butt" stroke-opacity="1" stroke="#efefef" stroke-miterlimit="20" stroke-width="1.5"></path></g><g><title>Path 20500</title><path d="M61.48119,59.39636c0,-1.15194 -0.9339,-2.08591 -2.08594,-2.08591h-41.71109c-1.15192,0 -2.08487,0.93397 -2.08487,2.08591c0,1.15299 0.93295,2.08487 2.08487,2.08487h41.71109c1.15204,0 2.08594,-0.93188 2.08594,-2.08487z" fill="currentColor" fill-opacity="1"></path><path d="M61.48119,59.39636c0,-1.15194 -0.9339,-2.08591 -2.08594,-2.08591h-41.71109c-1.15192,0 -2.08487,0.93397 -2.08487,2.08591c0,1.15299 0.93295,2.08487 2.08487,2.08487h41.71109c1.15204,0 2.08594,-0.93188 2.08594,-2.08487z" fill-opacity="0" fill="#ffffff" stroke-dashoffset="0" stroke-linejoin="miter" stroke-linecap="butt" stroke-opacity="1" stroke="#efefef" stroke-miterlimit="20" stroke-width="1.5"></path></g><g><title>Path 20501</title><path d="M82.33627,57.31045h-14.59827c-1.15192,0 -2.086,0.93397 -2.086,2.08591c0,1.15299 0.93408,2.08487 2.086,2.08487h14.59827c1.15192,0 2.08588,-0.93188 2.08588,-2.08487c0,-1.15194 -0.93396,-2.08591 -2.08588,-2.08591z" fill="currentColor" fill-opacity="1"></path><path d="M82.33627,57.31045h-14.59827c-1.15192,0 -2.086,0.93397 -2.086,2.08591c0,1.15299 0.93408,2.08487 2.086,2.08487h14.59827c1.15192,0 2.08588,-0.93188 2.08588,-2.08487c0,-1.15194 -0.93396,-2.08591 -2.08588,-2.08591z" fill-opacity="0" fill="#ffffff" stroke-dashoffset="0" stroke-linejoin="miter" stroke-linecap="butt" stroke-opacity="1" stroke="#efefef" stroke-miterlimit="20" stroke-width="1.5"></path></g><g><title>Path 20502</title><path d="M38.54042,71.90971c1.15192,0 2.08487,-0.93292 2.08487,-2.08591c0,-1.15194 -0.93295,-2.08591 -2.08487,-2.08591h-20.85626c-1.15192,0 -2.08487,0.93397 -2.08487,2.08591c0,1.15299 0.93295,2.08591 2.08487,2.08591z" fill="currentColor" fill-opacity="1"></path><path d="M38.54042,71.90971c1.15192,0 2.08487,-0.93292 2.08487,-2.08591c0,-1.15194 -0.93295,-2.08591 -2.08487,-2.08591h-20.85626c-1.15192,0 -2.08487,0.93397 -2.08487,2.08591c0,1.15299 0.93295,2.08591 2.08487,2.08591z" fill-opacity="0" fill="#ffffff" stroke-dashoffset="0" stroke-linejoin="miter" stroke-linecap="butt" stroke-opacity="1" stroke="#efefef" stroke-miterlimit="20" stroke-width="1.5"></path></g><g><title>Path 20503</title><path d="M46.88197,71.90971h14.59937c1.15192,0 2.08582,-0.93292 2.08582,-2.08591c0,-1.15194 -0.9339,-2.08591 -2.08582,-2.08591h-14.59937c-1.15088,0 -2.0849,0.93397 -2.0849,2.08591c0,1.15299 0.93402,2.08591 2.0849,2.08591z" fill="currentColor" fill-opacity="1"></path><path d="M46.88197,71.90971h14.59937c1.15192,0 2.08582,-0.93292 2.08582,-2.08591c0,-1.15194 -0.9339,-2.08591 -2.08582,-2.08591h-14.59937c-1.15088,0 -2.0849,0.93397 -2.0849,2.08591c0,1.15299 0.93402,2.08591 2.0849,2.08591z" fill-opacity="0" fill="#ffffff" stroke-dashoffset="0" stroke-linejoin="miter" stroke-linecap="butt" stroke-opacity="1" stroke="#efefef" stroke-miterlimit="20" stroke-width="1.5"></path></g><g><title>Path 20504</title><path d="M94.84976,96.93571c-1.15195,0 -2.08511,0.93394 -2.08511,2.08589v20.85597c0,1.15196 -0.93399,2.08488 -2.08594,2.08488h-83.42203c-1.15195,0 -2.08594,-0.93291 -2.08594,-2.08488v-112.62091c0,-1.15089 0.93399,-2.08484 2.08594,-2.08484h83.42203c1.15195,0 2.08594,0.93394 2.08594,2.08484v39.16794c0,1.15195 0.93317,2.08589 2.08511,2.08589c1.1517,0 2.08597,-0.93394 2.08597,-2.08589v-39.16794c0,-3.45479 -2.80219,-6.25668 -6.25702,-6.25668h-83.42203c-3.45477,0 -6.25668,2.8019 -6.25668,6.25668v112.62091c0,3.45584 2.80191,6.2567 6.25668,6.2567h83.42203c3.45483,0 6.25702,-2.80086 6.25702,-6.2567v-20.85597c0,-1.15195 -0.93427,-2.08589 -2.08597,-2.08589z" fill="currentColor" fill-opacity="1"></path><path d="M94.84976,96.93571c-1.15195,0 -2.08511,0.93394 -2.08511,2.08589v20.85597c0,1.15196 -0.93399,2.08488 -2.08594,2.08488h-83.42203c-1.15195,0 -2.08594,-0.93291 -2.08594,-2.08488v-112.62091c0,-1.15089 0.93399,-2.08484 2.08594,-2.08484h83.42203c1.15195,0 2.08594,0.93394 2.08594,2.08484v39.16794c0,1.15195 0.93317,2.08589 2.08511,2.08589c1.1517,0 2.08597,-0.93394 2.08597,-2.08589v-39.16794c0,-3.45479 -2.80219,-6.25668 -6.25702,-6.25668h-83.42203c-3.45477,0 -6.25668,2.8019 -6.25668,6.25668v112.62091c0,3.45584 2.80191,6.2567 6.25668,6.2567h83.42203c3.45483,0 6.25702,-2.80086 6.25702,-6.2567v-20.85597c0,-1.15195 -0.93427,-2.08589 -2.08597,-2.08589z" fill-opacity="0" fill="#ffffff" stroke-dashoffset="0" stroke-linejoin="miter" stroke-linecap="butt" stroke-opacity="1" stroke="#efefef" stroke-miterlimit="20" stroke-width="1.5"></path></g></g></g></svg>