<?xml version="1.0" encoding="UTF-8"?>
<svg id="SVGDoc" width="15" height="26" xmlns="http://www.w3.org/2000/svg" version="1.1" xmlns:xlink="http://www.w3.org/1999/xlink" xmlns:avocode="https://avocode.com/" viewBox="0 0 15 26"><defs></defs><desc>Generated with Avocode.</desc><g><g><title>facebook</title><path d="M13.21845,2.00279h-0.00019M5.25624,14.63326c0,-0.44651 -0.36316,-0.80967 -0.80948,-0.80967h-2.73895v-3.36342h2.73895c0.44632,0 0.80948,-0.36335 0.80948,-0.80967v-2.59361c0,-3.12042 1.88198,-5.05905 4.91047,-5.05905l2.79941,0.00458v3.08723l-1.80283,0.00076c-0.57373,0 -1.39675,0.06828 -1.91898,0.65994c-0.43221,0.48943 -0.49038,1.14059 -0.49038,1.71318v2.18697c0,0.44651 0.36316,0.80967 0.80948,0.80967h3.25966l-0.00134,3.36342h-3.25813c-0.44632,0 -0.80967,0.36316 -0.80967,0.80967v9.43336h-3.4977zM9.00683,25.53223c0.66871,0 1.21288,-0.54397 1.21288,-1.21269v-9.03034h2.85492c0.66871,0 1.21269,-0.54397 1.21269,-1.21231l0.00153,-3.86944c0,-0.43927 -0.23918,-0.84572 -0.62389,-1.06068c-0.17833,-0.09957 -0.38585,-0.1524 -0.60005,-0.1524h-2.84519v-1.53084c0,-0.49877 0.06694,-0.67939 0.12321,-0.74329c0.03414,-0.03853 0.19379,-0.16422 0.82073,-0.16422l2.05574,-0.00076c0.66853,0 1.21231,-0.54397 1.21231,-1.21269v-3.59268c0,-0.66757 -0.54302,-1.21155 -1.21059,-1.21269l-3.05328,-0.00496c-1.88446,0 -3.48644,0.62161 -4.63276,1.79787c-1.14117,1.17092 -1.74446,2.80552 -1.74446,4.72679v1.93767h-2.33574c-0.66871,0 -1.21269,0.54397 -1.21269,1.21269v3.86944c0,0.66852 0.54397,1.21269 1.21269,1.21269h2.33574v9.03015c0,0.66872 0.54397,1.21269 1.21269,1.21269z" fill="currentColor" fill-opacity="1"></path></g></g></svg>