<svg width="32" height="32" xmlns="http://www.w3.org/2000/svg"><title>Избранное</title><defs><clipPath id="a"><path d="M-.027 32V0h32v32z"/></clipPath></defs><path d="M-.027 32V0h32v32z" fill="transparent"/><g clip-path="url(#a)"><path d="M24.185 21.016l1.327 7.738c.066.39-.085.759-.404.994a.994.994 0 01-1.07.075l-6.95-3.652a2.303 2.303 0 00-2.143 0l-6.947 3.652a.994.994 0 01-1.07-.075 1.003 1.003 0 01-.404-.994l1.327-7.738a2.305 2.305 0 00-.662-2.04L1.566 13.5a1.001 1.001 0 01-.257-1.042.998.998 0 01.82-.693l7.77-1.13a2.291 2.291 0 001.733-1.258l3.473-7.04a1 1 0 01.913-.566c.396 0 .735.21.91.566l3.477 7.04a2.285 2.285 0 001.731 1.259l7.77 1.13a.99.99 0 01.818.692.999.999 0 01-.254 1.042l-5.623 5.478a2.3 2.3 0 00-.662 2.04zm7.182-6.598c.63-.615.853-1.518.58-2.36a2.283 2.283 0 00-1.857-1.565l-7.772-1.129a1.017 1.017 0 01-.762-.556l-3.473-7.04A2.292 2.292 0 0016.018.484c-.882 0-1.672.492-2.065 1.282L10.48 8.808a1.022 1.022 0 01-.765.556l-7.772 1.13a2.28 2.28 0 00-1.857 1.565c-.27.84-.048 1.744.583 2.359l5.622 5.479c.24.235.35.57.292.9l-1.327 7.74c-.147.87.2 1.73.917 2.25a2.284 2.284 0 002.421.175l6.95-3.655c.295-.153.65-.153.948 0l6.946 3.655c.343.18.71.267 1.074.267.477 0 .947-.15 1.351-.442a2.292 2.292 0 00.917-2.25l-1.33-7.74c-.057-.33.053-.665.295-.897z" fill="currentColor"/></g></svg>