<svg width="25" height="25" xmlns="http://www.w3.org/2000/svg"><g fill="currentColor"><defs><clipPath id="a"><path d="M0 25V0h25v25z" fill="#fff"/></clipPath></defs><path d="M0 25v0V0v0h25v25z" fill="none" stroke="currentColor" stroke-miterlimit="50" stroke-width="2" clip-path="url(&quot;#a&quot;)"/><path d="M12.36 15.383a2.994 2.994 0 01-2.99-2.99 2.994 2.994 0 012.99-2.99 2.994 2.994 0 012.99 2.99 2.994 2.994 0 01-2.99 2.99zm0-6.768a3.783 3.783 0 00-3.778 3.778 3.783 3.783 0 003.778 3.778 3.783 3.783 0 003.778-3.778 3.783 3.783 0 00-3.778-3.778z"/><path d="M12.36 7.87a.394.394 0 00.394-.394V5.427a.394.394 0 00-.788 0v2.05c0 .217.176.393.394.393z"/><path d="M12.36 16.916a.394.394 0 00-.394.394v2.049a.394.394 0 10.788 0v-2.05a.394.394 0 00-.394-.393z"/><path d="M8.605 9.195a.393.393 0 00.557 0 .394.394 0 000-.557l-1.449-1.45a.394.394 0 00-.557.558z"/><path d="M16.115 15.591a.394.394 0 00-.557.557l1.449 1.45a.393.393 0 00.557 0 .394.394 0 000-.558z"/><path d="M7.837 12.393a.394.394 0 00-.394-.394H5.394a.394.394 0 100 .788h2.05a.394.394 0 00.393-.394z"/><path d="M19.326 11.999h-2.05a.394.394 0 100 .788h2.05a.394.394 0 100-.788z"/><path d="M15.837 9.31c.1 0 .201-.038.278-.115l1.45-1.449a.394.394 0 00-.558-.557l-1.449 1.449a.394.394 0 00.279.672z"/><path d="M8.605 15.591l-1.45 1.449a.394.394 0 00.558.557l1.449-1.449a.394.394 0 00-.557-.557z"/></g></svg>