<svg width="202" height="202" xmlns="http://www.w3.org/2000/svg"><path d="M85 2h115v198H85zm117 199V1a1 1 0 00-1-1H84a1 1 0 00-1 1v200a1 1 0 001 1h117a1 1 0 001-1z" fill="#fff"/><path d="M180.59 181.589h-76.76a1 1 0 01-1-1v-74.761a1 1 0 112 0v73.76h74.76V22.277h-74.76v75.76a1 1 0 11-2 0v-76.76a1 1 0 011-1h76.76a1 1 0 011 1v159.313a1 1 0 01-1 1z" fill="#d165e9"/><path d="M83.554 198.968H1a1 1 0 01-1-1V3.896a1 1 0 011-1h82.554a1 1 0 110 2H2v192.072h81.554a1 1 0 010 2z" fill="#fff"/><g><path d="M83.554 184.487H18.38a1 1 0 01-1-1V18.38a1 1 0 011-1h65.174a1 1 0 110 2H19.38v163.107h64.174a1 1 0 110 2z" fill="#fff"/></g><g><path d="M90.576 113.53c-1.904 0-3.555-1.53-3.677-3.51a3.875 3.875 0 010-.458l-.002-15.87c-.06-.934.271-1.895.932-2.643a3.71 3.71 0 013.029-1.254l5.732-.002a3.649 3.649 0 012.643.93 3.71 3.71 0 011.255 3.03 1 1 0 11-1.996-.122 1.726 1.726 0 00-.583-1.409 1.735 1.735 0 00-1.257-.431l-5.855.002a2.55 2.55 0 00-.275-.002 1.72 1.72 0 00-1.194.583 1.727 1.727 0 00-.433 1.257l.002 15.992a1.744 1.744 0 001.839 1.902l5.849-.002a1.74 1.74 0 001.902-1.839.999.999 0 01.937-1.06c.563-.018 1.026.386 1.059.937a3.743 3.743 0 01-3.959 3.96l-5.727.002a3.284 3.284 0 01-.221.007z" fill="#a9add8"/></g><g><path d="M120.94 99c.584 0 1.06.475 1.06 1.059v2.88c0 .585-.476 1.06-1.06 1.06H96.06c-.585 0-1.06-.475-1.06-1.06v-2.88a1.06 1.06 0 011.06-1.06zm3.06 3.94v-2.881a3.063 3.063 0 00-3.06-3.06H96.06a3.062 3.062 0 00-3.06 3.06v2.88a3.063 3.063 0 003.06 3.06h24.88a3.063 3.063 0 003.06-3.06z" fill="#a9add8"/></g></svg>