<svg width="209" height="202" xmlns="http://www.w3.org/2000/svg"><path d="M111.596 16.63a1.194 1.194 0 01-1.193-1.193V8.315a5.939 5.939 0 00-5.93-5.928H97.35a1.194 1.194 0 010-2.387h7.123c4.585 0 8.315 3.73 8.316 8.316v7.121c0 .658-.536 1.194-1.193 1.194z" fill="#fff"/><path d="M8.318 0h7.122c.657 0 1.193.535 1.193 1.193 0 .659-.536 1.194-1.193 1.194H8.316a5.935 5.935 0 00-5.928 5.928v7.122c0 .658-.536 1.194-1.194 1.194a1.195 1.195 0 01-1.193-1.194V8.315a8.26 8.26 0 012.436-5.88A8.262 8.262 0 018.317 0z" fill="#fff"/><path d="M8.318 0h7.122c.657 0 1.193.535 1.193 1.193 0 .659-.536 1.194-1.193 1.194H8.316a5.935 5.935 0 00-5.928 5.928v7.122c0 .658-.536 1.194-1.194 1.194a1.195 1.195 0 01-1.193-1.194V8.315a8.26 8.26 0 012.436-5.88A8.262 8.262 0 018.317 0z" fill="#fff"/><path d="M111.596 16.63a1.194 1.194 0 01-1.193-1.193V8.315a5.939 5.939 0 00-5.93-5.928H97.35a1.194 1.194 0 010-2.387h7.123c4.585 0 8.315 3.73 8.316 8.316v7.121c0 .658-.536 1.194-1.193 1.194z" fill="#fff"/><path d="M15.44 73.615c.657 0 1.192-.535 1.192-1.192V15.449a1.19 1.19 0 00-1.193-1.191c-.658 0-1.193.536-1.193 1.193v56.975c0 .427.22.71.35.84.13.131.414.35.843.35z" fill="#a9add8"/><path d="M58.175 73.615c.659 0 1.194-.535 1.194-1.193V15.445a1.194 1.194 0 00-2.387 0v56.977c0 .658.535 1.193 1.193 1.193z" fill="#a9add8"/><path d="M47.492 73.611c.657 0 1.192-.535 1.193-1.192V15.445a1.188 1.188 0 00-.35-.841c-.131-.131-.414-.35-.844-.35h-.001c-.657.001-1.192.536-1.192 1.194v56.974a1.188 1.188 0 001.194 1.19z" fill="#a9add8"/><path d="M29.685 73.611c.658 0 1.192-.535 1.193-1.192V15.445c0-.427-.22-.712-.35-.841-.131-.131-.414-.35-.843-.35h-.001c-.657.001-1.193.536-1.193 1.194v56.974c0 .428.22.71.35.84.132.132.415.35.844.35z" fill="#a9add8"/><path d="M204.394 130.202c-.333.334-.7.644-1.088.923l-9.096 6.499a8.918 8.918 0 01-5.164 1.637 8.887 8.887 0 01-4.982-1.517l-45.748-31.11c-7.263-4.94-12.167-12.412-13.81-21.04-1.643-8.63.174-17.381 5.113-24.644 1.155-1.7 2.48-3.3 3.936-4.757l1.835-1.834c1.596-1.577 4.174-1.577 5.757-.012l63.27 63.273c3.465 3.48 3.453 9.121-.023 12.582zm-51.363 58.447a24.08 24.08 0 01-5.097 7.267c-2.653 2.64-6.144 3.962-9.638 3.962a13.66 13.66 0 01-9.667-3.98l-1.16-1.16c-5.33-5.34-5.323-14.019.015-19.35a13.776 13.776 0 012.152-1.75l1.18-.82a20.146 20.146 0 007.066-7.95c2.867-5.767 2.867-12.643.003-18.403-.839-1.823-.464-3.907.896-5.262.39-.372.79-.641 1.224-.838a14.352 14.352 0 003.697-2.65c3.187-3.21 4.723-7.823 4.094-12.325l-1.703-11.732 30.903 21.01zm53.518-70.745c-.33-.461-.7-.899-1.102-1.302L142.179 53.34c-2.17-2.077-5.638-2.076-7.85.043l-1.778 1.788c-.667.668-1.293 1.391-2.028 2.272l-1.991 2.388-9.286-9.285.571-.961-1.791 2.09.196-.118 9.557 9.556-1.03 1.87c-8.58 15.577-3.952 34.852 10.762 44.837l6.96 4.733 1.89 13.033a13.255 13.255 0 01-3.685 11.1 12.792 12.792 0 01-3.303 2.378 5.685 5.685 0 00-1.625 1.13 5.959 5.959 0 00-1.165 6.937c2.662 5.353 2.662 11.737.003 17.084a18.69 18.69 0 01-6.585 7.407l-1.206.836c-3.407 2.266-5.699 5.677-6.497 9.637a15.025 15.025 0 002.232 11.358c.552.83 1.19 1.61 1.894 2.316l1.157 1.158a15.02 15.02 0 0010.567 4.387h.03a15.635 15.635 0 0011.008-4.615 24.999 24.999 0 005.155-7.468l23.839-53.733 5.063 3.439c3.519 2.383 8.205 2.357 11.698-.056l.115-.085 9.092-6.499c4.63-3.307 5.708-9.764 2.401-14.393z" fill="#fff"/><path d="M60.603 132.753c8.271 0 12.741 3.744 12.741 10.395 0 6.593-4.47 10.394-12.741 10.394H49.37v-20.79zm-.056 23.304c9.78 0 15.704-4.694 15.704-12.965 0-8.216-5.924-12.91-15.704-12.91H46.464v29.34h-5.98v1.9h5.98v7.88h2.906v-7.88h12.686v-1.9H49.37v-3.465z" fill="#d165e9"/><g><path d="M60.603 132.753c8.271 0 12.741 3.744 12.741 10.395 0 6.593-4.47 10.394-12.741 10.394H49.37v-20.79zm-.056 23.304c9.78 0 15.704-4.694 15.704-12.965 0-8.216-5.924-12.91-15.704-12.91H46.464v29.34h-5.98v1.9h5.98v7.88h2.906v-7.88h12.686v-1.9H49.37v-3.465z" fill="#d165e9"/></g><g><path d="M110.228 147.635c-.057 13.958-5.548 27.057-15.459 36.886-9.85 9.77-22.916 15.152-36.789 15.152h-.224c-28.695-.12-52.04-23.562-52.038-52.258 0-13.958 5.437-27.08 15.308-36.95 9.87-9.868 22.992-15.303 36.951-15.303h.213c13.958.058 27.059 5.549 36.887 15.46 9.829 9.91 15.21 23.055 15.151 37.013zm-13.462-38.319C86.533 99.01 72.899 93.303 58.376 93.25h-.205c-29.873 0-54.263 24.302-54.37 54.175-.11 29.982 24.193 54.464 54.174 54.574l.207.001c14.444 0 28.046-5.606 38.302-15.786 10.307-10.232 16.013-23.866 16.067-38.39.054-14.524-5.552-28.2-15.785-38.508z" fill="#d165e9"/></g><g><path d="M75.98 14.251c-.658 0-1.193.535-1.193 1.194v56.977a1.194 1.194 0 002.387 0V15.445c0-.659-.536-1.194-1.194-1.194z" fill="#a9add8"/></g><g><path d="M111.595 71.229c-.658 0-1.193.535-1.193 1.193v7.122a5.938 5.938 0 01-5.93 5.928h-7.123a1.194 1.194 0 000 2.387h7.123c4.585 0 8.315-3.73 8.316-8.316v-7.121c0-.658-.536-1.193-1.193-1.193z" fill="#fff"/></g><g><path d="M8.317 87.86h7.122a1.194 1.194 0 000-2.388H8.315a5.936 5.936 0 01-5.928-5.928v-7.122a1.194 1.194 0 00-2.387 0v7.122c0 2.221.865 4.31 2.436 5.88a8.261 8.261 0 005.88 2.435z" fill="#fff"/></g><g><path d="M8.317 87.86h7.122a1.194 1.194 0 000-2.388H8.315a5.936 5.936 0 01-5.928-5.928v-7.122a1.194 1.194 0 00-2.387 0v7.122c0 2.221.865 4.31 2.436 5.88a8.261 8.261 0 005.88 2.435z" fill="#fff"/><g><path d="M111.595 71.229c-.658 0-1.193.535-1.193 1.193v7.122a5.938 5.938 0 01-5.93 5.928h-7.123a1.194 1.194 0 000 2.387h7.123c4.585 0 8.315-3.73 8.316-8.316v-7.121c0-.658-.536-1.193-1.193-1.193z" fill="#fff"/></g></g><g><path d="M110.533 53.288c-5.81.04-10.6-4.628-10.66-10.448-.057-5.819 4.629-10.6 10.447-10.659 5.792-.069 10.601 4.628 10.66 10.447.059 5.82-4.628 10.601-10.447 10.66zm-.104-22.528h-.122a11.897 11.897 0 00-8.429 3.596 11.897 11.897 0 00-3.425 8.499 11.894 11.894 0 003.596 8.428 11.892 11.892 0 008.374 3.426h.124c6.603-.068 11.921-5.493 11.854-12.095-.067-6.562-5.424-11.854-11.972-11.854z" fill="#fff"/></g><g><path d="M86.666 14.251c-.659 0-1.194.535-1.194 1.194v56.977a1.194 1.194 0 002.387 0V15.445c0-.659-.535-1.194-1.193-1.194z" fill="#a9add8"/></g><g><path d="M154.577 84.542a1.654 1.654 0 00-1.154-.466h-.023c-.445.006-.86.185-1.172.504a1.66 1.66 0 000 2.326l17.611 17.614c.64.624 1.699.61 2.34-.048a1.657 1.657 0 000-2.327z" fill="#fff"/></g><g><path d="M142.02 71.983a1.667 1.667 0 00-2.354 2.344l2.413 2.414a1.67 1.67 0 002.31-.202 1.678 1.678 0 00.043-2.134z" fill="#fff"/></g><g><path d="M97.827 14.725c-.658 0-1.193.535-1.193 1.193V72.895a1.194 1.194 0 002.387 0V15.918c0-.658-.536-1.193-1.194-1.193z" fill="#a9add8"/></g><g><path d="M97.827 14.725c-.658 0-1.193.535-1.193 1.193V72.895a1.194 1.194 0 002.387 0V15.918c0-.658-.536-1.193-1.194-1.193z" fill="#a9add8"/><path d="M142.02 71.983a1.667 1.667 0 00-2.354 2.344l2.413 2.414a1.67 1.67 0 002.31-.202 1.678 1.678 0 00.043-2.134z" fill="#fff"/><path d="M154.577 84.542a1.654 1.654 0 00-1.154-.466h-.023c-.445.006-.86.185-1.172.504a1.66 1.66 0 000 2.326l17.611 17.614c.64.624 1.699.61 2.34-.048a1.657 1.657 0 000-2.327z" fill="#fff"/><path d="M8.317 87.86h7.122a1.194 1.194 0 000-2.388H8.315a5.936 5.936 0 01-5.928-5.928v-7.122a1.194 1.194 0 00-2.387 0v7.122c0 2.221.865 4.31 2.436 5.88a8.261 8.261 0 005.88 2.435z" fill="#fff"/><path d="M111.595 71.229c-.658 0-1.193.535-1.193 1.193v7.122a5.938 5.938 0 01-5.93 5.928h-7.123a1.194 1.194 0 000 2.387h7.123c4.585 0 8.315-3.73 8.316-8.316v-7.121c0-.658-.536-1.193-1.193-1.193z" fill="#fff"/><path d="M29.685 73.611c.658 0 1.192-.535 1.193-1.192V15.445c0-.427-.22-.712-.35-.841-.131-.131-.414-.35-.843-.35h-.001c-.657.001-1.193.536-1.193 1.194v56.974c0 .428.22.71.35.84.132.132.415.35.844.35z" fill="#a9add8"/><path d="M47.492 73.611c.657 0 1.192-.535 1.193-1.192V15.445a1.188 1.188 0 00-.35-.841c-.131-.131-.414-.35-.844-.35h-.001c-.657.001-1.192.536-1.192 1.194v56.974a1.188 1.188 0 001.194 1.19z" fill="#a9add8"/><g><path d="M58.175 73.615c.659 0 1.194-.535 1.194-1.193V15.445a1.194 1.194 0 00-2.387 0v56.977c0 .658.535 1.193 1.193 1.193z" fill="#a9add8"/></g><g><path d="M86.666 14.251c-.659 0-1.194.535-1.194 1.194v56.977a1.194 1.194 0 002.387 0V15.445c0-.659-.535-1.194-1.193-1.194z" fill="#a9add8"/></g><g><path d="M75.98 14.251c-.658 0-1.193.535-1.193 1.194v56.977a1.194 1.194 0 002.387 0V15.445c0-.659-.536-1.194-1.194-1.194z" fill="#a9add8"/></g><g><path d="M110.228 147.635c-.057 13.958-5.548 27.057-15.459 36.886-9.85 9.77-22.916 15.152-36.789 15.152h-.224c-28.695-.12-52.04-23.562-52.038-52.258 0-13.958 5.437-27.08 15.308-36.95 9.87-9.868 22.992-15.303 36.951-15.303h.213c13.958.058 27.059 5.549 36.887 15.46 9.829 9.91 15.21 23.055 15.151 37.013zm-13.462-38.319C86.533 99.01 72.899 93.303 58.376 93.25h-.205c-29.873 0-54.263 24.302-54.37 54.175-.11 29.982 24.193 54.464 54.174 54.574l.207.001c14.444 0 28.046-5.606 38.302-15.786 10.307-10.232 16.013-23.866 16.067-38.39.054-14.524-5.552-28.2-15.785-38.508z" fill="#d165e9"/></g><g><path d="M60.603 132.753c8.271 0 12.741 3.744 12.741 10.395 0 6.593-4.47 10.394-12.741 10.394H49.37v-20.79zm-.056 23.304c9.78 0 15.704-4.694 15.704-12.965 0-8.216-5.924-12.91-15.704-12.91H46.464v29.34h-5.98v1.9h5.98v7.88h2.906v-7.88h12.686v-1.9H49.37v-3.465z" fill="#d165e9"/></g><g><path d="M15.44 73.615c.657 0 1.192-.535 1.192-1.192V15.449a1.19 1.19 0 00-1.193-1.191c-.658 0-1.193.536-1.193 1.193v56.975c0 .427.22.71.35.84.13.131.414.35.843.35z" fill="#a9add8"/></g><g><path d="M8.318 0h7.122c.657 0 1.193.535 1.193 1.193 0 .659-.536 1.194-1.193 1.194H8.316a5.935 5.935 0 00-5.928 5.928v7.122c0 .658-.536 1.194-1.194 1.194a1.195 1.195 0 01-1.193-1.194V8.315a8.26 8.26 0 012.436-5.88A8.262 8.262 0 018.317 0z" fill="#fff"/><g><path d="M111.596 16.63a1.194 1.194 0 01-1.193-1.193V8.315a5.939 5.939 0 00-5.93-5.928H97.35a1.194 1.194 0 010-2.387h7.123c4.585 0 8.315 3.73 8.316 8.316v7.121c0 .658-.536 1.194-1.193 1.194z" fill="#fff"/></g></g><g><path d="M110.533 53.288c-5.81.04-10.6-4.628-10.66-10.448-.057-5.819 4.629-10.6 10.447-10.659 5.792-.069 10.601 4.628 10.66 10.447.059 5.82-4.628 10.601-10.447 10.66zm-.104-22.528h-.122a11.897 11.897 0 00-8.429 3.596 11.897 11.897 0 00-3.425 8.499 11.894 11.894 0 003.596 8.428 11.892 11.892 0 008.374 3.426h.124c6.603-.068 11.921-5.493 11.854-12.095-.067-6.562-5.424-11.854-11.972-11.854z" fill="#fff"/></g><g><path d="M204.394 130.202c-.333.334-.7.644-1.088.923l-9.096 6.499a8.918 8.918 0 01-5.164 1.637 8.887 8.887 0 01-4.982-1.517l-45.748-31.11c-7.263-4.94-12.167-12.412-13.81-21.04-1.643-8.63.174-17.381 5.113-24.644 1.155-1.7 2.48-3.3 3.936-4.757l1.835-1.834c1.596-1.577 4.174-1.577 5.757-.012l63.27 63.273c3.465 3.48 3.453 9.121-.023 12.582zm-51.363 58.447a24.08 24.08 0 01-5.097 7.267c-2.653 2.64-6.144 3.962-9.638 3.962a13.66 13.66 0 01-9.667-3.98l-1.16-1.16c-5.33-5.34-5.323-14.019.015-19.35a13.776 13.776 0 012.152-1.75l1.18-.82a20.146 20.146 0 007.066-7.95c2.867-5.767 2.867-12.643.003-18.403-.839-1.823-.464-3.907.896-5.262.39-.372.79-.641 1.224-.838a14.352 14.352 0 003.697-2.65c3.187-3.21 4.723-7.823 4.094-12.325l-1.703-11.732 30.903 21.01zm53.518-70.745c-.33-.461-.7-.899-1.102-1.302L142.179 53.34c-2.17-2.077-5.638-2.076-7.85.043l-1.778 1.788c-.667.668-1.293 1.391-2.028 2.272l-1.991 2.388-9.286-9.285.571-.961-1.791 2.09.196-.118 9.557 9.556-1.03 1.87c-8.58 15.577-3.952 34.852 10.762 44.837l6.96 4.733 1.89 13.033a13.255 13.255 0 01-3.685 11.1 12.792 12.792 0 01-3.303 2.378 5.685 5.685 0 00-1.625 1.13 5.959 5.959 0 00-1.165 6.937c2.662 5.353 2.662 11.737.003 17.084a18.69 18.69 0 01-6.585 7.407l-1.206.836c-3.407 2.266-5.699 5.677-6.497 9.637a15.025 15.025 0 002.232 11.358c.552.83 1.19 1.61 1.894 2.316l1.157 1.158a15.02 15.02 0 0010.567 4.387h.03a15.635 15.635 0 0011.008-4.615 24.999 24.999 0 005.155-7.468l23.839-53.733 5.063 3.439c3.519 2.383 8.205 2.357 11.698-.056l.115-.085 9.092-6.499c4.63-3.307 5.708-9.764 2.401-14.393z" fill="#fff"/></g></g></svg>