<svg width="202" height="202" xmlns="http://www.w3.org/2000/svg"><path d="M201 201.998h-62.687a1 1 0 110-2H200v-92.3a1 1 0 012 0v93.3a1 1 0 01-1 1z" fill="#fff"/><path d="M131.23 129.659c1.103 0 2 .898 2 2v18c0 1.103-.897 2-2 2h-3c-1.103 0-2-.897-2-2v-18c0-1.102.897-2 2-2zm4 20v-18c0-2.206-1.794-4-4-4h-3c-2.205 0-4 1.794-4 4v18c0 2.206 1.795 4 4 4h3c2.206 0 4-1.794 4-4z" fill="#a9b1f7"/><path d="M130.748 202H6.83a1 1 0 01-1-1v-84.555a1 1 0 011-1h123.917a1 1 0 011 1v10.569a1 1 0 11-2 0v-9.569H7.83V200h121.917v-45.9a1 1 0 112 0V201a1 1 0 01-1 1z" fill="#a9b1f7"/><path d="M23 117.334h92v68H23zm94 69v-70a1 1 0 00-1-1H22a1 1 0 00-1 1v70a1 1 0 001 1h94a1 1 0 001-1z" fill="#a9b1f7"/><path d="M6.119 103.402h132.037l-3.778 12.577H2.345zm129.003 14.577a1 1 0 00.958-.711l4.378-14.578a.998.998 0 00-.958-1.288H5.374c-.441 0-.831.29-.958.713L.042 116.692A1 1 0 001 117.979h134.122z" fill="#a9b1f7"/><path d="M6.119 88.916h132.037l-3.778 12.578H2.345zm129.96 13.866l4.379-14.578a1 1 0 00-.958-1.288H5.374c-.441 0-.831.29-.958.713L.042 102.207A1 1 0 001 103.494h134.122a1 1 0 00.958-.712z" fill="#a9b1f7"/><path d="M6.119 74.43h132.037l-3.778 12.579H2.345zm129.96 13.867l4.379-14.578a1 1 0 00-.958-1.288H5.374c-.441 0-.831.29-.958.713L.042 87.722A1 1 0 001 89.009h134.122a1 1 0 00.958-.712z" fill="#a9b1f7"/><path d="M179.59 67.037a2.647 2.647 0 01-2.644 2.645h-2.551a.094.094 0 01-.094-.095V37.384a.689.689 0 01.687-.692h1.958a2.647 2.647 0 012.645 2.645zm-7.773-11.816h-11v-7h11zm9.774-10.324v-5.56a4.65 4.65 0 00-4.645-4.645h-1.96a2.672 2.672 0 00-1.901.793 2.672 2.672 0 00-.784 1.902v8.834h-13.484v11H172.3v12.37a2.096 2.096 0 002.094 2.091h2.55a4.65 4.65 0 004.646-4.645v-20.14h18.404v49.025h-6.747V56.56h-11.2v2h9.2v39.362h10.747V44.897z" fill="#d165e9"/><g><path d="M201 34.073a1 1 0 01-1-1V2h-52.94a1 1 0 010-2H201a1 1 0 011 1v32.073a1 1 0 01-1 1z" fill="#fff"/></g><g><path d="M6.119 59.944h132.037l-3.778 12.578H2.345zm129.003 14.578a1 1 0 00.958-.712l4.378-14.578a1 1 0 00-.958-1.288H5.374c-.441 0-.831.29-.958.713L.042 73.235A1 1 0 001 74.522h134.122z" fill="#a9b1f7"/></g><g><path d="M6.119 45.458h132.037l-3.778 12.578H2.345zm129.003 14.578a1 1 0 00.958-.712l4.378-14.578a1 1 0 00-.958-1.288H5.374c-.441 0-.831.29-.958.713L.042 58.749A1 1 0 001 60.036h134.122z" fill="#a9b1f7"/></g><g><path d="M6.119 31.157h132.037l-3.778 12.578H2.345zm129.003 14.578a1 1 0 00.958-.712l4.378-14.578a1 1 0 00-.958-1.288H5.374c-.441 0-.831.29-.958.713L.042 44.448A1 1 0 001 45.735h134.122z" fill="#a9b1f7"/></g><g><path d="M6.119 16.579h132.037l-3.778 12.578H2.345zm129.003 14.578a1 1 0 00.958-.712l4.378-14.578a1 1 0 00-.958-1.288H5.374c-.441 0-.831.29-.958.713L.042 29.87A.999.999 0 001 31.157h134.122z" fill="#a9b1f7"/></g><g><path d="M6.119 2h132.037l-3.778 12.578H2.345zm129.003 14.578a1 1 0 00.958-.712l4.378-14.578A1 1 0 00139.5 0H5.374c-.441 0-.831.29-.958.712L.042 15.291A1 1 0 001 16.578h134.122z" fill="#a9b1f7"/></g><g><path d="M6.119 2h132.037l-3.778 12.578H2.345zm129.003 14.578a1 1 0 00.958-.712l4.378-14.578A1 1 0 00139.5 0H5.374c-.441 0-.831.29-.958.712L.042 15.291A1 1 0 001 16.578h134.122z" fill="#a9b1f7"/><path d="M6.119 16.579h132.037l-3.778 12.578H2.345zm129.003 14.578a1 1 0 00.958-.712l4.378-14.578a1 1 0 00-.958-1.288H5.374c-.441 0-.831.29-.958.713L.042 29.87A.999.999 0 001 31.157h134.122z" fill="#a9b1f7"/><path d="M6.119 31.157h132.037l-3.778 12.578H2.345zm129.003 14.578a1 1 0 00.958-.712l4.378-14.578a1 1 0 00-.958-1.288H5.374c-.441 0-.831.29-.958.713L.042 44.448A1 1 0 001 45.735h134.122z" fill="#a9b1f7"/><path d="M6.119 45.458h132.037l-3.778 12.578H2.345zm129.003 14.578a1 1 0 00.958-.712l4.378-14.578a1 1 0 00-.958-1.288H5.374c-.441 0-.831.29-.958.713L.042 58.749A1 1 0 001 60.036h134.122z" fill="#a9b1f7"/><path d="M6.119 59.944h132.037l-3.778 12.578H2.345zm129.003 14.578a1 1 0 00.958-.712l4.378-14.578a1 1 0 00-.958-1.288H5.374c-.441 0-.831.29-.958.713L.042 73.235A1 1 0 001 74.522h134.122z" fill="#a9b1f7"/><path d="M6.119 74.43h132.037l-3.778 12.579H2.345zm129.96 13.867l4.379-14.578a1 1 0 00-.958-1.288H5.374c-.441 0-.831.29-.958.713L.042 87.722A1 1 0 001 89.009h134.122a1 1 0 00.958-.712z" fill="#a9b1f7"/><path d="M6.119 88.916h132.037l-3.778 12.578H2.345zm129.96 13.866l4.379-14.578a1 1 0 00-.958-1.288H5.374c-.441 0-.831.29-.958.713L.042 102.207A1 1 0 001 103.494h134.122a1 1 0 00.958-.712z" fill="#a9b1f7"/><g><path d="M6.119 103.402h132.037l-3.778 12.577H2.345zm129.003 14.577a1 1 0 00.958-.711l4.378-14.578a.998.998 0 00-.958-1.288H5.374c-.441 0-.831.29-.958.713L.042 116.692A1 1 0 001 117.979h134.122z" fill="#a9b1f7"/></g><g><path d="M23 117.334h92v68H23zm94 69v-70a1 1 0 00-1-1H22a1 1 0 00-1 1v70a1 1 0 001 1h94a1 1 0 001-1z" fill="#a9b1f7"/></g><g><path d="M130.748 202H6.83a1 1 0 01-1-1v-84.555a1 1 0 011-1h123.917a1 1 0 011 1v10.569a1 1 0 11-2 0v-9.569H7.83V200h121.917v-45.9a1 1 0 112 0V201a1 1 0 01-1 1z" fill="#a9b1f7"/></g><g><path d="M131.23 129.659c1.103 0 2 .898 2 2v18c0 1.103-.897 2-2 2h-3c-1.103 0-2-.897-2-2v-18c0-1.102.897-2 2-2zm4 20v-18c0-2.206-1.794-4-4-4h-3c-2.205 0-4 1.794-4 4v18c0 2.206 1.795 4 4 4h3c2.206 0 4-1.794 4-4z" fill="#a9b1f7"/></g><g><path d="M201 201.998h-62.687a1 1 0 110-2H200v-92.3a1 1 0 012 0v93.3a1 1 0 01-1 1z" fill="#fff"/></g><g><path d="M201 34.073a1 1 0 01-1-1V2h-52.94a1 1 0 010-2H201a1 1 0 011 1v32.073a1 1 0 01-1 1z" fill="#fff"/></g><g><path d="M179.59 67.037a2.647 2.647 0 01-2.644 2.645h-2.551a.094.094 0 01-.094-.095V37.384a.689.689 0 01.687-.692h1.958a2.647 2.647 0 012.645 2.645zm-7.773-11.816h-11v-7h11zm9.774-10.324v-5.56a4.65 4.65 0 00-4.645-4.645h-1.96a2.672 2.672 0 00-1.901.793 2.672 2.672 0 00-.784 1.902v8.834h-13.484v11H172.3v12.37a2.096 2.096 0 002.094 2.091h2.55a4.65 4.65 0 004.646-4.645v-20.14h18.404v49.025h-6.747V56.56h-11.2v2h9.2v39.362h10.747V44.897z" fill="#d165e9"/></g></g></svg>