<svg width="200" height="202" xmlns="http://www.w3.org/2000/svg"><path d="M80.658 146.504l-.616-1.338 9.557 5c.951.495 1.287 1.14 1.4 1.594.172.684-.016 1.454-.543 2.226l-5.992 8.756-.09-1.461a41.222 41.222 0 00-3.716-14.777zm.903 33.958l-15.998-4.857.256-.53a25.496 25.496 0 002.456-8.91c.598-6.815-1.494-13.454-5.89-18.695-4.395-5.242-10.57-8.458-17.383-9.056l-.468-.04.237-13.48.525.035c20.854 1.346 36.905 18.768 36.54 39.662zm-.225 12.741a4.916 4.916 0 01-1.775 3.967 4.915 4.915 0 01-3.616 1.126l-59.342-1.034-7.441-13.42a39.181 39.181 0 01-5.428-18.722c-.652-21.548 16.348-39.608 37.895-40.26l.528-.015-.237 13.48-.468.024A25.487 25.487 0 0025 145.5a25.6 25.6 0 00-3.416 4.07c-3.828 5.665-5.221 12.482-3.922 19.195 1.3 6.713 5.135 12.518 10.8 16.346 5.665 3.826 12.482 5.22 19.195 3.92 6.712-1.3 12.517-5.135 16.345-10.8l.208-.307 16.941 5.143-.095.482.447.008zm-22.025-45.259a23.069 23.069 0 016.45 16.367 22.827 22.827 0 01-7.01 16.125c-4.316 4.17-9.968 6.454-15.955 6.454a22.827 22.827 0 01-16.536-7.013c-8.805-9.113-8.554-23.689.559-32.493 9.113-8.803 23.69-8.552 32.492.56zm67.536 42.08l-42.828-.75.381-21.84 8.166-11.931c.99-1.45 1.329-2.956.978-4.356-.349-1.393-1.352-2.557-2.9-3.364l-13.09-6.851-.072-.107a41.73 41.73 0 00-33.976-18.585 41.62 41.62 0 00-21.845 5.741C1.845 139.628-4.8 165.225 6.848 185.041l7.7 13.889c.246.642.819.998 1.43.938l59.96 1.044c.22.012.417.016.614.013 4.156-.076 7.475-3.519 7.4-7.675l.023-1.363 41.52.727-.113 6.559a1.3 1.3 0 00.366.93 1.3 1.3 0 00.917.4c.682 0 1.317-.563 1.33-1.284l.136-7.865a1.307 1.307 0 00-1.284-1.33z" fill="#d165e9"/><path d="M196.169 36.18H2.702V1.509h9.6a.727.727 0 00-.052.251v5.025a.754.754 0 001.508 0V1.76a.752.752 0 00-.05-.251h10.654a.727.727 0 00-.052.251v12.06a.754.754 0 001.508 0V1.76a.752.752 0 00-.05-.251h9.649a.728.728 0 00-.051.251v5.025a.754.754 0 001.507 0V1.76a.75.75 0 00-.05-.251h10.654a.728.728 0 00-.051.251v12.06a.754.754 0 001.507 0V1.76a.752.752 0 00-.05-.251h9.65a.727.727 0 00-.052.251v5.025a.754.754 0 001.508 0V1.76a.752.752 0 00-.05-.251h8.082c.275 8.61 7.346 15.536 16.022 15.538h30.15c8.679 0 15.752-6.925 16.027-15.538h10.724a.727.727 0 00-.051.251v5.025a.754.754 0 001.507 0V1.76a.752.752 0 00-.05-.251h9.649a.728.728 0 00-.051.251v12.06a.754.754 0 001.507 0V1.76a.75.75 0 00-.05-.251h9.65a.727.727 0 00-.052.251v5.025a.754.754 0 001.507 0V1.76a.752.752 0 00-.05-.251h9.65a.728.728 0 00-.052.251v12.06a.754.754 0 001.508 0V1.76a.75.75 0 00-.05-.251h9.649a.727.727 0 00-.052.251v5.025a.754.754 0 001.508 0V1.76a.752.752 0 00-.05-.251h9.598zM91.414 1.509a3.733 3.733 0 00-.772 2.261v2.01a3.773 3.773 0 003.768 3.769h11.056a3.773 3.773 0 003.768-3.769V3.77c0-.851-.294-1.63-.772-2.261h20.268c-.272 7.784-6.689 14.03-14.537 14.03h-30.15c-7.845-.001-14.26-6.248-14.532-14.03zm14.052 0a2.264 2.264 0 012.261 2.261v2.01a2.263 2.263 0 01-2.261 2.261H94.41a2.264 2.264 0 01-2.26-2.26V3.768a2.265 2.265 0 012.26-2.261zM1.195 0v37.688h196.481V0z" fill="#a9add8"/><path d="M174.258 148.32a2.72 2.72 0 01-2.717-2.717 2.72 2.72 0 012.717-2.717 2.72 2.72 0 012.718 2.717 2.72 2.72 0 01-2.718 2.718zm0-7.193a4.481 4.481 0 00-4.476 4.476 4.481 4.481 0 004.476 4.477 4.481 4.481 0 004.477-4.477 4.481 4.481 0 00-4.477-4.476z" fill="#fff"/><g><path d="M197.556 166.082h-4.14a6.203 6.203 0 01-4.405-1.85 6.196 6.196 0 01-1.813-4.419c.336-34.025-7.603-56.45-14.323-69.272a11.066 11.066 0 01-1.293-5.16 10.96 10.96 0 013.215-7.81 10.965 10.965 0 017.714-3.245l7.01-.004-.049.162c-.091.307-.182.576-.268.801a17.752 17.752 0 00-.493 11.29c5.537 19.075 8.598 41.8 9.099 67.539a256.11 256.11 0 01-.248 11.848zm-.09 1.891a256.642 256.642 0 01-1.851 20.275 6.238 6.238 0 01-6.179 5.45h-22.67a7.43 7.43 0 01-5.764-2.726 4.343 4.343 0 01-.73-1.406l-.052-.163h3.49c6.547-.019 11.888-5.362 11.908-11.91v-24.662l.1-.02a7.374 7.374 0 005.895-7.208 7.317 7.317 0 00-7.125-7.341l-.074-.002-.033-.068c-1.995-4.03-6.185-6.643-10.673-6.655h-6.05v-4.313c-.01-3.283-2.691-5.961-5.977-5.971h-1.23l-1.05-.03H106.86a17.8 17.8 0 01-9.339-2.645l-3.432-2.113.494.037c1.805-23.588 21.716-42.103 45.384-42.176h36.168l-.365.233a12.706 12.706 0 00-5.946 10.826c.004 2.079.522 4.146 1.498 5.978 6.624 12.64 14.45 34.774 14.118 68.438a7.931 7.931 0 002.33 5.668 8.026 8.026 0 005.694 2.371h4.01zm-12.369 29.61a2.707 2.707 0 01-2.696 2.658h-9.02c-.706 0-1.369-.275-1.868-.775-.501-.5-.775-1.163-.775-1.871v-2.138h14.36zm-10.838-57.575a5.602 5.602 0 015.595 5.595 5.6 5.6 0 01-5.595 5.595 5.601 5.601 0 01-5.595-5.595 5.601 5.601 0 015.595-5.595zm-14.124 47.489c.08-.452.225-.88.43-1.273 1.386-2.725 3.036-6.578 3.036-9.45v-16.231c0-2.036-.73-4.01-2.055-5.555l-2.257-2.623a6.78 6.78 0 01-1.632-4.41v-14.66h6.048c3.563.01 6.91 1.937 8.733 5.027l.085.143-.16.042a7.363 7.363 0 00-5.457 7.096c0 3.84 3.002 7.059 6.836 7.328l.117.008v24.552c-.017 5.582-4.57 10.137-10.15 10.153h-3.601zm-4.236-41.213h-3.715a4.33 4.33 0 01-3.282-1.481 4.329 4.329 0 01-1.076-3.154 97.324 97.324 0 00-.525-18.5l-.017-.14 4.394.002a4.24 4.24 0 014.22 4.216zm-29.79-23.153c-.16 1.889-1.762 3.368-3.646 3.368-1.888 0-3.489-1.481-3.647-3.373l-.01-.137 7.315.005zm-33.214-7.399l-.17-.106-15.897-9.786V62.195h9.464v13.353h7.045V62.195h88.987c3.022 0 5.192.93 6.452 2.766 1.638 2.387 1.423 5.721 1.15 7.497l-.017.106h-7.321a1.237 1.237 0 01-.078.004h-42.547c-11.74.036-23.027 4.465-31.783 12.474-8.741 7.996-14.164 18.823-15.266 30.488zM88.05 62.195h3.527V73.79h-3.527zm-12.982 42.562l-3.892-2.396c-4.007-2.466-6.496-6.92-6.496-11.625V72.648c.016-5.64 4.62-10.325 10.26-10.443l.128-.003zM59.546 94.01c-2.642-.037-4.787-2.217-4.782-4.86V74.704c0-2.629 2.14-4.769 4.77-4.769h3.704l-.033.153c-.185.853-.28 1.713-.283 2.557v18.09c0 1.028.112 2.079.33 3.12l.032.153zm-6.54-9.482h-3.143V80.34h3.143zm-4.902 10.837h-23.68V69.107h23.68zm-25.439-.128l-.145-.021a13.068 13.068 0 01-11.185-11.777l-.001-2.393A13.071 13.071 0 0122.52 69.257l.145-.021zM9.575 83.418v.646l-4.73-.365v-2.926l4.73-.365v.646c-.032.397-.06.786-.06 1.182 0 .396.028.785.06 1.182zm-6.49.145L1.76 83.46v-2.45l1.326-.102zm187.316 2.522a15.99 15.99 0 01.443-10.166c.76-1.967 2.128-7.951-.618-11.953-1.607-2.343-4.265-3.53-7.902-3.53H75.13c-4.982.014-9.42 3.022-11.306 7.663l-.032.079h-4.257a6.536 6.536 0 00-6.528 6.527v3.876h-3.143V67.349h-25.46c-6.782 0-12.705 4.596-14.402 11.177l-.022.087-9.98.77v5.705l9.98.771.023.087c1.697 6.581 7.619 11.177 14.4 11.177h25.461V86.286h3.143v2.86c-.007 3.601 2.922 6.571 6.53 6.621h4.25l.029.084c1.186 3.338 3.472 6.182 6.44 8.009l4.814 2.963v.427h.693l.03.019 20.806 12.807a19.55 19.55 0 0010.26 2.905l10.177.007.007.12a5.428 5.428 0 0010.84.007l.008-.119 17.624.012.014.11c.505 4.01.76 8.046.756 11.996 0 2.172-.072 4.332-.213 6.418a6.077 6.077 0 001.512 4.43 6.075 6.075 0 004.6 2.08h3.723l.003.123a8.555 8.555 0 002.047 5.345l2.255 2.624a6.783 6.783 0 011.631 4.41v16.23c0 1.97-1.008 5.04-2.839 8.643a6.145 6.145 0 00.63 6.658 9.2 9.2 0 007.133 3.382h2.213v2.141c0 1.176.458 2.281 1.29 3.113A4.373 4.373 0 00173.38 202h9.012c2.433 0 4.43-1.977 4.463-4.407v-2.136h2.575c4.022 0 7.428-3.003 7.928-6.984a257.79 257.79 0 002.21-34.378c-.504-25.905-3.588-48.787-9.168-68.01z" fill="#fff"/><path d="M145.994 84.75V82.99h14.395v1.759z" fill="#fff"/><path d="M145.994 90.109v-1.76h14.395v1.76z" fill="#fff"/><path d="M145.994 95.467V93.71h14.395v1.758z" fill="#fff"/><path d="M145.994 100.826v-1.759h14.395v1.759z" fill="#fff"/><path d="M145.994 106.184v-1.76h14.395v1.76z" fill="#fff"/><g><path d="M145.994 111.542v-1.758h14.395v1.758z" fill="#fff"/></g><g><path d="M29.021 77.17v-1.76h14.55v1.76z" fill="#fff"/></g><g><path d="M29.021 83.116v-1.759h14.55v1.759z" fill="#fff"/></g><g><path d="M29.021 89.062v-1.758h14.55v1.758z" fill="#fff"/></g><g><path d="M112.236 101.318h20.97v6.17h-20.97zm-1.758 7.929h24.487v-9.688h-24.487z" fill="#fff"/></g></g><g><path d="M51.471 169.39c0 3.874-2.681 6.852-8.112 6.852-3.376 0-6.522-1.257-8.144-3.111l.86-1.292c1.391 1.622 4.139 2.848 7.251 2.848 4.272 0 6.457-2.152 6.457-5.232 0-3.31-2.02-5.33-8.31-5.33H36.77l1.225-11.224h12.283v1.522h-10.86l-.894 8.18h3.312c7.052 0 9.634 2.68 9.634 6.786z" fill="#d165e9"/></g></svg>