<svg width="202" height="202" xmlns="http://www.w3.org/2000/svg"><path d="M151.734 39.56h2.655v27.717h-2.655zm-.848-8.867c0-1.168.956-2.177 2.176-2.177 1.221 0 2.177.956 2.177 2.124a2.153 2.153 0 01-2.177 2.178c-1.22 0-2.176-.956-2.176-2.125z" fill="#fff"/><path d="M151.734 39.56h2.655v27.717h-2.655zm-.848-8.867c0-1.168.956-2.177 2.176-2.177 1.221 0 2.177.956 2.177 2.124a2.153 2.153 0 01-2.177 2.178c-1.22 0-2.176-.956-2.176-2.125z" fill="#fff"/><path d="M194.711 2.082a4.17 4.17 0 014.165 4.165v83.3a4.17 4.17 0 01-4.165 4.164h-83.299a4.17 4.17 0 01-4.165-4.165V6.247a4.17 4.17 0 014.165-4.165zm6.248 87.464V6.247A6.254 6.254 0 00194.71 0h-83.299a6.255 6.255 0 00-6.247 6.247v83.3a6.254 6.254 0 006.247 6.247h83.3a6.254 6.254 0 006.247-6.248z" fill="#d165e9"/><g><path d="M89.546 107.247a4.17 4.17 0 014.165 4.165v83.3a4.17 4.17 0 01-4.165 4.164H6.247a4.17 4.17 0 01-4.165-4.165v-83.299a4.17 4.17 0 014.165-4.165zm6.248 87.464v-83.299a6.254 6.254 0 00-6.248-6.247H6.247A6.255 6.255 0 000 111.412v83.3a6.254 6.254 0 006.247 6.247h83.3a6.254 6.254 0 006.247-6.248z" fill="#a9add8"/></g><g><path d="M194.712 106.206a5.212 5.212 0 015.206 5.206v83.3a5.212 5.212 0 01-5.207 5.206h-83.299a5.212 5.212 0 01-5.206-5.207v-83.299a5.212 5.212 0 015.206-5.206zM202 194.711v-83.299c0-4.019-3.27-7.288-7.289-7.288h-83.299c-4.019 0-7.288 3.27-7.288 7.288v83.3c0 4.019 3.27 7.288 7.288 7.288h83.3c4.019 0 7.288-3.27 7.288-7.289z" fill="#a9add8"/></g><g><path d="M89.546 2.082a4.17 4.17 0 014.165 4.165v83.3a4.17 4.17 0 01-4.165 4.164H6.247a4.17 4.17 0 01-4.165-4.165V6.247a4.17 4.17 0 014.165-4.165zm6.248 87.464V6.247A6.254 6.254 0 0089.546 0H6.247A6.255 6.255 0 000 6.247v83.3a6.254 6.254 0 006.247 6.247h83.3a6.254 6.254 0 006.247-6.248z" fill="#a9add8"/></g><g><path d="M89.546 2.082a4.17 4.17 0 014.165 4.165v83.3a4.17 4.17 0 01-4.165 4.164H6.247a4.17 4.17 0 01-4.165-4.165V6.247a4.17 4.17 0 014.165-4.165zm6.248 87.464V6.247A6.254 6.254 0 0089.546 0H6.247A6.255 6.255 0 000 6.247v83.3a6.254 6.254 0 006.247 6.247h83.3a6.254 6.254 0 006.247-6.248z" fill="#a9add8"/><path d="M194.712 106.206a5.212 5.212 0 015.206 5.206v83.3a5.212 5.212 0 01-5.207 5.206h-83.299a5.212 5.212 0 01-5.206-5.207v-83.299a5.212 5.212 0 015.206-5.206zM202 194.711v-83.299c0-4.019-3.27-7.288-7.289-7.288h-83.299c-4.019 0-7.288 3.27-7.288 7.288v83.3c0 4.019 3.27 7.288 7.288 7.288h83.3c4.019 0 7.288-3.27 7.288-7.289z" fill="#a9add8"/><path d="M89.546 107.247a4.17 4.17 0 014.165 4.165v83.3a4.17 4.17 0 01-4.165 4.164H6.247a4.17 4.17 0 01-4.165-4.165v-83.299a4.17 4.17 0 014.165-4.165zm6.248 87.464v-83.299a6.254 6.254 0 00-6.248-6.247H6.247A6.255 6.255 0 000 111.412v83.3a6.254 6.254 0 006.247 6.247h83.3a6.254 6.254 0 006.247-6.248z" fill="#a9add8"/><g><path d="M194.711 2.082a4.17 4.17 0 014.165 4.165v83.3a4.17 4.17 0 01-4.165 4.164h-83.299a4.17 4.17 0 01-4.165-4.165V6.247a4.17 4.17 0 014.165-4.165zm6.248 87.464V6.247A6.254 6.254 0 00194.71 0h-83.299a6.255 6.255 0 00-6.247 6.247v83.3a6.254 6.254 0 006.247 6.247h83.3a6.254 6.254 0 006.247-6.248z" fill="#d165e9"/></g><g><path d="M151.734 39.56h2.655v27.717h-2.655zm-.848-8.867c0-1.168.956-2.177 2.176-2.177 1.221 0 2.177.956 2.177 2.124a2.153 2.153 0 01-2.177 2.178c-1.22 0-2.176-.956-2.176-2.125z" fill="#fff"/></g></g></svg>