<svg width="201" height="202" xmlns="http://www.w3.org/2000/svg"><path d="M154.21 85.449a1.033 1.033 0 100 2.067h10.337a1.034 1.034 0 000-2.067z" fill="#fff"/><path d="M133.536 85.449a1.033 1.033 0 100 2.067h10.337a1.034 1.034 0 000-2.067z" fill="#fff"/><path d="M185.22 85.449h-10.336a1.033 1.033 0 100 2.067h10.336a1.034 1.034 0 000-2.067z" fill="#fff"/><path d="M131.534 134.58c0-4.762 2.332-7.69 5.755-7.69 3.475 0 5.807 2.877 5.807 7.69 0 4.815-2.332 7.693-5.807 7.693-3.423 0-5.755-2.928-5.755-7.692zm13.447 0c0-5.655-3.175-9.378-7.692-9.378-4.515 0-7.64 3.723-7.64 9.379s3.125 9.379 7.64 9.379c4.517 0 7.692-3.723 7.692-9.38z" fill="#a9add8"/><path d="M158.478 125.401l-23.719 34.735h2.134l23.719-34.735z" fill="#a9add8"/><path d="M158.081 158.647c-3.473 0-5.805-2.879-5.805-7.691 0-4.813 2.332-7.691 5.805-7.691 3.425 0 5.757 2.927 5.757 7.69 0 4.765-2.332 7.692-5.757 7.692zm0-17.07c-4.515 0-7.69 3.722-7.69 9.378 0 5.658 3.175 9.38 7.69 9.38 4.516 0 7.642-3.722 7.642-9.38 0-5.656-3.126-9.377-7.642-9.377z" fill="#a9add8"/><g><path d="M158.172 32.86c0 5.322-4.33 9.651-9.651 9.651-5.322 0-9.652-4.329-9.652-9.65 0-5.322 4.33-9.652 9.652-9.652 5.32 0 9.651 4.33 9.651 9.652zm1.55 0c0-6.176-5.025-11.201-11.201-11.201-6.177 0-11.203 5.025-11.203 11.202 0 6.176 5.026 11.2 11.203 11.2 6.176 0 11.202-5.024 11.202-11.2z" fill="#fff"/></g><g><path d="M123.2 85.449h-10.338a1.033 1.033 0 100 2.067H123.2a1.034 1.034 0 000-2.067z" fill="#fff"/></g><g><path d="M36.557 139.073l-2.535 2.537a12.845 12.845 0 01-9.103 3.76 12.84 12.84 0 01-9.116-3.774c-5.02-5.025-5.013-13.199.013-18.218 5.02-5.012 13.185-5.013 18.206 0a12.796 12.796 0 013.777 9.108c.001 2.27-.58 4.45-1.675 6.37zM24.91 117.9h-.005c-3.876 0-7.52 1.501-10.27 4.23l-.044.045c-5.683 5.687-5.68 14.937.007 20.62 5.687 5.685 14.938 5.68 20.621-.007 5.68-5.683 5.68-14.93 0-20.613A14.484 14.484 0 0024.91 117.9z" fill="#d165e9"/></g><g><path d="M34.319 76.058l-.025.05-.328.311a13.098 13.098 0 01-9.063 3.633c-3.261 0-6.523-1.21-9.063-3.633-5.069-5.065-5.07-13.238-.048-18.262a12.79 12.79 0 019.108-3.775h.003c3.44 0 6.674 1.339 9.108 3.771 4.92 4.92 5.023 12.86.308 17.905zm.893-19.106a14.487 14.487 0 00-10.31-4.27c-8.04.002-14.58 6.543-14.58 14.582.002 8.04 6.543 14.58 14.582 14.58 3.895 0 7.556-1.517 10.31-4.272a14.48 14.48 0 004.269-10.31c0-3.895-1.516-7.556-4.271-10.31z" fill="#d165e9"/></g><g><path d="M199.138 187.419c0 7.103-5.778 12.883-12.882 12.883H110.73c-7.104-.001-12.883-5.78-12.883-12.883V75.312l22.16-22.154a.848.848 0 00-.001-1.2.851.851 0 00-.767-.233l-17.691 3.547 30.617-44.963c6.16-9.008 18.491-11.322 27.493-5.165a19.713 19.713 0 015.16 5.16l32.084 47.103a12.658 12.658 0 012.236 7.217zm-102.99-64.664L73.282 99.877 96.15 77.014zm0 18.182l-3.48-1.285a45.111 45.111 0 01-2.12-.845 68.797 68.797 0 01-22.54-15.049l-9.283-9.319 13.355-13.355 24.069 24.069zM46.76 124.02a.856.856 0 00-.194.88 23.03 23.03 0 01-.9 17.717 23.037 23.037 0 01-13.167 11.894 23.16 23.16 0 01-7.757 1.342h-.232c-6.233-.05-12.253-2.66-16.537-7.16-8.344-8.909-8.407-22.9-.157-31.867a23.127 23.127 0 0124.684-5.993c.304.108.65.03.88-.2l32.556-32.546a81.01 81.01 0 0141.645-22.284l9.192-1.795zM36.364 92.095c-1.432-1.426-3.442-2.275-5.436-2.232a7.897 7.897 0 00-1.557.156C16.814 92.478 4.615 84.272 2.16 71.732A23.03 23.03 0 015.67 54.344a23.029 23.029 0 0114.779-9.812 23.032 23.032 0 0117.387 3.513 23.027 23.027 0 019.811 14.777 23.07 23.07 0 01-.007 8.945 7.7 7.7 0 002.087 6.98l6.586 6.589L42.95 98.697zm161.92-35.676L166.221 9.352c-6.677-9.775-20.064-12.295-29.84-5.616a21.397 21.397 0 00-5.616 5.618l-32.025 47-.843.271a83.25 83.25 0 00-33.152 20.263l-7.227 7.231-6.592-6.593a6.011 6.011 0 01-1.606-5.494c1.674-8.431-1.08-17.014-7.378-22.923-10.003-9.389-25.78-8.888-35.168 1.115-9.388 10.003-8.889 25.779 1.114 35.168a24.943 24.943 0 0021.806 6.274 6.07 6.07 0 015.431 1.575l6.629 6.638-9.151 9.15-1.441-.386a24.84 24.84 0 00-24.569 6.987c-8.853 9.63-8.785 24.683.174 34.25 4.575 4.811 11.026 7.613 17.685 7.67h.289c13.718-.007 24.874-11.174 24.867-24.893a24.904 24.904 0 00-.848-6.428l-.386-1.442 9.146-9.146 9.289 9.315a70.507 70.507 0 0023.08 15.415c1.288.544 2.706 1.066 4.483 1.65l1.777.585v44.813c.009 8.03 6.551 14.572 14.584 14.581h75.523c8.03-.008 14.572-6.55 14.58-14.583V64.62a14.157 14.157 0 00-2.54-8.183z" fill="#fff"/></g><g><path d="M199.138 187.419c0 7.103-5.778 12.883-12.882 12.883H110.73c-7.104-.001-12.883-5.78-12.883-12.883V75.312l22.16-22.154a.848.848 0 00-.001-1.2.851.851 0 00-.767-.233l-17.691 3.547 30.617-44.963c6.16-9.008 18.491-11.322 27.493-5.165a19.713 19.713 0 015.16 5.16l32.084 47.103a12.658 12.658 0 012.236 7.217zm-102.99-64.664L73.282 99.877 96.15 77.014zm0 18.182l-3.48-1.285a45.111 45.111 0 01-2.12-.845 68.797 68.797 0 01-22.54-15.049l-9.283-9.319 13.355-13.355 24.069 24.069zM46.76 124.02a.856.856 0 00-.194.88 23.03 23.03 0 01-.9 17.717 23.037 23.037 0 01-13.167 11.894 23.16 23.16 0 01-7.757 1.342h-.232c-6.233-.05-12.253-2.66-16.537-7.16-8.344-8.909-8.407-22.9-.157-31.867a23.127 23.127 0 0124.684-5.993c.304.108.65.03.88-.2l32.556-32.546a81.01 81.01 0 0141.645-22.284l9.192-1.795zM36.364 92.095c-1.432-1.426-3.442-2.275-5.436-2.232a7.897 7.897 0 00-1.557.156C16.814 92.478 4.615 84.272 2.16 71.732A23.03 23.03 0 015.67 54.344a23.029 23.029 0 0114.779-9.812 23.032 23.032 0 0117.387 3.513 23.027 23.027 0 019.811 14.777 23.07 23.07 0 01-.007 8.945 7.7 7.7 0 002.087 6.98l6.586 6.589L42.95 98.697zm161.92-35.676L166.221 9.352c-6.677-9.775-20.064-12.295-29.84-5.616a21.397 21.397 0 00-5.616 5.618l-32.025 47-.843.271a83.25 83.25 0 00-33.152 20.263l-7.227 7.231-6.592-6.593a6.011 6.011 0 01-1.606-5.494c1.674-8.431-1.08-17.014-7.378-22.923-10.003-9.389-25.78-8.888-35.168 1.115-9.388 10.003-8.889 25.779 1.114 35.168a24.943 24.943 0 0021.806 6.274 6.07 6.07 0 015.431 1.575l6.629 6.638-9.151 9.15-1.441-.386a24.84 24.84 0 00-24.569 6.987c-8.853 9.63-8.785 24.683.174 34.25 4.575 4.811 11.026 7.613 17.685 7.67h.289c13.718-.007 24.874-11.174 24.867-24.893a24.904 24.904 0 00-.848-6.428l-.386-1.442 9.146-9.146 9.289 9.315a70.507 70.507 0 0023.08 15.415c1.288.544 2.706 1.066 4.483 1.65l1.777.585v44.813c.009 8.03 6.551 14.572 14.584 14.581h75.523c8.03-.008 14.572-6.55 14.58-14.583V64.62a14.157 14.157 0 00-2.54-8.183z" fill="#fff"/><path d="M34.319 76.058l-.025.05-.328.311a13.098 13.098 0 01-9.063 3.633c-3.261 0-6.523-1.21-9.063-3.633-5.069-5.065-5.07-13.238-.048-18.262a12.79 12.79 0 019.108-3.775h.003c3.44 0 6.674 1.339 9.108 3.771 4.92 4.92 5.023 12.86.308 17.905zm.893-19.106a14.487 14.487 0 00-10.31-4.27c-8.04.002-14.58 6.543-14.58 14.582.002 8.04 6.543 14.58 14.582 14.58 3.895 0 7.556-1.517 10.31-4.272a14.48 14.48 0 004.269-10.31c0-3.895-1.516-7.556-4.271-10.31z" fill="#d165e9"/><path d="M36.557 139.073l-2.535 2.537a12.845 12.845 0 01-9.103 3.76 12.84 12.84 0 01-9.116-3.774c-5.02-5.025-5.013-13.199.013-18.218 5.02-5.012 13.185-5.013 18.206 0a12.796 12.796 0 013.777 9.108c.001 2.27-.58 4.45-1.675 6.37zM24.91 117.9h-.005c-3.876 0-7.52 1.501-10.27 4.23l-.044.045c-5.683 5.687-5.68 14.937.007 20.62 5.687 5.685 14.938 5.68 20.621-.007 5.68-5.683 5.68-14.93 0-20.613A14.484 14.484 0 0024.91 117.9z" fill="#d165e9"/><path d="M158.081 158.647c-3.473 0-5.805-2.879-5.805-7.691 0-4.813 2.332-7.691 5.805-7.691 3.425 0 5.757 2.927 5.757 7.69 0 4.765-2.332 7.692-5.757 7.692zm0-17.07c-4.515 0-7.69 3.722-7.69 9.378 0 5.658 3.175 9.38 7.69 9.38 4.516 0 7.642-3.722 7.642-9.38 0-5.656-3.126-9.377-7.642-9.377z" fill="#a9add8"/><path d="M158.478 125.401l-23.719 34.735h2.134l23.719-34.735z" fill="#a9add8"/><path d="M131.534 134.58c0-4.762 2.332-7.69 5.755-7.69 3.475 0 5.807 2.877 5.807 7.69 0 4.815-2.332 7.693-5.807 7.693-3.423 0-5.755-2.928-5.755-7.692zm13.447 0c0-5.655-3.175-9.378-7.692-9.378-4.515 0-7.64 3.723-7.64 9.379s3.125 9.379 7.64 9.379c4.517 0 7.692-3.723 7.692-9.38z" fill="#a9add8"/><g><path d="M185.22 85.449h-10.336a1.033 1.033 0 100 2.067h10.336a1.034 1.034 0 000-2.067z" fill="#fff"/></g><g><path d="M133.536 85.449a1.033 1.033 0 100 2.067h10.337a1.034 1.034 0 000-2.067z" fill="#fff"/></g><g><path d="M123.2 85.449h-10.338a1.033 1.033 0 100 2.067H123.2a1.034 1.034 0 000-2.067z" fill="#fff"/></g><g><path d="M154.21 85.449a1.033 1.033 0 100 2.067h10.337a1.034 1.034 0 000-2.067z" fill="#fff"/></g><g><path d="M158.172 32.86c0 5.322-4.33 9.651-9.651 9.651-5.322 0-9.652-4.329-9.652-9.65 0-5.322 4.33-9.652 9.652-9.652 5.32 0 9.651 4.33 9.651 9.652zm1.55 0c0-6.176-5.025-11.201-11.201-11.201-6.177 0-11.203 5.025-11.203 11.202 0 6.176 5.026 11.2 11.203 11.2 6.176 0 11.202-5.024 11.202-11.2z" fill="#fff"/></g></g></svg>