<svg width="189" height="202" xmlns="http://www.w3.org/2000/svg"><path d="M159.664 176.527v-6.901h6.901v6.9z" fill="#d165e9"/><path d="M121.046 124.23c-1.997 0-3.934.396-5.765 1.177l-21.182 9.096-21.188-9.097a14.582 14.582 0 00-5.756-1.176H1.851V12.204h11.952v100.074h53.245c1.782-.033 3.453.346 5.062 1.036l21.993 9.397 22.21-9.412a12.748 12.748 0 015.011-1.02h53.073V12.204h11.948V124.23zM15.655 1.851h57.739c10.897.011 19.769 8.883 19.779 19.777v98.676l-20.335-8.7a14.557 14.557 0 00-5.747-1.177H15.655zm79.368 19.78c.01-10.898 8.883-19.77 19.779-19.78h57.74v108.575h-51.206a14.563 14.563 0 00-5.743 1.177l-20.57 8.701zm74.995 138.96a5.984 5.984 0 015.975 5.975v3.234h-.004v24.373a5.983 5.983 0 01-5.976 5.976h-13.8a5.983 5.983 0 01-5.975-5.976v-27.607a5.983 5.983 0 015.976-5.976zm18.18-34.51V10.353h-13.804V0h-59.59c-7.552.002-14.656 4.028-18.54 10.506L94.1 14.118l-2.166-3.612C88.05 4.028 80.945.002 73.393 0h-59.59v10.353H0V126.08h13.804v12.878c0 4.316 3.512 7.826 7.827 7.827h134.583a5.982 5.982 0 015.976 5.977v5.976h-5.976c-4.317 0-7.828 3.51-7.828 7.827v27.607c0 4.315 3.512 7.826 7.828 7.827h13.804c4.315 0 7.826-3.512 7.827-7.827v-27.607c-.001-4.315-3.512-7.827-7.828-7.827h-5.976v-5.976c0-4.316-3.511-7.828-7.827-7.828H21.63a5.983 5.983 0 01-5.976-5.976v-12.878h51.46c1.751 0 3.456.35 5.067 1.04l21.917 9.394 21.916-9.394a12.8 12.8 0 015.068-1.04z" fill="#a9b1f7"/><g><path d="M121.046 124.23c-1.997 0-3.934.396-5.765 1.177l-21.182 9.096-21.188-9.097a14.582 14.582 0 00-5.756-1.176H1.851V12.204h11.952v100.074h53.245c1.782-.033 3.453.346 5.062 1.036l21.993 9.397 22.21-9.412a12.748 12.748 0 015.011-1.02h53.073V12.204h11.948V124.23zM15.655 1.851h57.739c10.897.011 19.769 8.883 19.779 19.777v98.676l-20.335-8.7a14.557 14.557 0 00-5.747-1.177H15.655zm79.368 19.78c.01-10.898 8.883-19.77 19.779-19.78h57.74v108.575h-51.206a14.563 14.563 0 00-5.743 1.177l-20.57 8.701zm74.995 138.96a5.984 5.984 0 015.975 5.975v3.234h-.004v24.373a5.983 5.983 0 01-5.976 5.976h-13.8a5.983 5.983 0 01-5.975-5.976v-27.607a5.983 5.983 0 015.976-5.976zm18.18-34.51V10.353h-13.804V0h-59.59c-7.552.002-14.656 4.028-18.54 10.506L94.1 14.118l-2.166-3.612C88.05 4.028 80.945.002 73.393 0h-59.59v10.353H0V126.08h13.804v12.878c0 4.316 3.512 7.826 7.827 7.827h134.583a5.982 5.982 0 015.976 5.977v5.976h-5.976c-4.317 0-7.828 3.51-7.828 7.827v27.607c0 4.315 3.512 7.826 7.828 7.827h13.804c4.315 0 7.826-3.512 7.827-7.827v-27.607c-.001-4.315-3.512-7.827-7.828-7.827h-5.976v-5.976c0-4.316-3.511-7.828-7.827-7.828H21.63a5.983 5.983 0 01-5.976-5.976v-12.878h51.46c1.751 0 3.456.35 5.067 1.04l21.917 9.394 21.916-9.394a12.8 12.8 0 015.068-1.04z" fill="#a9b1f7"/><g><path d="M159.664 176.527v-6.901h6.901v6.9z" fill="#d165e9"/></g></g></svg>