<?xml version="1.0" encoding="UTF-8"?>
<svg id="SVGDoc" width="25" height="26" xmlns="http://www.w3.org/2000/svg" version="1.1" xmlns:xlink="http://www.w3.org/1999/xlink" xmlns:avocode="https://avocode.com/" viewBox="0 0 25 26"><defs><clipPath id="ClipPath1166"><path d="M22.65626,17.71973c0,3.01563 -2.45312,5.46875 -5.46875,5.46875h-9.375c-3.01563,0 -5.46875,-2.45312 -5.46875,-5.46875v-9.375c0,-3.01562 2.45313,-5.46875 5.46875,-5.46875h9.375c3.01563,0 5.46875,2.45313 5.46875,5.46875zM17.1875,0.53223h-9.375c-4.31406,0 -7.8125,3.49844 -7.8125,7.8125v9.375c0,4.31406 3.49844,7.8125 7.8125,7.8125h9.375c4.31406,0 7.8125,-3.49844 7.8125,-7.8125v-9.375c0,-4.31406 -3.49844,-7.8125 -7.8125,-7.8125z" fill="currentColor"></path></clipPath><clipPath id="ClipPath1176"><path d="M22.65626,17.71973c0,3.01563 -2.45312,5.46875 -5.46875,5.46875h-9.375c-3.01563,0 -5.46875,-2.45312 -5.46875,-5.46875v-9.375c0,-3.01562 2.45313,-5.46875 5.46875,-5.46875h9.375c3.01563,0 5.46875,2.45313 5.46875,5.46875zM17.1875,0.53223h-9.375c-4.31406,0 -7.8125,3.49844 -7.8125,7.8125v9.375c0,4.31406 3.49844,7.8125 7.8125,7.8125h9.375c4.31406,0 7.8125,-3.49844 7.8125,-7.8125v-9.375c0,-4.31406 -3.49844,-7.8125 -7.8125,-7.8125z" fill="currentColor"></path></clipPath><clipPath id="ClipPath1188"><path d="M22.65626,17.71973c0,3.01563 -2.45312,5.46875 -5.46875,5.46875h-9.375c-3.01563,0 -5.46875,-2.45312 -5.46875,-5.46875v-9.375c0,-3.01562 2.45313,-5.46875 5.46875,-5.46875h9.375c3.01563,0 5.46875,2.45313 5.46875,5.46875zM17.1875,0.53223h-9.375c-4.31406,0 -7.8125,3.49844 -7.8125,7.8125v9.375c0,4.31406 3.49844,7.8125 7.8125,7.8125h9.375c4.31406,0 7.8125,-3.49844 7.8125,-7.8125v-9.375c0,-4.31406 -3.49844,-7.8125 -7.8125,-7.8125z" fill="currentColor"></path></clipPath></defs><desc>Generated with Avocode.</desc><g><g><title>Ellipse 1006</title><path d="M18.32922,6.37278c0,-0.45853 0.37171,-0.83024 0.83024,-0.83024c0.45853,0 0.83024,0.37171 0.83024,0.83024c0,0.45853 -0.37171,0.83024 -0.83024,0.83024c-0.45853,0 -0.83024,-0.37171 -0.83024,-0.83024z" fill="currentColor" fill-opacity="1"></path></g><g><title>Group 13673</title><g><title>Ellipse 1006</title><path d="M18.32922,6.37278c0,-0.45853 0.37171,-0.83024 0.83024,-0.83024c0.45853,0 0.83024,0.37171 0.83024,0.83024c0,0.45853 -0.37171,0.83024 -0.83024,0.83024c-0.45853,0 -0.83024,-0.37171 -0.83024,-0.83024z" fill="currentColor" fill-opacity="1"></path></g></g><g><title>Group 13674</title><g><title>Group 13673</title><g><title>Ellipse 1006</title><path d="M18.32922,6.37278c0,-0.45853 0.37171,-0.83024 0.83024,-0.83024c0.45853,0 0.83024,0.37171 0.83024,0.83024c0,0.45853 -0.37171,0.83024 -0.83024,0.83024c-0.45853,0 -0.83024,-0.37171 -0.83024,-0.83024z" fill="currentColor" fill-opacity="1"></path></g></g></g><g><title>Path 23140</title><path d="M12.46143,16.965c-2.14648,0 -3.8942,-1.74773 -3.8942,-3.8942c0,-2.14804 1.74771,-3.8942 3.8942,-3.8942c2.14647,0 3.8942,1.74615 3.8942,3.8942c0,2.14647 -1.74773,3.8942 -3.8942,3.8942zM12.46143,6.84009c-3.4409,0 -6.23071,2.78981 -6.23071,6.23071c0,3.4409 2.78981,6.23071 6.23071,6.23071c3.4409,0 6.23071,-2.78981 6.23071,-6.23071c0,-3.4409 -2.78981,-6.23071 -6.23071,-6.23071z" fill="currentColor" fill-opacity="1"></path><path d="M12.46143,16.965c-2.14648,0 -3.8942,-1.74773 -3.8942,-3.8942c0,-2.14804 1.74771,-3.8942 3.8942,-3.8942c2.14647,0 3.8942,1.74615 3.8942,3.8942c0,2.14647 -1.74773,3.8942 -3.8942,3.8942zM12.46143,6.84009c-3.4409,0 -6.23071,2.78981 -6.23071,6.23071c0,3.4409 2.78981,6.23071 6.23071,6.23071c3.4409,0 6.23071,-2.78981 6.23071,-6.23071c0,-3.4409 -2.78981,-6.23071 -6.23071,-6.23071z" fill-opacity="0" fill="currentColor" stroke-dashoffset="0" stroke-linejoin="miter" stroke-linecap="butt" stroke-opacity="1" stroke="#ffffff" stroke-miterlimit="20" stroke-width="0.800000011920929"></path></g><g><title>Group 13671</title><g><title>Path 23140</title><path d="M12.46143,16.965c-2.14648,0 -3.8942,-1.74773 -3.8942,-3.8942c0,-2.14804 1.74771,-3.8942 3.8942,-3.8942c2.14647,0 3.8942,1.74615 3.8942,3.8942c0,2.14647 -1.74773,3.8942 -3.8942,3.8942zM12.46143,6.84009c-3.4409,0 -6.23071,2.78981 -6.23071,6.23071c0,3.4409 2.78981,6.23071 6.23071,6.23071c3.4409,0 6.23071,-2.78981 6.23071,-6.23071c0,-3.4409 -2.78981,-6.23071 -6.23071,-6.23071z" fill="currentColor" fill-opacity="1"></path><path d="M12.46143,16.965c-2.14648,0 -3.8942,-1.74773 -3.8942,-3.8942c0,-2.14804 1.74771,-3.8942 3.8942,-3.8942c2.14647,0 3.8942,1.74615 3.8942,3.8942c0,2.14647 -1.74773,3.8942 -3.8942,3.8942zM12.46143,6.84009c-3.4409,0 -6.23071,2.78981 -6.23071,6.23071c0,3.4409 2.78981,6.23071 6.23071,6.23071c3.4409,0 6.23071,-2.78981 6.23071,-6.23071c0,-3.4409 -2.78981,-6.23071 -6.23071,-6.23071z" fill-opacity="0" fill="currentColor" stroke-dashoffset="0" stroke-linejoin="miter" stroke-linecap="butt" stroke-opacity="1" stroke="#ffffff" stroke-miterlimit="20" stroke-width="0.800000011920929"></path></g></g><g><title>Group 13672</title><g><title>Group 13671</title><g><title>Path 23140</title><path d="M12.46143,16.965c-2.14648,0 -3.8942,-1.74773 -3.8942,-3.8942c0,-2.14804 1.74771,-3.8942 3.8942,-3.8942c2.14647,0 3.8942,1.74615 3.8942,3.8942c0,2.14647 -1.74773,3.8942 -3.8942,3.8942zM12.46143,6.84009c-3.4409,0 -6.23071,2.78981 -6.23071,6.23071c0,3.4409 2.78981,6.23071 6.23071,6.23071c3.4409,0 6.23071,-2.78981 6.23071,-6.23071c0,-3.4409 -2.78981,-6.23071 -6.23071,-6.23071z" fill="currentColor" fill-opacity="1"></path><path d="M12.46143,16.965c-2.14648,0 -3.8942,-1.74773 -3.8942,-3.8942c0,-2.14804 1.74771,-3.8942 3.8942,-3.8942c2.14647,0 3.8942,1.74615 3.8942,3.8942c0,2.14647 -1.74773,3.8942 -3.8942,3.8942zM12.46143,6.84009c-3.4409,0 -6.23071,2.78981 -6.23071,6.23071c0,3.4409 2.78981,6.23071 6.23071,6.23071c3.4409,0 6.23071,-2.78981 6.23071,-6.23071c0,-3.4409 -2.78981,-6.23071 -6.23071,-6.23071z" fill-opacity="0" fill="currentColor" stroke-dashoffset="0" stroke-linejoin="miter" stroke-linecap="butt" stroke-opacity="1" stroke="#ffffff" stroke-miterlimit="20" stroke-width="0.800000011920929"></path></g></g></g><g><title>Path 23139</title><path d="M22.65626,17.71973c0,3.01563 -2.45312,5.46875 -5.46875,5.46875h-9.375c-3.01563,0 -5.46875,-2.45312 -5.46875,-5.46875v-9.375c0,-3.01562 2.45313,-5.46875 5.46875,-5.46875h9.375c3.01563,0 5.46875,2.45313 5.46875,5.46875zM17.1875,0.53223h-9.375c-4.31406,0 -7.8125,3.49844 -7.8125,7.8125v9.375c0,4.31406 3.49844,7.8125 7.8125,7.8125h9.375c4.31406,0 7.8125,-3.49844 7.8125,-7.8125v-9.375c0,-4.31406 -3.49844,-7.8125 -7.8125,-7.8125z" fill="currentColor" fill-opacity="1"></path><path d="M22.65626,17.71973c0,3.01563 -2.45312,5.46875 -5.46875,5.46875h-9.375c-3.01563,0 -5.46875,-2.45312 -5.46875,-5.46875v-9.375c0,-3.01562 2.45313,-5.46875 5.46875,-5.46875h9.375c3.01563,0 5.46875,2.45313 5.46875,5.46875zM17.1875,0.53223h-9.375c-4.31406,0 -7.8125,3.49844 -7.8125,7.8125v9.375c0,4.31406 3.49844,7.8125 7.8125,7.8125h9.375c4.31406,0 7.8125,-3.49844 7.8125,-7.8125v-9.375c0,-4.31406 -3.49844,-7.8125 -7.8125,-7.8125z" fill-opacity="0" fill="currentColor" stroke-dashoffset="0" stroke-linejoin="miter" stroke-linecap="butt" stroke-opacity="1" stroke="#ffffff" stroke-miterlimit="20" stroke-width="0.800000011920929" clip-path="url(&quot;#ClipPath1166&quot;)"></path></g><g><title>Group 13669</title><g><title>Path 23139</title><path d="M22.65626,17.71973c0,3.01563 -2.45312,5.46875 -5.46875,5.46875h-9.375c-3.01563,0 -5.46875,-2.45312 -5.46875,-5.46875v-9.375c0,-3.01562 2.45313,-5.46875 5.46875,-5.46875h9.375c3.01563,0 5.46875,2.45313 5.46875,5.46875zM17.1875,0.53223h-9.375c-4.31406,0 -7.8125,3.49844 -7.8125,7.8125v9.375c0,4.31406 3.49844,7.8125 7.8125,7.8125h9.375c4.31406,0 7.8125,-3.49844 7.8125,-7.8125v-9.375c0,-4.31406 -3.49844,-7.8125 -7.8125,-7.8125z" fill="currentColor" fill-opacity="1"></path><path d="M22.65626,17.71973c0,3.01563 -2.45312,5.46875 -5.46875,5.46875h-9.375c-3.01563,0 -5.46875,-2.45312 -5.46875,-5.46875v-9.375c0,-3.01562 2.45313,-5.46875 5.46875,-5.46875h9.375c3.01563,0 5.46875,2.45313 5.46875,5.46875zM17.1875,0.53223h-9.375c-4.31406,0 -7.8125,3.49844 -7.8125,7.8125v9.375c0,4.31406 3.49844,7.8125 7.8125,7.8125h9.375c4.31406,0 7.8125,-3.49844 7.8125,-7.8125v-9.375c0,-4.31406 -3.49844,-7.8125 -7.8125,-7.8125z" fill-opacity="0" fill="currentColor" stroke-dashoffset="0" stroke-linejoin="miter" stroke-linecap="butt" stroke-opacity="1" stroke="#ffffff" stroke-miterlimit="20" stroke-width="0.800000011920929" clip-path="url(&quot;#ClipPath1176&quot;)"></path></g></g><g><title>Group 13670</title><g><title>Group 13669</title><g><title>Path 23139</title><path d="M22.65626,17.71973c0,3.01563 -2.45312,5.46875 -5.46875,5.46875h-9.375c-3.01563,0 -5.46875,-2.45312 -5.46875,-5.46875v-9.375c0,-3.01562 2.45313,-5.46875 5.46875,-5.46875h9.375c3.01563,0 5.46875,2.45313 5.46875,5.46875zM17.1875,0.53223h-9.375c-4.31406,0 -7.8125,3.49844 -7.8125,7.8125v9.375c0,4.31406 3.49844,7.8125 7.8125,7.8125h9.375c4.31406,0 7.8125,-3.49844 7.8125,-7.8125v-9.375c0,-4.31406 -3.49844,-7.8125 -7.8125,-7.8125z" fill="currentColor" fill-opacity="1"></path><path d="M22.65626,17.71973c0,3.01563 -2.45312,5.46875 -5.46875,5.46875h-9.375c-3.01563,0 -5.46875,-2.45312 -5.46875,-5.46875v-9.375c0,-3.01562 2.45313,-5.46875 5.46875,-5.46875h9.375c3.01563,0 5.46875,2.45313 5.46875,5.46875zM17.1875,0.53223h-9.375c-4.31406,0 -7.8125,3.49844 -7.8125,7.8125v9.375c0,4.31406 3.49844,7.8125 7.8125,7.8125h9.375c4.31406,0 7.8125,-3.49844 7.8125,-7.8125v-9.375c0,-4.31406 -3.49844,-7.8125 -7.8125,-7.8125z" fill-opacity="0" fill="currentColor" stroke-dashoffset="0" stroke-linejoin="miter" stroke-linecap="butt" stroke-opacity="1" stroke="#ffffff" stroke-miterlimit="20" stroke-width="0.800000011920929" clip-path="url(&quot;#ClipPath1188&quot;)"></path></g></g></g></g></svg>