<svg xmlns="http://www.w3.org/2000/svg" xmlns:xlink="http://www.w3.org/1999/xlink" width="20.24489836394787" height="15.020408675074577"><rect id="backgroundrect" width="100%" height="100%" x="0" y="0" fill="none" stroke="none" style="" class=""/>
  <defs>
    <clipPath id="clip-Envelope">
      <rect width="40" height="40" id="svg_1"/>
    </clipPath>
  </defs>
  
<g class="currentLayer" style=""><title>Layer 1</title><g id="Envelope" clip-path="url(#clip-Envelope)" class="">
    <path id="Path_6" data-name="Path 6" d="M18.536449432373047,0.10204120725393295 H1.7044496536254883 a1.5839999914169312,1.5839999914169312 0 0 0 -1.5820000171661377,1.5829999446868896 v11.781999588012695 a1.5839999914169312,1.5839999914169312 0 0 0 1.5820000171661377,1.5820000171661377 h16.832000732421875 a1.5839999914169312,1.5839999914169312 0 0 0 1.5820000171661377,-1.5820000171661377 v-11.781999588012695 A1.5839999914169312,1.5839999914169312 0 0 0 18.536449432373047,0.10204120725393295 zm-6.057000160217285,7.445000171661377 l0.08399999886751175,-0.07699999958276749 c2.4049999713897705,-2.187000036239624 6.238999843597412,-5.699999809265137 6.671999931335449,-6.0929999351501465 l0.11900000274181366,-0.10899999737739563 l0.052000001072883606,0.17599999904632568 a0.8220000267028809,0.8220000267028809 0 0 1 0.04500000178813934,0.23999999463558197 v11.781999588012695 a0.753000020980835,0.753000020980835 0 0 1 -0.039000000804662704,0.21299999952316284 l-0.054999999701976776,0.20000000298023224 l-0.12099999934434891,-0.11599999666213989 c-1.0069999694824219,-0.9610000252723694 -4.465000152587891,-4.242000102996826 -6.671999931335449,-6.13700008392334 zm6.283999919891357,-6.607999801635742 c-1.8569999933242798,1.7000000476837158 -6.3520002365112305,5.809999942779541 -7.980999946594238,7.2779998779296875 a0.9440000057220459,0.9440000057220459 0 0 1 -1.3559999465942383,0 c-1.5460000038146973,-1.3930000066757202 -5.664000034332275,-5.1579999923706055 -7.980000019073486,-7.2779998779296875 l-0.14399999380111694,-0.13099999725818634 l0.1899999976158142,-0.041999999433755875 l0.04600000008940697,-0.012000000104308128 a0.5529999732971191,0.5529999732971191 0 0 1 0.1509999930858612,-0.026000000536441803 H18.522441864013672 a0.5659999847412109,0.5659999847412109 0 0 1 0.15299999713897705,0.027000000700354576 l0.0430000014603138,0.010999999940395355 l0.1899999976158142,0.041999999433755875 zm-17.333999633789062,13.270000457763672 h0 c1.0240000486373901,-0.9760000109672546 4.5329999923706055,-4.300000190734863 6.699999809265137,-6.1579999923706055 l0.06800000369548798,-0.057999998331069946 l0.06599999964237213,0.05999999865889549 l0.7350000143051147,0.6650000214576721 a1.5800000429153442,1.5800000429153442 0 0 0 2.2139999866485596,0 l0.7350000143051147,-0.6650000214576721 l0.06599999964237213,-0.05999999865889549 l0.06700000166893005,0.057999998331069946 c2.1710000038146973,1.8569999933242798 5.677000045776367,5.183000087738037 6.699999809265137,6.1579999923706055 l0.1340000033378601,0.12800000607967377 l-0.18000000715255737,0.0430000014603138 l-0.04600000008940697,0.012000000104308128 a0.6000000238418579,0.6000000238418579 0 0 1 -0.16699999570846558,0.028999999165534973 H1.6894350051879883 a0.6110000014305115,0.6110000014305115 0 0 1 -0.17000000178813934,-0.029999999329447746 l-0.0430000014603138,-0.012000000104308128 l-0.18000000715255737,-0.0430000014603138 zm-0.6800000071525574,-12.524999618530273 a0.8259999752044678,0.8259999752044678 0 0 1 0.04500000178813934,-0.23999999463558197 l0.052000001072883606,-0.17599999904632568 l0.11900000274181366,0.10899999737739563 c1.00600004196167,0.9210000038146973 4.460000038146973,4.080999851226807 6.672999858856201,6.0929999351501465 l0.08399999886751175,0.07699999958276749 l-0.08699999749660492,0.07400000095367432 c-2.2049999237060547,1.8940000534057617 -5.664000034332275,5.177000045776367 -6.671000003814697,6.13700008392334 l-0.12099999934434891,0.11500000208616257 l-0.054999999701976776,-0.20000000298023224 a0.746999979019165,0.746999979019165 0 0 1 -0.03799999877810478,-0.21199999749660492 z" fill="#fff"/>
  </g></g></svg>