<svg xmlns="http://www.w3.org/2000/svg" width="34" height="81"><path d="M17.084 19.999A14.212 14.212 0 003 34.299v11.4a14.085 14.085 0 1028.168.044V34.299a14.212 14.212 0 00-14.084-14.3zm11.435 25.74a11.437 11.437 0 11-22.87-.044V34.299a11.437 11.437 0 1122.87 0z" fill="#fff"/><path  d="M17.084 30.948a1.324 1.324 0 00-1.325 1.325v4.636a1.325 1.325 0 002.649 0v-4.636a1.324 1.324 0 00-1.324-1.325z" fill="#fff"/><g fill="#fff"><path id="path1" d="M12.772 72.264l4.52 4.52 4.52-4.52a.745.745 0 011.273.527.739.739 0 01-.218.527l-5.048 5.047a.745.745 0 01-1.054 0l-5.047-5.047a.745.745 0 010-1.054.745.745 0 011.054 0z" opacity=".303"><animate attributeName="opacity" from="1" to="0" dur="0.75s" repeatCount="indefinite"/></path><path id="path2" d="M12.772 67.218l4.52 4.52 4.52-4.52a.745.745 0 011.272.527.739.739 0 01-.218.527l-5.047 5.047a.745.745 0 01-1.054 0l-5.047-5.047a.745.745 0 111.054-1.054z"><animate attributeName="opacity" from="0" to="1" dur="0.75s" repeatCount="indefinite"/></path></g><g fill="#fff"><path id="path3" d="M12.772 8.319l4.52-4.52 4.52 4.52a.745.745 0 001.272-.527.739.739 0 00-.218-.527l-5.047-5.047a.745.745 0 00-1.054 0l-5.047 5.047a.745.745 0 000 1.054.745.745 0 001.054 0z" opacity=".303"><animate attributeName="opacity" from="1" to="0" dur="0.75s" repeatCount="indefinite"/></path><path id="path4" d="M12.772 13.366l4.52-4.52 4.52 4.52a.745.745 0 001.272-.527.739.739 0 00-.218-.527l-5.047-5.047a.745.745 0 00-1.054 0l-5.047 5.047a.745.745 0 00.527 1.272.74.74 0 00.527-.218z"><animate attributeName="opacity" from="0" to="1" dur="0.75s" repeatCount="indefinite"/></path></g></svg>