<svg width="15" height="15" xmlns="http://www.w3.org/2000/svg"><path d="M14.41 10.623c.413.398.652.933.673 1.506a2.191 2.191 0 01-.563 1.55l-.014.017a.764.764 0 01-.022.023c-.843.843-2.02 1.288-3.407 1.288h-.032c-1.022-.005-2.135-.265-3.31-.771a.579.579 0 01.46-1.063c1.015.438 2.002.672 2.855.676h.027c1.067 0 1.957-.324 2.578-.938l.004-.005a1.041 1.041 0 00-.052-1.45c-1.554-1.498-2.288-1.39-2.967-.728l-1.08 1.073a.579.579 0 01-.644.118c-.061-.027-1.517-.686-3.158-2.327l-.076-.076c-1.641-1.64-2.3-3.097-2.327-3.158a.579.579 0 01.118-.643l1.072-1.081c.663-.68.771-1.413-.727-2.967a1.04 1.04 0 00-1.45-.052l-.005.004c-.62.626-.944 1.526-.938 2.605.01 2.081 1.191 4.498 3.159 6.466.375.375.804.748 1.273 1.108a.579.579 0 11-.704.919c-.51-.391-.977-.798-1.388-1.208C1.587 9.33.28 6.609.267 4.229.26 2.83.706 1.64 1.555.79a.814.814 0 01.023-.02l.016-.015A2.19 2.19 0 013.145.19c.573.021 1.108.26 1.506.673.78.808 1.23 1.485 1.416 2.13.257.89.023 1.715-.695 2.45a.128.128 0 00-.003.004l-.777.782c.275.489.88 1.44 1.908 2.467l.076.076c1.035 1.035 1.98 1.636 2.467 1.91l.783-.778.004-.003c.735-.718 1.56-.952 2.449-.695.646.187 1.323.636 2.131 1.416zm-5.526-6.31a1.72 1.72 0 01-.514-1.229c0-.465.182-.901.514-1.23l1.51-1.496a.579.579 0 11.814.822L9.9 2.476h2a3.187 3.187 0 013.183 3.18v1.595a.579.579 0 01-1.158.001V5.658c-.001-1.116-.91-2.024-2.026-2.024H9.842l1.366 1.354a.579.579 0 11-.814.822z" fill="currentColor"/></svg>