<svg xmlns="http://www.w3.org/2000/svg" xmlns:xlink="http://www.w3.org/1999/xlink" width="40" height="40.163265228271484" style=""><rect id="backgroundrect" width="100%" height="100%" x="0" y="0" fill="none" stroke="none"/>
  <defs>
    <clipPath id="clip-Call_back">
      <rect width="40" height="40" id="svg_1"/>
    </clipPath>
  </defs>
  
<g class="currentLayer" style=""><title>Layer 1</title><g id="Call_back" data-name="Call back" clip-path="url(#clip-Call_back)" class="selected">
    <g id="Group_6" data-name="Group 6">
      <path id="Path_4" data-name="Path 4" d="M40.02211380004883,32.73493433239787 h0 a5.324345588684082,5.342931167631178 0 0 0 -1.631975769996643,-3.6692659690440763 a14.333090782165527,14.383121367366186 0 0 0 -5.627227783203125,-3.7812436937435905 a5.910183429718018,5.930813805920764 0 0 0 -6.057639122009277,1.7516495452208503 l-2.638261079788208,2.6274743773145417 l-0.5400066375732422,-0.30593879654370326 a33.50432205200195,33.62127073809211 0 0 1 -7.087835788726807,-5.500899212445972 l-0.21321295201778412,-0.21395718971006605 a33.73347854614258,33.85122828699514 0 0 1 -5.479772090911865,-7.1125768992087615 l-0.30487456917762756,-0.5418915448918433 l2.6302907466888428,-2.659468046933412 a5.89623498916626,5.916816203692093 0 0 0 1.7336006164550781,-6.066785890585436 a14.347039222717285,14.397119445460987 0 0 0 -3.7680904865264893,-5.64687019624472 a5.346264839172363,5.3649271277813 0 0 0 -7.420607566833496,-0.2679464179670106 l-0.0836910605430603,0.07598480176583511 a12.354394912719727,12.397519496043287 0 0 0 -3.361591100692749,9.074185600231829 c0.03188231214880943,6.4747045239101055 3.604693651199341,13.90521852982721 9.564693450927734,19.87802276310333 a38.64533996582031,38.780238245931514 0 0 0 3.80595064163208,3.3253346749571477 a0.7970577478408813,0.7998399559737734 0 0 0 0.9724105000495911,-1.2717454526700536 a37.04126739501953,37.170565859042654 0 0 1 -3.648531675338745,-3.185362697532554 c-5.661102771759033,-5.6808636932770185 -9.058561325073242,-12.691462004853406 -9.08845043182373,-18.752249126997754 a10.814081192016602,10.851828262132472 0 0 1 2.865422487258911,-7.904418616227616 l0.02988966554403305,-0.027994401433245386 a3.744178533554077,3.757248144113106 0 0 1 5.218735694885254,0.17196560243101455 c3.973332643508911,4.135172935232333 4.563155651092529,6.884622746715138 2.034489870071411,9.486101984918832 l-3.0088930130004883,3.0433911306275974 a0.7970577478408813,0.7998399559737734 0 0 0 -0.16339685022830963,0.8918216074198604 a31.84245491027832,31.953607401075942 0 0 0 6.348565101623535,8.628273339181874 l0.21321295201778412,0.21395718971006605 a31.824522018432617,31.935608240555894 0 0 0 8.598259925842285,6.368725805584745 a0.7970577478408813,0.7998399559737734 0 0 0 0.8887194395065308,-0.1639671998971135 l3.026826858520508,-3.0153968779025178 c2.590437650680542,-2.5414915537928096 5.336301326751709,-1.9496100934420966 9.457090377807617,2.037592387477659 a3.736208200454712,3.74925002412472 0 0 1 0.18930122256278992,5.218955668116422 l-0.037860240787267685,0.03999199779868867 a10.79216194152832,10.82983277784848 0 0 1 -7.807180881500244,2.885422609946673 h-0.0836910605430603 a21.82742691040039,21.90361927923027 0 0 1 -8.313312530517578,-1.967606398765362 a0.7970577478408813,0.7998399559737734 0 1 0 -0.6336608529090881,1.4737051798520255 a23.114673614501953,23.195359793938223 0 0 0 8.94498062133789,2.097580309821609 h0.08767635375261307 a12.326498031616211,12.369525243318208 0 0 0 8.966898918151855,-3.377324477312712 l0.06974255293607712,-0.07798439868160623 A5.3203606605529785,5.338931988670453 0 0 0 40.02211380004883,32.73493433239787 z" fill="#fff"/>
      <path id="Path_5" data-name="Path 5" d="M31.925994873046875,8.005754261040295 a6.50399112701416,6.52669432626567 0 0 1 6.496020793914795,6.51269719990313 l0,4.479103753453131 a0.7970577478408813,0.7998399559737734 0 0 0 1.3689466714859009,0.5658867971059962 a0.7970577478408813,0.7998399559737734 0 0 0 0.23313938081264496,-0.567886386586359 l0,-4.479103753453131 a8.110063552856445,8.138372013028459 0 0 0 -8.104084968566895,-8.114376939264105 h-7.5879902839660645 l5.08124303817749,-5.052988789514046 a0.7970577478408813,0.7998399559737734 0 1 0 -1.125844120979309,-1.1397719521334437 l-4.228391170501709,4.199159798603944 a4.021155834197998,4.035192509481931 0 0 0 0,5.740851377687903 l4.228391170501709,4.199159798603944 a0.8169841766357422,0.8198359697439344 0 0 0 1.1298292875289917,0 a0.7970577478408813,0.7998399559737734 0 0 0 0,-1.1337731836923552 l-5.244639873504639,-5.214956965021827 z" fill="#fff"/>
    </g>
  </g></g></svg>