<?xml version="1.0" encoding="UTF-8"?>
<svg id="SVGDoc" width="32" height="32" xmlns="http://www.w3.org/2000/svg" version="1.1" xmlns:xlink="http://www.w3.org/1999/xlink" xmlns:avocode="https://avocode.com/" viewBox="0 0 32 32"><defs></defs><desc>Generated with Avocode.</desc><g><g><title>Group 12514</title><g><title>Path 19633</title><path d="M16.31452,2.3487c1.20462,0 2.4176,0.1584 3.61212,0.47852c3.57849,0.95885 6.56942,3.25383 8.42178,6.46228c1.85242,3.20833 2.34451,6.94612 1.38562,10.52466c-0.95877,3.57842 -3.25375,6.56936 -6.46222,8.42171c-3.20838,1.85247 -6.94605,2.34441 -10.5246,1.38569c-3.57846,-0.95885 -6.56936,-3.25383 -8.42181,-6.46228c-1.85236,-3.20833 -2.34442,-6.94612 -1.38553,-10.5246c0.95892,-3.57848 3.25397,-6.56936 6.46228,-8.42177c2.13726,-1.23395 4.50888,-1.8642 6.91235,-1.8642zM24.07803,29.63214c3.58127,-2.06767 6.14313,-5.40626 7.21341,-9.40076c1.0704,-3.9945 0.52106,-8.16669 -1.54663,-11.74802c-2.06769,-3.58127 -5.40628,-6.14313 -9.40076,-7.21342c-3.99439,-1.07041 -8.1666,-0.52111 -11.74802,1.54663c-3.58133,2.06779 -6.14313,5.40632 -7.21341,9.40082c-1.07031,3.99444 -0.521,8.16669 1.54666,11.74796c2.06763,3.58127 5.40628,6.14313 9.4007,7.21342c1.33387,0.35745 2.68738,0.53424 4.0322,0.53424c2.68265,0 5.33041,-0.70359 7.71585,-2.08087z" fill="#ffffff" fill-opacity="1"></path></g><g><title>Path 19634</title><path d="M12.96851,10.4011c0.01691,0 0.02905,0.00708 0.03656,0.01132l9.95422,5.74712c0.01214,0.00703 0.03741,0.02161 0.03741,0.06487c0,0.04326 -0.02533,0.05785 -0.03741,0.06487l-9.95428,5.74707c-0.01215,0.00707 -0.03754,0.02167 -0.07483,0c-0.03735,-0.02159 -0.03735,-0.05082 -0.03735,-0.0648v-11.49426c0,-0.01404 0,-0.04321 0.03735,-0.06486c0.01465,-0.00841 0.0274,-0.01132 0.03833,-0.01132zM12.96759,23.66139c0.2898,0 0.57952,-0.07635 0.84362,-0.22882l9.95435,-5.74702c0.52819,-0.30506 0.84344,-0.85133 0.84344,-1.46126c0,-0.60981 -0.3153,-1.15608 -0.84344,-1.46095l-9.95428,-5.74714c-0.52826,-0.30492 -1.15893,-0.30487 -1.68713,-0.00005c-0.52832,0.30493 -0.84369,0.85122 -0.84369,1.46114v11.49426c0,0.60993 0.31537,1.15614 0.84369,1.46107c0.26409,0.15254 0.5537,0.22877 0.84343,0.22877z" fill="#ffffff" fill-opacity="1"></path></g><g><title>Path 19635</title><path d="M25.21735,10.16932c-0.24084,0 -0.47913,-0.10745 -0.63806,-0.31268c-1.66071,-2.14548 -4.15778,-3.58714 -6.85083,-3.95505c-0.4411,-0.06026 -0.74988,-0.46672 -0.68964,-0.90784c0.06036,-0.44125 0.46729,-0.74999 0.9079,-0.68967c3.10815,0.42467 5.99036,2.08873 7.90753,4.56558c0.27252,0.35201 0.20801,0.85835 -0.14404,1.13091c-0.14679,0.11374 -0.3205,0.16874 -0.49286,0.16874z" fill="#ffffff" fill-opacity="1"></path></g></g></g></svg>