<?xml version="1.0" encoding="UTF-8"?>
<svg id="SVGDoc" width="124" height="124" xmlns="http://www.w3.org/2000/svg" version="1.1" xmlns:xlink="http://www.w3.org/1999/xlink" xmlns:avocode="https://avocode.com/" viewBox="0 0 124 124"><defs></defs><desc>Generated with Avocode.</desc><g><g><title>Group 12849</title><g><title>Path 20474</title><path d="M55.81671,81.68433c1.80139,1.04057 3.85284,1.59065 5.93286,1.59065c2.07996,0 4.13147,-0.55008 5.93286,-1.59065c1.13477,-0.65591 1.52344,-2.10703 0.8678,-3.24207c-0.65564,-1.13454 -2.10706,-1.52348 -3.24182,-0.86757c-1.08093,0.62434 -2.31134,0.95444 -3.55884,0.95444c-1.24756,0 -2.47797,-0.33009 -3.5589,-0.95444c-1.13477,-0.65591 -2.58612,-0.26697 -3.24176,0.86757c-0.6557,1.13504 -0.26721,2.58615 0.8678,3.24207z" fill="currentColor" fill-opacity="1"></path><path d="M55.81671,81.68433c1.80139,1.04057 3.85284,1.59065 5.93286,1.59065c2.07996,0 4.13147,-0.55008 5.93286,-1.59065c1.13477,-0.65591 1.52344,-2.10703 0.8678,-3.24207c-0.65564,-1.13454 -2.10706,-1.52348 -3.24182,-0.86757c-1.08093,0.62434 -2.31134,0.95444 -3.55884,0.95444c-1.24756,0 -2.47797,-0.33009 -3.5589,-0.95444c-1.13477,-0.65591 -2.58612,-0.26697 -3.24176,0.86757c-0.6557,1.13504 -0.26721,2.58615 0.8678,3.24207z" fill-opacity="0" fill="#ffffff" stroke-dashoffset="0" stroke-linejoin="miter" stroke-linecap="butt" stroke-opacity="1" stroke="#efefef" stroke-miterlimit="20" stroke-width="2"></path></g><g><title>Path 20475</title><path d="M26.1534,92.50518v25.24777h-9.42957c0.49005,-9.30993 3.84695,-18.07999 9.42957,-25.24777zM45.30599,86.39459c1.02991,7.28003 6.79498,13.05579 14.0705,14.10135v17.25702h-28.47702v-30.4483c2.46085,-2.30826 5.20078,-4.36237 8.18774,-6.10917c1.81775,1.97651 3.90247,3.73042 6.21878,5.1991zM35.64605,48.46145h52.20676v11.86476c0,7.79332 -3.55386,15.16186 -9.49265,20.09139v-5.89322c0,-3.90342 -3.17465,-7.07879 -7.07712,-7.07879h-19.0672c-3.90271,0 -7.07761,3.17537 -7.07761,7.07879v5.89275c-5.93857,-4.92952 -9.49219,-12.29855 -9.49219,-20.09091v-11.86476zM26.1534,53.20802c0,-2.61724 2.12933,-4.74657 4.74631,-4.74657v9.49171c-2.61697,0 -4.74631,-2.12886 -4.74631,-4.74514zM52.25713,9.74261v23.38565c-6.96964,0.56621 -14.34055,1.81467 -18.98413,4.14927v-0.68177c0,-12.24325 7.66968,-22.88565 18.98413,-26.85315zM66.49492,5.74593v27.09306c-1.67038,-0.06858 -3.26956,-0.10014 -4.74585,-0.10014c-1.47629,0 -3.07547,0.03156 -4.74585,0.10014v-27.09306zM90.22512,36.59575v0.68177c-4.64355,-2.3346 -12.01447,-3.5833 -18.9841,-4.14927v-23.38565c11.31418,3.96749 18.9841,14.60989 18.9841,26.85315zM97.3445,53.20802c0,2.61628 -2.12885,4.74467 -4.74561,4.74514v-9.49171c2.61676,0.00048 4.74561,2.12981 4.74561,4.74657zM33.273,43.71536v-0.63265c0.20267,-0.49502 2.06384,-2.12886 8.10989,-3.56194c5.53653,-1.313 12.76959,-2.03607 20.36618,-2.03607c7.59659,0 14.82892,0.72307 20.36594,2.0356c6.04605,1.43356 7.90747,3.0674 8.11011,3.56242v0.63265zM49.88408,84.05738v-9.533c0,-1.28619 1.04605,-2.3327 2.33176,-2.3327h19.0672c1.28546,0 2.33124,1.04651 2.33124,2.3327v9.533c0,6.54248 -5.32251,11.86451 -11.86475,11.86451h-0.00046c-6.54251,0 -11.86499,-5.32203 -11.86499,-11.86451zM92.59841,87.30465v30.4483h-28.47604v-17.25702c7.27505,-1.04556 13.03989,-6.82156 14.07001,-14.10135c2.31635,-1.46915 4.40106,-3.2226 6.21857,-5.19934c2.98721,1.74704 5.72665,3.80115 8.18747,6.10941zM97.3445,92.50494c5.58258,7.16802 8.94,15.93809 9.42953,25.24802h-9.42953zM113.25197,117.75296h-1.72662c-0.78973,-16.61179 -9.83105,-31.69296 -24.15192,-40.3197c2.91388,-4.35525 4.7124,-9.42408 5.12888,-14.734h0.09586c5.23425,0 9.49243,-4.25748 9.49243,-9.49123c0,-4.41505 -3.02991,-8.13552 -7.11938,-9.19223v-7.4198c0,-7.52588 -2.58685,-14.89845 -7.28452,-20.76011c-4.22806,-5.27576 -10.01474,-9.16162 -16.44568,-11.08236v-1.3804c0,-1.31063 -1.06265,-2.37305 -2.37305,-2.37305h-14.23779c-1.31039,0 -2.37305,1.06242 -2.37305,2.37305v1.37993c-6.43097,1.92074 -12.21738,5.8066 -16.44568,11.08236c-4.69769,5.86166 -7.28455,13.23448 -7.28455,20.76011v7.41981c-4.08948,1.05672 -7.11938,4.77718 -7.11938,9.19223c0,5.23375 4.25821,9.49123 9.49243,9.49123h0.09659c0.41644,5.30945 2.21475,10.37851 5.12885,14.734c-14.32132,8.62673 -23.36237,23.70839 -24.15213,40.32018h-1.72662c-1.31039,0 -2.37305,1.06289 -2.37305,2.37305c0,1.31064 1.06265,2.37305 2.37305,2.37305h4.02371c0.00595,0 0.01212,0.00095 0.01828,0.00095c0.0062,0 0.01236,-0.00095 0.01828,-0.00095h14.20148c0.00595,0 0.01212,0.00095 0.01828,0.00095c0.0062,0 0.01236,-0.00095 0.01828,-0.00095h66.40851c0.00616,0 0.01208,0.00095 0.01825,0.00095c0.00616,0 0.01212,-0.00095 0.01828,-0.00095h14.20175c0.00592,0 0.01208,0.00095 0.01825,0.00095c0.00616,0 0.01233,-0.00095 0.01828,-0.00095h4.02371c1.31042,0 2.37305,-1.06241 2.37305,-2.37305c0,-1.31016 -1.06262,-2.37305 -2.37305,-2.37305z" fill="currentColor" fill-opacity="1"></path><path d="M26.1534,92.50518v25.24777h-9.42957c0.49005,-9.30993 3.84695,-18.07999 9.42957,-25.24777zM45.30599,86.39459c1.02991,7.28003 6.79498,13.05579 14.0705,14.10135v17.25702h-28.47702v-30.4483c2.46085,-2.30826 5.20078,-4.36237 8.18774,-6.10917c1.81775,1.97651 3.90247,3.73042 6.21878,5.1991zM35.64605,48.46145h52.20676v11.86476c0,7.79332 -3.55386,15.16186 -9.49265,20.09139v-5.89322c0,-3.90342 -3.17465,-7.07879 -7.07712,-7.07879h-19.0672c-3.90271,0 -7.07761,3.17537 -7.07761,7.07879v5.89275c-5.93857,-4.92952 -9.49219,-12.29855 -9.49219,-20.09091v-11.86476zM26.1534,53.20802c0,-2.61724 2.12933,-4.74657 4.74631,-4.74657v9.49171c-2.61697,0 -4.74631,-2.12886 -4.74631,-4.74514zM52.25713,9.74261v23.38565c-6.96964,0.56621 -14.34055,1.81467 -18.98413,4.14927v-0.68177c0,-12.24325 7.66968,-22.88565 18.98413,-26.85315zM66.49492,5.74593v27.09306c-1.67038,-0.06858 -3.26956,-0.10014 -4.74585,-0.10014c-1.47629,0 -3.07547,0.03156 -4.74585,0.10014v-27.09306zM90.22512,36.59575v0.68177c-4.64355,-2.3346 -12.01447,-3.5833 -18.9841,-4.14927v-23.38565c11.31418,3.96749 18.9841,14.60989 18.9841,26.85315zM97.3445,53.20802c0,2.61628 -2.12885,4.74467 -4.74561,4.74514v-9.49171c2.61676,0.00048 4.74561,2.12981 4.74561,4.74657zM33.273,43.71536v-0.63265c0.20267,-0.49502 2.06384,-2.12886 8.10989,-3.56194c5.53653,-1.313 12.76959,-2.03607 20.36618,-2.03607c7.59659,0 14.82892,0.72307 20.36594,2.0356c6.04605,1.43356 7.90747,3.0674 8.11011,3.56242v0.63265zM49.88408,84.05738v-9.533c0,-1.28619 1.04605,-2.3327 2.33176,-2.3327h19.0672c1.28546,0 2.33124,1.04651 2.33124,2.3327v9.533c0,6.54248 -5.32251,11.86451 -11.86475,11.86451h-0.00046c-6.54251,0 -11.86499,-5.32203 -11.86499,-11.86451zM92.59841,87.30465v30.4483h-28.47604v-17.25702c7.27505,-1.04556 13.03989,-6.82156 14.07001,-14.10135c2.31635,-1.46915 4.40106,-3.2226 6.21857,-5.19934c2.98721,1.74704 5.72665,3.80115 8.18747,6.10941zM97.3445,92.50494c5.58258,7.16802 8.94,15.93809 9.42953,25.24802h-9.42953zM113.25197,117.75296h-1.72662c-0.78973,-16.61179 -9.83105,-31.69296 -24.15192,-40.3197c2.91388,-4.35525 4.7124,-9.42408 5.12888,-14.734h0.09586c5.23425,0 9.49243,-4.25748 9.49243,-9.49123c0,-4.41505 -3.02991,-8.13552 -7.11938,-9.19223v-7.4198c0,-7.52588 -2.58685,-14.89845 -7.28452,-20.76011c-4.22806,-5.27576 -10.01474,-9.16162 -16.44568,-11.08236v-1.3804c0,-1.31063 -1.06265,-2.37305 -2.37305,-2.37305h-14.23779c-1.31039,0 -2.37305,1.06242 -2.37305,2.37305v1.37993c-6.43097,1.92074 -12.21738,5.8066 -16.44568,11.08236c-4.69769,5.86166 -7.28455,13.23448 -7.28455,20.76011v7.41981c-4.08948,1.05672 -7.11938,4.77718 -7.11938,9.19223c0,5.23375 4.25821,9.49123 9.49243,9.49123h0.09659c0.41644,5.30945 2.21475,10.37851 5.12885,14.734c-14.32132,8.62673 -23.36237,23.70839 -24.15213,40.32018h-1.72662c-1.31039,0 -2.37305,1.06289 -2.37305,2.37305c0,1.31064 1.06265,2.37305 2.37305,2.37305h4.02371c0.00595,0 0.01212,0.00095 0.01828,0.00095c0.0062,0 0.01236,-0.00095 0.01828,-0.00095h14.20148c0.00595,0 0.01212,0.00095 0.01828,0.00095c0.0062,0 0.01236,-0.00095 0.01828,-0.00095h66.40851c0.00616,0 0.01208,0.00095 0.01825,0.00095c0.00616,0 0.01212,-0.00095 0.01828,-0.00095h14.20175c0.00592,0 0.01208,0.00095 0.01825,0.00095c0.00616,0 0.01233,-0.00095 0.01828,-0.00095h4.02371c1.31042,0 2.37305,-1.06241 2.37305,-2.37305c0,-1.31016 -1.06262,-2.37305 -2.37305,-2.37305z" fill-opacity="0" fill="#ffffff" stroke-dashoffset="0" stroke-linejoin="miter" stroke-linecap="butt" stroke-opacity="1" stroke="#efefef" stroke-miterlimit="20" stroke-width="2"></path></g><g><title>Path 20476</title><path d="M3.42841,117.75296h-0.0553c-1.31064,0 -2.37305,1.0629 -2.37305,2.37305c0,1.31064 1.06241,2.37305 2.37305,2.37305h0.0553c1.31039,0 2.37305,-1.06241 2.37305,-2.37305c0,-1.31015 -1.06265,-2.37305 -2.37305,-2.37305z" fill="currentColor" fill-opacity="1"></path><path d="M3.42841,117.75296h-0.0553c-1.31064,0 -2.37305,1.0629 -2.37305,2.37305c0,1.31064 1.06241,2.37305 2.37305,2.37305h0.0553c1.31039,0 2.37305,-1.06241 2.37305,-2.37305c0,-1.31015 -1.06265,-2.37305 -2.37305,-2.37305z" fill-opacity="0" fill="#ffffff" stroke-dashoffset="0" stroke-linejoin="miter" stroke-linecap="butt" stroke-opacity="1" stroke="#efefef" stroke-miterlimit="20" stroke-width="2"></path></g><g><title>Path 20477</title><path d="M120.12619,117.75296h-0.05597c-1.31042,0 -2.37305,1.0629 -2.37305,2.37305c0,1.31064 1.06262,2.37305 2.37305,2.37305h0.05597c1.31042,0 2.37305,-1.06241 2.37305,-2.37305c0,-1.31015 -1.06262,-2.37305 -2.37305,-2.37305z" fill="currentColor" fill-opacity="1"></path><path d="M120.12619,117.75296h-0.05597c-1.31042,0 -2.37305,1.0629 -2.37305,2.37305c0,1.31064 1.06262,2.37305 2.37305,2.37305h0.05597c1.31042,0 2.37305,-1.06241 2.37305,-2.37305c0,-1.31015 -1.06262,-2.37305 -2.37305,-2.37305z" fill-opacity="0" fill="#ffffff" stroke-dashoffset="0" stroke-linejoin="miter" stroke-linecap="butt" stroke-opacity="1" stroke="#efefef" stroke-miterlimit="20" stroke-width="2"></path></g><g><title>Path 20478</title><path d="M38.0191,113.00735h7.12695c1.31039,0 2.3728,-1.06241 2.3728,-2.37305c0,-1.31039 -1.06241,-2.37305 -2.3728,-2.37305h-7.12695c-1.31039,0 -2.37305,1.06265 -2.37305,2.37305c0,1.31064 1.06265,2.37305 2.37305,2.37305z" fill="currentColor" fill-opacity="1"></path><path d="M38.0191,113.00735h7.12695c1.31039,0 2.3728,-1.06241 2.3728,-2.37305c0,-1.31039 -1.06241,-2.37305 -2.3728,-2.37305h-7.12695c-1.31039,0 -2.37305,1.06265 -2.37305,2.37305c0,1.31064 1.06265,2.37305 2.37305,2.37305z" fill-opacity="0" fill="#ffffff" stroke-dashoffset="0" stroke-linejoin="miter" stroke-linecap="butt" stroke-opacity="1" stroke="#efefef" stroke-miterlimit="20" stroke-width="2"></path></g><g><title>Path 20479</title><path d="M52.04831,113.00735h0.11249c1.31036,0 2.37305,-1.06241 2.37305,-2.37305c0,-1.31039 -1.06268,-2.37305 -2.37305,-2.37305h-0.11249c-1.31042,0 -2.37305,1.06265 -2.37305,2.37305c0,1.31064 1.06238,2.37305 2.37305,2.37305z" fill="currentColor" fill-opacity="1"></path><path d="M52.04831,113.00735h0.11249c1.31036,0 2.37305,-1.06241 2.37305,-2.37305c0,-1.31039 -1.06268,-2.37305 -2.37305,-2.37305h-0.11249c-1.31042,0 -2.37305,1.06265 -2.37305,2.37305c0,1.31064 1.06238,2.37305 2.37305,2.37305z" fill-opacity="0" fill="#ffffff" stroke-dashoffset="0" stroke-linejoin="miter" stroke-linecap="butt" stroke-opacity="1" stroke="#efefef" stroke-miterlimit="20" stroke-width="2"></path></g><g><title>Path 20480</title><path d="M68.76357,108.26126h-0.112c-1.31036,0 -2.37305,1.06265 -2.37305,2.37305c0,1.31064 1.06268,2.37305 2.37305,2.37305h0.112c1.31042,0 2.37305,-1.06241 2.37305,-2.37305c0,-1.31039 -1.06238,-2.37305 -2.37305,-2.37305z" fill="currentColor" fill-opacity="1"></path><path d="M68.76357,108.26126h-0.112c-1.31036,0 -2.37305,1.06265 -2.37305,2.37305c0,1.31064 1.06268,2.37305 2.37305,2.37305h0.112c1.31042,0 2.37305,-1.06241 2.37305,-2.37305c0,-1.31039 -1.06238,-2.37305 -2.37305,-2.37305z" fill-opacity="0" fill="#ffffff" stroke-dashoffset="0" stroke-linejoin="miter" stroke-linecap="butt" stroke-opacity="1" stroke="#efefef" stroke-miterlimit="20" stroke-width="2"></path></g><g><title>Path 20481</title><path d="M45.13823,59.22678h2.37518c0.02585,1.28809 1.07642,2.3244 2.37042,2.3244c1.29401,0 2.3446,-1.03632 2.37042,-2.3244h2.37592c1.31042,0 2.37305,-1.06241 2.37305,-2.37305c0,-1.31017 -1.06262,-2.37305 -2.37305,-2.37305h-9.49194c-1.31039,0 -2.37305,1.06288 -2.37305,2.37305c0,1.31087 1.06241,2.37305 2.37305,2.37305z" fill="currentColor" fill-opacity="1"></path><path d="M45.13823,59.22678h2.37518c0.02585,1.28809 1.07642,2.3244 2.37042,2.3244c1.29401,0 2.3446,-1.03632 2.37042,-2.3244h2.37592c1.31042,0 2.37305,-1.06241 2.37305,-2.37305c0,-1.31017 -1.06262,-2.37305 -2.37305,-2.37305h-9.49194c-1.31039,0 -2.37305,1.06288 -2.37305,2.37305c0,1.31087 1.06241,2.37305 2.37305,2.37305z" fill-opacity="0" fill="#ffffff" stroke-dashoffset="0" stroke-linejoin="miter" stroke-linecap="butt" stroke-opacity="1" stroke="#efefef" stroke-miterlimit="20" stroke-width="2"></path></g><g><title>Path 20482</title><path d="M68.86891,59.22678h2.37543c0.02588,1.28809 1.07642,2.3244 2.37042,2.3244c1.29401,0 2.3446,-1.03632 2.37042,-2.3244h2.37543c1.31042,0 2.37305,-1.06241 2.37305,-2.37305c0,-1.31017 -1.06262,-2.37305 -2.37305,-2.37305h-9.4917c-1.31042,0 -2.37305,1.06288 -2.37305,2.37305c0,1.31087 1.06244,2.37305 2.37305,2.37305z" fill="currentColor" fill-opacity="1"></path><path d="M68.86891,59.22678h2.37543c0.02588,1.28809 1.07642,2.3244 2.37042,2.3244c1.29401,0 2.3446,-1.03632 2.37042,-2.3244h2.37543c1.31042,0 2.37305,-1.06241 2.37305,-2.37305c0,-1.31017 -1.06262,-2.37305 -2.37305,-2.37305h-9.4917c-1.31042,0 -2.37305,1.06288 -2.37305,2.37305c0,1.31087 1.06244,2.37305 2.37305,2.37305z" fill-opacity="0" fill="#ffffff" stroke-dashoffset="0" stroke-linejoin="miter" stroke-linecap="butt" stroke-opacity="1" stroke="#efefef" stroke-miterlimit="20" stroke-width="2"></path></g></g></g></svg>