<svg xmlns="http://www.w3.org/2000/svg" xmlns:xlink="http://www.w3.org/1999/xlink" width="20" height="20.5"><rect id="backgroundrect" width="100%" height="100%" x="0" y="0" fill="none" stroke="none" style="" class="selected"/>
  <defs>
    <clipPath id="clip-Text_message">
      <rect width="40" height="40" id="svg_1"/>
    </clipPath>
  </defs>
  
<g class="currentLayer" style=""><title>Layer 1</title><g id="Text_message" data-name="Text message" clip-path="url(#clip-Text_message)" class="">
    <g id="Group_5" data-name="Group 5">
      <g id="Group_4" data-name="Group 4">
        <g id="Page-1">
          <g id="_001---Speech-Bubble" data-name="001---Speech-Bubble">
            <path id="Shape" d="M4.2040815353393555,16.802502632141113 h9.380999565124512 l2.799999952316284,3.122999906539917 a0.6589999794960022,0.6589999794960022 0 0 0 0.4819999933242798,0.21299999952316284 a0.6679999828338623,0.6679999828338623 0 0 0 0.30000001192092896,-0.07400000095367432 a0.6570000052452087,0.6570000052452087 0 0 0 0.3540000021457672,-0.7089999914169312 l-0.42800000309944153,-2.6710000038146973 A4.057000160217285,4.057000160217285 0 0 0 20.204081535339355,12.799511909484863 V4.123486518859863 a4.00600004196167,4.00600004196167 0 0 0 -4,-4 H4.2040815353393555 a4.00600004196167,4.00600004196167 0 0 0 -4,4 v8.67300033569336 A4.00600004196167,4.00600004196167 0 0 0 4.2040815353393555,16.802502632141113 zM0.8680830001831055,4.123486518859863 A3.3389999866485596,3.3389999866485596 0 0 1 4.2040815353393555,0.7865114212036133 h12 A3.3389999866485596,3.3389999866485596 0 0 1 19.540080070495605,4.123486518859863 v8.677000045776367 a3.384999990463257,3.384999990463257 0 0 1 -2.5999999046325684,3.236999988555908 a0.6650000214576721,0.6650000214576721 0 0 0 -0.5,0.7519999742507935 l0.43700000643730164,2.687999963760376 l-2.799999952316284,-3.119999885559082 a0.6660000085830688,0.6660000085830688 0 0 0 -0.5,-0.2199999988079071 H4.2040815353393555 a3.3389999866485596,3.3389999866485596 0 0 1 -3.3340001106262207,-3.3369998931884766 z" fill="#fff"/>
            <path id="Shape-2" data-name="Shape" d="M2.2040815353393555,4.122509956359863 a2,2 0 0 1 2,-2 a0.3330000042915344,0.3330000042915344 0 0 0 0,-0.6669999957084656 a2.6700000762939453,2.6700000762939453 0 0 0 -2.6670000553131104,2.6670000553131104 a0.3330000042915344,0.3330000042915344 0 1 0 0.6669999957084656,0 z" fill="#fff"/>
            <circle id="Oval" cx="5.53708153963089" cy="1.788495123386383" r="0.33300018310546875" fill="#fff"/>
            <path id="Shape-3" data-name="Shape" d="M3.2040815353393555,8.456433296203613 a1.6670000553131104,1.6670000553131104 0 1 0 1.6670000553131104,-1.6670000553131104 A1.6670000553131104,1.6670000553131104 0 0 0 3.2040815353393555,8.456433296203613 zm1.6670000553131104,-1 a1,1 0 1 1 -1,1 A1,1 0 0 1 4.8710737228393555,7.456433296203613 z" fill="#fff"/>
            <path id="Shape-4" data-name="Shape" d="M10.204081535339355,10.122448921203613 a1.6670000553131104,1.6670000553131104 0 1 0 -1.6670000553131104,-1.6670000553131104 A1.6670000553131104,1.6670000553131104 0 0 0 10.204081535339355,10.122448921203613 zm0,-2.6670000553131104 a1,1 0 1 1 -1,1 A1,1 0 0 1 10.204081535339355,7.456433296203613 z" fill="#fff"/>
            <path id="Shape-5" data-name="Shape" d="M15.538065910339355,10.122448921203613 a1.6670000553131104,1.6670000553131104 0 1 0 -1.6670000553131104,-1.6670000553131104 A1.6670000553131104,1.6670000553131104 0 0 0 15.538065910339355,10.122448921203613 zm0,-2.6670000553131104 a1,1 0 1 1 -1,1 A1,1 0 0 1 15.538065910339355,7.456433296203613 z" fill="#fff"/>
          </g>
        </g>
      </g>
    </g>
  </g></g></svg>