<svg width="70" height="33" xmlns="http://www.w3.org/2000/svg"><path d="M8.966 20.164L5.4 16.598l3.566-3.565a.584.584 0 000-.832.584.584 0 00-.832 0l-3.98 3.982a.584.584 0 000 .83l3.98 3.982a.583.583 0 00.832 0 .584.584 0 000-.831z" fill="#fff"/><g opacity=".3"><path d="M4.985 20.164l-3.566-3.566 3.566-3.565a.584.584 0 000-.831.584.584 0 00-.832 0l-3.98 3.98a.592.592 0 000 .831l3.98 3.982a.583.583 0 00.832 0 .583.583 0 000-.831z" fill="#fff"/></g><g opacity=".3"><path d="M4.985 20.164l-3.566-3.566 3.566-3.565a.584.584 0 000-.831.584.584 0 00-.832 0l-3.98 3.98a.592.592 0 000 .831l3.98 3.982a.583.583 0 00.832 0 .583.583 0 000-.831z" fill="#fff"/></g><path d="M8.966 20.164L5.4 16.598l3.566-3.565a.584.584 0 000-.832.584.584 0 00-.832 0l-3.98 3.982a.584.584 0 000 .83l3.98 3.982a.583.583 0 00.832 0 .584.584 0 000-.831z" fill="#fff"/><path d="M60.172 20.215l3.566-3.566-3.566-3.566a.584.584 0 010-.83.584.584 0 01.831 0l3.981 3.98a.584.584 0 010 .832l-3.98 3.98a.583.583 0 01-.832 0 .584.584 0 010-.83z" fill="#fff"/><g opacity=".3"><path d="M64.153 20.215l3.566-3.566-3.566-3.566a.584.584 0 010-.83.584.584 0 01.831 0l3.982 3.98a.592.592 0 010 .831l-3.982 3.982a.583.583 0 01-.83 0 .583.583 0 010-.831z" fill="#fff"/></g><g><g opacity=".3"><path d="M64.153 20.215l3.566-3.566-3.566-3.566a.584.584 0 010-.83.584.584 0 01.831 0l3.982 3.98a.592.592 0 010 .831l-3.982 3.982a.583.583 0 01-.83 0 .583.583 0 010-.831z" fill="#fff"/></g><path d="M60.172 20.215l3.566-3.566-3.566-3.566a.584.584 0 010-.83.584.584 0 01.831 0l3.981 3.98a.584.584 0 010 .832l-3.98 3.98a.583.583 0 01-.832 0 .584.584 0 010-.83z" fill="#fff"/></g><g><path d="M44.706 21.73a9.111 9.111 0 01-2.671 6.257c-3.574 3.574-9.385 3.574-12.957 0l-3.893-3.893a1.649 1.649 0 01-.419-1.603l2.173-8.205c.04-.245.152-.601.457-.907a1.641 1.641 0 011.344-.464l2.338.236a.838.838 0 00.676-1.424l-6.867-6.868a1.675 1.675 0 010-2.367 1.675 1.675 0 012.367 0l11.831 11.832c.504.504 1.242.61 1.855.335a.733.733 0 00.432-.668v-3.093c0-1.339.522-2.598 1.468-3.545a5.028 5.028 0 011.876-1.187zm1.686-16.165A1.217 1.217 0 0044.9 4.38a6.694 6.694 0 00-3.244 1.789 6.667 6.667 0 00-1.958 4.728l.002 1.676L28.439 1.31a3.356 3.356 0 00-4.734 0 3.356 3.356 0 000 4.733l5.207 5.207a3.316 3.316 0 00-2.696.944 3.316 3.316 0 00-.926 1.818l-2.147 8.047a3.337 3.337 0 00.86 3.22l3.893 3.892c4.233 4.233 11.092 4.233 15.325 0a10.777 10.777 0 003.16-7.401l.012.01v-.275z" fill="#fff"/></g><g><path d="M44.706 21.73a9.111 9.111 0 01-2.671 6.257c-3.574 3.574-9.385 3.574-12.957 0l-3.893-3.893a1.649 1.649 0 01-.419-1.603l2.173-8.205c.04-.245.152-.601.457-.907a1.641 1.641 0 011.344-.464l2.338.236a.838.838 0 00.676-1.424l-6.867-6.868a1.675 1.675 0 010-2.367 1.675 1.675 0 012.367 0l11.831 11.832c.504.504 1.242.61 1.855.335a.733.733 0 00.432-.668v-3.093c0-1.339.522-2.598 1.468-3.545a5.028 5.028 0 011.876-1.187zm1.686-16.165A1.217 1.217 0 0044.9 4.38a6.694 6.694 0 00-3.244 1.789 6.667 6.667 0 00-1.958 4.728l.002 1.676L28.439 1.31a3.356 3.356 0 00-4.734 0 3.356 3.356 0 000 4.733l5.207 5.207a3.316 3.316 0 00-2.696.944 3.316 3.316 0 00-.926 1.818l-2.147 8.047a3.337 3.337 0 00.86 3.22l3.893 3.892c4.233 4.233 11.092 4.233 15.325 0a10.777 10.777 0 003.16-7.401l.012.01v-.275z" fill="#fff"/></g><g><path d="M44.706 21.73a9.111 9.111 0 01-2.671 6.257c-3.574 3.574-9.385 3.574-12.957 0l-3.893-3.893a1.649 1.649 0 01-.419-1.603l2.173-8.205c.04-.245.152-.601.457-.907a1.641 1.641 0 011.344-.464l2.338.236a.838.838 0 00.676-1.424l-6.867-6.868a1.675 1.675 0 010-2.367 1.675 1.675 0 012.367 0l11.831 11.832c.504.504 1.242.61 1.855.335a.733.733 0 00.432-.668v-3.093c0-1.339.522-2.598 1.468-3.545a5.028 5.028 0 011.876-1.187zm1.686-16.165A1.217 1.217 0 0044.9 4.38a6.694 6.694 0 00-3.244 1.789 6.667 6.667 0 00-1.958 4.728l.002 1.676L28.439 1.31a3.356 3.356 0 00-4.734 0 3.356 3.356 0 000 4.733l5.207 5.207a3.316 3.316 0 00-2.696.944 3.316 3.316 0 00-.926 1.818l-2.147 8.047a3.337 3.337 0 00.86 3.22l3.893 3.892c4.233 4.233 11.092 4.233 15.325 0a10.777 10.777 0 003.16-7.401l.012.01v-.275z" fill="#fff"/></g><g><path d="M44.706 21.73a9.111 9.111 0 01-2.671 6.257c-3.574 3.574-9.385 3.574-12.957 0l-3.893-3.893a1.649 1.649 0 01-.419-1.603l2.173-8.205c.04-.245.152-.601.457-.907a1.641 1.641 0 011.344-.464l2.338.236a.838.838 0 00.676-1.424l-6.867-6.868a1.675 1.675 0 010-2.367 1.675 1.675 0 012.367 0l11.831 11.832c.504.504 1.242.61 1.855.335a.733.733 0 00.432-.668v-3.093c0-1.339.522-2.598 1.468-3.545a5.028 5.028 0 011.876-1.187zm1.686-16.165A1.217 1.217 0 0044.9 4.38a6.694 6.694 0 00-3.244 1.789 6.667 6.667 0 00-1.958 4.728l.002 1.676L28.439 1.31a3.356 3.356 0 00-4.734 0 3.356 3.356 0 000 4.733l5.207 5.207a3.316 3.316 0 00-2.696.944 3.316 3.316 0 00-.926 1.818l-2.147 8.047a3.337 3.337 0 00.86 3.22l3.893 3.892c4.233 4.233 11.092 4.233 15.325 0a10.777 10.777 0 003.16-7.401l.012.01v-.275z" fill="#fff"/><g><g opacity=".3"><path d="M64.153 20.215l3.566-3.566-3.566-3.566a.584.584 0 010-.83.584.584 0 01.831 0l3.982 3.98a.592.592 0 010 .831l-3.982 3.982a.583.583 0 01-.83 0 .583.583 0 010-.831z" fill="#fff"/></g><path d="M60.172 20.215l3.566-3.566-3.566-3.566a.584.584 0 010-.83.584.584 0 01.831 0l3.981 3.98a.584.584 0 010 .832l-3.98 3.98a.583.583 0 01-.832 0 .584.584 0 010-.83z" fill="#fff"/></g><g><g opacity=".3"><path d="M4.985 20.164l-3.566-3.566 3.566-3.565a.584.584 0 000-.831.584.584 0 00-.832 0l-3.98 3.98a.592.592 0 000 .831l3.98 3.982a.583.583 0 00.832 0 .583.583 0 000-.831z" fill="#fff"/></g><path d="M8.966 20.164L5.4 16.598l3.566-3.565a.584.584 0 000-.832.584.584 0 00-.832 0l-3.98 3.982a.584.584 0 000 .83l3.98 3.982a.583.583 0 00.832 0 .584.584 0 000-.831z" fill="#fff"/></g></g></svg>