<?xml version="1.0" encoding="UTF-8"?>
<svg id="SVGDoc" width="26" height="26" xmlns="http://www.w3.org/2000/svg" version="1.1" xmlns:xlink="http://www.w3.org/1999/xlink" xmlns:avocode="https://avocode.com/" viewBox="0 0 26 26"><defs></defs><desc>Generated with Avocode.</desc><g><g><title>Group 13730</title><g><title>Group 13713</title><g><title>Group 13712</title><g><title>Path 23162</title><path d="M24.59743,22.21033l-10.85666,-3.32144l10.85666,-15.6725zM13.40845,23.41622v-3.47343l2.70671,0.82809zM12.40173,18.88132c-0.06398,0.09243 -0.0983,0.20216 -0.0983,0.3146v3.37972l-2.42123,-4.40705l10.71423,-11.11694zM25.42371,0.76382c-0.17233,-0.09835 -0.38428,-0.09669 -0.55499,0.00431l-10.12486,5.98716c-0.26266,0.15531 -0.34968,0.4941 -0.19437,0.75676c0.15525,0.2626 0.49405,0.34962 0.75677,0.19437l7.26443,-4.29566l-13.53117,14.03985l-6.72995,-2.05896l8.7829,-5.19354c0.26266,-0.15536 0.34967,-0.49416 0.19437,-0.75682c-0.15525,-0.26261 -0.49411,-0.34973 -0.75677,-0.19437l-9.86104,5.83107c-0.1884,0.11144 -0.29332,0.32354 -0.26741,0.54096c0.02591,0.21741 0.17768,0.39896 0.38697,0.463l8.03723,2.45886l3.54581,6.45397c0.0037,0.00669 0.00751,0.01232 0.01144,0.01735c0.05918,0.09868 0.14785,0.17929 0.25847,0.22581c0.06922,0.02912 0.14199,0.04332 0.21426,0.04332c0.1416,0 0.28101,-0.05447 0.38626,-0.15741l4.07715,-3.98466l7.66909,2.34627c0.05304,0.01619 0.10748,0.0242 0.16161,0.0242c0.11691,0 0.23238,-0.03713 0.32864,-0.10835c0.14083,-0.1042 0.22393,-0.26901 0.22393,-0.44416v-21.71341c0,-0.1984 -0.10641,-0.38161 -0.27874,-0.47991z" fill="currentColor" fill-opacity="1"></path></g></g></g><g><title>Group 13725</title><g><title>Group 13724</title><g><title>Path 23168</title><path d="M13.07773,8.22241c-0.10278,-0.10275 -0.24533,-0.16188 -0.39062,-0.16188c-0.14529,0 -0.2879,0.05913 -0.39066,0.16188c-0.10269,0.10275 -0.16187,0.24532 -0.16187,0.39117c0,0.14531 0.05911,0.28731 0.16187,0.39006c0.10275,0.10332 0.24536,0.16188 0.39066,0.16188c0.14529,0 0.28784,-0.05856 0.39063,-0.16188c0.10269,-0.10275 0.16187,-0.24475 0.16187,-0.39006c0,-0.14586 -0.05911,-0.28842 -0.16187,-0.39117z" fill="currentColor" fill-opacity="1"></path></g></g></g></g></g></svg>