<?xml version="1.0" encoding="UTF-8"?>
<svg id="SVGDoc" width="154" height="129" xmlns="http://www.w3.org/2000/svg" version="1.1" xmlns:xlink="http://www.w3.org/1999/xlink" xmlns:avocode="https://avocode.com/" viewBox="0 0 154 129"><defs></defs><desc>Generated with Avocode.</desc><g><g><title>Group 12852</title><g><title>Path 20505</title><path d="M145.78127,108.38021h-9.69028c-1.452,-7.12509 -7.76654,-12.5031 -15.31329,-12.5031c-0.0082,0 -0.01642,0.00058 -0.02433,0.00058h-24.98334v-50.01035h31.25863c1.72332,0 3.12548,1.40215 3.12548,3.12548v3.12549h-21.87955c-1.72595,0 -3.12547,1.39923 -3.12547,3.12548v28.13051c0,1.72655 1.39952,3.12577 3.12547,3.12577h37.50667zM120.7777,120.88214c-5.17056,0 -9.37733,-4.20618 -9.37733,-9.37614c0,-5.16295 4.19359,-9.36386 9.353,-9.37704h0.02345l0.00821,-0.00029c5.16352,0.0041 9.36326,4.20384 9.36883,9.36736l-0.00029,0.00998l0.00029,0.00995c-0.00557,5.16588 -4.2097,9.3662 -9.37615,9.3662zM95.77003,102.12895h12.51306c-1.36816,1.81827 -2.34924,3.94275 -2.81927,6.25127h-9.69379zM33.25658,120.88214c-5.17085,0 -9.37733,-4.20618 -9.37733,-9.37614c0,-5.17085 4.20648,-9.37762 9.37733,-9.37762c5.16997,0 9.37615,4.20677 9.37615,9.37762c0,5.16997 -4.20618,9.37614 -9.37615,9.37614zM8.25126,58.36957h12.50222c1.72596,0 3.12577,-1.39953 3.12577,-3.12578c0,-1.72625 -1.39981,-3.12548 -3.12577,-3.12548h-12.50222v-6.25097h37.50725c1.72625,0 3.12577,-1.39952 3.12577,-3.12577c0,-1.72626 -1.39952,-3.12549 -3.12577,-3.12549h-37.50725v-12.50398h81.26751v68.76559h-21.25743c-1.72626,0 -3.12578,1.39952 -3.12578,3.12547c0,1.72626 1.39952,3.12578 3.12578,3.12578h21.25743v6.25127h-40.9492c-1.45169,-7.12509 -7.76624,-12.5031 -15.31299,-12.5031c-7.54734,0 -13.86218,5.37801 -15.31416,12.5031h-9.69116zM30.13198,9.65295l4.04033,4.03975l7.16816,7.16816h-22.41668zM77.01597,14.61076v6.25009h-26.83472l-6.25038,-6.25009zM111.40037,80.24882v-21.87925h6.25156v21.87925zM145.78127,70.8712v9.37762h-21.87807v-21.87925h9.37673c6.89328,0 12.50134,5.60805 12.50134,12.50163zM136.40541,52.3835v-3.39068c0,-5.17026 -4.20619,-9.37674 -9.37675,-9.37674h-31.25863v-15.62975c0,-1.72626 -1.39923,-3.12548 -3.12548,-3.12548h-9.37733v-9.37586c0,-1.72625 -1.39952,-3.12548 -3.12548,-3.12548h-42.46242l-5.33729,-5.337c-1.22019,-1.22077 -3.19962,-1.22077 -4.4201,0l-17.83922,17.83834h-4.95693c-1.72625,0 -3.12578,1.39923 -3.12578,3.12548v87.51966c0,1.72595 1.39952,3.12547 3.12578,3.12547h12.81694c0.47032,2.30879 1.45168,4.43358 2.81956,6.25156h-6.25976c-1.72625,0 -3.12548,1.39952 -3.12548,3.12547c0,1.72597 1.39923,3.12578 3.12548,3.12578h18.75348c0.00762,0 0.01524,-0.00146 0.02315,-0.00146c7.53679,-0.01085 13.83992,-5.38388 15.29043,-12.50134h56.89426c0.47032,2.30879 1.45168,4.43358 2.81985,6.25156h-6.26005c-1.72596,0 -3.12548,1.39952 -3.12548,3.12547c0,1.72597 1.39952,3.12578 3.12548,3.12578h18.75318c0.00792,0 0.01583,-0.00146 0.02345,-0.00146c7.53709,-0.01085 13.84021,-5.38388 15.29073,-12.50134h12.81577c1.72655,0 3.12576,-1.39952 3.12576,-3.12547v-40.6348c0,-9.27505 -6.77022,-16.9944 -15.62711,-18.48769z" fill="currentColor" fill-opacity="1"></path><path d="M145.78127,108.38021h-9.69028c-1.452,-7.12509 -7.76654,-12.5031 -15.31329,-12.5031c-0.0082,0 -0.01642,0.00058 -0.02433,0.00058h-24.98334v-50.01035h31.25863c1.72332,0 3.12548,1.40215 3.12548,3.12548v3.12549h-21.87955c-1.72595,0 -3.12547,1.39923 -3.12547,3.12548v28.13051c0,1.72655 1.39952,3.12577 3.12547,3.12577h37.50667zM120.7777,120.88214c-5.17056,0 -9.37733,-4.20618 -9.37733,-9.37614c0,-5.16295 4.19359,-9.36386 9.353,-9.37704h0.02345l0.00821,-0.00029c5.16352,0.0041 9.36326,4.20384 9.36883,9.36736l-0.00029,0.00998l0.00029,0.00995c-0.00557,5.16588 -4.2097,9.3662 -9.37615,9.3662zM95.77003,102.12895h12.51306c-1.36816,1.81827 -2.34924,3.94275 -2.81927,6.25127h-9.69379zM33.25658,120.88214c-5.17085,0 -9.37733,-4.20618 -9.37733,-9.37614c0,-5.17085 4.20648,-9.37762 9.37733,-9.37762c5.16997,0 9.37615,4.20677 9.37615,9.37762c0,5.16997 -4.20618,9.37614 -9.37615,9.37614zM8.25126,58.36957h12.50222c1.72596,0 3.12577,-1.39953 3.12577,-3.12578c0,-1.72625 -1.39981,-3.12548 -3.12577,-3.12548h-12.50222v-6.25097h37.50725c1.72625,0 3.12577,-1.39952 3.12577,-3.12577c0,-1.72626 -1.39952,-3.12549 -3.12577,-3.12549h-37.50725v-12.50398h81.26751v68.76559h-21.25743c-1.72626,0 -3.12578,1.39952 -3.12578,3.12547c0,1.72626 1.39952,3.12578 3.12578,3.12578h21.25743v6.25127h-40.9492c-1.45169,-7.12509 -7.76624,-12.5031 -15.31299,-12.5031c-7.54734,0 -13.86218,5.37801 -15.31416,12.5031h-9.69116zM30.13198,9.65295l4.04033,4.03975l7.16816,7.16816h-22.41668zM77.01597,14.61076v6.25009h-26.83472l-6.25038,-6.25009zM111.40037,80.24882v-21.87925h6.25156v21.87925zM145.78127,70.8712v9.37762h-21.87807v-21.87925h9.37673c6.89328,0 12.50134,5.60805 12.50134,12.50163zM136.40541,52.3835v-3.39068c0,-5.17026 -4.20619,-9.37674 -9.37675,-9.37674h-31.25863v-15.62975c0,-1.72626 -1.39923,-3.12548 -3.12548,-3.12548h-9.37733v-9.37586c0,-1.72625 -1.39952,-3.12548 -3.12548,-3.12548h-42.46242l-5.33729,-5.337c-1.22019,-1.22077 -3.19962,-1.22077 -4.4201,0l-17.83922,17.83834h-4.95693c-1.72625,0 -3.12578,1.39923 -3.12578,3.12548v87.51966c0,1.72595 1.39952,3.12547 3.12578,3.12547h12.81694c0.47032,2.30879 1.45168,4.43358 2.81956,6.25156h-6.25976c-1.72625,0 -3.12548,1.39952 -3.12548,3.12547c0,1.72597 1.39923,3.12578 3.12548,3.12578h18.75348c0.00762,0 0.01524,-0.00146 0.02315,-0.00146c7.53679,-0.01085 13.83992,-5.38388 15.29043,-12.50134h56.89426c0.47032,2.30879 1.45168,4.43358 2.81985,6.25156h-6.26005c-1.72596,0 -3.12548,1.39952 -3.12548,3.12547c0,1.72597 1.39952,3.12578 3.12548,3.12578h18.75318c0.00792,0 0.01583,-0.00146 0.02345,-0.00146c7.53709,-0.01085 13.84021,-5.38388 15.29073,-12.50134h12.81577c1.72655,0 3.12576,-1.39952 3.12576,-3.12547v-40.6348c0,-9.27505 -6.77022,-16.9944 -15.62711,-18.48769z" fill-opacity="0" fill="#ffffff" stroke-dashoffset="0" stroke-linejoin="miter" stroke-linecap="butt" stroke-opacity="1" stroke="#f5f5f5" stroke-miterlimit="20" stroke-width="3"></path></g><g><title>Path 20506</title><path d="M56.03428,102.12894h1.951c1.72627,0 3.12578,-1.39951 3.12578,-3.12576c0,-1.72598 -1.39951,-3.12549 -3.12578,-3.12549h-1.951c-1.72626,0 -3.12549,1.39951 -3.12549,3.12549c0,1.72626 1.39952,3.12576 3.12549,3.12576z" fill="currentColor" fill-opacity="1"></path><path d="M56.03428,102.12894h1.951c1.72627,0 3.12578,-1.39951 3.12578,-3.12576c0,-1.72598 -1.39951,-3.12549 -3.12578,-3.12549h-1.951c-1.72626,0 -3.12549,1.39951 -3.12549,3.12549c0,1.72626 1.39952,3.12576 3.12549,3.12576z" fill-opacity="0" fill="#ffffff" stroke-dashoffset="0" stroke-linejoin="miter" stroke-linecap="butt" stroke-opacity="1" stroke="#f5f5f5" stroke-miterlimit="20" stroke-width="3"></path></g><g><title>Path 20507</title><path d="M56.03428,45.86735h1.951c1.72627,0 3.12578,-1.39954 3.12578,-3.12578c0,-1.72624 -1.39951,-3.12549 -3.12578,-3.12549h-1.951c-1.72626,0 -3.12549,1.39925 -3.12549,3.12549c0,1.72624 1.39952,3.12578 3.12549,3.12578z" fill="currentColor" fill-opacity="1"></path><path d="M56.03428,45.86735h1.951c1.72627,0 3.12578,-1.39954 3.12578,-3.12578c0,-1.72624 -1.39951,-3.12549 -3.12578,-3.12549h-1.951c-1.72626,0 -3.12549,1.39925 -3.12549,3.12549c0,1.72624 1.39952,3.12578 3.12549,3.12578z" fill-opacity="0" fill="#ffffff" stroke-dashoffset="0" stroke-linejoin="miter" stroke-linecap="butt" stroke-opacity="1" stroke="#f5f5f5" stroke-miterlimit="20" stroke-width="3"></path></g></g></g></svg>