<?xml version="1.0" encoding="UTF-8"?>
<svg id="SVGDoc" width="59" height="47" xmlns="http://www.w3.org/2000/svg" version="1.1" xmlns:xlink="http://www.w3.org/1999/xlink" xmlns:avocode="https://avocode.com/" viewBox="0 0 59 47"><defs></defs><desc>Generated with Avocode.</desc><g><g><title>Group 12299</title><g><title>Path 11715</title><path d="M46.17322,16.47734c-0.12158,-8.87868 -7.38171,-16.06435 -16.28876,-16.06435c-3.9621,0 -7.77924,1.44118 -10.74805,4.05843c-2.64966,2.33574 -4.46222,5.45685 -5.18005,8.88368c-0.05243,-0.00057 -0.10449,-0.00102 -0.15625,-0.00102c-7.6098,0 -13.80109,6.19114 -13.80109,13.80095c0,7.60992 6.19128,13.80095 13.80109,13.80095h9.63855c0.68573,0 1.24194,-0.55596 1.24194,-1.24192c0,-0.68596 -0.55621,-1.24191 -1.24194,-1.24191h-9.63855c-6.24042,0 -11.31726,-5.07685 -11.31726,-11.31713c0,-6.24028 5.07684,-11.31713 11.31726,-11.31713c0.33246,0 0.6839,0.01797 1.07458,0.05471c0.66223,0.06199 1.25671,-0.409 1.34692,-1.06869c0.4472,-3.27795 2.06549,-6.29283 4.55719,-8.48924c2.51483,-2.217 5.74854,-3.43787 9.10547,-3.43787c7.6131,0 13.80664,6.19365 13.80664,13.80664c0,0.27411 -0.02039,0.55664 -0.04175,0.85577l-0.00922,0.12716c-0.02582,0.36544 0.1109,0.72361 0.37372,0.97872c0.26276,0.255 0.62421,0.38114 0.9892,0.34463c0.33038,-0.03333 0.66357,-0.05016 0.99042,-0.05016c5.37952,0 9.75629,4.37667 9.75629,9.75629c0,5.37951 -4.37665,9.75617 -9.75629,9.75617h-10.13538c-0.68579,0 -1.24188,0.55595 -1.24188,1.24191c0,0.68596 0.55609,1.24192 1.24188,1.24192h10.13538c6.74927,0 12.24011,-5.49074 12.24011,-12.24c-0.00012,-6.68887 -5.39355,-12.14196 -12.06018,-12.23852z" fill="#2f2f2f" fill-opacity="1"></path></g><g><title>Path 11716</title><path d="M29.88443,8.73378c0.68585,0 1.24194,-0.55596 1.24194,-1.24191c0,-0.68585 -0.55609,-1.24192 -1.24194,-1.24192c-5.19305,0 -9.63843,3.88088 -10.34052,9.02711c-0.09259,0.67959 0.38318,1.30584 1.06274,1.39842c0.05701,0.00774 0.11353,0.0116 0.16937,0.0116c0.61145,0 1.1441,-0.45155 1.22894,-1.07415c0.53479,-3.92171 3.9223,-6.87915 7.87946,-6.87915z" fill="#2f2f2f" fill-opacity="1"></path></g><g><title>Path 11717</title><path d="M34.70425,32.85596c0.34143,0 0.68127,-0.13991 0.92676,-0.41458c0.45685,-0.51149 0.4126,-1.29651 -0.09888,-1.75363l-4.51746,-4.03545c-0.77875,-0.69608 -1.95367,-0.69597 -2.73279,-0.00011l-4.51752,4.03578c-0.5116,0.45689 -0.55585,1.24203 -0.09894,1.75351c0.45703,0.51149 1.24188,0.55597 1.7536,0.09885l2.98724,-2.66843v0v15.27866c0,0.68594 0.55597,1.24191 1.24194,1.24191c0.68573,0 1.24188,-0.55597 1.24188,-1.24191v-15.27899v0l2.98724,2.66866c0.23694,0.21165 0.53241,0.31573 0.8269,0.31573z" fill="#2f2f2f" fill-opacity="1"></path></g></g></g></svg>