<?xml version="1.0" encoding="UTF-8"?>
<svg id="SVGDoc" width="24" height="27" xmlns="http://www.w3.org/2000/svg" version="1.1" xmlns:xlink="http://www.w3.org/1999/xlink" xmlns:avocode="https://avocode.com/" viewBox="0 0 24 27"><defs><clipPath id="ClipPath1209"><path d="M11.80831,11.29315v-8.5863h7.38339v8.5863zM12.93523,3.81477c-0.23032,-0.06624 -0.46974,0.06754 -0.53511,0.29829c-0.06537,0.22989 0.06797,0.46931 0.29786,0.53468c2.57988,0.73383 4.63504,2.79375 5.36325,5.37537c0.05368,0.19049 0.22729,0.31561 0.41648,0.31561c0.03897,0 0.07835,-0.0052 0.11776,-0.01602c0.22989,-0.06494 0.3641,-0.30436 0.29916,-0.53425c-0.80915,-2.86908 -3.09249,-5.1576 -5.95941,-5.97369z" fill="currentColor"></path></clipPath><clipPath id="ClipPath1217"><path d="M11.80831,11.19156v-5.38311h5.38339v5.38311zM16.32402,10.80228c0.03897,0 0.07837,-0.00519 0.11776,-0.01602c0.23033,-0.06494 0.3641,-0.30435 0.29916,-0.53424c-0.51087,-1.81098 -1.95212,-3.25527 -3.76181,-3.77046c-0.22989,-0.06624 -0.46931,0.0684 -0.53468,0.2983c-0.06537,0.22989 0.06797,0.46931 0.29786,0.53468c1.52265,0.43294 2.73531,1.64906 3.16521,3.17257c0.05412,0.19049 0.22729,0.31518 0.41648,0.31518z" fill="currentColor"></path></clipPath><clipPath id="ClipPath1225"><path d="M11.80831,11.2v-3.4h3.38339v3.4zM12.92763,8.35234c-0.23032,-0.06624 -0.46974,0.06754 -0.53511,0.29786c-0.06537,0.22989 0.06797,0.46931 0.29786,0.53468c0.64508,0.18357 1.15898,0.69833 1.34082,1.34384c0.05368,0.19049 0.22729,0.31562 0.41648,0.31562c0.03897,0 0.07837,-0.0052 0.11776,-0.01602c0.22989,-0.06495 0.36411,-0.30392 0.29916,-0.53425c-0.26279,-0.93255 -1.00529,-1.67677 -1.93697,-1.94173z" fill="currentColor"></path></clipPath><clipPath id="ClipPath1233"><path d="M3.40997,18.12649v-13.25297h16.18007v13.25297zM16.5501,16.21987c-0.44184,0.60092 -1.35494,0.7715 -2.07581,0.36108c-0.0358,-0.01645 -3.61121,-1.66032 -5.49576,-3.35528c-1.76148,-1.58412 -2.93105,-3.34402 -3.09042,-3.58949c-0.38838,-0.96156 -0.31973,-1.55252 0.22754,-1.97247l1.11073,-0.85202l2.03608,2.06771c0.18096,0.18357 0.15986,0.45199 -0.04708,0.61088l-0.60171,0.46152c-0.14662,0.11256 -0.20449,0.2905 -0.14711,0.45415c1.02589,2.94312 3.02078,3.52109 4.47723,3.94321l0.21234,0.06191c0.21234,0.06321 0.44478,-0.00909 0.56639,-0.17447l0.34769,-0.47277c0.0716,-0.09784 0.18144,-0.16408 0.30894,-0.18789c0.12799,-0.02424 0.25843,-0.00173 0.36926,0.06191l2.60297,1.49234zM18.29637,14.64008l-3.01392,-1.72829c-0.32954,-0.18919 -0.72185,-0.25327 -1.10582,-0.18313c-0.38446,0.07143 -0.71499,0.27188 -0.92929,0.56412l-0.14172,0.19222c-1.30443,-0.38055 -2.74274,-0.86674 -3.60386,-3.06737l0.35651,-0.27362c0.612,-0.46974 0.67624,-1.29146 0.14417,-1.83263l-2.35778,-2.39458c-0.17752,-0.18054 -0.48744,-0.19915 -0.69193,-0.04286l-1.48048,1.13603c-1.29854,0.99663 -0.69194,2.47078 -0.49235,2.95524c0.00883,0.02165 0.01962,0.04243 0.03236,0.06278c0.05149,0.08139 1.28089,2.01836 3.26647,3.8038c1.99342,1.7928 5.59237,3.44835 5.70271,3.49641c0.41094,0.23552 0.87338,0.34851 1.33091,0.34851c0.80326,0 1.59082,-0.34764 2.06061,-0.98494l1.06806,-1.45208c0.14712,-0.20132 0.08239,-0.4693 -0.14466,-0.59962z" fill="currentColor"></path></clipPath><clipPath id="ClipPath1241"><path d="M-0.1,26.2v-26.4h23.2v26.4zM22.05785,13.86514c0,4.46145 -3.55902,8.09117 -7.9344,8.09117h-4.62883c-0.11576,0 -0.22731,0.04379 -0.31319,0.12331l-2.0598,1.90293v-2.03719c0,-0.20186 -0.12463,-0.38183 -0.31133,-0.44848c-3.16368,-1.14119 -5.28976,-4.20816 -5.28976,-7.63173v-4.28958c0,-4.46145 3.55949,-8.09116 7.9344,-8.09116h4.6685c4.37538,0 7.9344,3.62972 7.9344,8.09116zM9.45495,0.53223c-4.88974,0 -8.86791,4.05677 -8.86791,9.04334v4.28958c0,3.71351 2.23716,7.0509 5.60108,8.41014v2.78085c0,0.18853 0.10876,0.35898 0.27772,0.43515c0.06068,0.02761 0.12509,0.04094 0.18904,0.04094c0.11342,0 0.22591,-0.04237 0.31319,-0.12331l2.70673,-2.50043h4.44866c4.88975,0 8.86791,-4.05676 8.86791,-9.04334v-4.28958c0,-4.98657 -3.97817,-9.04334 -8.86791,-9.04334z" fill="currentColor"></path></clipPath><clipPath id="ClipPath1251"><path d="M-0.1,26.2v-26.4h23.2v26.4zM22.05785,13.86514c0,4.46145 -3.55902,8.09117 -7.9344,8.09117h-4.62883c-0.11576,0 -0.22731,0.04379 -0.31319,0.12331l-2.0598,1.90293v-2.03719c0,-0.20186 -0.12463,-0.38183 -0.31133,-0.44848c-3.16368,-1.14119 -5.28976,-4.20816 -5.28976,-7.63173v-4.28958c0,-4.46145 3.55949,-8.09116 7.9344,-8.09116h4.6685c4.37538,0 7.9344,3.62972 7.9344,8.09116zM9.45495,0.53223c-4.88974,0 -8.86791,4.05677 -8.86791,9.04334v4.28958c0,3.71351 2.23716,7.0509 5.60108,8.41014v2.78085c0,0.18853 0.10876,0.35898 0.27772,0.43515c0.06068,0.02761 0.12509,0.04094 0.18904,0.04094c0.11342,0 0.22591,-0.04237 0.31319,-0.12331l2.70673,-2.50043h4.44866c4.88975,0 8.86791,-4.05676 8.86791,-9.04334v-4.28958c0,-4.98657 -3.97817,-9.04334 -8.86791,-9.04334z" fill="currentColor"></path></clipPath><clipPath id="ClipPath1259"><path d="M3.40997,18.12649v-13.25297h16.18007v13.25297zM16.5501,16.21987c-0.44184,0.60092 -1.35494,0.7715 -2.07581,0.36108c-0.0358,-0.01645 -3.61121,-1.66032 -5.49576,-3.35528c-1.76148,-1.58412 -2.93105,-3.34402 -3.09042,-3.58949c-0.38838,-0.96156 -0.31973,-1.55252 0.22754,-1.97247l1.11073,-0.85202l2.03608,2.06771c0.18096,0.18357 0.15986,0.45199 -0.04708,0.61088l-0.60171,0.46152c-0.14662,0.11256 -0.20449,0.2905 -0.14711,0.45415c1.02589,2.94312 3.02078,3.52109 4.47723,3.94321l0.21234,0.06191c0.21234,0.06321 0.44478,-0.00909 0.56639,-0.17447l0.34769,-0.47277c0.0716,-0.09784 0.18144,-0.16408 0.30894,-0.18789c0.12799,-0.02424 0.25843,-0.00173 0.36926,0.06191l2.60297,1.49234zM18.29637,14.64008l-3.01392,-1.72829c-0.32954,-0.18919 -0.72185,-0.25327 -1.10582,-0.18313c-0.38446,0.07143 -0.71499,0.27188 -0.92929,0.56412l-0.14172,0.19222c-1.30443,-0.38055 -2.74274,-0.86674 -3.60386,-3.06737l0.35651,-0.27362c0.612,-0.46974 0.67624,-1.29146 0.14417,-1.83263l-2.35778,-2.39458c-0.17752,-0.18054 -0.48744,-0.19915 -0.69193,-0.04286l-1.48048,1.13603c-1.29854,0.99663 -0.69194,2.47078 -0.49235,2.95524c0.00883,0.02165 0.01962,0.04243 0.03236,0.06278c0.05149,0.08139 1.28089,2.01836 3.26647,3.8038c1.99342,1.7928 5.59237,3.44835 5.70271,3.49641c0.41094,0.23552 0.87338,0.34851 1.33091,0.34851c0.80326,0 1.59082,-0.34764 2.06061,-0.98494l1.06806,-1.45208c0.14712,-0.20132 0.08239,-0.4693 -0.14466,-0.59962z" fill="currentColor"></path></clipPath><clipPath id="ClipPath1267"><path d="M11.80831,11.2v-3.4h3.38339v3.4zM12.92763,8.35234c-0.23032,-0.06624 -0.46974,0.06754 -0.53511,0.29786c-0.06537,0.22989 0.06797,0.46931 0.29786,0.53468c0.64508,0.18357 1.15898,0.69833 1.34082,1.34384c0.05368,0.19049 0.22729,0.31562 0.41648,0.31562c0.03897,0 0.07837,-0.0052 0.11776,-0.01602c0.22989,-0.06495 0.36411,-0.30392 0.29916,-0.53425c-0.26279,-0.93255 -1.00529,-1.67677 -1.93697,-1.94173z" fill="currentColor"></path></clipPath><clipPath id="ClipPath1275"><path d="M11.80831,11.19156v-5.38311h5.38339v5.38311zM16.32402,10.80228c0.03897,0 0.07837,-0.00519 0.11776,-0.01602c0.23033,-0.06494 0.3641,-0.30435 0.29916,-0.53424c-0.51087,-1.81098 -1.95212,-3.25527 -3.76181,-3.77046c-0.22989,-0.06624 -0.46931,0.0684 -0.53468,0.2983c-0.06537,0.22989 0.06797,0.46931 0.29786,0.53468c1.52265,0.43294 2.73531,1.64906 3.16521,3.17257c0.05412,0.19049 0.22729,0.31518 0.41648,0.31518z" fill="currentColor"></path></clipPath><clipPath id="ClipPath1283"><path d="M11.80831,11.29315v-8.5863h7.38339v8.5863zM12.93523,3.81477c-0.23032,-0.06624 -0.46974,0.06754 -0.53511,0.29829c-0.06537,0.22989 0.06797,0.46931 0.29786,0.53468c2.57988,0.73383 4.63504,2.79375 5.36325,5.37537c0.05368,0.19049 0.22729,0.31561 0.41648,0.31561c0.03897,0 0.07835,-0.0052 0.11776,-0.01602c0.22989,-0.06494 0.3641,-0.30436 0.29916,-0.53425c-0.80915,-2.86908 -3.09249,-5.1576 -5.95941,-5.97369z" fill="currentColor"></path></clipPath><clipPath id="ClipPath1295"><path d="M-0.1,26.2v-26.4h23.2v26.4zM22.05785,13.86514c0,4.46145 -3.55902,8.09117 -7.9344,8.09117h-4.62883c-0.11576,0 -0.22731,0.04379 -0.31319,0.12331l-2.0598,1.90293v-2.03719c0,-0.20186 -0.12463,-0.38183 -0.31133,-0.44848c-3.16368,-1.14119 -5.28976,-4.20816 -5.28976,-7.63173v-4.28958c0,-4.46145 3.55949,-8.09116 7.9344,-8.09116h4.6685c4.37538,0 7.9344,3.62972 7.9344,8.09116zM9.45495,0.53223c-4.88974,0 -8.86791,4.05677 -8.86791,9.04334v4.28958c0,3.71351 2.23716,7.0509 5.60108,8.41014v2.78085c0,0.18853 0.10876,0.35898 0.27772,0.43515c0.06068,0.02761 0.12509,0.04094 0.18904,0.04094c0.11342,0 0.22591,-0.04237 0.31319,-0.12331l2.70673,-2.50043h4.44866c4.88975,0 8.86791,-4.05676 8.86791,-9.04334v-4.28958c0,-4.98657 -3.97817,-9.04334 -8.86791,-9.04334z" fill="currentColor"></path></clipPath><clipPath id="ClipPath1303"><path d="M3.40997,18.12649v-13.25297h16.18007v13.25297zM16.5501,16.21987c-0.44184,0.60092 -1.35494,0.7715 -2.07581,0.36108c-0.0358,-0.01645 -3.61121,-1.66032 -5.49576,-3.35528c-1.76148,-1.58412 -2.93105,-3.34402 -3.09042,-3.58949c-0.38838,-0.96156 -0.31973,-1.55252 0.22754,-1.97247l1.11073,-0.85202l2.03608,2.06771c0.18096,0.18357 0.15986,0.45199 -0.04708,0.61088l-0.60171,0.46152c-0.14662,0.11256 -0.20449,0.2905 -0.14711,0.45415c1.02589,2.94312 3.02078,3.52109 4.47723,3.94321l0.21234,0.06191c0.21234,0.06321 0.44478,-0.00909 0.56639,-0.17447l0.34769,-0.47277c0.0716,-0.09784 0.18144,-0.16408 0.30894,-0.18789c0.12799,-0.02424 0.25843,-0.00173 0.36926,0.06191l2.60297,1.49234zM18.29637,14.64008l-3.01392,-1.72829c-0.32954,-0.18919 -0.72185,-0.25327 -1.10582,-0.18313c-0.38446,0.07143 -0.71499,0.27188 -0.92929,0.56412l-0.14172,0.19222c-1.30443,-0.38055 -2.74274,-0.86674 -3.60386,-3.06737l0.35651,-0.27362c0.612,-0.46974 0.67624,-1.29146 0.14417,-1.83263l-2.35778,-2.39458c-0.17752,-0.18054 -0.48744,-0.19915 -0.69193,-0.04286l-1.48048,1.13603c-1.29854,0.99663 -0.69194,2.47078 -0.49235,2.95524c0.00883,0.02165 0.01962,0.04243 0.03236,0.06278c0.05149,0.08139 1.28089,2.01836 3.26647,3.8038c1.99342,1.7928 5.59237,3.44835 5.70271,3.49641c0.41094,0.23552 0.87338,0.34851 1.33091,0.34851c0.80326,0 1.59082,-0.34764 2.06061,-0.98494l1.06806,-1.45208c0.14712,-0.20132 0.08239,-0.4693 -0.14466,-0.59962z" fill="currentColor"></path></clipPath><clipPath id="ClipPath1311"><path d="M11.80831,11.2v-3.4h3.38339v3.4zM12.92763,8.35234c-0.23032,-0.06624 -0.46974,0.06754 -0.53511,0.29786c-0.06537,0.22989 0.06797,0.46931 0.29786,0.53468c0.64508,0.18357 1.15898,0.69833 1.34082,1.34384c0.05368,0.19049 0.22729,0.31562 0.41648,0.31562c0.03897,0 0.07837,-0.0052 0.11776,-0.01602c0.22989,-0.06495 0.36411,-0.30392 0.29916,-0.53425c-0.26279,-0.93255 -1.00529,-1.67677 -1.93697,-1.94173z" fill="currentColor"></path></clipPath><clipPath id="ClipPath1319"><path d="M11.80831,11.19156v-5.38311h5.38339v5.38311zM16.32402,10.80228c0.03897,0 0.07837,-0.00519 0.11776,-0.01602c0.23033,-0.06494 0.3641,-0.30435 0.29916,-0.53424c-0.51087,-1.81098 -1.95212,-3.25527 -3.76181,-3.77046c-0.22989,-0.06624 -0.46931,0.0684 -0.53468,0.2983c-0.06537,0.22989 0.06797,0.46931 0.29786,0.53468c1.52265,0.43294 2.73531,1.64906 3.16521,3.17257c0.05412,0.19049 0.22729,0.31518 0.41648,0.31518z" fill="currentColor"></path></clipPath><clipPath id="ClipPath1327"><path d="M11.80831,11.29315v-8.5863h7.38339v8.5863zM12.93523,3.81477c-0.23032,-0.06624 -0.46974,0.06754 -0.53511,0.29829c-0.06537,0.22989 0.06797,0.46931 0.29786,0.53468c2.57988,0.73383 4.63504,2.79375 5.36325,5.37537c0.05368,0.19049 0.22729,0.31561 0.41648,0.31561c0.03897,0 0.07835,-0.0052 0.11776,-0.01602c0.22989,-0.06494 0.3641,-0.30436 0.29916,-0.53425c-0.80915,-2.86908 -3.09249,-5.1576 -5.95941,-5.97369z" fill="currentColor"></path></clipPath></defs><desc>Generated with Avocode.</desc><g><g><title>Path 23155</title><path d="M12.93523,3.81477c-0.23032,-0.06624 -0.46974,0.06754 -0.53511,0.29829c-0.06537,0.22989 0.06797,0.46931 0.29786,0.53468c2.57988,0.73383 4.63504,2.79375 5.36325,5.37537c0.05368,0.19049 0.22729,0.31561 0.41648,0.31561c0.03897,0 0.07835,-0.0052 0.11776,-0.01602c0.22989,-0.06494 0.3641,-0.30436 0.29916,-0.53425c-0.80915,-2.86908 -3.09249,-5.1576 -5.95941,-5.97369z" fill="currentColor" fill-opacity="1"></path><path d="M12.93523,3.81477c-0.23032,-0.06624 -0.46974,0.06754 -0.53511,0.29829c-0.06537,0.22989 0.06797,0.46931 0.29786,0.53468c2.57988,0.73383 4.63504,2.79375 5.36325,5.37537c0.05368,0.19049 0.22729,0.31561 0.41648,0.31561c0.03897,0 0.07835,-0.0052 0.11776,-0.01602c0.22989,-0.06494 0.3641,-0.30436 0.29916,-0.53425c-0.80915,-2.86908 -3.09249,-5.1576 -5.95941,-5.97369z" fill-opacity="0" fill="currentColor" stroke-dashoffset="0" stroke-linejoin="miter" stroke-linecap="butt" stroke-opacity="1" stroke="#fff" stroke-miterlimit="20" stroke-width="0.4000000059604645" clip-path="url(&quot;#ClipPath1209&quot;)"></path></g><g><title>Path 23154</title><path d="M16.32402,10.80228c0.03897,0 0.07837,-0.00519 0.11776,-0.01602c0.23033,-0.06494 0.3641,-0.30435 0.29916,-0.53424c-0.51087,-1.81098 -1.95212,-3.25527 -3.76181,-3.77046c-0.22989,-0.06624 -0.46931,0.0684 -0.53468,0.2983c-0.06537,0.22989 0.06797,0.46931 0.29786,0.53468c1.52265,0.43294 2.73531,1.64906 3.16521,3.17257c0.05412,0.19049 0.22729,0.31518 0.41648,0.31518z" fill="currentColor" fill-opacity="1"></path><path d="M16.32402,10.80228c0.03897,0 0.07837,-0.00519 0.11776,-0.01602c0.23033,-0.06494 0.3641,-0.30435 0.29916,-0.53424c-0.51087,-1.81098 -1.95212,-3.25527 -3.76181,-3.77046c-0.22989,-0.06624 -0.46931,0.0684 -0.53468,0.2983c-0.06537,0.22989 0.06797,0.46931 0.29786,0.53468c1.52265,0.43294 2.73531,1.64906 3.16521,3.17257c0.05412,0.19049 0.22729,0.31518 0.41648,0.31518z" fill-opacity="0" fill="currentColor" stroke-dashoffset="0" stroke-linejoin="miter" stroke-linecap="butt" stroke-opacity="1" stroke="#fff" stroke-miterlimit="20" stroke-width="0.4000000059604645" clip-path="url(&quot;#ClipPath1217&quot;)"></path></g><g><title>Path 23153</title><path d="M12.92763,8.35234c-0.23032,-0.06624 -0.46974,0.06754 -0.53511,0.29786c-0.06537,0.22989 0.06797,0.46931 0.29786,0.53468c0.64508,0.18357 1.15898,0.69833 1.34082,1.34384c0.05368,0.19049 0.22729,0.31562 0.41648,0.31562c0.03897,0 0.07837,-0.0052 0.11776,-0.01602c0.22989,-0.06495 0.36411,-0.30392 0.29916,-0.53425c-0.26279,-0.93255 -1.00529,-1.67677 -1.93697,-1.94173z" fill="currentColor" fill-opacity="1"></path><path d="M12.92763,8.35234c-0.23032,-0.06624 -0.46974,0.06754 -0.53511,0.29786c-0.06537,0.22989 0.06797,0.46931 0.29786,0.53468c0.64508,0.18357 1.15898,0.69833 1.34082,1.34384c0.05368,0.19049 0.22729,0.31562 0.41648,0.31562c0.03897,0 0.07837,-0.0052 0.11776,-0.01602c0.22989,-0.06495 0.36411,-0.30392 0.29916,-0.53425c-0.26279,-0.93255 -1.00529,-1.67677 -1.93697,-1.94173z" fill-opacity="0" fill="currentColor" stroke-dashoffset="0" stroke-linejoin="miter" stroke-linecap="butt" stroke-opacity="1" stroke="#fff" stroke-miterlimit="20" stroke-width="0.4000000059604645" clip-path="url(&quot;#ClipPath1225&quot;)"></path></g><g><title>Path 23152</title><path d="M16.5501,16.21987c-0.44184,0.60092 -1.35494,0.7715 -2.07581,0.36108c-0.0358,-0.01645 -3.61121,-1.66032 -5.49576,-3.35528c-1.76148,-1.58412 -2.93105,-3.34402 -3.09042,-3.58949c-0.38838,-0.96156 -0.31973,-1.55252 0.22754,-1.97247l1.11073,-0.85202l2.03608,2.06771c0.18096,0.18357 0.15986,0.45199 -0.04708,0.61088l-0.60171,0.46152c-0.14662,0.11256 -0.20449,0.2905 -0.14711,0.45415c1.02589,2.94312 3.02078,3.52109 4.47723,3.94321l0.21234,0.06191c0.21234,0.06321 0.44478,-0.00909 0.56639,-0.17447l0.34769,-0.47277c0.0716,-0.09784 0.18144,-0.16408 0.30894,-0.18789c0.12799,-0.02424 0.25843,-0.00173 0.36926,0.06191l2.60297,1.49234zM18.29637,14.64008l-3.01392,-1.72829c-0.32954,-0.18919 -0.72185,-0.25327 -1.10582,-0.18313c-0.38446,0.07143 -0.71499,0.27188 -0.92929,0.56412l-0.14172,0.19222c-1.30443,-0.38055 -2.74274,-0.86674 -3.60386,-3.06737l0.35651,-0.27362c0.612,-0.46974 0.67624,-1.29146 0.14417,-1.83263l-2.35778,-2.39458c-0.17752,-0.18054 -0.48744,-0.19915 -0.69193,-0.04286l-1.48048,1.13603c-1.29854,0.99663 -0.69194,2.47078 -0.49235,2.95524c0.00883,0.02165 0.01962,0.04243 0.03236,0.06278c0.05149,0.08139 1.28089,2.01836 3.26647,3.8038c1.99342,1.7928 5.59237,3.44835 5.70271,3.49641c0.41094,0.23552 0.87338,0.34851 1.33091,0.34851c0.80326,0 1.59082,-0.34764 2.06061,-0.98494l1.06806,-1.45208c0.14712,-0.20132 0.08239,-0.4693 -0.14466,-0.59962z" fill="currentColor" fill-opacity="1"></path><path d="M16.5501,16.21987c-0.44184,0.60092 -1.35494,0.7715 -2.07581,0.36108c-0.0358,-0.01645 -3.61121,-1.66032 -5.49576,-3.35528c-1.76148,-1.58412 -2.93105,-3.34402 -3.09042,-3.58949c-0.38838,-0.96156 -0.31973,-1.55252 0.22754,-1.97247l1.11073,-0.85202l2.03608,2.06771c0.18096,0.18357 0.15986,0.45199 -0.04708,0.61088l-0.60171,0.46152c-0.14662,0.11256 -0.20449,0.2905 -0.14711,0.45415c1.02589,2.94312 3.02078,3.52109 4.47723,3.94321l0.21234,0.06191c0.21234,0.06321 0.44478,-0.00909 0.56639,-0.17447l0.34769,-0.47277c0.0716,-0.09784 0.18144,-0.16408 0.30894,-0.18789c0.12799,-0.02424 0.25843,-0.00173 0.36926,0.06191l2.60297,1.49234zM18.29637,14.64008l-3.01392,-1.72829c-0.32954,-0.18919 -0.72185,-0.25327 -1.10582,-0.18313c-0.38446,0.07143 -0.71499,0.27188 -0.92929,0.56412l-0.14172,0.19222c-1.30443,-0.38055 -2.74274,-0.86674 -3.60386,-3.06737l0.35651,-0.27362c0.612,-0.46974 0.67624,-1.29146 0.14417,-1.83263l-2.35778,-2.39458c-0.17752,-0.18054 -0.48744,-0.19915 -0.69193,-0.04286l-1.48048,1.13603c-1.29854,0.99663 -0.69194,2.47078 -0.49235,2.95524c0.00883,0.02165 0.01962,0.04243 0.03236,0.06278c0.05149,0.08139 1.28089,2.01836 3.26647,3.8038c1.99342,1.7928 5.59237,3.44835 5.70271,3.49641c0.41094,0.23552 0.87338,0.34851 1.33091,0.34851c0.80326,0 1.59082,-0.34764 2.06061,-0.98494l1.06806,-1.45208c0.14712,-0.20132 0.08239,-0.4693 -0.14466,-0.59962z" fill-opacity="0" fill="currentColor" stroke-dashoffset="0" stroke-linejoin="miter" stroke-linecap="butt" stroke-opacity="1" stroke="#fff" stroke-miterlimit="20" stroke-width="0.4000000059604645" clip-path="url(&quot;#ClipPath1233&quot;)"></path></g><g><title>Path 23151</title><path d="M22.05785,13.86514c0,4.46145 -3.55902,8.09117 -7.9344,8.09117h-4.62883c-0.11576,0 -0.22731,0.04379 -0.31319,0.12331l-2.0598,1.90293v-2.03719c0,-0.20186 -0.12463,-0.38183 -0.31133,-0.44848c-3.16368,-1.14119 -5.28976,-4.20816 -5.28976,-7.63173v-4.28958c0,-4.46145 3.55949,-8.09116 7.9344,-8.09116h4.6685c4.37538,0 7.9344,3.62972 7.9344,8.09116zM9.45495,0.53223c-4.88974,0 -8.86791,4.05677 -8.86791,9.04334v4.28958c0,3.71351 2.23716,7.0509 5.60108,8.41014v2.78085c0,0.18853 0.10876,0.35898 0.27772,0.43515c0.06068,0.02761 0.12509,0.04094 0.18904,0.04094c0.11342,0 0.22591,-0.04237 0.31319,-0.12331l2.70673,-2.50043h4.44866c4.88975,0 8.86791,-4.05676 8.86791,-9.04334v-4.28958c0,-4.98657 -3.97817,-9.04334 -8.86791,-9.04334z" fill="currentColor" fill-opacity="1"></path><path d="M22.05785,13.86514c0,4.46145 -3.55902,8.09117 -7.9344,8.09117h-4.62883c-0.11576,0 -0.22731,0.04379 -0.31319,0.12331l-2.0598,1.90293v-2.03719c0,-0.20186 -0.12463,-0.38183 -0.31133,-0.44848c-3.16368,-1.14119 -5.28976,-4.20816 -5.28976,-7.63173v-4.28958c0,-4.46145 3.55949,-8.09116 7.9344,-8.09116h4.6685c4.37538,0 7.9344,3.62972 7.9344,8.09116zM9.45495,0.53223c-4.88974,0 -8.86791,4.05677 -8.86791,9.04334v4.28958c0,3.71351 2.23716,7.0509 5.60108,8.41014v2.78085c0,0.18853 0.10876,0.35898 0.27772,0.43515c0.06068,0.02761 0.12509,0.04094 0.18904,0.04094c0.11342,0 0.22591,-0.04237 0.31319,-0.12331l2.70673,-2.50043h4.44866c4.88975,0 8.86791,-4.05676 8.86791,-9.04334v-4.28958c0,-4.98657 -3.97817,-9.04334 -8.86791,-9.04334z" fill-opacity="0" fill="currentColor" stroke-dashoffset="0" stroke-linejoin="miter" stroke-linecap="butt" stroke-opacity="1" stroke="#fff" stroke-miterlimit="20" stroke-width="0.4000000059604645" clip-path="url(&quot;#ClipPath1241&quot;)"></path></g><g><title>Group 13694</title><g><title>Path 23151</title><path d="M22.05785,13.86514c0,4.46145 -3.55902,8.09117 -7.9344,8.09117h-4.62883c-0.11576,0 -0.22731,0.04379 -0.31319,0.12331l-2.0598,1.90293v-2.03719c0,-0.20186 -0.12463,-0.38183 -0.31133,-0.44848c-3.16368,-1.14119 -5.28976,-4.20816 -5.28976,-7.63173v-4.28958c0,-4.46145 3.55949,-8.09116 7.9344,-8.09116h4.6685c4.37538,0 7.9344,3.62972 7.9344,8.09116zM9.45495,0.53223c-4.88974,0 -8.86791,4.05677 -8.86791,9.04334v4.28958c0,3.71351 2.23716,7.0509 5.60108,8.41014v2.78085c0,0.18853 0.10876,0.35898 0.27772,0.43515c0.06068,0.02761 0.12509,0.04094 0.18904,0.04094c0.11342,0 0.22591,-0.04237 0.31319,-0.12331l2.70673,-2.50043h4.44866c4.88975,0 8.86791,-4.05676 8.86791,-9.04334v-4.28958c0,-4.98657 -3.97817,-9.04334 -8.86791,-9.04334z" fill="currentColor" fill-opacity="1"></path><path d="M22.05785,13.86514c0,4.46145 -3.55902,8.09117 -7.9344,8.09117h-4.62883c-0.11576,0 -0.22731,0.04379 -0.31319,0.12331l-2.0598,1.90293v-2.03719c0,-0.20186 -0.12463,-0.38183 -0.31133,-0.44848c-3.16368,-1.14119 -5.28976,-4.20816 -5.28976,-7.63173v-4.28958c0,-4.46145 3.55949,-8.09116 7.9344,-8.09116h4.6685c4.37538,0 7.9344,3.62972 7.9344,8.09116zM9.45495,0.53223c-4.88974,0 -8.86791,4.05677 -8.86791,9.04334v4.28958c0,3.71351 2.23716,7.0509 5.60108,8.41014v2.78085c0,0.18853 0.10876,0.35898 0.27772,0.43515c0.06068,0.02761 0.12509,0.04094 0.18904,0.04094c0.11342,0 0.22591,-0.04237 0.31319,-0.12331l2.70673,-2.50043h4.44866c4.88975,0 8.86791,-4.05676 8.86791,-9.04334v-4.28958c0,-4.98657 -3.97817,-9.04334 -8.86791,-9.04334z" fill-opacity="0" fill="currentColor" stroke-dashoffset="0" stroke-linejoin="miter" stroke-linecap="butt" stroke-opacity="1" stroke="#fff" stroke-miterlimit="20" stroke-width="0.4000000059604645" clip-path="url(&quot;#ClipPath1251&quot;)"></path></g><g><title>Path 23152</title><path d="M16.5501,16.21987c-0.44184,0.60092 -1.35494,0.7715 -2.07581,0.36108c-0.0358,-0.01645 -3.61121,-1.66032 -5.49576,-3.35528c-1.76148,-1.58412 -2.93105,-3.34402 -3.09042,-3.58949c-0.38838,-0.96156 -0.31973,-1.55252 0.22754,-1.97247l1.11073,-0.85202l2.03608,2.06771c0.18096,0.18357 0.15986,0.45199 -0.04708,0.61088l-0.60171,0.46152c-0.14662,0.11256 -0.20449,0.2905 -0.14711,0.45415c1.02589,2.94312 3.02078,3.52109 4.47723,3.94321l0.21234,0.06191c0.21234,0.06321 0.44478,-0.00909 0.56639,-0.17447l0.34769,-0.47277c0.0716,-0.09784 0.18144,-0.16408 0.30894,-0.18789c0.12799,-0.02424 0.25843,-0.00173 0.36926,0.06191l2.60297,1.49234zM18.29637,14.64008l-3.01392,-1.72829c-0.32954,-0.18919 -0.72185,-0.25327 -1.10582,-0.18313c-0.38446,0.07143 -0.71499,0.27188 -0.92929,0.56412l-0.14172,0.19222c-1.30443,-0.38055 -2.74274,-0.86674 -3.60386,-3.06737l0.35651,-0.27362c0.612,-0.46974 0.67624,-1.29146 0.14417,-1.83263l-2.35778,-2.39458c-0.17752,-0.18054 -0.48744,-0.19915 -0.69193,-0.04286l-1.48048,1.13603c-1.29854,0.99663 -0.69194,2.47078 -0.49235,2.95524c0.00883,0.02165 0.01962,0.04243 0.03236,0.06278c0.05149,0.08139 1.28089,2.01836 3.26647,3.8038c1.99342,1.7928 5.59237,3.44835 5.70271,3.49641c0.41094,0.23552 0.87338,0.34851 1.33091,0.34851c0.80326,0 1.59082,-0.34764 2.06061,-0.98494l1.06806,-1.45208c0.14712,-0.20132 0.08239,-0.4693 -0.14466,-0.59962z" fill="currentColor" fill-opacity="1"></path><path d="M16.5501,16.21987c-0.44184,0.60092 -1.35494,0.7715 -2.07581,0.36108c-0.0358,-0.01645 -3.61121,-1.66032 -5.49576,-3.35528c-1.76148,-1.58412 -2.93105,-3.34402 -3.09042,-3.58949c-0.38838,-0.96156 -0.31973,-1.55252 0.22754,-1.97247l1.11073,-0.85202l2.03608,2.06771c0.18096,0.18357 0.15986,0.45199 -0.04708,0.61088l-0.60171,0.46152c-0.14662,0.11256 -0.20449,0.2905 -0.14711,0.45415c1.02589,2.94312 3.02078,3.52109 4.47723,3.94321l0.21234,0.06191c0.21234,0.06321 0.44478,-0.00909 0.56639,-0.17447l0.34769,-0.47277c0.0716,-0.09784 0.18144,-0.16408 0.30894,-0.18789c0.12799,-0.02424 0.25843,-0.00173 0.36926,0.06191l2.60297,1.49234zM18.29637,14.64008l-3.01392,-1.72829c-0.32954,-0.18919 -0.72185,-0.25327 -1.10582,-0.18313c-0.38446,0.07143 -0.71499,0.27188 -0.92929,0.56412l-0.14172,0.19222c-1.30443,-0.38055 -2.74274,-0.86674 -3.60386,-3.06737l0.35651,-0.27362c0.612,-0.46974 0.67624,-1.29146 0.14417,-1.83263l-2.35778,-2.39458c-0.17752,-0.18054 -0.48744,-0.19915 -0.69193,-0.04286l-1.48048,1.13603c-1.29854,0.99663 -0.69194,2.47078 -0.49235,2.95524c0.00883,0.02165 0.01962,0.04243 0.03236,0.06278c0.05149,0.08139 1.28089,2.01836 3.26647,3.8038c1.99342,1.7928 5.59237,3.44835 5.70271,3.49641c0.41094,0.23552 0.87338,0.34851 1.33091,0.34851c0.80326,0 1.59082,-0.34764 2.06061,-0.98494l1.06806,-1.45208c0.14712,-0.20132 0.08239,-0.4693 -0.14466,-0.59962z" fill-opacity="0" fill="currentColor" stroke-dashoffset="0" stroke-linejoin="miter" stroke-linecap="butt" stroke-opacity="1" stroke="#fff" stroke-miterlimit="20" stroke-width="0.4000000059604645" clip-path="url(&quot;#ClipPath1259&quot;)"></path></g><g><title>Path 23153</title><path d="M12.92763,8.35234c-0.23032,-0.06624 -0.46974,0.06754 -0.53511,0.29786c-0.06537,0.22989 0.06797,0.46931 0.29786,0.53468c0.64508,0.18357 1.15898,0.69833 1.34082,1.34384c0.05368,0.19049 0.22729,0.31562 0.41648,0.31562c0.03897,0 0.07837,-0.0052 0.11776,-0.01602c0.22989,-0.06495 0.36411,-0.30392 0.29916,-0.53425c-0.26279,-0.93255 -1.00529,-1.67677 -1.93697,-1.94173z" fill="currentColor" fill-opacity="1"></path><path d="M12.92763,8.35234c-0.23032,-0.06624 -0.46974,0.06754 -0.53511,0.29786c-0.06537,0.22989 0.06797,0.46931 0.29786,0.53468c0.64508,0.18357 1.15898,0.69833 1.34082,1.34384c0.05368,0.19049 0.22729,0.31562 0.41648,0.31562c0.03897,0 0.07837,-0.0052 0.11776,-0.01602c0.22989,-0.06495 0.36411,-0.30392 0.29916,-0.53425c-0.26279,-0.93255 -1.00529,-1.67677 -1.93697,-1.94173z" fill-opacity="0" fill="currentColor" stroke-dashoffset="0" stroke-linejoin="miter" stroke-linecap="butt" stroke-opacity="1" stroke="#fff" stroke-miterlimit="20" stroke-width="0.4000000059604645" clip-path="url(&quot;#ClipPath1267&quot;)"></path></g><g><title>Path 23154</title><path d="M16.32402,10.80228c0.03897,0 0.07837,-0.00519 0.11776,-0.01602c0.23033,-0.06494 0.3641,-0.30435 0.29916,-0.53424c-0.51087,-1.81098 -1.95212,-3.25527 -3.76181,-3.77046c-0.22989,-0.06624 -0.46931,0.0684 -0.53468,0.2983c-0.06537,0.22989 0.06797,0.46931 0.29786,0.53468c1.52265,0.43294 2.73531,1.64906 3.16521,3.17257c0.05412,0.19049 0.22729,0.31518 0.41648,0.31518z" fill="currentColor" fill-opacity="1"></path><path d="M16.32402,10.80228c0.03897,0 0.07837,-0.00519 0.11776,-0.01602c0.23033,-0.06494 0.3641,-0.30435 0.29916,-0.53424c-0.51087,-1.81098 -1.95212,-3.25527 -3.76181,-3.77046c-0.22989,-0.06624 -0.46931,0.0684 -0.53468,0.2983c-0.06537,0.22989 0.06797,0.46931 0.29786,0.53468c1.52265,0.43294 2.73531,1.64906 3.16521,3.17257c0.05412,0.19049 0.22729,0.31518 0.41648,0.31518z" fill-opacity="0" fill="currentColor" stroke-dashoffset="0" stroke-linejoin="miter" stroke-linecap="butt" stroke-opacity="1" stroke="#fff" stroke-miterlimit="20" stroke-width="0.4000000059604645" clip-path="url(&quot;#ClipPath1275&quot;)"></path></g><g><title>Path 23155</title><path d="M12.93523,3.81477c-0.23032,-0.06624 -0.46974,0.06754 -0.53511,0.29829c-0.06537,0.22989 0.06797,0.46931 0.29786,0.53468c2.57988,0.73383 4.63504,2.79375 5.36325,5.37537c0.05368,0.19049 0.22729,0.31561 0.41648,0.31561c0.03897,0 0.07835,-0.0052 0.11776,-0.01602c0.22989,-0.06494 0.3641,-0.30436 0.29916,-0.53425c-0.80915,-2.86908 -3.09249,-5.1576 -5.95941,-5.97369z" fill="currentColor" fill-opacity="1"></path><path d="M12.93523,3.81477c-0.23032,-0.06624 -0.46974,0.06754 -0.53511,0.29829c-0.06537,0.22989 0.06797,0.46931 0.29786,0.53468c2.57988,0.73383 4.63504,2.79375 5.36325,5.37537c0.05368,0.19049 0.22729,0.31561 0.41648,0.31561c0.03897,0 0.07835,-0.0052 0.11776,-0.01602c0.22989,-0.06494 0.3641,-0.30436 0.29916,-0.53425c-0.80915,-2.86908 -3.09249,-5.1576 -5.95941,-5.97369z" fill-opacity="0" fill="currentColor" stroke-dashoffset="0" stroke-linejoin="miter" stroke-linecap="butt" stroke-opacity="1" stroke="#fff" stroke-miterlimit="20" stroke-width="0.4000000059604645" clip-path="url(&quot;#ClipPath1283&quot;)"></path></g></g><g><title>viber</title><g><title>Group 13694</title><g><title>Path 23151</title><path d="M22.05785,13.86514c0,4.46145 -3.55902,8.09117 -7.9344,8.09117h-4.62883c-0.11576,0 -0.22731,0.04379 -0.31319,0.12331l-2.0598,1.90293v-2.03719c0,-0.20186 -0.12463,-0.38183 -0.31133,-0.44848c-3.16368,-1.14119 -5.28976,-4.20816 -5.28976,-7.63173v-4.28958c0,-4.46145 3.55949,-8.09116 7.9344,-8.09116h4.6685c4.37538,0 7.9344,3.62972 7.9344,8.09116zM9.45495,0.53223c-4.88974,0 -8.86791,4.05677 -8.86791,9.04334v4.28958c0,3.71351 2.23716,7.0509 5.60108,8.41014v2.78085c0,0.18853 0.10876,0.35898 0.27772,0.43515c0.06068,0.02761 0.12509,0.04094 0.18904,0.04094c0.11342,0 0.22591,-0.04237 0.31319,-0.12331l2.70673,-2.50043h4.44866c4.88975,0 8.86791,-4.05676 8.86791,-9.04334v-4.28958c0,-4.98657 -3.97817,-9.04334 -8.86791,-9.04334z" fill="currentColor" fill-opacity="1"></path><path d="M22.05785,13.86514c0,4.46145 -3.55902,8.09117 -7.9344,8.09117h-4.62883c-0.11576,0 -0.22731,0.04379 -0.31319,0.12331l-2.0598,1.90293v-2.03719c0,-0.20186 -0.12463,-0.38183 -0.31133,-0.44848c-3.16368,-1.14119 -5.28976,-4.20816 -5.28976,-7.63173v-4.28958c0,-4.46145 3.55949,-8.09116 7.9344,-8.09116h4.6685c4.37538,0 7.9344,3.62972 7.9344,8.09116zM9.45495,0.53223c-4.88974,0 -8.86791,4.05677 -8.86791,9.04334v4.28958c0,3.71351 2.23716,7.0509 5.60108,8.41014v2.78085c0,0.18853 0.10876,0.35898 0.27772,0.43515c0.06068,0.02761 0.12509,0.04094 0.18904,0.04094c0.11342,0 0.22591,-0.04237 0.31319,-0.12331l2.70673,-2.50043h4.44866c4.88975,0 8.86791,-4.05676 8.86791,-9.04334v-4.28958c0,-4.98657 -3.97817,-9.04334 -8.86791,-9.04334z" fill-opacity="0" fill="currentColor" stroke-dashoffset="0" stroke-linejoin="miter" stroke-linecap="butt" stroke-opacity="1" stroke="#fff" stroke-miterlimit="20" stroke-width="0.4000000059604645" clip-path="url(&quot;#ClipPath1295&quot;)"></path></g><g><title>Path 23152</title><path d="M16.5501,16.21987c-0.44184,0.60092 -1.35494,0.7715 -2.07581,0.36108c-0.0358,-0.01645 -3.61121,-1.66032 -5.49576,-3.35528c-1.76148,-1.58412 -2.93105,-3.34402 -3.09042,-3.58949c-0.38838,-0.96156 -0.31973,-1.55252 0.22754,-1.97247l1.11073,-0.85202l2.03608,2.06771c0.18096,0.18357 0.15986,0.45199 -0.04708,0.61088l-0.60171,0.46152c-0.14662,0.11256 -0.20449,0.2905 -0.14711,0.45415c1.02589,2.94312 3.02078,3.52109 4.47723,3.94321l0.21234,0.06191c0.21234,0.06321 0.44478,-0.00909 0.56639,-0.17447l0.34769,-0.47277c0.0716,-0.09784 0.18144,-0.16408 0.30894,-0.18789c0.12799,-0.02424 0.25843,-0.00173 0.36926,0.06191l2.60297,1.49234zM18.29637,14.64008l-3.01392,-1.72829c-0.32954,-0.18919 -0.72185,-0.25327 -1.10582,-0.18313c-0.38446,0.07143 -0.71499,0.27188 -0.92929,0.56412l-0.14172,0.19222c-1.30443,-0.38055 -2.74274,-0.86674 -3.60386,-3.06737l0.35651,-0.27362c0.612,-0.46974 0.67624,-1.29146 0.14417,-1.83263l-2.35778,-2.39458c-0.17752,-0.18054 -0.48744,-0.19915 -0.69193,-0.04286l-1.48048,1.13603c-1.29854,0.99663 -0.69194,2.47078 -0.49235,2.95524c0.00883,0.02165 0.01962,0.04243 0.03236,0.06278c0.05149,0.08139 1.28089,2.01836 3.26647,3.8038c1.99342,1.7928 5.59237,3.44835 5.70271,3.49641c0.41094,0.23552 0.87338,0.34851 1.33091,0.34851c0.80326,0 1.59082,-0.34764 2.06061,-0.98494l1.06806,-1.45208c0.14712,-0.20132 0.08239,-0.4693 -0.14466,-0.59962z" fill="currentColor" fill-opacity="1"></path><path d="M16.5501,16.21987c-0.44184,0.60092 -1.35494,0.7715 -2.07581,0.36108c-0.0358,-0.01645 -3.61121,-1.66032 -5.49576,-3.35528c-1.76148,-1.58412 -2.93105,-3.34402 -3.09042,-3.58949c-0.38838,-0.96156 -0.31973,-1.55252 0.22754,-1.97247l1.11073,-0.85202l2.03608,2.06771c0.18096,0.18357 0.15986,0.45199 -0.04708,0.61088l-0.60171,0.46152c-0.14662,0.11256 -0.20449,0.2905 -0.14711,0.45415c1.02589,2.94312 3.02078,3.52109 4.47723,3.94321l0.21234,0.06191c0.21234,0.06321 0.44478,-0.00909 0.56639,-0.17447l0.34769,-0.47277c0.0716,-0.09784 0.18144,-0.16408 0.30894,-0.18789c0.12799,-0.02424 0.25843,-0.00173 0.36926,0.06191l2.60297,1.49234zM18.29637,14.64008l-3.01392,-1.72829c-0.32954,-0.18919 -0.72185,-0.25327 -1.10582,-0.18313c-0.38446,0.07143 -0.71499,0.27188 -0.92929,0.56412l-0.14172,0.19222c-1.30443,-0.38055 -2.74274,-0.86674 -3.60386,-3.06737l0.35651,-0.27362c0.612,-0.46974 0.67624,-1.29146 0.14417,-1.83263l-2.35778,-2.39458c-0.17752,-0.18054 -0.48744,-0.19915 -0.69193,-0.04286l-1.48048,1.13603c-1.29854,0.99663 -0.69194,2.47078 -0.49235,2.95524c0.00883,0.02165 0.01962,0.04243 0.03236,0.06278c0.05149,0.08139 1.28089,2.01836 3.26647,3.8038c1.99342,1.7928 5.59237,3.44835 5.70271,3.49641c0.41094,0.23552 0.87338,0.34851 1.33091,0.34851c0.80326,0 1.59082,-0.34764 2.06061,-0.98494l1.06806,-1.45208c0.14712,-0.20132 0.08239,-0.4693 -0.14466,-0.59962z" fill-opacity="0" fill="currentColor" stroke-dashoffset="0" stroke-linejoin="miter" stroke-linecap="butt" stroke-opacity="1" stroke="#fff" stroke-miterlimit="20" stroke-width="0.4000000059604645" clip-path="url(&quot;#ClipPath1303&quot;)"></path></g><g><title>Path 23153</title><path d="M12.92763,8.35234c-0.23032,-0.06624 -0.46974,0.06754 -0.53511,0.29786c-0.06537,0.22989 0.06797,0.46931 0.29786,0.53468c0.64508,0.18357 1.15898,0.69833 1.34082,1.34384c0.05368,0.19049 0.22729,0.31562 0.41648,0.31562c0.03897,0 0.07837,-0.0052 0.11776,-0.01602c0.22989,-0.06495 0.36411,-0.30392 0.29916,-0.53425c-0.26279,-0.93255 -1.00529,-1.67677 -1.93697,-1.94173z" fill="currentColor" fill-opacity="1"></path><path d="M12.92763,8.35234c-0.23032,-0.06624 -0.46974,0.06754 -0.53511,0.29786c-0.06537,0.22989 0.06797,0.46931 0.29786,0.53468c0.64508,0.18357 1.15898,0.69833 1.34082,1.34384c0.05368,0.19049 0.22729,0.31562 0.41648,0.31562c0.03897,0 0.07837,-0.0052 0.11776,-0.01602c0.22989,-0.06495 0.36411,-0.30392 0.29916,-0.53425c-0.26279,-0.93255 -1.00529,-1.67677 -1.93697,-1.94173z" fill-opacity="0" fill="currentColor" stroke-dashoffset="0" stroke-linejoin="miter" stroke-linecap="butt" stroke-opacity="1" stroke="#fff" stroke-miterlimit="20" stroke-width="0.4000000059604645" clip-path="url(&quot;#ClipPath1311&quot;)"></path></g><g><title>Path 23154</title><path d="M16.32402,10.80228c0.03897,0 0.07837,-0.00519 0.11776,-0.01602c0.23033,-0.06494 0.3641,-0.30435 0.29916,-0.53424c-0.51087,-1.81098 -1.95212,-3.25527 -3.76181,-3.77046c-0.22989,-0.06624 -0.46931,0.0684 -0.53468,0.2983c-0.06537,0.22989 0.06797,0.46931 0.29786,0.53468c1.52265,0.43294 2.73531,1.64906 3.16521,3.17257c0.05412,0.19049 0.22729,0.31518 0.41648,0.31518z" fill="currentColor" fill-opacity="1"></path><path d="M16.32402,10.80228c0.03897,0 0.07837,-0.00519 0.11776,-0.01602c0.23033,-0.06494 0.3641,-0.30435 0.29916,-0.53424c-0.51087,-1.81098 -1.95212,-3.25527 -3.76181,-3.77046c-0.22989,-0.06624 -0.46931,0.0684 -0.53468,0.2983c-0.06537,0.22989 0.06797,0.46931 0.29786,0.53468c1.52265,0.43294 2.73531,1.64906 3.16521,3.17257c0.05412,0.19049 0.22729,0.31518 0.41648,0.31518z" fill-opacity="0" fill="currentColor" stroke-dashoffset="0" stroke-linejoin="miter" stroke-linecap="butt" stroke-opacity="1" stroke="#fff" stroke-miterlimit="20" stroke-width="0.4000000059604645" clip-path="url(&quot;#ClipPath1319&quot;)"></path></g><g><title>Path 23155</title><path d="M12.93523,3.81477c-0.23032,-0.06624 -0.46974,0.06754 -0.53511,0.29829c-0.06537,0.22989 0.06797,0.46931 0.29786,0.53468c2.57988,0.73383 4.63504,2.79375 5.36325,5.37537c0.05368,0.19049 0.22729,0.31561 0.41648,0.31561c0.03897,0 0.07835,-0.0052 0.11776,-0.01602c0.22989,-0.06494 0.3641,-0.30436 0.29916,-0.53425c-0.80915,-2.86908 -3.09249,-5.1576 -5.95941,-5.97369z" fill="currentColor" fill-opacity="1"></path><path d="M12.93523,3.81477c-0.23032,-0.06624 -0.46974,0.06754 -0.53511,0.29829c-0.06537,0.22989 0.06797,0.46931 0.29786,0.53468c2.57988,0.73383 4.63504,2.79375 5.36325,5.37537c0.05368,0.19049 0.22729,0.31561 0.41648,0.31561c0.03897,0 0.07835,-0.0052 0.11776,-0.01602c0.22989,-0.06494 0.3641,-0.30436 0.29916,-0.53425c-0.80915,-2.86908 -3.09249,-5.1576 -5.95941,-5.97369z" fill-opacity="0" fill="currentColor" stroke-dashoffset="0" stroke-linejoin="miter" stroke-linecap="butt" stroke-opacity="1" stroke="#fff" stroke-miterlimit="20" stroke-width="0.4000000059604645" clip-path="url(&quot;#ClipPath1327&quot;)"></path></g></g></g></g></svg>