<svg width="18" height="18" xmlns="http://www.w3.org/2000/svg"><g fill="currentColor"><path d="M14.105 13.739a7.296 7.296 0 01-5.194 2.15c-1.2 0-2.392-.296-3.447-.858a.778.778 0 00-.621-.048l-3.645 1.276 1.276-3.645a.778.778 0 00-.049-.621 7.363 7.363 0 01-.858-3.448c0-1.962.764-3.806 2.15-5.193A7.297 7.297 0 018.912 1.2c1.962 0 3.807.764 5.194 2.152a7.296 7.296 0 012.151 5.193 7.296 7.296 0 01-2.151 5.194zm.714-11.102A8.3 8.3 0 008.911.19c-1.104 0-2.18.214-3.198.635a8.313 8.313 0 00-2.71 1.812A8.3 8.3 0 00.556 8.545c0 1.331.321 2.654.93 3.832L.082 16.389a.768.768 0 00.183.803.768.768 0 00.802.183L5.08 15.97a8.38 8.38 0 003.832.93 8.3 8.3 0 005.908-2.448 8.3 8.3 0 002.448-5.908 8.3 8.3 0 00-2.448-5.908z"/><path d="M11.529 12.01c-.149.148-.604.2-1.4-.141-.842-.36-1.78-1.035-2.644-1.898-.863-.863-1.537-1.802-1.897-2.643-.342-.796-.29-1.252-.142-1.4l.89-.889 1.097 1.098-.526.526a.771.771 0 00-.143.898 7.129 7.129 0 003.131 3.131c.3.153.66.096.898-.142l.526-.527 1.098 1.098zm.487-2.719a.987.987 0 00-1.394 0l-.42.42a6.12 6.12 0 01-2.457-2.457l.42-.42a.987.987 0 000-1.394L7.032 4.307a.987.987 0 00-1.394 0l-.906.906c-.52.52-.545 1.412-.073 2.513.41.957 1.16 2.008 2.112 2.96.952.952 2.003 1.702 2.96 2.112.523.224.998.336 1.41.336.454 0 .83-.137 1.102-.41l.906-.906a.98.98 0 00.29-.697.979.979 0 00-.29-.697z"/></g></svg>