<?xml version="1.0" encoding="UTF-8"?>
<svg id="SVGDoc" width="25" height="25" xmlns="http://www.w3.org/2000/svg" version="1.1" xmlns:xlink="http://www.w3.org/1999/xlink" xmlns:avocode="https://avocode.com/" viewBox="0 0 25 25"><defs></defs><desc>Generated with Avocode.</desc><g><g><title>Path 23157</title><path d="M17.01684,16.63605c-0.20938,0.20938 -0.85335,0.28278 -1.97906,-0.19955c-1.18871,-0.50945 -2.51546,-1.4622 -3.73575,-2.68249c-1.22029,-1.22028 -2.17285,-2.54684 -2.6823,-3.73555c-0.48251,-1.12572 -0.40912,-1.76987 -0.19974,-1.97926l1.25635,-1.25633l1.55174,1.55193l-0.74374,0.74392c-0.33627,0.33628 -0.41747,0.84628 -0.20177,1.26915c0.97783,1.91739 2.50821,3.44777 4.4256,4.4256c0.42305,0.21571 0.93306,0.1347 1.26935,-0.20177l0.74373,-0.74373l1.55193,1.55193zM17.7065,12.79328c-0.54326,-0.54326 -1.42726,-0.54326 -1.97052,0l-0.59416,0.59417c-1.4754,-0.80393 -2.66931,-1.99783 -3.47342,-3.47322l0.59418,-0.59417c0.54344,-0.54326 0.54344,-1.42726 0,-1.97052l-1.60118,-1.60117c-0.54326,-0.54327 -1.42726,-0.54327 -1.97052,0l-1.28086,1.28085c-0.7337,0.7337 -0.7703,1.99505 -0.10311,3.55181c0.5793,1.35165 1.63943,2.83725 2.98514,4.18295c1.3457,1.3457 2.83131,2.40584 4.18295,2.98514c0.73964,0.31696 1.4124,0.47507 1.99376,0.47507c0.64227,0 1.17291,-0.19304 1.55806,-0.57819l1.28085,-1.28104v0.00019c0.26328,-0.26328 0.40819,-0.61312 0.40819,-0.98527c0,-0.37232 -0.14491,-0.72218 -0.40819,-0.98526z" fill="currentColor" fill-opacity="1"></path></g><g><title>Path 23156</title><path d="M20.65821,19.07904c-1.96068,1.96086 -4.56773,3.04051 -7.34052,3.04051c-1.69629,0 -3.38144,-0.41952 -4.87336,-1.2136c-0.27051,-0.1438 -0.59027,-0.16851 -0.87732,-0.068l-5.15205,1.80312l1.80331,-5.15205c0.10051,-0.28742 0.07562,-0.60717 -0.06819,-0.8775c-0.7939,-1.49155 -1.2136,-3.17669 -1.2136,-4.87317c0,-2.77278 1.07983,-5.37983 3.04051,-7.34051c1.96049,-1.96049 4.56718,-3.04032 7.33977,-3.04069h0.00093c2.77297,0 5.37984,1.07983 7.34052,3.04069c1.96086,1.96068 3.0407,4.56754 3.0407,7.34051c0,2.77296 -1.07983,5.38002 -3.0407,7.34069zM21.66819,3.38787c-2.23064,-2.23063 -5.19571,-3.45891 -8.35049,-3.45891c-0.00019,0 -0.00093,0 -0.00111,0c-1.56029,0.00019 -3.08083,0.30229 -4.51905,0.89812c-1.43841,0.59584 -2.72708,1.45736 -3.8305,2.56079c-2.23045,2.23045 -3.45873,5.19608 -3.45873,8.35048c0,1.88116 0.45389,3.75061 1.31393,5.41625l-1.98502,5.67078c-0.1399,0.40001 -0.04087,0.83477 0.259,1.13445c0.20976,0.20995 0.48585,0.32142 0.76974,0.32142c0.12169,0 0.24469,-0.02044 0.36471,-0.06243l5.67079,-1.98483c1.66564,0.86004 3.53509,1.31393 5.41625,1.31393c3.1544,0 6.11985,-1.22846 8.35049,-3.45891c2.23045,-2.23045 3.45892,-5.19608 3.45892,-8.35048c0,-3.15458 -1.22828,-6.12022 -3.45892,-8.35066z" fill="currentColor" fill-opacity="1"></path></g><g><title>whatsapp</title><g><title>Path 23156</title><path d="M20.65821,19.07904c-1.96068,1.96086 -4.56773,3.04051 -7.34052,3.04051c-1.69629,0 -3.38144,-0.41952 -4.87336,-1.2136c-0.27051,-0.1438 -0.59027,-0.16851 -0.87732,-0.068l-5.15205,1.80312l1.80331,-5.15205c0.10051,-0.28742 0.07562,-0.60717 -0.06819,-0.8775c-0.7939,-1.49155 -1.2136,-3.17669 -1.2136,-4.87317c0,-2.77278 1.07983,-5.37983 3.04051,-7.34051c1.96049,-1.96049 4.56718,-3.04032 7.33977,-3.04069h0.00093c2.77297,0 5.37984,1.07983 7.34052,3.04069c1.96086,1.96068 3.0407,4.56754 3.0407,7.34051c0,2.77296 -1.07983,5.38002 -3.0407,7.34069zM21.66819,3.38787c-2.23064,-2.23063 -5.19571,-3.45891 -8.35049,-3.45891c-0.00019,0 -0.00093,0 -0.00111,0c-1.56029,0.00019 -3.08083,0.30229 -4.51905,0.89812c-1.43841,0.59584 -2.72708,1.45736 -3.8305,2.56079c-2.23045,2.23045 -3.45873,5.19608 -3.45873,8.35048c0,1.88116 0.45389,3.75061 1.31393,5.41625l-1.98502,5.67078c-0.1399,0.40001 -0.04087,0.83477 0.259,1.13445c0.20976,0.20995 0.48585,0.32142 0.76974,0.32142c0.12169,0 0.24469,-0.02044 0.36471,-0.06243l5.67079,-1.98483c1.66564,0.86004 3.53509,1.31393 5.41625,1.31393c3.1544,0 6.11985,-1.22846 8.35049,-3.45891c2.23045,-2.23045 3.45892,-5.19608 3.45892,-8.35048c0,-3.15458 -1.22828,-6.12022 -3.45892,-8.35066z" fill="currentColor" fill-opacity="1"></path></g><g><title>Path 23157</title><path d="M17.01684,16.63605c-0.20938,0.20938 -0.85335,0.28278 -1.97906,-0.19955c-1.18871,-0.50945 -2.51546,-1.4622 -3.73575,-2.68249c-1.22029,-1.22028 -2.17285,-2.54684 -2.6823,-3.73555c-0.48251,-1.12572 -0.40912,-1.76987 -0.19974,-1.97926l1.25635,-1.25633l1.55174,1.55193l-0.74374,0.74392c-0.33627,0.33628 -0.41747,0.84628 -0.20177,1.26915c0.97783,1.91739 2.50821,3.44777 4.4256,4.4256c0.42305,0.21571 0.93306,0.1347 1.26935,-0.20177l0.74373,-0.74373l1.55193,1.55193zM17.7065,12.79328c-0.54326,-0.54326 -1.42726,-0.54326 -1.97052,0l-0.59416,0.59417c-1.4754,-0.80393 -2.66931,-1.99783 -3.47342,-3.47322l0.59418,-0.59417c0.54344,-0.54326 0.54344,-1.42726 0,-1.97052l-1.60118,-1.60117c-0.54326,-0.54327 -1.42726,-0.54327 -1.97052,0l-1.28086,1.28085c-0.7337,0.7337 -0.7703,1.99505 -0.10311,3.55181c0.5793,1.35165 1.63943,2.83725 2.98514,4.18295c1.3457,1.3457 2.83131,2.40584 4.18295,2.98514c0.73964,0.31696 1.4124,0.47507 1.99376,0.47507c0.64227,0 1.17291,-0.19304 1.55806,-0.57819l1.28085,-1.28104v0.00019c0.26328,-0.26328 0.40819,-0.61312 0.40819,-0.98527c0,-0.37232 -0.14491,-0.72218 -0.40819,-0.98526z" fill="currentColor" fill-opacity="1"></path></g></g></g></svg>