<?xml version="1.0" encoding="utf-8"?>
<!-- Generator: Adobe Illustrator 23.0.1, SVG Export Plug-In . SVG Version: 6.00 Build 0)  -->
<!DOCTYPE svg PUBLIC "-//W3C//DTD SVG 1.1//EN" "http://www.w3.org/Graphics/SVG/1.1/DTD/svg11.dtd" [
	<!ENTITY ns_extend "http://ns.adobe.com/Extensibility/1.0/">
	<!ENTITY ns_ai "http://ns.adobe.com/AdobeIllustrator/10.0/">
	<!ENTITY ns_graphs "http://ns.adobe.com/Graphs/1.0/">
	<!ENTITY ns_vars "http://ns.adobe.com/Variables/1.0/">
	<!ENTITY ns_imrep "http://ns.adobe.com/ImageReplacement/1.0/">
	<!ENTITY ns_sfw "http://ns.adobe.com/SaveForWeb/1.0/">
	<!ENTITY ns_custom "http://ns.adobe.com/GenericCustomNamespace/1.0/">
	<!ENTITY ns_adobe_xpath "http://ns.adobe.com/XPath/1.0/">
]>
<svg version="1.1" id="Layer_1" xmlns:x="&ns_extend;" xmlns:i="&ns_ai;" xmlns:graph="&ns_graphs;"
	 xmlns="http://www.w3.org/2000/svg" xmlns:xlink="http://www.w3.org/1999/xlink" x="0px" y="0px" viewBox="0 0 1660.6 3064.1"
	 style="enable-background:new 0 0 1660.6 3064.1;" xml:space="preserve">
<style type="text/css">
	.st0{fill:none;stroke:#FFFFFF;stroke-width:2;stroke-linecap:round;stroke-linejoin:round;}
</style>
<metadata>
	<sfw  xmlns="&ns_sfw;">
		<slices></slices>
		<sliceSourceBounds  bottomLeftOrigin="true" height="3064.1" width="1660.6" x="669.7" y="468"></sliceSourceBounds>
	</sfw>
</metadata>
<line class="st0" x1="286.6" y1="294.3" x2="283.1" y2="290.8"/>
<line class="st0" x1="286.6" y1="2769.8" x2="286.6" y2="294.3"/>
<line class="st0" x1="283.1" y1="2773.2" x2="286.6" y2="2769.8"/>
<line class="st0" x1="1377.5" y1="290.9" x2="1374" y2="294.3"/>
<line class="st0" x1="1374" y1="2769.8" x2="1374" y2="294.3"/>
<line class="st0" x1="1377.5" y1="2773.2" x2="1374" y2="2769.8"/>
<line class="st0" x1="1374" y1="294.3" x2="286.6" y2="294.3"/>
<line class="st0" x1="1374" y1="2769.8" x2="286.6" y2="2769.8"/>
<line class="st0" x1="1" y1="3063.1" x2="1659.6" y2="3063.1"/>
<line class="st0" x1="2.1" y1="2" x2="78.2" y2="78"/>
<line class="st0" x1="1.9" y1="1.8" x2="2.1" y2="2"/>
<line class="st0" x1="1.7" y1="1.6" x2="1.9" y2="1.8"/>
<line class="st0" x1="1.4" y1="1.4" x2="1.7" y2="1.6"/>
<line class="st0" x1="1.3" y1="1.2" x2="1.4" y2="1.4"/>
<line class="st0" x1="1.1" y1="1.1" x2="1.3" y2="1.2"/>
<line class="st0" x1="1" y1="1" x2="1.1" y2="1.1"/>
<line class="st0" x1="1" y1="1" x2="1" y2="1"/>
<line class="st0" x1="1.7" y1="3062.5" x2="1.9" y2="3062.3"/>
<line class="st0" x1="1.4" y1="3062.7" x2="1.7" y2="3062.5"/>
<line class="st0" x1="1.3" y1="3062.9" x2="1.4" y2="3062.7"/>
<line class="st0" x1="1.1" y1="3063" x2="1.3" y2="3062.9"/>
<line class="st0" x1="1" y1="3063.1" x2="1.1" y2="3063"/>
<line class="st0" x1="1" y1="3063.1" x2="1" y2="1"/>
<line class="st0" x1="1" y1="3063.1" x2="1" y2="3063.1"/>
<line class="st0" x1="2.1" y1="3062" x2="78.2" y2="2986"/>
<line class="st0" x1="2.1" y1="3062" x2="1.9" y2="3062.3"/>
<line class="st0" x1="1584.1" y1="2955" x2="1584.1" y2="2955"/>
<line class="st0" x1="1584.1" y1="2950.3" x2="1584.1" y2="2955"/>
<line class="st0" x1="1584.7" y1="2956.6" x2="1584.7" y2="2956.7"/>
<line class="st0" x1="1584.1" y1="2955" x2="1584.7" y2="2956.6"/>
<line class="st0" x1="1584.1" y1="2950.2" x2="1584.1" y2="2950.3"/>
<line class="st0" x1="1584.1" y1="2941.1" x2="1584.1" y2="2950.2"/>
<line class="st0" x1="1584.5" y1="113.4" x2="1584.5" y2="110.7"/>
<line class="st0" x1="1584.6" y1="109.3" x2="1584.8" y2="108.7"/>
<line class="st0" x1="1584.5" y1="110.7" x2="1584.6" y2="109.3"/>
<line class="st0" x1="1587.3" y1="177.5" x2="1586" y2="177.4"/>
<line class="st0" x1="1585.1" y1="177.3" x2="1584.8" y2="177"/>
<line class="st0" x1="1586" y1="177.4" x2="1585.1" y2="177.3"/>
<line class="st0" x1="1584.5" y1="273.1" x2="1584.5" y2="271.3"/>
<line class="st0" x1="1584.8" y1="269.9" x2="1584.6" y2="270.3"/>
<line class="st0" x1="1584.5" y1="271.3" x2="1584.6" y2="270.4"/>
<line class="st0" x1="1587.8" y1="338.9" x2="1586" y2="338.9"/>
<line class="st0" x1="1585.1" y1="338.7" x2="1584.8" y2="338.3"/>
<line class="st0" x1="1586" y1="338.9" x2="1585.1" y2="338.7"/>
<line class="st0" x1="1584.6" y1="176.6" x2="1584.5" y2="175.7"/>
<line class="st0" x1="1584.8" y1="177" x2="1584.6" y2="176.6"/>
<line class="st0" x1="1584.5" y1="175.7" x2="1584.5" y2="173.9"/>
<line class="st0" x1="1584.6" y1="337.6" x2="1584.5" y2="336.2"/>
<line class="st0" x1="1584.8" y1="338.3" x2="1584.6" y2="337.7"/>
<line class="st0" x1="1584.5" y1="336.2" x2="1584.5" y2="333.6"/>
<line class="st0" x1="1658.5" y1="2" x2="1582.5" y2="78"/>
<line class="st0" x1="1658.7" y1="1.8" x2="1658.5" y2="2"/>
<line class="st0" x1="1659" y1="1.6" x2="1658.7" y2="1.8"/>
<line class="st0" x1="1659.2" y1="1.4" x2="1659" y2="1.6"/>
<line class="st0" x1="1659.3" y1="1.2" x2="1659.2" y2="1.4"/>
<line class="st0" x1="1659.5" y1="1.1" x2="1659.3" y2="1.2"/>
<line class="st0" x1="1659.6" y1="1" x2="1659.5" y2="1.1"/>
<line class="st0" x1="1659.6" y1="1" x2="1659.6" y2="1"/>
<line class="st0" x1="1659" y1="3062.5" x2="1658.7" y2="3062.3"/>
<line class="st0" x1="1659.2" y1="3062.7" x2="1659" y2="3062.5"/>
<line class="st0" x1="1659.3" y1="3062.9" x2="1659.2" y2="3062.7"/>
<line class="st0" x1="1659.5" y1="3063" x2="1659.3" y2="3062.9"/>
<line class="st0" x1="1659.6" y1="3063.1" x2="1659.5" y2="3063"/>
<line class="st0" x1="1659.6" y1="3063.1" x2="1659.6" y2="1"/>
<line class="st0" x1="1659.6" y1="3063.1" x2="1659.6" y2="3063.1"/>
<line class="st0" x1="1658.5" y1="3062" x2="1582.5" y2="2986"/>
<line class="st0" x1="1658.5" y1="3062" x2="1658.7" y2="3062.3"/>
<line class="st0" x1="1" y1="1" x2="1659.6" y2="1"/>
<line class="st0" x1="283.1" y1="2781.3" x2="283.1" y2="282.8"/>
<line class="st0" x1="1377.5" y1="282.8" x2="283.1" y2="282.8"/>
<line class="st0" x1="1377.5" y1="2781.3" x2="283.1" y2="2781.3"/>
<line class="st0" x1="1377.5" y1="2781.3" x2="1377.5" y2="282.8"/>
<line class="st0" x1="272.5" y1="2792.5" x2="272.5" y2="271.6"/>
<line class="st0" x1="1388" y1="271.6" x2="272.5" y2="271.6"/>
<line class="st0" x1="1388" y1="2792.5" x2="272.5" y2="2792.5"/>
<line class="st0" x1="1388" y1="2792.5" x2="1388" y2="271.6"/>
<line class="st0" x1="223.4" y1="2845.1" x2="223.4" y2="219"/>
<line class="st0" x1="1437.2" y1="219" x2="223.4" y2="219"/>
<line class="st0" x1="1437.2" y1="2845.1" x2="223.4" y2="2845.1"/>
<line class="st0" x1="1437.2" y1="2845.1" x2="1437.2" y2="219"/>
<line class="st0" x1="1577" y1="78.7" x2="1575.2" y2="80.5"/>
<line class="st0" x1="1578.7" y1="77.1" x2="1577" y2="78.7"/>
<line class="st0" x1="1580.2" y1="75.8" x2="1578.7" y2="77.1"/>
<line class="st0" x1="1581.4" y1="74.8" x2="1580.2" y2="75.8"/>
<line class="st0" x1="1582.1" y1="74.2" x2="1581.4" y2="74.8"/>
<line class="st0" x1="1582.5" y1="74" x2="1582.1" y2="74.2"/>
<line class="st0" x1="1573.3" y1="82.4" x2="1575.2" y2="80.5"/>
<line class="st0" x1="1440.2" y1="215.4" x2="1573.3" y2="82.4"/>
<line class="st0" x1="1439.7" y1="215.9" x2="1440.2" y2="215.4"/>
<line class="st0" x1="1439.2" y1="216.5" x2="1439.7" y2="215.9"/>
<line class="st0" x1="1438.8" y1="217" x2="1439.2" y2="216.5"/>
<line class="st0" x1="1438.3" y1="217.4" x2="1438.8" y2="217"/>
<line class="st0" x1="1438" y1="217.8" x2="1438.3" y2="217.4"/>
<line class="st0" x1="1437.7" y1="218.1" x2="1438" y2="217.8"/>
<line class="st0" x1="1437.5" y1="218.4" x2="1437.7" y2="218.1"/>
<line class="st0" x1="1437.4" y1="218.5" x2="1437.5" y2="218.4"/>
<line class="st0" x1="1437.2" y1="219" x2="1437.4" y2="218.5"/>
<line class="st0" x1="1437.7" y1="2846" x2="1437.5" y2="2845.7"/>
<line class="st0" x1="1438" y1="2846.3" x2="1437.7" y2="2846"/>
<line class="st0" x1="1438.3" y1="2846.7" x2="1438" y2="2846.3"/>
<line class="st0" x1="1438.8" y1="2847.1" x2="1438.3" y2="2846.7"/>
<line class="st0" x1="1439.2" y1="2847.6" x2="1438.8" y2="2847.1"/>
<line class="st0" x1="1439.7" y1="2848.1" x2="1439.2" y2="2847.6"/>
<line class="st0" x1="1440.2" y1="2848.6" x2="1439.7" y2="2848.1"/>
<line class="st0" x1="1437.4" y1="2845.6" x2="1437.5" y2="2845.7"/>
<line class="st0" x1="1437.2" y1="2845" x2="1437.4" y2="2845.6"/>
<line class="st0" x1="1577" y1="2985.3" x2="1575.2" y2="2983.5"/>
<line class="st0" x1="1578.7" y1="2987" x2="1577" y2="2985.3"/>
<line class="st0" x1="1580.2" y1="2988.3" x2="1578.7" y2="2987"/>
<line class="st0" x1="1581.4" y1="2989.3" x2="1580.2" y2="2988.3"/>
<line class="st0" x1="1582.1" y1="2989.9" x2="1581.4" y2="2989.3"/>
<line class="st0" x1="1582.5" y1="178.7" x2="1582.5" y2="74"/>
<line class="st0" x1="1582.5" y1="2990" x2="1582.5" y2="179.1"/>
<line class="st0" x1="1582.5" y1="2990" x2="1582.1" y2="2989.9"/>
<line class="st0" x1="1573.3" y1="2981.7" x2="1440.2" y2="2848.6"/>
<line class="st0" x1="1573.3" y1="2981.7" x2="1575.2" y2="2983.5"/>
<line class="st0" x1="1374" y1="2769.3" x2="286.6" y2="2769.3"/>
<line class="st0" x1="78.2" y1="2990" x2="1582.5" y2="2990"/>
<line class="st0" x1="220.9" y1="215.9" x2="220.4" y2="215.4"/>
<line class="st0" x1="221.4" y1="216.5" x2="220.9" y2="215.9"/>
<line class="st0" x1="221.9" y1="217" x2="221.4" y2="216.5"/>
<line class="st0" x1="222.3" y1="217.4" x2="221.9" y2="217"/>
<line class="st0" x1="222.6" y1="217.8" x2="222.3" y2="217.4"/>
<line class="st0" x1="222.9" y1="218.1" x2="222.6" y2="217.8"/>
<line class="st0" x1="223.1" y1="218.3" x2="222.9" y2="218.1"/>
<line class="st0" x1="223.2" y1="218.5" x2="223.1" y2="218.3"/>
<line class="st0" x1="223.4" y1="219" x2="223.2" y2="218.5"/>
<line class="st0" x1="222.9" y1="2846" x2="223.1" y2="2845.7"/>
<line class="st0" x1="222.6" y1="2846.3" x2="222.9" y2="2846"/>
<line class="st0" x1="222.3" y1="2846.7" x2="222.6" y2="2846.3"/>
<line class="st0" x1="221.9" y1="2847.1" x2="222.3" y2="2846.7"/>
<line class="st0" x1="221.4" y1="2847.6" x2="221.9" y2="2847.1"/>
<line class="st0" x1="220.9" y1="2848.1" x2="221.4" y2="2847.6"/>
<line class="st0" x1="220.4" y1="2848.6" x2="220.9" y2="2848.1"/>
<line class="st0" x1="223.2" y1="2845.6" x2="223.1" y2="2845.7"/>
<line class="st0" x1="223.4" y1="2845.1" x2="223.2" y2="2845.6"/>
<line class="st0" x1="87.3" y1="82.4" x2="220.4" y2="215.4"/>
<line class="st0" x1="85.5" y1="80.5" x2="87.3" y2="82.4"/>
<line class="st0" x1="83.6" y1="78.7" x2="85.5" y2="80.5"/>
<line class="st0" x1="81.9" y1="77.1" x2="83.6" y2="78.7"/>
<line class="st0" x1="80.4" y1="75.8" x2="81.9" y2="77.1"/>
<line class="st0" x1="79.3" y1="74.8" x2="80.4" y2="75.8"/>
<line class="st0" x1="78.5" y1="74.2" x2="79.3" y2="74.8"/>
<line class="st0" x1="78.5" y1="74.2" x2="78.2" y2="74"/>
<line class="st0" x1="83.6" y1="2985.3" x2="85.5" y2="2983.5"/>
<line class="st0" x1="81.9" y1="2987" x2="83.6" y2="2985.3"/>
<line class="st0" x1="80.4" y1="2988.3" x2="81.9" y2="2987"/>
<line class="st0" x1="79.2" y1="2989.3" x2="80.4" y2="2988.3"/>
<line class="st0" x1="78.5" y1="2989.9" x2="79.2" y2="2989.3"/>
<line class="st0" x1="78.2" y1="2990" x2="78.2" y2="74"/>
<line class="st0" x1="78.2" y1="2990" x2="78.5" y2="2989.9"/>
<line class="st0" x1="87.3" y1="2981.7" x2="220.4" y2="2848.6"/>
<line class="st0" x1="87.3" y1="2981.7" x2="85.5" y2="2983.5"/>
<line class="st0" x1="1374" y1="294.8" x2="286.6" y2="294.8"/>
<line class="st0" x1="78.2" y1="74" x2="1582.5" y2="74"/>
<line class="st0" x1="1618" y1="265.6" x2="1618" y2="265.5"/>
<line class="st0" x1="1618" y1="265.6" x2="1617.9" y2="266.1"/>
<line class="st0" x1="1617.9" y1="266.2" x2="1617.9" y2="266.1"/>
<line class="st0" x1="1617.9" y1="266.2" x2="1617.8" y2="266.2"/>
<line class="st0" x1="113.8" y1="1438.8" x2="113.5" y2="1439.6"/>
<line class="st0" x1="171.2" y1="1485.4" x2="173.5" y2="1480.6"/>
<line class="st0" x1="1609.7" y1="172.3" x2="1607" y2="172.1"/>
<line class="st0" x1="1599.1" y1="172.3" x2="1596.9" y2="172.5"/>
<line class="st0" x1="1608.4" y1="2928.6" x2="1608.4" y2="2929"/>
<line class="st0" x1="1606.7" y1="2929.1" x2="1606.7" y2="2922.1"/>
<line class="st0" x1="1594.6" y1="2926.6" x2="1594.6" y2="2922.2"/>
<line class="st0" x1="1616.1" y1="2817.1" x2="1616.1" y2="2893.9"/>
<line class="st0" x1="1616.1" y1="2817.1" x2="1616.1" y2="2737.2"/>
<line class="st0" x1="1616.1" y1="2919.7" x2="1616.1" y2="2893.9"/>
<line class="st0" x1="1616.1" y1="2919.7" x2="1616" y2="2920"/>
<line class="st0" x1="1586" y1="2922.2" x2="1587.6" y2="2922.2"/>
<line class="st0" x1="1586" y1="2922.2" x2="1584.5" y2="2922.2"/>
<line class="st0" x1="1591.1" y1="2922.2" x2="1592.9" y2="2922.2"/>
<line class="st0" x1="1591.1" y1="2922.2" x2="1589.8" y2="2922.2"/>
<line class="st0" x1="1606.2" y1="2922.1" x2="1608.6" y2="2922"/>
<line class="st0" x1="1606.2" y1="2922.1" x2="1603.6" y2="2922.2"/>
<line class="st0" x1="1610.8" y1="2921.7" x2="1611.1" y2="2921.7"/>
<line class="st0" x1="1610.8" y1="2921.7" x2="1608.6" y2="2922"/>
<line class="st0" x1="1601" y1="2922.2" x2="1603.6" y2="2922.2"/>
<line class="st0" x1="1601" y1="2922.2" x2="1598.4" y2="2922.2"/>
<line class="st0" x1="1595.5" y1="2922.2" x2="1592.9" y2="2922.2"/>
<line class="st0" x1="1595.5" y1="2922.2" x2="1598.4" y2="2922.2"/>
<line class="st0" x1="1582.8" y1="2922.2" x2="1582.5" y2="2922.1"/>
<line class="st0" x1="1582.8" y1="2922.2" x2="1583.3" y2="2922.2"/>
<line class="st0" x1="1588.8" y1="2922.2" x2="1587.6" y2="2922.2"/>
<line class="st0" x1="1588.8" y1="2922.2" x2="1589.8" y2="2922.2"/>
<line class="st0" x1="1583.8" y1="2922.2" x2="1583.3" y2="2922.2"/>
<line class="st0" x1="1583.8" y1="2922.2" x2="1584.5" y2="2922.2"/>
<line class="st0" x1="1583.1" y1="2673.1" x2="1584.7" y2="2673.1"/>
<line class="st0" x1="1583.1" y1="2673.1" x2="1582.5" y2="2673.1"/>
<line class="st0" x1="1616.1" y1="2701.9" x2="1616.1" y2="2737.2"/>
<line class="st0" x1="1616.1" y1="2701.9" x2="1616.1" y2="2691.9"/>
<line class="st0" x1="1588.2" y1="2673.6" x2="1590" y2="2674.4"/>
<line class="st0" x1="1588.2" y1="2673.6" x2="1586.9" y2="2673.2"/>
<line class="st0" x1="1608.4" y1="2682.2" x2="1610.6" y2="2683.3"/>
<line class="st0" x1="1608.4" y1="2682.2" x2="1605.9" y2="2681.1"/>
<line class="st0" x1="1615.1" y1="2686" x2="1615.6" y2="2686.5"/>
<line class="st0" x1="1615.1" y1="2686" x2="1614" y2="2685.3"/>
<line class="st0" x1="1612.5" y1="2684.4" x2="1614" y2="2685.3"/>
<line class="st0" x1="1612.5" y1="2684.4" x2="1610.6" y2="2683.3"/>
<line class="st0" x1="1603.3" y1="2679.9" x2="1605.9" y2="2681.1"/>
<line class="st0" x1="1603.3" y1="2679.9" x2="1600.7" y2="2678.8"/>
<line class="st0" x1="1598.1" y1="2677.7" x2="1600.7" y2="2678.8"/>
<line class="st0" x1="1598.1" y1="2677.7" x2="1595.4" y2="2676.6"/>
<line class="st0" x1="1592.5" y1="2675.4" x2="1590" y2="2674.4"/>
<line class="st0" x1="1592.5" y1="2675.4" x2="1595.4" y2="2676.6"/>
<line class="st0" x1="1585.9" y1="2673.1" x2="1584.7" y2="2673.1"/>
<line class="st0" x1="1585.9" y1="2673.1" x2="1586.9" y2="2673.2"/>
<line class="st0" x1="1616.1" y1="2688" x2="1616.1" y2="2691.9"/>
<line class="st0" x1="1616.1" y1="2688" x2="1616.1" y2="2687.7"/>
<line class="st0" x1="156.4" y1="1379.6" x2="156.4" y2="1379.6"/>
<line class="st0" x1="156.4" y1="1379.6" x2="156.8" y2="1379.7"/>
<line class="st0" x1="185.5" y1="1400.1" x2="187.8" y2="1405.6"/>
<line class="st0" x1="185.5" y1="1400.1" x2="182.4" y2="1395"/>
<line class="st0" x1="178.5" y1="1390.5" x2="182.4" y2="1395"/>
<line class="st0" x1="178.5" y1="1390.5" x2="174" y2="1386.7"/>
<line class="st0" x1="169" y1="1383.6" x2="174" y2="1386.7"/>
<line class="st0" x1="169" y1="1383.6" x2="163.5" y2="1381.3"/>
<line class="st0" x1="157.7" y1="1379.9" x2="163.5" y2="1381.3"/>
<line class="st0" x1="157.7" y1="1379.9" x2="156.8" y2="1379.7"/>
<line class="st0" x1="169" y1="1528.1" x2="174" y2="1525.1"/>
<line class="st0" x1="178.5" y1="1521.2" x2="174" y2="1525.1"/>
<line class="st0" x1="178.5" y1="1521.2" x2="182.4" y2="1516.7"/>
<line class="st0" x1="111.3" y1="1461.4" x2="111.3" y2="1467.1"/>
<line class="st0" x1="111.3" y1="1461.4" x2="111.3" y2="1455.6"/>
<line class="st0" x1="111.3" y1="1472.8" x2="111.3" y2="1467.1"/>
<line class="st0" x1="111.3" y1="1472.8" x2="111.3" y2="1478.5"/>
<line class="st0" x1="111.3" y1="1484.2" x2="111.3" y2="1478.5"/>
<line class="st0" x1="111.3" y1="1484.2" x2="111.3" y2="1489"/>
<line class="st0" x1="111.3" y1="1492.1" x2="111.3" y2="1489"/>
<line class="st0" x1="111.3" y1="1492.1" x2="111.6" y2="1495.2"/>
<line class="st0" x1="112.3" y1="1500.2" x2="112.5" y2="1501.3"/>
<line class="st0" x1="112.3" y1="1500.2" x2="111.6" y2="1495.2"/>
<line class="st0" x1="111.3" y1="1449.9" x2="111.3" y2="1455.6"/>
<line class="st0" x1="111.3" y1="1449.9" x2="111.3" y2="1444.2"/>
<line class="st0" x1="111.3" y1="1438.5" x2="111.3" y2="1444.2"/>
<line class="st0" x1="111.3" y1="1438.5" x2="111.3" y2="1432.8"/>
<line class="st0" x1="111.3" y1="1427.1" x2="111.3" y2="1432.8"/>
<line class="st0" x1="111.3" y1="1427.1" x2="111.3" y2="1422.2"/>
<line class="st0" x1="111.3" y1="1419.2" x2="111.3" y2="1422.2"/>
<line class="st0" x1="111.3" y1="1419.2" x2="111.6" y2="1416"/>
<line class="st0" x1="155.8" y1="1379.5" x2="149.8" y2="1379"/>
<line class="st0" x1="155.8" y1="1379.5" x2="155.8" y2="1379.5"/>
<line class="st0" x1="143.9" y1="1379.5" x2="149.8" y2="1379"/>
<line class="st0" x1="143.9" y1="1379.5" x2="138.1" y2="1380.8"/>
<line class="st0" x1="132.6" y1="1383.1" x2="138.1" y2="1380.8"/>
<line class="st0" x1="132.6" y1="1383.1" x2="127.5" y2="1386.2"/>
<line class="st0" x1="122.9" y1="1390.1" x2="127.5" y2="1386.2"/>
<line class="st0" x1="122.9" y1="1390.1" x2="119.1" y2="1394.6"/>
<line class="st0" x1="116" y1="1399.7" x2="119.1" y2="1394.6"/>
<line class="st0" x1="116" y1="1399.7" x2="113.7" y2="1405.2"/>
<line class="st0" x1="112.3" y1="1411" x2="111.6" y2="1416"/>
<line class="st0" x1="112.3" y1="1411" x2="113.7" y2="1405.2"/>
<line class="st0" x1="156" y1="1379.5" x2="155.8" y2="1379.5"/>
<line class="st0" x1="156" y1="1379.5" x2="161.8" y2="1380.9"/>
<line class="st0" x1="167.3" y1="1383.2" x2="161.8" y2="1380.9"/>
<line class="st0" x1="167.3" y1="1383.2" x2="172.4" y2="1386.3"/>
<line class="st0" x1="176.9" y1="1390.2" x2="172.4" y2="1386.3"/>
<line class="st0" x1="176.9" y1="1390.2" x2="180.8" y2="1394.7"/>
<line class="st0" x1="183.9" y1="1399.8" x2="180.8" y2="1394.7"/>
<line class="st0" x1="183.9" y1="1399.8" x2="186.2" y2="1405.3"/>
<line class="st0" x1="187.6" y1="1411.1" x2="186.2" y2="1405.3"/>
<line class="st0" x1="187.6" y1="1411.1" x2="188.3" y2="1416.1"/>
<line class="st0" x1="188.5" y1="1419.2" x2="188.3" y2="1416.1"/>
<line class="st0" x1="188.5" y1="1419.2" x2="188.5" y2="1422.3"/>
<line class="st0" x1="188.5" y1="1450" x2="188.5" y2="1444.3"/>
<line class="st0" x1="188.5" y1="1450" x2="188.5" y2="1455.7"/>
<line class="st0" x1="188.5" y1="1438.5" x2="188.5" y2="1444.3"/>
<line class="st0" x1="188.5" y1="1438.5" x2="188.5" y2="1432.8"/>
<line class="st0" x1="188.5" y1="1427.1" x2="188.5" y2="1422.3"/>
<line class="st0" x1="188.5" y1="1427.1" x2="188.5" y2="1432.8"/>
<line class="st0" x1="169" y1="1527.1" x2="172.4" y2="1525"/>
<line class="st0" x1="176.9" y1="1521.2" x2="172.4" y2="1525"/>
<line class="st0" x1="176.9" y1="1521.2" x2="180.8" y2="1516.6"/>
<line class="st0" x1="183.9" y1="1511.6" x2="180.8" y2="1516.6"/>
<line class="st0" x1="183.9" y1="1511.6" x2="186.2" y2="1506.1"/>
<line class="st0" x1="187.6" y1="1500.3" x2="186.2" y2="1506.1"/>
<line class="st0" x1="187.6" y1="1500.3" x2="188.3" y2="1495.3"/>
<line class="st0" x1="188.5" y1="1492.1" x2="188.3" y2="1495.3"/>
<line class="st0" x1="188.5" y1="1492.1" x2="188.5" y2="1489"/>
<line class="st0" x1="188.5" y1="1461.4" x2="188.5" y2="1455.7"/>
<line class="st0" x1="188.5" y1="1461.4" x2="188.5" y2="1467.1"/>
<line class="st0" x1="188.5" y1="1472.8" x2="188.5" y2="1467.1"/>
<line class="st0" x1="188.5" y1="1472.8" x2="188.5" y2="1478.5"/>
<line class="st0" x1="188.5" y1="1484.2" x2="188.5" y2="1489"/>
<line class="st0" x1="188.5" y1="1484.2" x2="188.5" y2="1478.5"/>
<line class="st0" x1="162.2" y1="1745.9" x2="161.2" y2="1747"/>
<line class="st0" x1="122" y1="1745.9" x2="121.7" y2="1744.8"/>
<line class="st0" x1="122" y1="1745.9" x2="123" y2="1747"/>
<line class="st0" x1="164.1" y1="1743.6" x2="164.4" y2="1743.1"/>
<line class="st0" x1="164.1" y1="1743.6" x2="164" y2="1743.8"/>
<line class="st0" x1="164.8" y1="1742.2" x2="164.4" y2="1743.1"/>
<line class="st0" x1="164.8" y1="1742.2" x2="164.9" y2="1737.2"/>
<line class="st0" x1="165.1" y1="1725.5" x2="164.9" y2="1737.2"/>
<line class="st0" x1="165.1" y1="1725.5" x2="165.3" y2="1709.9"/>
<line class="st0" x1="163.7" y1="1744.2" x2="164" y2="1743.8"/>
<line class="st0" x1="163.7" y1="1744.2" x2="163.1" y2="1744.8"/>
<line class="st0" x1="121.6" y1="1744.2" x2="121.7" y2="1744.8"/>
<line class="st0" x1="121.6" y1="1744.2" x2="121.5" y2="1743.8"/>
<line class="st0" x1="112.4" y1="1487" x2="112.4" y2="1492.6"/>
<line class="st0" x1="112.4" y1="1496.5" x2="112.4" y2="1492.6"/>
<line class="st0" x1="112.4" y1="1496.5" x2="112.6" y2="1501.6"/>
<line class="st0" x1="170.2" y1="1496.6" x2="170" y2="1501.7"/>
<line class="st0" x1="115.8" y1="1608.4" x2="115.8" y2="1607.2"/>
<line class="st0" x1="115.2" y1="1589.6" x2="115.8" y2="1607.2"/>
<line class="st0" x1="115.2" y1="1589.6" x2="114.6" y2="1570.1"/>
<line class="st0" x1="114" y1="1546.9" x2="114.6" y2="1570.1"/>
<line class="st0" x1="114" y1="1546.9" x2="113.5" y2="1525.3"/>
<line class="st0" x1="165.6" y1="1693.2" x2="165.3" y2="1709.9"/>
<line class="st0" x1="165.6" y1="1693.2" x2="165.9" y2="1676"/>
<line class="st0" x1="166.2" y1="1658.7" x2="165.9" y2="1676"/>
<line class="st0" x1="166.2" y1="1658.7" x2="166.5" y2="1641.4"/>
<line class="st0" x1="166.9" y1="1624" x2="166.5" y2="1641.4"/>
<line class="st0" x1="166.9" y1="1624" x2="167.3" y2="1606.6"/>
<line class="st0" x1="167.7" y1="1589.1" x2="167.3" y2="1606.6"/>
<line class="st0" x1="167.7" y1="1589.1" x2="168.1" y2="1569.8"/>
<line class="st0" x1="168.6" y1="1546.7" x2="168.1" y2="1569.8"/>
<line class="st0" x1="168.6" y1="1546.7" x2="169.1" y2="1525.2"/>
<line class="st0" x1="113" y1="1510.7" x2="113.5" y2="1525.3"/>
<line class="st0" x1="113" y1="1510.7" x2="112.6" y2="1501.6"/>
<line class="st0" x1="169.6" y1="1510.7" x2="169.1" y2="1525.2"/>
<line class="st0" x1="169.6" y1="1510.7" x2="170" y2="1501.7"/>
<line class="st0" x1="113.3" y1="1441.7" x2="113.2" y2="1442.2"/>
<line class="st0" x1="113.3" y1="1441.7" x2="113.5" y2="1439.6"/>
<line class="st0" x1="113.2" y1="1443.3" x2="113.2" y2="1442.2"/>
<line class="st0" x1="113.2" y1="1443.3" x2="113.1" y2="1445.3"/>
<line class="st0" x1="113.1" y1="1450.3" x2="113.1" y2="1449.6"/>
<line class="st0" x1="113.1" y1="1448.1" x2="113.1" y2="1445.3"/>
<line class="st0" x1="113.1" y1="1448.1" x2="113.1" y2="1451.6"/>
<line class="st0" x1="113.1" y1="1451.6" x2="113.1" y2="1451.6"/>
<line class="st0" x1="114.1" y1="1438" x2="114.6" y2="1437.4"/>
<line class="st0" x1="114.1" y1="1438" x2="114" y2="1438.1"/>
<line class="st0" x1="119.5" y1="1433.1" x2="115.8" y2="1436"/>
<line class="st0" x1="113.8" y1="1438.5" x2="115.2" y2="1436.7"/>
<line class="st0" x1="113.8" y1="1438.5" x2="114" y2="1438.1"/>
<line class="st0" x1="113.8" y1="1438.5" x2="113.6" y2="1439.9"/>
<line class="st0" x1="122" y1="1431.2" x2="120.2" y2="1432.6"/>
<line class="st0" x1="122" y1="1431.2" x2="124.2" y2="1429.5"/>
<line class="st0" x1="113.1" y1="1451.6" x2="113.1" y2="1449.7"/>
<line class="st0" x1="113" y1="1453.3" x2="113.1" y2="1451.6"/>
<line class="st0" x1="175.9" y1="1478.4" x2="174" y2="1480.8"/>
<line class="st0" x1="175.9" y1="1478.4" x2="177.2" y2="1476.9"/>
<line class="st0" x1="172.3" y1="1483.1" x2="174" y2="1480.8"/>
<line class="st0" x1="126.1" y1="1428.1" x2="124.2" y2="1429.5"/>
<line class="st0" x1="126.1" y1="1428.1" x2="127.5" y2="1427.1"/>
<line class="st0" x1="177.6" y1="1476.4" x2="175.7" y2="1478.6"/>
<line class="st0" x1="177.6" y1="1476.4" x2="180.5" y2="1471.6"/>
<line class="st0" x1="182.7" y1="1466.5" x2="180.5" y2="1471.6"/>
<line class="st0" x1="182.7" y1="1466.5" x2="184" y2="1461.1"/>
<line class="st0" x1="184.4" y1="1455.5" x2="184" y2="1461.1"/>
<line class="st0" x1="184.4" y1="1455.5" x2="184" y2="1449.9"/>
<line class="st0" x1="182.7" y1="1444.5" x2="184" y2="1449.9"/>
<line class="st0" x1="182.7" y1="1444.5" x2="180.5" y2="1439.4"/>
<line class="st0" x1="177.6" y1="1434.6" x2="180.5" y2="1439.4"/>
<line class="st0" x1="177.6" y1="1434.6" x2="174" y2="1430.4"/>
<line class="st0" x1="169.8" y1="1426.7" x2="174" y2="1430.4"/>
<line class="st0" x1="169.8" y1="1426.7" x2="165" y2="1423.8"/>
<line class="st0" x1="159.9" y1="1421.7" x2="165" y2="1423.8"/>
<line class="st0" x1="159.9" y1="1421.7" x2="154.4" y2="1420.4"/>
<line class="st0" x1="148.9" y1="1419.9" x2="154.4" y2="1420.4"/>
<line class="st0" x1="148.9" y1="1419.9" x2="143.3" y2="1420.4"/>
<line class="st0" x1="137.9" y1="1421.7" x2="143.3" y2="1420.4"/>
<line class="st0" x1="137.9" y1="1421.7" x2="132.7" y2="1423.8"/>
<line class="st0" x1="128" y1="1426.7" x2="127.5" y2="1427.1"/>
<line class="st0" x1="128" y1="1426.7" x2="132.7" y2="1423.8"/>
<line class="st0" x1="1619.4" y1="173.9" x2="1619.5" y2="173"/>
<line class="st0" x1="1587.7" y1="176" x2="1587.9" y2="175.5"/>
<line class="st0" x1="1587.7" y1="176" x2="1587.6" y2="176.6"/>
<line class="st0" x1="1587.6" y1="177.3" x2="1587.6" y2="176.6"/>
<line class="st0" x1="1587.6" y1="264.8" x2="1587.6" y2="264"/>
<line class="st0" x1="1587.6" y1="264.8" x2="1587.6" y2="265.2"/>
<line class="st0" x1="1619.5" y1="110.6" x2="1619.5" y2="107.9"/>
<line class="st0" x1="1619.5" y1="110.6" x2="1619.5" y2="120"/>
<line class="st0" x1="1619.4" y1="106.5" x2="1619.5" y2="107.9"/>
<line class="st0" x1="1619.4" y1="106.5" x2="1619.2" y2="105.9"/>
<line class="st0" x1="1586.9" y1="105.5" x2="1587.6" y2="105.1"/>
<line class="st0" x1="1586.9" y1="105.5" x2="1586.4" y2="106"/>
<line class="st0" x1="1586.9" y1="267.2" x2="1586.6" y2="267.4"/>
<line class="st0" x1="1586.9" y1="267.2" x2="1587.6" y2="266.8"/>
<line class="st0" x1="1587.6" y1="265.9" x2="1584.6" y2="265.7"/>
<line class="st0" x1="1617.1" y1="174.2" x2="1617.4" y2="174.5"/>
<line class="st0" x1="1617.1" y1="174.2" x2="1616.4" y2="173.8"/>
<line class="st0" x1="1615.4" y1="173.3" x2="1616.4" y2="173.8"/>
<line class="st0" x1="1615.4" y1="173.3" x2="1613.9" y2="172.9"/>
<line class="st0" x1="1612" y1="172.6" x2="1613.9" y2="172.9"/>
<line class="st0" x1="1612" y1="172.6" x2="1609.7" y2="172.3"/>
<line class="st0" x1="1596.6" y1="172.6" x2="1596.9" y2="172.5"/>
<line class="st0" x1="1596.6" y1="172.6" x2="1594.3" y2="172.9"/>
<line class="st0" x1="1592.4" y1="173.3" x2="1594.3" y2="172.9"/>
<line class="st0" x1="1592.4" y1="173.3" x2="1590.8" y2="173.8"/>
<line class="st0" x1="1589.6" y1="174.3" x2="1588.8" y2="174.8"/>
<line class="st0" x1="1589.6" y1="174.3" x2="1590.8" y2="173.8"/>
<line class="st0" x1="1619.5" y1="171.2" x2="1619.5" y2="173"/>
<line class="st0" x1="1619.5" y1="171.2" x2="1619.5" y2="162.7"/>
<line class="st0" x1="1591.7" y1="103.5" x2="1592.2" y2="103.4"/>
<line class="st0" x1="1591.7" y1="103.5" x2="1590" y2="104"/>
<line class="st0" x1="1588.6" y1="104.6" x2="1587.6" y2="105.1"/>
<line class="st0" x1="1588.6" y1="104.6" x2="1590" y2="104"/>
<line class="st0" x1="1618.1" y1="104.6" x2="1618.6" y2="105.1"/>
<line class="st0" x1="1618.1" y1="104.6" x2="1617.3" y2="104"/>
<line class="st0" x1="1616.2" y1="103.5" x2="1614.6" y2="103.1"/>
<line class="st0" x1="1616.2" y1="103.5" x2="1617.3" y2="104"/>
<line class="st0" x1="1619.5" y1="141.4" x2="1619.5" y2="120"/>
<line class="st0" x1="1619.5" y1="141.4" x2="1619.5" y2="162.7"/>
<line class="st0" x1="1612.6" y1="264.7" x2="1612.1" y2="264.7"/>
<line class="st0" x1="1612.6" y1="264.7" x2="1614.6" y2="265.1"/>
<line class="st0" x1="1591.7" y1="265.5" x2="1593.7" y2="265.1"/>
<line class="st0" x1="1591.7" y1="265.5" x2="1590" y2="265.9"/>
<line class="st0" x1="1588.6" y1="266.4" x2="1587.6" y2="266.8"/>
<line class="st0" x1="1588.6" y1="266.4" x2="1590" y2="265.9"/>
<line class="st0" x1="1618.1" y1="266.4" x2="1618.4" y2="266.6"/>
<line class="st0" x1="1618.1" y1="266.4" x2="1617.3" y2="265.9"/>
<line class="st0" x1="1616.2" y1="265.5" x2="1614.6" y2="265.1"/>
<line class="st0" x1="1616.2" y1="265.5" x2="1617.3" y2="265.9"/>
<line class="st0" x1="1582.5" y1="266" x2="1587.6" y2="266"/>
<line class="st0" x1="1612.4" y1="2921.5" x2="1612.4" y2="2921.5"/>
<line class="st0" x1="1612.4" y1="2921.5" x2="1612.7" y2="2922"/>
<line class="st0" x1="1613.2" y1="2923.1" x2="1612.7" y2="2922"/>
<line class="st0" x1="1613.2" y1="2923.1" x2="1613.8" y2="2924.5"/>
<line class="st0" x1="1595.1" y1="2962.5" x2="1594.7" y2="2962.5"/>
<line class="st0" x1="1595.1" y1="2962.5" x2="1595.5" y2="2962.5"/>
<line class="st0" x1="1594.4" y1="2962.5" x2="1594.7" y2="2962.5"/>
<line class="st0" x1="1594.4" y1="2962.5" x2="1593.6" y2="2962.5"/>
<line class="st0" x1="1608.6" y1="2962.5" x2="1609" y2="2962.5"/>
<line class="st0" x1="1608.6" y1="2962.5" x2="1608.2" y2="2962.5"/>
<line class="st0" x1="1609.4" y1="2962.5" x2="1609" y2="2962.5"/>
<line class="st0" x1="1609.4" y1="2962.5" x2="1610.2" y2="2962.5"/>
<line class="st0" x1="1614.4" y1="2946.8" x2="1614.4" y2="2956"/>
<line class="st0" x1="1614.4" y1="2946.8" x2="1614.5" y2="2938"/>
<line class="st0" x1="1614.3" y1="2960.4" x2="1614.4" y2="2956"/>
<line class="st0" x1="1614.3" y1="2960.4" x2="1613.7" y2="2962"/>
<line class="st0" x1="1612" y1="2962.5" x2="1610.2" y2="2962.5"/>
<line class="st0" x1="1612" y1="2962.5" x2="1613.7" y2="2962"/>
<line class="st0" x1="1591.8" y1="2962.5" x2="1590.1" y2="2962"/>
<line class="st0" x1="1591.8" y1="2962.5" x2="1593.6" y2="2962.5"/>
<line class="st0" x1="1614.2" y1="2926.1" x2="1613.8" y2="2924.5"/>
<line class="st0" x1="1614.2" y1="2926.1" x2="1614.4" y2="2927.4"/>
<line class="st0" x1="1599.1" y1="2962.5" x2="1601.9" y2="2962.5"/>
<line class="st0" x1="1599.1" y1="2962.5" x2="1596.9" y2="2962.5"/>
<line class="st0" x1="1599.5" y1="2929.1" x2="1602.2" y2="2929.1"/>
<line class="st0" x1="1599.5" y1="2929.1" x2="1597.3" y2="2929.1"/>
<line class="st0" x1="1604.7" y1="2962.5" x2="1601.9" y2="2962.5"/>
<line class="st0" x1="1604.7" y1="2962.5" x2="1606.9" y2="2962.5"/>
<line class="st0" x1="1605" y1="2929.1" x2="1602.2" y2="2929.1"/>
<line class="st0" x1="1605" y1="2929.1" x2="1607.2" y2="2929.1"/>
<line class="st0" x1="1595.9" y1="2962.5" x2="1595.5" y2="2962.5"/>
<line class="st0" x1="1595.9" y1="2962.5" x2="1596.9" y2="2962.5"/>
<line class="st0" x1="1595.9" y1="2928.6" x2="1595.8" y2="2928.2"/>
<line class="st0" x1="1595.9" y1="2928.6" x2="1596" y2="2929"/>
<line class="st0" x1="1596.3" y1="2929.1" x2="1597.3" y2="2929.1"/>
<line class="st0" x1="1596.3" y1="2929.1" x2="1596" y2="2929"/>
<line class="st0" x1="1614.5" y1="2934.7" x2="1614.5" y2="2938"/>
<line class="st0" x1="1614.5" y1="2934.7" x2="1614.5" y2="2933.7"/>
<line class="st0" x1="1614.5" y1="2929.3" x2="1614.5" y2="2928.9"/>
<line class="st0" x1="1614.5" y1="2929.3" x2="1614.5" y2="2930.1"/>
<line class="st0" x1="1607.8" y1="2962.5" x2="1606.9" y2="2962.5"/>
<line class="st0" x1="1607.8" y1="2962.5" x2="1608.2" y2="2962.5"/>
<line class="st0" x1="1614.5" y1="2928.4" x2="1614.5" y2="2928.9"/>
<line class="st0" x1="1614.5" y1="2928.4" x2="1614.5" y2="2928.1"/>
<line class="st0" x1="1614.5" y1="2927.9" x2="1614.5" y2="2928.1"/>
<line class="st0" x1="1614.5" y1="2927.9" x2="1614.4" y2="2927.4"/>
<line class="st0" x1="1614.5" y1="2931.9" x2="1614.5" y2="2933.7"/>
<line class="st0" x1="1614.5" y1="2931.9" x2="1614.5" y2="2930.1"/>
<line class="st0" x1="1608.2" y1="2929.1" x2="1607.2" y2="2929.1"/>
<line class="st0" x1="1584.1" y1="2931" x2="1584.1" y2="2940.4"/>
<line class="st0" x1="1584.1" y1="2931" x2="1584.1" y2="2927.5"/>
<line class="st0" x1="1584.1" y1="2922.9" x2="1584.1" y2="2924.7"/>
<line class="st0" x1="1584.1" y1="2922.9" x2="1584.1" y2="2922.2"/>
<line class="st0" x1="1584.1" y1="2926.5" x2="1584.1" y2="2927.5"/>
<line class="st0" x1="1584.1" y1="2926.5" x2="1584.1" y2="2924.7"/>
<line class="st0" x1="1584.7" y1="2956.7" x2="1584.8" y2="2956.9"/>
<line class="st0" x1="1619.4" y1="260.1" x2="1619.4" y2="221.3"/>
<line class="st0" x1="1619.4" y1="260.1" x2="1619.5" y2="268.1"/>
<line class="st0" x1="1619.4" y1="182.3" x2="1619.4" y2="221.3"/>
<line class="st0" x1="1619.4" y1="182.3" x2="1619.4" y2="174.4"/>
<line class="st0" x1="1583.3" y1="178.6" x2="1582.5" y2="178.7"/>
<line class="st0" x1="1583.3" y1="178.6" x2="1587.6" y2="177.3"/>
<line class="st0" x1="1587.6" y1="266" x2="1587.6" y2="265.2"/>
<line class="st0" x1="1587.6" y1="266" x2="1587.7" y2="266.6"/>
<line class="st0" x1="1587.8" y1="266.7" x2="1587.7" y2="266.6"/>
<line class="st0" x1="1584.5" y1="110.7" x2="1584.5" y2="113.4"/>
<line class="st0" x1="1586" y1="177.4" x2="1587.3" y2="177.5"/>
<line class="st0" x1="1584.5" y1="122.7" x2="1584.5" y2="113.4"/>
<line class="st0" x1="1584.5" y1="122.7" x2="1584.5" y2="144.2"/>
<line class="st0" x1="1619.5" y1="269.1" x2="1619.5" y2="268.1"/>
<line class="st0" x1="1619.5" y1="269.1" x2="1619.5" y2="270.9"/>
<line class="st0" x1="1584.5" y1="271.3" x2="1584.5" y2="273.1"/>
<line class="st0" x1="1586" y1="338.9" x2="1587.8" y2="338.9"/>
<line class="st0" x1="1601.4" y1="338.9" x2="1607" y2="338.9"/>
<line class="st0" x1="1601.4" y1="338.9" x2="1595.7" y2="338.9"/>
<line class="st0" x1="1590.9" y1="338.9" x2="1587.8" y2="338.9"/>
<line class="st0" x1="1590.9" y1="338.9" x2="1595.7" y2="338.9"/>
<line class="st0" x1="1584.5" y1="281.6" x2="1584.5" y2="273.1"/>
<line class="st0" x1="1584.5" y1="281.6" x2="1584.5" y2="302.8"/>
<line class="st0" x1="1618" y1="177.7" x2="1618" y2="178.6"/>
<line class="st0" x1="1618" y1="177.7" x2="1618" y2="176.9"/>
<line class="st0" x1="1618" y1="176.1" x2="1618" y2="176.9"/>
<line class="st0" x1="1618" y1="176.1" x2="1617.9" y2="175.5"/>
<line class="st0" x1="1618" y1="265.1" x2="1618" y2="264.3"/>
<line class="st0" x1="1618" y1="265.1" x2="1618" y2="265.5"/>
<line class="st0" x1="1618" y1="263.5" x2="1618" y2="262.6"/>
<line class="st0" x1="1618" y1="263.5" x2="1618" y2="264.3"/>
<line class="st0" x1="1587.1" y1="265.9" x2="1587.6" y2="265.9"/>
<line class="st0" x1="1617.7" y1="175" x2="1617.9" y2="175.5"/>
<line class="st0" x1="1617.7" y1="175" x2="1617.4" y2="174.5"/>
<line class="st0" x1="1604.5" y1="172.1" x2="1607" y2="172.1"/>
<line class="st0" x1="1604.5" y1="172.1" x2="1601.9" y2="172.1"/>
<line class="st0" x1="1599.3" y1="172.3" x2="1601.9" y2="172.1"/>
<line class="st0" x1="1599.3" y1="172.3" x2="1599.1" y2="172.3"/>
<line class="st0" x1="1588.4" y1="175" x2="1587.9" y2="175.5"/>
<line class="st0" x1="1588.4" y1="175" x2="1588.8" y2="174.8"/>
<line class="st0" x1="1619.4" y1="173.6" x2="1619.4" y2="174.4"/>
<line class="st0" x1="1584.5" y1="175.7" x2="1584.5" y2="173.9"/>
<line class="st0" x1="1584.5" y1="165.4" x2="1584.5" y2="144.2"/>
<line class="st0" x1="1584.5" y1="165.4" x2="1584.5" y2="173.9"/>
<line class="st0" x1="1609.8" y1="102.4" x2="1612.1" y2="102.6"/>
<line class="st0" x1="1609.8" y1="102.4" x2="1607.3" y2="102.2"/>
<line class="st0" x1="1604.6" y1="102.1" x2="1607.3" y2="102.2"/>
<line class="st0" x1="1604.6" y1="102.1" x2="1601.8" y2="102.2"/>
<line class="st0" x1="1599.1" y1="102.4" x2="1601.8" y2="102.2"/>
<line class="st0" x1="1599.1" y1="102.4" x2="1596.5" y2="102.6"/>
<line class="st0" x1="1594.2" y1="103" x2="1596.5" y2="102.6"/>
<line class="st0" x1="1594.2" y1="103" x2="1592.2" y2="103.4"/>
<line class="st0" x1="1586.1" y1="106.3" x2="1585.7" y2="107"/>
<line class="st0" x1="1586.1" y1="106.3" x2="1586.4" y2="106"/>
<line class="st0" x1="1585.3" y1="107.7" x2="1585.7" y2="107"/>
<line class="st0" x1="1585.3" y1="107.7" x2="1585" y2="108.2"/>
<line class="st0" x1="1584.8" y1="108.7" x2="1585" y2="108.2"/>
<line class="st0" x1="1618.9" y1="105.4" x2="1619.2" y2="105.9"/>
<line class="st0" x1="1618.9" y1="105.4" x2="1618.6" y2="105.1"/>
<line class="st0" x1="1614.1" y1="103" x2="1612.1" y2="102.6"/>
<line class="st0" x1="1614.1" y1="103" x2="1614.6" y2="103.1"/>
<line class="st0" x1="1619.2" y1="336.3" x2="1619" y2="336.6"/>
<line class="st0" x1="1619.2" y1="336.3" x2="1619.4" y2="335.6"/>
<line class="st0" x1="1619.5" y1="334.2" x2="1619.4" y2="335.6"/>
<line class="st0" x1="1619.5" y1="334.2" x2="1619.5" y2="331.5"/>
<line class="st0" x1="1584.5" y1="336.2" x2="1584.5" y2="333.6"/>
<line class="st0" x1="1584.5" y1="324.2" x2="1584.5" y2="302.8"/>
<line class="st0" x1="1584.5" y1="324.2" x2="1584.5" y2="333.6"/>
<line class="st0" x1="1586.2" y1="267.8" x2="1585.9" y2="268.1"/>
<line class="st0" x1="1586.2" y1="267.8" x2="1586.6" y2="267.4"/>
<line class="st0" x1="1609.8" y1="264.5" x2="1612.1" y2="264.7"/>
<line class="st0" x1="1609.8" y1="264.5" x2="1607.3" y2="264.3"/>
<line class="st0" x1="1604.6" y1="264.3" x2="1607.3" y2="264.3"/>
<line class="st0" x1="1604.6" y1="264.3" x2="1601.8" y2="264.3"/>
<line class="st0" x1="1599.1" y1="264.5" x2="1601.8" y2="264.3"/>
<line class="st0" x1="1599.1" y1="264.5" x2="1596.5" y2="264.7"/>
<line class="st0" x1="1594.2" y1="265" x2="1596.5" y2="264.7"/>
<line class="st0" x1="1594.2" y1="265" x2="1593.7" y2="265.1"/>
<line class="st0" x1="1585.6" y1="268.5" x2="1585.9" y2="268.1"/>
<line class="st0" x1="1585.6" y1="268.5" x2="1585.2" y2="269.2"/>
<line class="st0" x1="1584.8" y1="269.9" x2="1585.2" y2="269.2"/>
<line class="st0" x1="1618.2" y1="260" x2="1618" y2="260.4"/>
<line class="st0" x1="1619" y1="267" x2="1619.3" y2="267.3"/>
<line class="st0" x1="1619" y1="267" x2="1618.4" y2="266.6"/>
<line class="st0" x1="1611.8" y1="338.9" x2="1607" y2="338.9"/>
<line class="st0" x1="1611.8" y1="338.9" x2="1614.9" y2="338.9"/>
<line class="st0" x1="1616.7" y1="338.9" x2="1614.9" y2="338.9"/>
<line class="st0" x1="1616.7" y1="338.9" x2="1617.6" y2="338.7"/>
<line class="st0" x1="1618.8" y1="337" x2="1619" y2="336.6"/>
<line class="st0" x1="1618.8" y1="337" x2="1618.4" y2="337.6"/>
<line class="st0" x1="1617.9" y1="338.3" x2="1617.6" y2="338.7"/>
<line class="st0" x1="1617.9" y1="338.3" x2="1618.4" y2="337.6"/>
<line class="st0" x1="1619.5" y1="279.5" x2="1619.5" y2="270.9"/>
<line class="st0" x1="1619.5" y1="279.5" x2="1619.5" y2="300.7"/>
<line class="st0" x1="1619.5" y1="322.1" x2="1619.5" y2="331.5"/>
<line class="st0" x1="1619.5" y1="322.1" x2="1619.5" y2="300.7"/>
<line class="st0" x1="1618" y1="251.7" x2="1618" y2="262.6"/>
<line class="st0" x1="1618" y1="251.7" x2="1618" y2="220.6"/>
<line class="st0" x1="1618" y1="189.5" x2="1618" y2="178.6"/>
<line class="st0" x1="1618" y1="189.5" x2="1618" y2="220.6"/>
<line class="st0" x1="1591.5" y1="2922.2" x2="1591.8" y2="2922.7"/>
<line class="st0" x1="1585.1" y1="2957.3" x2="1584.8" y2="2956.9"/>
<line class="st0" x1="1585.1" y1="2957.3" x2="1585.8" y2="2958.3"/>
<line class="st0" x1="1586.7" y1="2959.4" x2="1585.8" y2="2958.3"/>
<line class="st0" x1="1586.7" y1="2959.4" x2="1588" y2="2960.5"/>
<line class="st0" x1="1592.7" y1="2924.1" x2="1591.8" y2="2922.7"/>
<line class="st0" x1="1592.7" y1="2924.1" x2="1593.9" y2="2925.7"/>
<line class="st0" x1="1595.7" y1="2928.1" x2="1595.5" y2="2927.8"/>
<line class="st0" x1="1595.7" y1="2928.1" x2="1595.8" y2="2928.2"/>
<line class="st0" x1="1595" y1="2927.1" x2="1595.5" y2="2927.8"/>
<line class="st0" x1="1595" y1="2927.1" x2="1593.9" y2="2925.7"/>
<line class="st0" x1="1589.8" y1="2961.8" x2="1589.7" y2="2961.7"/>
<line class="st0" x1="1589.8" y1="2961.8" x2="1590.1" y2="2962"/>
<line class="st0" x1="1589.2" y1="2961.4" x2="1588" y2="2960.5"/>
<line class="st0" x1="1589.2" y1="2961.4" x2="1589.7" y2="2961.7"/>
<line class="st0" x1="1608.4" y1="2929" x2="1608.2" y2="2929.1"/>
<line class="st0" x1="1613" y1="2921.4" x2="1614.5" y2="2920.9"/>
<line class="st0" x1="1613" y1="2921.4" x2="1611.1" y2="2921.7"/>
<line class="st0" x1="1615.5" y1="2920.5" x2="1614.5" y2="2920.9"/>
<line class="st0" x1="1615.5" y1="2920.5" x2="1616" y2="2920"/>
<line class="st0" x1="1616" y1="2686.9" x2="1615.6" y2="2686.5"/>
<line class="st0" x1="1616" y1="2686.9" x2="1616.1" y2="2687.7"/>
<line class="st0" x1="190.2" y1="1478.7" x2="190.2" y2="1473"/>
<line class="st0" x1="190.2" y1="1478.7" x2="190.2" y2="1484.4"/>
<line class="st0" x1="190.2" y1="1467.3" x2="190.2" y2="1473"/>
<line class="st0" x1="190.2" y1="1467.3" x2="190.2" y2="1461.6"/>
<line class="st0" x1="190.2" y1="1489.2" x2="190.2" y2="1492.2"/>
<line class="st0" x1="190.2" y1="1489.2" x2="190.2" y2="1484.4"/>
<line class="st0" x1="190" y1="1495.3" x2="189.3" y2="1500.2"/>
<line class="st0" x1="190" y1="1495.3" x2="190.2" y2="1492.2"/>
<line class="st0" x1="187.9" y1="1505.9" x2="185.7" y2="1511.3"/>
<line class="st0" x1="187.9" y1="1505.9" x2="189.3" y2="1500.2"/>
<line class="st0" x1="182.7" y1="1516.3" x2="182.4" y2="1516.7"/>
<line class="st0" x1="182.7" y1="1516.3" x2="185.7" y2="1511.3"/>
<line class="st0" x1="190.2" y1="1433.2" x2="190.2" y2="1438.9"/>
<line class="st0" x1="190.2" y1="1433.2" x2="190.2" y2="1427.5"/>
<line class="st0" x1="190.2" y1="1444.6" x2="190.2" y2="1450.3"/>
<line class="st0" x1="190.2" y1="1444.6" x2="190.2" y2="1438.9"/>
<line class="st0" x1="190.2" y1="1422.7" x2="190.2" y2="1427.5"/>
<line class="st0" x1="190.2" y1="1422.7" x2="190.2" y2="1419.7"/>
<line class="st0" x1="190.2" y1="1456" x2="190.2" y2="1461.6"/>
<line class="st0" x1="190.2" y1="1456" x2="190.2" y2="1450.3"/>
<line class="st0" x1="190" y1="1416.6" x2="190.2" y2="1419.7"/>
<line class="st0" x1="190" y1="1416.6" x2="189.3" y2="1411.7"/>
<line class="st0" x1="187.9" y1="1406" x2="189.3" y2="1411.7"/>
<line class="st0" x1="187.9" y1="1406" x2="187.8" y2="1405.6"/>
<line class="st0" x1="121.3" y1="1738.9" x2="121.5" y2="1743.8"/>
<line class="st0" x1="121.3" y1="1738.9" x2="120.7" y2="1727.1"/>
<line class="st0" x1="170.5" y1="1492.8" x2="170.6" y2="1489.6"/>
<line class="st0" x1="170.5" y1="1492.8" x2="170.6" y2="1495.4"/>
<line class="st0" x1="120" y1="1711.5" x2="120.7" y2="1727.1"/>
<line class="st0" x1="120" y1="1711.5" x2="119.3" y2="1694.7"/>
<line class="st0" x1="118.5" y1="1677.4" x2="119.3" y2="1694.7"/>
<line class="st0" x1="118.5" y1="1677.4" x2="117.8" y2="1659.9"/>
<line class="st0" x1="117.1" y1="1642.5" x2="117.8" y2="1659.9"/>
<line class="st0" x1="117.1" y1="1642.5" x2="116.4" y2="1624.9"/>
<line class="st0" x1="115.8" y1="1607.3" x2="116.4" y2="1624.9"/>
<line class="st0" x1="115.6" y1="1436.3" x2="115.8" y2="1436"/>
<line class="st0" x1="115.6" y1="1436.3" x2="115.2" y2="1436.7"/>
<line class="st0" x1="115" y1="1437" x2="114" y2="1438.1"/>
<line class="st0" x1="119.3" y1="1433.3" x2="120.2" y2="1432.6"/>
<line class="st0" x1="113.1" y1="1449.1" x2="112.8" y2="1462"/>
<line class="st0" x1="112.5" y1="1477.9" x2="112.8" y2="1462"/>
<line class="st0" x1="112.5" y1="1477.9" x2="112.4" y2="1487"/>
<line class="st0" x1="162.1" y1="1746" x2="163.1" y2="1744.8"/>
<line class="st0" x1="170.1" y1="1499.8" x2="170.6" y2="1495.4"/>
<line class="st0" x1="113.1" y1="1450.6" x2="113.1" y2="1451.4"/>
<line class="st0" x1="113.1" y1="1451.6" x2="113.1" y2="1450.3"/>
<line class="st0" x1="171.2" y1="1485" x2="170.6" y2="1489.6"/>
<line class="st0" x1="123.8" y1="1747.4" x2="125.7" y2="1748"/>
<line class="st0" x1="123.8" y1="1747.4" x2="123" y2="1747"/>
<line class="st0" x1="129.3" y1="1748" x2="133.2" y2="1748"/>
<line class="st0" x1="129.3" y1="1748" x2="125.7" y2="1748"/>
<line class="st0" x1="137.2" y1="1748" x2="141.4" y2="1748"/>
<line class="st0" x1="137.2" y1="1748" x2="133.2" y2="1748"/>
<line class="st0" x1="145.7" y1="1748" x2="149.8" y2="1748"/>
<line class="st0" x1="145.7" y1="1748" x2="141.4" y2="1748"/>
<line class="st0" x1="153.8" y1="1748" x2="157.6" y2="1748"/>
<line class="st0" x1="153.8" y1="1748" x2="149.8" y2="1748"/>
<line class="st0" x1="159.9" y1="1747.4" x2="161.2" y2="1747"/>
<line class="st0" x1="159.9" y1="1747.4" x2="157.6" y2="1748"/>
</svg>
