<svg xmlns="http://www.w3.org/2000/svg" width="50.403" height="42" viewBox="0 0 50.403 42">
  <g id="Group_872" data-name="Group 872" transform="translate(-1.006 0.044)">
    <path id="Path_1482" data-name="Path 1482" d="M97.956,324.3a3.356,3.356,0,1,0,3.356,3.356A3.36,3.36,0,0,0,97.956,324.3Zm0,5.038a1.683,1.683,0,1,1,1.693-1.683A1.71,1.71,0,0,1,97.956,329.338Z" transform="translate(-84.384 -292.426)" fill="#353535"/>
    <path id="Path_1483" data-name="Path 1483" d="M354.156,324.3a3.356,3.356,0,1,0,3.356,3.356A3.36,3.36,0,0,0,354.156,324.3Zm0,5.038a1.683,1.683,0,1,1,1.693-1.683A1.71,1.71,0,0,1,354.156,329.338Z" transform="translate(-315.372 -292.426)" fill="#353535"/>
    <path id="Path_1484" data-name="Path 1484" d="M189.336,85.3a.836.836,0,0,0-.836.836v.836a.836.836,0,0,0,1.673,0v-.836A.83.83,0,0,0,189.336,85.3Z" transform="translate(-169.043 -76.945)" fill="#353535"/>
    <path id="Path_1485" data-name="Path 1485" d="M189.336,128a.836.836,0,0,0-.836.836V140.6a.836.836,0,0,0,1.673,0v-11.76A.83.83,0,0,0,189.336,128Z" transform="translate(-169.043 -115.443)" fill="#353535"/>
    <path id="Path_1486" data-name="Path 1486" d="M223.536,85.3a.836.836,0,0,0-.836.836v.836a.836.836,0,0,0,1.673,0v-.836A.836.836,0,0,0,223.536,85.3Z" transform="translate(-199.878 -76.945)" fill="#353535"/>
    <path id="Path_1487" data-name="Path 1487" d="M223.536,128a.836.836,0,0,0-.836.836V140.6a.836.836,0,0,0,1.673,0v-11.76A.836.836,0,0,0,223.536,128Z" transform="translate(-199.878 -115.443)" fill="#353535"/>
    <path id="Path_1488" data-name="Path 1488" d="M257.736,85.3a.836.836,0,0,0-.836.836v.836a.836.836,0,0,0,1.673,0v-.836A.836.836,0,0,0,257.736,85.3Z" transform="translate(-230.712 -76.945)" fill="#353535"/>
    <path id="Path_1489" data-name="Path 1489" d="M257.736,128a.836.836,0,0,0-.836.836V140.6a.836.836,0,0,0,1.673,0v-11.76A.836.836,0,0,0,257.736,128Z" transform="translate(-230.712 -115.443)" fill="#353535"/>
    <path id="Path_1490" data-name="Path 1490" d="M48.87,20.114h-.846V15.47a2.517,2.517,0,0,0-.266-1.132L45.416,9.664a.034.034,0,0,0-.01-.02l-1.2-2.411a2.488,2.488,0,0,0-2.254-1.388H34.592a1.682,1.682,0,0,0-1.683,1.683v.836H31.216V6.682a1.674,1.674,0,0,0-.836-1.447V2.568A2.652,2.652,0,0,0,29.474.561,2.483,2.483,0,0,0,27.5-.02L11.761,2.342a.848.848,0,0,0-.581.384L9.744,4.989H8.829A2.509,2.509,0,0,0,6.486,6.583L1.212,19.918A3.348,3.348,0,0,0,1.684,23.1L6.172,29c.02.02.039.049.059.069l.079.079a.856.856,0,0,0,.453.2h.089a.335.335,0,0,0,.1-.01.839.839,0,0,0,.472-.216h0l.03-.03.118-.118,1.112,1.663a6.713,6.713,0,1,0,11.563,5.422h1.742a1.682,1.682,0,0,0,1.683,1.683h5.048A1.682,1.682,0,0,0,30.4,36.056h1.742A6.716,6.716,0,1,0,44.452,31.6l2.263-2.254H48.89a2.524,2.524,0,0,0,2.519-2.519v-4.2A2.552,2.552,0,0,0,48.87,20.114Zm-4.724-9.24L46.263,15.1a.835.835,0,0,1,.089.374V17.29a7.09,7.09,0,0,0-4.2-1.378H38.784V10.874h5.363ZM41.952,7.518a.83.83,0,0,1,.748.463l.61,1.22H38.784A1.682,1.682,0,0,0,37.1,10.884v5.038a1.688,1.688,0,0,0,1.683,1.683h3.366c.167,0,4.2.039,4.2,3.356v6.721h-.492l-2.273-2.273a.843.843,0,0,0-.59-.246h-8.4V7.528h7.361ZM32.9,10.038V26.481l-1.191,1.191h-.492V10.038ZM20.647,27.672,18.61,25.645a1.675,1.675,0,0,0-1.191-.492H9.714a1.692,1.692,0,0,0-1.191.492l-.64.64.61-6.7.03-.177,1.968-4.487,1.722,2.293a2.456,2.456,0,0,0-.335,1.23,2.541,2.541,0,1,0,1.6-2.342l-2.214-2.952L14.1,6.682h15.44v20.99ZM14.408,17.6a.836.836,0,1,1-.836.836A.836.836,0,0,1,14.408,17.6ZM12.4,3.956,27.752,1.643a.817.817,0,0,1,.63.187.99.99,0,0,1,.325.738V5H11.741Zm-5.57,15.47-.62,6.859L3.023,22.092a1.632,1.632,0,0,1-.236-1.565L8.051,7.213a.831.831,0,0,1,.777-.531h3.454l-2.165,4.93-.925-1.23a.836.836,0,0,0-1.338,1l1.5,1.988L6.978,18.766a2.469,2.469,0,0,0-.148.659Zm6.741,20.843A5.038,5.038,0,1,1,18.61,35.23,5.042,5.042,0,0,1,13.572,40.268Zm10.087-4.2V32.711h5.048V35.23h0v.836ZM28.7,31.028H23.649a1.682,1.682,0,0,0-1.683,1.683v1.683H20.224A6.709,6.709,0,0,0,9.95,29.571L8.75,27.78l.945-.945H17.4l2.027,2.027a1.675,1.675,0,0,0,1.191.492H32.033a.826.826,0,0,0,.59-.246l1.683-1.683h0l.59-.59H42.6l2.1,2.1L43.31,30.319a6.707,6.707,0,0,0-11.238,4.074H30.331V32.711A1.611,1.611,0,0,0,28.7,31.028Zm10.087,9.24a5.038,5.038,0,1,1,5.038-5.038A5.042,5.042,0,0,1,38.784,40.268ZM49.707,26.836a.836.836,0,0,1-.836.836h-.846V21.8h.846a.836.836,0,0,1,.836.836Z" fill="#353535"/>
    <path id="Path_1491" data-name="Path 1491" d="M360.136,206.573h2.519a.836.836,0,0,0,0-1.673h-2.519a.836.836,0,0,0,0,1.673Z" transform="translate(-323.036 -184.776)" fill="#353535"/>
  </g>
</svg>
