<svg xmlns="http://www.w3.org/2000/svg" width="43.441" height="42" viewBox="0 0 43.441 42">
  <path id="Path_1460" data-name="Path 1460" d="M41.4,29.029a7.471,7.471,0,0,0-5.35-2.21,7.6,7.6,0,0,0-2.985.609l-7.436-7.436,9.873-9.8,2.334-.062a.841.841,0,0,0,.682-.4L41.861,4.1a.829.829,0,0,0-.124-1.012L38.845.195A.827.827,0,0,0,37.833.071L32.2,3.417a.817.817,0,0,0-.4.682L31.74,6.433l-9.852,9.832L15.144,9.51A7.56,7.56,0,0,0,3.505,1.93a.818.818,0,0,0-.217,1.146.836.836,0,0,0,.279.258l3.749,2.1c.826.475.991,1.88.32,3.067S5.684,10.3,4.848,9.841l-3.47-1.89a.833.833,0,0,0-1.126.33.844.844,0,0,0-.1.454,7.545,7.545,0,0,0,10.513,6.475l6.145,6.145L14.142,24.02l-.6-.6a1.721,1.721,0,0,0-2.386,0l-.826.826a1.652,1.652,0,0,0-.093,2.272h0L.469,36.268A1.649,1.649,0,0,0,.417,38.6l.052.052,2.788,2.788a1.649,1.649,0,0,0,2.334.052l.052-.052,9.78-9.77h0A1.652,1.652,0,0,0,17.7,31.58l.826-.826a1.649,1.649,0,0,0,.052-2.334l-.052-.052-.6-.6,2.644-2.706,8.014,8.014a7.552,7.552,0,0,0,12.847,6.537.831.831,0,0,0-.072-1.167.99.99,0,0,0-.3-.176l-4.647-1.25a1.508,1.508,0,0,1-.971-.95,3.081,3.081,0,0,1-.083-1.952c.351-1.3,1.446-2.22,2.375-1.973l4.606,1.239a.96.96,0,0,0,1.064-.816.877.877,0,0,0-.093-.392A7.759,7.759,0,0,0,41.4,29.029ZM33.134,7.352a.828.828,0,0,0,.238-.558l.062-2.21L38.122,1.8l1.983,1.983L37.379,8.457l-2.251.083a.856.856,0,0,0-.558.238L24.49,18.856l-1.425-1.425ZM4.476,40.275h0l-2.83-2.819,9.821-9.8,1.425,1.425,1.353,1.4Zm12.093-9.914h0l-1.095-1.095h0l-.423-.423-3.47-3.491.826-.826,4.957,5.019Zm.155-3.769L15.3,25.166,17.964,22.5l1.425,1.425Zm21.419,3.976a3.085,3.085,0,0,0-.754-.1,4.059,4.059,0,0,0-3.646,3.243,4.717,4.717,0,0,0,.155,3.016,3.151,3.151,0,0,0,2.076,1.9l3.078.826a5.905,5.905,0,0,1-8.768-6.434.807.807,0,0,0-.227-.764L11.426,13.62a.813.813,0,0,0-.971-.114A5.924,5.924,0,0,1,2.132,10.3l1.88,1.053a2.917,2.917,0,0,0,1.435.372,4.326,4.326,0,0,0,3.6-2.355c1.126-2,.682-4.4-.971-5.319L5.674,2.684a5.912,5.912,0,0,1,7.549,3.573,5.978,5.978,0,0,1,.2,3.325.807.807,0,0,0,.227.764L32.308,29a.815.815,0,0,0,.971.145,5.923,5.923,0,0,1,7.859,2.231Z" transform="translate(0.041 0.048)" fill="#353535"/>
</svg>
