<svg id="Group_867" data-name="Group 867" xmlns="http://www.w3.org/2000/svg" width="33.848" height="42" viewBox="0 0 33.848 42">
  <path id="Path_1470" data-name="Path 1470" d="M33.224,6.668a.62.62,0,0,0,.615-.615V.615A.62.62,0,0,0,33.224,0H27.787a.62.62,0,0,0-.615.615V.681H6.668V.615A.62.62,0,0,0,6.053,0H.615A.62.62,0,0,0,0,.615V6.053a.62.62,0,0,0,.615.615H.681V35.332H.615A.62.62,0,0,0,0,35.947v5.438A.62.62,0,0,0,.615,42H6.053a.62.62,0,0,0,.615-.615v-.066H27.18v.066a.62.62,0,0,0,.615.615h5.438a.62.62,0,0,0,.615-.615V35.947a.62.62,0,0,0-.615-.615h-.066V6.668ZM28.4,1.23h4.207V5.438h-2.1a2.1,2.1,0,0,1-2.1-2.1V1.23Zm-1.23.681V3.4H13.45a.615.615,0,1,0,0,1.23H27.434a3.373,3.373,0,0,0,1.78,1.78V35.6a3.356,3.356,0,0,0-1.772,1.763H6.4A3.328,3.328,0,0,0,4.626,35.6V6.405a3.345,3.345,0,0,0,1.78-1.78h4.478a.615.615,0,1,0,0-1.23H6.66V1.911ZM1.23,1.23H5.438v2.1a2.1,2.1,0,0,1-2.1,2.1H1.23Zm.681,5.438H3.4V35.332H1.911ZM5.438,40.762H1.23V36.554h2.1a2.1,2.1,0,0,1,2.1,2.1v2.108Zm1.23-.681V38.588H27.18v1.493Zm25.941.681H28.4v-2.1a2.1,2.1,0,0,1,2.1-2.1h2.1v4.2Zm-.681-5.438H30.444V6.66h1.493V35.324Zm0,0" fill="#353535"/>
  <path id="Path_1471" data-name="Path 1471" d="M365.379,33.44a.64.64,0,1,1-.64-.64.641.641,0,0,1,.64.64Zm0,0" transform="translate(-334.238 -30.11)" fill="#353535"/>
  <path id="Path_1472" data-name="Path 1472" d="M34.079,33.44a.64.64,0,1,1-.64-.64.641.641,0,0,1,.64.64Zm0,0" transform="translate(-30.11 -30.11)" fill="#353535"/>
  <path id="Path_1473" data-name="Path 1473" d="M365.379,464.24a.64.64,0,1,1-.64-.64.641.641,0,0,1,.64.64Zm0,0" transform="translate(-334.238 -425.578)" fill="#353535"/>
  <path id="Path_1474" data-name="Path 1474" d="M34.079,464.24a.64.64,0,1,1-.64-.64.641.641,0,0,1,.64.64Zm0,0" transform="translate(-30.11 -425.578)" fill="#353535"/>
</svg>
