<svg xmlns="http://www.w3.org/2000/svg" width="67.986" height="42" viewBox="0 0 67.986 42">
  <g id="Group_1277" data-name="Group 1277" transform="translate(0 0.03)" opacity="0.5">
    <path id="Path_1902" data-name="Path 1902" d="M64.894.023A13.519,13.519,0,0,0,50.329,10.845a43.265,43.265,0,0,0-.488,6.917V17.8c0,.732-.041,1.505-.041,2.238h.122v8.422A13.793,13.793,0,0,0,63.552,41.97h.041a13.7,13.7,0,0,0,13.67-13.386c.081-4.923.081-10.049,0-15.216A13.768,13.768,0,0,0,64.894.023ZM75.961,28.543a12.35,12.35,0,0,1-24.7-.041c-.081-5.33-.081-10.253,0-15.094a12.33,12.33,0,0,1,24.656.041c.041,1.749.041,3.5,0,5.208v4.638C75.961,25,76,26.794,75.961,28.543Z" transform="translate(-29.539 0)" fill="#353535"/>
    <path id="Path_1903" data-name="Path 1903" d="M82.592,24.2a.713.713,0,0,0-.692.692v4.679a.692.692,0,1,0,1.383,0V24.892A.713.713,0,0,0,82.592,24.2Z" transform="translate(-48.578 -14.372)" fill="#353535"/>
    <path id="Path_1904" data-name="Path 1904" d="M145.258,31.063a.611.611,0,0,0-1.058.448.853.853,0,0,0,.163.448l7.445,7.445-7.445,7.445a.612.612,0,0,0-.163.448.853.853,0,0,0,.163.448.589.589,0,0,0,.854,0l8.3-8.3Z" transform="translate(-85.531 -18.346)" fill="#353535"/>
    <path id="Path_1905" data-name="Path 1905" d="M8.3,31.016,0,39.275l8.3,8.3a.59.59,0,0,0,.854,0,.612.612,0,0,0,.163-.448.853.853,0,0,0-.163-.448l-7.445-7.4L9.154,31.83a.612.612,0,0,0,.163-.448.853.853,0,0,0-.163-.448A.682.682,0,0,0,8.3,31.016Z" transform="translate(0 -18.299)" fill="#353535"/>
  </g>
</svg>
