<svg xmlns="http://www.w3.org/2000/svg" viewBox="0 0 40.798 40.798">
  <defs>
    <style>
      .cls-1 {
        fill: #fff;
      }
    </style>
  </defs>
  <g id="Group_52" data-name="Group 52" transform="translate(-0.021 0.166)">
    <path id="Path_459" data-name="Path 459" class="cls-1" d="M3.28-.015l44.341-.2a3.244,3.244,0,0,1,3.265,3.265,3.317,3.317,0,0,1-3.3,3.3l-44.341.2A3.244,3.244,0,0,1-.015,3.28,3.317,3.317,0,0,1,3.28-.015Z" transform="translate(4.671 0.011) rotate(45)"/>
    <path id="Path_460" data-name="Path 460" class="cls-1" d="M3.294.015l44.317.2A3.331,3.331,0,0,1,50.92,3.529a3.257,3.257,0,0,1-3.279,3.279L3.324,6.6A3.331,3.331,0,0,1,.015,3.294,3.257,3.257,0,0,1,3.294.015Z" transform="translate(0 35.829) rotate(-45)"/>
  </g>
</svg>
