<svg id="Group_629" data-name="Group 629" xmlns="http://www.w3.org/2000/svg" viewBox="0 0 37.437 41.588">
  <defs>
    <style>
      .cls-1 {
        fill: #fff;
      }
    </style>
  </defs>
  <path id="Path_285" data-name="Path 285" class="cls-1" d="M311.268,244.1h-.69V239.2a5.2,5.2,0,1,0-10.4,0V244.1h-.69a.69.69,0,0,0-.69.69v7.627a4.156,4.156,0,0,0,4.159,4.159h4.849a4.156,4.156,0,0,0,4.159-4.159v-7.627A.7.7,0,0,0,311.268,244.1Zm-9.707-4.906a3.809,3.809,0,1,1,7.619,0V244.1h-7.627V239.2Zm9.008,13.224a2.768,2.768,0,0,1-2.77,2.77h-4.849a2.768,2.768,0,0,1-2.77-2.77v-6.929h10.4v6.929Z" transform="translate(-274.53 -214.993)"/>
  <path id="Path_286" data-name="Path 286" class="cls-1" d="M347.275,401.1H342.49a.69.69,0,0,0,0,1.381h4.784a.69.69,0,1,0,0-1.381Z" transform="translate(-314.037 -368.52)"/>
  <path id="Path_287" data-name="Path 287" class="cls-1" d="M347.275,443.7H342.49a.69.69,0,1,0,0,1.381h4.784a.69.69,0,1,0,0-1.381Z" transform="translate(-314.037 -407.66)"/>
  <path id="Path_288" data-name="Path 288" class="cls-1" d="M17.326,0H3.468A3.467,3.467,0,0,0,0,3.468V38.128a3.465,3.465,0,0,0,3.468,3.46H17.334A3.472,3.472,0,0,0,20.8,38.12V13.865h9.707a2.77,2.77,0,0,0,0-5.54H20.794V3.468A3.467,3.467,0,0,0,17.326,0ZM19.4,38.12A2.083,2.083,0,0,1,17.326,40.2H3.468A2.083,2.083,0,0,1,1.389,38.12V3.468A2.083,2.083,0,0,1,3.468,1.389H17.334a2.083,2.083,0,0,1,2.079,2.079V8.318H15.181A5.464,5.464,0,0,0,10.4,5.548a5.548,5.548,0,0,0,0,11.1,5.48,5.48,0,0,0,4.784-2.77h4.232V38.12ZM10.4,13.865h3.1a4.161,4.161,0,1,1-3.1-6.937,4.094,4.094,0,0,1,3.1,1.389H10.4a2.774,2.774,0,0,0,0,5.548Zm21.484-2.778a1.388,1.388,0,0,1-1.389,1.389H10.4a1.389,1.389,0,0,1,0-2.778H30.5A1.392,1.392,0,0,1,31.881,11.087Z"/>
  <path id="Path_289" data-name="Path 289" class="cls-1" d="M104.507,307.2a2.073,2.073,0,0,0-.69,4.029v2.209a.69.69,0,1,0,1.381,0v-2.209a2.073,2.073,0,0,0-.69-4.029Zm0,2.77a.69.69,0,1,1,.69-.69A.69.69,0,0,1,104.507,309.97Z" transform="translate(-94.11 -282.247)"/>
</svg>
