<svg xmlns="http://www.w3.org/2000/svg" xmlns:xlink="http://www.w3.org/1999/xlink" width="39" height="19" viewBox="0 0 39 19"><defs><path id="9uv6a" d="M181.556 1170.353c.4.143.764.37 1.069.675.543.543.836 1.26.836 2.024v1.767c0 .168.095.317.245.383a.945.945 0 0 0 1.056-.192l6.754-6.753c.37-.37.98-.37 1.35 0 .37.37.37.98 0 1.35l-3.918 3.917a.483.483 0 0 0-.095.543c.083.185.28.293.478.269l1.337-.138a.929.929 0 0 1 1.027.783l1.242 4.681c.09.335 0 .675-.239.914l-2.221 2.221a5.233 5.233 0 0 1-7.398 0 5.197 5.197 0 0 1-1.523-3.57zm-.257-1.04a.693.693 0 0 0-.693.694V1179.262l.006-.006a6.18 6.18 0 0 0 10.551 4.228l2.222-2.222a1.91 1.91 0 0 0 .49-1.839l-1.224-4.592a1.875 1.875 0 0 0-2.066-1.576l2.973-2.974c.74-.74.74-1.958 0-2.699a1.917 1.917 0 0 0-2.699 0l-6.437 6.425v-.955a3.809 3.809 0 0 0-2.968-3.72c-.047-.018-.101-.018-.155-.018z"/><path id="9uv6b" d="M204.786 1176.54h-4.861v-.955h4.86l-1.731-1.732.675-.675 2.884 2.884-2.878 2.879-.675-.675z"/><path id="9uv6c" d="M169.827 1175.579h4.86v.955h-4.86l1.732 1.732-.675.675-2.884-2.885 2.878-2.878.675.675z"/></defs><g><g transform="translate(-168 -1167)"><g opacity=".5"><use fill="#fff" xlink:href="#9uv6a"/></g><g opacity=".5"><use fill="#fff" xlink:href="#9uv6b"/></g><g opacity=".5"><use fill="#fff" xlink:href="#9uv6c"/></g></g></g></svg>