<svg xmlns="http://www.w3.org/2000/svg" width="517.025" height="689.367" viewBox="0 0 517.025 689.367">
  <g id="Group_987" data-name="Group 987" opacity="0.366">
    <path id="Path_439" data-name="Path 439" d="M41.2,511.576H349.08V34.4H41.2ZM43.738,36.938h302.8V508.784H43.738Z" transform="translate(63.373 52.91)" fill="#353535"/>
    <path id="Path_440" data-name="Path 440" d="M133.659,39.3H46.6V143.619h86.805V39.3ZM132.9,143.111H47.361V39.808h85.79v103.3Z" transform="translate(71.679 60.45)" fill="#353535"/>
    <path id="Path_441" data-name="Path 441" d="M171.905,39.3H85.1V143.619h86.805ZM171.4,143.111H85.607V39.808H171.4Z" transform="translate(130.898 60.45)" fill="#353535"/>
    <path id="Path_442" data-name="Path 442" d="M210.305,39.3H123.5V143.619h86.805ZM209.8,143.111h-85.79V39.808H209.8Z" transform="translate(189.964 60.45)" fill="#353535"/>
    <path id="Path_443" data-name="Path 443" d="M133.305,84.9H46.5V189.219h86.805ZM132.8,188.711H47.008V85.408H132.8Z" transform="translate(71.525 130.588)" fill="#353535"/>
    <path id="Path_444" data-name="Path 444" d="M171.959,84.9H84.9V189.219h86.805V84.9ZM171.2,188.711H85.661V85.408h85.79v103.3Z" transform="translate(130.59 130.588)" fill="#353535"/>
    <path id="Path_445" data-name="Path 445" d="M210.205,84.9H123.4V189.219h86.805Zm-.761,103.811h-85.79V85.408h85.79Z" transform="translate(189.81 130.588)" fill="#353535"/>
    <path id="Path_446" data-name="Path 446" d="M133.359,130.5H46.3V234.819h86.805V130.5ZM132.6,234.057H47.062V131.008h85.79v103.05Z" transform="translate(71.217 200.732)" fill="#353535"/>
    <path id="Path_447" data-name="Path 447" d="M171.759,130.5H84.7V234.819h87.059ZM171,234.057H85.461V131.008h85.79v103.05Z" transform="translate(130.283 200.732)" fill="#353535"/>
    <path id="Path_448" data-name="Path 448" d="M210.005,130.5H123.2V234.819h86.805ZM209.5,234.057h-85.79V131.008H209.5Z" transform="translate(189.502 200.732)" fill="#353535"/>
    <path id="Path_449" data-name="Path 449" d="M46.8,280.419h86.805V176.1H46.8Zm.761-103.811h85.79v103.05H47.562Z" transform="translate(71.986 270.871)" fill="#353535"/>
    <path id="Path_450" data-name="Path 450" d="M85.2,280.419h86.805V176.1H85.2Zm.761-103.811h85.79v103.05H85.961Z" transform="translate(131.052 270.871)" fill="#353535"/>
    <path id="Path_451" data-name="Path 451" d="M123.7,280.419h86.805V176.1H123.7Zm.508-103.811H210v103.05h-85.79Z" transform="translate(190.272 270.871)" fill="#353535"/>
    <path id="Path_452" data-name="Path 452" d="M177.691,124.8a6.176,6.176,0,0,0-6.092,6.092,5.92,5.92,0,0,0,3.3,5.33h.254v33.5a2.792,2.792,0,1,0,5.584,0v-33.5h.254a5.92,5.92,0,0,0,3.3-5.33A7.035,7.035,0,0,0,177.691,124.8Zm1.523,45.179a1.523,1.523,0,1,1-3.046,0V134.191a1.523,1.523,0,1,1,3.046,0v35.788Zm1.269-35.027v-.508a2.792,2.792,0,1,0-5.584,0v.508a4.932,4.932,0,0,1-2.031-4.061,4.819,4.819,0,0,1,4.823-4.823,4.992,4.992,0,0,1,4.823,4.823A5.3,5.3,0,0,1,180.483,134.953Z" transform="translate(263.95 191.963)" fill="#353535"/>
    <path id="Path_453" data-name="Path 453" d="M517.025,659.671H506.618l-5.33-5.33.254-.254-5.838-5.838v-.254l-40.1-40.357V44.164h-.254l40.611-40.1V647.995l3.807,3.808V0H20.305V647.741L7.615,659.671H0v10.914H18.529v18.782H500.781V670.585h16.244ZM498.5,686.829H21.067V671.854H498.243v14.975ZM64.469,46.449,88.836,72.084V580.733L64.469,606.115ZM427.935,581.495l25.128,25.382H65.485L90.1,581.495ZM90.866,579.718V73.1H426.92V579.718Zm338.084.761V72.084l25.382-26.4V606.115ZM427.935,71.323H89.851L65.231,45.687H452.3Zm-407.63,578.7,3.807-3.553,39.6-37.311,390.37-.254,40.1,40.357h0l3.807,3.807h0l5.584,5.584-491.643-.761Zm43.4-605.861L24.62,3.807H495.2L454.078,44.164ZM24.113,4.315,63.2,44.672V607.13h-.254L24.113,643.68ZM227.166,659.163c92.643.254,185.286.254,277.929.508h0C412.452,659.417,319.809,659.417,227.166,659.163Z" transform="translate(0 0)" fill="#353535"/>
  </g>
</svg>
