<svg xmlns="http://www.w3.org/2000/svg" width="19.5" height="18.691" viewBox="0 0 19.5 18.691">
  <path id="Path_491" data-name="Path 491" d="M19.086,8.469a1.4,1.4,0,0,0-.776-2.387l-4.725-.688a.625.625,0,0,1-.464-.337L11.012.781A1.4,1.4,0,0,0,8.5.781L6.394,5.062A.616.616,0,0,1,5.93,5.4L1.2,6.087A1.4,1.4,0,0,0,.434,8.474L3.851,11.8a.615.615,0,0,1,.176.547l-.805,4.706A1.4,1.4,0,0,0,5.247,18.53l4.223-2.221a.631.631,0,0,1,.576,0l4.223,2.221a1.424,1.424,0,0,0,.654.161A1.4,1.4,0,0,0,16.3,17.056l-.81-4.706a.618.618,0,0,1,.181-.547Zm-4.369,4.008.805,4.7a.616.616,0,0,1-.244.605.6.6,0,0,1-.649.044l-4.223-2.221a1.39,1.39,0,0,0-.649-.161,1.409,1.409,0,0,0-.654.161L4.881,17.827a.613.613,0,0,1-.893-.649l.805-4.7a1.4,1.4,0,0,0-.405-1.24L.971,7.908a.612.612,0,0,1-.156-.635.6.6,0,0,1,.5-.42l4.72-.688A1.4,1.4,0,0,0,7.087,5.4L9.2,1.123a.62.62,0,0,1,1.108,0L12.418,5.4a1.391,1.391,0,0,0,1.054.766l4.72.688a.6.6,0,0,1,.5.42.617.617,0,0,1-.156.635l-3.417,3.329a1.408,1.408,0,0,0-.4,1.24Zm0,0" transform="translate(-0.008)" fill="#888"/>
</svg>
