<svg xmlns="http://www.w3.org/2000/svg" width="26.551" height="24.606" viewBox="0 0 26.551 24.606">
  <g id="download" transform="translate(0 -17.25)">
    <g id="Group_12911" data-name="Group 12911" transform="translate(0 17.25)">
      <path id="Path_1297" data-name="Path 1297" d="M25.79,228.263a.758.758,0,0,0-.761.761v6.919a3.414,3.414,0,0,1-3.409,3.409H4.93a3.414,3.414,0,0,1-3.409-3.409v-7.032a.761.761,0,0,0-1.521,0v7.032a4.936,4.936,0,0,0,4.93,4.93H21.62a4.936,4.936,0,0,0,4.93-4.93v-6.919A.761.761,0,0,0,25.79,228.263Z" transform="translate(0 -216.266)" fill="#fff"/>
      <path id="Path_1298" data-name="Path 1298" d="M141.289,35.816a.766.766,0,0,0,.535.225.742.742,0,0,0,.535-.225l4.835-4.835a.761.761,0,0,0-1.076-1.076l-3.533,3.539V18.011a.761.761,0,1,0-1.521,0V33.444l-3.539-3.539a.761.761,0,1,0-1.076,1.076Z" transform="translate(-128.549 -17.25)" fill="#fff"/>
    </g>
  </g>
</svg>
