<svg class="wind" xmlns="http://www.w3.org/2000/svg" width="444" height="618.061" viewBox="-5 -15 458 628.061">
						<g id="window" transform="translate(-10.5 -147.439)">
							<rect class="part part3 part4 center" id="Rectangle_1301" data-name="Rectangle 1301" width="336" height="484" transform="translate(66 187)" fill="none" stroke="#353535" stroke-width="1"/>
							<g class="dn12 under" id="Rectangle_1305" data-name="Rectangle 1305" transform="translate(26 724)" fill="none" stroke="#353535" stroke-width="1">
								<rect width="417" height="17" stroke="none"/>
								<rect x="0.5" y="0.5" width="416" height="16" fill="none"/>
							</g>
							<g id="center" class="op1">
								<g id="Rectangle_1303" data-name="Rectangle 1303" transform="translate(83 204)" fill="none" stroke="#353535" stroke-width="1">
									<rect width="302" height="450" stroke="none"/>
									<rect x="0.5" y="0.5" width="301" height="449" fill="none"/>
								</g>
								<g id="Rectangle_1304" data-name="Rectangle 1304" transform="translate(89 210)" fill="none" stroke="#353535" stroke-width="1">
									<rect width="290" height="438" stroke="none"/>
									<rect x="0.5" y="0.5" width="289" height="437" fill="none"/>
								</g>
								<path id="Path_452" data-name="Path 452" d="M176.257,124.8a4.722,4.722,0,0,0-4.657,4.657,4.526,4.526,0,0,0,2.523,4.075h.194v25.616a2.135,2.135,0,1,0,4.269,0V133.533h.194a4.526,4.526,0,0,0,2.523-4.075A5.379,5.379,0,0,0,176.257,124.8Zm1.164,34.543a1.164,1.164,0,1,1-2.329,0V131.98a1.164,1.164,0,0,1,2.329,0v27.362Zm.97-26.78v-.388a2.135,2.135,0,1,0-4.269,0v.388a3.771,3.771,0,0,1-1.552-3.1,3.685,3.685,0,0,1,3.687-3.687,3.817,3.817,0,0,1,3.687,3.687A4.051,4.051,0,0,1,178.392,132.562Z" transform="translate(216.955 285.717)" fill="#353535"/>
							</g>
							<g id="Group_788" data-name="Group 788">
								<path class="part left part3 part4 part5" id="Path_1289" data-name="Path 1289" d="M-7342.632-7748.813V-8233.05l-38.108-37.871v558.969l38.108-36.861Z" transform="translate(7408.704 8420.271)" fill="none" stroke="#353535" stroke-linejoin="round" stroke-width="1"/>
								<path class="part part3 part4 top part5" id="Path_1290" data-name="Path 1290" d="M-7344.982-8233.442l-36.222-37.176,410.133-.473-38.052,37.591Z" transform="translate(7410.299 8420.442)" fill="none" stroke="#353535" stroke-width="1"/>
								<path  class="part part3 part4 right part5" id="Path_1294" data-name="Path 1294" d="M-7342.632-7748.813V-8233.05l-38.108-37.871v558.969l38.108-36.861Z" transform="translate(-6940.668 -7562.602) rotate(180)" fill="none" stroke="#353535" stroke-linejoin="round" stroke-width="1"/>
								<g id="down" class="part down">
									<g class="block3" id="Rectangle_1302" data-name="Rectangle 1302" transform="translate(11 715)" fill="#353535" stroke="#353535" stroke-width="1">
										<rect width="443" height="10" stroke="none"/>
										<rect x="0.5" y="0.5" width="442" height="9" fill="none"/>
									</g>
									<path class="part3 block4" id="Path_1293" data-name="Path 1293" d="M-7390.412-7704.537l46.1-44.463,335.052-.01,43.8,44.382" transform="translate(7411 8420)" fill="none" stroke="#353535" stroke-width="2"/>
								</g>
							</g>
							<line class="dc1 dn2 line" id="Line_207" data-name="Line 207" y2="484" transform="translate(130.5 187.5)" fill="none" stroke="#353535" stroke-width="2"/>
							<line class="dn1 dc2 line" id="Line_208" data-name="Line 208" x2="336" transform="translate(66.5 606.5)" fill="none" stroke="#353535" stroke-width="2"/>
							<line class="dn line4" id="Line_209" data-name="Line 209" x2="44" y2="44" transform="translate(401.5 670.5)" fill="none" stroke="#C351E7" stroke-width="3"/>
							<line class="dn line5" id="Line_210" data-name="Line 210" y1="39" x2="39" transform="translate(401.5 148.5)" fill="none" stroke="#C351E7" stroke-width="3"/>
							<g id="max-down" class="dn12">
								<g id="Group_786" data-name="Group 786">
									<line class="line3" id="Line_211" data-name="Line 211" y2="5" transform="translate(11.5 729.5)" fill="none" stroke="#353535" stroke-width="1"/>
									<line class="line3" id="Line_212" data-name="Line 212" y2="5" transform="translate(11.5 739.5)" fill="none" stroke="#353535" stroke-width="1"/>
									<line class="line3" id="Line_213" data-name="Line 213" y2="5" transform="translate(11.5 749.5)" fill="none" stroke="#353535" stroke-width="1"/>
									<line class="line3" id="Line_214" data-name="Line 214" y2="5" transform="translate(11.5 759.5)" fill="none" stroke="#353535" stroke-width="1"/>
								</g>
								<g id="Group_787" data-name="Group 787">
									<line class="line3" id="Line_215" data-name="Line 215" y2="5" transform="translate(453.5 729.5)" fill="none" stroke="#353535" stroke-width="1"/>
									<line class="line3" id="Line_216" data-name="Line 216" y2="5" transform="translate(453.5 739.5)" fill="none" stroke="#353535" stroke-width="1"/>
									<line class="line3" id="Line_217" data-name="Line 217" y2="5" transform="translate(453.5 749.5)" fill="none" stroke="#353535" stroke-width="1"/>
									<line class="line3" id="Line_218" data-name="Line 218" y2="5" transform="translate(453.5 759.5)" fill="none" stroke="#353535" stroke-width="1"/>
								</g>
								<line class="line3" id="Line_219" data-name="Line 219" x2="442" transform="translate(11.5 764.5)" fill="none" stroke="#353535" stroke-linecap="square" stroke-width="2"/>
							</g>							
						</g>
					</svg>