<svg id="Group_426" data-name="Group 426" xmlns="http://www.w3.org/2000/svg" width="26.654" height="26.654" viewBox="0 0 26.654 26.654">
  <path id="Path_323" data-name="Path 323" d="M26.217,496.264H.432a.432.432,0,0,1,0-.864h25.79a.431.431,0,0,1,.432.432A.435.435,0,0,1,26.217,496.264Z" transform="translate(0 -469.615)" fill="#353535"/>
  <path id="Path_324" data-name="Path 324" d="M100.129,78.786a.431.431,0,0,1-.432-.432V55.864H83.364v22.5a.432.432,0,0,1-.864,0V55.432A.431.431,0,0,1,82.932,55h17.191a.431.431,0,0,1,.432.432V78.354A.43.43,0,0,1,100.129,78.786Z" transform="translate(-78.206 -52.137)" fill="#353535"/>
  <path id="Path_325" data-name="Path 325" d="M24.785,3.727H1.863A1.842,1.842,0,0,1,0,1.863V1A1,1,0,0,1,1,0H25.649a1,1,0,0,1,1,1v.859A1.842,1.842,0,0,1,24.785,3.727ZM1,.859A.149.149,0,0,0,.859,1v.859a1,1,0,0,0,1,1H24.785a1,1,0,0,0,1-1V1a.149.149,0,0,0-.146-.146Z" fill="#353535"/>
  <path id="Path_326" data-name="Path 326" d="M468.332,65.894a.431.431,0,0,1-.432-.432V55.432a.432.432,0,1,1,.864,0v10.03A.431.431,0,0,1,468.332,65.894Z" transform="translate(-443.547 -52.137)" fill="#353535"/>
  <path id="Path_327" data-name="Path 327" d="M75.491,83.364H55.432a.432.432,0,0,1,0-.864H75.491a.431.431,0,0,1,.432.432A.438.438,0,0,1,75.491,83.364Z" transform="translate(-52.137 -78.206)" fill="#353535"/>
  <path id="Path_328" data-name="Path 328" d="M75.491,110.864H55.432a.432.432,0,1,1,0-.864H75.491a.431.431,0,0,1,.432.432A.438.438,0,0,1,75.491,110.864Z" transform="translate(-52.137 -104.275)" fill="#353535"/>
  <path id="Path_329" data-name="Path 329" d="M75.491,138.464H55.432a.432.432,0,1,1,0-.864H75.491a.432.432,0,1,1,0,.864Z" transform="translate(-52.137 -130.438)" fill="#353535"/>
  <path id="Path_330" data-name="Path 330" d="M75.491,165.964H55.432a.432.432,0,0,1,0-.864H75.491a.432.432,0,0,1,0,.864Z" transform="translate(-52.137 -156.507)" fill="#353535"/>
  <path id="Path_331" data-name="Path 331" d="M138.032,64.457a.431.431,0,0,1-.432-.432V55.432a.432.432,0,1,1,.864,0v8.6A.43.43,0,0,1,138.032,64.457Z" transform="translate(-130.438 -52.137)" fill="#353535"/>
  <path id="Path_332" data-name="Path 332" d="M358.232,64.457a.431.431,0,0,1-.432-.432V55.432a.432.432,0,0,1,.864,0v8.6A.43.43,0,0,1,358.232,64.457Z" transform="translate(-339.177 -52.137)" fill="#353535"/>
  <path id="Path_333" data-name="Path 333" d="M248.132,64.457a.431.431,0,0,1-.432-.432V55.432a.432.432,0,1,1,.864,0v8.6A.43.43,0,0,1,248.132,64.457Z" transform="translate(-234.808 -52.137)" fill="#353535"/>
  <path id="Path_334" data-name="Path 334" d="M75.491,193.464H55.432a.432.432,0,0,1,0-.864H75.491a.432.432,0,0,1,0,.864Z" transform="translate(-52.137 -182.576)" fill="#353535"/>
  <path id="Path_335" data-name="Path 335" d="M75.491,220.964H55.432a.432.432,0,1,1,0-.864H75.491a.432.432,0,1,1,0,.864Z" transform="translate(-52.137 -208.644)" fill="#353535"/>
  <path id="Path_336" data-name="Path 336" d="M138.127,278.927a.426.426,0,0,1-.3-.125.434.434,0,0,1,0-.609l2.868-2.868a.431.431,0,1,1,.609.609l-2.868,2.868A.447.447,0,0,1,138.127,278.927Z" transform="translate(-130.533 -260.876)" fill="#353535"/>
  <path id="Path_337" data-name="Path 337" d="M138.127,281.889a.425.425,0,0,1-.3-.125.434.434,0,0,1,0-.609l5.73-5.73a.431.431,0,1,1,.609.609l-5.736,5.73A.425.425,0,0,1,138.127,281.889Z" transform="translate(-130.533 -260.971)" fill="#353535"/>
</svg>
