<svg id="Group_355" data-name="Group 355" xmlns="http://www.w3.org/2000/svg" width="24.652" height="24.653" viewBox="0 0 24.652 24.653">
  <path id="Path_425" data-name="Path 425" d="M24.291,17.749h-6.5l5.786-2.956a.361.361,0,0,0,.157-.486l-1.313-2.569a.361.361,0,1,0-.643.329l1.148,2.247-9.405,4.805h0l-6.949,3.55c.019-.039.037-.078.054-.119a.355.355,0,0,0,.207-.139L8.07,20.7l.045.087a.361.361,0,0,0,.211.179.35.35,0,0,0,.111.017.358.358,0,0,0,.164-.04l3.13-1.6a.361.361,0,0,0,.157-.486l-1.029-2.015.6-.832L12.7,18.447a.361.361,0,0,0,.486.157l3.13-1.6a.361.361,0,0,0,.157-.486l-1.6-3.13a.361.361,0,0,0-.486-.157l-1.455.743.787-1.088,6.723-3.435.7,1.361a.361.361,0,1,0,.643-.329L20.923,8.8a.361.361,0,0,0-.486-.157L14.651,11.6l3.807-5.265a.361.361,0,0,0-.081-.5L13.367,2.211a.361.361,0,0,0-.5.081L6.9,10.535V.361A.361.361,0,0,0,6.542,0H.361A.361.361,0,0,0,0,.361V14.17a.361.361,0,1,0,.722,0V3.5H6.181V21.2a2.729,2.729,0,1,1-5.459,0V15.639a.361.361,0,0,0-.722,0V21.2a3.456,3.456,0,0,0,3.452,3.452h20.84a.361.361,0,0,0,.361-.361V18.11a.361.361,0,0,0-.361-.361Zm-10.627,2.11.107-.054h2.686V22.6H13.664ZM8.512,22.491,11.3,21.064V22.6H8.512ZM6.9,14.045l.019-.026,2.263,1.636L7.549,17.918,6.9,17.452V14.045Zm4.178,4.826L8.594,20.141l-.048-.094,1.838-2.541Zm1.1-3.7L14.4,14.04l1.271,2.487L13.182,17.8,11.987,15.46a.377.377,0,0,0-.062-.087l.117-.162a.367.367,0,0,0,.138-.039ZM13.24,3.007l4.424,3.2L6.9,21.086V18.343l.515.372a.359.359,0,0,0,.211.069.465.465,0,0,0,.057,0,.36.36,0,0,0,.235-.145l2.06-2.848a.361.361,0,0,0-.081-.5l-2.848-2.06A.352.352,0,0,0,6.9,13.16V11.769ZM.722,2.782V.722H6.181v2.06ZM23.93,23.93H5.7L7.79,22.86v.1a.361.361,0,0,0,.361.361h3.515a.361.361,0,0,0,.361-.361V20.695l.915-.468v2.73a.361.361,0,0,0,.361.361h3.515a.361.361,0,0,0,.361-.361V19.442a.361.361,0,0,0-.361-.361H15.185l1.2-.611h7.55Zm0,0" fill="#fff"/>
  <path id="Path_426" data-name="Path 426" d="M300.991,321.287h3.515a.361.361,0,0,0,.361-.361v-3.515a.361.361,0,0,0-.361-.361h-3.515a.361.361,0,0,0-.361.361v3.515a.361.361,0,0,0,.361.361Zm.361-3.515h2.793v2.793h-2.793Zm0,0" transform="translate(-282.536 -297.968)" fill="#fff"/>
  <path id="Path_427" data-name="Path 427" d="M263.395,180.284l-3.13,1.6a.36.36,0,0,0-.157.486l1.6,3.13a.361.361,0,0,0,.486.157l3.13-1.6a.361.361,0,0,0,.157-.486l-1.6-3.13a.362.362,0,0,0-.486-.157Zm-1.209,4.565-1.271-2.487,2.487-1.271,1.271,2.487Zm0,0" transform="translate(-244.416 -169.396)" fill="#fff"/>
  <path id="Path_428" data-name="Path 428" d="M173.915,83.314l2.848,2.06a.361.361,0,0,0,.5-.081l2.06-2.848a.361.361,0,0,0-.081-.5l-2.848-2.06a.361.361,0,0,0-.5.081l-2.06,2.848a.361.361,0,0,0,.081.5Zm2.352-2.636,2.263,1.636-1.637,2.263-2.263-1.636Zm0,0" transform="translate(-163.307 -75.009)" fill="#fff"/>
  <path id="Path_429" data-name="Path 429" d="M123.753,152.673l2.848,2.06a.36.36,0,0,0,.5-.081l2.06-2.848a.361.361,0,0,0-.081-.5l-2.848-2.06a.361.361,0,0,0-.5.081l-2.06,2.848a.362.362,0,0,0,.082.5Zm2.353-2.636,2.263,1.636-1.636,2.263-2.263-1.636Zm0,0" transform="translate(-116.164 -140.193)" fill="#fff"/>
  <path id="Path_430" data-name="Path 430" d="M31.965,160.23a.361.361,0,0,0-.361.361v.843h-.843a.361.361,0,1,0,0,.722H31.6V163a.361.361,0,0,0,.722,0v-.843h.843a.361.361,0,1,0,0-.722h-.843v-.843a.361.361,0,0,0-.361-.361Zm0,0" transform="translate(-28.57 -150.586)" fill="#fff"/>
  <path id="Path_431" data-name="Path 431" d="M27.526,315.1a1.756,1.756,0,1,0,1.756,1.756,1.758,1.758,0,0,0-1.756-1.756Zm0,2.806a1.05,1.05,0,1,1,1.05-1.05,1.052,1.052,0,0,1-1.05,1.05Zm0,0" transform="translate(-24.219 -296.135)" fill="#fff"/>
</svg>
