<svg id="Layer_1" data-name="Layer 1" xmlns="http://www.w3.org/2000/svg" viewBox="0 0 82.63 24.46"><defs><style>.cls-1{fill:#353435;}</style></defs><title>logo3</title><path class="cls-1" d="M181.87,199.56H171.78a.83.83,0,0,1-.83-.83h0V188.64a.84.84,0,0,1,.83-.82h10.09a.82.82,0,0,1,.82.82v10.09A.84.84,0,0,1,181.87,199.56Zm-9.76-1.16h9.43V189h-9.43Z" transform="translate(-158.18 -187.77)"/><rect class="cls-1" x="13.31" y="5.34" width="10.67" height="1.16"/><rect class="cls-1" x="18.07" y="5.79" width="1.16" height="5.36"/><path class="cls-1" d="M181.78,199.56H171.69a.83.83,0,0,1-.83-.83h0V188.64a.84.84,0,0,1,.83-.82h10.09a.82.82,0,0,1,.82.82v10.09A.84.84,0,0,1,181.78,199.56ZM172,198.4h9.43V189H172Z" transform="translate(-158.18 -187.77)"/><rect class="cls-1" x="13.22" y="5.34" width="10.67" height="1.16"/><rect class="cls-1" x="17.98" y="5.79" width="1.16" height="5.36"/><path class="cls-1" d="M169.11,199.51H159a.82.82,0,0,1-.82-.82V188.6a.84.84,0,0,1,.82-.83h10.11a.83.83,0,0,1,.83.83h0v10.09A.84.84,0,0,1,169.11,199.51Zm-9.76-1.15h9.43v-9.43h-9.43Z" transform="translate(-158.18 -187.77)"/><rect class="cls-1" x="5.31" y="0.54" width="1.16" height="10.67"/><rect class="cls-1" x="5.75" y="5.3" width="5.36" height="1.16"/><path class="cls-1" d="M169.11,199.6H159a.82.82,0,0,1-.82-.82V188.69a.84.84,0,0,1,.82-.83h10.11a.83.83,0,0,1,.83.83h0v10.09A.84.84,0,0,1,169.11,199.6Zm-9.76-1.15h9.43V189h-9.43Z" transform="translate(-158.18 -187.77)"/><rect class="cls-1" x="5.31" y="0.63" width="1.16" height="10.67"/><rect class="cls-1" x="5.75" y="5.38" width="5.36" height="1.16"/><path class="cls-1" d="M169.11,212.23H159a.84.84,0,0,1-.82-.83V201.31a.82.82,0,0,1,.82-.82h10.11a.84.84,0,0,1,.83.82V211.4a.83.83,0,0,1-.83.83Zm-9.76-1.16h9.43v-9.43h-9.43Z" transform="translate(-158.18 -187.77)"/><rect class="cls-1" x="0.55" y="18.01" width="10.67" height="1.16"/><rect class="cls-1" x="5.31" y="13.36" width="1.16" height="5.36"/><path class="cls-1" d="M181.82,212.23H171.74a.83.83,0,0,1-.83-.83h0V201.31a.84.84,0,0,1,.83-.82h10.08a.84.84,0,0,1,.83.82V211.4a.83.83,0,0,1-.83.83Zm-9.76-1.16h9.43v-9.43h-9.43Z" transform="translate(-158.18 -187.77)"/><rect class="cls-1" x="18.02" y="13.25" width="1.16" height="10.67"/><rect class="cls-1" x="13.38" y="18.01" width="5.36" height="1.16"/><path class="cls-1" d="M188,191.24h7.1v8.51h-1.84v-6.82H189.9v6.82H188Z" transform="translate(-158.18 -187.77)"/><path class="cls-1" d="M197.18,191.24h3.47a2.94,2.94,0,0,1,3.26,3c0,2-1.53,3-3.44,3h-1.42v2.55h-1.87Zm3.35,4.29a1.32,1.32,0,0,0,1.46-1.18.57.57,0,0,0,0-.13c0-.84-.59-1.29-1.52-1.29h-1.43v2.6Z" transform="translate(-158.18 -187.77)"/><path class="cls-1" d="M204.92,195.5a4.53,4.53,0,1,1,4.66,4.4h-.14a4.41,4.41,0,0,1-4.52-4.3Zm7.09,0a2.59,2.59,0,0,0-2.5-2.68h-.07a2.56,2.56,0,0,0-2.56,2.56v.12a2.58,2.58,0,0,0,2.49,2.67h.09a2.54,2.54,0,0,0,2.54-2.56v-.11Z" transform="translate(-158.18 -187.77)"/><path class="cls-1" d="M215.26,195.5a4.34,4.34,0,0,1,4.27-4.41h.17a4.29,4.29,0,0,1,3.3,1.39l-1.12,1.29a2.94,2.94,0,0,0-2.19-1,2.52,2.52,0,0,0-2.47,2.58v.1a2.53,2.53,0,0,0,2.37,2.67h.1a3.09,3.09,0,0,0,2.24-1l1.19,1.27a4.54,4.54,0,0,1-7.86-2.95Z" transform="translate(-158.18 -187.77)"/><path class="cls-1" d="M226.6,193H224v-1.76h7V193h-2.53v6.78H226.6Z" transform="translate(-158.18 -187.77)"/><path class="cls-1" d="M231.75,195.5a4.53,4.53,0,1,1,4.66,4.4h-.14a4.41,4.41,0,0,1-4.52-4.3Zm7.1,0a2.6,2.6,0,0,0-2.52-2.68h-.06a2.56,2.56,0,0,0-2.56,2.56v.12a2.58,2.58,0,0,0,2.49,2.67h.09a2.54,2.54,0,0,0,2.56-2.54Z" transform="translate(-158.18 -187.77)"/><path class="cls-1" d="M187.6,206a3.15,3.15,0,1,1,0,.05Zm5.55,0a2.48,2.48,0,1,0,0,.1Z" transform="translate(-158.18 -187.77)"/><path class="cls-1" d="M195.33,202.91H196v3.67l3.53-3.67h.89l-2.63,2.68,2.74,3.46h-.86l-2.36-3L196,207.4v1.65h-.69Z" transform="translate(-158.18 -187.77)"/><path class="cls-1" d="M201.63,202.91h.7v2.73h3.54v-2.73h.69v6.14h-.69v-2.76h-3.54v2.76h-.7Z" transform="translate(-158.18 -187.77)"/><path class="cls-1" d="M210.57,202.87h.65l2.78,6.18h-.74l-.72-1.62h-3.33l-.73,1.62h-.71Zm1.71,3.93-1.4-3.13-1.4,3.13Z" transform="translate(-158.18 -187.77)"/></svg>