<svg xmlns="http://www.w3.org/2000/svg" width="21.183" height="29.527" viewBox="0 0 21.183 29.527">
  <path id="Path_433" data-name="Path 433" d="M908.589,21.365a7.678,7.678,0,0,0-7.384-7.541,6.984,6.984,0,0,0-3.548.976.707.707,0,1,0,.719,1.218,5.57,5.57,0,0,1,2.828-.779c3.292,0,5.974,2.939,5.981,6.551a.707.707,0,0,0,.388.63,5.579,5.579,0,0,1,2.916,5,5.4,5.4,0,0,1-4.255,5.44.707.707,0,0,0-.522.391,5.146,5.146,0,0,1-3.692,2.914V29.905l3.48-3.2a.707.707,0,0,0-.957-1.041l-2.523,2.32V23.263a.707.707,0,0,0-1.414,0v8.56l-2.523-2.32a.707.707,0,0,0-.957,1.041l3.481,3.2V36.2a5.118,5.118,0,0,1-3.927-2.988.707.707,0,0,0-.492-.39,5.4,5.4,0,0,1-4.05-5.4,5.569,5.569,0,0,1,2.73-4.9.707.707,0,0,0,.36-.625c0-.02,0-.039,0-.058s0-.022,0-.034a6.912,6.912,0,0,1,1.257-4.025.707.707,0,0,0-1.154-.818,8.293,8.293,0,0,0-1.513,4.545,7.023,7.023,0,0,0-3.093,5.915,6.856,6.856,0,0,0,4.832,6.7,6.463,6.463,0,0,0,5.052,3.5v4.317h-6.387a.707.707,0,1,0,0,1.414h13.953a.707.707,0,1,0,0-1.414H902.02V37.595a6.486,6.486,0,0,0,4.8-3.411,6.347,6.347,0,0,0,3.533-2.259,7.241,7.241,0,0,0,1.549-4.506A7.051,7.051,0,0,0,908.589,21.365Z" transform="translate(-890.722 -13.824)" fill="#fff"/>
</svg>
