<svg id="Layer_1" data-name="Layer 1" xmlns="http://www.w3.org/2000/svg" xmlns:xlink="http://www.w3.org/1999/xlink" viewBox="0 0 151.51 151.51"><defs><style>.cls-1{fill:url(#Degradado_sin_nombre_5);}.cls-2{fill:#b8daec;}.cls-3{fill:#88cde3;}.cls-4{fill:#e7f7fc;}</style><linearGradient id="Degradado_sin_nombre_5" x1="22.19" y1="22.19" x2="129.32" y2="129.32" gradientUnits="userSpaceOnUse"><stop offset="0" stop-color="#00b0e7"/><stop offset="1" stop-color="#0094d6"/></linearGradient></defs><title>telegram</title><circle class="cls-1" cx="75.76" cy="75.76" r="75.76"/><polygon class="cls-2" points="50.68 81.83 59.4 105.47 98.08 51.74 50.68 81.83"/><polygon class="cls-3" points="60.35 87.08 59.52 105.71 79.93 88.39 60.35 87.08"/><path class="cls-4" d="M231.59,166.75l-76.24,29a2.46,2.46,0,0,0,.08,4.63L175.1,207l44.77-28.89-35.46,33.07,27.6,21a5,5,0,0,0,7.91-2.79l14.93-59.69A2.46,2.46,0,0,0,231.59,166.75Z" transform="translate(-124.06 -124.09)"/></svg>