<?xml version="1.0" encoding="utf-8"?>
<!-- Generator: Adobe Illustrator 22.1.0, SVG Export Plug-In . SVG Version: 6.00 Build 0)  -->
<svg version="1.1" id="Слой_1" xmlns="http://www.w3.org/2000/svg" xmlns:xlink="http://www.w3.org/1999/xlink" x="0px" y="0px"
	 width="18px" height="18px" viewBox="0 0 18 18" style="enable-background:new 0 0 18 18;" xml:space="preserve">
<style type="text/css">
	.st0{fill:#FFFFFF;}
	.st1{opacity:0.5;fill:#FFFFFF;}
	.st2{opacity:0.5;}
</style>
<g>
	<path class="st0" d="M18,6.7c-0.1,0.3-0.2,0.6-0.4,0.9c-0.3,0.4-0.8,0.6-1.3,0.6c-1.6,0-3.2,0-4.8,0c-0.8,0-1.4-0.5-1.6-1.3
		c0-0.2-0.1-0.3-0.1-0.5c0-1.6,0-3.2,0-4.7c0-0.7,0.3-1.2,0.9-1.5C11,0.1,11.3,0,11.5,0c1.6,0,3.2,0,4.8,0c0.9,0,1.5,0.6,1.7,1.4
		c0,0,0,0.1,0,0.1C18,3.2,18,5,18,6.7z M13.9,7.4c0.8,0,1.6,0,2.3,0c0.6,0,0.9-0.3,0.9-0.9c0-1.6,0-3.1,0-4.7c0-0.6-0.3-0.9-0.9-0.9
		c-1.6,0-3.1,0-4.7,0c-0.6,0-0.9,0.3-0.9,1c0,1.5,0,3.1,0,4.6c0,0.6,0.3,1,0.9,1C12.4,7.4,13.1,7.4,13.9,7.4z"/>
	<path class="st0" d="M1.5,18c-0.3-0.1-0.6-0.1-0.8-0.3C0.2,17.3,0,16.9,0,16.3c0-1.6,0-3.2,0-4.8c0-1,0.7-1.7,1.7-1.7
		c1.6,0,3.2,0,4.8,0c0.8,0,1.4,0.5,1.7,1.3c0,0.2,0.1,0.3,0.1,0.5c0,1.6,0,3.2,0,4.7c0,0.7-0.3,1.2-0.9,1.6
		c-0.2,0.1-0.4,0.1-0.5,0.2C5,18,3.2,18,1.5,18z M4.1,10.6c-0.8,0-1.6,0-2.3,0c-0.6,0-0.9,0.3-0.9,0.9c0,1.6,0,3.1,0,4.7
		c0,0.6,0.3,0.9,0.9,0.9c1.6,0,3.1,0,4.7,0c0.6,0,0.9-0.3,0.9-0.9c0-1.6,0-3.1,0-4.7c0-0.6-0.3-0.9-0.9-0.9
		C5.6,10.6,4.9,10.6,4.1,10.6z"/>
	<path class="st0" d="M0,4.1c0-0.8,0-1.6,0-2.4C0,1,0.3,0.5,0.9,0.2C1.2,0.1,1.4,0,1.7,0c1.6,0,3.2,0,4.8,0c0.8,0,1.4,0.5,1.6,1.3
		c0,0.1,0.1,0.3,0.1,0.5c0,1.6,0,3.2,0,4.8c0,0.8-0.5,1.4-1.2,1.7c-0.2,0-0.3,0.1-0.5,0.1c-1.6,0-3.1,0-4.7,0
		c-0.8,0-1.5-0.5-1.7-1.2C0,6.8,0,6.6,0,6.4C0,5.7,0,4.9,0,4.1z M7.4,4.1c0-0.8,0-1.6,0-2.3c0-0.6-0.3-0.9-0.9-0.9
		c-1.6,0-3.1,0-4.7,0c-0.6,0-0.9,0.3-0.9,0.9c0,1.6,0,3.1,0,4.7c0,0.6,0.3,0.9,1,0.9c1.5,0,3.1,0,4.6,0c0.6,0,1-0.3,1-0.9
		C7.4,5.6,7.4,4.9,7.4,4.1z"/>
	<path class="st0" d="M14.3,14.3c0,0.3,0,0.7,0,1c0,0.2,0,0.4,0,0.6c0,0.3-0.2,0.4-0.4,0.4c-0.2,0-0.4-0.2-0.4-0.4c0-0.5,0-1,0-1.4
		c0,0,0-0.1,0-0.2c-0.4,0-0.8,0-1.2,0c-0.2,0-0.3,0-0.5,0c-0.2,0-0.4-0.2-0.4-0.4c0-0.2,0.1-0.4,0.4-0.4c0.1,0,0.3,0,0.4,0
		c0.4,0,0.8,0,1.3,0c0-0.1,0-0.1,0-0.2c0-0.5,0-0.9,0-1.4c0-0.2,0.1-0.4,0.3-0.4c0.3-0.1,0.5,0.1,0.5,0.4c0,0.5,0,0.9,0,1.4
		c0,0.1,0,0.1,0,0.2c0.5,0,0.9,0,1.4,0c0.1,0,0.2,0,0.2,0c0.3,0,0.4,0.2,0.4,0.4c0,0.2-0.2,0.4-0.4,0.4c-0.4,0-0.7,0-1.1,0
		C14.7,14.3,14.5,14.3,14.3,14.3z"/>
</g>
</svg>
