<svg id="Слой_1" data-name="Слой 1" xmlns="http://www.w3.org/2000/svg" viewBox="0 0 71 58"><title>b_black</title><path d="M70.1,58H.9a.9.9,0,0,1-.9-.9V53.2a.9.9,0,0,1,.9-.9H2V26.9H.9A.9.9,0,0,1,0,26a.92.92,0,0,1,.9-1H19.3V.9a.9.9,0,0,1,.9-.9H50.5a.9.9,0,0,1,.9.9V25H70a.9.9,0,0,1,0,1.8H69V52.1h1.1a.9.9,0,0,1,.9.9v3.9C71,57.6,70.6,58,70.1,58ZM1.8,56.2H69.1V54.1H1.8Zm62.2-4h3.1V26.9H64Zm-6.1,0h4.3V26.9H57.9Zm-6.2,0H56V26.9H51.7Zm-6.1,0h4V26.9h-4Zm-6.1,0h4.3V26.9H39.5Zm-6.1,0h4.3V26.9H33.4Zm-6.2,0h4.3V26.9H27.2Zm-6.1,0h4.3V26.9H21.1Zm-6.1,0h4.3V26.9H15Zm-6.1,0h4.3V26.9H8.9Zm-5,0H7V26.9H3.9ZM47.5,25h2.1V1.8H21.1V25h2.1V4.9a.9.9,0,0,1,.9-.9h9.5a.9.9,0,0,1,.9.9V25h1.6V4.9A.9.9,0,0,1,37,4h9.5a.9.9,0,0,1,.9.9L47.5,25ZM38,25h7.6V5.8H38ZM25.1,25h7.6V5.8H25.1Z"/></svg>