<?xml version="1.0" encoding="utf-8"?>
<!-- Generator: Adobe Illustrator 22.1.0, SVG Export Plug-In . SVG Version: 6.00 Build 0)  -->
<svg version="1.1" id="Слой_1" xmlns="http://www.w3.org/2000/svg" xmlns:xlink="http://www.w3.org/1999/xlink" x="0px" y="0px"
	 width="71px" height="58px" viewBox="0 0 71 58" style="enable-background:new 0 0 71 58;" xml:space="preserve">
<style type="text/css">
	.st0{fill:#FFFFFF;}
	.st1{opacity:0.5;fill:#FFFFFF;}
	.st2{opacity:0.5;}
</style>
<path class="st0" d="M70.1,58H0.9C0.4,58,0,57.6,0,57.1v-3.9c0-0.5,0.4-0.9,0.9-0.9H2V26.9H0.9C0.4,26.9,0,26.5,0,26
	C0,25.4,0.4,25,0.9,25h18.4V0.9c0-0.5,0.4-0.9,0.9-0.9h30.3c0.5,0,0.9,0.4,0.9,0.9V25h18.6c0.5,0,0.9,0.4,0.9,0.9
	c0,0.5-0.4,0.9-0.9,0.9H69v25.3h1.1c0.5,0,0.9,0.4,0.9,0.9v3.9C71,57.6,70.6,58,70.1,58z M1.8,56.2h67.3v-2.1H1.8V56.2z M64,52.2
	h3.1V26.9H64V52.2z M57.9,52.2h4.3V26.9h-4.3V52.2z M51.7,52.2H56V26.9h-4.3V52.2z M45.6,52.2h4V26.9h-4
	C45.6,26.9,45.6,52.2,45.6,52.2z M39.5,52.2h4.3V26.9h-4.3V52.2z M33.4,52.2h4.3V26.9h-4.3V52.2z M27.2,52.2h4.3V26.9h-4.3V52.2z
	 M21.1,52.2h4.3V26.9h-4.3V52.2z M15,52.2h4.3V26.9H15V52.2z M8.9,52.2h4.3V26.9H8.9V52.2z M3.9,52.2H7V26.9H3.9V52.2z M47.5,25h2.1
	V1.8H21.1V25h2.1V4.9c0-0.5,0.4-0.9,0.9-0.9h9.5c0.5,0,0.9,0.4,0.9,0.9V25h1.6V4.9c0-0.5,0.4-0.9,0.9-0.9h9.5c0.5,0,0.9,0.4,0.9,0.9
	L47.5,25L47.5,25z M38,25h7.6V5.8H38V25z M25.1,25h7.6V5.8h-7.6V25z"/>
</svg>
