<?xml version="1.0" encoding="utf-8"?>
<!-- Generator: Adobe Illustrator 22.1.0, SVG Export Plug-In . SVG Version: 6.00 Build 0)  -->
<svg version="1.1" id="Слой_1" xmlns="http://www.w3.org/2000/svg" xmlns:xlink="http://www.w3.org/1999/xlink" x="0px" y="0px"
	 width="30.9px" height="31px" viewBox="0 0 30.9 31" style="enable-background:new 0 0 30.9 31;" xml:space="preserve">
<style type="text/css">
	.st0{fill:#FFFFFF;}
	.st1{fill:#2E2E2E;}
	.st2{opacity:0.5;fill:#2E2E2E;}
	.st3{opacity:0.5;}
	.st4{fill:#005ED8;}
</style>
<path class="st4" d="M17.6,31h-17C0.1,30.8,0,30.5,0,30c0-9.7,0-19.4,0-29.1C0,0.2,0.2,0,0.9,0C10.6,0,20.3,0,30,0
	c0.7,0,0.9,0.2,0.9,0.9v16.5c0,0.7-0.2,0.8-0.9,0.8c-3.8,0-7.6,0-11.4,0c-0.4,0-0.4,0-0.4,0.4c0,3.8,0,7.6,0,11.4
	C18.2,30.4,18.1,30.8,17.6,31 M15.4,1.2c-4.6,0-9.2,0-13.8,0C1.1,1.2,1.1,1,1.1,1.7c0,9.2,0,18.4,0,27.6c0,0.1,0,0.2,0,0.3
	c0,0.2,0.1,0.3,0.3,0.3c0.4,0,0.8,0,1.3,0c1.8,0,3.7,0,5.5,0c0.3,0,0.4-0.1,0.4-0.4l0-0.2V12.2c0-0.1,0-0.2,0-0.3
	c0-0.2-0.1-0.3-0.3-0.3c-0.4,0-0.7,0-1.1,0c-0.5,0-0.7-0.2-0.7-0.7c0-1.2,0-2.5,0-3.7c0-0.4,0.2-0.7,0.7-0.7c1.2,0,2.5,0,3.7,0
	c0.5,0,0.7,0.3,0.7,0.7c0,0.3,0,0.6,0,0.9c0,0.4,0,0.4,0.4,0.4c5.8,0,11.6,0,17.4,0c0.4,0,0.4,0,0.4-0.4c0-2.2,0-4.3,0-6.5
	c0-0.4,0-0.4-0.4-0.4H15.4z M17,29.8v-0.4c0-3.8,0-7.6,0-11.4c0-0.7,0.2-0.9,0.9-0.9c3.8,0,7.6,0,11.4,0c0.4,0,0.4,0,0.4-0.4
	c0-2.2,0-4.3,0-6.5c0-0.5,0-0.5-0.5-0.5H12.1c-0.1,0-0.1,0-0.2,0c-0.2,0-0.4,0.1-0.3,0.3c0,0.3,0,0.6,0,1c0,0.5-0.2,0.7-0.7,0.7
	c-0.3,0-0.5,0-0.8,0c-0.4,0-0.4,0-0.4,0.4c0,5.8,0,11.6,0,17.4c0,0.3,0.1,0.4,0.4,0.4c2.2,0,4.4,0,6.7,0H17z M9,10.5
	c0.4,0,0.8,0,1.1,0c0.2,0,0.3-0.1,0.3-0.3c0-0.8,0-1.5,0-2.3c0-0.2-0.1-0.3-0.3-0.3c-0.8,0-1.5,0-2.3,0C7.7,7.7,7.6,7.7,7.6,8
	c0,0.8,0,1.5,0,2.3c0,0.2,0.1,0.3,0.3,0.3C8.3,10.5,8.7,10.5,9,10.5"/>
</svg>
