<?xml version="1.0" encoding="utf-8"?>
<!-- Generator: Adobe Illustrator 22.1.0, SVG Export Plug-In . SVG Version: 6.00 Build 0)  -->
<svg version="1.1" id="Слой_1" xmlns="http://www.w3.org/2000/svg" xmlns:xlink="http://www.w3.org/1999/xlink" x="0px" y="0px"
	 width="31px" height="31px" viewBox="0 0 31 31" style="enable-background:new 0 0 31 31;" xml:space="preserve">
<style type="text/css">
	.st0{fill:#FFFFFF;}
	.st1{fill:#2E2E2E;}
	.st2{opacity:0.5;fill:#2E2E2E;}
	.st3{opacity:0.5;}
	.st4{fill:#005ED8;}
</style>
<path class="st4" d="M6,9.3c0.1,0.1,0.2,0.3,0.3,0.4c3.4,3.4,6.8,6.8,10.2,10.2c0.3,0.3,0.6,0.6,0.9,0.9c0.3,0.3,0.3,0.5,0.1,0.7
	c-0.2,0.2-0.5,0.1-0.7-0.1c-0.6-0.6-0.6-0.6-1.2,0c-3,3-6.1,6.1-9.1,9.1c-0.4,0.4-0.8,0.6-1.3,0.5c-0.3-0.1-0.6-0.2-0.8-0.4
	c-1.4-1.3-2.7-2.7-4.1-4.1c-0.5-0.5-0.5-1.3,0-1.9c0.1-0.1,0.2-0.2,0.3-0.3c3-3,6.1-6.1,9.1-9.1c0.5-0.5,0.5-0.5,0-0.9
	C7,11.5,4.2,8.7,1.4,6c-0.7-0.7-1.1-1.5-1-2.4C0.4,2,1.5,0.7,3,0.4c1.2-0.2,2.2,0.1,3,1c2.8,2.8,5.5,5.5,8.3,8.3
	c0.1,0.1,0.2,0.2,0.2,0.2c0.2,0.2,0.3,0.2,0.5,0c0.2-0.2,0.4-0.4,0.6-0.6c0.2-0.2,0.5-0.2,0.7,0c0.2,0.2,0.1,0.4-0.1,0.7
	c-0.2,0.2-0.4,0.5-0.7,0.7c-0.1,0.1-0.2,0.2,0,0.4c1.5,1.5,3,3,4.4,4.4c0.1,0.1,0.2,0.2,0.4,0c0.2-0.2,0.4-0.5,0.7-0.7
	c0.1-0.1,0.1-0.2,0-0.4c-0.3-0.3-0.6-0.6-0.8-0.8c-0.3-0.3-0.3-0.5-0.1-0.7c0.2-0.2,0.4-0.2,0.8,0.1c0.3,0.3,0.5,0.5,0.8,0.8
	c0.1,0.1,0.2,0.2,0.4,0c0.3-0.3,0.5-0.6,0.8-0.8c0.2-0.2,0.1-0.3,0-0.4c-0.7-0.7-1.5-1.5-2.2-2.2c-0.1-0.1-0.2-0.2-0.2-0.2
	c-0.1-0.2-0.1-0.4,0-0.5c0.2-0.2,0.4-0.2,0.6,0c0.1,0.1,0.2,0.1,0.2,0.2c0.7,0.7,1.4,1.4,2.1,2.2c0.2,0.2,0.3,0.2,0.5,0
	c0.2-0.3,0.5-0.5,0.8-0.8c0.1-0.1,0.1-0.2,0-0.4c-0.3-0.3-0.6-0.6-0.9-0.9c-0.3-0.3-0.3-0.5-0.1-0.7c0.2-0.2,0.4-0.2,0.7,0.1
	c0.3,0.3,0.6,0.6,0.9,0.9c0.1,0.2,0.3,0.2,0.4,0c0.3-0.3,0.5-0.6,0.8-0.8c0.1-0.1,0.1-0.2,0-0.4c-0.3-0.3-0.5-0.5-0.8-0.8
	c-0.1-0.1-0.1-0.1-0.2-0.2c-0.1-0.2-0.2-0.4,0-0.6c0.2-0.2,0.4-0.2,0.6,0c0.3,0.3,0.6,0.6,0.9,0.9c0.2,0.2,0.3,0.2,0.5,0
	c0.2-0.2,0.5-0.5,0.7-0.7c0.2-0.2,0.2-0.3,0-0.5c-0.7-0.7-1.5-1.5-2.2-2.2c-0.1-0.1-0.2-0.2-0.2-0.4c0-0.1,0.1-0.3,0.2-0.4
	c0.1-0.1,0.3,0,0.4,0c0.1,0,0.2,0.1,0.2,0.2c0.7,0.7,1.4,1.4,2.1,2.2c0.2,0.2,0.3,0.2,0.5,0c0.2-0.2,0.5-0.5,0.7-0.7
	c0.3-0.3,0.3-0.6,0-0.9c-1.3-1.3-2.6-2.6-3.8-3.9c-0.3-0.3-0.7-0.3-1,0.1c-1.4,1.4-2.9,2.9-4.3,4.3c-1,1-1.9,1.9-2.9,2.9
	c-0.1,0.1-0.2,0.2-0.2,0.2c-0.2,0.1-0.4,0.1-0.5-0.1c-0.1-0.1-0.1-0.4,0-0.5c0-0.1,0.1-0.2,0.2-0.2c2.4-2.4,4.8-4.8,7.2-7.2
	c0.7-0.7,1.7-0.7,2.3,0C28,1.8,29.2,3,30.4,4.2c0.8,0.7,0.7,1.7,0,2.4c-3.1,3.1-6.2,6.2-9.3,9.3c-0.3,0.3-0.3,0.3,0,0.6
	c2.2,2.2,4.4,4.4,6.7,6.7c0.2,0.2,0.3,0.4,0.4,0.7c0.7,1.7,1.3,3.5,2,5.2c0.2,0.4,0.3,0.8-0.1,1.1c-0.3,0.3-0.7,0.2-1.1,0
	c-1.7-0.7-3.4-1.3-5.1-2c-0.3-0.1-0.6-0.3-0.8-0.5c-1.5-1.5-3-3-4.5-4.5c-0.1-0.1-0.2-0.3-0.2-0.4c0-0.1,0.1-0.3,0.2-0.3
	c0.1-0.1,0.3-0.1,0.4,0c0.1,0,0.2,0.2,0.3,0.2c1.4,1.4,2.8,2.8,4.1,4.2c0.2,0.2,0.3,0.2,0.5,0c0.3-0.3,0.6-0.6,0.9-0.9
	c0.1-0.1,0.1-0.2,0-0.4c-0.1-0.1-0.1-0.1-0.2-0.2c-4.8-4.8-9.7-9.7-14.5-14.5c-0.1-0.1-0.2-0.2-0.3-0.3c-0.2-0.2-0.2-0.4,0-0.6
	c0.2-0.2,0.4-0.2,0.6,0c0.1,0.1,0.2,0.2,0.3,0.3c4.9,4.9,9.7,9.7,14.6,14.6c0.3,0.3,0.3,0.3,0.7,0c0.3-0.3,0.6-0.6,0.8-0.8
	c0.1-0.1,0.2-0.2,0-0.4c0,0-0.1-0.1-0.1-0.1C21.1,17.7,15.4,12,9.7,6.3C9.3,5.9,9.4,6,9,6.3C8.7,6.6,8.5,6.9,8.2,7.2
	C8,7.3,8,7.4,8.2,7.5c0.2,0.2,0.4,0.4,0.6,0.6C9,8.3,9,8.6,8.8,8.8C8.7,9,8.4,8.9,8.2,8.7C7.9,8.5,7.8,8.3,7.5,8.1
	c-0.1-0.1-0.2-0.1-0.3,0C6.9,8.5,6.5,8.9,6,9.3z M9.3,26.6c0.4-0.4,0.7-0.8,1.1-1.1c0,0,0-0.2,0-0.3c-0.2-0.2-0.4-0.4-0.6-0.6
	c-0.6-0.6-0.7-0.7-0.4-1c0.2-0.3,0.4-0.2,1,0.4c0.2,0.2,0.4,0.3,0.5,0.5c0.2,0.2,0.3,0.2,0.5,0c0.2-0.3,0.5-0.5,0.7-0.7
	c0.2-0.2,0.2-0.3,0-0.5c-0.7-0.7-1.4-1.4-2.1-2.1c-0.1-0.1-0.1-0.1-0.2-0.2c-0.2-0.2-0.2-0.5,0-0.6c0.2-0.2,0.4-0.1,0.6,0
	c0.1,0.1,0.1,0.1,0.2,0.2c0.7,0.7,1.4,1.4,2.1,2.2c0.2,0.2,0.3,0.2,0.5,0c0.2-0.3,0.5-0.5,0.8-0.8c0.2-0.1,0.1-0.3,0-0.4
	c-0.3-0.3-0.6-0.6-0.9-0.9c-0.2-0.2-0.2-0.5-0.1-0.6c0.2-0.2,0.4-0.2,0.7,0.1c0.3,0.3,0.6,0.6,0.9,0.9c0.2,0.2,0.3,0.2,0.5,0
	c0.2-0.2,0.3-0.3,0.5-0.5c0.3-0.3,0.3-0.3,0-0.6c-1.4-1.4-2.8-2.8-4.2-4.2c-0.3-0.3-0.3-0.3-0.6,0c-2.3,2.3-4.7,4.7-7,7
	c-0.8,0.8-1.6,1.6-2.4,2.4c-0.4,0.4-0.4,0.7,0,1c1.3,1.3,2.6,2.6,3.8,3.8c0.3,0.3,0.6,0.3,0.9,0c0.3-0.2,0.5-0.5,0.7-0.7
	c0.2-0.2,0.2-0.3,0-0.5c-0.5-0.5-1.1-1.1-1.6-1.6c-0.3-0.3-0.5-0.5-0.7-0.8c-0.2-0.2-0.2-0.4,0-0.6c0.2-0.2,0.4-0.2,0.6,0
	C4.9,25.8,5,25.9,5,26c0.7,0.7,1.5,1.5,2.2,2.2c0.2,0.2,0.3,0.2,0.4,0c0.2-0.3,0.5-0.5,0.7-0.7c0.2-0.2,0.2-0.3,0-0.5
	c-0.3-0.3-0.6-0.6-0.9-0.9c-0.2-0.2-0.2-0.4,0-0.6c0.2-0.2,0.4-0.2,0.6,0c0.1,0.1,0.2,0.2,0.2,0.2C8.6,26,8.9,26.3,9.3,26.6z
	 M6.8,3.5C6.2,2.9,5.7,2.3,5.1,1.8C4.2,1,2.8,1,1.9,1.9C1.1,2.8,1,4.1,1.8,5.1c0.4,0.5,0.9,1,1.4,1.4c0.2,0.2,0.3,0.2,0.5,0
	c0.9-0.9,1.9-1.9,2.8-2.8C6.6,3.6,6.7,3.6,6.8,3.5z M29.3,29.4C29.4,29.3,29.4,29.3,29.3,29.4c-0.5-1.7-1.1-3.2-1.7-4.7
	c-1,1-1.9,1.9-2.9,2.9C26.2,28.2,27.8,28.8,29.3,29.4z M5.4,8.7c0.1-0.1,0.1-0.1,0.2-0.1c1-1,2-2,2.9-2.9c0.1-0.1,0.2-0.3,0-0.4
	C8.2,4.9,7.9,4.6,7.6,4.3c-0.1-0.1-0.2-0.2-0.4,0c-1,1-2,2-2.9,2.9c-0.1,0.1-0.2,0.2,0,0.4c0.3,0.3,0.6,0.6,0.9,0.9
	C5.3,8.6,5.3,8.6,5.4,8.7z"/>
</svg>
