<?xml version="1.0" encoding="utf-8"?>
<!-- Generator: Adobe Illustrator 22.1.0, SVG Export Plug-In . SVG Version: 6.00 Build 0)  -->
<svg version="1.1" id="Слой_1" xmlns="http://www.w3.org/2000/svg" xmlns:xlink="http://www.w3.org/1999/xlink" x="0px" y="0px"
	 width="31px" height="30.6px" viewBox="0 0 31 30.6" style="enable-background:new 0 0 31 30.6;" xml:space="preserve">
<style type="text/css">
	.st0{fill:#FFFFFF;}
	.st1{fill:#2E2E2E;}
	.st2{opacity:0.5;fill:#2E2E2E;}
	.st3{opacity:0.5;}
	.st4{fill:#005ED8;}
</style>
<g>
	<g>
		<path class="st4" d="M0,28.3c0.1-0.2,0.3-0.4,0.6-0.3c0.3,0.1,0.3,0.3,0.3,0.6c0,0.4,0,0.7,0,1.1c0.4,0,0.8,0,1.2,0
			c0.4,0,0.6,0.2,0.6,0.5c0,0.3-0.2,0.4-0.5,0.4c-0.5,0-1,0-1.6,0c-0.2,0-0.4-0.1-0.6-0.3C0,29.6,0,29,0,28.3z"/>
		<g>
			<path class="st4" d="M30.1,0.9c0,0.4,0,0.8,0,1.2c0,0.4,0.2,0.6,0.5,0.6c0.3,0,0.5-0.2,0.5-0.6c0-0.5,0-1,0-1.5
				C31,0.2,30.8,0,30.4,0c-0.5,0-1,0-1.6,0c-0.3,0-0.6,0.2-0.5,0.5c0,0.3,0.2,0.4,0.5,0.4C29.3,0.9,29.7,0.9,30.1,0.9z"/>
			<path class="st4" d="M4.8,7.2c0-0.4,0-0.7,0-1.1c0-0.9,0.5-1.4,1.4-1.4c0.5,0,1.1,0,1.6,0c0,0,0,0,0.1,0c0-0.3,0-0.7,0-1
				c0-0.9,0.5-1.5,1.5-1.5c2.8,0,5.7,0,8.5,0c3.1,0,6.2,0,9.3,0c1,0,1.6,0.6,1.6,1.6c0,3.7,0,7.4,0,11.1c0,0.1,0,0.2,0,0.3
				c0,0.3-0.2,0.4-0.4,0.4c-0.3,0-0.4-0.1-0.5-0.4c0-0.1,0-0.2,0-0.3c0-3.6,0-7.3,0-10.9c0-0.2,0-0.3,0-0.5c0-0.2-0.2-0.4-0.4-0.4
				c-0.1,0-0.2,0-0.3,0c-5.9,0-11.8,0-17.6,0c-0.5,0-0.6,0.1-0.6,0.6c0,0.3,0,0.6,0,1c0.1,0,0.2,0,0.3,0c5.1,0,10.3,0,15.4,0
				c0.3,0,0.5,0,0.8,0.1c0.6,0.3,0.8,0.8,0.8,1.4c0,1.3,0,2.6,0,3.9c0,4,0,8,0,11.9c0,0.1,0,0.3,0,0.4c0.4,0,0.9,0,1.3,0
				c0.3,0,0.4-0.3,0.4-0.6c0-1.5,0-3,0-4.4c0-0.1,0-0.2,0-0.4c0.1-0.2,0.2-0.3,0.4-0.3c0.2,0,0.4,0.2,0.4,0.4c0,0.1,0,0.2,0,0.2
				c0,1.5,0,3,0,4.4c0,1-0.5,1.5-1.5,1.5c-0.3,0-0.7,0-1,0c0,0.4,0,0.7,0,1c0,1-0.6,1.5-1.5,1.5c-0.3,0-0.7,0-1.1,0
				c0,0.4,0,0.7,0,1.1c0,0.9-0.5,1.5-1.4,1.5c-2.7,0-5.4,0-8.1,0c-0.4,0-0.6-0.2-0.6-0.5c0-0.3,0.2-0.5,0.6-0.5c2.6,0,5.1,0,7.7,0
				c0.1,0,0.2,0,0.3,0c0.4,0,0.6-0.2,0.6-0.6c0-2.2,0-4.5,0-6.7c0-3.8,0-7.6,0-11.4c0-0.6-0.1-0.7-0.7-0.7c-6,0-12.1,0-18.1,0
				c-0.6,0-0.7,0.1-0.7,0.7c0,6,0,12,0,18c0,0.6,0.1,0.7,0.7,0.7c2.6,0,5.2,0,7.7,0c0.5,0,0.7,0.2,0.7,0.5c0,0.3-0.2,0.4-0.7,0.4
				c-2.6,0-5.2,0-7.8,0c-1,0-1.6-0.5-1.6-1.6c0-6,0-12.1,0-18.1c0-1,0.5-1.6,1.5-1.6C4.1,7.2,4.4,7.2,4.8,7.2z M5.7,7.2
				c0.2,0,0.3,0,0.4,0c1.1,0,2.3,0,3.4,0c4.1,0,8.2,0,12.3,0c0.3,0,0.6,0,0.8,0.1c0.6,0.3,0.8,0.8,0.8,1.4c0,5.3,0,10.6,0,15.9
				c0,0.1,0,0.3,0,0.4c0.3,0,0.7,0,1,0c0.6,0,0.7-0.1,0.7-0.7c0-6,0-11.9,0-17.9c0-0.2,0-0.3,0-0.5c0-0.3-0.2-0.4-0.4-0.4
				c-0.1,0-0.2,0-0.3,0c-6,0-12,0-18,0c-0.1,0-0.2,0-0.3,0C5.8,5.7,5.7,5.8,5.7,6C5.7,6.4,5.7,6.8,5.7,7.2z"/>
			<path class="st4" d="M30.1,0.9c-0.4,0-0.8,0-1.2,0c-0.3,0-0.5-0.2-0.5-0.4c0-0.3,0.2-0.5,0.5-0.5c0.5,0,1,0,1.6,0
				C30.8,0,31,0.2,31,0.6c0,0.5,0,1,0,1.5c0,0.4-0.2,0.6-0.5,0.6c-0.3,0-0.4-0.2-0.5-0.6C30.1,1.7,30.1,1.3,30.1,0.9z"/>
		</g>
	</g>
</g>
</svg>
