<?xml version="1.0" encoding="utf-8"?>
<!-- Generator: Adobe Illustrator 22.1.0, SVG Export Plug-In . SVG Version: 6.00 Build 0)  -->
<svg version="1.1" id="Слой_1" xmlns="http://www.w3.org/2000/svg" xmlns:xlink="http://www.w3.org/1999/xlink" x="0px" y="0px"
	 width="31px" height="31px" viewBox="0 0 31 31" style="enable-background:new 0 0 31 31;" xml:space="preserve">
<style type="text/css">
	.st0{fill:#FFFFFF;}
	.st1{fill:#2E2E2E;}
	.st2{opacity:0.5;fill:#2E2E2E;}
	.st3{opacity:0.5;}
	.st4{fill:#005ED8;}
</style>
<path class="st4" d="M31,16v-0.5C31,7,24,0,15.5,0C7,0,0,7,0,15.5V16h10.5l-3.4,8.6C7,24.8,7,25,7,25.2v0.1c0,0.7,0.4,1.3,1,1.5v1.6
	h1V27c0.6-0.1,1-0.5,1.3-1.1l3.4-9l0,0.1h3.6l0,0l1.8,5.5H19v3h2V27l0.9,3.2C22,30.7,22.5,31,23,31c0.5,0,1-0.3,1.1-0.8l0.9-3l0-1.6
	h2v-3h-2V20c0-0.8-0.7-1.5-1.5-1.5h-1c-0.5,0-0.9,0.2-1.1,0.5l-1-3H31z M1,15C1.3,7.2,7.7,1,15.5,1S29.7,7.2,30,15H20l-0.5-1.6
	l0.6-0.9L19.8,12h1.7v-1h-2.2l-0.5-1h-1.3V6h-4v4h-1.3l-0.5,1H6c1.7-3.6,5.4-6,9.5-6c4,0,7.8,2.4,9.5,6h-2.5v1h4l-0.3-0.7
	C24.5,6.9,20.2,4,15.5,4c-4.7,0-9,2.9-10.7,7.3L4.5,12h6.7l-0.3,0.5l0.6,0.9L10.9,15H1z M16.5,10h-2V7h2V10z M9.3,25.6
	C9.2,25.8,9,26,8.7,26C8.3,26,8,25.7,8,25.3v-0.1c0-0.1,0-0.2,0-0.2l4.1-10.5l0.9,1.4L9.3,25.6z M14.3,16l-2.2-3.5l0.7-1.5h5.4
	l0.7,1.5L16.7,16H14.3z M18,15.9l0.8-1.3l2.2,6.6v1.4h-0.9L18,15.9z M22.8,29.9l-0.7-2.4h1.7l-0.7,2.4C23.1,30,22.9,30,22.8,29.9
	 M24,26.5h-2v-1h2V26.5z M26,24.5h-6v-1h6V24.5z M22,21.5h2v1h-2V21.5z M22.5,19.5h1c0.3,0,0.5,0.2,0.5,0.5v0.5h-2V20
	C22,19.7,22.2,19.5,22.5,19.5"/>
</svg>
