<?xml version="1.0" encoding="utf-8"?>
<!-- Generator: Adobe Illustrator 22.1.0, SVG Export Plug-In . SVG Version: 6.00 Build 0)  -->
<svg version="1.1" id="Слой_1" xmlns="http://www.w3.org/2000/svg" xmlns:xlink="http://www.w3.org/1999/xlink" x="0px" y="0px"
	 width="31px" height="31px" viewBox="0 0 31 31" style="enable-background:new 0 0 31 31;" xml:space="preserve">
<style type="text/css">
	.st0{fill:#FFFFFF;}
	.st1{fill:#2E2E2E;}
	.st2{opacity:0.5;fill:#2E2E2E;}
	.st3{opacity:0.5;}
	.st4{fill:#005ED8;}
</style>
<path class="st4" d="M1.4,31l16.8,0c0.3,0,0.5-0.2,0.5-0.5s-0.2-0.5-0.5-0.5h-8c0.1-0.1,0.1-0.3,0.1-0.5v-0.1v-0.3l0.5-0.3
	c0.1,0.1,0.2,0.1,0.3,0.1h4.6c0.3,0,0.5-0.2,0.5-0.5v-2.7l1.1-0.6l0.1-0.1v3.4c0,0.3,0.2,0.5,0.5,0.5h4.6c0.3,0,0.5-0.2,0.5-0.5
	v-5.4c0-0.3-0.2-0.5-0.5-0.5h-0.8l2-1.2h6.1c0.3,0,0.6,0.3,0.6,0.6v7.3c0,0.3-0.3,0.6-0.6,0.6H20c-0.2,0-0.5,0.2-0.5,0.5
	S19.7,31,20,31h9.5c0.8,0,1.5-0.7,1.5-1.5v-7.3c0-0.8-0.7-1.5-1.5-1.5H25l4.2-2.4c0.3-0.2,0.6-0.5,0.7-0.9c0.1-0.4,0.1-0.8-0.1-1.1
	L26.1,10c-0.4-0.7-1.3-0.9-2-0.5l-4.8,2.8l2.8-4.8c0.2-0.3,0.3-0.7,0.2-1.1c-0.1-0.4-0.3-0.7-0.7-0.9l-6.3-3.7
	c-0.7-0.4-1.6-0.2-2,0.5l-3,5.2V1.4C10.2,0.6,9.6,0,8.9,0H1.4C0.6,0,0,0.6,0,1.4v8c0,0.3,0.2,0.5,0.5,0.5c0.3,0,0.5-0.2,0.5-0.5v-8
	c0-0.3,0.2-0.5,0.5-0.5h7.5c0.3,0,0.5,0.2,0.5,0.5v28.2c0,0.3-0.3,0.6-0.6,0.6h0H1.4c-0.3,0-0.5-0.2-0.5-0.5V11.1
	c0-0.3-0.2-0.5-0.5-0.5c-0.3,0-0.5,0.2-0.5,0.5v18.5C0,30.4,0.6,31,1.4,31 M15.1,28.2h-3l3-1.7V28.2z M24.5,10.3
	c0.3-0.2,0.6-0.1,0.8,0.2l3.6,6.3c0.1,0.1,0.1,0.3,0.1,0.4c0,0.1-0.1,0.3-0.3,0.3L10.2,28.2v-0.5l1-1.7c0.1,0.1,0.2,0.2,0.3,0.2
	c0.1,0,0.2,0,0.2-0.1l4-2.3c0.1-0.1,0.2-0.2,0.2-0.3c0-0.1,0-0.2,0-0.3l-1.5-2.6l0.7-1.2l1.8,3.2c0.1,0.1,0.2,0.2,0.4,0.2
	c0.1,0,0.2,0,0.2-0.1l4-2.3c0.2-0.1,0.3-0.4,0.2-0.6L19,15.3c-0.1-0.1-0.2-0.2-0.3-0.2c-0.1,0-0.2,0-0.3,0l-1.2,0.7l1.2-2L24.5,10.3
	z M10.2,13.2l1.4-2.3l3.8,2.3l-1.9,3.2l-3.3-2V13.2z M10.2,17.8l1.8,1.1l-1.8,3.1V17.8z M16.3,17.4l2.1-1.2l2.2,3.9l-3.2,1.8
	l-1.9-3.3l0.3-0.5L16.3,17.4z M13.9,21.5l1,1.8l-3.1,1.8l0.1-0.1l0.5-0.8L13.9,21.5z M10.2,25.9L21.3,7L10.2,25.9V23l0.1,0
	c0.2,0,0.3-0.1,0.4-0.2l2.3-3.9c0.1-0.1,0.1-0.2,0-0.3c0-0.1-0.1-0.2-0.2-0.3l-2.7-1.6v-1.4l3.3,1.9c0.1,0,0.2,0.1,0.2,0.1l0.1,0
	c0.1,0,0.2-0.1,0.3-0.2l2.3-3.9c0.1-0.2,0.1-0.5-0.2-0.6l-4.6-2.7c-0.2-0.1-0.5-0.1-0.6,0.2l-0.8,1.4V9.3l3.8-6.5
	c0.2-0.3,0.5-0.4,0.8-0.2l6.3,3.7c0.3,0.2,0.4,0.5,0.2,0.8 M19.8,23.7h1.9v4.4h-3.7v-3.4l0.4-0.2L19.8,23.7z"/>
</svg>
