<?xml version="1.0" encoding="utf-8"?>
<!-- Generator: Adobe Illustrator 22.1.0, SVG Export Plug-In . SVG Version: 6.00 Build 0)  -->
<svg version="1.1" id="Слой_1" xmlns="http://www.w3.org/2000/svg" xmlns:xlink="http://www.w3.org/1999/xlink" x="0px" y="0px"
	 width="25.6px" height="31px" viewBox="0 0 25.6 31" style="enable-background:new 0 0 25.6 31;" xml:space="preserve">
<style type="text/css">
	.st0{fill:#FFFFFF;}
	.st1{fill:#2E2E2E;}
	.st2{opacity:0.5;fill:#2E2E2E;}
	.st3{opacity:0.5;}
	.st4{fill:#005ED8;}
</style>
<g>
	<g>
		<path class="st4" d="M8.8,0C6.9,0,5.4,1.5,5.4,3.4v11C2.1,15.7,0,18.8,0,22.2C0,27.1,3.9,31,8.8,31c4.8,0,8.8-3.9,8.8-8.8
			c0-3.5-2.1-6.5-5.4-7.9v-11C12.1,1.5,10.6,0,8.8,0 M16.2,22.2c0,4.1-3.3,7.4-7.4,7.4c-4.1,0-7.4-3.3-7.4-7.4
			c0-3.1,1.9-5.7,4.9-6.8c0.3-0.1,0.5-0.3,0.5-0.6V3.4c0-1.1,0.9-2,2-2s2,0.9,2,2v11.5c0,0.3,0.2,0.5,0.5,0.6
			C14.3,16.5,16.2,19.1,16.2,22.2"/>
		<path class="st4" d="M4,22.2C4,24.8,6.2,27,8.8,27c2.6,0,4.7-2.1,4.7-4.7c0-2.6-2.1-4.7-4.7-4.7C6.2,17.5,4,19.6,4,22.2
			 M12.1,22.2c0,1.9-1.5,3.4-3.4,3.4c-1.9,0-3.4-1.5-3.4-3.4c0-1.9,1.5-3.4,3.4-3.4C10.6,18.9,12.1,20.4,12.1,22.2"/>
		<path class="st4" d="M24.9,2.7h-8.1c-0.4,0-0.7,0.3-0.7,0.7c0,0.4,0.3,0.7,0.7,0.7h8.1c0.4,0,0.7-0.3,0.7-0.7
			C25.6,3,25.3,2.7,24.9,2.7"/>
		<path class="st4" d="M24.9,6.7h-5.4c-0.4,0-0.7,0.3-0.7,0.7c0,0.4,0.3,0.7,0.7,0.7h5.4c0.4,0,0.7-0.3,0.7-0.7
			C25.6,7,25.3,6.7,24.9,6.7"/>
		<path class="st4" d="M24.9,10.8h-8.1c-0.4,0-0.7,0.3-0.7,0.7c0,0.4,0.3,0.7,0.7,0.7h8.1c0.4,0,0.7-0.3,0.7-0.7
			C25.6,11.1,25.3,10.8,24.9,10.8"/>
		<path class="st4" d="M24.9,14.8h-5.4c-0.4,0-0.7,0.3-0.7,0.7c0,0.4,0.3,0.7,0.7,0.7h5.4c0.4,0,0.7-0.3,0.7-0.7
			C25.6,15.1,25.3,14.8,24.9,14.8"/>
	</g>
</g>
</svg>
