<svg id="Слой_1" data-name="Слой 1" xmlns="http://www.w3.org/2000/svg" viewBox="0 0 54.3 58.1"><title>o_black</title><path d="M53.2,52.2H50.3V5.6a2.83,2.83,0,0,0,1.9-2.7A2.9,2.9,0,0,0,49.3,0H4.8A2.9,2.9,0,0,0,1.9,2.9,2.83,2.83,0,0,0,3.8,5.6V52.2H1a1,1,0,0,0,0,2H2v1a2.9,2.9,0,0,0,2.9,2.9H49.4a2.9,2.9,0,0,0,2.9-2.9v-1h1a.94.94,0,0,0,1-1A1.25,1.25,0,0,0,53.2,52.2ZM4.8,1.9H49.3a.94.94,0,0,1,1,1,.94.94,0,0,1-1,1H4.8a1,1,0,0,1-1-1A1.17,1.17,0,0,1,4.8,1.9Zm1,3.9H48.3V52.2H46.4V8.7a.94.94,0,0,0-1-1H8.7a.94.94,0,0,0-1,1V52.2H5.8ZM9.7,52.2V9.7H24.2V52.2ZM26.1,9.7H28V52.2H26.1Zm3.9,0H44.5V52.2H30ZM50.3,55.1a.94.94,0,0,1-1,1H4.8a.94.94,0,0,1-1-1v-1H50.3v1Z" transform="translate(0 0)"/><path d="M15.2,10.9a1,1,0,0,0-1.4,0l-2.9,2.9a1,1,0,0,0,0,1.4,1,1,0,0,0,1.4,0l2.9-2.9A1,1,0,0,0,15.2,10.9Z" transform="translate(0 0)"/><path d="M12.9,16.7,11,18.6A1,1,0,0,0,11,20a1,1,0,0,0,1.4,0l1.9-1.9a1,1,0,1,0-1.4-1.4Z" transform="translate(0 0)"/><path d="M17.1,15.2,20,12.3a1,1,0,0,0-1.4-1.4l-2.9,2.9a1,1,0,0,0,0,1.4,1,1,0,0,0,1.4,0Z" transform="translate(0 0)"/><path d="M41.9,46.7,39,49.6A1,1,0,0,0,39,51a1,1,0,0,0,1.4,0l2.9-2.9a1,1,0,0,0-1.4-1.4Z" transform="translate(0 0)"/><path d="M41.9,41.9,40,43.8a1,1,0,0,0,0,1.4,1,1,0,0,0,1.4,0l1.9-1.9a1,1,0,0,0-1.4-1.4Z" transform="translate(0 0)"/><path d="M38.4,46.7a1,1,0,0,0-1.4,0l-2.9,2.9a1,1,0,0,0,0,1.4,1,1,0,0,0,1.4,0l2.9-2.9A1,1,0,0,0,38.4,46.7Z" transform="translate(0 0)"/><path d="M19.3,26.1A2.9,2.9,0,0,0,16.4,29v3.9a2.9,2.9,0,1,0,5.8,0V29A2.84,2.84,0,0,0,19.3,26.1Zm1,6.8a1,1,0,0,1-2,0V29a.94.94,0,0,1,1-1,1,1,0,0,1,1,1Z" transform="translate(0 0)"/><path d="M37.7,32.9V29a2.9,2.9,0,0,0-5.8,0v3.9a2.9,2.9,0,0,0,5.8,0Zm-3.9,0V29a.94.94,0,0,1,1-1,1,1,0,0,1,1,1v3.9a.94.94,0,0,1-1,1A1.07,1.07,0,0,1,33.8,32.9Z" transform="translate(0 0)"/></svg>