<?xml version="1.0" encoding="utf-8"?>
<!-- Generator: Adobe Illustrator 22.1.0, SVG Export Plug-In . SVG Version: 6.00 Build 0)  -->
<svg version="1.1" id="Слой_1" xmlns="http://www.w3.org/2000/svg" xmlns:xlink="http://www.w3.org/1999/xlink" x="0px" y="0px"
	 width="54.1px" height="58px" viewBox="0 0 54.1 58" style="enable-background:new 0 0 54.1 58;" xml:space="preserve">
<style type="text/css">
	.st0{fill:#FFFFFF;}
	.st1{opacity:0.5;fill:#FFFFFF;}
	.st2{opacity:0.5;}
</style>
<g transform="translate(1 1)">
	<g>
		<g>
			<path class="st0" d="M52.2,51.2h-1.9h-1V4.6c1.1-0.4,1.9-1.4,1.9-2.7c0-1.6-1.3-2.9-2.9-2.9H3.8C2.2-1,0.9,0.3,0.9,1.9
				c0,1.3,0.8,2.3,1.9,2.7v46.6h-1H0c-0.6,0-1,0.4-1,1c0,0.6,0.4,1,1,1h1v1c0,1.6,1.3,2.9,2.9,2.9h44.5c1.6,0,2.9-1.3,2.9-2.9v-1h1
				c0.6,0,1-0.4,1-1C53.1,51.6,52.7,51.2,52.2,51.2z M3.8,0.9h44.5c0.6,0,1,0.4,1,1s-0.4,1-1,1H3.8c-0.6,0-1-0.5-1-1
				S3.4,0.9,3.8,0.9z M4.8,4.8h42.5v46.4h-1.9V7.7c0-0.6-0.4-1-1-1H28h-3.9H7.7c-0.6,0-1,0.4-1,1v43.5H4.8V4.8z M8.7,51.2V8.7h14.5
				v42.5H8.7z M25.1,8.7H27v42.5h-1.9V8.7z M29,8.7h14.5v42.5H29V8.7z M49.3,54.1c0,0.6-0.4,1-1,1H3.8c-0.6,0-1-0.4-1-1v-1h1h3.9
				h16.4H28h16.4h3.9h1L49.3,54.1L49.3,54.1z"/>
			<path class="st0" d="M14.2,9.9c-0.4-0.4-1-0.4-1.4,0l-2.9,2.9c-0.4,0.4-0.4,1,0,1.4c0.2,0.2,0.4,0.3,0.7,0.3s0.5-0.1,0.7-0.3
				l2.9-2.9C14.6,10.9,14.6,10.3,14.2,9.9z"/>
			<path class="st0" d="M11.9,15.7l-1.9,1.9c-0.4,0.4-0.4,1,0,1.4c0.2,0.2,0.4,0.3,0.7,0.3c0.3,0,0.5-0.1,0.7-0.3l1.9-1.9
				c0.4-0.4,0.4-1,0-1.4C12.8,15.3,12.2,15.3,11.9,15.7z"/>
			<path class="st0" d="M16.1,14.2l2.9-2.9c0.4-0.4,0.4-1,0-1.4c-0.4-0.4-1-0.4-1.4,0l-2.9,2.9c-0.4,0.4-0.4,1,0,1.4
				c0.2,0.2,0.4,0.3,0.7,0.3S15.9,14.4,16.1,14.2z"/>
			<path class="st0" d="M40.9,45.7L38,48.6c-0.4,0.4-0.4,1,0,1.4c0.2,0.2,0.4,0.3,0.7,0.3s0.5-0.1,0.7-0.3l2.9-2.9
				c0.4-0.4,0.4-1,0-1.4C41.8,45.3,41.2,45.3,40.9,45.7z"/>
			<path class="st0" d="M40.9,40.9l-1.9,1.9c-0.4,0.4-0.4,1,0,1.4c0.2,0.2,0.4,0.3,0.7,0.3s0.5-0.1,0.7-0.3l1.9-1.9
				c0.4-0.4,0.4-1,0-1.4C41.8,40.5,41.2,40.5,40.9,40.9z"/>
			<path class="st0" d="M37.4,45.7c-0.4-0.4-1-0.4-1.4,0l-2.9,2.9c-0.4,0.4-0.4,1,0,1.4c0.2,0.2,0.4,0.3,0.7,0.3s0.5-0.1,0.7-0.3
				l2.9-2.9C37.8,46.7,37.8,46.1,37.4,45.7z"/>
			<path class="st0" d="M18.3,25.1c-1.6,0-2.9,1.3-2.9,2.9v3.9c0,1.6,1.3,2.9,2.9,2.9c1.6,0,2.9-1.3,2.9-2.9V28
				C21.2,26.4,20,25.1,18.3,25.1z M19.3,31.9c0,0.6-0.4,1-1,1c-0.6,0-1-0.4-1-1V28c0-0.6,0.4-1,1-1c0.6,0,1,0.5,1,1V31.9z"/>
			<path class="st0" d="M36.7,31.9V28c0-1.6-1.3-2.9-2.9-2.9c-1.6,0-2.9,1.3-2.9,2.9v3.9c0,1.6,1.3,2.9,2.9,2.9
				C35.4,34.8,36.7,33.5,36.7,31.9z M32.8,31.9V28c0-0.6,0.4-1,1-1c0.6,0,1,0.5,1,1v3.9c0,0.6-0.4,1-1,1
				C33.2,32.8,32.8,32.4,32.8,31.9z"/>
		</g>
	</g>
</g>
</svg>
