<?xml version="1.0" encoding="utf-8"?>
<!-- Generator: Adobe Illustrator 22.1.0, SVG Export Plug-In . SVG Version: 6.00 Build 0)  -->
<svg version="1.1" id="Слой_1" xmlns="http://www.w3.org/2000/svg" xmlns:xlink="http://www.w3.org/1999/xlink" x="0px" y="0px"
	 width="91.8px" height="75px" viewBox="0 0 91.8 75" style="enable-background:new 0 0 91.8 75;" xml:space="preserve">
<style type="text/css">
	.st0{fill:#2E2E2E;}
	.st1{opacity:0.5;fill:#2E2E2E;}
	.st2{opacity:0.5;}
</style>
<path class="st0" d="M90.6,75H1.2C0.5,75,0,74.5,0,73.8v-5.1c0-0.7,0.5-1.2,1.2-1.2h1.5V34.8H1.2c-0.7,0-1.2-0.5-1.2-1.2
	s0.5-1.2,1.2-1.2h23.7V1.2c0-0.7,0.5-1.2,1.2-1.2h39.2c0.7,0,1.2,0.5,1.2,1.2v31.2h24c0.7,0,1.2,0.5,1.2,1.2s-0.5,1.2-1.2,1.2h-1.4
	v32.8h1.4c0.7,0,1.2,0.5,1.2,1.2v5.1C91.8,74.5,91.2,75,90.6,75z M2.4,72.6h87v-2.7h-87V72.6z M82.7,67.5h4.1V34.8h-4.1V67.5z
	 M74.8,67.5h5.5V34.8h-5.5V67.5z M66.9,67.5h5.5V34.8h-5.5V67.5z M59,67.5h5.2V34.8H59C59,34.8,59,67.5,59,67.5z M51.1,67.5h5.5
	V34.8h-5.5V67.5z M43.1,67.5h5.5V34.8h-5.5V67.5z M35.2,67.5h5.5V34.8h-5.5V67.5z M27.3,67.5h5.5V34.8h-5.5V67.5z M19.4,67.5h5.5
	V34.8h-5.5V67.5z M11.5,67.5H17V34.8h-5.5V67.5z M5,67.5h4.1V34.8H5V67.5z M61.4,32.4h2.8v-30H27.3v30h2.8v-26
	c0-0.7,0.5-1.2,1.2-1.2h12.2c0.7,0,1.2,0.5,1.2,1.2v26h2.1v-26c0-0.7,0.5-1.2,1.2-1.2h12.2c0.7,0,1.2,0.5,1.2,1.2L61.4,32.4
	L61.4,32.4z M49.2,32.4H59V7.6h-9.9V32.4z M32.5,32.4h9.9V7.6h-9.9V32.4z"/>
</svg>
