<?xml version="1.0" encoding="utf-8"?>
<!-- Generator: Adobe Illustrator 22.1.0, SVG Export Plug-In . SVG Version: 6.00 Build 0)  -->
<svg version="1.1" id="Слой_1" xmlns="http://www.w3.org/2000/svg" xmlns:xlink="http://www.w3.org/1999/xlink" x="0px" y="0px"
	 width="66.7px" height="71.4px" viewBox="0 0 66.7 71.4" style="enable-background:new 0 0 66.7 71.4;" xml:space="preserve">
<style type="text/css">
	.st0{fill:#2E2E2E;}
	.st1{opacity:0.5;fill:#2E2E2E;}
	.st2{opacity:0.5;}
</style>
<g transform="translate(1 1)">
	<g>
		<g>
			<g>
				<path class="st0" d="M64.5,63.3h-2.4h-1.2V6c1.4-0.5,2.4-1.8,2.4-3.4c0-2-1.5-3.6-3.6-3.6H5c-2,0-3.6,1.5-3.6,3.6
					c0,1.6,1,2.9,2.4,3.4v57.4H2.6H0.2c-0.7,0-1.2,0.5-1.2,1.2c0,0.7,0.5,1.2,1.2,1.2h1.2v1.2c0,2,1.5,3.6,3.6,3.6h54.8
					c2,0,3.6-1.5,3.6-3.6v-1.2h1.2c0.7,0,1.2-0.5,1.2-1.2C65.7,63.8,65.2,63.3,64.5,63.3z M5,1.4h54.8c0.7,0,1.2,0.5,1.2,1.2
					s-0.5,1.2-1.2,1.2H5c-0.7,0-1.2-0.6-1.2-1.2S4.4,1.4,5,1.4z M6.1,6.1h52.4v57.1h-2.4V9.7c0-0.7-0.5-1.2-1.2-1.2H34.7H30H9.7
					C9,8.5,8.5,9,8.5,9.7v53.6H6.1V6.1z M10.9,63.3V10.9h17.9v52.4H10.9z M31.1,10.9h2.4v52.4h-2.4V10.9z M35.9,10.9h17.9v52.4H35.9
					V10.9z M60.9,66.9c0,0.7-0.5,1.2-1.2,1.2H5c-0.7,0-1.2-0.5-1.2-1.2v-1.2H5h4.8H30h4.8H55h4.8h1.2L60.9,66.9L60.9,66.9z"/>
				<path class="st0" d="M17.7,12.5c-0.5-0.5-1.2-0.5-1.7,0L12.5,16c-0.5,0.5-0.5,1.2,0,1.7c0.2,0.2,0.5,0.4,0.8,0.4
					s0.6-0.1,0.8-0.4l3.6-3.6C18.2,13.6,18.2,12.9,17.7,12.5z"/>
				<path class="st0" d="M14.8,19.6L12.5,22c-0.5,0.5-0.5,1.2,0,1.7c0.2,0.2,0.5,0.4,0.8,0.4s0.6-0.1,0.8-0.4l2.4-2.4
					c0.5-0.5,0.5-1.2,0-1.7C16,19.1,15.3,19.1,14.8,19.6z"/>
				<path class="st0" d="M20.1,17.7l3.6-3.6c0.5-0.5,0.5-1.2,0-1.7c-0.5-0.5-1.2-0.5-1.7,0L18.4,16c-0.5,0.5-0.5,1.2,0,1.7
					c0.2,0.2,0.5,0.4,0.8,0.4S19.8,17.9,20.1,17.7z"/>
				<path class="st0" d="M50.5,56.5L47,60.1c-0.5,0.5-0.5,1.2,0,1.7c0.2,0.2,0.5,0.4,0.8,0.4s0.6-0.1,0.8-0.4l3.6-3.6
					c0.5-0.5,0.5-1.2,0-1.7C51.7,56,51,56,50.5,56.5z"/>
				<path class="st0" d="M50.5,50.5l-2.4,2.4c-0.5,0.5-0.5,1.2,0,1.7c0.2,0.2,0.5,0.4,0.8,0.4s0.6-0.1,0.8-0.4l2.4-2.4
					c0.5-0.5,0.5-1.2,0-1.7C51.7,50.1,51,50.1,50.5,50.5z"/>
				<path class="st0" d="M46.3,56.5c-0.5-0.5-1.2-0.5-1.7,0L41,60.1c-0.5,0.5-0.5,1.2,0,1.7c0.2,0.2,0.5,0.4,0.8,0.4
					s0.6-0.1,0.8-0.4l3.6-3.6C46.7,57.7,46.7,57,46.3,56.5z"/>
				<path class="st0" d="M22.8,31.1c-2,0-3.6,1.5-3.6,3.6v4.8c0,2,1.5,3.6,3.6,3.6s3.6-1.5,3.6-3.6v-4.8
					C26.4,32.7,24.8,31.1,22.8,31.1z M24,39.5c0,0.7-0.5,1.2-1.2,1.2c-0.7,0-1.2-0.5-1.2-1.2v-4.8c0-0.7,0.5-1.2,1.2-1.2
					c0.7,0,1.2,0.6,1.2,1.2V39.5z"/>
				<path class="st0" d="M45.4,39.5v-4.8c0-2-1.5-3.6-3.6-3.6s-3.6,1.5-3.6,3.6v4.8c0,2,1.5,3.6,3.6,3.6S45.4,41.5,45.4,39.5z
					 M40.7,39.5v-4.8c0-0.7,0.5-1.2,1.2-1.2s1.2,0.6,1.2,1.2v4.8c0,0.7-0.5,1.2-1.2,1.2S40.7,40.2,40.7,39.5z"/>
			</g>
		</g>
	</g>
</g>
</svg>
