<?xml version="1.0" encoding="utf-8"?>
<!-- Generator: Adobe Illustrator 22.1.0, SVG Export Plug-In . SVG Version: 6.00 Build 0)  -->
<svg version="1.1" id="Слой_1" xmlns="http://www.w3.org/2000/svg" xmlns:xlink="http://www.w3.org/1999/xlink" x="0px" y="0px"
	 width="85px" height="80px" viewBox="0 0 85 80" style="enable-background:new 0 0 85 80;" xml:space="preserve">
<style type="text/css">
	.st0{fill:#155DD3;}
</style>
<g>
	<g>
		<g>
			<path class="st0" d="M61.7,34.4c0.7,0,1.4-0.6,1.4-1.4V13.9c0-0.4-0.1-0.7-0.4-1L50,0.4c-0.3-0.3-0.6-0.4-1-0.4H3.9
				C3.1,0,2.5,0.6,2.5,1.4v77.3c0,0.7,0.6,1.4,1.4,1.4h57.8c0.7,0,1.4-0.6,1.4-1.4V41.8c0-0.7-0.6-1.4-1.4-1.4s-1.4,0.6-1.4,1.4
				v35.5H5.2V2.7h43.3l11.8,11.8V33C60.3,33.8,60.9,34.4,61.7,34.4z"/>
		</g>
	</g>
	<g>
		<g>
			<path class="st0" d="M62.6,13L50,0.4c-0.4-0.4-1-0.5-1.5-0.3c-0.5,0.2-0.8,0.7-0.8,1.2V14c0,0.7,0.6,1.4,1.4,1.4h12.6
				c0.5,0,1-0.3,1.2-0.8C63.1,14,63,13.4,62.6,13z M50.4,12.6v-8l8,8C58.4,12.6,50.4,12.6,50.4,12.6z"/>
		</g>
	</g>
	<g>
		<g>
			<path class="st0" d="M22.5,8.8H11.1c-0.7,0-1.4,0.6-1.4,1.4c0,0.7,0.6,1.4,1.4,1.4h11.4c0.7,0,1.4-0.6,1.4-1.4S23.2,8.8,22.5,8.8
				z"/>
		</g>
	</g>
	<g>
		<g>
			<path class="st0" d="M56,64.8H43.6c-0.7,0-1.4,0.6-1.4,1.4c0,0.7,0.6,1.4,1.4,1.4H56c0.7,0,1.4-0.6,1.4-1.4
				C57.4,65.4,56.8,64.8,56,64.8z"/>
		</g>
	</g>
	<g>
		<g>
			<path class="st0" d="M56,70.4h-8.2c-0.7,0-1.4,0.6-1.4,1.4c0,0.7,0.6,1.4,1.4,1.4H56c0.7,0,1.4-0.6,1.4-1.4
				C57.4,71,56.8,70.4,56,70.4z"/>
		</g>
	</g>
	<g>
		<g>
			<path class="st0" d="M42.2,22.9H23.3c-0.7,0-1.4,0.6-1.4,1.4s0.6,1.4,1.4,1.4h18.8c0.7,0,1.4-0.6,1.4-1.4
				C43.5,23.5,42.9,22.9,42.2,22.9z"/>
		</g>
	</g>
	<g>
		<g>
			<path class="st0" d="M54.1,29.9H11.4c-0.7,0-1.4,0.6-1.4,1.4c0,0.7,0.6,1.4,1.4,1.4h42.8c0.7,0,1.4-0.6,1.4-1.4
				C55.5,30.5,54.9,29.9,54.1,29.9z"/>
		</g>
	</g>
	<g>
		<g>
			<path class="st0" d="M54.1,35.5H11.4c-0.7,0-1.4,0.6-1.4,1.4s0.6,1.4,1.4,1.4h42.8c0.7,0,1.4-0.6,1.4-1.4S54.9,35.5,54.1,35.5z"
				/>
		</g>
	</g>
	<g>
		<g>
			<path class="st0" d="M44,41.2H11.4c-0.7,0-1.4,0.6-1.4,1.4s0.6,1.4,1.4,1.4H44c0.7,0,1.4-0.6,1.4-1.4
				C45.3,41.8,44.7,41.2,44,41.2z"/>
		</g>
	</g>
	<g>
		<g>
			<path class="st0" d="M45.8,46.9H11.4c-0.7,0-1.4,0.6-1.4,1.4c0,0.7,0.6,1.4,1.4,1.4h34.4c0.7,0,1.4-0.6,1.4-1.4
				C47.2,47.5,46.6,46.9,45.8,46.9z"/>
		</g>
	</g>
	<g>
		<g>
			<path class="st0" d="M42.2,52.6H11.4c-0.7,0-1.4,0.6-1.4,1.4s0.6,1.4,1.4,1.4h30.8c0.7,0,1.4-0.6,1.4-1.4
				C43.5,53.2,42.9,52.6,42.2,52.6z"/>
		</g>
	</g>
	<g>
		<g>
			<path class="st0" d="M28.6,58.3H11.4c-0.7,0-1.4,0.6-1.4,1.4s0.6,1.4,1.4,1.4h17.2c0.7,0,1.4-0.6,1.4-1.4
				C29.9,58.9,29.3,58.3,28.6,58.3z"/>
		</g>
	</g>
	<g>
		<g>
			<path class="st0" d="M27.9,14.6H11.1c-0.7,0-1.4,0.6-1.4,1.4s0.6,1.4,1.4,1.4h16.8c0.7,0,1.4-0.6,1.4-1.4S28.6,14.6,27.9,14.6z"
				/>
		</g>
	</g>
	<g>
		<g>
			<path class="st0" d="M46,55.3l-2.2-2.2c-0.4-0.4-1.1-0.5-1.6-0.2l-4.3,2.4c-0.3,0.2-0.5,0.5-0.6,0.8l-1.8,5.9
				c-0.1,0.5,0,1,0.3,1.4c0.3,0.3,0.6,0.4,1,0.4c0.1,0,0.3,0,0.4-0.1l5.9-1.8c0.3-0.1,0.6-0.3,0.8-0.6l2.4-4.3
				C46.5,56.3,46.4,55.7,46,55.3z M41.7,59.4l-2.9,0.9l0.9-2.9l2.9-1.6l0.7,0.7L41.7,59.4z"/>
		</g>
	</g>
	<g>
		<g>
			<path class="st0" d="M82.1,20.3C82.1,20.3,82,20.3,82.1,20.3L78.7,17c0,0,0,0-0.1-0.1c-0.6-0.6-1.6-0.6-2.2,0c0,0,0,0,0,0
				L60.7,32.1L46.2,46c0,0-0.1,0.1-0.1,0.1L41,52.4c-0.4,0.5-0.4,1.3,0.1,1.8l3.7,3.7c0.3,0.3,0.6,0.4,1,0.4c0.3,0,0.6-0.1,0.9-0.3
				l6.3-5.1c0,0,0.1-0.1,0.1-0.1l9.7-10L82,22.6c0,0,0,0,0,0C82.6,21.9,82.6,21,82.1,20.3z M60.7,40.9l-9.6,10l-5.3,4.3l-2-2
				l4.3-5.3L62.6,34l14.9-14.4l1.8,1.8L60.7,40.9z"/>
		</g>
	</g>
	<g>
		<g>
			<path class="st0" d="M70.7,32.5l-4.2-4.2c-0.5-0.5-1.4-0.5-1.9,0c-0.5,0.5-0.5,1.4,0,1.9l4.2,4.2c0.3,0.3,0.6,0.4,1,0.4
				s0.7-0.1,1-0.4C71.2,33.9,71.2,33,70.7,32.5z"/>
		</g>
	</g>
</g>
</svg>
