<?xml version="1.0" encoding="utf-8"?>
<!-- Generator: Adobe Illustrator 22.1.0, SVG Export Plug-In . SVG Version: 6.00 Build 0)  -->
<svg version="1.1" id="Слой_1" xmlns="http://www.w3.org/2000/svg" xmlns:xlink="http://www.w3.org/1999/xlink" x="0px" y="0px"
	 width="85px" height="80px" viewBox="0 0 85 80" style="enable-background:new 0 0 85 80;" xml:space="preserve">
<style type="text/css">
	.st0{fill:#155DD3;}
</style>
<g>
	<g>
		<g>
			<path class="st0" d="M74.5,21.3v-4c0-0.7-0.6-1.3-1.3-1.3h-2.7v-4h6.7c0.7,0,1.3-0.6,1.3-1.3V5.3c0-2.9-2.4-5.3-5.3-5.3H30.5
				c-2.9,0-5.3,2.4-5.3,5.3v9.3H6.5c-0.7,0-1.3,0.6-1.3,1.3v62.7c0,0.7,0.6,1.3,1.3,1.3h48c0.7,0,1.3-0.6,1.3-1.3v-20h8V68
				c0,0.2,0,0.3,0.1,0.5h0l4,10.7c0.3,0.7,1,1,1.7,0.8c0.4-0.1,0.6-0.4,0.8-0.8l4-10.7h0c0.1-0.1,0.1-0.3,0.1-0.5V24
				c1.5,0,2.7,1.2,2.7,2.7V44h2.7V26.7C79.8,23.7,77.4,21.3,74.5,21.3z M70.5,5.3c0-1.5,1.2-2.7,2.7-2.7c1.5,0,2.7,1.2,2.7,2.7v4
				h-5.3V5.3z M53.2,77.3H7.8v-60h45.3V77.3z M63.8,17.3V56h-8V16c0-0.7-0.6-1.3-1.3-1.3H27.8V5.3c0-1.5,1.2-2.7,2.7-2.7h38.1
				c-0.5,0.8-0.7,1.7-0.7,2.7V16h-2.7C64.4,16,63.8,16.6,63.8,17.3z M69.2,74.9l-2.1-5.5h4.2L69.2,74.9z M71.8,66.7h-5.3V29.3h5.3
				V66.7z M71.8,26.7h-5.3V24h5.3V26.7z M71.8,21.3h-5.3v-2.7h5.3V21.3z"/>
		</g>
	</g>
	<g>
		<g>
			<path class="st0" d="M47.8,21.3H13.2c-0.7,0-1.3,0.6-1.3,1.3v8c0,0.7,0.6,1.3,1.3,1.3h34.7c0.7,0,1.3-0.6,1.3-1.3v-8
				C49.2,21.9,48.6,21.3,47.8,21.3z M46.5,29.3h-32V24h32V29.3z"/>
		</g>
	</g>
	<g>
		<g>
			<path class="st0" d="M21.2,36h-8c-0.7,0-1.3,0.6-1.3,1.3v8c0,0.7,0.6,1.3,1.3,1.3h8c0.7,0,1.3-0.6,1.3-1.3v-8
				C22.5,36.6,21.9,36,21.2,36z M19.8,44h-5.3v-5.3h5.3V44z"/>
		</g>
	</g>
	<g>
		<g>
			<path class="st0" d="M34.5,36h-8c-0.7,0-1.3,0.6-1.3,1.3v8c0,0.7,0.6,1.3,1.3,1.3h8c0.7,0,1.3-0.6,1.3-1.3v-8
				C35.8,36.6,35.2,36,34.5,36z M33.2,44h-5.3v-5.3h5.3V44z"/>
		</g>
	</g>
	<g>
		<g>
			<path class="st0" d="M47.8,36h-8c-0.7,0-1.3,0.6-1.3,1.3v8c0,0.7,0.6,1.3,1.3,1.3h8c0.7,0,1.3-0.6,1.3-1.3v-8
				C49.2,36.6,48.6,36,47.8,36z M46.5,44h-5.3v-5.3h5.3V44z"/>
		</g>
	</g>
	<g>
		<g>
			<path class="st0" d="M21.2,49.3h-8c-0.7,0-1.3,0.6-1.3,1.3v8c0,0.7,0.6,1.3,1.3,1.3h8c0.7,0,1.3-0.6,1.3-1.3v-8
				C22.5,49.9,21.9,49.3,21.2,49.3z M19.8,57.3h-5.3V52h5.3V57.3z"/>
		</g>
	</g>
	<g>
		<g>
			<path class="st0" d="M34.5,49.3h-8c-0.7,0-1.3,0.6-1.3,1.3v8c0,0.7,0.6,1.3,1.3,1.3h8c0.7,0,1.3-0.6,1.3-1.3v-8
				C35.8,49.9,35.2,49.3,34.5,49.3z M33.2,57.3h-5.3V52h5.3V57.3z"/>
		</g>
	</g>
	<g>
		<g>
			<path class="st0" d="M21.2,62.7h-8c-0.7,0-1.3,0.6-1.3,1.3v8c0,0.7,0.6,1.3,1.3,1.3h8c0.7,0,1.3-0.6,1.3-1.3v-8
				C22.5,63.3,21.9,62.7,21.2,62.7z M19.8,70.7h-5.3v-5.3h5.3V70.7z"/>
		</g>
	</g>
	<g>
		<g>
			<path class="st0" d="M34.5,62.7h-8c-0.7,0-1.3,0.6-1.3,1.3v8c0,0.7,0.6,1.3,1.3,1.3h8c0.7,0,1.3-0.6,1.3-1.3v-8
				C35.8,63.3,35.2,62.7,34.5,62.7z M33.2,70.7h-5.3v-5.3h5.3V70.7z"/>
		</g>
	</g>
	<g>
		<g>
			<path class="st0" d="M47.8,49.3h-8c-0.7,0-1.3,0.6-1.3,1.3V72c0,0.7,0.6,1.3,1.3,1.3h8c0.7,0,1.3-0.6,1.3-1.3V50.7
				C49.2,49.9,48.6,49.3,47.8,49.3z M46.5,70.7h-5.3V52h5.3V70.7z"/>
		</g>
	</g>
</g>
</svg>
