<?xml version="1.0" encoding="utf-8"?>
<!-- Generator: Adobe Illustrator 22.1.0, SVG Export Plug-In . SVG Version: 6.00 Build 0)  -->
<svg version="1.1" id="Слой_1" xmlns="http://www.w3.org/2000/svg" xmlns:xlink="http://www.w3.org/1999/xlink" x="0px" y="0px"
	 width="25px" height="25px" viewBox="0 0 25 25" style="enable-background:new 0 0 25 25;" xml:space="preserve">
<style type="text/css">
	.st0{opacity:0.29;fill:#FFFFFF;}
	.st1{fill:#FFFFFF;}
	.st2{fill:#2D70E4;}
	.st3{fill:#343434;}
	.st4{fill:#4FB725;}
</style>
<g>
	<path class="st2" d="M12.5,10C12.5,10,12.5,10,12.5,10c-1.4,0-2.5,1.1-2.5,2.5c0,0,0,0,0,0c0,1.4,1.1,2.5,2.5,2.5c0,0,0,0,0,0
		c1.4,0,2.5-1.1,2.5-2.5c0,0,0,0,0,0C15,11.1,13.9,10,12.5,10z"/>
	<path class="st2" d="M12.5,0C12.5,0,12.4,0,12.5,0l-0.1,3c0,0,0,0,0.1,0c5.2,0,9.5,4.2,9.5,9.4l3,0C25,5.5,19.4,0,12.5,0z"/>
</g>
</svg>
