<?xml version="1.0" encoding="utf-8"?>
<!-- Generator: Adobe Illustrator 22.1.0, SVG Export Plug-In . SVG Version: 6.00 Build 0)  -->
<svg version="1.1" id="Слой_1" xmlns="http://www.w3.org/2000/svg" xmlns:xlink="http://www.w3.org/1999/xlink" x="0px" y="0px"
	 width="85px" height="80px" viewBox="0 0 85 80" style="enable-background:new 0 0 85 80;" xml:space="preserve">
<style type="text/css">
	.st0{fill:#155DD3;}
</style>
<g>
	<g>
		<g>
			<path class="st0" d="M51,40.7l-6-2.3l-3.4-3.4c-0.2-0.2-0.5-0.3-0.8-0.3v-2.8c1.6-1.7,2.8-3.9,3.2-6.4c0,0,0,0,0,0
				c0.3,0,0.6,0,0.9-0.1c1.6-0.3,2.8-1.8,2.8-3.6v-0.9c0-1-0.4-1.9-1.1-2.6c1.1-5.9,0.2-10.7-2.6-14c-2.7-3.1-7-4.6-12.5-4.3
				c-5.1,0.3-8.4,2.7-9.4,3.5c-1.4,0.2-5.5,1.2-5.5,6.9c0,3.1,0.5,5.8,0.9,7.2c-1.2,0.6-2,1.8-2,3.3v0.9c0,1.7,1.2,3.2,2.8,3.6
				c0.3,0.1,0.6,0.1,0.9,0.1c0,0,0,0,0,0c0.5,2.5,1.6,4.7,3.2,6.4v2.8c-0.3,0-0.6,0.1-0.8,0.3l-3.4,3.4l-6.7,2.6
				c-3.2,1.2-5.3,4.4-5.2,7.9l1,23.8c0,0.6,0.5,1.1,1.2,1.1c0,0,0,0,0,0c0.6,0,1.1-0.6,1.1-1.2l-1-23.8c0-0.6,0.1-1.3,0.2-1.8
				l3.8,3.8c1.1,1.1,1.7,2.5,1.7,4.1v17.8c0,0.6,0.5,1.2,1.2,1.2c0.6,0,1.2-0.5,1.2-1.2V54.7c0-2.2-0.8-4.2-2.4-5.7L10,44.7
				c0.6-0.7,1.4-1.3,2.3-1.6l6.3-2.4l4.8,7.2c0.6,0.9,1.5,1.4,2.5,1.5c0.1,0,0.2,0,0.3,0c0.6,0,1.3-0.2,1.8-0.5l-1,23.6
				c0,0.6,0.5,1.2,1.1,1.2c0,0,0,0,0.1,0c0.6,0,1.1-0.5,1.2-1.1l1-21.9h2.7l1,21.9c0,0.6,0.5,1.1,1.2,1.1c0,0,0,0,0.1,0
				c0.6,0,1.1-0.6,1.1-1.2l-1-23.6c0.5,0.3,1.2,0.5,1.8,0.5c0.1,0,0.2,0,0.3,0c1-0.1,2-0.7,2.5-1.5l4.8-7.2l5.5,2.1
				c0.1,0.1,0.3,0.1,0.4,0.1c0.5,0,0.9-0.3,1.1-0.8C52,41.6,51.7,40.9,51,40.7z M21.5,25c-0.2-1.2-1.3-2-2.4-1.9c-0.1,0-0.2,0-0.3,0
				c-0.5-0.1-0.9-0.6-0.9-1.3v-0.9c0-0.6,0.4-1.1,0.9-1.2c0.4-0.1,0.8,0.1,1.1,0.4c0.2,0.3,0.5,0.5,0.8,0.6c0.5,0.1,1,0.1,1.4-0.2
				c1-0.7,1.8-1.5,2.4-2.5c0.3-0.5,0.2-1.3-0.4-1.6c-0.5-0.3-1.3-0.2-1.6,0.4c-0.4,0.6-0.8,1.1-1.3,1.5c-0.4-0.4-0.9-0.6-1.4-0.7
				c-0.3-1.2-0.9-3.8-0.9-7c0-1.9,0.6-3.3,1.8-4c0.9-0.6,1.9-0.6,1.9-0.6c0.3,0,0.6-0.1,0.8-0.3c0,0,3.1-2.9,8.3-3.1
				c4.8-0.3,8.4,0.9,10.6,3.5c2.2,2.6,3,6.5,2.1,11.5c-0.4,0-0.7,0-1.1,0.1l-1.2-2.8c-0.2-0.5-0.8-0.8-1.4-0.7
				c-0.1,0-11.5,2.9-16.3-3c-0.4-0.5-1.1-0.6-1.6-0.2c-0.5,0.4-0.6,1.1-0.2,1.6c4.9,6.1,14.6,4.7,17.7,4.1l0.9,2.2
				c0.4,0.9,1.3,1.4,2.3,1.2c0.4-0.1,0.8-0.1,0.9-0.1c0.5,0.1,0.9,0.6,0.9,1.2v0.9c0,0.6-0.4,1.2-0.9,1.3c-0.1,0-0.2,0-0.3,0
				C43.1,23,42,23.8,41.8,25c-0.9,4.9-5.2,8.5-10.2,8.5C26.6,33.4,22.4,29.9,21.5,25z M27,46.8c-0.2,0.2-0.6,0.4-0.9,0.3
				c-0.3,0-0.6-0.2-0.8-0.5l-4.8-7.2l2-2l7.4,6.5L27,46.8z M30.4,48.4l0.1-1.8l1.2-1.2l1.2,1.2l0.1,1.8H30.4z M31.6,42.3l-6.9-6
				v-2.5c2,1.3,4.4,2,6.9,2c2.5,0,4.9-0.7,6.9-2v2.5L31.6,42.3z M38,46.6c-0.2,0.3-0.5,0.5-0.8,0.5c-0.2,0-0.6,0-0.9-0.3l-2.9-2.9
				l7.4-6.5l2,2L38,46.6z"/>
		</g>
	</g>
	<g>
		<g>
			<path class="st0" d="M78.7,55c0-2.7-2.2-4.9-4.9-4.9h-7.6v-2.6c0-2-1.6-3.7-3.7-3.7H55c-2,0-3.7,1.6-3.7,3.7v2.6h-7.6
				c-2.7,0-4.9,2.2-4.9,4.9v3.5c0,1.3,0.4,2.5,1.3,3.7v13c0,2.6,2.2,4.8,4.8,4.8h27.8c2.6,0,4.8-2.2,4.8-4.8v-13
				c0.8-1.1,1.3-2.4,1.3-3.7L78.7,55L78.7,55z M53.7,47.5L53.7,47.5c0-0.7,0.6-1.3,1.3-1.3h7.5c0.7,0,1.3,0.6,1.3,1.3v2.6H53.7V47.5
				z M76.4,58.5c0,2-1.9,4-5.2,5.5v-0.2c0-0.6-0.5-1.2-1.2-1.2h-5c-0.6,0-1.2,0.5-1.2,1.2v3.8c0,2,1.6,3.7,3.7,3.7
				c2,0,3.7-1.6,3.7-3.7v-1c1.5-0.6,2.8-1.3,3.9-2.1v10.7c0,1.4-1.1,2.5-2.5,2.5H44.9c-1.4,0-2.5-1.1-2.5-2.5V64.4
				c1.1,0.8,2.4,1.5,3.9,2.1v1c0,2,1.6,3.7,3.7,3.7c1.7,0,3.2-1.2,3.6-2.8c1.7,0.2,3.4,0.3,5.2,0.3c0.4,0,0.9,0,1.3,0
				c0.6,0,1.2-0.6,1.1-1.2c0-0.6-0.6-1.2-1.2-1.1c-0.4,0-0.8,0-1.2,0c-1.7,0-3.4-0.1-5.1-0.3v-2.2c0-0.6-0.5-1.2-1.2-1.2h-5
				c-0.6,0-1.2,0.5-1.2,1.2V64c-3.3-1.5-5.2-3.5-5.2-5.5V55c0-1.4,1.2-2.6,2.6-2.6h30.1c1.4,0,2.6,1.2,2.6,2.6V58.5z M68.9,65v2.6
				c0,0.7-0.6,1.3-1.3,1.3c-0.7,0-1.3-0.6-1.3-1.3V65H68.9z M48.7,67.6V65h2.7v2.6c0,0.7-0.6,1.3-1.3,1.3
				C49.3,68.9,48.7,68.3,48.7,67.6z"/>
		</g>
	</g>
</g>
</svg>
