<?xml version="1.0" encoding="utf-8"?>
<!-- Generator: Adobe Illustrator 22.1.0, SVG Export Plug-In . SVG Version: 6.00 Build 0)  -->
<svg version="1.1" id="Слой_1" xmlns="http://www.w3.org/2000/svg" xmlns:xlink="http://www.w3.org/1999/xlink" x="0px" y="0px"
	 width="85px" height="80px" viewBox="0 0 85 80" style="enable-background:new 0 0 85 80;" xml:space="preserve">
<style type="text/css">
	.st0{fill:#155DD3;}
</style>
<g>
	<g>
		<g>
			<path class="st0" d="M63.8,6.4h-5.4C57.6,6.4,57,7,57,7.7s0.6,1.4,1.4,1.4h5.4c1.1,0,2,0.9,2,1.9v9.1H5.2V11c0-1.1,0.9-1.9,2-1.9
				h5.4c0.7,0,1.4-0.6,1.4-1.4s-0.6-1.4-1.4-1.4H7.2c-2.6,0-4.7,2.1-4.7,4.6v10.4c0,0.7,0.6,1.4,1.4,1.4h63.3c0.7,0,1.4-0.6,1.4-1.4
				V11C68.5,8.5,66.4,6.4,63.8,6.4z"/>
		</g>
	</g>
	<g>
		<g>
			<path class="st0" d="M54.2,6.4H16.8c-0.7,0-1.4,0.6-1.4,1.4s0.6,1.4,1.4,1.4h37.4c0.7,0,1.4-0.6,1.4-1.4S54.9,6.4,54.2,6.4z"/>
		</g>
	</g>
	<g>
		<g>
			<path class="st0" d="M14.7,0c-1.9,0-3.5,1.5-3.5,3.4V12c0,1.9,1.6,3.4,3.5,3.4c1.9,0,3.4-1.5,3.4-3.4V3.4C18.2,1.5,16.6,0,14.7,0
				z M15.5,12c0,0.4-0.3,0.7-0.7,0.7c-0.4,0-0.7-0.3-0.7-0.7V3.4c0-0.4,0.3-0.7,0.7-0.7c0.4,0,0.7,0.3,0.7,0.7
				C15.5,3.4,15.5,12,15.5,12z"/>
		</g>
	</g>
	<g>
		<g>
			<path class="st0" d="M56.3,0c-1.9,0-3.4,1.5-3.4,3.4V12c0,1.9,1.5,3.4,3.4,3.4c1.9,0,3.5-1.5,3.5-3.4V3.4C59.7,1.5,58.2,0,56.3,0
				z M57,12c0,0.4-0.3,0.7-0.8,0.7c-0.4,0-0.7-0.3-0.7-0.7V3.4c0-0.4,0.3-0.7,0.7-0.7C56.7,2.7,57,3,57,3.4V12z"/>
		</g>
	</g>
	<g>
		<g>
			<path class="st0" d="M38.4,24.4h-5.9c-0.7,0-1.4,0.6-1.4,1.4v5.9c0,0.7,0.6,1.4,1.4,1.4h5.9c0.7,0,1.4-0.6,1.4-1.4v-5.9
				C39.8,25,39.2,24.4,38.4,24.4z M37.1,30.2h-3.2v-3.2h3.2V30.2z"/>
		</g>
	</g>
	<g>
		<g>
			<path class="st0" d="M49,24.4h-5.9c-0.7,0-1.4,0.6-1.4,1.4v5.9c0,0.7,0.6,1.4,1.4,1.4H49c0.7,0,1.4-0.6,1.4-1.4v-5.9
				C50.3,25,49.7,24.4,49,24.4z M47.6,30.2h-3.2v-3.2h3.2V30.2z"/>
		</g>
	</g>
	<g>
		<g>
			<path class="st0" d="M59.5,24.4h-5.9c-0.7,0-1.4,0.6-1.4,1.4v5.9c0,0.7,0.6,1.4,1.4,1.4h5.9c0.7,0,1.4-0.6,1.4-1.4v-5.9
				C60.8,25,60.2,24.4,59.5,24.4z M58.1,30.2H55v-3.2h3.2V30.2z"/>
		</g>
	</g>
	<g>
		<g>
			<path class="st0" d="M17.4,33.9h-5.9c-0.7,0-1.4,0.6-1.4,1.4v5.9c0,0.7,0.6,1.4,1.4,1.4h5.9c0.7,0,1.4-0.6,1.4-1.4v-5.9
				C18.7,34.5,18.1,33.9,17.4,33.9z M16,39.8h-3.2v-3.2H16C16,36.6,16,39.8,16,39.8z"/>
		</g>
	</g>
	<g>
		<g>
			<path class="st0" d="M27.9,33.9H22c-0.7,0-1.4,0.6-1.4,1.4v5.9c0,0.7,0.6,1.4,1.4,1.4h5.9c0.7,0,1.4-0.6,1.4-1.4v-5.9
				C29.2,34.5,28.6,33.9,27.9,33.9z M26.5,39.8h-3.2v-3.2h3.2V39.8z"/>
		</g>
	</g>
	<g>
		<g>
			<path class="st0" d="M38.4,33.9h-5.9c-0.7,0-1.4,0.6-1.4,1.4v5.9c0,0.7,0.6,1.4,1.4,1.4h5.9c0.7,0,1.4-0.6,1.4-1.4v-5.9
				C39.8,34.5,39.2,33.9,38.4,33.9z M37.1,39.8h-3.2v-3.2h3.2V39.8z"/>
		</g>
	</g>
	<g>
		<g>
			<path class="st0" d="M17.4,43.5h-5.9c-0.7,0-1.4,0.6-1.4,1.4v5.9c0,0.7,0.6,1.4,1.4,1.4h5.9c0.7,0,1.4-0.6,1.4-1.4v-5.9
				C18.7,44.1,18.1,43.5,17.4,43.5z M16,49.4h-3.2v-3.2H16C16,46.2,16,49.4,16,49.4z"/>
		</g>
	</g>
	<g>
		<g>
			<path class="st0" d="M27.9,43.5H22c-0.7,0-1.4,0.6-1.4,1.4v5.9c0,0.7,0.6,1.4,1.4,1.4h5.9c0.7,0,1.4-0.6,1.4-1.4v-5.9
				C29.2,44.1,28.6,43.5,27.9,43.5z M26.5,49.4h-3.2v-3.2h3.2V49.4z"/>
		</g>
	</g>
	<g>
		<g>
			<path class="st0" d="M17.4,53.1h-5.9c-0.7,0-1.4,0.6-1.4,1.4v5.9c0,0.7,0.6,1.4,1.4,1.4h5.9c0.7,0,1.4-0.6,1.4-1.4v-5.9
				C18.7,53.7,18.1,53.1,17.4,53.1z M16,59h-3.2v-3.2H16C16,55.8,16,59,16,59z"/>
		</g>
	</g>
	<g>
		<g>
			<path class="st0" d="M27.9,53.1H22c-0.7,0-1.4,0.6-1.4,1.4v5.9c0,0.7,0.6,1.4,1.4,1.4h5.9c0.7,0,1.4-0.6,1.4-1.4v-5.9
				C29.2,53.7,28.6,53.1,27.9,53.1z M26.5,59h-3.2v-3.2h3.2V59z"/>
		</g>
	</g>
	<g>
		<g>
			<path class="st0" d="M59,32.9c-13,0-23.5,10.6-23.5,23.5S46,80,59,80s23.5-10.6,23.5-23.5S72,32.9,59,32.9z M59,77.3
				c-11.5,0-20.8-9.3-20.8-20.8S47.5,35.6,59,35.6S79.8,45,79.8,56.5S70.5,77.3,59,77.3z"/>
		</g>
	</g>
	<g>
		<g>
			<path class="st0" d="M49,33.9h-5.9c-0.7,0-1.4,0.6-1.4,1.4V41c0,0.7,0.6,1.4,1.4,1.4s1.4-0.6,1.4-1.4v-4.4h3.2v0.1
				c0,0.7,0.6,1.4,1.4,1.4s1.4-0.6,1.4-1.4v-1.4C50.3,34.5,49.7,33.9,49,33.9z"/>
		</g>
	</g>
	<g>
		<g>
			<path class="st0" d="M38.4,43.5h-5.9c-0.7,0-1.4,0.6-1.4,1.4v5.9c0,0.7,0.6,1.4,1.4,1.4h5c0.7,0,1.4-0.6,1.4-1.4
				s-0.6-1.4-1.4-1.4h-3.7v-3.2h3.2v1.9c0,0.7,0.6,1.4,1.4,1.4s1.4-0.6,1.4-1.4v-3.3C39.8,44.1,39.2,43.5,38.4,43.5z"/>
		</g>
	</g>
	<g>
		<g>
			<path class="st0" d="M67.1,20.1H3.9c-0.7,0-1.4,0.6-1.4,1.4v39.9c0,2.6,2.1,4.6,4.7,4.6h31.2c0.7,0,1.4-0.6,1.4-1.4
				c0-0.7-0.6-1.4-1.4-1.4H7.2c-1.1,0-2-0.9-2-1.9V22.8h60.6v13.1c0,0.7,0.6,1.4,1.4,1.4s1.4-0.6,1.4-1.4V21.4
				C68.5,20.7,67.9,20.1,67.1,20.1z"/>
		</g>
	</g>
	<g>
		<g>
			<path class="st0" d="M59,37.8c-10.3,0-18.6,8.4-18.6,18.6S48.7,75.1,59,75.1s18.6-8.4,18.6-18.6S69.3,37.8,59,37.8z M59,72.4
				c-8.8,0-15.9-7.1-15.9-15.9c0-8.8,7.1-15.9,15.9-15.9s15.9,7.1,15.9,15.9S67.8,72.4,59,72.4z"/>
		</g>
	</g>
	<g>
		<g>
			<path class="st0" d="M67.6,64.5l-7.2-7.2c0.1-0.2,0.2-0.5,0.2-0.8c0-0.7-0.5-1.3-1.1-1.6v-8.7c0-0.3-0.2-0.6-0.6-0.6
				c-0.3,0-0.6,0.2-0.6,0.6v8.7c-0.1,0-0.2,0.1-0.2,0.1l-1.3-1.3c-0.1-0.1-0.4-0.1-0.5,0c-0.1,0.1-0.1,0.4,0,0.5l1.2,1.2
				c-0.1,0.1-0.1,0.1-0.2,0.2h-6.6c-0.4,0-0.7,0.3-0.7,0.7c0,0.4,0.3,0.7,0.7,0.7h6.6c0.3,0.6,0.8,0.9,1.5,0.9c0.4,0,0.7-0.1,1-0.3
				l7.2,7.2c0.1,0.1,0.2,0.1,0.3,0.1c0.1,0,0.2,0,0.3-0.1C67.8,64.9,67.8,64.6,67.6,64.5z M59.9,56.7c0,0.1-0.1,0.2-0.2,0.3l0,0
				c-0.1,0.1-0.2,0.2-0.3,0.2c-0.1,0.1-0.3,0.1-0.4,0.1c-0.5,0-0.9-0.4-0.9-0.9c0-0.2,0-0.3,0.1-0.4c0.1-0.1,0.1-0.2,0.2-0.3
				c0,0,0,0,0,0c0.1-0.1,0.2-0.1,0.3-0.2c0.1,0,0.2,0,0.2,0c0.5,0,0.9,0.4,0.9,0.9C59.9,56.6,59.9,56.6,59.9,56.7z"/>
		</g>
	</g>
	<g>
		<g>
			<circle class="st0" cx="59" cy="42.5" r="0.8"/>
		</g>
	</g>
	<g>
		<g>
			<circle class="st0" cx="59" cy="70.5" r="0.8"/>
		</g>
	</g>
	<g>
		<g>
			<circle class="st0" cx="73" cy="56.5" r="0.8"/>
		</g>
	</g>
	<g>
		<g>
			<circle class="st0" cx="45" cy="56.5" r="0.8"/>
		</g>
	</g>
</g>
</svg>
