<svg xmlns="http://www.w3.org/2000/svg" viewBox="0 0 514.154 685.539">
  <defs>
    <style>
      .cls-1 {
        opacity: 0.535;
      }

      .cls-2 {
        fill: #353535;
      }
    </style>
  </defs>
  <g id="Group_566" data-name="Group 566" class="cls-1" transform="translate(-1013.797 -1000.221)">
    <path id="Path_439" data-name="Path 439" class="cls-2" d="M41.2,508.926H347.37V34.4H41.2Zm2.524-472H344.846V506.15H43.724Z" transform="translate(1076.589 1052.645)"/>
    <path id="Path_440" data-name="Path 440" class="cls-2" d="M133.176,39.3H46.6V143.04h86.323V39.3Zm-.757,103.235H47.357V39.8h85.314v102.73Z" transform="translate(1084.819 1060.117)"/>
    <path id="Path_441" data-name="Path 441" class="cls-2" d="M171.423,39.3H85.1V143.04h86.323Zm-.5,103.235H85.6V39.8h85.314Z" transform="translate(1143.496 1060.117)"/>
    <path id="Path_442" data-name="Path 442" class="cls-2" d="M209.823,39.3H123.5V143.04h86.323Zm-.5,103.235H124V39.8h85.314Z" transform="translate(1202.021 1060.117)"/>
    <path id="Path_443" data-name="Path 443" class="cls-2" d="M132.823,84.9H46.5v103.74h86.323Zm-.5,103.235H47V85.4h85.314Z" transform="translate(1084.667 1129.612)"/>
    <path id="Path_444" data-name="Path 444" class="cls-2" d="M171.476,84.9H84.9v103.74h86.323V84.9Zm-.757,103.235H85.657V85.4h85.314v102.73Z" transform="translate(1143.191 1129.612)"/>
    <path id="Path_445" data-name="Path 445" class="cls-2" d="M209.723,84.9H123.4v103.74h86.323Zm-.757,103.235H123.652V85.4h85.314Z" transform="translate(1201.868 1129.612)"/>
    <path id="Path_446" data-name="Path 446" class="cls-2" d="M132.876,130.5H46.3V234.24h86.323V130.5Zm-.757,102.982H47.057V131h85.314V233.482Z" transform="translate(1084.361 1199.114)"/>
    <path id="Path_447" data-name="Path 447" class="cls-2" d="M171.276,130.5H84.7V234.24h86.576Zm-.757,102.982H85.457V131h85.314V233.482Z" transform="translate(1142.886 1199.114)"/>
    <path id="Path_448" data-name="Path 448" class="cls-2" d="M209.523,130.5H123.2V234.24h86.323Zm-.5,102.982H123.7V131h85.314Z" transform="translate(1201.563 1199.114)"/>
    <path id="Path_449" data-name="Path 449" class="cls-2" d="M46.8,279.84h86.323V176.1H46.8ZM47.557,176.6h85.314V279.082H47.557Z" transform="translate(1085.124 1268.609)"/>
    <path id="Path_450" data-name="Path 450" class="cls-2" d="M85.2,279.84h86.323V176.1H85.2ZM85.957,176.6h85.314V279.082H85.957Z" transform="translate(1143.649 1268.609)"/>
    <path id="Path_451" data-name="Path 451" class="cls-2" d="M123.7,279.84h86.323V176.1H123.7Zm.5-103.235h85.314V279.082H124.2V176.6Z" transform="translate(1202.325 1268.609)"/>
    <path id="Path_452" data-name="Path 452" class="cls-2" d="M177.657,124.8a6.142,6.142,0,0,0-6.058,6.058,5.887,5.887,0,0,0,3.281,5.3h.252v33.318a2.777,2.777,0,0,0,5.553,0V136.158h.252a5.887,5.887,0,0,0,3.281-5.3A7,7,0,0,0,177.657,124.8Zm1.514,44.929a1.514,1.514,0,1,1-3.029,0v-35.59a1.514,1.514,0,0,1,3.029,0v35.59Zm1.262-34.832v-.5a2.777,2.777,0,1,0-5.553,0v.5a4.9,4.9,0,0,1-2.019-4.039,4.792,4.792,0,0,1,4.8-4.8,4.965,4.965,0,0,1,4.8,4.8A5.269,5.269,0,0,1,180.434,134.9Z" transform="translate(1275.329 1190.424)"/>
    <path id="Path_453" data-name="Path 453" class="cls-2" d="M514.154,656.007H503.806l-5.3-5.3.252-.252-5.805-5.805V644.4l-39.88-40.133V43.919h-.252L493.2,4.038V644.4l3.786,3.786V0H20.193V644.144L7.572,656.008H0v10.853H18.426v18.678H498V666.861h16.154Zm-18.426,27.008H20.95V668.123H495.476v14.892ZM64.112,46.191,88.343,71.684V577.509L64.112,602.749ZM425.559,578.266l24.988,25.241H65.121L89.6,578.266ZM90.362,576.5V72.693H424.55V576.5Zm336.207.757V71.684l25.241-26.25V602.749Zm-1.01-506.33H89.352L64.869,45.433H449.79ZM20.193,646.416l3.786-3.534,39.376-37.1,388.2-.252,39.88,40.133h0l3.786,3.786h0L500.777,655l-488.914-.757Zm43.162-602.5L24.484,3.786H492.447l-40.89,40.133ZM23.979,4.291,62.849,44.424V603.759H62.6L23.979,640.106ZM225.9,655.5c92.129.253,184.258.253,276.386.5h0C410.162,655.755,318.034,655.755,225.9,655.5Z" transform="translate(1013.797 1000.221)"/>
  </g>
</svg>
