<svg id="svg11038" xmlns="http://www.w3.org/2000/svg" width="200" height="26.07" viewBox="0 0 200 26.07"><defs><style>.cls-1{fill:#231f20;}</style></defs><title>logo</title><g id="layer1"><g id="g11594"><g id="g10482"><path id="path10484" class="cls-1" d="M531.82,51.45h-5.07v26H550a7.24,7.24,0,0,0,4.43-5.12H531.81Zm37.93,5.2h19.39a7.17,7.17,0,0,0,5.26-5.21H564.49a7.2,7.2,0,0,0,5.26,5.21M507,56.57c2.69-.78,5-2.84,5.52-5.11H484V66.82h23.29v5.4H489.05a10.17,10.17,0,0,0-6.5,5.26l1.47,0h28.3V61.71H489.05V56.57Zm58.31,20.89h5V67h18.36V77.46h5V61.76l-28.44,0V77.46ZM444.84,56.63h19.38a7.19,7.19,0,0,0,5.27-5.21H439.57a7.2,7.2,0,0,0,5.27,5.21M394.4,51.47a7.28,7.28,0,0,0,5.26,5.19h8.16l.41.16V77.41h5.1V56.82l.46-.16H422a7.37,7.37,0,0,0,5.23-5.19v0H394.4Zm50.44,26h19.38a7.18,7.18,0,0,0,5.27-5.22H439.57a7.2,7.2,0,0,0,5.27,5.22m0-10.56h19.38a7.17,7.17,0,0,0,5.27-5.21H439.57a7.19,7.19,0,0,0,5.27,5.21" transform="translate(-394.4 -51.42)"/></g></g></g></svg>