<svg id="Group_404" data-name="Group 404" xmlns="http://www.w3.org/2000/svg" width="24.112" height="26.785" viewBox="0 0 24.112 26.785">
  <path id="Path_285" data-name="Path 285" d="M306.83,240.508h-.445v-3.16a3.348,3.348,0,0,0-6.7,0v3.16h-.445a.444.444,0,0,0-.445.445v4.912a2.677,2.677,0,0,0,2.679,2.678H304.6a2.677,2.677,0,0,0,2.678-2.678v-4.912A.452.452,0,0,0,306.83,240.508Zm-6.252-3.16a2.454,2.454,0,1,1,4.907,0v3.16h-4.912v-3.16Zm5.8,8.517a1.783,1.783,0,0,1-1.784,1.784h-3.123a1.783,1.783,0,0,1-1.784-1.784V241.4h6.7v4.462Z" transform="translate(-283.168 -221.758)" fill="#353535"/>
  <path id="Path_286" data-name="Path 286" d="M345.326,401.1h-3.081a.445.445,0,0,0,0,.889h3.081a.445.445,0,1,0,0-.889Z" transform="translate(-323.919 -380.117)" fill="#353535"/>
  <path id="Path_287" data-name="Path 287" d="M345.326,443.7h-3.081a.445.445,0,0,0,0,.889h3.081a.445.445,0,1,0,0-.889Z" transform="translate(-323.919 -420.488)" fill="#353535"/>
  <path id="Path_288" data-name="Path 288" d="M11.159,0H2.234A2.233,2.233,0,0,0,0,2.234V24.557a2.232,2.232,0,0,0,2.234,2.229h8.93A2.236,2.236,0,0,0,13.4,24.551V8.93h6.252a1.784,1.784,0,0,0,0-3.568H13.393V2.234A2.233,2.233,0,0,0,11.159,0ZM12.5,24.551a1.342,1.342,0,0,1-1.339,1.339H2.234A1.342,1.342,0,0,1,.895,24.551V2.234A1.342,1.342,0,0,1,2.234.895h8.93A1.342,1.342,0,0,1,12.5,2.234V5.357H9.778A3.519,3.519,0,0,0,6.7,3.573a3.573,3.573,0,0,0,0,7.146A3.53,3.53,0,0,0,9.778,8.935H12.5V24.551ZM6.7,8.93h2a2.68,2.68,0,1,1-2-4.468,2.637,2.637,0,0,1,2,.895h-2a1.787,1.787,0,0,0,0,3.573ZM20.534,7.141a.894.894,0,0,1-.895.895H6.7a.895.895,0,0,1,0-1.789H19.644A.9.9,0,0,1,20.534,7.141Z" fill="#353535"/>
  <path id="Path_289" data-name="Path 289" d="M103.767,307.2a1.335,1.335,0,0,0-.445,2.595v1.423a.445.445,0,1,0,.889,0v-1.423a1.335,1.335,0,0,0-.445-2.595Zm0,1.784a.445.445,0,1,1,.445-.445A.444.444,0,0,1,103.767,308.984Z" transform="translate(-97.071 -291.129)" fill="#353535"/>
</svg>
