<svg xmlns="http://www.w3.org/2000/svg" xmlns:xlink="http://www.w3.org/1999/xlink"><symbol viewBox="0 0 25 25" id="angle" xmlns="http://www.w3.org/2000/svg"><path d="M.995 1.659l3.898 3.898-.995 1.078a.504.504 0 000 .663.505.505 0 00.664 0L5.64 6.22l2.074 2.073-1.079 1.079a.504.504 0 000 .663.505.505 0 00.664 0l1.078-1.078 2.074 2.073-1.078 1.079a.504.504 0 000 .663.505.505 0 00.663 0l1.079-1.078 2.073 2.073-.995 1.161a.504.504 0 000 .664.505.505 0 00.664 0l1.078-1.078 2.074 2.073-1.079 1.161a.504.504 0 000 .664.505.505 0 00.664 0l1.078-1.078 2.074 2.073-1.078 1.078a.504.504 0 000 .664.505.505 0 00.663 0l1.079-1.079 3.898 3.898H.912V1.658zM.497 25.047h24.055c.166 0 .415-.083.415-.332.083-.166 0-.415-.083-.498L.83.166C.663 0 .497 0 .331 0 .082.083 0 .332 0 .497V24.55c0 .249.248.498.497.498z"/><path d="M5.27 19.859v-7.957l7.958 7.957zm-.162-9.5c-.162-.162-.324-.162-.487-.08-.162.08-.325.243-.325.405v9.662c0 .244.244.487.488.487h9.662c.162 0 .406-.08.406-.324.08-.163 0-.406-.082-.488z"/></symbol><symbol viewBox="0 0 10 10" id="arrow-next-a" xmlns="http://www.w3.org/2000/svg"><path d="M.172 8.215l3.566-3.566L.172 1.083a.584.584 0 010-.83.584.584 0 01.831 0l3.981 3.98a.584.584 0 010 .832l-3.98 3.98a.583.583 0 01-.832 0 .584.584 0 010-.83z" fill="#fff" style="animation:pulse .75s ease-out infinite"/><path d="M4.153 8.215L7.72 4.649 4.153 1.083a.584.584 0 010-.83.584.584 0 01.831 0l3.982 3.98a.592.592 0 010 .831L4.984 9.046a.583.583 0 01-.83 0 .583.583 0 010-.831z" fill="#fff" style="animation:pulse .75s .3s ease-out infinite"/><path d="M4.153 8.215L7.72 4.649 4.153 1.083a.584.584 0 010-.83.584.584 0 01.831 0l3.982 3.98a.592.592 0 010 .831L4.984 9.046a.583.583 0 01-.83 0 .583.583 0 010-.831z" fill="#fff" style="animation:pulse .75s .3s ease-out infinite"/><path d="M.172 8.215l3.566-3.566L.172 1.083a.584.584 0 010-.83.584.584 0 01.831 0l3.981 3.98a.584.584 0 010 .832l-3.98 3.98a.583.583 0 01-.832 0 .584.584 0 010-.83z" fill="#fff" style="animation:pulse .75s ease-out infinite"/></symbol><symbol viewBox="0 0 10 10" id="arrow-prev-a" xmlns="http://www.w3.org/2000/svg"><path d="M4.985 8.164L1.419 4.598l3.566-3.565a.584.584 0 000-.832.584.584 0 00-.832 0L.173 4.183a.592.592 0 000 .831l3.98 3.98a.583.583 0 00.832 0 .583.583 0 000-.83z" fill="#fff" style="animation:pulse .75s .3s ease-out infinite"/><path d="M8.966 8.164L5.4 4.598l3.566-3.565a.584.584 0 000-.832.584.584 0 00-.832 0l-3.98 3.982a.584.584 0 000 .83l3.98 3.982a.583.583 0 00.832 0 .584.584 0 000-.831z" fill="#fff" style="animation:pulse .75s ease-out infinite"/></symbol><symbol viewBox="0 0 18 11" id="arrow-up" xmlns="http://www.w3.org/2000/svg"><path d="M16.024 10.338L9 3.315l-7.024 7.023a1.15 1.15 0 01-.818.34c-.31 0-.6-.12-.819-.34A1.15 1.15 0 010 9.52c0-.31.12-.6.34-.819L8.18.86c.216-.216.514-.34.819-.34.304 0 .603.124.818.34l7.844 7.84c.219.219.339.51.339.819 0 .31-.12.6-.34.818a1.15 1.15 0 01-.818.34c-.31 0-.6-.12-.818-.34z" fill="#fff"/></symbol><symbol viewBox="0 0 10 17" id="back" xmlns="http://www.w3.org/2000/svg"><path d="M9 .543L1 8.547l8 7.89"/></symbol><symbol viewBox="0 0 25 27" id="book" xmlns="http://www.w3.org/2000/svg"><path d="M.893 2.232h.893V15.18H9c.18 0 .36.036.526.107l2.973 1.27 3.001-1.271a1.33 1.33 0 01.523-.106h7.19V2.232h.893v13.84H15.99a2.231 2.231 0 00-.879.178L12.5 17.37l-2.612-1.12a2.225 2.225 0 00-.88-.179H.894zM2.679.892H9.82c1.233.002 2.231 1 2.233 2.233v12.27l-2.176-.93a2.218 2.218 0 00-.877-.18H2.679zm12.5 0h7.142v13.394h-6.297c-.3 0-.596.06-.871.178l-2.207.933V3.125c.002-1.232 1-2.23 2.233-2.232zm7.589 20.983v3.571c0 .247-.2.447-.447.447h-1.785a.446.446 0 01-.447-.447v-3.571c0-.247.2-.446.447-.446h1.785c.247 0 .447.2.447.446zm-13.76-4.91c.182 0 .361.036.528.107l2.964 1.27 2.964-1.27c.167-.071.346-.108.527-.108H25V1.34h-1.786V0H15.18a3.124 3.124 0 00-2.68 1.518A3.124 3.124 0 009.821 0H1.786v1.34H0v15.624h1.786v1.34c0 .74.6 1.339 1.339 1.339h17.41c.247 0 .447.2.447.446v.447h-.446c-.74 0-1.34.6-1.34 1.339v3.571c0 .74.6 1.34 1.34 1.34h1.785c.74 0 1.34-.6 1.34-1.34v-3.571c0-.74-.6-1.34-1.34-1.34h-.446v-.446c0-.74-.6-1.339-1.34-1.339H3.126a.446.446 0 01-.446-.446v-1.34z"/><path d="M21.079 21.993h.871v.871h-.871z"/></symbol><symbol viewBox="0 0 32 32" id="calculator" xmlns="http://www.w3.org/2000/svg"><g fill="currentColor"><path d="M30.968 27.355a3.617 3.617 0 01-3.613 3.613H4.645a3.617 3.617 0 01-3.613-3.613V4.645a3.617 3.617 0 013.613-3.613h22.71a3.617 3.617 0 013.613 3.613zM27.355 0H4.645A4.65 4.65 0 000 4.645v22.71A4.65 4.65 0 004.645 32h22.71A4.65 4.65 0 0032 27.355V4.645A4.65 4.65 0 0027.355 0z"/><path d="M29.354 15.486h-12.84V2.646a.514.514 0 00-1.028 0v12.84H2.646a.514.514 0 000 1.028h12.84v12.84a.514.514 0 001.028 0v-12.84h12.84a.514.514 0 000-1.028z"/><path d="M4.265 9.064h3.733v3.732a.533.533 0 001.066 0V9.064h3.732a.533.533 0 000-1.066H9.064V4.265a.533.533 0 00-1.066 0v3.733H4.265a.533.533 0 000 1.066zM19.204 8.8h8.53a.533.533 0 000-1.067h-8.53a.533.533 0 000 1.067zM27.735 23.2h-8.531a.533.533 0 000 1.067h8.53a.533.533 0 000-1.067zM12.107 19.893a.533.533 0 00-.754 0l-2.822 2.822-2.822-2.822a.533.533 0 00-.754.754l2.822 2.822-2.822 2.822a.533.533 0 10.754.754l2.822-2.822 2.822 2.822a.531.531 0 00.754 0 .533.533 0 000-.754L9.285 23.47l2.822-2.822a.533.533 0 000-.754zM23.181 20.629a.534.534 0 111.068 0 .534.534 0 01-1.068 0zm2.133 0c0-.882-.717-1.6-1.6-1.6-.882 0-1.599.718-1.599 1.6 0 .882.717 1.6 1.6 1.6.882 0 1.6-.718 1.6-1.6zM23.715 27.201a.534.534 0 110-1.067.534.534 0 010 1.067zm0-2.132a1.6 1.6 0 00-1.6 1.6c0 .881.717 1.599 1.6 1.599.882 0 1.6-.718 1.6-1.6 0-.882-.718-1.6-1.6-1.6z"/></g></symbol><symbol viewBox="0 0 127 127" id="contract" xmlns="http://www.w3.org/2000/svg"><path d="M116.186 47.008l-7.217-4.172 4.171-7.215 7.216 4.17zm-18.77 32.514l-7.217-4.17 16.684-28.907 7.217 4.17zM83.378 95.497a2.084 2.084 0 01-.625-2.732l1.043-1.814 3.629 2.086-1.043 1.793a2.086 2.086 0 01-3.004.667zm6.257-6.026l-1.043-.605-3.086-1.795 2.96-7.925 6.57 3.796zm28.426-58.23a2.083 2.083 0 011.273-.98 2.19 2.19 0 011.584.21c.484.275.837.733.981 1.27a2.193 2.193 0 01-.209 1.586l-1.042 1.815-3.63-2.086zm7.862-.583a6.257 6.257 0 00-2.919-3.796 6.259 6.259 0 00-4.755-.626 6.261 6.261 0 00-3.796 2.92l-1.043 1.814a2.085 2.085 0 00-2.836.751l-5.297 9.03-1.815-1.043a2.09 2.09 0 00-2.858.773 2.085 2.085 0 00.772 2.835l1.815 1.043-17.727 30.72-4.38 11.7L79 90.68a6.257 6.257 0 00.335 6.758l-4.693 5.755-1.313-3.294a4.171 4.171 0 00-7.447-.584l-.75 1.272-.71-8.343a4.172 4.172 0 00-8.112-.98l-5.13 15.392a2.085 2.085 0 001.313 2.628c.204.095.422.152.647.166a2.086 2.086 0 001.981-1.417l5.11-15.391.73 8.466a4.172 4.172 0 007.737 1.794l.772-1.272 1.293 3.274a4.17 4.17 0 007.132 1.064l4.86-6.152a6.42 6.42 0 001.648.209 6.257 6.257 0 005.443-3.088l2.086-3.483 7.945-9.655 17.915-31.096 1.815 1.043a2.087 2.087 0 01.772 2.856l-8.343 14.454a2.08 2.08 0 00.667 2.94 2.083 2.083 0 002.858-.771l8.342-14.453a6.252 6.252 0 00-2.294-8.551l-1.815-1.043 5.214-9.03a2.087 2.087 0 00-.75-2.837l1.042-1.814a6.255 6.255 0 00.625-4.838z" fill="currentColor"/><path d="M116.186 47.008l-7.217-4.172 4.171-7.215 7.216 4.17zm-18.77 32.514l-7.217-4.17 16.684-28.907 7.217 4.17zM83.378 95.497a2.084 2.084 0 01-.625-2.732l1.043-1.814 3.629 2.086-1.043 1.793a2.086 2.086 0 01-3.004.667zm6.257-6.026l-1.043-.605-3.086-1.795 2.96-7.925 6.57 3.796zm28.426-58.23a2.083 2.083 0 011.273-.98 2.19 2.19 0 011.584.21c.484.275.837.733.981 1.27a2.193 2.193 0 01-.209 1.586l-1.042 1.815-3.63-2.086zm7.862-.583a6.257 6.257 0 00-2.919-3.796 6.259 6.259 0 00-4.755-.626 6.261 6.261 0 00-3.796 2.92l-1.043 1.814a2.085 2.085 0 00-2.836.751l-5.297 9.03-1.815-1.043a2.09 2.09 0 00-2.858.773 2.085 2.085 0 00.772 2.835l1.815 1.043-17.727 30.72-4.38 11.7L79 90.68a6.257 6.257 0 00.335 6.758l-4.693 5.755-1.313-3.294a4.171 4.171 0 00-7.447-.584l-.75 1.272-.71-8.343a4.172 4.172 0 00-8.112-.98l-5.13 15.392a2.085 2.085 0 001.313 2.628c.204.095.422.152.647.166a2.086 2.086 0 001.981-1.417l5.11-15.391.73 8.466a4.172 4.172 0 007.737 1.794l.772-1.272 1.293 3.274a4.17 4.17 0 007.132 1.064l4.86-6.152a6.42 6.42 0 001.648.209 6.257 6.257 0 005.443-3.088l2.086-3.483 7.945-9.655 17.915-31.096 1.815 1.043a2.087 2.087 0 01.772 2.856l-8.343 14.454a2.08 2.08 0 00.667 2.94 2.083 2.083 0 002.858-.771l8.342-14.453a6.252 6.252 0 00-2.294-8.551l-1.815-1.043 5.214-9.03a2.087 2.087 0 00-.75-2.837l1.042-1.814a6.255 6.255 0 00.625-4.838z" fill="none" stroke="#efefef" stroke-miterlimit="20" stroke-width="1.5"/><path d="M33.91 94.454l-7.382 7.363-4.423-4.422a2.085 2.085 0 00-3.557 1.48c0 .557.222 1.09.617 1.482l4.422 4.421a4.17 4.17 0 002.94 1.21 4.17 4.17 0 002.962-1.21l7.362-7.383a2.086 2.086 0 00-2.941-2.94z" fill="currentColor"/><path d="M33.91 94.454l-7.382 7.363v0l-4.423-4.422a2.085 2.085 0 00-3.557 1.48c0 .557.222 1.09.617 1.482l4.422 4.421a4.17 4.17 0 002.94 1.21 4.17 4.17 0 002.962-1.21l7.362-7.383a2.086 2.086 0 00-2.941-2.94z" fill="none" stroke="#efefef" stroke-miterlimit="20" stroke-width="1.5"/><path d="M9.343 100.065c0 9.79 7.936 17.727 17.727 17.727 9.79 0 17.727-7.937 17.727-17.727a2.086 2.086 0 00-4.172 0c0 7.486-6.07 13.556-13.555 13.556-7.487 0-13.557-6.07-13.557-13.556 0-7.488 6.07-13.557 13.557-13.557a13.436 13.436 0 018.133 2.712 2.085 2.085 0 102.503-3.337 17.73 17.73 0 00-28.363 14.182z" fill="currentColor"/><path d="M9.343 100.065c0 9.79 7.936 17.727 17.727 17.727 9.79 0 17.727-7.937 17.727-17.727a2.086 2.086 0 00-4.172 0c0 7.486-6.07 13.556-13.555 13.556-7.487 0-13.557-6.07-13.557-13.556 0-7.488 6.07-13.557 13.557-13.557a13.436 13.436 0 018.133 2.712 2.085 2.085 0 102.503-3.337 17.73 17.73 0 00-28.363 14.182z" fill="none" stroke="#efefef" stroke-miterlimit="20" stroke-width="1.5"/><path d="M76.08 17.685a2.085 2.085 0 100-4.172H21.855A2.086 2.086 0 0019.77 15.6v8.343c0 1.152.934 2.085 2.086 2.085h54.223a2.085 2.085 0 100-4.171H23.941v-4.17z" fill="currentColor"/><path d="M76.08 17.685a2.085 2.085 0 100-4.172H21.855A2.086 2.086 0 0019.77 15.6v8.343c0 1.152.934 2.085 2.086 2.085h54.223a2.085 2.085 0 100-4.171H23.941v0-4.17 0z" fill="none" stroke="#efefef" stroke-miterlimit="20" stroke-width="1.5"/><g><path d="M28.112 30.199a2.085 2.085 0 000 4.17h41.71a2.085 2.085 0 100-4.17z" fill="currentColor"/><path d="M28.112 30.199a2.085 2.085 0 000 4.17h41.71a2.085 2.085 0 100-4.17z" fill="none" stroke="#efefef" stroke-miterlimit="20" stroke-width="1.5"/></g><g><path d="M82.336 44.797H36.454a2.086 2.086 0 000 4.17h45.882a2.084 2.084 0 100-4.17z" fill="currentColor"/><path d="M82.336 44.797H36.454a2.086 2.086 0 000 4.17h45.882a2.084 2.084 0 100-4.17z" fill="none" stroke="#efefef" stroke-miterlimit="20" stroke-width="1.5"/></g><g><path d="M61.481 59.396a2.086 2.086 0 00-2.086-2.086h-41.71a2.085 2.085 0 000 4.171h41.71a2.084 2.084 0 002.086-2.085z" fill="currentColor"/><path d="M61.481 59.396a2.086 2.086 0 00-2.086-2.086h-41.71a2.085 2.085 0 000 4.171h41.71a2.084 2.084 0 002.086-2.085z" fill="none" stroke="#efefef" stroke-miterlimit="20" stroke-width="1.5"/></g><g><path d="M82.336 57.31H67.738a2.086 2.086 0 000 4.171h14.598a2.084 2.084 0 100-4.17z" fill="currentColor"/><path d="M82.336 57.31H67.738a2.086 2.086 0 000 4.171h14.598a2.084 2.084 0 100-4.17z" fill="none" stroke="#efefef" stroke-miterlimit="20" stroke-width="1.5"/></g><g><path d="M38.54 71.91a2.085 2.085 0 000-4.172H17.684a2.085 2.085 0 000 4.172z" fill="currentColor"/><path d="M38.54 71.91a2.085 2.085 0 000-4.172H17.684a2.085 2.085 0 000 4.172z" fill="none" stroke="#efefef" stroke-miterlimit="20" stroke-width="1.5"/></g><g><path d="M46.882 71.91h14.6a2.085 2.085 0 100-4.172h-14.6a2.086 2.086 0 000 4.172z" fill="currentColor"/><path d="M46.882 71.91h14.6a2.085 2.085 0 100-4.172h-14.6a2.086 2.086 0 000 4.172z" fill="none" stroke="#efefef" stroke-miterlimit="20" stroke-width="1.5"/></g><g><path d="M94.85 96.936a2.085 2.085 0 00-2.085 2.086v20.856a2.085 2.085 0 01-2.086 2.084H7.257a2.085 2.085 0 01-2.086-2.084V7.257c0-1.151.934-2.085 2.086-2.085h83.422c1.152 0 2.086.934 2.086 2.085v39.168a2.085 2.085 0 104.17 0V7.257A6.258 6.258 0 0090.68 1H7.257A6.258 6.258 0 001 7.257v112.62a6.257 6.257 0 006.257 6.257h83.422c3.455 0 6.257-2.8 6.257-6.256V99.022a2.086 2.086 0 00-2.086-2.086z" fill="currentColor"/><path d="M94.85 96.936a2.085 2.085 0 00-2.085 2.086v20.856a2.085 2.085 0 01-2.086 2.084H7.257a2.085 2.085 0 01-2.086-2.084V7.257c0-1.151.934-2.085 2.086-2.085h83.422c1.152 0 2.086.934 2.086 2.085v39.168a2.085 2.085 0 104.17 0V7.257A6.258 6.258 0 0090.68 1H7.257A6.258 6.258 0 001 7.257v112.62a6.257 6.257 0 006.257 6.257h83.422c3.455 0 6.257-2.8 6.257-6.256V99.022a2.086 2.086 0 00-2.086-2.086z" fill="none" stroke="#efefef" stroke-miterlimit="20" stroke-width="1.5"/></g></symbol><symbol viewBox="0 0 18 17" id="cross" xmlns="http://www.w3.org/2000/svg"><path d="M1 .543v0l8 8.004v0l-8 7.89v0" fill="none" stroke="#fff" stroke-miterlimit="20"/><g><path d="M17 .543v0L9 8.547v0l8 7.89v0" fill="none" stroke="#fff" stroke-miterlimit="20"/></g></symbol><symbol viewBox="0 0 32 32" id="favorites" xmlns="http://www.w3.org/2000/svg"><defs><clipPath id="aja"><path d="M-.027 32V0h32v32z"/></clipPath></defs><path d="M-.027 32V0h32v32z" fill="transparent"/><g clip-path="url(#aja)"><path d="M24.185 21.016l1.327 7.738c.066.39-.085.759-.404.994a.994.994 0 01-1.07.075l-6.95-3.652a2.303 2.303 0 00-2.143 0l-6.947 3.652a.994.994 0 01-1.07-.075 1.003 1.003 0 01-.404-.994l1.327-7.738a2.305 2.305 0 00-.662-2.04L1.566 13.5a1.001 1.001 0 01-.257-1.042.998.998 0 01.82-.693l7.77-1.13a2.291 2.291 0 001.733-1.258l3.473-7.04a1 1 0 01.913-.566c.396 0 .735.21.91.566l3.477 7.04a2.285 2.285 0 001.731 1.259l7.77 1.13a.99.99 0 01.818.692.999.999 0 01-.254 1.042l-5.623 5.478a2.3 2.3 0 00-.662 2.04zm7.182-6.598c.63-.615.853-1.518.58-2.36a2.283 2.283 0 00-1.857-1.565l-7.772-1.129a1.017 1.017 0 01-.762-.556l-3.473-7.04A2.292 2.292 0 0016.018.484c-.882 0-1.672.492-2.065 1.282L10.48 8.808a1.022 1.022 0 01-.765.556l-7.772 1.13a2.28 2.28 0 00-1.857 1.565c-.27.84-.048 1.744.583 2.359l5.622 5.479c.24.235.35.57.292.9l-1.327 7.74c-.147.87.2 1.73.917 2.25a2.284 2.284 0 002.421.175l6.95-3.655c.295-.153.65-.153.948 0l6.946 3.655c.343.18.71.267 1.074.267a2.3 2.3 0 001.351-.442 2.292 2.292 0 00.917-2.25l-1.33-7.74c-.057-.33.053-.665.295-.897z" fill="currentColor"/></g></symbol><symbol viewBox="0 0 25 25" id="gallery" xmlns="http://www.w3.org/2000/svg"><g fill="currentColor"><defs><clipPath id="aka"><path d="M0 25V0h25v25z" fill="#fff"/></clipPath></defs><path d="M0 25v0V0v0h25v25z" fill="none" stroke="currentColor" stroke-miterlimit="50" stroke-width="2" clip-path="url(#aka)"/><path d="M12.36 15.383a2.994 2.994 0 01-2.99-2.99 2.994 2.994 0 012.99-2.99 2.994 2.994 0 012.99 2.99 2.994 2.994 0 01-2.99 2.99zm0-6.768a3.783 3.783 0 00-3.778 3.778 3.783 3.783 0 003.778 3.778 3.783 3.783 0 003.778-3.778 3.783 3.783 0 00-3.778-3.778zM12.36 7.87a.394.394 0 00.394-.394V5.427a.394.394 0 00-.788 0v2.05c0 .217.176.393.394.393zM12.36 16.916a.394.394 0 00-.394.394v2.049a.394.394 0 10.788 0v-2.05a.394.394 0 00-.394-.393zM8.605 9.195a.393.393 0 00.557 0 .394.394 0 000-.557l-1.449-1.45a.394.394 0 00-.557.558zM16.115 15.591a.394.394 0 00-.557.557l1.449 1.45a.393.393 0 00.557 0 .394.394 0 000-.558zM7.837 12.393a.394.394 0 00-.394-.394H5.394a.394.394 0 100 .788h2.05a.394.394 0 00.393-.394zM19.326 11.999h-2.05a.394.394 0 100 .788h2.05a.394.394 0 100-.788zM15.837 9.31c.1 0 .201-.038.278-.115l1.45-1.449a.394.394 0 00-.558-.557l-1.449 1.449a.394.394 0 00.279.672zM8.605 15.591l-1.45 1.449a.394.394 0 00.558.557l1.449-1.449a.394.394 0 00-.557-.557z"/></g></symbol><symbol viewBox="0 0 25 25" id="gear" xmlns="http://www.w3.org/2000/svg"><path d="M24.074 13.99c0 .2-.162.362-.361.362h-2.339c-.752 0-1.398.431-1.685 1.126a1.795 1.795 0 00.395 1.988l1.654 1.653a.361.361 0 010 .511l-2.108 2.108a.361.361 0 01-.511 0l-1.653-1.654a1.797 1.797 0 00-1.988-.395 1.796 1.796 0 00-1.126 1.685v2.339a.361.361 0 01-.361.361h-2.982a.362.362 0 01-.36-.361v-2.339c0-.752-.432-1.398-1.127-1.685a1.799 1.799 0 00-1.988.395l-1.653 1.653a.361.361 0 01-.511 0L3.262 19.63a.361.361 0 010-.511l1.654-1.654a1.796 1.796 0 00.395-1.988 1.796 1.796 0 00-1.685-1.125H1.287a.362.362 0 01-.361-.361v-2.982a.36.36 0 01.361-.36h2.339c.752 0 1.398-.432 1.685-1.127a1.795 1.795 0 00-.395-1.988L3.262 5.881a.361.361 0 010-.511L5.37 3.262a.361.361 0 01.511 0l1.653 1.653a1.796 1.796 0 001.988.396 1.795 1.795 0 001.126-1.685V1.287c0-.199.162-.361.361-.361h2.981c.2 0 .362.162.362.361v2.339c0 .752.431 1.398 1.126 1.685a1.795 1.795 0 001.988-.395l1.653-1.653a.361.361 0 01.511 0l2.108 2.107a.361.361 0 010 .512l-1.654 1.653a1.796 1.796 0 00-.395 1.988 1.796 1.796 0 001.685 1.126h2.339a.36.36 0 01.361.36zm-2.7-4.268a.873.873 0 01-.83-.554.874.874 0 01.195-.979l1.654-1.653a1.28 1.28 0 00.376-.91 1.28 1.28 0 00-.376-.91l-2.108-2.109c-.486-.486-1.334-.487-1.821 0L16.81 4.261a.873.873 0 01-.98.195.873.873 0 01-.553-.83V1.287A1.287 1.287 0 0013.99 0h-2.982c-.71 0-1.287.577-1.287 1.287v2.339a.873.873 0 01-.554.83.872.872 0 01-.979-.195L6.536 2.607c-.487-.487-1.335-.486-1.82 0l-2.11 2.108a1.28 1.28 0 00-.376.91c0 .344.133.668.376.911L4.261 8.19a.874.874 0 01.195.98.872.872 0 01-.83.553H1.287A1.287 1.287 0 000 11.01v2.981c0 .71.577 1.288 1.287 1.288h2.339c.376 0 .686.207.83.554a.874.874 0 01-.195.979l-1.654 1.653a1.28 1.28 0 00-.376.91c0 .344.133.667.376.91l2.108 2.109c.487.486 1.334.487 1.821 0l1.653-1.654a.873.873 0 01.98-.195.873.873 0 01.553.83v2.339c0 .71.578 1.287 1.287 1.287h2.981c.71 0 1.287-.577 1.287-1.287v-2.339c0-.376.207-.686.554-.83a.873.873 0 01.98.195l1.652 1.654c.487.487 1.335.486 1.821 0l2.108-2.108a1.28 1.28 0 00.377-.91 1.28 1.28 0 00-.377-.911l-1.654-1.653a.874.874 0 01-.194-.98.873.873 0 01.83-.553h2.339c.71 0 1.287-.578 1.287-1.287V11.01c0-.71-.577-1.287-1.287-1.287z"/><path d="M12.5 15.663A3.167 3.167 0 019.337 12.5 3.167 3.167 0 0112.5 9.337a3.167 3.167 0 013.163 3.163 3.167 3.167 0 01-3.163 3.163zm0-7.23A4.071 4.071 0 008.433 12.5a4.071 4.071 0 004.067 4.067 4.071 4.071 0 004.067-4.067A4.071 4.071 0 0012.5 8.433z"/></symbol><symbol viewBox="0 0 36 37" id="hamburger" xmlns="http://www.w3.org/2000/svg"><path d="M3.939.494A3.943 3.943 0 000 4.433a.739.739 0 001.477 0A2.464 2.464 0 013.94 1.971a2.464 2.464 0 012.462 2.462A2.465 2.465 0 013.94 6.895a.739.739 0 000 1.477 3.944 3.944 0 003.939-3.939A3.943 3.943 0 003.939.494zM17.838 6.895a2.464 2.464 0 01-2.461-2.462 2.464 2.464 0 012.461-2.462A2.464 2.464 0 0120.3 4.433a2.464 2.464 0 01-2.462 2.462zm0-6.4A3.943 3.943 0 0013.9 4.432a3.944 3.944 0 003.94 3.939 3.944 3.944 0 003.938-3.939 3.943 3.943 0 00-3.94-3.938zM31.738 1.971A2.465 2.465 0 0134.2 4.433a2.464 2.464 0 01-2.462 2.462 2.464 2.464 0 01-2.462-2.462 2.464 2.464 0 012.462-2.462zm0 6.401a3.943 3.943 0 003.939-3.939 3.943 3.943 0 00-3.94-3.939A3.943 3.943 0 0027.8 4.433a3.943 3.943 0 003.939 3.94zM3.939 20.956a2.465 2.465 0 01-2.462-2.462 2.464 2.464 0 012.462-2.462 2.464 2.464 0 012.462 2.462 2.464 2.464 0 01-2.462 2.462zm0-6.4A3.944 3.944 0 000 18.493a3.944 3.944 0 003.939 3.94 3.944 3.944 0 003.939-3.94 3.944 3.944 0 00-3.939-3.939zM21.039 17.755a.739.739 0 00-.739.74 2.465 2.465 0 01-2.462 2.46 2.465 2.465 0 01-2.461-2.46 2.465 2.465 0 012.461-2.463.739.739 0 000-1.477 3.944 3.944 0 00-3.939 3.94 3.944 3.944 0 003.94 3.938 3.944 3.944 0 003.939-3.939.739.739 0 00-.74-.739zM31.738 20.956a2.464 2.464 0 01-2.462-2.462 2.464 2.464 0 012.462-2.462 2.465 2.465 0 012.462 2.462 2.465 2.465 0 01-2.462 2.462zm0-6.4a3.943 3.943 0 00-3.94 3.938 3.944 3.944 0 003.94 3.94 3.944 3.944 0 003.939-3.94 3.943 3.943 0 00-3.94-3.939zM3.939 35.017a2.465 2.465 0 01-2.462-2.462 2.464 2.464 0 012.462-2.461 2.464 2.464 0 012.462 2.461 2.464 2.464 0 01-2.462 2.462zm0-6.4A3.944 3.944 0 000 32.554a3.943 3.943 0 003.939 3.94 3.943 3.943 0 003.939-3.94 3.944 3.944 0 00-3.939-3.939zM17.838 35.017a2.464 2.464 0 01-2.461-2.462 2.464 2.464 0 012.461-2.461 2.464 2.464 0 012.462 2.461 2.464 2.464 0 01-2.462 2.462zm0-6.4a3.944 3.944 0 00-3.939 3.938 3.943 3.943 0 003.94 3.94 3.943 3.943 0 003.938-3.94 3.944 3.944 0 00-3.939-3.939zM31.738 35.017a2.464 2.464 0 01-2.462-2.462 2.464 2.464 0 012.462-2.461 2.465 2.465 0 012.462 2.461 2.465 2.465 0 01-2.462 2.462zm0-6.4a3.943 3.943 0 00-3.94 3.938 3.943 3.943 0 003.94 3.94 3.943 3.943 0 003.939-3.94 3.943 3.943 0 00-3.94-3.939z"/></symbol><symbol viewBox="0 0 25 23" id="handshake" xmlns="http://www.w3.org/2000/svg"><path d="M24.854 16.227l-1.211-1.202a.496.496 0 00-.7.705l1.212 1.201a.494.494 0 00.701-.003.496.496 0 00-.002-.701zM22.409 13.831a.496.496 0 00-.702 0l-.001.001a.496.496 0 10.703 0z"/><path d="M13.049 4.638l-1.34-1.342c.152.033.308.05.467.05h.01l1.34-.006a.488.488 0 00-.003-.977h-.002l-1.339.006h-.006c-.33 0-.64-.128-.874-.36a1.233 1.233 0 01-.365-.88V.977h3.343c.628 0 1.234.264 1.662.724l.02.021zm-.128 2.474a.863.863 0 01-1.22 0L9.248 4.658l-.477-.478a.865.865 0 01.61-1.474.86.86 0 01.61.253l2.928 2.932a.862.862 0 01.001 1.221zm-1.91 1.912a.863.863 0 01-1.22 0L7.338 6.57a.858.858 0 01-.253-.61.86.86 0 011.472-.611l1.118 1.118 1.334 1.336c.163.163.253.38.253.61 0 .231-.09.448-.253.611zM9.1 10.936a.863.863 0 01-1.22 0l-1.32-1.32-.655-.656a.865.865 0 01.61-1.474c.23 0 .447.09.61.253L9.1 9.715c.163.163.253.38.253.61 0 .231-.09.448-.253.611zm-1.91 1.912a.856.856 0 01-.61.253.856.856 0 01-.61-.253l-1.32-1.32a.865.865 0 01.61-1.474c.231 0 .448.09.61.253l1.32 1.32a.865.865 0 010 1.221zm11.077 3.243L23 11.353a1.844 1.844 0 000-2.603 1.826 1.826 0 00-.886-.49c.111-.24.17-.504.17-.776a1.83 1.83 0 00-.538-1.302 1.823 1.823 0 00-.988-.512c.21-.639.062-1.37-.445-1.878a1.827 1.827 0 00-.987-.51 1.845 1.845 0 00-.446-1.88 1.826 1.826 0 00-1.3-.539c-.311 0-.611.078-.878.223l-.047-.05A3.254 3.254 0 0014.28 0h-3.83a.488.488 0 00-.489.488v.64c0 .257.044.507.126.741a1.843 1.843 0 00-.705-.14 1.843 1.843 0 00-1.745 2.418 1.827 1.827 0 00-.988.511 1.845 1.845 0 00-.446 1.878c-.372.064-.714.24-.986.512a1.845 1.845 0 00-.368 2.076 1.844 1.844 0 00-.887 3.095l.973.974L.143 17.99a.489.489 0 00.69.69l4.838-4.842c.274.156.585.24.91.24a1.836 1.836 0 001.836-1.915 1.832 1.832 0 001.374-.536 1.83 1.83 0 00.536-1.376 1.83 1.83 0 001.91-1.912l.073.002c.471 0 .942-.18 1.3-.538a1.844 1.844 0 00.122-2.468l3.239-3.242a.856.856 0 01.61-.253c.23 0 .447.09.61.253.163.163.253.38.253.61 0 .231-.09.448-.253.611l-.477.478-1.733 1.735a.489.489 0 00.69.69l1.733-1.734a.863.863 0 111.22 1.221l-.478.478-1.255 1.257a.489.489 0 00.69.69l1.255-1.256a.856.856 0 01.61-.253c.23 0 .447.09.61.253.163.163.253.38.253.61 0 .232-.09.448-.253.611l-.655.657-.6.6a.489.489 0 00.69.69l.6-.6a.863.863 0 011.22 1.222L17.578 15.4a6.606 6.606 0 01-4.448 1.94.488.488 0 00-.328.143L8.43 21.876a.489.489 0 00.691.69l3.216-3.232a4.532 4.532 0 002.754.71l2.517 2.52a.486.486 0 00.69 0 .49.49 0 000-.691l-2.676-2.68a.488.488 0 00-.385-.14l-.154.012a3.559 3.559 0 01-2.036-.444l.313-.315a7.578 7.578 0 004.908-2.215z"/></symbol><symbol viewBox="0 0 25 26" id="home" xmlns="http://www.w3.org/2000/svg"><path d="M21.984 24.296h-6.035v-6.897a3.452 3.452 0 00-3.448-3.448 3.452 3.452 0 00-3.448 3.448v6.897H3.018V9.982l9.483-8.806 9.483 8.806zm-12.07 0v-6.897a2.589 2.589 0 012.587-2.586 2.589 2.589 0 012.586 2.586v6.897zm14.95-12.817L12.5 0 .139 11.48a.432.432 0 00.586.631l1.431-1.328v14.375h20.69V10.782l1.43 1.329a.429.429 0 00.61-.022.43.43 0 00-.022-.61z"/></symbol><symbol viewBox="0 0 202 202" id="index-accessories" xmlns="http://www.w3.org/2000/svg"><path d="M201 201.998h-62.687a1 1 0 110-2H200v-92.3a1 1 0 012 0v93.3a1 1 0 01-1 1z" fill="#fff"/><path d="M131.23 129.659c1.103 0 2 .898 2 2v18c0 1.103-.897 2-2 2h-3c-1.103 0-2-.897-2-2v-18c0-1.102.897-2 2-2zm4 20v-18c0-2.206-1.794-4-4-4h-3c-2.205 0-4 1.794-4 4v18c0 2.206 1.795 4 4 4h3c2.206 0 4-1.794 4-4z" fill="#a9b1f7"/><path d="M130.748 202H6.83a1 1 0 01-1-1v-84.555a1 1 0 011-1h123.917a1 1 0 011 1v10.569a1 1 0 11-2 0v-9.569H7.83V200h121.917v-45.9a1 1 0 112 0V201a1 1 0 01-1 1z" fill="#a9b1f7"/><path d="M23 117.334h92v68H23zm94 69v-70a1 1 0 00-1-1H22a1 1 0 00-1 1v70a1 1 0 001 1h94a1 1 0 001-1z" fill="#a9b1f7"/><path d="M6.119 103.402h132.037l-3.778 12.577H2.345zm129.003 14.577a1 1 0 00.958-.711l4.378-14.578a.998.998 0 00-.958-1.288H5.374c-.441 0-.831.29-.958.713L.042 116.692A1 1 0 001 117.979h134.122z" fill="#a9b1f7"/><path d="M6.119 88.916h132.037l-3.778 12.578H2.345zm129.96 13.866l4.379-14.578a1 1 0 00-.958-1.288H5.374c-.441 0-.831.29-.958.713L.042 102.207A1 1 0 001 103.494h134.122a1 1 0 00.958-.712z" fill="#a9b1f7"/><path d="M6.119 74.43h132.037l-3.778 12.579H2.345zm129.96 13.867l4.379-14.578a1 1 0 00-.958-1.288H5.374c-.441 0-.831.29-.958.713L.042 87.722A1 1 0 001 89.009h134.122a1 1 0 00.958-.712z" fill="#a9b1f7"/><path d="M179.59 67.037a2.647 2.647 0 01-2.644 2.645h-2.551a.094.094 0 01-.094-.095V37.384a.689.689 0 01.687-.692h1.958a2.647 2.647 0 012.645 2.645zm-7.773-11.816h-11v-7h11zm9.774-10.324v-5.56a4.65 4.65 0 00-4.645-4.645h-1.96a2.672 2.672 0 00-1.901.793 2.672 2.672 0 00-.784 1.902v8.834h-13.484v11H172.3v12.37a2.096 2.096 0 002.094 2.091h2.55a4.65 4.65 0 004.646-4.645v-20.14h18.404v49.025h-6.747V56.56h-11.2v2h9.2v39.362h10.747V44.897z" fill="#d165e9"/><path d="M201 34.073a1 1 0 01-1-1V2h-52.94a1 1 0 010-2H201a1 1 0 011 1v32.073a1 1 0 01-1 1z" fill="#fff"/><path d="M6.119 59.944h132.037l-3.778 12.578H2.345zm129.003 14.578a1 1 0 00.958-.712l4.378-14.578a1 1 0 00-.958-1.288H5.374c-.441 0-.831.29-.958.713L.042 73.235A1 1 0 001 74.522h134.122z" fill="#a9b1f7"/><path d="M6.119 45.458h132.037l-3.778 12.578H2.345zm129.003 14.578a1 1 0 00.958-.712l4.378-14.578a1 1 0 00-.958-1.288H5.374c-.441 0-.831.29-.958.713L.042 58.749A1 1 0 001 60.036h134.122z" fill="#a9b1f7"/><path d="M6.119 31.157h132.037l-3.778 12.578H2.345zm129.003 14.578a1 1 0 00.958-.712l4.378-14.578a1 1 0 00-.958-1.288H5.374c-.441 0-.831.29-.958.713L.042 44.448A1 1 0 001 45.735h134.122z" fill="#a9b1f7"/><path d="M6.119 16.579h132.037l-3.778 12.578H2.345zm129.003 14.578a1 1 0 00.958-.712l4.378-14.578a1 1 0 00-.958-1.288H5.374c-.441 0-.831.29-.958.713L.042 29.87A.999.999 0 001 31.157h134.122z" fill="#a9b1f7"/><path d="M6.119 2h132.037l-3.778 12.578H2.345zm129.003 14.578a1 1 0 00.958-.712l4.378-14.578A1 1 0 00139.5 0H5.374c-.441 0-.831.29-.958.712L.042 15.291A1 1 0 001 16.578h134.122z" fill="#a9b1f7"/><path d="M6.119 2h132.037l-3.778 12.578H2.345zm129.003 14.578a1 1 0 00.958-.712l4.378-14.578A1 1 0 00139.5 0H5.374c-.441 0-.831.29-.958.712L.042 15.291A1 1 0 001 16.578h134.122z" fill="#a9b1f7"/><path d="M6.119 16.579h132.037l-3.778 12.578H2.345zm129.003 14.578a1 1 0 00.958-.712l4.378-14.578a1 1 0 00-.958-1.288H5.374c-.441 0-.831.29-.958.713L.042 29.87A.999.999 0 001 31.157h134.122z" fill="#a9b1f7"/><path d="M6.119 31.157h132.037l-3.778 12.578H2.345zm129.003 14.578a1 1 0 00.958-.712l4.378-14.578a1 1 0 00-.958-1.288H5.374c-.441 0-.831.29-.958.713L.042 44.448A1 1 0 001 45.735h134.122z" fill="#a9b1f7"/><path d="M6.119 45.458h132.037l-3.778 12.578H2.345zm129.003 14.578a1 1 0 00.958-.712l4.378-14.578a1 1 0 00-.958-1.288H5.374c-.441 0-.831.29-.958.713L.042 58.749A1 1 0 001 60.036h134.122z" fill="#a9b1f7"/><path d="M6.119 59.944h132.037l-3.778 12.578H2.345zm129.003 14.578a1 1 0 00.958-.712l4.378-14.578a1 1 0 00-.958-1.288H5.374c-.441 0-.831.29-.958.713L.042 73.235A1 1 0 001 74.522h134.122z" fill="#a9b1f7"/><path d="M6.119 74.43h132.037l-3.778 12.579H2.345zm129.96 13.867l4.379-14.578a1 1 0 00-.958-1.288H5.374c-.441 0-.831.29-.958.713L.042 87.722A1 1 0 001 89.009h134.122a1 1 0 00.958-.712z" fill="#a9b1f7"/><path d="M6.119 88.916h132.037l-3.778 12.578H2.345zm129.96 13.866l4.379-14.578a1 1 0 00-.958-1.288H5.374c-.441 0-.831.29-.958.713L.042 102.207A1 1 0 001 103.494h134.122a1 1 0 00.958-.712z" fill="#a9b1f7"/><path d="M6.119 103.402h132.037l-3.778 12.577H2.345zm129.003 14.577a1 1 0 00.958-.711l4.378-14.578a.998.998 0 00-.958-1.288H5.374c-.441 0-.831.29-.958.713L.042 116.692A1 1 0 001 117.979h134.122z" fill="#a9b1f7"/><path d="M23 117.334h92v68H23zm94 69v-70a1 1 0 00-1-1H22a1 1 0 00-1 1v70a1 1 0 001 1h94a1 1 0 001-1z" fill="#a9b1f7"/><path d="M130.748 202H6.83a1 1 0 01-1-1v-84.555a1 1 0 011-1h123.917a1 1 0 011 1v10.569a1 1 0 11-2 0v-9.569H7.83V200h121.917v-45.9a1 1 0 112 0V201a1 1 0 01-1 1z" fill="#a9b1f7"/><path d="M131.23 129.659c1.103 0 2 .898 2 2v18c0 1.103-.897 2-2 2h-3c-1.103 0-2-.897-2-2v-18c0-1.102.897-2 2-2zm4 20v-18c0-2.206-1.794-4-4-4h-3c-2.205 0-4 1.794-4 4v18c0 2.206 1.795 4 4 4h3c2.206 0 4-1.794 4-4z" fill="#a9b1f7"/><path d="M201 201.998h-62.687a1 1 0 110-2H200v-92.3a1 1 0 012 0v93.3a1 1 0 01-1 1zM201 34.073a1 1 0 01-1-1V2h-52.94a1 1 0 010-2H201a1 1 0 011 1v32.073a1 1 0 01-1 1z" fill="#fff"/><path d="M179.59 67.037a2.647 2.647 0 01-2.644 2.645h-2.551a.094.094 0 01-.094-.095V37.384a.689.689 0 01.687-.692h1.958a2.647 2.647 0 012.645 2.645zm-7.773-11.816h-11v-7h11zm9.774-10.324v-5.56a4.65 4.65 0 00-4.645-4.645h-1.96a2.672 2.672 0 00-1.901.793 2.672 2.672 0 00-.784 1.902v8.834h-13.484v11H172.3v12.37a2.096 2.096 0 002.094 2.091h2.55a4.65 4.65 0 004.646-4.645v-20.14h18.404v49.025h-6.747V56.56h-11.2v2h9.2v39.362h10.747V44.897z" fill="#d165e9"/></symbol><symbol viewBox="0 0 202 202" id="index-company" xmlns="http://www.w3.org/2000/svg"><path d="M151.734 39.56h2.655v27.717h-2.655zm-.848-8.867c0-1.168.956-2.177 2.176-2.177 1.221 0 2.177.956 2.177 2.124a2.153 2.153 0 01-2.177 2.178c-1.22 0-2.176-.956-2.176-2.125z" fill="#fff"/><path d="M151.734 39.56h2.655v27.717h-2.655zm-.848-8.867c0-1.168.956-2.177 2.176-2.177 1.221 0 2.177.956 2.177 2.124a2.153 2.153 0 01-2.177 2.178c-1.22 0-2.176-.956-2.176-2.125z" fill="#fff"/><path d="M194.711 2.082a4.17 4.17 0 014.165 4.165v83.3a4.17 4.17 0 01-4.165 4.164h-83.299a4.17 4.17 0 01-4.165-4.165V6.247a4.17 4.17 0 014.165-4.165zm6.248 87.464V6.247A6.254 6.254 0 00194.71 0h-83.299a6.255 6.255 0 00-6.247 6.247v83.3a6.254 6.254 0 006.247 6.247h83.3a6.254 6.254 0 006.247-6.248z" fill="#d165e9"/><path d="M89.546 107.247a4.17 4.17 0 014.165 4.165v83.3a4.17 4.17 0 01-4.165 4.164H6.247a4.17 4.17 0 01-4.165-4.165v-83.299a4.17 4.17 0 014.165-4.165zm6.248 87.464v-83.299a6.254 6.254 0 00-6.248-6.247H6.247A6.255 6.255 0 000 111.412v83.3a6.254 6.254 0 006.247 6.247h83.3a6.254 6.254 0 006.247-6.248zM194.712 106.206a5.212 5.212 0 015.206 5.206v83.3a5.212 5.212 0 01-5.207 5.206h-83.299a5.212 5.212 0 01-5.206-5.207v-83.299a5.212 5.212 0 015.206-5.206zM202 194.711v-83.299c0-4.019-3.27-7.288-7.289-7.288h-83.299c-4.019 0-7.288 3.27-7.288 7.288v83.3c0 4.019 3.27 7.288 7.288 7.288h83.3c4.019 0 7.288-3.27 7.288-7.289zM89.546 2.082a4.17 4.17 0 014.165 4.165v83.3a4.17 4.17 0 01-4.165 4.164H6.247a4.17 4.17 0 01-4.165-4.165V6.247a4.17 4.17 0 014.165-4.165zm6.248 87.464V6.247A6.254 6.254 0 0089.546 0H6.247A6.255 6.255 0 000 6.247v83.3a6.254 6.254 0 006.247 6.247h83.3a6.254 6.254 0 006.247-6.248z" fill="#a9add8"/><path d="M89.546 2.082a4.17 4.17 0 014.165 4.165v83.3a4.17 4.17 0 01-4.165 4.164H6.247a4.17 4.17 0 01-4.165-4.165V6.247a4.17 4.17 0 014.165-4.165zm6.248 87.464V6.247A6.254 6.254 0 0089.546 0H6.247A6.255 6.255 0 000 6.247v83.3a6.254 6.254 0 006.247 6.247h83.3a6.254 6.254 0 006.247-6.248zM194.712 106.206a5.212 5.212 0 015.206 5.206v83.3a5.212 5.212 0 01-5.207 5.206h-83.299a5.212 5.212 0 01-5.206-5.207v-83.299a5.212 5.212 0 015.206-5.206zM202 194.711v-83.299c0-4.019-3.27-7.288-7.289-7.288h-83.299c-4.019 0-7.288 3.27-7.288 7.288v83.3c0 4.019 3.27 7.288 7.288 7.288h83.3c4.019 0 7.288-3.27 7.288-7.289zM89.546 107.247a4.17 4.17 0 014.165 4.165v83.3a4.17 4.17 0 01-4.165 4.164H6.247a4.17 4.17 0 01-4.165-4.165v-83.299a4.17 4.17 0 014.165-4.165zm6.248 87.464v-83.299a6.254 6.254 0 00-6.248-6.247H6.247A6.255 6.255 0 000 111.412v83.3a6.254 6.254 0 006.247 6.247h83.3a6.254 6.254 0 006.247-6.248z" fill="#a9add8"/><path d="M194.711 2.082a4.17 4.17 0 014.165 4.165v83.3a4.17 4.17 0 01-4.165 4.164h-83.299a4.17 4.17 0 01-4.165-4.165V6.247a4.17 4.17 0 014.165-4.165zm6.248 87.464V6.247A6.254 6.254 0 00194.71 0h-83.299a6.255 6.255 0 00-6.247 6.247v83.3a6.254 6.254 0 006.247 6.247h83.3a6.254 6.254 0 006.247-6.248z" fill="#d165e9"/><path d="M151.734 39.56h2.655v27.717h-2.655zm-.848-8.867c0-1.168.956-2.177 2.176-2.177 1.221 0 2.177.956 2.177 2.124a2.153 2.153 0 01-2.177 2.178c-1.22 0-2.176-.956-2.176-2.125z" fill="#fff"/></symbol><symbol viewBox="0 0 202 202" id="index-corporate-clients" xmlns="http://www.w3.org/2000/svg"><path d="M128.762 82.625a.956.956 0 00-.402-.353l-11.48-4.97a.97.97 0 00-.105-.855l-1.75-2.61a2.256 2.256 0 00-1.827-.996v-6.378l.47-.352a8.677 8.677 0 003.464-6.528l.016-.65c.208-.03.413-.088.612-.172a2.504 2.504 0 001.465-1.71l1.438-5.753a3.628 3.628 0 00-.92-3.484c.33-1.31.925-2.707 1.992-3.879a.979.979 0 00.252-.605c.035-.664.748-16.143-8.09-17.88-2.124-2.566-6.31-5.103-13.365-4.969-4.035.075-11.804 1.31-15.9 3.432a.974.974 0 00-.099 1.674l.806.546c-7.832 6.672-6.374 16.86-6.304 17.309a.975.975 0 00.274.541c.916.917 1.481 2.53 1.82 4.132a3.609 3.609 0 00-.704 3.164l1.445 5.773a2.502 2.502 0 001.149 1.548c.295.176.615.29.946.334l.027.6a8.655 8.655 0 003.455 6.498l1.355 1.037v5.933a2.257 2.257 0 00-2.728.834L84.33 76.45a.968.968 0 00-.113.831L70.191 83.37c-.015.007-.024.02-.038.027-8.33-7.666-13.554-18.59-13.554-30.7 0-23.138 19.043-41.962 42.45-41.962 23.406 0 42.448 18.824 42.448 41.962 0 11.71-4.883 22.31-12.735 29.929zm-23.457 11.572l-1.19-5.457c.119-.144.216-.307.289-.486a43.494 43.494 0 012.867 2.196c.49.412 1.087.613 1.682.613a2.616 2.616 0 002.388-1.534l4.744-10.444 11.244 4.869a42.522 42.522 0 01-22.024 10.243zm-2.869-9.884l8.858-7.96 1.643-1.478.037-.036h.002a.308.308 0 01.222-.043.297.297 0 01.206.127l1.447 2.158-5.287 11.642a.67.67 0 01-1.038.233 45.514 45.514 0 00-4.113-3.063v-.604a.976.976 0 00-.975-.976zm-3.388 10.344c-.45 0-.897-.02-1.345-.034l1.32-6.052c.094-.432-.088-.853-.465-1.054a.98.98 0 00.083-.396v-.163c.378-.237.758-.468 1.143-.693h1.537c.383.225.764.455 1.14.692v.164c0 .142.028.273.085.396a.977.977 0 00-.466 1.054l1.28 5.87a43.105 43.105 0 01-4.312.216zm12.198-20.887l-10.694 9.613-9.798-8.808v-6.012l2 1.531a8.748 8.748 0 005.214 1.739h5.174c1.869 0 3.72-.618 5.215-1.739l2.89-2.167zM83.258 52.974l2.567-2.569a.979.979 0 00.279-.818c-.01-.068-.845-6.816 3.382-9.307 3.085-1.824 5.873-1.582 8.82-1.326 1.017.088 2.067.178 3.123.178 4.143 0 7.391-.614 9.753-1.804 2.518 1.898 3.614 6.589 3.794 10.487.03.62.222 1.221.557 1.738l2.092 3.247c.132.203.328.34.548.403l-.867 3.45a.56.56 0 01-.304.31.562.562 0 01-.435.002.973.973 0 00-1.343.88l-.042 1.662a6.717 6.717 0 01-2.685 5.042l-5.311 3.984c-1.163.873-2.605 1.333-4.06 1.348H97.97a6.772 6.772 0 01-4.037-1.342l-3.239-2.48a.962.962 0 00-.875-.67l-1.194-.913a6.71 6.71 0 01-2.683-5.035l-.074-1.616c-.013-.317-.216-.598-.485-.768a1.04 1.04 0 00-.931-.068.563.563 0 01-.689-.412l-.847-3.386a.962.962 0 00.342-.217zm32.39-23.912a4.872 4.872 0 00-.212-.922c4.656 3.025 4.66 12.829 4.613 14.757-1.336 1.584-2.009 3.413-2.342 5.044l-.01.05c-.073.358-.133.71-.176 1.043l-.347-.54a1.553 1.553 0 01-.248-.77c-.12-2.584-.763-8.482-4.007-11.48.328-.264.63-.546.902-.847 1.482-1.645 2.096-3.777 1.827-6.335zm-28.113-3.795l-.456-.31c4.028-1.562 10.114-2.462 13.487-2.524 9.256-.176 12.905 4.628 13.141 6.835.21 1.984-.24 3.606-1.337 4.823-1.845 2.05-5.526 3.09-10.94 3.09-.972 0-1.935-.083-2.955-.171-3.125-.274-6.36-.552-9.981 1.59-4.639 2.734-4.517 8.943-4.375 10.752l-.71.71a23.95 23.95 0 00-.278-1.89c-.008-.031-.009-.063-.02-.095-.355-1.834-.997-3.866-2.18-5.215-.17-1.706-.673-10.65 6.632-16.002a.975.975 0 00-.028-1.593zm9.155 60.022v.605a45.438 45.438 0 00-4.11 3.062.671.671 0 01-1.039-.234l-5.288-11.64 1.443-2.16a.306.306 0 01.423-.087l.032.025.016.015.635.57 1.579 1.42 8.287 7.448h-1.003a.976.976 0 00-.975.976zm-.96 9.227a42.524 42.524 0 01-23.962-9.704l13.24-5.748 4.757 10.468a2.62 2.62 0 002.386 1.531c.595 0 1.193-.201 1.683-.613.922-.774 1.886-1.5 2.87-2.196.07.174.16.342.283.49zm3.318-85.733c-24.483 0-44.4 19.698-44.4 43.913 0 22.967 17.924 41.86 40.662 43.746.652.054 1.31.096 1.97.122a44.51 44.51 0 001.768.045 45.31 45.31 0 004.73-.252c.652-.07 1.3-.15 1.944-.245 21.328-3.194 37.727-21.445 37.727-43.416 0-24.215-19.918-43.913-44.4-43.913zM165.894 22.444a.977.977 0 01-.75-1.601l9.759-11.71a.977.977 0 011.499 1.251l-9.759 11.71a.972.972 0 01-.75.35z" fill="#a9b1f7"/><path d="M175.653 22.444a.974.974 0 01-.75-.35l-9.759-11.71a.976.976 0 111.499-1.251l9.759 11.71a.975.975 0 01-.749 1.601z" fill="#a9b1f7"/><path d="M201.024 162.966a.976.976 0 01-.976-.976V.976a.976.976 0 111.952 0V161.99c0 .54-.436.976-.976.976z" fill="#fff"/><path d="M15.614 1.952h168.82v198.096H15.615zm170.773 199.072V.976A.975.975 0 00185.41 0H14.638a.976.976 0 00-.976.976v200.048c0 .54.437.976.976.976H185.41c.54 0 .976-.436.976-.976z" fill="#a9b1f7"/><path d="M60.502 123.932a.976.976 0 01-.975-.976V110.27a.975.975 0 111.951 0v12.686c0 .54-.436.976-.976.976zM134.179 160.039a7.325 7.325 0 017.318 7.318v7.807c0 4.036-3.282 7.32-7.318 7.32H63.918c-4.035 0-7.32-3.284-7.32-7.32v-7.807c0-4.036 3.285-7.318 7.32-7.318zm9.27 15.125v-7.807c0-5.111-4.158-9.27-9.27-9.27H63.918c-5.112 0-9.27 4.159-9.27 9.27v7.807c0 5.112 4.158 9.27 9.27 9.27h70.26c5.113 0 9.271-4.158 9.271-9.27z" fill="#d165e9"/><path d="M146.377 128.812H53.67a.976.976 0 110-1.952h92.706a.975.975 0 110 1.952zM146.377 145.401H53.67a.976.976 0 110-1.952h92.706a.975.975 0 110 1.952z" fill="#a9b1f7"/><path d="M.976 202a.975.975 0 01-.976-.976v-94.657a.975.975 0 111.952 0v94.657c0 .54-.437.976-.976.976z" fill="#fff"/><path d="M15.614 1.952h168.82v198.096H15.615zm170.773 199.072V.976A.975.975 0 00185.41 0H14.638a.976.976 0 00-.976.976v200.048c0 .54.437.976.976.976H185.41c.54 0 .976-.436.976-.976z" fill="#a9b1f7"/><path d="M.976 202a.975.975 0 01-.976-.976v-94.657a.975.975 0 111.952 0v94.657c0 .54-.437.976-.976.976zM201.024 162.966a.976.976 0 01-.976-.976V.976a.976.976 0 111.952 0V161.99c0 .54-.436.976-.976.976z" fill="#fff"/><path d="M146.377 145.401H53.67a.976.976 0 110-1.952h92.706a.975.975 0 110 1.952zM146.377 128.812H53.67a.976.976 0 110-1.952h92.706a.975.975 0 110 1.952z" fill="#a9b1f7"/><path d="M134.179 160.039a7.325 7.325 0 017.318 7.318v7.807c0 4.036-3.282 7.32-7.318 7.32H63.918c-4.035 0-7.32-3.284-7.32-7.32v-7.807c0-4.036 3.285-7.318 7.32-7.318zm9.27 15.125v-7.807c0-5.111-4.158-9.27-9.27-9.27H63.918c-5.112 0-9.27 4.159-9.27 9.27v7.807c0 5.112 4.158 9.27 9.27 9.27h70.26c5.113 0 9.271-4.158 9.271-9.27z" fill="#d165e9"/><path d="M175.653 22.444a.974.974 0 01-.75-.35l-9.759-11.71a.976.976 0 111.499-1.251l9.759 11.71a.975.975 0 01-.749 1.601z" fill="#a9b1f7"/><path d="M165.894 22.444a.977.977 0 01-.75-1.601l9.759-11.71a.977.977 0 011.499 1.251l-9.759 11.71a.972.972 0 01-.75.35zM128.762 82.625a.956.956 0 00-.402-.353l-11.48-4.97a.97.97 0 00-.105-.855l-1.75-2.61a2.256 2.256 0 00-1.827-.996v-6.378l.47-.352a8.677 8.677 0 003.464-6.528l.016-.65c.208-.03.413-.088.612-.172a2.504 2.504 0 001.465-1.71l1.438-5.753a3.628 3.628 0 00-.92-3.484c.33-1.31.925-2.707 1.992-3.879a.979.979 0 00.252-.605c.035-.664.748-16.143-8.09-17.88-2.124-2.566-6.31-5.103-13.365-4.969-4.035.075-11.804 1.31-15.9 3.432a.974.974 0 00-.099 1.674l.806.546c-7.832 6.672-6.374 16.86-6.304 17.309a.975.975 0 00.274.541c.916.917 1.481 2.53 1.82 4.132a3.609 3.609 0 00-.704 3.164l1.445 5.773a2.502 2.502 0 001.149 1.548c.295.176.615.29.946.334l.027.6a8.655 8.655 0 003.455 6.498l1.355 1.037v5.933a2.257 2.257 0 00-2.728.834L84.33 76.45a.968.968 0 00-.113.831L70.191 83.37c-.015.007-.024.02-.038.027-8.33-7.666-13.554-18.59-13.554-30.7 0-23.138 19.043-41.962 42.45-41.962 23.406 0 42.448 18.824 42.448 41.962 0 11.71-4.883 22.31-12.735 29.929zm-23.457 11.572l-1.19-5.457c.119-.144.216-.307.289-.486a43.494 43.494 0 012.867 2.196c.49.412 1.087.613 1.682.613a2.616 2.616 0 002.388-1.534l4.744-10.444 11.244 4.869a42.522 42.522 0 01-22.024 10.243zm-2.869-9.884l8.858-7.96 1.643-1.478.037-.036h.002a.308.308 0 01.222-.043.297.297 0 01.206.127l1.447 2.158-5.287 11.642a.67.67 0 01-1.038.233 45.514 45.514 0 00-4.113-3.063v-.604a.976.976 0 00-.975-.976zm-3.388 10.344c-.45 0-.897-.02-1.345-.034l1.32-6.052c.094-.432-.088-.853-.465-1.054a.98.98 0 00.083-.396v-.163c.378-.237.758-.468 1.143-.693h1.537c.383.225.764.455 1.14.692v.164c0 .142.028.273.085.396a.977.977 0 00-.466 1.054l1.28 5.87a43.105 43.105 0 01-4.312.216zm12.198-20.887l-10.694 9.613-9.798-8.808v-6.012l2 1.531a8.748 8.748 0 005.214 1.739h5.174c1.869 0 3.72-.618 5.215-1.739l2.89-2.167zM83.258 52.974l2.567-2.569a.979.979 0 00.279-.818c-.01-.068-.845-6.816 3.382-9.307 3.085-1.824 5.873-1.582 8.82-1.326 1.017.088 2.067.178 3.123.178 4.143 0 7.391-.614 9.753-1.804 2.518 1.898 3.614 6.589 3.794 10.487.03.62.222 1.221.557 1.738l2.092 3.247c.132.203.328.34.548.403l-.867 3.45a.56.56 0 01-.304.31.562.562 0 01-.435.002.973.973 0 00-1.343.88l-.042 1.662a6.717 6.717 0 01-2.685 5.042l-5.311 3.984c-1.163.873-2.605 1.333-4.06 1.348H97.97a6.772 6.772 0 01-4.037-1.342l-3.239-2.48a.962.962 0 00-.875-.67l-1.194-.913a6.71 6.71 0 01-2.683-5.035l-.074-1.616c-.013-.317-.216-.598-.485-.768a1.04 1.04 0 00-.931-.068.563.563 0 01-.689-.412l-.847-3.386a.962.962 0 00.342-.217zm32.39-23.912a4.872 4.872 0 00-.212-.922c4.656 3.025 4.66 12.829 4.613 14.757-1.336 1.584-2.009 3.413-2.342 5.044l-.01.05c-.073.358-.133.71-.176 1.043l-.347-.54a1.553 1.553 0 01-.248-.77c-.12-2.584-.763-8.482-4.007-11.48.328-.264.63-.546.902-.847 1.482-1.645 2.096-3.777 1.827-6.335zm-28.113-3.795l-.456-.31c4.028-1.562 10.114-2.462 13.487-2.524 9.256-.176 12.905 4.628 13.141 6.835.21 1.984-.24 3.606-1.337 4.823-1.845 2.05-5.526 3.09-10.94 3.09-.972 0-1.935-.083-2.955-.171-3.125-.274-6.36-.552-9.981 1.59-4.639 2.734-4.517 8.943-4.375 10.752l-.71.71a23.95 23.95 0 00-.278-1.89c-.008-.031-.009-.063-.02-.095-.355-1.834-.997-3.866-2.18-5.215-.17-1.706-.673-10.65 6.632-16.002a.975.975 0 00-.028-1.593zm9.155 60.022v.605a45.438 45.438 0 00-4.11 3.062.671.671 0 01-1.039-.234l-5.288-11.64 1.443-2.16a.306.306 0 01.423-.087l.032.025.016.015.635.57 1.579 1.42 8.287 7.448h-1.003a.976.976 0 00-.975.976zm-.96 9.227a42.524 42.524 0 01-23.962-9.704l13.24-5.748 4.757 10.468a2.62 2.62 0 002.386 1.531c.595 0 1.193-.201 1.683-.613.922-.774 1.886-1.5 2.87-2.196.07.174.16.342.283.49zm3.318-85.733c-24.483 0-44.4 19.698-44.4 43.913 0 22.967 17.924 41.86 40.662 43.746.652.054 1.31.096 1.97.122a44.51 44.51 0 001.768.045 45.31 45.31 0 004.73-.252c.652-.07 1.3-.15 1.944-.245 21.328-3.194 37.727-21.445 37.727-43.416 0-24.215-19.918-43.913-44.4-43.913z" fill="#a9b1f7"/><path d="M60.502 123.932a.976.976 0 01-.975-.976V110.27a.975.975 0 111.951 0v12.686c0 .54-.436.976-.976.976z" fill="#d165e9"/></symbol><symbol viewBox="0 0 209 202" id="index-prices" xmlns="http://www.w3.org/2000/svg"><path d="M111.596 16.63a1.194 1.194 0 01-1.193-1.193V8.315a5.939 5.939 0 00-5.93-5.928H97.35a1.194 1.194 0 010-2.387h7.123c4.585 0 8.315 3.73 8.316 8.316v7.121c0 .658-.536 1.194-1.193 1.194zM8.318 0h7.122c.657 0 1.193.535 1.193 1.193 0 .659-.536 1.194-1.193 1.194H8.316a5.935 5.935 0 00-5.928 5.928v7.122c0 .658-.536 1.194-1.194 1.194a1.195 1.195 0 01-1.193-1.194V8.315a8.26 8.26 0 012.436-5.88A8.262 8.262 0 018.317 0z" fill="#fff"/><path d="M8.318 0h7.122c.657 0 1.193.535 1.193 1.193 0 .659-.536 1.194-1.193 1.194H8.316a5.935 5.935 0 00-5.928 5.928v7.122c0 .658-.536 1.194-1.194 1.194a1.195 1.195 0 01-1.193-1.194V8.315a8.26 8.26 0 012.436-5.88A8.262 8.262 0 018.317 0zM111.596 16.63a1.194 1.194 0 01-1.193-1.193V8.315a5.939 5.939 0 00-5.93-5.928H97.35a1.194 1.194 0 010-2.387h7.123c4.585 0 8.315 3.73 8.316 8.316v7.121c0 .658-.536 1.194-1.193 1.194z" fill="#fff"/><path d="M15.44 73.615c.657 0 1.192-.535 1.192-1.192V15.449a1.19 1.19 0 00-1.193-1.191c-.658 0-1.193.536-1.193 1.193v56.975c0 .427.22.71.35.84.13.131.414.35.843.35zM58.175 73.615c.659 0 1.194-.535 1.194-1.193V15.445a1.194 1.194 0 00-2.387 0v56.977c0 .658.535 1.193 1.193 1.193zM47.492 73.611c.657 0 1.192-.535 1.193-1.192V15.445a1.188 1.188 0 00-.35-.841 1.188 1.188 0 00-.844-.35h-.001a1.195 1.195 0 00-1.192 1.194v56.974a1.188 1.188 0 001.194 1.19zM29.685 73.611c.658 0 1.192-.535 1.193-1.192V15.445c0-.427-.22-.712-.35-.841a1.187 1.187 0 00-.843-.35h-.001a1.196 1.196 0 00-1.193 1.194v56.974c0 .428.22.71.35.84.132.132.415.35.844.35z" fill="#a9add8"/><path d="M204.394 130.202c-.333.334-.7.644-1.088.923l-9.096 6.499a8.918 8.918 0 01-5.164 1.637 8.887 8.887 0 01-4.982-1.517l-45.748-31.11c-7.263-4.94-12.167-12.412-13.81-21.04-1.643-8.63.174-17.381 5.113-24.644 1.155-1.7 2.48-3.3 3.936-4.757l1.835-1.834c1.596-1.577 4.174-1.577 5.757-.012l63.27 63.273c3.465 3.48 3.453 9.121-.023 12.582zm-51.363 58.447a24.08 24.08 0 01-5.097 7.267c-2.653 2.64-6.144 3.962-9.638 3.962a13.66 13.66 0 01-9.667-3.98l-1.16-1.16c-5.33-5.34-5.323-14.019.015-19.35a13.776 13.776 0 012.152-1.75l1.18-.82a20.146 20.146 0 007.066-7.95c2.867-5.767 2.867-12.643.003-18.403-.839-1.823-.464-3.907.896-5.262.39-.372.79-.641 1.224-.838a14.352 14.352 0 003.697-2.65c3.187-3.21 4.723-7.823 4.094-12.325l-1.703-11.732 30.903 21.01zm53.518-70.745c-.33-.461-.7-.899-1.102-1.302L142.179 53.34c-2.17-2.077-5.638-2.076-7.85.043l-1.778 1.788c-.667.668-1.293 1.391-2.028 2.272l-1.991 2.388-9.286-9.285.571-.961-1.791 2.09.196-.118 9.557 9.556-1.03 1.87c-8.58 15.577-3.952 34.852 10.762 44.837l6.96 4.733 1.89 13.033a13.255 13.255 0 01-3.685 11.1 12.792 12.792 0 01-3.303 2.378 5.685 5.685 0 00-1.625 1.13 5.959 5.959 0 00-1.165 6.937c2.662 5.353 2.662 11.737.003 17.084a18.69 18.69 0 01-6.585 7.407l-1.206.836c-3.407 2.266-5.699 5.677-6.497 9.637a15.025 15.025 0 002.232 11.358c.552.83 1.19 1.61 1.894 2.316l1.157 1.158a15.02 15.02 0 0010.567 4.387h.03a15.635 15.635 0 0011.008-4.615 24.999 24.999 0 005.155-7.468l23.839-53.733 5.063 3.439c3.519 2.383 8.205 2.357 11.698-.056l.115-.085 9.092-6.499c4.63-3.307 5.708-9.764 2.401-14.393z" fill="#fff"/><path d="M60.603 132.753c8.271 0 12.741 3.744 12.741 10.395 0 6.593-4.47 10.394-12.741 10.394H49.37v-20.79zm-.056 23.304c9.78 0 15.704-4.694 15.704-12.965 0-8.216-5.924-12.91-15.704-12.91H46.464v29.34h-5.98v1.9h5.98v7.88h2.906v-7.88h12.686v-1.9H49.37v-3.465z" fill="#d165e9"/><path d="M60.603 132.753c8.271 0 12.741 3.744 12.741 10.395 0 6.593-4.47 10.394-12.741 10.394H49.37v-20.79zm-.056 23.304c9.78 0 15.704-4.694 15.704-12.965 0-8.216-5.924-12.91-15.704-12.91H46.464v29.34h-5.98v1.9h5.98v7.88h2.906v-7.88h12.686v-1.9H49.37v-3.465z" fill="#d165e9"/><path d="M110.228 147.635c-.057 13.958-5.548 27.057-15.459 36.886-9.85 9.77-22.916 15.152-36.789 15.152h-.224c-28.695-.12-52.04-23.562-52.038-52.258 0-13.958 5.437-27.08 15.308-36.95 9.87-9.868 22.992-15.303 36.951-15.303h.213c13.958.058 27.059 5.549 36.887 15.46 9.829 9.91 15.21 23.055 15.151 37.013zm-13.462-38.319C86.533 99.01 72.899 93.303 58.376 93.25h-.205c-29.873 0-54.263 24.302-54.37 54.175-.11 29.982 24.193 54.464 54.174 54.574l.207.001c14.444 0 28.046-5.606 38.302-15.786 10.307-10.232 16.013-23.866 16.067-38.39.054-14.524-5.552-28.2-15.785-38.508z" fill="#d165e9"/><path d="M75.98 14.251c-.658 0-1.193.535-1.193 1.194v56.977a1.194 1.194 0 002.387 0V15.445c0-.659-.536-1.194-1.194-1.194z" fill="#a9add8"/><path d="M111.595 71.229c-.658 0-1.193.535-1.193 1.193v7.122a5.938 5.938 0 01-5.93 5.928h-7.123a1.194 1.194 0 000 2.387h7.123c4.585 0 8.315-3.73 8.316-8.316v-7.121c0-.658-.536-1.193-1.193-1.193zM8.317 87.86h7.122a1.194 1.194 0 000-2.388H8.315a5.936 5.936 0 01-5.928-5.928v-7.122a1.194 1.194 0 00-2.387 0v7.122a8.26 8.26 0 002.436 5.88 8.261 8.261 0 005.88 2.435z" fill="#fff"/><path d="M8.317 87.86h7.122a1.194 1.194 0 000-2.388H8.315a5.936 5.936 0 01-5.928-5.928v-7.122a1.194 1.194 0 00-2.387 0v7.122a8.26 8.26 0 002.436 5.88 8.261 8.261 0 005.88 2.435zM111.595 71.229c-.658 0-1.193.535-1.193 1.193v7.122a5.938 5.938 0 01-5.93 5.928h-7.123a1.194 1.194 0 000 2.387h7.123c4.585 0 8.315-3.73 8.316-8.316v-7.121c0-.658-.536-1.193-1.193-1.193zM110.533 53.288c-5.81.04-10.6-4.628-10.66-10.448-.057-5.819 4.629-10.6 10.447-10.659 5.792-.069 10.601 4.628 10.66 10.447.059 5.82-4.628 10.601-10.447 10.66zm-.104-22.528h-.122a11.897 11.897 0 00-8.429 3.596 11.897 11.897 0 00-3.425 8.499 11.894 11.894 0 003.596 8.428 11.892 11.892 0 008.374 3.426h.124c6.603-.068 11.921-5.493 11.854-12.095-.067-6.562-5.424-11.854-11.972-11.854z" fill="#fff"/><path d="M86.666 14.251c-.659 0-1.194.535-1.194 1.194v56.977a1.194 1.194 0 002.387 0V15.445c0-.659-.535-1.194-1.193-1.194z" fill="#a9add8"/><path d="M154.577 84.542a1.654 1.654 0 00-1.154-.466h-.023a1.66 1.66 0 00-1.172.504 1.66 1.66 0 000 2.326l17.611 17.614c.64.624 1.699.61 2.34-.048a1.657 1.657 0 000-2.327zM142.02 71.983a1.667 1.667 0 00-2.354 2.344l2.413 2.414a1.67 1.67 0 002.31-.202 1.678 1.678 0 00.043-2.134z" fill="#fff"/><path d="M97.827 14.725c-.658 0-1.193.535-1.193 1.193v56.977a1.194 1.194 0 002.387 0V15.918c0-.658-.536-1.193-1.194-1.193z" fill="#a9add8"/><g><path d="M97.827 14.725c-.658 0-1.193.535-1.193 1.193v56.977a1.194 1.194 0 002.387 0V15.918c0-.658-.536-1.193-1.194-1.193z" fill="#a9add8"/><path d="M142.02 71.983a1.667 1.667 0 00-2.354 2.344l2.413 2.414a1.67 1.67 0 002.31-.202 1.678 1.678 0 00.043-2.134zM154.577 84.542a1.654 1.654 0 00-1.154-.466h-.023a1.66 1.66 0 00-1.172.504 1.66 1.66 0 000 2.326l17.611 17.614c.64.624 1.699.61 2.34-.048a1.657 1.657 0 000-2.327zM8.317 87.86h7.122a1.194 1.194 0 000-2.388H8.315a5.936 5.936 0 01-5.928-5.928v-7.122a1.194 1.194 0 00-2.387 0v7.122a8.26 8.26 0 002.436 5.88 8.261 8.261 0 005.88 2.435zM111.595 71.229c-.658 0-1.193.535-1.193 1.193v7.122a5.938 5.938 0 01-5.93 5.928h-7.123a1.194 1.194 0 000 2.387h7.123c4.585 0 8.315-3.73 8.316-8.316v-7.121c0-.658-.536-1.193-1.193-1.193z" fill="#fff"/><path d="M29.685 73.611c.658 0 1.192-.535 1.193-1.192V15.445c0-.427-.22-.712-.35-.841a1.187 1.187 0 00-.843-.35h-.001a1.196 1.196 0 00-1.193 1.194v56.974c0 .428.22.71.35.84.132.132.415.35.844.35zM47.492 73.611c.657 0 1.192-.535 1.193-1.192V15.445a1.188 1.188 0 00-.35-.841 1.188 1.188 0 00-.844-.35h-.001a1.195 1.195 0 00-1.192 1.194v56.974a1.188 1.188 0 001.194 1.19zM58.175 73.615c.659 0 1.194-.535 1.194-1.193V15.445a1.194 1.194 0 00-2.387 0v56.977c0 .658.535 1.193 1.193 1.193zM86.666 14.251c-.659 0-1.194.535-1.194 1.194v56.977a1.194 1.194 0 002.387 0V15.445c0-.659-.535-1.194-1.193-1.194zM75.98 14.251c-.658 0-1.193.535-1.193 1.194v56.977a1.194 1.194 0 002.387 0V15.445c0-.659-.536-1.194-1.194-1.194z" fill="#a9add8"/><path d="M110.228 147.635c-.057 13.958-5.548 27.057-15.459 36.886-9.85 9.77-22.916 15.152-36.789 15.152h-.224c-28.695-.12-52.04-23.562-52.038-52.258 0-13.958 5.437-27.08 15.308-36.95 9.87-9.868 22.992-15.303 36.951-15.303h.213c13.958.058 27.059 5.549 36.887 15.46 9.829 9.91 15.21 23.055 15.151 37.013zm-13.462-38.319C86.533 99.01 72.899 93.303 58.376 93.25h-.205c-29.873 0-54.263 24.302-54.37 54.175-.11 29.982 24.193 54.464 54.174 54.574l.207.001c14.444 0 28.046-5.606 38.302-15.786 10.307-10.232 16.013-23.866 16.067-38.39.054-14.524-5.552-28.2-15.785-38.508z" fill="#d165e9"/><path d="M60.603 132.753c8.271 0 12.741 3.744 12.741 10.395 0 6.593-4.47 10.394-12.741 10.394H49.37v-20.79zm-.056 23.304c9.78 0 15.704-4.694 15.704-12.965 0-8.216-5.924-12.91-15.704-12.91H46.464v29.34h-5.98v1.9h5.98v7.88h2.906v-7.88h12.686v-1.9H49.37v-3.465z" fill="#d165e9"/><path d="M15.44 73.615c.657 0 1.192-.535 1.192-1.192V15.449a1.19 1.19 0 00-1.193-1.191c-.658 0-1.193.536-1.193 1.193v56.975c0 .427.22.71.35.84.13.131.414.35.843.35z" fill="#a9add8"/><path d="M8.318 0h7.122c.657 0 1.193.535 1.193 1.193 0 .659-.536 1.194-1.193 1.194H8.316a5.935 5.935 0 00-5.928 5.928v7.122c0 .658-.536 1.194-1.194 1.194a1.195 1.195 0 01-1.193-1.194V8.315a8.26 8.26 0 012.436-5.88A8.262 8.262 0 018.317 0zM111.596 16.63a1.194 1.194 0 01-1.193-1.193V8.315a5.939 5.939 0 00-5.93-5.928H97.35a1.194 1.194 0 010-2.387h7.123c4.585 0 8.315 3.73 8.316 8.316v7.121c0 .658-.536 1.194-1.193 1.194zM110.533 53.288c-5.81.04-10.6-4.628-10.66-10.448-.057-5.819 4.629-10.6 10.447-10.659 5.792-.069 10.601 4.628 10.66 10.447.059 5.82-4.628 10.601-10.447 10.66zm-.104-22.528h-.122a11.897 11.897 0 00-8.429 3.596 11.897 11.897 0 00-3.425 8.499 11.894 11.894 0 003.596 8.428 11.892 11.892 0 008.374 3.426h.124c6.603-.068 11.921-5.493 11.854-12.095-.067-6.562-5.424-11.854-11.972-11.854z" fill="#fff"/><g><path d="M204.394 130.202c-.333.334-.7.644-1.088.923l-9.096 6.499a8.918 8.918 0 01-5.164 1.637 8.887 8.887 0 01-4.982-1.517l-45.748-31.11c-7.263-4.94-12.167-12.412-13.81-21.04-1.643-8.63.174-17.381 5.113-24.644 1.155-1.7 2.48-3.3 3.936-4.757l1.835-1.834c1.596-1.577 4.174-1.577 5.757-.012l63.27 63.273c3.465 3.48 3.453 9.121-.023 12.582zm-51.363 58.447a24.08 24.08 0 01-5.097 7.267c-2.653 2.64-6.144 3.962-9.638 3.962a13.66 13.66 0 01-9.667-3.98l-1.16-1.16c-5.33-5.34-5.323-14.019.015-19.35a13.776 13.776 0 012.152-1.75l1.18-.82a20.146 20.146 0 007.066-7.95c2.867-5.767 2.867-12.643.003-18.403-.839-1.823-.464-3.907.896-5.262.39-.372.79-.641 1.224-.838a14.352 14.352 0 003.697-2.65c3.187-3.21 4.723-7.823 4.094-12.325l-1.703-11.732 30.903 21.01zm53.518-70.745c-.33-.461-.7-.899-1.102-1.302L142.179 53.34c-2.17-2.077-5.638-2.076-7.85.043l-1.778 1.788c-.667.668-1.293 1.391-2.028 2.272l-1.991 2.388-9.286-9.285.571-.961-1.791 2.09.196-.118 9.557 9.556-1.03 1.87c-8.58 15.577-3.952 34.852 10.762 44.837l6.96 4.733 1.89 13.033a13.255 13.255 0 01-3.685 11.1 12.792 12.792 0 01-3.303 2.378 5.685 5.685 0 00-1.625 1.13 5.959 5.959 0 00-1.165 6.937c2.662 5.353 2.662 11.737.003 17.084a18.69 18.69 0 01-6.585 7.407l-1.206.836c-3.407 2.266-5.699 5.677-6.497 9.637a15.025 15.025 0 002.232 11.358c.552.83 1.19 1.61 1.894 2.316l1.157 1.158a15.02 15.02 0 0010.567 4.387h.03a15.635 15.635 0 0011.008-4.615 24.999 24.999 0 005.155-7.468l23.839-53.733 5.063 3.439c3.519 2.383 8.205 2.357 11.698-.056l.115-.085 9.092-6.499c4.63-3.307 5.708-9.764 2.401-14.393z" fill="#fff"/></g></g></symbol><symbol viewBox="0 0 200 202" id="index-services" xmlns="http://www.w3.org/2000/svg"><path d="M80.658 146.504l-.616-1.338 9.557 5c.951.495 1.287 1.14 1.4 1.594.172.684-.016 1.454-.543 2.226l-5.992 8.756-.09-1.461a41.222 41.222 0 00-3.716-14.777zm.903 33.958l-15.998-4.857.256-.53a25.496 25.496 0 002.456-8.91c.598-6.815-1.494-13.454-5.89-18.695-4.395-5.242-10.57-8.458-17.383-9.056l-.468-.04.237-13.48.525.035c20.854 1.346 36.905 18.768 36.54 39.662zm-.225 12.741a4.916 4.916 0 01-1.775 3.967 4.915 4.915 0 01-3.616 1.126l-59.342-1.034-7.441-13.42a39.181 39.181 0 01-5.428-18.722c-.652-21.548 16.348-39.608 37.895-40.26l.528-.015-.237 13.48-.468.024A25.487 25.487 0 0025 145.5a25.6 25.6 0 00-3.416 4.07c-3.828 5.665-5.221 12.482-3.922 19.195 1.3 6.713 5.135 12.518 10.8 16.346 5.665 3.826 12.482 5.22 19.195 3.92 6.712-1.3 12.517-5.135 16.345-10.8l.208-.307 16.941 5.143-.095.482.447.008zm-22.025-45.259a23.069 23.069 0 016.45 16.367 22.827 22.827 0 01-7.01 16.125c-4.316 4.17-9.968 6.454-15.955 6.454a22.827 22.827 0 01-16.536-7.013c-8.805-9.113-8.554-23.689.559-32.493 9.113-8.803 23.69-8.552 32.492.56zm67.536 42.08l-42.828-.75.381-21.84 8.166-11.931c.99-1.45 1.329-2.956.978-4.356-.349-1.393-1.352-2.557-2.9-3.364l-13.09-6.851-.072-.107a41.73 41.73 0 00-33.976-18.585 41.62 41.62 0 00-21.845 5.741C1.845 139.628-4.8 165.225 6.848 185.041l7.7 13.889c.246.642.819.998 1.43.938l59.96 1.044c.22.012.417.016.614.013 4.156-.076 7.475-3.519 7.4-7.675l.023-1.363 41.52.727-.113 6.559a1.3 1.3 0 00.366.93 1.3 1.3 0 00.917.4c.682 0 1.317-.563 1.33-1.284l.136-7.865a1.307 1.307 0 00-1.284-1.33z" fill="#d165e9"/><path d="M196.169 36.18H2.702V1.509h9.6a.727.727 0 00-.052.251v5.025a.754.754 0 001.508 0V1.76a.752.752 0 00-.05-.251h10.654a.727.727 0 00-.052.251v12.06a.754.754 0 001.508 0V1.76a.752.752 0 00-.05-.251h9.649a.728.728 0 00-.051.251v5.025a.754.754 0 001.507 0V1.76a.75.75 0 00-.05-.251h10.654a.728.728 0 00-.051.251v12.06a.754.754 0 001.507 0V1.76a.752.752 0 00-.05-.251h9.65a.727.727 0 00-.052.251v5.025a.754.754 0 001.508 0V1.76a.752.752 0 00-.05-.251h8.082c.275 8.61 7.346 15.536 16.022 15.538h30.15c8.679 0 15.752-6.925 16.027-15.538h10.724a.727.727 0 00-.051.251v5.025a.754.754 0 001.507 0V1.76a.752.752 0 00-.05-.251h9.649a.728.728 0 00-.051.251v12.06a.754.754 0 001.507 0V1.76a.75.75 0 00-.05-.251h9.65a.727.727 0 00-.052.251v5.025a.754.754 0 001.507 0V1.76a.752.752 0 00-.05-.251h9.65a.728.728 0 00-.052.251v12.06a.754.754 0 001.508 0V1.76a.75.75 0 00-.05-.251h9.649a.727.727 0 00-.052.251v5.025a.754.754 0 001.508 0V1.76a.752.752 0 00-.05-.251h9.598zM91.414 1.509a3.733 3.733 0 00-.772 2.261v2.01a3.773 3.773 0 003.768 3.769h11.056a3.773 3.773 0 003.768-3.769V3.77c0-.851-.294-1.63-.772-2.261h20.268c-.272 7.784-6.689 14.03-14.537 14.03h-30.15c-7.845-.001-14.26-6.248-14.532-14.03zm14.052 0a2.264 2.264 0 012.261 2.261v2.01a2.263 2.263 0 01-2.261 2.261H94.41a2.264 2.264 0 01-2.26-2.26V3.768a2.265 2.265 0 012.26-2.261zM1.195 0v37.688h196.481V0z" fill="#a9add8"/><path d="M174.258 148.32a2.72 2.72 0 01-2.717-2.717 2.72 2.72 0 012.717-2.717 2.72 2.72 0 012.718 2.717 2.72 2.72 0 01-2.718 2.718zm0-7.193a4.481 4.481 0 00-4.476 4.476 4.481 4.481 0 004.476 4.477 4.481 4.481 0 004.477-4.477 4.481 4.481 0 00-4.477-4.476z" fill="#fff"/><path d="M197.556 166.082h-4.14a6.203 6.203 0 01-4.405-1.85 6.196 6.196 0 01-1.813-4.419c.336-34.025-7.603-56.45-14.323-69.272a11.066 11.066 0 01-1.293-5.16 10.96 10.96 0 013.215-7.81 10.965 10.965 0 017.714-3.245l7.01-.004-.049.162c-.091.307-.182.576-.268.801a17.752 17.752 0 00-.493 11.29c5.537 19.075 8.598 41.8 9.099 67.539a256.11 256.11 0 01-.248 11.848zm-.09 1.891a256.642 256.642 0 01-1.851 20.275 6.238 6.238 0 01-6.179 5.45h-22.67a7.43 7.43 0 01-5.764-2.726 4.343 4.343 0 01-.73-1.406l-.052-.163h3.49c6.547-.019 11.888-5.362 11.908-11.91v-24.662l.1-.02a7.374 7.374 0 005.895-7.208 7.317 7.317 0 00-7.125-7.341l-.074-.002-.033-.068c-1.995-4.03-6.185-6.643-10.673-6.655h-6.05v-4.313c-.01-3.283-2.691-5.961-5.977-5.971h-1.23l-1.05-.03H106.86a17.8 17.8 0 01-9.339-2.645l-3.432-2.113.494.037c1.805-23.588 21.716-42.103 45.384-42.176h36.168l-.365.233a12.706 12.706 0 00-5.946 10.826 12.812 12.812 0 001.498 5.978c6.624 12.64 14.45 34.774 14.118 68.438a7.931 7.931 0 002.33 5.668 8.026 8.026 0 005.694 2.371h4.01zm-12.369 29.61a2.707 2.707 0 01-2.696 2.658h-9.02a2.62 2.62 0 01-1.868-.775 2.622 2.622 0 01-.775-1.871v-2.138h14.36zm-10.838-57.575a5.602 5.602 0 015.595 5.595 5.6 5.6 0 01-5.595 5.595 5.601 5.601 0 01-5.595-5.595 5.601 5.601 0 015.595-5.595zm-14.124 47.489c.08-.452.225-.88.43-1.273 1.386-2.725 3.036-6.578 3.036-9.45v-16.231a8.54 8.54 0 00-2.055-5.555l-2.257-2.623a6.78 6.78 0 01-1.632-4.41v-14.66h6.048c3.563.01 6.91 1.937 8.733 5.027l.085.143-.16.042a7.363 7.363 0 00-5.457 7.096c0 3.84 3.002 7.059 6.836 7.328l.117.008v24.552c-.017 5.582-4.57 10.137-10.15 10.153h-3.601zm-4.236-41.213h-3.715a4.33 4.33 0 01-3.282-1.481 4.329 4.329 0 01-1.076-3.154 97.324 97.324 0 00-.525-18.5l-.017-.14 4.394.002a4.24 4.24 0 014.22 4.216zm-29.79-23.153c-.16 1.889-1.762 3.368-3.646 3.368-1.888 0-3.489-1.481-3.647-3.373l-.01-.137 7.315.005zm-33.214-7.399l-.17-.106-15.897-9.786V62.195h9.464v13.353h7.045V62.195h88.987c3.022 0 5.192.93 6.452 2.766 1.638 2.387 1.423 5.721 1.15 7.497l-.017.106h-7.321a1.237 1.237 0 01-.078.004h-42.547c-11.74.036-23.027 4.465-31.783 12.474-8.741 7.996-14.164 18.823-15.266 30.488zM88.05 62.195h3.527V73.79H88.05zm-12.982 42.562l-3.892-2.396c-4.007-2.466-6.496-6.92-6.496-11.625V72.648c.016-5.64 4.62-10.325 10.26-10.443l.128-.003zM59.546 94.01c-2.642-.037-4.787-2.217-4.782-4.86V74.704a4.775 4.775 0 014.77-4.769h3.704l-.033.153c-.185.853-.28 1.713-.283 2.557v18.09c0 1.028.112 2.079.33 3.12l.032.153zm-6.54-9.482h-3.143V80.34h3.143zm-4.902 10.837h-23.68V69.107h23.68zm-25.439-.128l-.145-.021a13.068 13.068 0 01-11.185-11.777l-.001-2.393A13.071 13.071 0 0122.52 69.257l.145-.021zM9.575 83.418v.646l-4.73-.365v-2.926l4.73-.365v.646c-.032.397-.06.786-.06 1.182 0 .396.028.785.06 1.182zm-6.49.145L1.76 83.46v-2.45l1.326-.102zm187.316 2.522a15.99 15.99 0 01.443-10.166c.76-1.967 2.128-7.951-.618-11.953-1.607-2.343-4.265-3.53-7.902-3.53H75.13c-4.982.014-9.42 3.022-11.306 7.663l-.032.079h-4.257a6.536 6.536 0 00-6.528 6.527v3.876h-3.143V67.349h-25.46c-6.782 0-12.705 4.596-14.402 11.177l-.022.087-9.98.77v5.705l9.98.771.023.087c1.697 6.581 7.619 11.177 14.4 11.177h25.461V86.286h3.143v2.86c-.007 3.601 2.922 6.571 6.53 6.621h4.25l.029.084c1.186 3.338 3.472 6.182 6.44 8.009l4.814 2.963v.427h.693l.03.019 20.806 12.807a19.55 19.55 0 0010.26 2.905l10.177.007.007.12a5.428 5.428 0 0010.84.007l.008-.119 17.624.012.014.11a95.603 95.603 0 01.543 18.414 6.077 6.077 0 001.512 4.43 6.075 6.075 0 004.6 2.08h3.723l.003.123a8.555 8.555 0 002.047 5.345l2.255 2.624a6.783 6.783 0 011.631 4.41v16.23c0 1.97-1.008 5.04-2.839 8.643a6.145 6.145 0 00.63 6.658 9.2 9.2 0 007.133 3.382h2.213v2.141c0 1.176.458 2.281 1.29 3.113a4.373 4.373 0 003.11 1.289h9.012c2.433 0 4.43-1.977 4.463-4.407v-2.136h2.575c4.022 0 7.428-3.003 7.928-6.984a257.79 257.79 0 002.21-34.378c-.504-25.905-3.588-48.787-9.168-68.01z" fill="#fff"/><path d="M145.994 84.75v-1.76h14.395v1.759zM145.994 90.109v-1.76h14.395v1.76zM145.994 95.467V93.71h14.395v1.758zM145.994 100.826v-1.759h14.395v1.759zM145.994 106.184v-1.76h14.395v1.76zM145.994 111.542v-1.758h14.395v1.758zM29.021 77.17v-1.76h14.55v1.76zM29.021 83.116v-1.759h14.55v1.759zM29.021 89.062v-1.758h14.55v1.758zM112.236 101.318h20.97v6.17h-20.97zm-1.758 7.929h24.487v-9.688h-24.487z" fill="#fff"/><g><path d="M51.471 169.39c0 3.874-2.681 6.852-8.112 6.852-3.376 0-6.522-1.257-8.144-3.111l.86-1.292c1.391 1.622 4.139 2.848 7.251 2.848 4.272 0 6.457-2.152 6.457-5.232 0-3.31-2.02-5.33-8.31-5.33H36.77l1.225-11.224h12.283v1.522h-10.86l-.894 8.18h3.312c7.052 0 9.634 2.68 9.634 6.786z" fill="#d165e9"/></g></symbol><symbol viewBox="0 0 201 202" id="index-stocks" xmlns="http://www.w3.org/2000/svg"><path d="M154.21 85.449a1.033 1.033 0 100 2.067h10.337a1.034 1.034 0 000-2.067zM133.536 85.449a1.033 1.033 0 100 2.067h10.337a1.034 1.034 0 000-2.067zM185.22 85.449h-10.336a1.033 1.033 0 100 2.067h10.336a1.034 1.034 0 000-2.067z" fill="#fff"/><path d="M131.534 134.58c0-4.762 2.332-7.69 5.755-7.69 3.475 0 5.807 2.877 5.807 7.69 0 4.815-2.332 7.693-5.807 7.693-3.423 0-5.755-2.928-5.755-7.692zm13.447 0c0-5.655-3.175-9.378-7.692-9.378-4.515 0-7.64 3.723-7.64 9.379s3.125 9.379 7.64 9.379c4.517 0 7.692-3.723 7.692-9.38zM158.478 125.401l-23.719 34.735h2.134l23.719-34.735zM158.081 158.647c-3.473 0-5.805-2.879-5.805-7.691 0-4.813 2.332-7.691 5.805-7.691 3.425 0 5.757 2.927 5.757 7.69 0 4.765-2.332 7.692-5.757 7.692zm0-17.07c-4.515 0-7.69 3.722-7.69 9.378 0 5.658 3.175 9.38 7.69 9.38 4.516 0 7.642-3.722 7.642-9.38 0-5.656-3.126-9.377-7.642-9.377z" fill="#a9add8"/><path d="M158.172 32.86c0 5.322-4.33 9.651-9.651 9.651-5.322 0-9.652-4.329-9.652-9.65 0-5.322 4.33-9.652 9.652-9.652 5.32 0 9.651 4.33 9.651 9.652zm1.55 0c0-6.176-5.025-11.201-11.201-11.201-6.177 0-11.203 5.025-11.203 11.202 0 6.176 5.026 11.2 11.203 11.2 6.176 0 11.202-5.024 11.202-11.2zM123.2 85.449h-10.338a1.033 1.033 0 100 2.067H123.2a1.034 1.034 0 000-2.067z" fill="#fff"/><path d="M36.557 139.073l-2.535 2.537a12.845 12.845 0 01-9.103 3.76 12.84 12.84 0 01-9.116-3.774c-5.02-5.025-5.013-13.199.013-18.218 5.02-5.012 13.185-5.013 18.206 0a12.796 12.796 0 013.777 9.108 12.8 12.8 0 01-1.675 6.37zM24.91 117.9h-.005c-3.876 0-7.52 1.501-10.27 4.23l-.044.045c-5.683 5.687-5.68 14.937.007 20.62 5.687 5.685 14.938 5.68 20.621-.007 5.68-5.683 5.68-14.93 0-20.613A14.484 14.484 0 0024.91 117.9zM34.319 76.058l-.025.05-.328.311a13.098 13.098 0 01-9.063 3.633c-3.261 0-6.523-1.21-9.063-3.633-5.069-5.065-5.07-13.238-.048-18.262a12.79 12.79 0 019.108-3.775h.003c3.44 0 6.674 1.339 9.108 3.771 4.92 4.92 5.023 12.86.308 17.905zm.893-19.106a14.487 14.487 0 00-10.31-4.27c-8.04.002-14.58 6.543-14.58 14.582.002 8.04 6.543 14.58 14.582 14.58 3.895 0 7.556-1.517 10.31-4.272a14.48 14.48 0 004.269-10.31 14.48 14.48 0 00-4.271-10.31z" fill="#d165e9"/><path d="M199.138 187.419c0 7.103-5.778 12.883-12.882 12.883H110.73c-7.104-.001-12.883-5.78-12.883-12.883V75.312l22.16-22.154a.848.848 0 00-.001-1.2.851.851 0 00-.767-.233l-17.691 3.547 30.617-44.963c6.16-9.008 18.491-11.322 27.493-5.165a19.713 19.713 0 015.16 5.16l32.084 47.103a12.658 12.658 0 012.236 7.217zm-102.99-64.664L73.282 99.877 96.15 77.014zm0 18.182l-3.48-1.285a45.111 45.111 0 01-2.12-.845 68.797 68.797 0 01-22.54-15.049l-9.283-9.319 13.355-13.355 24.069 24.069zM46.76 124.02a.856.856 0 00-.194.88 23.03 23.03 0 01-.9 17.717 23.037 23.037 0 01-13.167 11.894 23.16 23.16 0 01-7.757 1.342h-.232c-6.233-.05-12.253-2.66-16.537-7.16-8.344-8.909-8.407-22.9-.157-31.867a23.127 23.127 0 0124.684-5.993.85.85 0 00.88-.2l32.556-32.546a81.01 81.01 0 0141.645-22.284l9.192-1.795zM36.364 92.095c-1.432-1.426-3.442-2.275-5.436-2.232a7.897 7.897 0 00-1.557.156C16.814 92.478 4.615 84.272 2.16 71.732a23.03 23.03 0 013.51-17.388 23.029 23.029 0 0114.779-9.812 23.032 23.032 0 0117.387 3.513 23.027 23.027 0 019.811 14.777 23.07 23.07 0 01-.007 8.945 7.7 7.7 0 002.087 6.98l6.586 6.589L42.95 98.697zm161.92-35.676L166.221 9.352c-6.677-9.775-20.064-12.295-29.84-5.616a21.397 21.397 0 00-5.616 5.618l-32.025 47-.843.271a83.25 83.25 0 00-33.152 20.263l-7.227 7.231-6.592-6.593a6.011 6.011 0 01-1.606-5.494c1.674-8.431-1.08-17.014-7.378-22.923-10.003-9.389-25.78-8.888-35.168 1.115-9.388 10.003-8.889 25.779 1.114 35.168a24.943 24.943 0 0021.806 6.274 6.07 6.07 0 015.431 1.575l6.629 6.638-9.151 9.15-1.441-.386a24.84 24.84 0 00-24.569 6.987c-8.853 9.63-8.785 24.683.174 34.25 4.575 4.811 11.026 7.613 17.685 7.67h.289c13.718-.007 24.874-11.174 24.867-24.893a24.904 24.904 0 00-.848-6.428l-.386-1.442 9.146-9.146 9.289 9.315a70.507 70.507 0 0023.08 15.415c1.288.544 2.706 1.066 4.483 1.65l1.777.585v44.813c.009 8.03 6.551 14.572 14.584 14.581h75.523c8.03-.008 14.572-6.55 14.58-14.583V64.62a14.157 14.157 0 00-2.54-8.183z" fill="#fff"/><path d="M199.138 187.419c0 7.103-5.778 12.883-12.882 12.883H110.73c-7.104-.001-12.883-5.78-12.883-12.883V75.312l22.16-22.154a.848.848 0 00-.001-1.2.851.851 0 00-.767-.233l-17.691 3.547 30.617-44.963c6.16-9.008 18.491-11.322 27.493-5.165a19.713 19.713 0 015.16 5.16l32.084 47.103a12.658 12.658 0 012.236 7.217zm-102.99-64.664L73.282 99.877 96.15 77.014zm0 18.182l-3.48-1.285a45.111 45.111 0 01-2.12-.845 68.797 68.797 0 01-22.54-15.049l-9.283-9.319 13.355-13.355 24.069 24.069zM46.76 124.02a.856.856 0 00-.194.88 23.03 23.03 0 01-.9 17.717 23.037 23.037 0 01-13.167 11.894 23.16 23.16 0 01-7.757 1.342h-.232c-6.233-.05-12.253-2.66-16.537-7.16-8.344-8.909-8.407-22.9-.157-31.867a23.127 23.127 0 0124.684-5.993.85.85 0 00.88-.2l32.556-32.546a81.01 81.01 0 0141.645-22.284l9.192-1.795zM36.364 92.095c-1.432-1.426-3.442-2.275-5.436-2.232a7.897 7.897 0 00-1.557.156C16.814 92.478 4.615 84.272 2.16 71.732a23.03 23.03 0 013.51-17.388 23.029 23.029 0 0114.779-9.812 23.032 23.032 0 0117.387 3.513 23.027 23.027 0 019.811 14.777 23.07 23.07 0 01-.007 8.945 7.7 7.7 0 002.087 6.98l6.586 6.589L42.95 98.697zm161.92-35.676L166.221 9.352c-6.677-9.775-20.064-12.295-29.84-5.616a21.397 21.397 0 00-5.616 5.618l-32.025 47-.843.271a83.25 83.25 0 00-33.152 20.263l-7.227 7.231-6.592-6.593a6.011 6.011 0 01-1.606-5.494c1.674-8.431-1.08-17.014-7.378-22.923-10.003-9.389-25.78-8.888-35.168 1.115-9.388 10.003-8.889 25.779 1.114 35.168a24.943 24.943 0 0021.806 6.274 6.07 6.07 0 015.431 1.575l6.629 6.638-9.151 9.15-1.441-.386a24.84 24.84 0 00-24.569 6.987c-8.853 9.63-8.785 24.683.174 34.25 4.575 4.811 11.026 7.613 17.685 7.67h.289c13.718-.007 24.874-11.174 24.867-24.893a24.904 24.904 0 00-.848-6.428l-.386-1.442 9.146-9.146 9.289 9.315a70.507 70.507 0 0023.08 15.415c1.288.544 2.706 1.066 4.483 1.65l1.777.585v44.813c.009 8.03 6.551 14.572 14.584 14.581h75.523c8.03-.008 14.572-6.55 14.58-14.583V64.62a14.157 14.157 0 00-2.54-8.183z" fill="#fff"/><path d="M34.319 76.058l-.025.05-.328.311a13.098 13.098 0 01-9.063 3.633c-3.261 0-6.523-1.21-9.063-3.633-5.069-5.065-5.07-13.238-.048-18.262a12.79 12.79 0 019.108-3.775h.003c3.44 0 6.674 1.339 9.108 3.771 4.92 4.92 5.023 12.86.308 17.905zm.893-19.106a14.487 14.487 0 00-10.31-4.27c-8.04.002-14.58 6.543-14.58 14.582.002 8.04 6.543 14.58 14.582 14.58 3.895 0 7.556-1.517 10.31-4.272a14.48 14.48 0 004.269-10.31 14.48 14.48 0 00-4.271-10.31zM36.557 139.073l-2.535 2.537a12.845 12.845 0 01-9.103 3.76 12.84 12.84 0 01-9.116-3.774c-5.02-5.025-5.013-13.199.013-18.218 5.02-5.012 13.185-5.013 18.206 0a12.796 12.796 0 013.777 9.108 12.8 12.8 0 01-1.675 6.37zM24.91 117.9h-.005c-3.876 0-7.52 1.501-10.27 4.23l-.044.045c-5.683 5.687-5.68 14.937.007 20.62 5.687 5.685 14.938 5.68 20.621-.007 5.68-5.683 5.68-14.93 0-20.613A14.484 14.484 0 0024.91 117.9z" fill="#d165e9"/><path d="M158.081 158.647c-3.473 0-5.805-2.879-5.805-7.691 0-4.813 2.332-7.691 5.805-7.691 3.425 0 5.757 2.927 5.757 7.69 0 4.765-2.332 7.692-5.757 7.692zm0-17.07c-4.515 0-7.69 3.722-7.69 9.378 0 5.658 3.175 9.38 7.69 9.38 4.516 0 7.642-3.722 7.642-9.38 0-5.656-3.126-9.377-7.642-9.377zM158.478 125.401l-23.719 34.735h2.134l23.719-34.735zM131.534 134.58c0-4.762 2.332-7.69 5.755-7.69 3.475 0 5.807 2.877 5.807 7.69 0 4.815-2.332 7.693-5.807 7.693-3.423 0-5.755-2.928-5.755-7.692zm13.447 0c0-5.655-3.175-9.378-7.692-9.378-4.515 0-7.64 3.723-7.64 9.379s3.125 9.379 7.64 9.379c4.517 0 7.692-3.723 7.692-9.38z" fill="#a9add8"/><path d="M185.22 85.449h-10.336a1.033 1.033 0 100 2.067h10.336a1.034 1.034 0 000-2.067zM133.536 85.449a1.033 1.033 0 100 2.067h10.337a1.034 1.034 0 000-2.067zM123.2 85.449h-10.338a1.033 1.033 0 100 2.067H123.2a1.034 1.034 0 000-2.067zM154.21 85.449a1.033 1.033 0 100 2.067h10.337a1.034 1.034 0 000-2.067zM158.172 32.86c0 5.322-4.33 9.651-9.651 9.651-5.322 0-9.652-4.329-9.652-9.65 0-5.322 4.33-9.652 9.652-9.652 5.32 0 9.651 4.33 9.651 9.652zm1.55 0c0-6.176-5.025-11.201-11.201-11.201-6.177 0-11.203 5.025-11.203 11.202 0 6.176 5.026 11.2 11.203 11.2 6.176 0 11.202-5.024 11.202-11.2z" fill="#fff"/></symbol><symbol viewBox="0 0 189 202" id="index-wiki-windows" xmlns="http://www.w3.org/2000/svg"><path d="M159.664 176.527v-6.901h6.901v6.9z" fill="#d165e9"/><path d="M121.046 124.23c-1.997 0-3.934.396-5.765 1.177l-21.182 9.096-21.188-9.097a14.582 14.582 0 00-5.756-1.176H1.851V12.204h11.952v100.074h53.245c1.782-.033 3.453.346 5.062 1.036l21.993 9.397 22.21-9.412a12.748 12.748 0 015.011-1.02h53.073V12.204h11.948V124.23zM15.655 1.851h57.739c10.897.011 19.769 8.883 19.779 19.777v98.676l-20.335-8.7a14.557 14.557 0 00-5.747-1.177H15.655zm79.368 19.78c.01-10.898 8.883-19.77 19.779-19.78h57.74v108.575h-51.206a14.563 14.563 0 00-5.743 1.177l-20.57 8.701zm74.995 138.96a5.984 5.984 0 015.975 5.975v3.234h-.004v24.373a5.983 5.983 0 01-5.976 5.976h-13.8a5.983 5.983 0 01-5.975-5.976v-27.607a5.983 5.983 0 015.976-5.976zm18.18-34.51V10.353h-13.804V0h-59.59c-7.552.002-14.656 4.028-18.54 10.506L94.1 14.118l-2.166-3.612C88.05 4.028 80.945.002 73.393 0h-59.59v10.353H0V126.08h13.804v12.878c0 4.316 3.512 7.826 7.827 7.827h134.583a5.982 5.982 0 015.976 5.977v5.976h-5.976c-4.317 0-7.828 3.51-7.828 7.827v27.607c0 4.315 3.512 7.826 7.828 7.827h13.804c4.315 0 7.826-3.512 7.827-7.827v-27.607c-.001-4.315-3.512-7.827-7.828-7.827h-5.976v-5.976c0-4.316-3.511-7.828-7.827-7.828H21.63a5.983 5.983 0 01-5.976-5.976V126.08h51.46a12.8 12.8 0 015.067 1.04l21.917 9.394 21.916-9.394a12.8 12.8 0 015.068-1.04z" fill="#a9b1f7"/><path d="M121.046 124.23c-1.997 0-3.934.396-5.765 1.177l-21.182 9.096-21.188-9.097a14.582 14.582 0 00-5.756-1.176H1.851V12.204h11.952v100.074h53.245c1.782-.033 3.453.346 5.062 1.036l21.993 9.397 22.21-9.412a12.748 12.748 0 015.011-1.02h53.073V12.204h11.948V124.23zM15.655 1.851h57.739c10.897.011 19.769 8.883 19.779 19.777v98.676l-20.335-8.7a14.557 14.557 0 00-5.747-1.177H15.655zm79.368 19.78c.01-10.898 8.883-19.77 19.779-19.78h57.74v108.575h-51.206a14.563 14.563 0 00-5.743 1.177l-20.57 8.701zm74.995 138.96a5.984 5.984 0 015.975 5.975v3.234h-.004v24.373a5.983 5.983 0 01-5.976 5.976h-13.8a5.983 5.983 0 01-5.975-5.976v-27.607a5.983 5.983 0 015.976-5.976zm18.18-34.51V10.353h-13.804V0h-59.59c-7.552.002-14.656 4.028-18.54 10.506L94.1 14.118l-2.166-3.612C88.05 4.028 80.945.002 73.393 0h-59.59v10.353H0V126.08h13.804v12.878c0 4.316 3.512 7.826 7.827 7.827h134.583a5.982 5.982 0 015.976 5.977v5.976h-5.976c-4.317 0-7.828 3.51-7.828 7.827v27.607c0 4.315 3.512 7.826 7.828 7.827h13.804c4.315 0 7.826-3.512 7.827-7.827v-27.607c-.001-4.315-3.512-7.827-7.828-7.827h-5.976v-5.976c0-4.316-3.511-7.828-7.827-7.828H21.63a5.983 5.983 0 01-5.976-5.976V126.08h51.46a12.8 12.8 0 015.067 1.04l21.917 9.394 21.916-9.394a12.8 12.8 0 015.068-1.04z" fill="#a9b1f7"/><path d="M159.664 176.527v-6.901h6.901v6.9z" fill="#d165e9"/></symbol><symbol viewBox="0 0 202 202" id="index-windows" xmlns="http://www.w3.org/2000/svg"><path d="M85 2h115v198H85zm117 199V1a1 1 0 00-1-1H84a1 1 0 00-1 1v200a1 1 0 001 1h117a1 1 0 001-1z" fill="#fff"/><path d="M180.59 181.589h-76.76a1 1 0 01-1-1v-74.761a1 1 0 112 0v73.76h74.76V22.277h-74.76v75.76a1 1 0 11-2 0v-76.76a1 1 0 011-1h76.76a1 1 0 011 1V180.59a1 1 0 01-1 1z" fill="#d165e9"/><path d="M83.554 198.968H1a1 1 0 01-1-1V3.896a1 1 0 011-1h82.554a1 1 0 110 2H2v192.072h81.554a1 1 0 010 2z" fill="#fff"/><path d="M83.554 184.487H18.38a1 1 0 01-1-1V18.38a1 1 0 011-1h65.174a1 1 0 110 2H19.38v163.107h64.174a1 1 0 110 2z" fill="#fff"/><path d="M90.576 113.53c-1.904 0-3.555-1.53-3.677-3.51a3.875 3.875 0 010-.458l-.002-15.87c-.06-.934.271-1.895.932-2.643a3.71 3.71 0 013.029-1.254l5.732-.002a3.649 3.649 0 012.643.93 3.71 3.71 0 011.255 3.03 1 1 0 11-1.996-.122 1.726 1.726 0 00-.583-1.409 1.735 1.735 0 00-1.257-.431l-5.855.002a2.55 2.55 0 00-.275-.002 1.72 1.72 0 00-1.194.583 1.727 1.727 0 00-.433 1.257l.002 15.992a1.744 1.744 0 001.839 1.902l5.849-.002a1.74 1.74 0 001.902-1.839.999.999 0 01.937-1.06c.563-.018 1.026.386 1.059.937a3.743 3.743 0 01-3.959 3.96l-5.727.002a3.284 3.284 0 01-.221.007z" fill="#a9add8"/><path d="M120.94 99c.584 0 1.06.475 1.06 1.059v2.88c0 .585-.476 1.06-1.06 1.06H96.06a1.06 1.06 0 01-1.06-1.06v-2.88a1.06 1.06 0 011.06-1.06zm3.06 3.94v-2.881a3.063 3.063 0 00-3.06-3.06H96.06a3.062 3.062 0 00-3.06 3.06v2.88a3.063 3.063 0 003.06 3.06h24.88a3.063 3.063 0 003.06-3.06z" fill="#a9add8"/></symbol><symbol viewBox="0 0 20 16" id="letter" xmlns="http://www.w3.org/2000/svg"><path d="M18.225 13.96a.297.297 0 01-.297.297H1.891a.297.297 0 01-.297-.297V2.08c0-.163.133-.296.297-.296h16.037c.164 0 .297.133.297.297zm-.297-12.77H1.891A.891.891 0 001 2.08v11.88c0 .492.399.891.891.891h16.037a.891.891 0 00.891-.89V2.08a.891.891 0 00-.89-.891z" fill="#fff"/><path d="M18.225 13.96a.297.297 0 01-.297.297H1.891a.297.297 0 01-.297-.297V2.08c0-.163.133-.296.297-.296h16.037c.164 0 .297.133.297.297zm-.297-12.77H1.891A.891.891 0 001 2.08v11.88c0 .492.399.891.891.891h16.037a.891.891 0 00.891-.89V2.08a.891.891 0 00-.89-.891z" fill="none" stroke="#fff" stroke-miterlimit="50" stroke-width=".3"/><path d="M17.367 2.372a.298.298 0 00-.217.068l-6.858 5.724a.597.597 0 01-.765 0L2.67 2.44a.299.299 0 00-.484.175c-.019.104.02.21.101.278l6.858 5.723c.442.37 1.087.37 1.53 0l6.857-5.723a.295.295 0 00-.165-.52z" fill="#fff"/><path d="M17.367 2.372a.298.298 0 00-.217.068l-6.858 5.724a.597.597 0 01-.765 0L2.67 2.44a.299.299 0 00-.484.175c-.019.104.02.21.101.278l6.858 5.723c.442.37 1.087.37 1.53 0l6.857-5.723a.295.295 0 00-.165-.52z" fill="none" stroke="#fff" stroke-miterlimit="50" stroke-width=".3"/><path d="M6.68 8.651a.295.295 0 00-.284.092l-4.135 4.43a.295.295 0 10.432.403l4.134-4.43a.295.295 0 00-.147-.495z" fill="#fff"/><path d="M6.68 8.651a.295.295 0 00-.284.092l-4.135 4.43a.295.295 0 10.432.403l4.134-4.43a.295.295 0 00-.147-.495z" fill="none" stroke="#fff" stroke-miterlimit="50" stroke-width=".3"/><g><path d="M13.424 8.743a.295.295 0 10-.432.403l4.135 4.43a.295.295 0 00.432-.403z" fill="#fff"/><path d="M13.424 8.743a.295.295 0 10-.432.403l4.135 4.43a.295.295 0 00.432-.403z" fill="none" stroke="#fff" stroke-miterlimit="50" stroke-width=".3"/></g></symbol><symbol viewBox="0 0 95 36" id="logo" xmlns="http://www.w3.org/2000/svg"><path d="M0 21c0-1 1-2 2-2h13c1 0 2 1 2 2v13c0 1-1 2-2 2H2c-1 0-2-1-2-2z" fill="#c973eb"/><path d="M0 2c0-1 1-2 2-2h13c1 0 2 1 2 2v13c0 1-1 2-2 2H2c-1 0-2-1-2-2z" fill="url(#a)"/><text style="line-height:6px;font-kerning:normal" font-size="8" font-family="'Montserrat','Montserrat-SemiBold'" letter-spacing=".4" transform="translate(46 24)" fill="currentColor"><tspan></tspan></text><text style="line-height:10px;font-kerning:normal" font-size="10" font-family="'Montserrat','Montserrat-Bold'" font-weight="700" font-style="none" letter-spacing=".5" transform="translate(46 13)" fill="currentColor"><tspan fill="#d165e9"></tspan><tspan></tspan></text><path d="M19 2c0-1 1-2 2-2h13c1 0 2 1 2 2v13c0 1-1 2-2 2H21c-1 0-2-1-2-2z" fill="#a9b1f7"/><path d="M19 21c0-1 1-2 2-2h13c1 0 2 1 2 2v13c0 1-1 2-2 2H21c-1 0-2-1-2-2z" fill="#82dcee"/></symbol><symbol viewBox="0 0 52.966 52.966" id="magnifier" xmlns="http://www.w3.org/2000/svg"><path d="M51.704 51.273L36.845 35.82c3.79-3.801 6.138-9.041 6.138-14.82 0-11.58-9.42-21-21-21s-21 9.42-21 21 9.42 21 21 21c5.083 0 9.748-1.817 13.384-4.832l14.895 15.491a.998.998 0 001.414.028 1 1 0 00.028-1.414zM21.983 40c-10.477 0-19-8.523-19-19s8.523-19 19-19 19 8.523 19 19-8.524 19-19 19z"/></symbol><symbol viewBox="0 0 27 37" id="marker" xmlns="http://www.w3.org/2000/svg"><g fill="currentColor"><path d="M13.617 16.645a3.263 3.263 0 01-3.26-3.26 3.263 3.263 0 013.26-3.259 3.263 3.263 0 013.259 3.26 3.263 3.263 0 01-3.26 3.259zm0-7.823a4.569 4.569 0 00-4.563 4.564 4.569 4.569 0 004.563 4.563 4.569 4.569 0 004.563-4.563 4.569 4.569 0 00-4.563-4.564z"/><path d="M13.617 16.645a3.263 3.263 0 01-3.26-3.26 3.263 3.263 0 013.26-3.259 3.263 3.263 0 013.259 3.26 3.263 3.263 0 01-3.26 3.259zm0-7.823a4.569 4.569 0 00-4.563 4.564 4.569 4.569 0 004.563 4.563 4.569 4.569 0 004.563-4.563 4.569 4.569 0 00-4.563-4.564z" fill="none" stroke="currentColor" stroke-miterlimit="50" stroke-width=".5"/><path d="M22.444 21.489l-8.943 12.915-8.957-12.935C1.154 16.95 1.64 9.526 5.584 5.583a11.123 11.123 0 017.917-3.28c2.991 0 5.803 1.166 7.918 3.28 3.944 3.943 4.43 11.367 1.025 15.906zm-.103-16.827A12.42 12.42 0 0013.5 1c-3.34 0-6.478 1.3-8.84 3.662C.293 9.03-.25 17.25 3.487 22.23L13.5 36.695l10-14.444c3.752-5 3.21-13.22-1.16-17.59z"/><path d="M22.444 21.489l-8.943 12.915-8.957-12.935C1.154 16.95 1.64 9.526 5.584 5.583a11.123 11.123 0 017.917-3.28c2.991 0 5.803 1.166 7.918 3.28 3.944 3.943 4.43 11.367 1.025 15.906zm-.103-16.827A12.42 12.42 0 0013.5 1c-3.34 0-6.478 1.3-8.84 3.662C.293 9.03-.25 17.25 3.487 22.23L13.5 36.695l10-14.444c3.752-5 3.21-13.22-1.16-17.59z" fill="none" stroke="currentColor" stroke-miterlimit="50" stroke-width=".5"/></g></symbol><symbol viewBox="0 0 34 81" id="mouse" xmlns="http://www.w3.org/2000/svg"><path d="M17.084 19.999A14.212 14.212 0 003 34.299v11.4a14.085 14.085 0 1028.168.044V34.299a14.212 14.212 0 00-14.084-14.3zm11.435 25.74a11.437 11.437 0 11-22.87-.044V34.299a11.437 11.437 0 1122.87 0z" fill="#fff"/><path d="M17.084 30.948a1.324 1.324 0 00-1.325 1.325v4.636a1.325 1.325 0 002.649 0v-4.636a1.324 1.324 0 00-1.324-1.325z" fill="#fff"/><g fill="#fff"><path d="M12.772 72.264l4.52 4.52 4.52-4.52a.745.745 0 011.273.527.739.739 0 01-.218.527l-5.048 5.047a.745.745 0 01-1.054 0l-5.047-5.047a.745.745 0 010-1.054.745.745 0 011.054 0z" opacity=".303"><animate attributeName="opacity" from="1" to="0" dur="0.75s" repeatCount="indefinite"/></path><path d="M12.772 67.218l4.52 4.52 4.52-4.52a.745.745 0 011.272.527.739.739 0 01-.218.527l-5.047 5.047a.745.745 0 01-1.054 0l-5.047-5.047a.745.745 0 111.054-1.054z"><animate attributeName="opacity" from="0" to="1" dur="0.75s" repeatCount="indefinite"/></path></g><g fill="#fff"><path d="M12.772 8.319l4.52-4.52 4.52 4.52a.745.745 0 001.272-.527.739.739 0 00-.218-.527l-5.047-5.047a.745.745 0 00-1.054 0l-5.047 5.047a.745.745 0 000 1.054.745.745 0 001.054 0z" opacity=".303"><animate attributeName="opacity" from="1" to="0" dur="0.75s" repeatCount="indefinite"/></path><path d="M12.772 13.366l4.52-4.52 4.52 4.52a.745.745 0 001.272-.527.739.739 0 00-.218-.527l-5.047-5.047a.745.745 0 00-1.054 0l-5.047 5.047a.745.745 0 00.527 1.272.74.74 0 00.527-.218z"><animate attributeName="opacity" from="0" to="1" dur="0.75s" repeatCount="indefinite"/></path></g></symbol><symbol viewBox="0 0 15 15" id="phone-1" xmlns="http://www.w3.org/2000/svg"><path d="M14.41 10.623c.413.398.652.933.673 1.506a2.191 2.191 0 01-.563 1.55l-.014.017a.764.764 0 01-.022.023c-.843.843-2.02 1.288-3.407 1.288h-.032c-1.022-.005-2.135-.265-3.31-.771a.579.579 0 01.46-1.063c1.015.438 2.002.672 2.855.676h.027c1.067 0 1.957-.324 2.578-.938l.004-.005a1.041 1.041 0 00-.052-1.45c-1.554-1.498-2.288-1.39-2.967-.728l-1.08 1.073a.579.579 0 01-.644.118c-.061-.027-1.517-.686-3.158-2.327l-.076-.076c-1.641-1.64-2.3-3.097-2.327-3.158a.579.579 0 01.118-.643l1.072-1.081c.663-.68.771-1.413-.727-2.967a1.04 1.04 0 00-1.45-.052l-.005.004c-.62.626-.944 1.526-.938 2.605.01 2.081 1.191 4.498 3.159 6.466.375.375.804.748 1.273 1.108a.579.579 0 11-.704.919c-.51-.391-.977-.798-1.388-1.208C1.587 9.33.28 6.609.267 4.229.26 2.83.706 1.64 1.555.79a.814.814 0 01.023-.02l.016-.015A2.19 2.19 0 013.145.19c.573.021 1.108.26 1.506.673.78.808 1.23 1.485 1.416 2.13.257.89.023 1.715-.695 2.45a.128.128 0 00-.003.004l-.777.782c.275.489.88 1.44 1.908 2.467l.076.076c1.035 1.035 1.98 1.636 2.467 1.91l.783-.778.004-.003c.735-.718 1.56-.952 2.449-.695.646.187 1.323.636 2.131 1.416zm-5.526-6.31a1.72 1.72 0 01-.514-1.229c0-.465.182-.901.514-1.23l1.51-1.496a.579.579 0 11.814.822L9.9 2.476h2a3.187 3.187 0 013.183 3.18v1.595a.579.579 0 01-1.158.001V5.658a2.029 2.029 0 00-2.026-2.024H9.842l1.366 1.354a.579.579 0 11-.814.822z" fill="currentColor"/></symbol><symbol viewBox="0 0 32 32" id="play" xmlns="http://www.w3.org/2000/svg"><path d="M16.315 2.349c1.204 0 2.417.158 3.612.478a13.779 13.779 0 018.421 6.463 13.779 13.779 0 011.386 10.524 13.778 13.778 0 01-6.462 8.422 13.78 13.78 0 01-10.525 1.386 13.78 13.78 0 01-8.422-6.463A13.779 13.779 0 012.94 12.635a13.78 13.78 0 016.462-8.422 13.788 13.788 0 016.913-1.864zm7.763 27.283a15.38 15.38 0 007.213-9.4 15.38 15.38 0 00-1.546-11.749 15.38 15.38 0 00-9.401-7.213A15.38 15.38 0 008.596 2.817a15.38 15.38 0 00-7.213 9.4 15.38 15.38 0 001.546 11.748 15.38 15.38 0 009.401 7.214 15.392 15.392 0 0011.748-1.547z" fill="#fff"/><path d="M12.969 10.401c.016 0 .029.007.036.011l9.954 5.748c.012.007.038.021.038.064 0 .044-.026.058-.038.065l-9.954 5.747a.067.067 0 01-.075 0c-.037-.021-.037-.05-.037-.064V10.477c0-.014 0-.043.037-.065a.076.076 0 01.039-.01zm-.001 13.26c.29 0 .58-.076.843-.228l9.955-5.747a1.67 1.67 0 00.843-1.462 1.67 1.67 0 00-.843-1.46L13.81 9.015a1.67 1.67 0 00-1.687 0 1.67 1.67 0 00-.844 1.461v11.495c0 .61.316 1.156.844 1.46.264.153.554.23.844.23z" fill="#fff"/><g><path d="M25.217 10.17a.805.805 0 01-.638-.313 10.533 10.533 0 00-6.85-3.955.806.806 0 01.218-1.598 12.158 12.158 0 017.907 4.566.806.806 0 01-.637 1.3z" fill="#fff"/></g></symbol><symbol viewBox="0 0 25 23" id="scales" xmlns="http://www.w3.org/2000/svg"><path d="M24.304 12.84c0 .153-.153.229-.23.229H16.89c-.152 0-.229-.076-.229-.23v-.229c0-.152.153-.229.23-.229h7.184c.152 0 .229.153.229.23zm-3.669 2.98c-1.223 0-2.369-.84-2.675-1.987h5.427c-.459 1.147-1.529 1.987-2.752 1.987zm-.382-9.17h.459l2.369 4.967h-5.197zm.23-1.988c.305 0 .61.306.61.611a.603.603 0 01-.61.612c-.306 0-.612-.306-.612-.612 0-.305.23-.611.611-.611zM12.151.841c0-.077.076-.077.153-.077h.458c.077 0 .153.077.153.153v.84a1.06 1.06 0 00-.688 0V.842zm.382 3.668c-.611 0-1.07-.458-1.07-1.07 0-.611.459-1.07 1.07-1.07 1.07 0 1.452 1.452.535 1.987-.23.153-.382.153-.535.153zm2.751 15.438c.153 0 .23.153.23.23v.458H9.477v-.458c0-.153.153-.23.23-.23zm-8.1-8.33H1.986l2.37-4.968h.458zm1.222.917v.23c0 .152-.153.229-.23.229H.995c-.153 0-.23-.077-.23-.23v-.229c0-.153.153-.23.23-.23h7.184c.153 0 .229.154.229.23zM4.433 15.82c-1.223 0-2.37-.84-2.675-1.987h5.426a2.893 2.893 0 01-2.751 1.987zm.153-11.158c.305 0 .611.306.611.611a.603.603 0 01-.611.612.603.603 0 01-.612-.612c0-.305.306-.61.612-.61zm19.489 6.955h-.23l-2.522-5.274c.306-.229.459-.611.459-.993a1.37 1.37 0 00-1.376-1.376c-.611 0-1.07.382-1.3.84-.305-.076-.764-.152-1.146-.228l-3.592-.994c0-.611-.229-1.146-.688-1.528V.84a.848.848 0 00-.84-.84h-.459a.848.848 0 00-.84.84v1.147c-.46.382-.765.917-.688 1.529l-3.745 1.07c-.382.076-.841.152-1.223.229-.23-.535-.688-.917-1.3-.917A1.37 1.37 0 003.21 5.273c0 .383.153.765.458.994l-2.522 5.274H.994c-.535 0-.994.458-.994.993v.23c0 .534.459.993.994.993.382 1.605 1.757 2.751 3.439 2.751 1.681 0 3.057-1.146 3.439-2.751h.306c.535 0 .993-.459.993-.994v-.229a1.01 1.01 0 00-.993-.993h-.23L5.503 6.267c.229-.23.382-.459.458-.764.459 0 .917-.153 1.376-.23l3.592-.993c.153.23.306.459.535.611v14.292H9.783c-.535 0-.994.459-.994.994v.535a.994.994 0 00-.84.993v.23c0 .535.458.993.993.993h2.751c.23 0 .382-.153.382-.382 0-.23-.152-.382-.382-.382H8.942c-.153 0-.23-.077-.23-.23v-.229c0-.153.077-.229.23-.229h7.184c.153 0 .23.076.23.23v.229c0 .152-.077.229-.23.229h-2.751c-.23 0-.382.153-.382.382 0 .23.152.382.382.382h2.751c.535 0 .994-.458.994-.993v-.23c0-.458-.382-.917-.841-.993v-.535c0-.535-.459-.994-.994-.994h-1.681v-5.655c0-.23-.153-.383-.382-.383-.23 0-.382.153-.382.383v5.655h-.688V5.197c.23.076.458.076.688 0v6.573c0 .23.153.382.382.382.23 0 .382-.153.382-.382V4.89c.23-.152.382-.382.535-.611l3.592.993c.459.077.917.23 1.376.23.076.305.23.535.458.764l-2.522 5.274h-.229c-.535 0-.994.458-.994.993v.23c0 .534.459.993.994.993h.306c.382 1.605 1.757 2.751 3.439 2.751 1.681 0 3.057-1.146 3.44-2.751.534 0 .993-.459.993-.994v-.229c.076-.535-.382-.917-.917-.917z"/></symbol><symbol viewBox="0 0 124 124" id="specialist" xmlns="http://www.w3.org/2000/svg"><path d="M55.817 81.684a11.877 11.877 0 005.933 1.591c2.08 0 4.131-.55 5.932-1.59a2.373 2.373 0 00-2.374-4.11 7.125 7.125 0 01-3.558.954 7.124 7.124 0 01-3.56-.954 2.373 2.373 0 10-2.373 4.11z" fill="currentColor"/><path d="M55.817 81.684a11.877 11.877 0 005.933 1.591c2.08 0 4.131-.55 5.932-1.59a2.373 2.373 0 00-2.374-4.11 7.125 7.125 0 01-3.558.954 7.124 7.124 0 01-3.56-.954 2.373 2.373 0 10-2.373 4.11z" fill="none" stroke="#efefef" stroke-miterlimit="20" stroke-width="2"/><path d="M26.153 92.505v25.248h-9.43a44.895 44.895 0 019.43-25.248zm19.153-6.11c1.03 7.28 6.795 13.055 14.07 14.1v17.258H30.9V87.305a45.637 45.637 0 018.188-6.11 31.006 31.006 0 006.219 5.2zm-9.66-37.934h52.207v11.865c0 7.794-3.554 15.162-9.493 20.092v-5.894c0-3.903-3.174-7.078-7.077-7.078H52.216c-3.903 0-7.078 3.175-7.078 7.078v5.893c-5.938-4.93-9.492-12.298-9.492-20.09V48.46zm-9.493 4.747a4.752 4.752 0 014.747-4.747v9.492a4.751 4.751 0 01-4.747-4.745zM52.257 9.743v23.385c-6.97.566-14.34 1.815-18.984 4.15v-.682c0-12.243 7.67-22.886 18.984-26.853zm14.238-3.997v27.093c-1.67-.069-3.27-.1-4.746-.1-1.476 0-3.075.031-4.746.1V5.746zm23.73 30.85v.682c-4.643-2.335-12.014-3.584-18.984-4.15V9.743c11.314 3.967 18.984 14.61 18.984 26.853zm7.12 16.612a4.751 4.751 0 01-4.746 4.745v-9.492a4.752 4.752 0 014.745 4.747zm-64.072-9.493v-.632c.203-.495 2.064-2.13 8.11-3.562 5.536-1.313 12.77-2.036 20.366-2.036 7.597 0 14.829.723 20.366 2.035 6.046 1.434 7.907 3.068 8.11 3.563v.632zm16.611 40.342v-9.533a2.335 2.335 0 012.332-2.332h19.067a2.335 2.335 0 012.331 2.332v9.533c0 6.543-5.322 11.865-11.864 11.865-6.543 0-11.866-5.322-11.866-11.865zm42.714 3.248v30.448H64.122v-17.257c7.275-1.046 13.04-6.822 14.07-14.101a31.006 31.006 0 006.219-5.2 45.638 45.638 0 018.187 6.11zm4.746 5.2a44.893 44.893 0 019.43 25.248h-9.43zm15.908 25.248h-1.727c-.79-16.612-9.83-31.693-24.152-40.32a30.86 30.86 0 005.13-14.734h.095c5.234 0 9.493-4.257 9.493-9.491 0-4.415-3.03-8.135-7.12-9.192v-7.42a33.31 33.31 0 00-7.284-20.76A33.417 33.417 0 0071.24 4.754v-1.38A2.373 2.373 0 0068.868 1H54.63a2.373 2.373 0 00-2.373 2.373v1.38a33.418 33.418 0 00-16.446 11.082 33.31 33.31 0 00-7.284 20.76v7.42c-4.09 1.057-7.12 4.778-7.12 9.193 0 5.233 4.259 9.49 9.493 9.49h.097a30.86 30.86 0 005.128 14.735c-14.32 8.627-23.362 23.708-24.152 40.32h-1.726a2.373 2.373 0 000 4.746h4.023l.019.001H113.252a2.373 2.373 0 000-4.747z" fill="currentColor"/><path d="M26.153 92.505v25.248h-9.43a44.895 44.895 0 019.43-25.248zm19.153-6.11c1.03 7.28 6.795 13.055 14.07 14.1v17.258H30.9V87.305a45.637 45.637 0 018.188-6.11 31.006 31.006 0 006.219 5.2zm-9.66-37.934h52.207v11.865c0 7.794-3.554 15.162-9.493 20.092v-5.894c0-3.903-3.174-7.078-7.077-7.078H52.216c-3.903 0-7.078 3.175-7.078 7.078v5.893c-5.938-4.93-9.492-12.298-9.492-20.09V48.46zm-9.493 4.747a4.752 4.752 0 014.747-4.747v9.492a4.751 4.751 0 01-4.747-4.745zM52.257 9.743v23.385c-6.97.566-14.34 1.815-18.984 4.15v-.682c0-12.243 7.67-22.886 18.984-26.853zm14.238-3.997v27.093c-1.67-.069-3.27-.1-4.746-.1-1.476 0-3.075.031-4.746.1V5.746zm23.73 30.85v.682c-4.643-2.335-12.014-3.584-18.984-4.15V9.743c11.314 3.967 18.984 14.61 18.984 26.853zm7.12 16.612a4.751 4.751 0 01-4.746 4.745v-9.492a4.752 4.752 0 014.745 4.747zm-64.072-9.493v-.632c.203-.495 2.064-2.13 8.11-3.562 5.536-1.313 12.77-2.036 20.366-2.036 7.597 0 14.829.723 20.366 2.035 6.046 1.434 7.907 3.068 8.11 3.563v.632zm16.611 40.342v-9.533a2.335 2.335 0 012.332-2.332h19.067a2.335 2.335 0 012.331 2.332v9.533c0 6.543-5.322 11.865-11.864 11.865h0c-6.543 0-11.866-5.322-11.866-11.865zm42.714 3.248v30.448H64.122v-17.257c7.275-1.046 13.04-6.822 14.07-14.101a31.006 31.006 0 006.219-5.2 45.638 45.638 0 018.187 6.11zm4.746 5.2a44.893 44.893 0 019.43 25.248h-9.43zm15.908 25.248h-1.727c-.79-16.612-9.83-31.693-24.152-40.32a30.86 30.86 0 005.13-14.734h.095c5.234 0 9.493-4.257 9.493-9.491 0-4.415-3.03-8.135-7.12-9.192v-7.42a33.31 33.31 0 00-7.284-20.76A33.417 33.417 0 0071.24 4.754v-1.38A2.373 2.373 0 0068.868 1H54.63a2.373 2.373 0 00-2.373 2.373v1.38a33.418 33.418 0 00-16.446 11.082 33.31 33.31 0 00-7.284 20.76v7.42c-4.09 1.057-7.12 4.778-7.12 9.193 0 5.233 4.259 9.49 9.493 9.49h.097a30.86 30.86 0 005.128 14.735c-14.32 8.627-23.362 23.708-24.152 40.32h-1.726a2.373 2.373 0 000 4.746h4.023l.019.001H113.252a2.373 2.373 0 000-4.747z" fill="none" stroke="#efefef" stroke-miterlimit="20" stroke-width="2"/><path d="M3.428 117.753h-.055a2.373 2.373 0 000 4.746h.055a2.373 2.373 0 000-4.746z" fill="currentColor"/><path d="M3.428 117.753h-.055a2.373 2.373 0 000 4.746h.055a2.373 2.373 0 000-4.746z" fill="none" stroke="#efefef" stroke-miterlimit="20" stroke-width="2"/><g><path d="M120.126 117.753h-.056a2.373 2.373 0 000 4.746h.056a2.373 2.373 0 000-4.746z" fill="currentColor"/><path d="M120.126 117.753h-.056a2.373 2.373 0 000 4.746h.056a2.373 2.373 0 000-4.746z" fill="none" stroke="#efefef" stroke-miterlimit="20" stroke-width="2"/></g><g><path d="M38.02 113.007h7.126a2.373 2.373 0 000-4.746h-7.127a2.373 2.373 0 000 4.746z" fill="currentColor"/><path d="M38.02 113.007h7.126a2.373 2.373 0 000-4.746h-7.127a2.373 2.373 0 000 4.746z" fill="none" stroke="#efefef" stroke-miterlimit="20" stroke-width="2"/></g><g><path d="M52.048 113.007h.113a2.373 2.373 0 000-4.746h-.113a2.373 2.373 0 000 4.746z" fill="currentColor"/><path d="M52.048 113.007h.113a2.373 2.373 0 000-4.746h-.113a2.373 2.373 0 000 4.746z" fill="none" stroke="#efefef" stroke-miterlimit="20" stroke-width="2"/></g><g><path d="M68.764 108.261h-.112a2.373 2.373 0 000 4.746h.112a2.373 2.373 0 000-4.746z" fill="currentColor"/><path d="M68.764 108.261h-.112a2.373 2.373 0 000 4.746h.112a2.373 2.373 0 000-4.746z" fill="none" stroke="#efefef" stroke-miterlimit="20" stroke-width="2"/></g><g><path d="M45.138 59.227h2.375a2.371 2.371 0 004.741 0h2.376a2.373 2.373 0 000-4.746h-9.492a2.373 2.373 0 000 4.746z" fill="currentColor"/><path d="M45.138 59.227h2.375a2.371 2.371 0 004.741 0h2.376a2.373 2.373 0 000-4.746h-9.492a2.373 2.373 0 000 4.746z" fill="none" stroke="#efefef" stroke-miterlimit="20" stroke-width="2"/></g><g><path d="M68.869 59.227h2.375a2.371 2.371 0 004.741 0h2.376a2.373 2.373 0 000-4.746h-9.492a2.373 2.373 0 000 4.746z" fill="currentColor"/><path d="M68.869 59.227h2.375a2.371 2.371 0 004.741 0h2.376a2.373 2.373 0 000-4.746h-9.492a2.373 2.373 0 000 4.746z" fill="none" stroke="#efefef" stroke-miterlimit="20" stroke-width="2"/></g></symbol><symbol viewBox="0 0 15 14" id="speech-bubble" xmlns="http://www.w3.org/2000/svg"><path d="M1.64 8.535V3.543c0-.97.79-1.76 1.76-1.76h8.2c.97 0 1.76.79 1.76 1.76v4.992c0 .97-.79 1.76-1.76 1.76H5.806a.32.32 0 00-.226.094l-1.593 1.593v-1.366a.32.32 0 00-.32-.32H3.4c-.971 0-1.76-.79-1.76-1.76zM1 3.543v4.992a2.403 2.403 0 002.347 2.4v1.82a.32.32 0 00.547.226l2.045-2.045h5.66A2.403 2.403 0 0014 8.536V3.542c0-1.323-1.077-2.4-2.4-2.4H3.4a2.403 2.403 0 00-2.4 2.4z" fill="#fff"/><path d="M1.64 8.535V3.543c0-.97.79-1.76 1.76-1.76h8.2c.97 0 1.76.79 1.76 1.76v4.992c0 .97-.79 1.76-1.76 1.76H5.806a.32.32 0 00-.226.094l-1.593 1.593v-1.366a.32.32 0 00-.32-.32H3.4c-.971 0-1.76-.79-1.76-1.76zM1 3.543v4.992a2.403 2.403 0 002.347 2.4v1.82a.32.32 0 00.547.226l2.045-2.045h5.66A2.403 2.403 0 0014 8.536V3.542c0-1.323-1.077-2.4-2.4-2.4H3.4a2.403 2.403 0 00-2.4 2.4z" fill="none" stroke="#fff" stroke-miterlimit="50" stroke-width=".2"/><path d="M10.503 5.346a.716.716 0 110 1.432.716.716 0 010-1.432z" fill="#fff"/><path d="M10.503 5.346a.716.716 0 110 1.432.716.716 0 010-1.432z" fill="none" stroke="#fff" stroke-miterlimit="50" stroke-width=".2"/><path d="M7.5 5.346a.716.716 0 110 1.432.716.716 0 010-1.432z" fill="#fff"/><path d="M7.5 5.346a.716.716 0 110 1.432.716.716 0 010-1.432z" fill="none" stroke="#fff" stroke-miterlimit="50" stroke-width=".2"/><g><path d="M4.497 5.346a.716.716 0 110 1.432.716.716 0 010-1.432z" fill="#fff"/><path d="M4.497 5.346a.716.716 0 110 1.432.716.716 0 010-1.432z" fill="none" stroke="#fff" stroke-miterlimit="50" stroke-width=".2"/></g></symbol><symbol viewBox="0 0 154 129" id="truck" xmlns="http://www.w3.org/2000/svg"><path d="M145.781 108.38h-9.69c-1.452-7.125-7.767-12.503-15.313-12.503H95.77v-50.01h31.259a3.13 3.13 0 013.125 3.126v3.125h-21.88a3.126 3.126 0 00-3.125 3.126v28.13c0 1.727 1.4 3.126 3.126 3.126h37.506zm-25.003 12.502c-5.17 0-9.378-4.206-9.378-9.376 0-5.163 4.194-9.364 9.353-9.377h.032c5.164.004 9.363 4.204 9.369 9.367v.02c-.006 5.166-4.21 9.366-9.376 9.366zM95.77 102.13h12.513a15.554 15.554 0 00-2.82 6.251H95.77zm-62.513 18.753c-5.171 0-9.378-4.206-9.378-9.376 0-5.17 4.207-9.378 9.378-9.378 5.17 0 9.376 4.207 9.376 9.378 0 5.17-4.206 9.376-9.376 9.376zM8.25 58.37h12.502a3.126 3.126 0 000-6.252H8.251v-6.25H45.76a3.126 3.126 0 000-6.252H8.25V27.112H89.52v68.766H68.26a3.126 3.126 0 000 6.25H89.52v6.252h-40.95c-1.451-7.125-7.766-12.503-15.312-12.503-7.548 0-13.863 5.378-15.315 12.503h-9.69zM30.132 9.653l4.04 4.04 7.168 7.168H18.924zm46.884 4.958v6.25H50.181l-6.25-6.25zM111.4 80.249v-21.88h6.252v21.88zm34.381-9.378v9.378h-21.878v-21.88h9.377c6.893 0 12.501 5.609 12.501 12.502zm-9.376-18.487v-3.391c0-5.17-4.206-9.377-9.376-9.377H95.77v-15.63c0-1.726-1.4-3.125-3.125-3.125h-9.378v-9.376c0-1.726-1.4-3.125-3.125-3.125H37.679l-5.337-5.337a3.125 3.125 0 00-4.42 0L10.082 20.86H5.127A3.126 3.126 0 002 23.986v87.52c0 1.726 1.4 3.125 3.126 3.125h12.817a15.56 15.56 0 002.82 6.252h-6.26a3.126 3.126 0 000 6.251h18.753l.023-.001c7.537-.011 13.84-5.384 15.29-12.502h56.895a15.557 15.557 0 002.82 6.252h-6.26a3.126 3.126 0 000 6.251h18.753l.023-.001c7.537-.011 13.84-5.384 15.291-12.502h12.816c1.726 0 3.126-1.399 3.126-3.125V70.871c0-9.275-6.77-16.994-15.628-18.487z" fill="currentColor"/><path d="M145.781 108.38h-9.69c-1.452-7.125-7.767-12.503-15.313-12.503H95.77v-50.01h31.259a3.13 3.13 0 013.125 3.126v3.125h-21.88a3.126 3.126 0 00-3.125 3.126v28.13c0 1.727 1.4 3.126 3.126 3.126h37.506zm-25.003 12.502c-5.17 0-9.378-4.206-9.378-9.376 0-5.163 4.194-9.364 9.353-9.377h.032c5.164.004 9.363 4.204 9.369 9.367v.02c-.006 5.166-4.21 9.366-9.376 9.366zM95.77 102.13h12.513a15.554 15.554 0 00-2.82 6.251H95.77zm-62.513 18.753c-5.171 0-9.378-4.206-9.378-9.376 0-5.17 4.207-9.378 9.378-9.378 5.17 0 9.376 4.207 9.376 9.378 0 5.17-4.206 9.376-9.376 9.376zM8.25 58.37h12.502a3.126 3.126 0 000-6.252H8.251v-6.25H45.76a3.126 3.126 0 000-6.252H8.25V27.112H89.52v68.766H68.26a3.126 3.126 0 000 6.25H89.52v6.252h-40.95c-1.451-7.125-7.766-12.503-15.312-12.503-7.548 0-13.863 5.378-15.315 12.503h-9.69zM30.132 9.653l4.04 4.04 7.168 7.168H18.924zm46.884 4.958v6.25H50.181l-6.25-6.25zM111.4 80.249v-21.88h6.252v21.88zm34.381-9.378v9.378h-21.878v-21.88h9.377c6.893 0 12.501 5.609 12.501 12.502zm-9.376-18.487v-3.391c0-5.17-4.206-9.377-9.376-9.377H95.77v-15.63c0-1.726-1.4-3.125-3.125-3.125h-9.378v-9.376c0-1.726-1.4-3.125-3.125-3.125H37.679l-5.337-5.337a3.125 3.125 0 00-4.42 0L10.082 20.86H5.127A3.126 3.126 0 002 23.986v87.52c0 1.726 1.4 3.125 3.126 3.125h12.817a15.56 15.56 0 002.82 6.252h-6.26a3.126 3.126 0 000 6.251h18.753l.023-.001c7.537-.011 13.84-5.384 15.29-12.502h56.895a15.557 15.557 0 002.82 6.252h-6.26a3.126 3.126 0 000 6.251h18.753l.023-.001c7.537-.011 13.84-5.384 15.291-12.502h12.816c1.726 0 3.126-1.399 3.126-3.125V70.871c0-9.275-6.77-16.994-15.628-18.487z" fill="none" stroke="#f5f5f5" stroke-miterlimit="20" stroke-width="3"/><g><path d="M56.034 102.129h1.951a3.126 3.126 0 000-6.251h-1.95a3.126 3.126 0 000 6.25z" fill="currentColor"/><path d="M56.034 102.129h1.951a3.126 3.126 0 000-6.251h-1.95a3.126 3.126 0 000 6.25z" fill="none" stroke="#f5f5f5" stroke-miterlimit="20" stroke-width="3"/></g><g><path d="M56.034 45.867h1.951a3.126 3.126 0 000-6.25h-1.95a3.125 3.125 0 100 6.25z" fill="currentColor"/><path d="M56.034 45.867h1.951a3.126 3.126 0 000-6.25h-1.95a3.125 3.125 0 100 6.25z" fill="none" stroke="#f5f5f5" stroke-miterlimit="20" stroke-width="3"/></g></symbol><symbol viewBox="0 0 18 18" id="whats-app" xmlns="http://www.w3.org/2000/svg"><g fill="currentColor"><path d="M14.105 13.739a7.296 7.296 0 01-5.194 2.15c-1.2 0-2.392-.296-3.447-.858a.778.778 0 00-.621-.048l-3.645 1.276 1.276-3.645a.778.778 0 00-.049-.621 7.363 7.363 0 01-.858-3.448c0-1.962.764-3.806 2.15-5.193A7.297 7.297 0 018.912 1.2c1.962 0 3.807.764 5.194 2.152a7.296 7.296 0 012.151 5.193 7.296 7.296 0 01-2.151 5.194zm.714-11.102A8.3 8.3 0 008.911.19c-1.104 0-2.18.214-3.198.635a8.313 8.313 0 00-2.71 1.812A8.3 8.3 0 00.556 8.545c0 1.331.321 2.654.93 3.832L.082 16.389a.768.768 0 00.183.803.768.768 0 00.802.183L5.08 15.97a8.38 8.38 0 003.832.93 8.3 8.3 0 005.908-2.448 8.3 8.3 0 002.448-5.908 8.3 8.3 0 00-2.448-5.908z"/><path d="M11.529 12.01c-.149.148-.604.2-1.4-.141-.842-.36-1.78-1.035-2.644-1.898-.863-.863-1.537-1.802-1.897-2.643-.342-.796-.29-1.252-.142-1.4l.89-.889 1.097 1.098-.526.526a.771.771 0 00-.143.898 7.129 7.129 0 003.131 3.131c.3.153.66.096.898-.142l.526-.527 1.098 1.098zm.487-2.719a.987.987 0 00-1.394 0l-.42.42a6.12 6.12 0 01-2.457-2.457l.42-.42a.987.987 0 000-1.394L7.032 4.307a.987.987 0 00-1.394 0l-.906.906c-.52.52-.545 1.412-.073 2.513.41.957 1.16 2.008 2.112 2.96.952.952 2.003 1.702 2.96 2.112.523.224.998.336 1.41.336.454 0 .83-.137 1.102-.41l.906-.906a.98.98 0 00.29-.697.979.979 0 00-.29-.697z"/></g></symbol><symbol viewBox="0 0 25 27" id="window" xmlns="http://www.w3.org/2000/svg"><path d="M23.208 25.44c0 .267-.178.446-.446.446H2.232c-.268 0-.447-.179-.447-.446v-.447h21.423v.447zM4.463 17.406H20.53v6.695H4.463zm16.067-.893H4.463V4.463H20.53zM2.678 2.678h19.637V24.1h-.892V4.017c0-.268-.179-.447-.446-.447H4.017c-.268 0-.447.179-.447.447V24.1h-.892zM2.232.893h20.53c.267 0 .446.178.446.446s-.179.446-.446.446H2.232a.447.447 0 01-.447-.446.48.48 0 01.447-.446zM24.547 24.1h-1.339V2.606a1.31 1.31 0 00.893-1.267A1.316 1.316 0 0022.76 0H2.232C1.473 0 .893.58.893 1.339c0 .594.383 1.079.892 1.261v21.5H.446c-.267 0-.446.18-.446.447 0 .268.179.446.446.446h.447v.447c0 .758.58 1.338 1.338 1.338h20.53c.76 0 1.34-.58 1.34-1.338v-.447h.446c.268 0 .446-.178.446-.446s-.178-.446-.446-.446z"/><path d="M5.802 7.587a.405.405 0 00.312-.134l1.34-1.339a.431.431 0 000-.624.431.431 0 00-.626 0L5.49 6.829a.431.431 0 000 .624c.089.09.178.134.312.134zM9.06 8.346c.09.09.179.134.312.134a.405.405 0 00.313-.134l2.231-2.232a.431.431 0 000-.624.431.431 0 00-.624 0L9.06 7.72a.432.432 0 000 .625zM5.802 12.05a.405.405 0 00.312-.134l.893-.892a.432.432 0 000-.625.431.431 0 00-.625 0l-.892.893a.431.431 0 000 .624c.089.09.178.134.312.134zM5.802 9.819a.405.405 0 00.312-.134l.893-.893a.432.432 0 000-.625.431.431 0 00-.625 0l-.892.893a.431.431 0 000 .625c.089.09.178.134.312.134zM7.721 7.453c.09.09.179.134.313.134a.405.405 0 00.312-.134l1.339-1.339a.431.431 0 000-.624.431.431 0 00-.625 0L7.721 6.829a.432.432 0 000 .624zM8.034 8.926c-.268 0-.447.179-.447.446 0 .268.179.447.447.447.267 0 .446-.179.446-.447 0-.267-.179-.446-.446-.446z"/></symbol></svg>