<svg xmlns="http://www.w3.org/2000/svg" width="49.798" height="42" viewBox="0 0 49.798 42">
  <g id="icon6" transform="translate(-152.715 -4472.045)">
    <g id="Group_806" data-name="Group 806" transform="translate(152.715 4472.045)">
      <path id="Path_1414" data-name="Path 1414" d="M113.687,94.756a.454.454,0,0,0,.4.049l4.174-1.013a.479.479,0,0,0,.346-.593.522.522,0,0,0-.593-.346l-2.939.716a9.919,9.919,0,0,1,18.3,3.7.5.5,0,0,0,.543.445.476.476,0,0,0,.445-.519,10.955,10.955,0,0,0-20.2-4.1l-.692-2.914a.518.518,0,0,0-.568-.42.464.464,0,0,0-.42.543c0,.025,0,.049.025.049l.939,4.075A.481.481,0,0,0,113.687,94.756Z" transform="translate(-84.697 -66.136)" fill="#353535"/>
      <path id="Path_1415" data-name="Path 1415" d="M137.17,139.719v-.025l-.939-4.075a.588.588,0,0,0-.222-.321.454.454,0,0,0-.4-.049l-4.174,1.013a.46.46,0,0,0-.37.568.529.529,0,0,0,.617.37h.025l2.939-.716a9.557,9.557,0,0,1-8.892,4.767,10.845,10.845,0,0,1-8.6-7.607.571.571,0,0,0-.692-.4.56.56,0,0,0-.42.667,11.86,11.86,0,0,0,8.3,8.126v.025c.049,0,.1.025.148.025a12.522,12.522,0,0,0,3.384.025,10.462,10.462,0,0,0,7.681-5.162l.692,2.914a.507.507,0,0,0,.593.4A.414.414,0,0,0,137.17,139.719Z" transform="translate(-87.383 -100.331)" fill="#353535"/>
      <path id="Path_1416" data-name="Path 1416" d="M23.68,2.711,10.59.093A3.341,3.341,0,0,0,6.663,2.711l-6.57,32.7a3.341,3.341,0,0,0,2.618,3.927L15.8,41.957a3.341,3.341,0,0,0,3.927-2.618l4.594-22.9L33.486,18.3a2.669,2.669,0,1,0,1.037-5.236L25.36,11.208l.914-4.569A3.324,3.324,0,0,0,23.68,2.711ZM18.42,39.092a2.027,2.027,0,0,1-2.346,1.581L2.983,38.055A2.027,2.027,0,0,1,1.4,35.709l6.57-32.75a2.027,2.027,0,0,1,2.346-1.581L23.409,4a2.027,2.027,0,0,1,1.581,2.346l-.914,4.569-4-.79a5.3,5.3,0,0,0-4-3.532,5.365,5.365,0,0,0-2.1,10.522,5.287,5.287,0,0,0,5.039-1.7l4,.79Zm-3.927-24.6,2.939.593a3.886,3.886,0,0,1-3.186.716,4.006,4.006,0,1,1,4.248-5.952l-2.939-.593a2.642,2.642,0,0,0-3.137,2.075A2.679,2.679,0,0,0,14.493,14.493ZM35.314,15.95a1.333,1.333,0,0,1-1.581,1.037l-18.969-3.8a1.337,1.337,0,0,1,.543-2.618l18.969,3.8A1.333,1.333,0,0,1,35.314,15.95Z" transform="translate(-0.025 -0.025)" fill="#353535"/>
      <path id="Path_1417" data-name="Path 1417" d="M46.682,106.1a1.994,1.994,0,0,0-.667,3.878V112.1a.667.667,0,0,0,1.334,0v-2.124a1.994,1.994,0,0,0,1.309-2.223A1.972,1.972,0,0,0,46.682,106.1Zm0,2.667a.667.667,0,1,1,.667-.667A.664.664,0,0,1,46.682,108.767Z" transform="translate(-33.647 -79.901)" fill="#353535"/>
    </g>
  </g>
</svg>
