<svg id="icon7" xmlns="http://www.w3.org/2000/svg" width="50.726" height="41.529" viewBox="0 0 50.726 41.529">
  <g id="Group_807" data-name="Group 807" transform="translate(26.9 17.703)">
    <path id="Path_1418" data-name="Path 1418" d="M129.131,104.321a.823.823,0,0,0,.564.256.727.727,0,0,0,.564-.256l4.406-4.406,4.406,4.406a.823.823,0,0,0,.564.256.727.727,0,0,0,.564-.256.836.836,0,0,0,0-1.153l-4.355-4.406,4.406-4.406a.836.836,0,0,0,0-1.153.812.812,0,0,0-1.153,0l-4.406,4.406-4.406-4.381a.815.815,0,0,0-1.153,1.153l4.406,4.406-4.406,4.406a.8.8,0,0,0,0,1.127Zm0,0" transform="translate(-122.777 -86.849)" fill="#353535"/>
    <path id="Path_1419" data-name="Path 1419" d="M116.913,92.926A11.913,11.913,0,1,0,105,81.013a11.923,11.923,0,0,0,11.913,11.913Zm0-22.212a10.3,10.3,0,1,1-10.3,10.3,10.3,10.3,0,0,1,10.3-10.3Zm0,0" transform="translate(-105 -69.1)" fill="#353535"/>
  </g>
  <path id="Path_1420" data-name="Path 1420" d="M17.318,0H3.484A3.482,3.482,0,0,0,0,3.459V38.07a3.46,3.46,0,0,0,3.459,3.459H17.293a3.46,3.46,0,0,0,3.459-3.459V13.834h9.684a2.767,2.767,0,1,0,0-5.534H20.777V3.459A3.477,3.477,0,0,0,17.318,0Zm2.075,38.07a2.067,2.067,0,0,1-2.075,2.075H3.484A2.067,2.067,0,0,1,1.409,38.07V3.459a2.029,2.029,0,0,1,2.05-2.075H17.293a2.067,2.067,0,0,1,2.075,2.075V8.3h-4.2A5.468,5.468,0,0,0,10.4,5.534a5.534,5.534,0,1,0,0,11.067,5.468,5.468,0,0,0,4.765-2.767h4.227ZM10.376,13.834h3.1a4.155,4.155,0,0,1-7.25-2.767,4.166,4.166,0,0,1,4.15-4.15,4.121,4.121,0,0,1,3.1,1.383h-3.1a2.767,2.767,0,1,0,0,5.534Zm21.469-2.767a1.378,1.378,0,0,1-1.383,1.383H10.376a1.383,1.383,0,1,1,0-2.767H30.461A1.394,1.394,0,0,1,31.844,11.067Z" fill="#353535"/>
  <path id="Path_1421" data-name="Path 1421" d="M34.456,97.3a2.069,2.069,0,0,0-.692,4.022v2.2a.692.692,0,0,0,1.383,0v-2.2a2.068,2.068,0,0,0,1.358-2.306A2.046,2.046,0,0,0,34.456,97.3Zm0,2.767a.692.692,0,1,1,.692-.692A.689.689,0,0,1,34.456,100.067Z" transform="translate(-24.081 -72.373)" fill="#353535"/>
</svg>
