<svg id="icon2" xmlns="http://www.w3.org/2000/svg" width="43" height="43" viewBox="0 0 43 43">
  <circle id="Ellipse_676" data-name="Ellipse 676" cx="0.901" cy="0.901" r="0.901" transform="translate(36.477 29.31)" fill="none"/>
  <circle id="Ellipse_677" data-name="Ellipse 677" cx="0.901" cy="0.901" r="0.901" transform="translate(12.102 20.556)" fill="none"/>
  <circle id="Ellipse_678" data-name="Ellipse 678" cx="0.901" cy="0.901" r="0.901" transform="translate(30.212 20.556)" fill="none"/>
  <circle id="Ellipse_679" data-name="Ellipse 679" cx="0.901" cy="0.901" r="0.901" transform="translate(30.812 34.117)" fill="none"/>
  <circle id="Ellipse_680" data-name="Ellipse 680" cx="0.901" cy="0.901" r="0.901" transform="translate(4.721 29.31)" fill="none"/>
  <circle id="Ellipse_681" data-name="Ellipse 681" cx="0.901" cy="0.901" r="0.901" transform="translate(10.385 34.117)" fill="none"/>
  <path id="Path_1434" data-name="Path 1434" d="M117.33,392.5a1.33,1.33,0,1,0,1.33,1.33A1.337,1.337,0,0,0,117.33,392.5Zm0,2.232a.9.9,0,1,1,.9-.9A.9.9,0,0,1,117.33,394.732Z" transform="translate(-106.044 -358.812)" fill="#353535"/>
  <path id="Path_1435" data-name="Path 1435" d="M51.33,336.5a1.33,1.33,0,1,0,1.33,1.33A1.337,1.337,0,0,0,51.33,336.5Zm0,2.232a.9.9,0,1,1,.9-.9A.9.9,0,0,1,51.33,338.732Z" transform="translate(-45.709 -307.619)" fill="#353535"/>
  <path id="Path_1436" data-name="Path 1436" d="M137.33,234.5a1.33,1.33,0,1,0,1.33,1.33A1.337,1.337,0,0,0,137.33,234.5Zm0,2.232a.9.9,0,1,1,.9-.9A.9.9,0,0,1,137.33,236.732Z" transform="translate(-124.327 -214.373)" fill="#353535"/>
  <path id="Path_1437" data-name="Path 1437" d="M355.33,392.5a1.33,1.33,0,1,0,1.33,1.33A1.337,1.337,0,0,0,355.33,392.5Zm0,2.232a.9.9,0,1,1,.9-.9A.9.9,0,0,1,355.33,394.732Z" transform="translate(-323.617 -358.812)" fill="#353535"/>
  <path id="Path_1438" data-name="Path 1438" d="M421.33,336.5a1.33,1.33,0,1,0,1.33,1.33A1.337,1.337,0,0,0,421.33,336.5Zm0,2.232a.9.9,0,1,1,.9-.9A.9.9,0,0,1,421.33,338.732Z" transform="translate(-383.952 -307.619)" fill="#353535"/>
  <g id="Group_813" data-name="Group 813">
    <path id="Path_1439" data-name="Path 1439" d="M31.046,48.421,31.089,48H17.759A1.762,1.762,0,0,0,16,49.759V81a1.762,1.762,0,0,0,1.759,1.759H31.08l-.043-.421a4.632,4.632,0,0,1-.026-.481V48.9C31.02,48.747,31.029,48.592,31.046,48.421Zm-5.133,2.111a1.33,1.33,0,1,1-1.33,1.33A1.337,1.337,0,0,1,25.913,50.532Zm-5.665,24.89a1.33,1.33,0,1,1,1.33-1.33A1.337,1.337,0,0,1,20.249,75.422Zm0-17.423a1.33,1.33,0,1,1,1.33-1.33A1.337,1.337,0,0,1,20.249,58Zm5.665,22.23a1.33,1.33,0,1,1,1.33-1.33A1.337,1.337,0,0,1,25.913,80.229ZM27.63,66.668a1.33,1.33,0,1,1,1.33-1.33A1.337,1.337,0,0,1,27.63,66.668Z" transform="translate(-14.627 -43.88)" fill="none"/>
    <circle id="Ellipse_682" data-name="Ellipse 682" cx="0.901" cy="0.901" r="0.901" transform="translate(36.477 11.887)" fill="none"/>
    <circle id="Ellipse_683" data-name="Ellipse 683" cx="0.901" cy="0.901" r="0.901" transform="translate(30.812 7.081)" fill="none"/>
    <path id="Path_1440" data-name="Path 1440" d="M214.223,17.073a3.827,3.827,0,0,0-.618-.5,3.617,3.617,0,0,0-3.914,0,3.831,3.831,0,0,0-.618.5,3.634,3.634,0,0,0-1.03,2,3.244,3.244,0,0,0-.043.575V52.606a4.323,4.323,0,0,0,.043.575,3.579,3.579,0,0,0,1.03,2,3.83,3.83,0,0,0,.618.5,3.617,3.617,0,0,0,3.914,0,3.827,3.827,0,0,0,.618-.5,3.633,3.633,0,0,0,1.03-2,3.242,3.242,0,0,0,.043-.575V19.648a4.313,4.313,0,0,0-.043-.575A3.633,3.633,0,0,0,214.223,17.073Z" transform="translate(-190.148 -14.627)" fill="none"/>
    <path id="Path_1441" data-name="Path 1441" d="M322.621,48H309.3l.043.421a4.61,4.61,0,0,1,.026.481V81.859a4.738,4.738,0,0,1-.026.481l-.043.421h13.321A1.762,1.762,0,0,0,324.38,81V49.759A1.762,1.762,0,0,0,322.621,48ZM312.536,65.337a1.33,1.33,0,1,1,1.33,1.33A1.337,1.337,0,0,1,312.536,65.337Zm1.931,14.891a1.33,1.33,0,1,1,1.33-1.33A1.337,1.337,0,0,1,314.467,80.229Zm0-27.036a1.33,1.33,0,1,1,1.33-1.33A1.337,1.337,0,0,1,314.467,53.193Zm5.665,22.23a1.33,1.33,0,1,1,1.33-1.33A1.337,1.337,0,0,1,320.132,75.422Zm0-17.423a1.33,1.33,0,1,1,1.33-1.33A1.337,1.337,0,0,1,320.132,58Z" transform="translate(-282.753 -43.88)" fill="none"/>
    <circle id="Ellipse_684" data-name="Ellipse 684" cx="0.901" cy="0.901" r="0.901" transform="translate(4.721 11.887)" fill="none"/>
    <circle id="Ellipse_685" data-name="Ellipse 685" cx="0.901" cy="0.901" r="0.901" transform="translate(10.385 7.081)" fill="none"/>
    <path id="Path_1442" data-name="Path 1442" d="M39.867,2.747H25.98l-.137-.232a5.007,5.007,0,0,0-8.686,0l-.137.232H3.133A3.139,3.139,0,0,0,0,5.879V37.121a3.139,3.139,0,0,0,3.133,3.133H17.02l.137.232a5.007,5.007,0,0,0,8.686,0l.137-.232H39.867A3.139,3.139,0,0,0,43,37.121V5.879A3.139,3.139,0,0,0,39.867,2.747ZM16.5,38.451l.051.515H3.133a1.842,1.842,0,0,1-1.845-1.845V5.879A1.848,1.848,0,0,1,3.133,4.034H16.548l-.051.515a4.471,4.471,0,0,0-.026.472V37.979C16.479,38.134,16.488,38.288,16.5,38.451Zm8.729-.472a4.582,4.582,0,0,1-.043.592,3.7,3.7,0,0,1-1.047,2.043,3.947,3.947,0,0,1-.627.506,3.7,3.7,0,0,1-4.017,0,3.948,3.948,0,0,1-.627-.506,3.664,3.664,0,0,1-1.047-2.051,3.439,3.439,0,0,1-.043-.592V5.012a4.581,4.581,0,0,1,.043-.592,3.747,3.747,0,0,1,1.047-2.051,3.947,3.947,0,0,1,.627-.506,3.7,3.7,0,0,1,4.017,0,3.947,3.947,0,0,1,.627.506A3.664,3.664,0,0,1,25.191,4.42a3.439,3.439,0,0,1,.043.592Zm16.479-.858a1.842,1.842,0,0,1-1.845,1.845H26.452l.051-.515a4.471,4.471,0,0,0,.026-.472V5.021a4.6,4.6,0,0,0-.026-.472l-.051-.515H39.867a1.842,1.842,0,0,1,1.845,1.845Z" fill="#353535"/>
    <path id="Path_1443" data-name="Path 1443" d="M117.33,80.161A1.33,1.33,0,1,0,116,78.83,1.337,1.337,0,0,0,117.33,80.161Zm0-2.232a.9.9,0,1,1-.9.9A.9.9,0,0,1,117.33,77.929Z" transform="translate(-106.044 -70.848)" fill="#353535"/>
    <path id="Path_1444" data-name="Path 1444" d="M51.33,133.5a1.33,1.33,0,1,0,1.33,1.33A1.337,1.337,0,0,0,51.33,133.5Zm0,2.232a.9.9,0,1,1,.9-.9A.9.9,0,0,1,51.33,135.732Z" transform="translate(-45.709 -122.042)" fill="#353535"/>
    <path id="Path_1445" data-name="Path 1445" d="M355.33,77.5a1.33,1.33,0,1,0,1.33,1.33A1.337,1.337,0,0,0,355.33,77.5Zm0,2.232a.9.9,0,1,1,.9-.9A.9.9,0,0,1,355.33,79.732Z" transform="translate(-323.617 -70.848)" fill="#353535"/>
    <path id="Path_1446" data-name="Path 1446" d="M421.33,133.5a1.33,1.33,0,1,0,1.33,1.33A1.337,1.337,0,0,0,421.33,133.5Zm0,2.232a.9.9,0,1,1,.9-.9A.9.9,0,0,1,421.33,135.732Z" transform="translate(-383.952 -122.042)" fill="#353535"/>
  </g>
  <path id="Path_1447" data-name="Path 1447" d="M349.661,235.83a1.33,1.33,0,1,0-1.33,1.33A1.337,1.337,0,0,0,349.661,235.83Zm-2.232,0a.9.9,0,1,1,.9.9A.9.9,0,0,1,347.429,235.83Z" transform="translate(-317.218 -214.373)" fill="#353535"/>
</svg>
