<svg id="Group_1187" data-name="Group 1187" xmlns="http://www.w3.org/2000/svg" width="41.074" height="41.107" viewBox="0 0 41.074 41.107">
  <path id="Path_1805" data-name="Path 1805" d="M39.311,37.48h-9.88V33.75a32.081,32.081,0,0,0,11.089-3.8.814.814,0,0,0,.38-.725.8.8,0,0,0-.484-.656A21.313,21.313,0,0,1,33.4,23.421a24.3,24.3,0,0,0,4.042-1.831.749.749,0,0,0,.38-.725.8.8,0,0,0-.484-.656,18.211,18.211,0,0,1-6.6-5.285A16.489,16.489,0,0,0,34.06,13.4a.8.8,0,0,0,.38-.691.745.745,0,0,0-.449-.656,11.732,11.732,0,0,1-1.831-1.105.591.591,0,1,0-.725.933,7.814,7.814,0,0,0,1.313.864,19.273,19.273,0,0,1-3.178,1.278h-.035a14.365,14.365,0,0,1-4.007.587,14.388,14.388,0,0,1-2.936-.311L19.345,12.09a17.432,17.432,0,0,0,3.731-3.869,4.374,4.374,0,0,1,.76.449,3.944,3.944,0,0,0,2.073.829h0a3.718,3.718,0,0,0,2.245-1,19.454,19.454,0,0,0,1.313,1.554.611.611,0,1,0,.9-.829q-.57-.622-1.14-1.347a1.883,1.883,0,0,1,.9-.035.653.653,0,0,0,.656-.311.571.571,0,0,0-.1-.691A26.66,26.66,0,0,1,26.288.449.806.806,0,0,0,25.563,0h0a.858.858,0,0,0-.76.449A26.511,26.511,0,0,1,19.69,7.6a.586.586,0,0,0-.1.76.594.594,0,0,0,.725.242,6.156,6.156,0,0,1,1.382-.415A15.169,15.169,0,0,1,18.343,11.4L16.27,9.983a1.2,1.2,0,0,0-1.347,0L1.105,19.414a2.1,2.1,0,0,0-.9,1.693,2.043,2.043,0,0,0,1.105,1.831,2.157,2.157,0,0,0,2.142-.1l.9-.587V37.515H1.8a1.8,1.8,0,1,0,0,3.593h37.48a1.814,1.814,0,0,0,.035-3.627ZM25.563,1.658a29.036,29.036,0,0,0,3.42,5.147,5.1,5.1,0,0,0-1.52.864,2.831,2.831,0,0,1-1.485.725h0a2.98,2.98,0,0,1-1.416-.622,3.4,3.4,0,0,0-2.522-.795,33.777,33.777,0,0,0,3.523-5.32Zm2.66,35.822H26.772V33.991l1.451-.1ZM18.757,19.656a3.343,3.343,0,0,0-1.831-2.349h2.453L22.9,19.656Zm-5.285.587A2.049,2.049,0,0,1,15.545,18.2a2.072,2.072,0,0,1,2.073,2.038v.035a2.073,2.073,0,0,1-4.145-.035Zm.035-4.145,2.038-1.347L17.583,16.1Zm-1.8,1.209h2.453a3.343,3.343,0,0,0-1.831,2.349H10.916V17.825Zm-.76,4.871V20.865h1.416A3.343,3.343,0,0,0,14.2,23.214H10.674a2.11,2.11,0,0,0,.276-1.036Zm-2.107,2.9.691-.656h11.02a.587.587,0,1,0,0-1.174H16.961A3.343,3.343,0,0,0,18.792,20.9h5.976l.795.518v1.8H23.145a.587.587,0,0,0,0,1.174h2.418v2.349h-6.08a5.4,5.4,0,0,0-3.9-1.658h0a5.342,5.342,0,0,0-3.9,1.658H8.636V25.7a.64.64,0,0,1,.207-.622ZM11.3,30.571a4.246,4.246,0,0,1,4.249-4.249h0a4.246,4.246,0,0,1,4.249,4.249v6.874H11.3Zm14.267,3.316H21V31.539h4.56ZM21,35.1h4.56v2.349H21Zm4.56-4.767H21a5.3,5.3,0,0,0-.656-2.349h5.216Zm-17.1-2.349h2.28a5.429,5.429,0,0,0-.656,2.349H5.527V29.19a2.057,2.057,0,0,0,.933.207,2.1,2.1,0,0,0,2-1.416ZM5.527,35.1h1.52a.587.587,0,1,0,0-1.174H5.527V31.573h4.56v2.349H9.638a.587.587,0,1,0,0,1.174h.449v2.349H5.527Zm21.245-2.314V26.5a1.629,1.629,0,0,1,.518-.207c.795-.1,1.554.656,2.142,1.313.622.691,1.624,1.865,3.005,1.865A3.511,3.511,0,0,0,35.3,27.324c.069-.138.138-.242.207-.38a19.76,19.76,0,0,0,3.662,2.349,30.319,30.319,0,0,1-12.4,3.489Zm7.738-6.6c-.415.829-1.036,2.038-2.038,2.107-.76.035-1.485-.691-2.142-1.451-.795-.9-1.865-1.934-3.213-1.727a1.227,1.227,0,0,0-.345.069V24.8a22.693,22.693,0,0,0,5.389-.967,25.115,25.115,0,0,0,2.349,2.349ZM25.563,15.856a15.586,15.586,0,0,0,3.973-.518A21.511,21.511,0,0,0,36.1,21a24.408,24.408,0,0,1-9.327,2.625V22.246l.9.587a2.075,2.075,0,0,0,2.142.138,2.057,2.057,0,0,0,.207-3.523L24.837,15.89a4.865,4.865,0,0,1,.725-.035Zm-22.8,5.976a.842.842,0,0,1-.9.035.858.858,0,0,1-.449-.76.9.9,0,0,1,.38-.725l13.749-9.4c.553.38,12.885,8.843,13.749,9.431a.858.858,0,1,1-.967,1.416c-1.416-.967-12.332-8.221-12.332-8.221a.784.784,0,0,0-.864,0c-1.071.725-9.327,6.218-10.5,7.012a.034.034,0,0,0-.035.035Zm6.978-3.213v3.558a.944.944,0,0,1-.276.656L8.049,24.215a2.18,2.18,0,0,0-.656,1.52v1.589a.9.9,0,0,1-.9.864.929.929,0,0,1-.933-.933V21.417ZM39.311,39.9H1.8a.587.587,0,1,1,0-1.174h37.48a.582.582,0,0,1,.587.587.554.554,0,0,1-.553.587Zm0,0" fill="#fff"/>
</svg>
