<svg xmlns="http://www.w3.org/2000/svg" width="31.844" height="33" viewBox="0 0 31.844 33">
  <path id="Path_1866" data-name="Path 1866" d="M31.523,16.051,29.4,14.638a.564.564,0,0,0-.449-.064l-3.981,1.348-1.156-.642a.518.518,0,1,0-.514.9l.578.321-3.467,1.99L18.3,17.27V15.73l2.119-1.22,1.091.642a.518.518,0,0,0,.514-.9l-.578-.321L24.2,12.327l3.4.9h.128a.488.488,0,0,0,.514-.385.515.515,0,0,0-.385-.642l-2.375-.642,1.8-1.027,1.733.449h.128a.488.488,0,0,0,.514-.385.515.515,0,0,0-.385-.642l-.706-.193,1.348-.77a.518.518,0,0,0-.514-.9l-1.348.77.193-.706A.529.529,0,1,0,27.222,7.9L26.772,9.63l-1.8,1.027.642-2.375a.529.529,0,0,0-1.027-.257l-.9,3.4L20.93,13.033V8.924l3.146-2.761a.583.583,0,0,0,.193-.449l-.193-2.568a.65.65,0,0,0-.257-.449.7.7,0,0,0-.514,0L20.994,3.852a.433.433,0,0,0-.257.385L19.9,8.282l-3.531,2.054V7.126l2.5-2.5a.584.584,0,0,0,0-.77.584.584,0,0,0-.77,0L16.372,5.586V3.6l1.284-1.284a.584.584,0,0,0,0-.77.584.584,0,0,0-.77,0l-.514.514V.514A.506.506,0,0,0,15.858,0a.552.552,0,0,0-.514.514V2.119l-.514-.514a.584.584,0,0,0-.77,0,.584.584,0,0,0,0,.77L15.344,3.66V5.714L13.611,3.981a.584.584,0,0,0-.77,0c-.257.193-.193.514,0,.77l2.5,2.5v3.21L11.813,8.411,10.979,4.3a.528.528,0,0,0-.257-.385L8.411,2.761a.7.7,0,0,0-.514,0,.54.54,0,0,0-.257.449L7.447,5.778a.583.583,0,0,0,.193.449l3.146,2.761V13.1L8.025,11.492l-.9-3.4A.569.569,0,0,0,6.484,7.7a.569.569,0,0,0-.385.642l.642,2.375-1.8-1.027L4.494,7.961a.569.569,0,0,0-.642-.385.569.569,0,0,0-.385.642l.193.706-1.348-.77a.518.518,0,1,0-.514.9l1.348.77-.706.193a.569.569,0,0,0-.385.642.488.488,0,0,0,.514.385H2.7l1.8-.578,1.8,1.027-2.375.642a.569.569,0,0,0-.385.642.488.488,0,0,0,.514.385h.128l3.4-.9,2.761,1.605L6.805,15.922,2.825,14.574a.564.564,0,0,0-.449.064L.257,16.051A.4.4,0,0,0,0,16.436a.556.556,0,0,0,.257.449L2.375,18.3a.481.481,0,0,0,.321.064h.193L6.87,17.014,10.4,19.068,7.64,20.673l-3.4-.9A.529.529,0,0,0,3.981,20.8l2.375.642-1.862.963-1.733-.449A.529.529,0,1,0,2.5,22.984l.706.193-1.348.77a.516.516,0,0,0-.193.706.485.485,0,0,0,.449.257.386.386,0,0,0,.257-.064l1.348-.77-.193.706a.515.515,0,0,0,.385.642h.128a.488.488,0,0,0,.514-.385l.449-1.733,1.8-1.027-.642,2.375a.515.515,0,0,0,.385.642h.128a.488.488,0,0,0,.514-.385l.9-3.4L10.85,19.9v4.109L7.7,26.837a.583.583,0,0,0-.193.449L7.7,29.854a.65.65,0,0,0,.257.449.386.386,0,0,0,.257.064.485.485,0,0,0,.257-.064l2.311-1.156a.433.433,0,0,0,.257-.385l.835-4.109L15.409,22.6v3.21l-2.568,2.44a.545.545,0,0,0,.77.77l1.733-1.733V29.34L14.06,30.625a.545.545,0,1,0,.77.77l.514-.514v1.605a.506.506,0,0,0,.514.514.552.552,0,0,0,.514-.514V30.817l.514.514a.472.472,0,0,0,.385.128.913.913,0,0,0,.385-.128.584.584,0,0,0,0-.77l-1.284-1.284V27.222l1.733,1.733a.472.472,0,0,0,.385.128.913.913,0,0,0,.385-.128.584.584,0,0,0,0-.77l-2.5-2.5v-3.21L19.9,24.525l.835,4.109a.528.528,0,0,0,.257.385l2.311,1.156c.064.064.128.064.257.064a.386.386,0,0,0,.257-.064.54.54,0,0,0,.257-.449l.193-2.568a.583.583,0,0,0-.193-.449L20.93,23.947V19.839l2.761,1.605.9,3.4a.488.488,0,0,0,.514.385h.128a.569.569,0,0,0,.385-.642l-.642-2.375,1.8,1.027.449,1.733a.488.488,0,0,0,.514.385h.128a.569.569,0,0,0,.385-.642l-.193-.706,1.348.77a.386.386,0,0,0,.257.064.43.43,0,0,0,.449-.257.516.516,0,0,0-.193-.706l-1.348-.77.706-.193a.529.529,0,1,0-.257-1.027l-1.733.449-1.8-1.027,2.375-.642a.529.529,0,0,0-.257-1.027l-3.4.9L21.444,18.94l3.531-2.054,3.981,1.348h.193a.579.579,0,0,0,.321-.064l2.119-1.412a.65.65,0,0,0,.257-.449C31.844,16.115,31.652,16.115,31.523,16.051ZM21.7,4.687l1.348-.642.128,1.477L21.251,7.255ZM8.6,5.521l.128-1.477,1.348.642.514,2.568ZM2.7,17.27l-1.22-.835L2.7,15.6l2.44.835Zm7.319,10.979-1.348.642-.128-1.477,1.926-1.733Zm6.356-16.693L19.839,9.5v3.981L17.72,14.767,16.436,14v-2.44Zm-1.027,0V14l-1.284.77-2.119-1.22V9.566Zm-3.981,6.87L7.9,16.436l3.467-1.99,2.119,1.22v1.541Zm3.981,2.889L11.877,23.37V19.389L14,18.169l1.284.77.064,2.375Zm.514-3.339-1.284-.77V15.665l1.284-.77,1.284.77v1.541Zm.514,3.339v-2.44l1.284-.77,2.119,1.22v3.981Zm6.805,6.1-.128,1.477L21.7,28.249l-.514-2.568ZM29.019,17.27l-2.44-.835,2.44-.835,1.22.835Z" fill="#fff"/>
</svg>
