<svg id="Group_1194" data-name="Group 1194" xmlns="http://www.w3.org/2000/svg" width="29.107" height="33" viewBox="0 0 29.107 33">
  <path id="Path_1833" data-name="Path 1833" d="M81.408,85.81a22.244,22.244,0,0,1-5.343.6,20.24,20.24,0,0,1-6.4-.915c-1.5-.516-2.385-1.192-2.385-1.8a.49.49,0,1,0-.98,0c0,2.4,5.034,3.7,9.765,3.7a23.237,23.237,0,0,0,5.582-.632.489.489,0,0,0-.238-.947Z" transform="translate(-62.03 -77.838)" fill="#fff"/>
  <path id="Path_1834" data-name="Path 1834" d="M145.164,33.5a24.809,24.809,0,0,0-4.608.412.489.489,0,1,0,.187.96,23.907,23.907,0,0,1,4.421-.393,20.24,20.24,0,0,1,6.4.915c1.5.516,2.385,1.192,2.385,1.8a.49.49,0,0,0,.98,0C154.935,34.8,149.9,33.5,145.164,33.5Z" transform="translate(-131.129 -31.341)" fill="#fff"/>
  <path id="Path_1835" data-name="Path 1835" d="M290.2,444.037a.5.5,0,0,0-.677.155,18.806,18.806,0,0,1-2.527,3.319.49.49,0,0,0,0,.7.482.482,0,0,0,.348.142.493.493,0,0,0,.348-.142,20,20,0,0,0,2.662-3.493A.5.5,0,0,0,290.2,444.037Z" transform="translate(-268.365 -415.349)" fill="#fff"/>
  <path id="Path_1836" data-name="Path 1836" d="M41.41,4.492C40.076,1.888,34.984,0,28.726,0,21.423,0,15.7,2.572,15.7,5.859c0,3.429,1.373,6.594,4.331,9.952a.491.491,0,0,0,.367.168.469.469,0,0,0,.322-.122.484.484,0,0,0,.045-.69c-.445-.5-.851-1.005-1.218-1.5a14.878,14.878,0,0,0,2.385.915.489.489,0,0,0,.606-.335.483.483,0,0,0-.335-.606,8.408,8.408,0,0,1-4.1-2.23,12.46,12.46,0,0,1-1.128-2.971c2.082,1.959,6.51,3.287,11.75,3.287,6.465,0,11.692-2.017,12.807-4.757a10.4,10.4,0,0,1,.374,2.307,19.234,19.234,0,0,1-.129,3.326c-1.734,3.693-7.644,4.2-7.722,4.2a.491.491,0,0,0,.039.98h.039a15.314,15.314,0,0,0,3.513-.773A9.721,9.721,0,0,0,41.43,14.76l-.077.387c-.1.483-.219.973-.348,1.476a9.742,9.742,0,0,1-3.422,1.863.49.49,0,0,0,.135.96.491.491,0,0,0,.135-.019,11.534,11.534,0,0,0,2.713-1.244A47.544,47.544,0,0,1,36.66,27.47a.489.489,0,0,0,.187.67.475.475,0,0,0,.238.064.483.483,0,0,0,.425-.251,47.365,47.365,0,0,0,4.8-12.607C43.035,11.9,43.473,7.225,41.41,4.492ZM37.4,9.2a22.775,22.775,0,0,1-8.675,1.534A22.675,22.675,0,0,1,20.051,9.2c-2.14-.922-3.371-2.14-3.371-3.345s1.231-2.43,3.377-3.345A22.775,22.775,0,0,1,28.732.98a22.675,22.675,0,0,1,8.675,1.534c2.146.915,3.377,2.14,3.377,3.345S39.541,8.282,37.4,9.2Z" transform="translate(-14.692)" fill="#fff"/>
  <path id="Path_1837" data-name="Path 1837" d="M159.539,221.877a.49.49,0,1,0-.11-.973,26.1,26.1,0,0,1-6.349-.077.491.491,0,1,0-.135.973,26.543,26.543,0,0,0,3.616.245A28.708,28.708,0,0,0,159.539,221.877Z" transform="translate(-142.695 -206.589)" fill="#fff"/>
  <path id="Path_1838" data-name="Path 1838" d="M111.931,261.283a.491.491,0,0,0-.322-.928,7.349,7.349,0,0,1-3.925-.058,24.568,24.568,0,0,0-3.616-4.183c.29.064.6.122.909.168a14.928,14.928,0,0,0,2.133.161,12.559,12.559,0,0,0,3.216-.4.49.49,0,1,0-.251-.947c-3.178.857-6.987.026-7.9-.754-.039-.039-.084-.077-.122-.116-1.109-1.025-2.256-2.088-3.326-3.19a.492.492,0,0,0-.709.683c1.083,1.121,2.243,2.191,3.364,3.229a33.7,33.7,0,0,1,5.427,5.814,7.053,7.053,0,0,1,1.057,6.316.486.486,0,0,0,.322.612.6.6,0,0,0,.148.026.5.5,0,0,0,.471-.342,7.7,7.7,0,0,0-.471-5.93,9.564,9.564,0,0,0,1.6.142A6.012,6.012,0,0,0,111.931,261.283Z" transform="translate(-91.581 -234.716)" fill="#fff"/>
  <path id="Path_1839" data-name="Path 1839" d="M104.39,332.644a.5.5,0,0,0-.226-.522.506.506,0,0,0-.593.064.49.49,0,1,0,.819.458Z" transform="translate(-96.763 -310.652)" fill="#fff"/>
  <path id="Path_1840" data-name="Path 1840" d="M155.97,362.094a.49.49,0,1,0-.264.9.5.5,0,0,0,.483-.393A.493.493,0,0,0,155.97,362.094Z" transform="translate(-145.223 -338.685)" fill="#fff"/>
  <path id="Path_1841" data-name="Path 1841" d="M429.856,332.579a.489.489,0,1,0-.483.406A.493.493,0,0,0,429.856,332.579Z" transform="translate(-401.249 -310.607)" fill="#fff"/>
  <path id="Path_1842" data-name="Path 1842" d="M403.209,374.333a.5.5,0,0,0-.187.541.5.5,0,0,0,.471.348.489.489,0,1,0-.284-.889Z" transform="translate(-377.032 -350.125)" fill="#fff"/>
  <path id="Path_1843" data-name="Path 1843" d="M436.59,373.256a.488.488,0,0,0-.142.567.489.489,0,0,0,.935-.1A.493.493,0,0,0,436.59,373.256Z" transform="translate(-408.286 -349.099)" fill="#fff"/>
  <path id="Path_1844" data-name="Path 1844" d="M115.8,376.309a.491.491,0,1,0,.831.38A.5.5,0,0,0,115.8,376.309Z" transform="translate(-108.2 -351.933)" fill="#fff"/>
  <path id="Path_1845" data-name="Path 1845" d="M.24,240.879a.488.488,0,0,0,.309.87.49.49,0,1,0-.309-.87Z" transform="translate(-0.056 -225.255)" fill="#fff"/>
  <path id="Path_1846" data-name="Path 1846" d="M12.411,193.78a.487.487,0,0,0-.168.541.489.489,0,1,0,.168-.541Z" transform="translate(-11.435 -181.198)" fill="#fff"/>
  <path id="Path_1847" data-name="Path 1847" d="M186.3,272.719l-.058-.077a.5.5,0,0,0-.7,0,.374.374,0,0,0-.064.077.531.531,0,0,0-.045.084.475.475,0,0,0-.026.09.369.369,0,0,0,0,.193.37.37,0,0,0,.026.09.348.348,0,0,0,.045.084.684.684,0,0,0,.064.077.5.5,0,0,0,.7,0,.176.176,0,0,0,.058-.077.531.531,0,0,0,.045-.084.475.475,0,0,0,.026-.09.369.369,0,0,0,0-.193.37.37,0,0,0-.026-.09A.212.212,0,0,0,186.3,272.719Z" transform="translate(-173.454 -254.937)" fill="#fff"/>
  <path id="Path_1848" data-name="Path 1848" d="M338.684,185.172a.489.489,0,1,0-.483.413A.5.5,0,0,0,338.684,185.172Z" transform="translate(-315.955 -172.706)" fill="#fff"/>
  <path id="Path_1849" data-name="Path 1849" d="M374.349,198.343a.49.49,0,1,0,.8.458A.493.493,0,0,0,374.349,198.343Z" transform="translate(-350.066 -185.453)" fill="#fff"/>
  <path id="Path_1850" data-name="Path 1850" d="M270.1,371.269l-.058-.077a.222.222,0,0,0-.077-.058c-.032-.013-.058-.032-.084-.045a.482.482,0,0,0-.09-.026.494.494,0,0,0-.445.135.345.345,0,0,0-.058.077.531.531,0,0,0-.045.084.47.47,0,0,0-.026.09.368.368,0,0,0,0,.193.367.367,0,0,0,.026.09.347.347,0,0,0,.045.084l.058.077a.5.5,0,0,0,.348.142c.032,0,.064-.006.1-.006a.37.37,0,0,0,.09-.026.347.347,0,0,0,.084-.045l.077-.058a.345.345,0,0,0,.058-.077.529.529,0,0,0,.045-.084.478.478,0,0,0,.026-.09.489.489,0,0,0,.006-.1c0-.032-.006-.064-.006-.1a.371.371,0,0,0-.026-.09A.27.27,0,0,0,270.1,371.269Z" transform="translate(-251.853 -347.138)" fill="#fff"/>
  <path id="Path_1851" data-name="Path 1851" d="M368.83,166.328a.49.49,0,1,0,.3.5A.519.519,0,0,0,368.83,166.328Z" transform="translate(-344.425 -155.571)" fill="#fff"/>
</svg>
