<svg xmlns="http://www.w3.org/2000/svg" width="21.635" height="22.895" viewBox="0 0 21.635 22.895">
  <path id="Path_585" data-name="Path 585" d="M787.153,92.388h.914a.369.369,0,0,0,.369-.369V90.5s0,0,0-.007,0-.016,0-.024v-.013c0-.007,0-.014,0-.021l0-.014,0-.019,0-.014-.008-.022-.01-.023-.007-.015-.008-.014-.009-.015-.009-.013-.011-.015-.009-.011-.014-.015-.009-.009-.016-.015-.009-.008-.018-.013-.01-.007-.019-.011-.03-.016-.009,0h0l0,0-8.755-3.8V85.34h1.006a.369.369,0,0,0,.152-.706l-2.841-1.281a.368.368,0,0,0-.3,0l-2.841,1.281a.369.369,0,0,0,.152.706h1.006v1.026l-4.094,1.775a.369.369,0,1,0,.294.678l3.657-1.585-1.976,1.751a.369.369,0,0,0,.49.553l2.888-2.56H778.2l2.888,2.56a.369.369,0,0,0,.49-.553L779.6,87.234l6.689,2.9H768.95l1.651-.716a.369.369,0,1,0-.294-.678l-3.28,1.422,0,0h0l-.009,0-.03.016-.019.011-.01.007-.018.013-.009.008-.016.015-.009.009-.014.015-.009.011-.011.015-.009.012-.009.015-.008.014-.007.015-.01.022-.008.023,0,.014c0,.006,0,.013,0,.019l0,.014c0,.007,0,.014,0,.021v.013c0,.008,0,.016,0,.024s0,0,0,.007v1.515a.369.369,0,0,0,.369.369h.914v11.1h-.914a.369.369,0,0,0-.369.369v1.99a.369.369,0,0,0,.369.369h3.177a.369.369,0,0,0,0-.739H767.54v-1.251H787.7v1.251H771.826a.369.369,0,0,0,0,.739h16.242a.369.369,0,0,0,.369-.369v-1.99a.369.369,0,0,0-.369-.369h-.914v-11.1ZM777.619,84.1l1.124.507H776.5ZM776.9,86.24h-.38v-.9h2.194v.9H776.9Zm9.514,13.395h-4.944V92.388h4.944Zm-14.542.739v3.114h-1.156v-3.114Zm.739,0h1.156v3.114h-1.156v-3.114Zm1.894-7.985h6.227v11.1h-6.227Zm6.966,7.985h1.156v3.114h-1.156Zm1.894,0h1.156v3.114h-1.156Zm-15.825-9.5H787.7v.777H767.54Zm6.227,1.515v7.247h-4.944V92.388Zm-4.944,7.985h1.156v3.114h-1.156Zm16.437,3.114v-3.114h1.156v3.114Z" transform="translate(-766.801 -83.32)" fill="#fff"/>
</svg>
