<svg xmlns="http://www.w3.org/2000/svg" id="menu-2" width="14.456" height="14.456" viewBox="0 0 14.456 14.456">
    <defs>
        <style>
            .cls-1{fill:#fff}
        </style>
    </defs>
    <g id="Group_13768" transform="translate(7.793)">
        <g id="Group_13767">
            <path id="Path_23119" d="M1.672 0h3.32a1.674 1.674 0 0 1 1.671 1.672v3.32a1.674 1.674 0 0 1-1.671 1.671h-3.32A1.674 1.674 0 0 1 0 4.992v-3.32A1.674 1.674 0 0 1 1.672 0zm-.543 4.992a.543.543 0 0 0 .542.542h3.32a.543.543 0 0 0 .542-.542v-3.32a.543.543 0 0 0-.542-.542H1.672a.543.543 0 0 0-.542.542z" class="cls-1"/>
        </g>
    </g>
    <g id="Group_13770">
        <g id="Group_13769">
            <path id="Path_23120" d="M277.694 0h3.275a1.7 1.7 0 0 1 1.694 1.694v3.275a1.7 1.7 0 0 1-1.694 1.694h-3.275A1.7 1.7 0 0 1 276 4.969V1.694A1.7 1.7 0 0 1 277.694 0zm-.565 4.969a.565.565 0 0 0 .565.565h3.275a.565.565 0 0 0 .565-.565V1.694a.565.565 0 0 0-.565-.565h-3.275a.565.565 0 0 0-.565.565z" class="cls-1" transform="translate(-276)"/>
        </g>
    </g>
    <g id="Group_13772" transform="translate(7.793 7.793)">
        <g id="Group_13771">
            <path id="Path_23121" d="M1.672 276h3.32a1.674 1.674 0 0 1 1.672 1.672v3.32a1.674 1.674 0 0 1-1.672 1.672h-3.32A1.674 1.674 0 0 1 0 280.992v-3.32A1.674 1.674 0 0 1 1.672 276zm-.542 4.992a.543.543 0 0 0 .542.542h3.32a.543.543 0 0 0 .542-.542v-3.32a.543.543 0 0 0-.542-.542h-3.32a.543.543 0 0 0-.542.542z" class="cls-1" transform="translate(0 -276)"/>
        </g>
    </g>
    <g id="Group_13774" transform="translate(0 7.793)">
        <g id="Group_13773">
            <path id="Path_23122" d="M277.694 276h3.275a1.7 1.7 0 0 1 1.694 1.694v3.275a1.7 1.7 0 0 1-1.694 1.694h-3.275a1.7 1.7 0 0 1-1.694-1.694v-3.275a1.7 1.7 0 0 1 1.694-1.694zm-.565 4.969a.565.565 0 0 0 .565.565h3.275a.565.565 0 0 0 .565-.565v-3.275a.565.565 0 0 0-.565-.565h-3.275a.565.565 0 0 0-.565.565z" class="cls-1" transform="translate(-276 -276)"/>
        </g>
    </g>
</svg>
