<svg id="attached" xmlns="http://www.w3.org/2000/svg" width="13.752" height="15" viewBox="0 0 13.752 15">
  <g id="Group_14302" data-name="Group 14302" transform="translate(0)">
    <path id="Path_23209" data-name="Path 23209" d="M30.843,4.391l-.63-.63L25.046,8.928a1.646,1.646,0,0,0,2.328,2.328l6.939-6.939A2.528,2.528,0,1,0,30.737.741L22.3,9.177A3.411,3.411,0,1,0,27.124,14l6.664-6.664-.63-.63-6.664,6.664A2.52,2.52,0,0,1,22.93,9.808l8.437-8.437a1.637,1.637,0,1,1,2.315,2.315l-6.939,6.939a.755.755,0,1,1-1.067-1.067Z" transform="translate(-21.301 0)" fill="#fff"/>
  </g>
</svg>
