<svg xmlns="http://www.w3.org/2000/svg" width="26.985" height="22.605" viewBox="0 0 26.985 22.605">
  <path id="door" d="M26.635,40.188H.351A.355.355,0,0,1,0,39.829V38.295a.355.355,0,0,1,.351-.36H.778V28.059H.351a.36.36,0,0,1,0-.719H7.328v-9.4a.355.355,0,0,1,.351-.36H19.216a.355.355,0,0,1,.351.36v9.4h7.068a.36.36,0,0,1,0,.719H26.22v9.876h.415a.355.355,0,0,1,.351.36v1.534A.355.355,0,0,1,26.635,40.188ZM.7,39.469H26.284v-.815H.7Zm23.624-1.534h1.193V28.059H24.325Zm-2.328,0h1.627V28.059H22Zm-2.328,0H21.3V28.059H19.669Zm-2.328,0h1.524V28.059H17.341Zm-2.328,0H16.64V28.059H15.013Zm-2.328,0h1.626V28.059H12.685Zm-2.328,0h1.627V28.059H10.357Zm-2.328,0H9.656V28.059H8.029Zm-2.328,0H7.328V28.059H5.7Zm-2.328,0H5V28.059H3.373Zm-1.894,0H2.672V28.059H1.479Zm16.575-10.6h.811V18.3H8.029v9.037h.811V19.5a.355.355,0,0,1,.351-.36h3.6a.355.355,0,0,1,.351.36v7.839h.608V19.5a.355.355,0,0,1,.351-.36h3.6a.355.355,0,0,1,.351.36V27.34Zm-3.6,0h2.9V19.86h-2.9Zm-4.911,0h2.9V19.86h-2.9Z" transform="translate(0 -17.583)" fill="#fff"/>
</svg>
