<svg xmlns="http://www.w3.org/2000/svg" width="16.009" height="18" viewBox="0 0 16.009 18">
  <g id="garbage-2" transform="translate(-26.9)">
    <g id="Group_13952" data-name="Group 13952" transform="translate(26.9)">
      <path id="Path_23143" data-name="Path 23143" d="M42.409,2.59H38.664V1.98A1.982,1.982,0,0,0,36.685,0h-3.56a1.982,1.982,0,0,0-1.98,1.98V2.59H27.4a.5.5,0,0,0,0,1h.9V15.328A2.675,2.675,0,0,0,30.974,18h7.86a2.675,2.675,0,0,0,2.672-2.672V3.59h.9a.5.5,0,1,0,0-1ZM32.144,1.98A.982.982,0,0,1,33.125,1h3.56a.982.982,0,0,1,.981.981V2.59H32.144Zm8.363,13.348A1.676,1.676,0,0,1,38.835,17h-7.86A1.676,1.676,0,0,1,29.3,15.328V3.59H40.511V15.328Z" transform="translate(-26.9 0)" fill="#fff"/>
      <path id="Path_23144" data-name="Path 23144" d="M230.2,155.229a.5.5,0,0,0,.5-.5V145.9a.5.5,0,0,0-1,0v8.826A.5.5,0,0,0,230.2,155.229Z" transform="translate(-222.195 -140.019)" fill="#fff"/>
      <path id="Path_23145" data-name="Path 23145" d="M142.1,168.93a.5.5,0,0,0,.5-.5V160.7a.5.5,0,1,0-1,0v7.731A.5.5,0,0,0,142.1,168.93Z" transform="translate(-137.355 -154.272)" fill="#fff"/>
      <path id="Path_23146" data-name="Path 23146" d="M318.3,168.93a.5.5,0,0,0,.5-.5V160.7a.5.5,0,1,0-1,0v7.731A.5.5,0,0,0,318.3,168.93Z" transform="translate(-307.035 -154.272)" fill="#fff"/>
    </g>
  </g>
</svg>
