<svg xmlns="http://www.w3.org/2000/svg" width="18.024" height="18.182" viewBox="0 0 18.024 18.182">
  <g id="pencil-3" transform="translate(0.159 0.301)">
    <g id="Group_13959" data-name="Group 13959" transform="translate(0 0.018)">
      <path id="Path_23151" data-name="Path 23151" d="M17.715,3.308a2.594,2.594,0,0,0-.765-1.85L16.274.781a2.613,2.613,0,0,0-3.692,0l-.983.983a.725.725,0,0,0-.876.113l-.831.831a.725.725,0,0,0-.113.876l-7.8,7.8a.262.262,0,0,0-.061.1h0L.052,16.6a.841.841,0,0,0,.785,1.127.848.848,0,0,0,.29-.052L6.25,15.815h0a.262.262,0,0,0,.1-.061l.526-.526a.264.264,0,0,0-.373-.373l-.34.339-.8-.8,7.6-7.6.8.8L7.369,13.985a.264.264,0,0,0,0,.373h0a.264.264,0,0,0,.373,0l6.406-6.406a.723.723,0,0,0,.876-.113l.831-.831a.725.725,0,0,0,.113-.876l.959-.959A2.655,2.655,0,0,0,17.715,3.308ZM.947,17.184a.312.312,0,0,1-.4-.4l.97-2.664,2.094,2.094ZM5.68,15.461l-1.522.554L1.716,13.573l.554-1.522.88.88h0l1.65,1.65Zm-.694-1.439L3.71,12.745,9.022,7.433a.264.264,0,0,0,0-.373h0a.264.264,0,0,0-.373,0L3.337,12.372l-.8-.8,7.6-7.6.8.8L9.519,6.19a.264.264,0,0,0,0,.373h0a.264.264,0,0,0,.373,0l1.416-1.416,1.277,1.277Zm10.5-7.386-.831.831a.2.2,0,0,1-.278,0L10.266,3.358a.2.2,0,0,1,0-.278L11.1,2.25a.2.2,0,0,1,.278,0l.056.056h0l4,4h0l.056.056A.2.2,0,0,1,15.482,6.635Zm.13-.893L11.99,2.12l.965-.965a2.085,2.085,0,0,1,2.946,0l.676.676a2.083,2.083,0,0,1,0,2.946Z" transform="translate(0 -0.018)" fill="#fff" stroke="#fff" stroke-width="0.3"/>
    </g>
  </g>
</svg>
