<svg width="35" height="39" viewBox="0 0 35 39" fill="none" xmlns="http://www.w3.org/2000/svg">
<path d="M18 1C18 0.723858 17.7761 0.5 17.5 0.5C17.2239 0.5 17 0.723858 17 1H18ZM17 7.16667C17 7.44281 17.2239 7.66667 17.5 7.66667C17.7761 7.66667 18 7.44281 18 7.16667H17ZM17 1V7.16667H18V1H17Z" fill="white"/>
<path d="M18 21.5555C18 21.2794 17.7761 21.0555 17.5 21.0555C17.2239 21.0555 17 21.2794 17 21.5555H18ZM17 27.7222C17 27.9984 17.2239 28.2222 17.5 28.2222C17.7761 28.2222 18 27.9984 18 27.7222H17ZM17 21.5555V27.7222H18V21.5555H17Z" fill="white"/>
<path d="M18 11.2778C18 11.0017 17.7761 10.7778 17.5 10.7778C17.2239 10.7778 17 11.0017 17 11.2778H18ZM17 17.4445C17 17.7206 17.2239 17.9445 17.5 17.9445C17.7761 17.9445 18 17.7206 18 17.4445H17ZM17 11.2778V17.4445H18V11.2778H17Z" fill="white"/>
<path d="M18 31.8334C18 31.5572 17.7761 31.3334 17.5 31.3334C17.2239 31.3334 17 31.5572 17 31.8334H18ZM17 38C17 38.2762 17.2239 38.5 17.5 38.5C17.7761 38.5 18 38.2762 18 38H17ZM17 31.8334V38H18V31.8334H17Z" fill="white"/>
<path d="M1 5.16663V31.375L10.9 28.2916V8.24996L1 5.16663Z" stroke="white" stroke-linecap="round" stroke-linejoin="round"/>
<path d="M34 5.16663V31.375L24.1 28.2916V8.24996L34 5.16663Z" stroke="white" stroke-linecap="round" stroke-linejoin="round"/>
</svg>
