<svg xmlns="http://www.w3.org/2000/svg" width="45.174" height="45.175" viewBox="0 0 45.174 45.175">
    <g opacity="0.5">
        <g>
            <path fill="#fff" d="M44.549 6.406L38.774.631a2.16 2.16 0 0 0-3.051 0L24.849 11.5a.7.7 0 0 0 .986.986L36.709 1.617a.763.763 0 0 1 1.079 0l5.775 5.775a.763.763 0 0 1 0 1.079l-1.417 1.418-3.714-3.714a.7.7 0 0 0-.986.986l3.714 3.714-1.62 1.619-1.632-1.632a.7.7 0 0 0-.986.986l1.632 1.632-1.619 1.62-1.635-1.633a.7.7 0 1 0-.986.986l1.632 1.632L34.33 17.7l-3.714-3.714a.7.7 0 1 0-.986.986l3.714 3.714-1.619 1.624-1.632-1.632a.7.7 0 0 0-.986.986l1.631 1.636-1.37 1.37-6.855-6.855 1.275-1.275a.7.7 0 1 0-.986-.986l-1.275 1.275L8.666 1.964a4.736 4.736 0 0 0-6.7 6.7L14.83 21.523.637 35.716a2.16 2.16 0 0 0 0 3.051l5.775 5.775a2.158 2.158 0 0 0 3.051 0L23.657 30.35l1.011 1.011a.7.7 0 1 0 .986-.986l-1.4-1.4a.682.682 0 0 0-.217-.217L8.934 13.655l1.87-1.87 1.156 1.156a.7.7 0 1 0 .986-.986L11.79 10.8l1.87-1.87 7.374 7.37 7.772 7.772a.627.627 0 0 0 .136.136L39.291 34.56l-1.87 1.87-10.439-10.439-.019-.02-4.163-4.164-.021-.019-7.354-7.353a.7.7 0 0 0-.986.986l22 22-1.87 1.87-6.63-6.631a.7.7 0 0 0-.986.986l7.119 7.119a.7.7 0 0 0 .241.157l8.424 3.271a1.131 1.131 0 0 0 1.463-1.465l-3.274-8.42a.705.705 0 0 0-.157-.24L30.354 23.652 44.549 9.457a2.16 2.16 0 0 0 0-3.051zM22.671 29.364L21.3 30.732 19.671 29.1a.7.7 0 1 0-.986.986l1.632 1.632-1.617 1.619-3.714-3.714a.7.7 0 1 0-.986.987l3.714 3.714-1.619 1.619-1.635-1.633a.7.7 0 0 0-.986.986l1.632 1.632-1.619 1.619-1.632-1.632a.7.7 0 1 0-.986.986l1.631 1.633-1.619 1.619-3.713-3.713a.7.7 0 0 0-.986.986L9.9 42.139l-1.422 1.418a.763.763 0 0 1-1.079 0l-5.775-5.776a.764.764 0 0 1 0-1.079l14.192-14.193zM2.955 7.676A3.341 3.341 0 0 1 7.68 2.95l2.2 2.2-4.721 4.73zm7.356 2.63l-2.363 2.363-1.8-1.8L10.87 6.14l1.8 1.8zm32.373 32.37l-6.87-2.667 4.2-4.2z" transform="translate(-.007) translate(.006) translate(-.006)"/>
        </g>
    </g>
</svg>
