<svg xmlns="http://www.w3.org/2000/svg" width="47" height="47" viewBox="0 0 47 47">
    <defs>
        <style>
            .cls-2{fill:#fff}
        </style>
    </defs>
    <g id="pantone-2" opacity="0.5">
        <path id="Контур_23134" d="M44.65 31.333h-7.589l6.569-3.793a2.348 2.348 0 0 0 .868-3.21l-5.485-9.5a2.349 2.349 0 0 0-1.43-1.094 2.325 2.325 0 0 0-1.785.238l-6.57 3.794L33.02 11.2a2.35 2.35 0 0 0-.857-3.219L22.668 2.5a2.349 2.349 0 0 0-3.207.867l-3.794 6.574V2.35A2.353 2.353 0 0 0 13.317 0H2.35A2.353 2.353 0 0 0 0 2.35v42.3A2.353 2.353 0 0 0 2.35 47h42.3A2.353 2.353 0 0 0 47 44.65V33.683a2.353 2.353 0 0 0-2.35-2.35zm-42.3 0a2.329 2.329 0 0 0-.784.145V23.5h6.272l-4.523 7.833zm31.577 0H23.216l-3.589-6.208 8.139-4.7 6.264 10.849zm-7.413-11.994l-9.274 5.355-6.212-3.587 4.7-8.137 10.849 6.263zM14.1 12.654l-4.813 8.337S9.28 21 9.278 21v.013l-.531.919h-7.18v-9.4H14.1zm-3.855 9.811l5.429 3.135-9.93 5.734h-.62zm7.377 3.819l.01-.006.639-.369 3.136 5.425H8.877zM14.1 32.9h9.4v12.533h-9.4zm10.966 0h9.4v12.533h-9.4zm11.519-17.567a.773.773 0 0 1 .593-.081.8.8 0 0 1 .48.368l5.482 9.492a.78.78 0 0 1-.292 1.07l-7.461 4.308-6.264-10.849zM20.819 4.149a.781.781 0 0 1 1.067-.29l9.491 5.481a.8.8 0 0 1 .371.482.775.775 0 0 1-.083.6l-4.307 7.458-10.848-6.267zM2.35 1.567h10.967a.785.785 0 0 1 .783.784v8.616H1.567V2.35a.785.785 0 0 1 .783-.783zM1.567 44.65V33.683a.785.785 0 0 1 .783-.783h10.184v12.533H2.35a.785.785 0 0 1-.783-.783zm43.867 0a.785.785 0 0 1-.784.784h-8.616V32.9h8.616a.785.785 0 0 1 .784.783zm0 0" class="cls-2"/>
        <path id="Контур_23135" d="M54.373 392.535a3.174 3.174 0 1 0 3.174 3.174 3.174 3.174 0 0 0-3.174-3.174zm0 4.761a1.587 1.587 0 1 1 1.587-1.587 1.587 1.587 0 0 1-1.587 1.591zm0 0" class="cls-2" transform="translate(-46.439 -356.643)"/>
    </g>
</svg>
