<svg width="14" height="14" viewBox="0 0 14 14" fill="none" xmlns="http://www.w3.org/2000/svg">
<path d="M0.868011 12.9781C0.796535 12.9781 0.727987 12.9497 0.677445 12.8992C0.626904 12.8486 0.598511 12.7801 0.598511 12.7086C0.598511 12.6371 0.626904 12.5686 0.677445 12.518C0.727987 12.4675 0.796535 12.4391 0.868011 12.4391H7.61701C7.68849 12.4391 7.75704 12.4675 7.80758 12.518C7.85812 12.5686 7.88651 12.6371 7.88651 12.7086C7.88651 12.7801 7.85812 12.8486 7.80758 12.8992C7.75704 12.9497 7.68849 12.9781 7.61701 12.9781H0.868011Z" fill="white" stroke="white" stroke-width="0.5"/>
<path d="M0.868051 9.07106C0.797503 9.07106 0.729845 9.04304 0.67996 8.99315C0.630076 8.94327 0.602051 8.87561 0.602051 8.80506C0.602051 8.73451 0.630076 8.66686 0.67996 8.61697C0.729845 8.56709 0.797503 8.53906 0.868051 8.53906H12.6751C12.7465 8.53906 12.8151 8.56746 12.8656 8.618C12.9162 8.66854 12.9446 8.73709 12.9446 8.80856C12.9446 8.88004 12.9162 8.94859 12.8656 8.99913C12.8151 9.04967 12.7465 9.07806 12.6751 9.07806H0.868051V9.07106Z" fill="white" stroke="white" stroke-width="0.5"/>
<path d="M0.868011 5.17108C0.796535 5.17108 0.727987 5.14269 0.677445 5.09214C0.626904 5.0416 0.598511 4.97306 0.598511 4.90158C0.598511 4.8301 0.626904 4.76156 0.677445 4.71101C0.727987 4.66047 0.796535 4.63208 0.868011 4.63208H7.61701C7.68849 4.63208 7.75704 4.66047 7.80758 4.71101C7.85812 4.76156 7.88651 4.8301 7.88651 4.90158C7.88651 4.97306 7.85812 5.0416 7.80758 5.09214C7.75704 5.14269 7.68849 5.17108 7.61701 5.17108H0.868011Z" fill="white" stroke="white" stroke-width="0.5"/>
<path d="M0.868011 1.26507C0.796535 1.26507 0.727987 1.23668 0.677445 1.18614C0.626904 1.1356 0.598511 1.06705 0.598511 0.995574C0.598511 0.924098 0.626904 0.85555 0.677445 0.805009C0.727987 0.754468 0.796535 0.726074 0.868011 0.726074H12.675C12.7465 0.726074 12.815 0.754468 12.8656 0.805009C12.9161 0.85555 12.9445 0.924098 12.9445 0.995574C12.9445 1.06705 12.9161 1.1356 12.8656 1.18614C12.815 1.23668 12.7465 1.26507 12.675 1.26507H0.868011Z" fill="white" stroke="white" stroke-width="0.5"/>
</svg>
