<svg id="Group_866" data-name="Group 866" xmlns="http://www.w3.org/2000/svg" width="39.2" height="42" viewBox="0 0 39.2 42">
  <path id="Path_1469" data-name="Path 1469" d="M.7,18.9H2.188L4.909,39.987A.7.7,0,0,0,5.6,40.6H22.076A4.187,4.187,0,0,0,25.2,42h1.094a4.965,4.965,0,0,0,2.214-.525,3.558,3.558,0,0,1,3.176,0A4.992,4.992,0,0,0,33.9,42H35a4.2,4.2,0,0,0,4.2-4.2V33.6A4.2,4.2,0,0,0,35,29.4H33.906a4.965,4.965,0,0,0-2.214.525,3.558,3.558,0,0,1-3.176,0,4.964,4.964,0,0,0-1.26-.42L28.612,18.9H30.1a.7.7,0,0,0,.7-.7V15.4a.7.7,0,0,0-.7-.7H27.3V12.6a.709.709,0,0,0-.2-.5l-3.3-3.29V6.633l1.059-.849L26.67,9.406l1.251-.63L25.97,4.883l.866-.691H29.4a.7.7,0,0,0,.7-.7V.7a.7.7,0,0,0-.7-.7h-7a6.307,6.307,0,0,0-6.3,6.3.7.7,0,0,0,.7.7h1.4V8.811l-1.9,1.9a.694.694,0,0,0-.2.5v3.5H14.7v-5.6a.628.628,0,0,0-.053-.254.355.355,0,0,0-.044-.079.653.653,0,0,0-.061-.1L11.9,5.355V.7a.7.7,0,0,0-.7-.7H7a.7.7,0,0,0-.7.7V5.355L3.657,8.662a.653.653,0,0,0-.061.105c-.018.026-.026.052-.044.079A.628.628,0,0,0,3.5,9.1v5.6H.7a.7.7,0,0,0-.7.7v2.8A.7.7,0,0,0,.7,18.9ZM35,40.6H33.906a3.61,3.61,0,0,1-1.593-.376,4.986,4.986,0,0,0-4.427,0,3.582,3.582,0,0,1-1.593.376H25.2a2.8,2.8,0,0,1-2.8-2.8V36.724A4.2,4.2,0,0,0,25.2,37.8h1.094a4.965,4.965,0,0,0,2.214-.525,3.558,3.558,0,0,1,3.176,0A4.992,4.992,0,0,0,33.9,37.8H35a4.2,4.2,0,0,0,2.8-1.076V37.8A2.8,2.8,0,0,1,35,40.6Zm-2.686-9.424a3.582,3.582,0,0,1,1.593-.376H35a2.8,2.8,0,1,1,0,5.6H33.906a3.61,3.61,0,0,1-1.593-.376,4.986,4.986,0,0,0-4.427,0,3.582,3.582,0,0,1-1.593.376H25.2a2.8,2.8,0,1,1,0-5.6h1.094a3.61,3.61,0,0,1,1.593.376A4.986,4.986,0,0,0,32.314,31.176ZM25.847,29.4H25.2A4.2,4.2,0,0,0,21,33.6v4.2a4.208,4.208,0,0,0,.245,1.4H6.213L3.6,18.9H7V31.5a2.8,2.8,0,0,0,2.8,2.8h7a2.8,2.8,0,0,0,2.8-2.8V25.629l1.829.91a2.231,2.231,0,0,0,2.984-1.015c0-.009.009-.009.009-.018a2.291,2.291,0,0,0,.131-1.732,2.245,2.245,0,0,0-1.137-1.312L19.6,20.571V18.9h7.6ZM16.8,16.1h1.4V21a.713.713,0,0,0,.385.63l4.2,2.1a.863.863,0,0,1,.429.5.924.924,0,0,1-.07.7.817.817,0,0,1-1.094.368h0l-2.844-1.418a.7.7,0,0,0-.936.324.746.746,0,0,0-.07.306v7a1.4,1.4,0,0,1-1.4,1.4v-6.3H15.4v6.3H14v-6.3H12.6v6.3H11.2v-6.3H9.8v6.3a1.4,1.4,0,0,1-1.4-1.4V16.1Zm12.6,1.4H19.6V16.1h9.8ZM28.7,2.8H27.3V1.4h1.4ZM22.4,1.4h3.5V3.168L22.855,5.6h-5.3A4.906,4.906,0,0,1,22.4,1.4Zm0,5.6V8.4H19.6V7Zm-4.9,4.489L19.189,9.8h3.623L25.9,12.889V14.7H17.5ZM7.332,6.3h3.526l1.68,2.1H5.652ZM7.7,1.4h2.8V4.9H7.7ZM4.9,9.8h8.4v4.9H4.9ZM1.4,16.1H7v1.4H1.4Z" fill="#353535"/>
  <rect id="Rectangle_743" data-name="Rectangle 743" width="1.4" height="1.4" transform="translate(34.3 32.2)" fill="#353535"/>
  <rect id="Rectangle_744" data-name="Rectangle 744" width="1.4" height="1.4" transform="translate(27.3 32.2)" fill="#353535"/>
  <rect id="Rectangle_745" data-name="Rectangle 745" width="1.4" height="1.4" transform="translate(24.5 32.9)" fill="#353535"/>
  <rect id="Rectangle_746" data-name="Rectangle 746" width="1.4" height="1.4" transform="translate(31.5 32.9)" fill="#353535"/>
</svg>
