<?xml version="1.0" encoding="utf-8"?>
<!-- Generator: Adobe Illustrator 22.1.0, SVG Export Plug-In . SVG Version: 6.00 Build 0)  -->
<svg version="1.1" id="Слой_1" xmlns="http://www.w3.org/2000/svg" xmlns:xlink="http://www.w3.org/1999/xlink" x="0px" y="0px"
	 width="25px" height="25px" viewBox="0 0 25 25" style="enable-background:new 0 0 25 25;" xml:space="preserve">
<style type="text/css">
	.st0{fill:#12100B;}
	.st1{fill:#005DD7;}
	.st2{fill:#140F0D;}
	.st3{fill:none;}
</style>
<g>
	<path class="st1" d="M20.2,12.6c-0.2,0-0.3,0.1-0.3,0.3v9.4h-5.4v-4c0-0.1-0.1-0.3-0.3-0.3h-3.4c-0.2,0-0.3,0.1-0.3,0.3v4H5.1v-9.1
		C5.1,13.1,5,13,4.8,13c-0.1,0-0.3,0.1-0.3,0.3v9.4c0,0.1,0.1,0.3,0.3,0.3h6c0.1,0,0.3-0.1,0.3-0.3v-4h2.8v4c0,0.1,0.1,0.3,0.3,0.3
		h6c0.1,0,0.3-0.1,0.3-0.3v-9.7C20.4,12.8,20.3,12.6,20.2,12.6z"/>
	<path class="st1" d="M18.2,7.7V4c0-0.2-0.1-0.3-0.3-0.3c-0.2,0-0.3,0.1-0.3,0.3v3.1l-4.9-4.9c-0.1-0.1-0.1-0.1-0.2-0.1h0
		c-0.1,0-0.2,0.1-0.2,0.1L1.5,13c-0.1,0.1-0.1,0.1-0.1,0.2c0,0,0,0.1,0.1,0.2l0,0c0.1,0.1,0.3,0.1,0.4,0L12.5,2.8l0.1,0.1l10.5,10.6
		c0.1,0.1,0.3,0.1,0.4,0c0.1-0.1,0.1-0.3,0-0.4L18.2,7.7z"/>
</g>
</svg>
