<svg xmlns="http://www.w3.org/2000/svg" xmlns:xlink="http://www.w3.org/1999/xlink" viewBox="0 0 30 30">
  <defs>
    <style>
      .cls-1 {
        clip-path: url(#clip-XD_01a);
      }

      .cls-2 {
        fill: #0585fa;
        stroke: #0585fa;
        stroke-width: 0.35px;
      }
    </style>
    <clipPath id="clip-XD_01a">
      <rect width="30" height="30"/>
    </clipPath>
  </defs>
  <g id="XD_01a" data-name="XD 01a" class="cls-1">
    <path id="Path_1285" data-name="Path 1285" class="cls-2" d="M27.285,14.306a.456.456,0,0,0,.511,0c.2-.1.2-.2.2-.409V10.729c0-.1-.1-.307-.2-.307L14.307.1A.456.456,0,0,0,13.8.1L8.073,4.394s-4.5,3.372-4.5,3.474L.1,10.525a1.029,1.029,0,0,0-.1.307V14a.531.531,0,0,0,.2.409.464.464,0,0,0,.511,0L3.577,12.16V27.08H.409a.409.409,0,0,0,0,.818h27.08a.409.409,0,1,0,0-.818H24.321V12.16ZM.92,11.036,14,1.021,27.08,11.036V13.08L14.307,3.27a.456.456,0,0,0-.511,0L.92,13.08ZM16.657,27.08H11.241V19.824h5.416Zm6.847,0H17.679V19.416a.44.44,0,0,0-.409-.409H10.934a.44.44,0,0,0-.409.409V27.08H4.5V11.445L14,4.189l9.5,7.255Zm0,0" transform="translate(1.5 1.475)"/>
  </g>
</svg>
