<svg xmlns="http://www.w3.org/2000/svg" xmlns:xlink="http://www.w3.org/1999/xlink" viewBox="0 0 30 30">
  <defs>
    <style>
      .cls-1 {
        clip-path: url(#clip-XD_02);
      }

      .cls-2 {
        fill: #353535;
      }
    </style>
    <clipPath id="clip-XD_02">
      <rect width="30" height="30"/>
    </clipPath>
  </defs>
  <g id="XD_02" data-name="XD 02" class="cls-1">
    <g id="Group_798" data-name="Group 798" transform="translate(2 1)">
      <path id="Path_466" data-name="Path 466" class="cls-2" d="M.514,24.881H-.459A.511.511,0,0,1-1,24.341.511.511,0,0,1-.459,23.8H.514a.511.511,0,0,1,.541.541C.946,24.665.838,24.881.514,24.881Z" transform="translate(0 2.011)"/>
      <path id="Path_467" data-name="Path 467" class="cls-2" d="M24.259,26.746H1.341A.511.511,0,0,1,.8,26.205V1.341A.511.511,0,0,1,1.341.8H24.259a.511.511,0,0,1,.541.541V26.314A.5.5,0,0,1,24.259,26.746ZM1.881,25.773H23.827V1.881H1.881Z" transform="translate(0.146 0.146)"/>
      <path id="Path_468" data-name="Path 468" class="cls-2" d="M22.168,26.6H3.141a.511.511,0,0,1-.541-.541V3.141A.511.511,0,0,1,3.141,2.6H22.059a.511.511,0,0,1,.541.541V26.059A.5.5,0,0,1,22.168,26.6ZM3.681,25.627H21.627V3.681H3.681Z" transform="translate(0.292 0.292)"/>
      <path id="Path_469" data-name="Path 469" class="cls-2" d="M24.332,26.927H1.414A1.478,1.478,0,0,1-.1,25.414v-.973A.511.511,0,0,1,.441,23.9H25.414a.511.511,0,0,1,.541.541v.973A1.643,1.643,0,0,1,24.332,26.927ZM.873,24.873v.541a.511.511,0,0,0,.541.541H24.332a.511.511,0,0,0,.541-.541v-.541Z" transform="translate(0.073 2.019)"/>
      <path id="Path_470" data-name="Path 470" class="cls-2" d="M24.332,2.027H1.414A1.546,1.546,0,0,1-.1.514,1.478,1.478,0,0,1,1.414-1H24.332A1.478,1.478,0,0,1,25.846.514,1.478,1.478,0,0,1,24.332,2.027ZM1.414-.027A.579.579,0,0,0,.873.514c0,.324.216.432.541.432H24.332a.511.511,0,0,0,.541-.541.511.511,0,0,0-.541-.541H1.414Z" transform="translate(0.073)"/>
      <path id="Path_471" data-name="Path 471" class="cls-2" d="M24.514,24.881h-.973a.541.541,0,1,1,0-1.081h.973a.511.511,0,0,1,.541.541C24.946,24.665,24.73,24.881,24.514,24.881Z" transform="translate(1.946 2.011)"/>
      <path id="Path_472" data-name="Path 472" class="cls-2" d="M12.986,26.6H11.041a.511.511,0,0,1-.541-.541V3.141a.511.511,0,0,1,.541-.541h1.946a.511.511,0,0,1,.541.541V26.059A.511.511,0,0,1,12.986,26.6Zm-1.514-.973h.973V3.681h-.973Z" transform="translate(0.932 0.292)"/>
      <path id="Path_473" data-name="Path 473" class="cls-2" d="M4.536,6.591a.4.4,0,0,1-.324-.108.523.523,0,0,1,0-.757L5.726,4.212c.216-.216.541-.216.649,0,.216.216.216.541,0,.649L4.969,6.374A.562.562,0,0,1,4.536,6.591Z" transform="translate(0.409 0.409)"/>
      <path id="Path_474" data-name="Path 474" class="cls-2" d="M4.536,8.85a.4.4,0,0,1-.324-.108.523.523,0,0,1,0-.757l.973-.973c.216-.216.541-.216.649,0s.216.541,0,.649l-.865.973A.562.562,0,0,1,4.536,8.85Z" transform="translate(0.409 0.636)"/>
      <path id="Path_475" data-name="Path 475" class="cls-2" d="M6.836,6.59a.4.4,0,0,1-.324-.108c-.216-.216-.216-.541,0-.649L8.026,4.319C8.242,4,8.566,4,8.674,4.211c.216.216.216.541,0,.649L7.269,6.373A.562.562,0,0,1,6.836,6.59Z" transform="translate(0.596 0.41)"/>
      <path id="Path_476" data-name="Path 476" class="cls-2" d="M17.936,23.582a.4.4,0,0,1-.324-.108c-.216-.216-.216-.541,0-.649l1.514-1.514c.216-.216.541-.216.649,0,.216.216.216.541,0,.649l-1.514,1.514A.4.4,0,0,1,17.936,23.582Z" transform="translate(1.496 1.796)"/>
      <path id="Path_477" data-name="Path 477" class="cls-2" d="M18.436,20.85a.4.4,0,0,1-.324-.108c-.216-.216-.216-.541,0-.649l.973-1.081c.216-.216.541-.216.649,0,.216.216.216.541,0,.649l-.973.973C18.653,20.742,18.545,20.85,18.436,20.85Z" transform="translate(1.536 1.609)"/>
      <path id="Path_478" data-name="Path 478" class="cls-2" d="M15.636,23.582a.4.4,0,0,1-.324-.108c-.216-.216-.216-.541,0-.649l1.514-1.514c.216-.216.541-.216.649,0,.216.216.216.541,0,.649l-1.514,1.514A.4.4,0,0,1,15.636,23.582Z" transform="translate(1.309 1.796)"/>
      <path id="Path_479" data-name="Path 479" class="cls-2" d="M8.314,16.473A1.478,1.478,0,0,1,6.8,14.959V13.014a1.514,1.514,0,1,1,3.027,0v1.946A1.478,1.478,0,0,1,8.314,16.473Zm0-4a.511.511,0,0,0-.541.541v1.946a.541.541,0,1,0,1.081,0V13.014A.511.511,0,0,0,8.314,12.473Z" transform="translate(0.632 1.014)"/>
      <path id="Path_480" data-name="Path 480" class="cls-2" d="M15.714,16.473A1.478,1.478,0,0,1,14.2,14.959V13.014A1.478,1.478,0,0,1,15.714,11.5a1.392,1.392,0,0,1,1.514,1.405v1.946A1.507,1.507,0,0,1,15.714,16.473Zm0-4a.511.511,0,0,0-.541.541v1.946a.541.541,0,0,0,1.081,0V13.014A.511.511,0,0,0,15.714,12.473Z" transform="translate(1.232 1.014)"/>
    </g>
  </g>
</svg>
