<?xml version="1.0" encoding="utf-8"?>
<!-- Generator: Adobe Illustrator 22.1.0, SVG Export Plug-In . SVG Version: 6.00 Build 0)  -->
<svg version="1.1" id="Слой_1" xmlns="http://www.w3.org/2000/svg" xmlns:xlink="http://www.w3.org/1999/xlink" x="0px" y="0px"
	 width="25px" height="25px" viewBox="0 0 25 25" style="enable-background:new 0 0 25 25;" xml:space="preserve">
<style type="text/css">
	.st0{fill:#12100B;}
	.st1{fill:#005DD7;}
	.st2{fill:#140F0D;}
	.st3{fill:none;}
</style>
<path class="st1" d="M22.4,20.8h-0.7V2.2c0-0.1-0.1-0.2-0.2-0.2H3.5C3.4,2,3.3,2.1,3.3,2.2v18.7H2.6c-0.1,0-0.2,0.1-0.2,0.2v1.8
	c0,0.1,0.1,0.2,0.2,0.2h19.7c0.1,0,0.2-0.1,0.2-0.2V21C22.6,20.9,22.5,20.8,22.4,20.8z M3.7,2.4h17.6v18.5h-1.4V4
	c0-0.1-0.1-0.2-0.2-0.2H5.3C5.2,3.8,5.1,3.9,5.1,4v16.9H3.7V2.4z M12.7,12.3V4.2h6.8v8.2H12.7z M19.5,12.7v8.2h-6.8v-8.2H19.5z
	 M5.5,12.3V4.2h6.8v8.2H5.5z M12.3,12.7v8.2H5.5v-8.2H12.3z M22.2,22.6H2.8v-1.4h19.4V22.6z"/>
</svg>
