<svg xmlns="http://www.w3.org/2000/svg" xmlns:xlink="http://www.w3.org/1999/xlink" viewBox="0 0 30 30">
  <defs>
    <style>
      .cls-1 {
        clip-path: url(#clip-XD_03);
      }

      .cls-2 {
        fill: #353535;
      }
    </style>
    <clipPath id="clip-XD_03">
      <rect width="30" height="30"/>
    </clipPath>
  </defs>
  <g id="XD_03" data-name="XD 03" class="cls-1">
    <g id="Group_799" data-name="Group 799" transform="translate(1 1)">
      <path id="Path_481" data-name="Path 481" class="cls-2" d="M20.927,13.727a.522.522,0,1,0-.739,0,.432.432,0,0,0,.739,0Zm0,0" transform="translate(-1.537 -0.985)"/>
      <path id="Path_482" data-name="Path 482" class="cls-2" d="M.554,27.885H27.331c.185,0,.462-.092.462-.369a.567.567,0,0,0-.092-.554L.923.185A.678.678,0,0,0,.369,0,.574.574,0,0,0,0,.554V27.331a.6.6,0,0,0,.554.554ZM1.108,1.847l4.34,4.34L4.34,7.387a.562.562,0,0,0,0,.739.562.562,0,0,0,.739,0l1.2-1.2L8.587,9.233l-1.2,1.2a.522.522,0,1,0,.739.739l1.2-1.2,2.308,2.308-1.2,1.2a.522.522,0,0,0,.739.739l1.2-1.2,2.308,2.308L13.573,16.62a.522.522,0,1,0,.739.739l1.2-1.2,2.308,2.308-1.2,1.293a.522.522,0,0,0,.739.739l1.2-1.2,2.308,2.308-1.2,1.2a.522.522,0,0,0,.739.739l1.2-1.2,4.34,4.34H1.016V1.847Zm0,0"/>
      <path id="Path_483" data-name="Path 483" class="cls-2" d="M6.023,12.287a.435.435,0,0,0-.554-.092.613.613,0,0,0-.369.462V23.644a.6.6,0,0,0,.554.554H16.642c.185,0,.462-.092.462-.369a.567.567,0,0,0-.092-.554Zm.185,10.8V14.042l9.049,9.049Zm0,0" transform="translate(-0.391 -0.93)"/>
      <path id="Path_484" data-name="Path 484" class="cls-2" d="M18.3,11.935a.522.522,0,0,0,.739-.739L16.727,8.888a.522.522,0,0,0-.739.739Zm0,0" transform="translate(-1.215 -0.671)"/>
      <path id="Path_485" data-name="Path 485" class="cls-2" d="M8.854,5.54,24.182,20.867a1.616,1.616,0,0,0,2.308,0l1.57-1.57a1.616,1.616,0,0,0,0-2.308L12.64,1.662c-.092-.092-.092-.092-.185-.092L7.839,0c-.185,0-.462,0-.554.185C7.1.277,7.1.554,7.1.739L8.67,5.355c0,.092.092.092.185.185ZM27.229,17.728a.562.562,0,0,1,0,.739l-1.57,1.57a.562.562,0,0,1-.739,0l-1.2-1.2,2.308-2.308ZM25.2,15.789,22.889,18.1l-.739-.739,2.308-2.308ZM12.64,3.232l11.08,11.08L21.412,16.62,10.332,5.54Zm-.831-.739L9.593,4.709,8.485,1.385Zm0,0" transform="translate(-0.544)"/>
    </g>
  </g>
</svg>
