<?xml version="1.0" encoding="utf-8"?>
<!-- Generator: Adobe Illustrator 22.1.0, SVG Export Plug-In . SVG Version: 6.00 Build 0)  -->
<svg version="1.1" id="Слой_1" xmlns="http://www.w3.org/2000/svg" xmlns:xlink="http://www.w3.org/1999/xlink" x="0px" y="0px"
	 width="25px" height="25px" viewBox="0 0 25 25" style="enable-background:new 0 0 25 25;" xml:space="preserve">
<style type="text/css">
	.st0{fill:#12100B;}
	.st1{fill:#005DD7;}
	.st2{fill:#140F0D;}
	.st3{fill:none;}
</style>
<g>
	<path d="M23.9,7.8h-5.5V7.2c0-0.1,0-0.1-0.1-0.2l-1.1-0.4c0,0,0,0-0.1,0h-1V6.4c0-0.1-0.1-0.2-0.2-0.2h-1.4V6.1
		c0-0.1-0.1-0.2-0.2-0.2H2.5C1.6,5.9,1,6.6,1,7.4V10c0,0.7,0.5,1.3,1.2,1.5l0.2,0l0,0L1,18.5c0,0.2,0,0.3,0.1,0.4
		c0.1,0.1,0.3,0.2,0.4,0.2h3.1c0.4,0,0.7-0.3,0.7-0.7c0-0.4-0.3-0.7-0.7-0.7l-0.2,0l0-0.1l0.7-3.8h1.6c0.1,0,0.1,0,0.1-0.1
		c0,0,0-0.1,0-0.2c0,0-0.4-0.8-0.1-1.9l0-0.1h2.7c0.7,0,1.3-0.1,1.9-0.4l2.7-1.1v1.1h-0.6c-0.1,0-0.2,0.1-0.2,0.2s0.1,0.2,0.2,0.2
		h0.6v6.1H14c-0.1,0-0.2,0.1-0.2,0.2S13.9,18,14,18h2.3c0.1,0,0.2-0.1,0.2-0.2s-0.1-0.2-0.2-0.2h-0.2v-6.1h0.6
		c0.1,0,0.2-0.1,0.2-0.2s-0.1-0.2-0.2-0.2h-0.6v-2h1c0,0,0,0,0.1,0l1.1-0.4c0.1,0,0.1-0.1,0.1-0.2V8.1h5.5C24,8.1,24,8,24,7.9
		S24,7.8,23.9,7.8z M6.5,13.2l0,0.2H5.3l0.4-2h0.9l0,0.2C6.4,12.4,6.5,12.9,6.5,13.2z M9.3,11.2H5.5c-0.1,0-0.1,0.1-0.2,0.1
		l-1.2,6.4c0,0,0,0.1,0,0.1c0,0,0.1,0.1,0.1,0.1h0.4c0.2,0,0.4,0.2,0.4,0.4c0,0.2-0.2,0.4-0.4,0.4H1.6c-0.1,0-0.1,0-0.2-0.1
		c0,0-0.1-0.1,0-0.2L1.5,18H3c0.1,0,0.2-0.1,0.2-0.2S3.1,17.6,3,17.6H1.5l0-0.1l1.1-6.2c0,0,0-0.1,0-0.1c0,0-0.1-0.1-0.1-0.1
		c-0.7,0-1.2-0.5-1.2-1.2V7.4c0-0.7,0.5-1.2,1.2-1.2h6.8V11.2z M14.2,9.7L14.2,9.7l-2.8,1.1c-0.5,0.2-1,0.3-1.6,0.3l-0.2,0v-5h4.6
		V9.7z M15.8,17.6h-1.2v-6.1h1.2V17.6z M15.8,11.2h-1.2V6.6h1.2V11.2z M18,8.6l-1,0.3h-1V7l1,0l1,0.3V8.6z"/>
	<path d="M8.3,9.6c0.1,0,0.2-0.1,0.2-0.2V7.9c0-0.1-0.1-0.2-0.2-0.2S8.2,7.9,8.2,7.9v1.5C8.2,9.6,8.2,9.6,8.3,9.6z"/>
	<path d="M7.2,9.6c0.1,0,0.2-0.1,0.2-0.2V7.9c0-0.1-0.1-0.2-0.2-0.2S7,7.9,7,7.9v1.5C7,9.6,7.1,9.6,7.2,9.6z"/>
	<path d="M6.1,9.6c0.1,0,0.2-0.1,0.2-0.2V7.9c0-0.1-0.1-0.2-0.2-0.2S5.9,7.9,5.9,7.9v1.5C5.9,9.6,6,9.6,6.1,9.6z"/>
</g>
</svg>
