<svg xmlns="http://www.w3.org/2000/svg" xmlns:xlink="http://www.w3.org/1999/xlink" viewBox="0 0 30 30">
  <defs>
    <style>
      .cls-1 {
        clip-path: url(#clip-XD_04a);
      }

      .cls-2 {
        fill: #0585fa;
        stroke: #0585fa;
        stroke-width: 0.3px;
      }
    </style>
    <clipPath id="clip-XD_04a">
      <rect width="30" height="30"/>
    </clipPath>
  </defs>
  <g id="XD_04a" data-name="XD 04a" class="cls-1">
    <g id="Group_804" data-name="Group 804" transform="translate(1.005 3.052)">
      <path id="Path_1309" data-name="Path 1309" class="cls-2" d="M74.8,55.2a2.6,2.6,0,1,0,2.6,2.6A2.61,2.61,0,0,0,74.8,55.2Zm0,4.445A1.846,1.846,0,1,1,76.645,57.8,1.846,1.846,0,0,1,74.8,59.645Z" transform="translate(-60.617 -46.385)"/>
      <path id="Path_1310" data-name="Path 1310" class="cls-2" d="M25.785,2.139,6.8-.028A2.3,2.3,0,0,0,4.987.486a2.341,2.341,0,0,0-.9,1.6L3.7,5.236H2.339A2.463,2.463,0,0,0,0,7.8V22.023a2.3,2.3,0,0,0,.642,1.669,2.332,2.332,0,0,0,1.621.722H21.452a2.531,2.531,0,0,0,2.6-2.391V21.2l.257-.048a3.12,3.12,0,0,0,1.188-.5,2.559,2.559,0,0,0,.883-1.653l1.6-14.122A2.521,2.521,0,0,0,25.785,2.139ZM23.3,22.023a1.786,1.786,0,0,1-1.846,1.637H2.307a1.531,1.531,0,0,1-1.075-.433,1.576,1.576,0,0,1-.5-1.091V19.278l5.521-4.06a1.975,1.975,0,0,1,2.568.128l3.787,3.338a2.979,2.979,0,0,0,1.846.69,2.854,2.854,0,0,0,1.492-.4l7.35-4.253Zm0-8.2-7.735,4.51a2.1,2.1,0,0,1-2.423-.209L9.3,14.753a2.754,2.754,0,0,0-3.45-.128L.75,18.331V7.8a1.725,1.725,0,0,1,1.6-1.813h19.1a1.927,1.927,0,0,1,1.846,1.8v6.034Zm3.932-9.067v.016L25.593,18.877a1.468,1.468,0,0,1-.562,1.155,2.273,2.273,0,0,1-.369.225.351.351,0,0,0-.08.048.276.276,0,0,0,.112-.225h-.642V7.8a2.669,2.669,0,0,0-2.6-2.568H4.473l.353-3.1a1.986,1.986,0,0,1,.626-1.091l.032-.016A1.95,1.95,0,0,1,6.736.695L25.7,2.893A1.71,1.71,0,0,1,27.229,4.755Z"/>
    </g>
  </g>
</svg>
