<?xml version="1.0" encoding="utf-8"?>
<!-- Generator: Adobe Illustrator 22.1.0, SVG Export Plug-In . SVG Version: 6.00 Build 0)  -->
<svg version="1.1" id="Слой_1" xmlns="http://www.w3.org/2000/svg" xmlns:xlink="http://www.w3.org/1999/xlink" x="0px" y="0px"
	 width="25px" height="25px" viewBox="0 0 25 25" style="enable-background:new 0 0 25 25;" xml:space="preserve">
<style type="text/css">
	.st0{fill:#12100B;}
	.st1{fill:#005DD7;}
	.st2{fill:#140F0D;}
	.st3{fill:none;}
</style>
<path class="st1" d="M23.6,18.8c0.1,0,0.1-0.1,0.1-0.1v-1.5c0-1.4-1.2-1.9-1.3-1.9l-3.1-1.2v-0.9l0.1-0.1c0.4-0.4,0.7-0.8,0.8-1.4
	l0-0.2l0.2,0c0.2,0,0.4-0.1,0.5-0.2c0.2-0.2,0.3-0.4,0.3-0.7c0-0.2-0.1-0.4-0.2-0.6l0-0.1V9c0-1.7-1.3-3-3-3c-0.7,0-1.4,0.3-1.9,0.7
	L15.7,7l0-0.4c0-0.2-0.1-0.4-0.2-0.6l0-0.1V5c0-1.7-1.3-3-3-3c-1.7,0-3,1.3-3,3v1l0,0.1C9.3,6.2,9.2,6.4,9.2,6.6l0,0.4L8.9,6.8
	C8.5,6.5,8.1,6.3,7.7,6.1c-0.1,0-0.1,0-0.1,0.1c0,0.1,0,0.1,0.1,0.2c1.2,0.3,2,1.4,2,2.7v0.8L9.2,9.7l0-0.2c0,0,0-0.1,0-0.1
	C9.1,9.3,9,9.2,8.7,9L8.4,8.6C8.3,8.5,8.1,8.5,8,8.6c-0.9,0.6-1.9,0.9-3,0.8l0,0c-0.3,0-0.3,0.2-0.3,0.2l0,0.1l-0.1,0L4.2,9.8l0-0.8
	c0-1.2,0.8-2.3,2-2.6c0.1,0,0.1-0.1,0.1-0.2c0-0.1-0.1-0.1-0.1-0.1l0,0C5.5,6.3,4.9,6.7,4.5,7.2C4.1,7.8,3.9,8.4,3.9,9v1l0,0.1
	c-0.1,0.2-0.2,0.4-0.2,0.6c0,0.5,0.4,0.9,0.8,0.9l0.2,0l0,0.2c0.1,0.6,0.4,1.1,0.9,1.4l0.1,0.1v0.8l-3.1,1.2c-0.1,0-1.3,0.5-1.3,1.9
	v5.3c0,0.3,0.2,0.5,0.5,0.5h10.3c0.1,0,0.2,0,0.3-0.1l0.1-0.1l0.1,0.1c0.1,0.1,0.2,0.1,0.3,0.1h10.3c0.3,0,0.5-0.2,0.5-0.5v-2.2
	c0-0.1-0.1-0.1-0.1-0.1c-0.1,0-0.1,0.1-0.1,0.1v2.2c0,0.1-0.1,0.3-0.3,0.3h-1.5v-5.1c0-0.1-0.1-0.1-0.1-0.1c-0.1,0-0.1,0.1-0.1,0.1
	v5.1h-3.1l1-1.1c0.1-0.1,0.1-0.2,0.1-0.3l-0.8-4.5l0.3-0.5l0.2,0.2c0.1,0.1,0.2,0.1,0.3,0c0.1,0,0.2-0.1,0.2-0.2l0.8-1.7l1.9,0.7
	c0.1,0,1.1,0.5,1.1,1.7v1.5C23.5,18.8,23.5,18.8,23.6,18.8z M7,13.4c-1.1,0-2-0.9-2-2V9.6l0.2,0c0.1,0,0.1,0,0.2,0
	c1,0,1.9-0.3,2.8-0.8l0.1-0.1l0.4,0.4c0.1,0.2,0.2,0.3,0.3,0.3l0.1,0.1v1.9C8.9,12.5,8,13.4,7,13.4z M17.7,17h0.7l0.8,4.5L18,22.7
	l-1.1-1.2L17.7,17z M14.5,17.5c-0.1,0-0.1,0.1-0.1,0.1v5.1h-1.5c-0.1,0-0.3-0.1-0.3-0.3v-5.3c0-0.5,0.1-0.9,0.4-1.2
	c0.2-0.2,0.4-0.4,0.6-0.5l1.9-0.7l0.8,1.7c0,0.1,0.1,0.1,0.2,0.2c0.1,0,0.2,0,0.3,0l0.2-0.2l0.3,0.5l-0.8,4.5c0,0.1,0,0.2,0.1,0.3
	l1,1.1h-3.1v-5.1C14.6,17.6,14.6,17.5,14.5,17.5z M12.1,22.7h-1.5v-5.1c0-0.1-0.1-0.1-0.1-0.1c-0.1,0-0.1,0.1-0.1,0.1v5.1H7.2l1-1.1
	c0.1-0.1,0.1-0.2,0.1-0.3l-0.8-4.5l0.3-0.5L8,16.6c0.1,0,0.1,0.1,0.2,0.1c0.1,0,0.2-0.1,0.3-0.2l0.8-1.7l1.9,0.7
	c0.5,0.2,1.1,0.9,1.1,1.7v5.3C12.4,22.6,12.3,22.7,12.1,22.7z M6.6,17h0.7l0.8,4.5l-1.1,1.2l-1.1-1.2L6.6,17z M3.4,17.5
	c-0.1,0-0.1,0.1-0.1,0.1v5.1H1.8c-0.1,0-0.3-0.1-0.3-0.3v-5.3c0-1.2,1-1.7,1.1-1.7l1.9-0.7l0.8,1.7c0,0.1,0.1,0.1,0.2,0.2
	c0.1,0,0.2,0,0.3,0l0.2-0.2l0.3,0.5l-0.8,4.5c0,0.1,0,0.2,0.1,0.3l1,1.1H3.5v-5.1C3.5,17.6,3.5,17.5,3.4,17.5z M9.2,11.4V9.9L9.5,10
	c0.3,0.1,0.4,0.3,0.5,0.6c0,0.3-0.2,0.6-0.5,0.7L9.2,11.4z M9.9,6l0.3-0.1v1.5L9.9,7.3C9.6,7.2,9.5,6.9,9.5,6.6
	C9.5,6.4,9.6,6.1,9.9,6z M12.5,2.3c1.5,0,2.7,1.2,2.7,2.7v0.8l-0.5-0.1l0-0.2c0,0,0-0.1-0.1-0.1c-0.1-0.1-0.2-0.2-0.4-0.4L14,4.6
	c-0.1-0.1-0.3-0.1-0.4-0.1c-0.8,0.5-1.8,0.8-2.7,0.8c-0.1,0-0.2,0-0.3,0c-0.2,0-0.3,0.1-0.3,0.2l0,0.1L9.7,5.8l0-0.8
	C9.7,3.5,11,2.3,12.5,2.3z M20.8,9.8l-0.5-0.1l0-0.2c0,0,0-0.1,0-0.1c-0.1-0.1-0.2-0.2-0.4-0.4l-0.3-0.3c-0.1-0.1-0.3-0.1-0.4,0
	c-0.8,0.5-1.8,0.8-2.7,0.8c-0.1,0-0.2,0-0.3,0l0,0c-0.2,0-0.3,0.1-0.3,0.2l0,0.1l-0.1,0c0,0,0,0,0,0l-0.3,0.1l0-0.8
	c0-1.5,1.2-2.7,2.7-2.7c1.5,0,2.7,1.2,2.7,2.7V9.8z M18.8,13.5l0.3-0.1v0.7L18,15.5L17,14.1v-0.7l0.3,0.1
	C17.7,13.7,18.4,13.7,18.8,13.5z M7.6,16.3l-0.3,0.4H6.6l-0.3-0.4l0.7-0.5L7.6,16.3z M8,13.4v0.7l-1.1,1.3l-1.1-1.3v-0.7l0.3,0.1
	c0.5,0.2,1.1,0.2,1.6,0L8,13.4z M7.1,15.6l1.1-1.3l0.9,0.4l-0.9,1.7L7.1,15.6z M15.9,14.7l0.9-0.4l1.1,1.3l-1.1,0.8L15.9,14.7z
	 M15.8,11.6l0,0.2c0.1,0.6,0.4,1.1,0.9,1.4l0.1,0.1v0.8l-3.2,1.2l-0.4-2.5l0.3-0.5l0.2,0.1c0.1,0.1,0.2,0.1,0.3,0
	c0.1,0,0.2-0.1,0.2-0.2l0.7-1.4l0.2,0.3c0.2,0.2,0.4,0.3,0.6,0.3L15.8,11.6z M12.7,11.6l1.1-1.3l0.9,0.4l-0.9,1.7L12.7,11.6z
	 M13.6,10.1l-1.1,1.3l-1.1-1.3V9.4l0.3,0.1c0.5,0.2,1.1,0.2,1.6,0l0.3-0.1V10.1z M12.5,11.8l0.7,0.5l-0.3,0.4h-0.8l-0.3-0.4
	L12.5,11.8z M11.2,12.4l-0.9-1.7l0.9-0.4l1.1,1.3L11.2,12.4z M10.5,5.6l0.2,0c1,0,2.1-0.3,2.9-0.8l0.1-0.1l0.4,0.4
	c0.2,0.2,0.2,0.3,0.3,0.3l0.1,0.1v1.9c0,1.1-0.9,2-2,2c-1.3,0-2-1-2-2V5.6z M15.5,10l0.3-0.1v1.5l-0.3-0.1C15.2,11.2,15,11,15,10.7
	C15,10.4,15.2,10.2,15.5,10z M16,9.6l0.2,0c1,0,2.1-0.3,2.9-0.8l0.1-0.1l0.4,0.4c0.1,0.2,0.2,0.3,0.3,0.3L20,9.6v1.9
	c0,0.5-0.2,1-0.6,1.4c-0.4,0.4-0.9,0.6-1.4,0.6c-1.3,0-2-1-2-2V9.6z M15.3,7.8C15.1,8.2,15,8.6,15,9v1l0,0.1c0,0.1-0.1,0.1-0.1,0.2
	l-0.1,0.2l-1-0.4V9.2l0.1-0.1c0.4-0.4,0.7-0.8,0.8-1.4l0-0.2l0.2,0c0,0,0.1,0,0.1,0l0.4-0.1L15.3,7.8z M10.2,7.7
	c0.1,0.6,0.4,1.1,0.9,1.4l0.1,0.1v0.8l-1,0.4l-0.1-0.2c0-0.1-0.1-0.1-0.1-0.2l0-0.1V9c0-0.4-0.1-0.8-0.3-1.2L9.5,7.4l0.4,0.1
	c0,0,0.1,0,0.1,0l0.2,0L10.2,7.7z M9.2,11.6l0.2,0c0.3,0,0.5-0.2,0.7-0.4l0.2-0.3l0.7,1.5c0,0.1,0.1,0.1,0.2,0.2c0.1,0,0.2,0,0.3,0
	l0.2-0.1l0.3,0.5l-0.4,2.5l-3.2-1.2v-0.9l0.1-0.1c0.4-0.4,0.7-0.8,0.8-1.4L9.2,11.6z M5.6,16.4l-0.9-1.7l0.9-0.4l1.1,1.3L5.6,16.4z
	 M11.7,15.5l0.4-2.5h0.7l0.4,2.5l-0.1,0.1c-0.2,0.2-0.4,0.3-0.5,0.6l-0.2,0.3l-0.2-0.3C12.2,15.9,12,15.7,11.7,15.5L11.7,15.5z
	 M18.4,16.7h-0.8l-0.3-0.4l0.7-0.5l0.7,0.5L18.4,16.7z M15.2,7.2c-0.1,0.1-0.1,0.1-0.2,0.1l-0.3,0.1V5.9L15,6
	c0.3,0.1,0.5,0.4,0.5,0.7C15.5,6.8,15.4,7,15.2,7.2z M20.2,14.7l-0.9,1.7l-0.2-0.1c0,0-0.7-0.5-0.7-0.5l-0.2-0.1l1.1-1.3L20.2,14.7z
	 M20.6,10c0.3,0.1,0.5,0.4,0.5,0.7c0,0.3-0.2,0.6-0.5,0.7l-0.3,0.1V9.9L20.6,10z M4.7,9.9v1.5l-0.3-0.1c-0.3-0.1-0.5-0.4-0.5-0.7
	c0-0.3,0.2-0.5,0.4-0.6L4.7,9.9z"/>
</svg>
