<svg xmlns="http://www.w3.org/2000/svg" xmlns:xlink="http://www.w3.org/1999/xlink" viewBox="0 0 30 30">
  <defs>
    <style>
      .cls-1 {
        clip-path: url(#clip-XD_05a);
      }

      .cls-2 {
        fill: #0585fa;
      }
    </style>
    <clipPath id="clip-XD_05a">
      <rect width="30" height="30"/>
    </clipPath>
  </defs>
  <g id="XD_05a" data-name="XD 05a" class="cls-1">
    <path id="Path_1287" data-name="Path 1287" class="cls-2" d="M27.573,21.081a.408.408,0,0,0,.407-.407V18.9a2.848,2.848,0,0,0-1.689-2.6h0l-3.622-1.4v-.753a2.986,2.986,0,0,0,1.078-1.852,1.394,1.394,0,0,0,1.241-1.4,1.422,1.422,0,0,0-.326-.9v-1.1a3.943,3.943,0,0,0-3.927-3.927,3.876,3.876,0,0,0-2.544.936,1.355,1.355,0,0,0-.326-.855v-1.1a3.917,3.917,0,1,0-7.834-.02v1.14a1.417,1.417,0,0,0-.326.814A4.177,4.177,0,0,0,8.16,5.067a.412.412,0,1,0-.224.794,3.115,3.115,0,0,1,2.32,3.012v.61a.462.462,0,0,1-.081-.02.486.486,0,0,0-.1-.285,13,13,0,0,0-.9-1,.679.679,0,0,0-.834-.1,5.95,5.95,0,0,1-3.459.956.637.637,0,0,0-.712.427s-.1.02-.122.02V8.852A3.12,3.12,0,0,1,6.267,5.881a.405.405,0,0,0-.244-.773,3.874,3.874,0,0,0-1.994,1.4,3.971,3.971,0,0,0-.794,2.36v1.14a1.355,1.355,0,0,0-.326.855,1.408,1.408,0,0,0,1.262,1.4,3.045,3.045,0,0,0,1.14,1.913v.692l-3.6,1.4h0A2.822,2.822,0,0,0,0,18.884v6.43a.9.9,0,0,0,.9.9H13.512A.98.98,0,0,0,14,26.067a.98.98,0,0,0,.488.142H27.1a.9.9,0,0,0,.9-.9V22.587a.407.407,0,0,0-.814,0v2.747a.065.065,0,0,1-.061.061H25.558v-6a.407.407,0,1,0-.814,0v5.983H21.733l.814-.9a.691.691,0,0,0,.163-.529v-.02l-.916-5.413.163-.244.02.041a.683.683,0,0,0,.529.1.652.652,0,0,0,.427-.346h0l.936-1.872,2.137.834a2.067,2.067,0,0,1,1.18,1.852v1.77A.386.386,0,0,0,27.573,21.081Zm-8.3-3.561-.814-1.608.712-.265,1,1.241C19.738,17.195,19.311,17.52,19.27,17.52ZM9.5,15.913,8.689,17.52l-.224-.163h0l-.672-.468,1-1.241ZM5.7,17.52l-.814-1.608.712-.265,1,1.241-.692.488h0Zm4.884-6.695a.576.576,0,0,1-.387.59V10.3A.59.59,0,0,1,10.581,10.826Zm4.9-6.9c.366.387.59.631.692.733v2.2a2.208,2.208,0,0,1-4.416,0V4.945A6.893,6.893,0,0,0,15.485,3.927Zm1.892,1.994a.616.616,0,0,1-.2.448.825.825,0,0,1-.183.1V5.352A.613.613,0,0,1,17.378,5.922ZM18.9,14.183v.692l-3.48,1.343-.448-2.625.163-.244.041.041a.7.7,0,0,0,.529.1.652.652,0,0,0,.427-.346h0l.692-1.384a1.487,1.487,0,0,0,.936.509A2.929,2.929,0,0,0,18.9,14.183ZM13.98,17.4a2.531,2.531,0,0,0-.672-.733l.468-2.747h.407l.468,2.747A2.819,2.819,0,0,0,13.98,17.4Zm-4.9-3.276a3,3,0,0,0,1.078-1.852,1.4,1.4,0,0,0,.977-.57l.712,1.445h0a.731.731,0,0,0,.427.346.622.622,0,0,0,.529-.1l.041-.041.163.244-.448,2.625-3.48-1.343v-.753ZM14,9.849h0a3.044,3.044,0,0,0,1.058-.183v.407L14,11.375l-1.058-1.3V9.686A3.6,3.6,0,0,0,14,9.849Zm3.724,1.567a.568.568,0,0,1-.387-.549.6.6,0,0,1,.387-.529ZM15.485,12.6l-.224-.163h0l-.692-.488.346-.427.651-.814.712.265Zm-1.16.509h-.651l-.142-.224.488-.346.488.346ZM12.494,12.6l-.814-1.608.712-.265,1,1.241-.692.488h0Zm4.334-3.724v1.14a1.7,1.7,0,0,0-.163.244l-.794-.326V9.177a2.986,2.986,0,0,0,1.078-1.852.723.723,0,0,0,.2-.041A3.757,3.757,0,0,0,16.828,8.872Zm-5.9-3.48v1.1a.568.568,0,0,1-.387-.549A.6.6,0,0,1,10.927,5.392Zm.041,1.933a3.045,3.045,0,0,0,1.14,1.913V9.93l-.834.326a.854.854,0,0,0-.183-.285v-1.1a4,4,0,0,0-.326-1.567C10.826,7.305,10.887,7.326,10.968,7.326ZM7,18.863h.407l.875,5.148L7.2,25.192l-1.078-1.18Zm.529-.814H6.878l-.163-.244.488-.346.488.346ZM21.834,14.59V15l-1.058,1.3L19.718,15V14.61a3.217,3.217,0,0,0,1.058.183h0A3.057,3.057,0,0,0,21.834,14.59Zm-1.058-.631a2.192,2.192,0,0,1-2.238-2.177V9.869a6.667,6.667,0,0,0,3.744-1.017c.366.387.59.631.692.733v2.2A2.211,2.211,0,0,1,20.776,13.959Zm2.991-2.544V10.3a.587.587,0,0,1,.387.549A.552.552,0,0,1,23.767,11.416ZM20.735,5.759a3.113,3.113,0,0,1,3.113,3.113v.61c-.02,0-.061-.02-.081-.02a.486.486,0,0,0-.1-.285,9.7,9.7,0,0,0-.9-1,.649.649,0,0,0-.834-.1,5.914,5.914,0,0,1-3.5.956.64.64,0,0,0-.692.427s-.1.02-.122.02V8.852A3.136,3.136,0,0,1,20.735,5.759Zm-9.89-1.831a3.113,3.113,0,0,1,6.227,0v.61c-.02,0-.061-.02-.081-.02a.449.449,0,0,0-.122-.305c-.1-.142-.305-.346-.875-.956a.652.652,0,0,0-.834-.1,5.9,5.9,0,0,1-3.541.956.635.635,0,0,0-.651.427s-.1.02-.122.02V3.927Zm-7.1,6.939a.6.6,0,0,1,.387-.529v1.1A.613.613,0,0,1,3.744,10.866Zm1.221.936V9.89A6.743,6.743,0,0,0,8.709,8.872c.366.387.59.631.692.733v2.2a2.218,2.218,0,0,1-4.436,0ZM7.2,14.794h0a3.044,3.044,0,0,0,1.058-.183v.407L7.2,16.32l-1.058-1.3v-.387A3.818,3.818,0,0,0,7.2,14.794ZM.814,25.314v-6.43a2.069,2.069,0,0,1,1.18-1.852L4.131,16.2l.936,1.872h0a.731.731,0,0,0,.427.346.622.622,0,0,0,.529-.1l.041-.041.163.244L5.311,23.93v.02a.717.717,0,0,0,.163.529l.814.9H3.256V19.392a.407.407,0,1,0-.814,0v5.983H.9C.855,25.375.814,25.355.814,25.314Zm12.7.061H11.945V19.392a.407.407,0,1,0-.814,0v5.983H8.119l.814-.9a.691.691,0,0,0,.163-.529v-.02L8.18,18.517l.163-.244.041.041a.61.61,0,0,0,.366.122.644.644,0,0,0,.57-.346h0l.936-1.872,2.137.834a2.035,2.035,0,0,1,1.18,1.852v6.43C13.573,25.355,13.552,25.375,13.512,25.375Zm3.337,0V19.392a.407.407,0,1,0-.814,0v5.983H14.468a.065.065,0,0,1-.061-.061v-6.43a2.009,2.009,0,0,1,.488-1.323,2.216,2.216,0,0,1,.712-.529h0l2.1-.814.936,1.872h0a.731.731,0,0,0,.427.346.622.622,0,0,0,.529-.1l.041-.041.163.244-.916,5.413v.02a.717.717,0,0,0,.163.529l.814.9-3.012-.02Zm3.927-.183L19.7,24.012l.875-5.148h.407l.875,5.148Zm.326-7.142h-.651l-.142-.224.488-.346.488.346Zm1.18-.529s-.9-.631-.916-.651c.387-.468.2-.244,1-1.241l.712.265Z" transform="translate(1 2)"/>
  </g>
</svg>
