<?xml version="1.0" encoding="utf-8"?>
<!-- Generator: Adobe Illustrator 22.1.0, SVG Export Plug-In . SVG Version: 6.00 Build 0)  -->
<svg version="1.1" id="Слой_1" xmlns="http://www.w3.org/2000/svg" xmlns:xlink="http://www.w3.org/1999/xlink" x="0px" y="0px"
	 width="25px" height="25px" viewBox="0 0 25 25" style="enable-background:new 0 0 25 25;" xml:space="preserve">
<style type="text/css">
	.st0{fill:#12100B;}
	.st1{fill:#005DD7;}
	.st2{fill:#140F0D;}
	.st3{fill:none;}
</style>
<g>
	<path class="st0" d="M12.1,12.6h0.7c0.1,0,0.1-0.1,0.1-0.1s-0.1-0.1-0.1-0.1h-0.7c-0.1,0-0.1,0.1-0.1,0.1S12.1,12.6,12.1,12.6z"/>
	<path class="st0" d="M10,10.1h0.6v0.6c0,0.1,0.1,0.1,0.1,0.1c0.1,0,0.1-0.1,0.1-0.1v-0.6h0.6c0.1,0,0.1-0.1,0.1-0.1
		c0-0.1-0.1-0.1-0.1-0.1H10c-0.1,0-0.1,0.1-0.1,0.1C9.9,10.1,9.9,10.1,10,10.1z"/>
	<path class="st0" d="M13.6,10.1h0.6v0.6c0,0.1,0.1,0.1,0.1,0.1c0.1,0,0.1-0.1,0.1-0.1v-0.6H15c0.1,0,0.1-0.1,0.1-0.1
		c0-0.1-0.1-0.1-0.1-0.1h-1.4c-0.1,0-0.1,0.1-0.1,0.1C13.4,10.1,13.5,10.1,13.6,10.1z"/>
	<path class="st0" d="M11.8,14.1h1.4c0.1,0,0.1-0.1,0.1-0.1s-0.1-0.1-0.1-0.1h-1.4c-0.1,0-0.1,0.1-0.1,0.1S11.7,14.1,11.8,14.1z"/>
	<path class="st0" d="M20.4,20.4c-0.4-1-1.1-1.8-2.1-2.3l0,0c-0.4-0.2-0.9-0.3-1.4-0.3l-0.1,0l0,0l-0.1,0c0,0-0.1,0-0.1,0h-1.1
		l0-0.2c-0.2-0.7-0.3-1.5-0.1-2.2c0-0.4,0.1-0.8,0.2-1.1l0-0.1l0,0c0.4-0.4,0.7-1,0.7-1.6l0-0.3l0.3,0.1c0,0,0.1,0,0.1,0
		c0,0,0.1,0,0.1,0c0.4-0.1,0.6-0.9,0.6-2.3c0-0.2,0-0.4-0.1-0.6l-0.1-0.3H18V7.9c0-0.4-0.2-0.7-0.6-0.8L17.3,7V6.1
		c0-1.8-1.3-3.2-3.1-3.3l-0.1,0l0-0.1C13.9,2.2,13.6,2,13.2,2h-1.7c-0.4,0-0.7,0.2-0.8,0.6l0,0.1l-0.1,0C8.9,3,7.7,4.4,7.7,6.1V7
		L7.6,7.1C7.2,7.2,7,7.5,7,7.9v1.2h0.9L7.8,9.3C7.7,9.6,7.7,9.8,7.7,10c0,1.3,0.2,2.2,0.6,2.3c0,0,0.1,0,0.1,0c0,0,0,0,0.1,0
		l0.3-0.1l0,0.3c0.1,0.6,0.3,1.2,0.7,1.6l0,0l0,0.1c0.1,0.4,0.1,0.8,0.2,1.2c0.1,0.7,0.1,1.5-0.1,2.2l0,0.2H8.4c0,0-0.1,0-0.1,0
		l-0.1,0l0,0l0,0c-0.5,0-1,0.2-1.4,0.3l0,0c-1,0.5-1.8,1.3-2.2,2.3l-0.5,1.5c-0.1,0.3,0,0.5,0.1,0.8C4.4,22.9,4.6,23,4.9,23l15.2,0
		c0.5,0,0.8-0.4,0.8-0.8c0-0.1,0-0.2,0-0.3L20.4,20.4z M6.6,22.7H4.9c-0.2,0-0.3-0.1-0.4-0.2c-0.1-0.1-0.2-0.3-0.2-0.4
		c0-0.1,0-0.1,0-0.2l0.5-1.5c0.2-0.5,0.5-1,0.9-1.4c0.2-0.2,0.4-0.3,0.6-0.5l0.4-0.2V22.7z M8.1,22.7H6.9v-4.4l0.1-0.1
		c0.2-0.1,0.5-0.2,0.8-0.2l0.3,0V22.7z M9.5,22.7H8.3V18h1.2V22.7z M16.7,11.9l-0.1,0.2l-0.2-0.2c-0.1-0.1-0.1-0.1-0.2-0.2l0-0.1
		l0-0.1c0-0.7,0-1.4,0.2-2.1l0-0.1l0.1,0c0.1,0,0.1-0.1,0.2-0.1l0.2-0.1l0.1,0.2C17,9.6,17,9.8,17,10C17,11.3,16.8,11.8,16.7,11.9z
		 M14.1,3l0.3,0C15.9,3.2,17,4.5,17,6.1V7h-3V3z M11,2.8c0-0.3,0.3-0.6,0.6-0.6h1.7c0.3,0,0.6,0.3,0.6,0.6V7H11V2.8z M8,6.1
		c0-1.5,1-2.7,2.5-3L10.7,3v4H8V6.1z M7.3,8.8V7.9c0-0.3,0.3-0.6,0.6-0.6h9.3c0.3,0,0.6,0.3,0.6,0.6v0.9H7.3z M8.8,11.7L8.8,11.7
		c-0.1,0.1-0.2,0.2-0.2,0.3l-0.2,0.2l-0.1-0.2C8.2,11.8,8,11.3,8,10c0-0.2,0-0.4,0.1-0.6l0.1-0.2l0.2,0.1c0.1,0,0.1,0.1,0.2,0.1
		l0.1,0l0,0.1C8.8,10.2,8.9,10.9,8.8,11.7L8.8,11.7z M9.1,12.5c0-0.1,0-0.2,0-0.3c0.1-1,0-1.9-0.2-2.9L8.8,9.1h7.4l-0.1,0.3
		c-0.2,0.9-0.3,1.9-0.2,2.9c0,0.1,0,0.2,0,0.3c0,1-1.2,2.1-2.2,3c-0.4,0.3-0.8,0.4-1.3,0.4c-0.5,0-0.9-0.2-1.3-0.4
		C10.2,14.6,9.1,13.4,9.1,12.5z M12.4,22.7H9.8v-4.8l0.4,0.5c0.2,0.2,0.3,0.4,0.5,0.6c0.5,0.6,1,1.3,1.6,1.5l0.2,0V22.7z M10.8,18.8
		c-0.3-0.4-0.5-0.7-0.9-1l-0.1-0.1l0-0.1c0.2-0.7,0.3-1.5,0.1-2.3l-0.1-0.7l0.5,0.4c0.2,0.2,0.5,0.4,0.7,0.6
		c0.4,0.3,0.9,0.5,1.4,0.5c0.5,0,1-0.2,1.4-0.5c0.2-0.2,0.4-0.4,0.7-0.6l0.5-0.4L15,15.3c-0.1,0.8-0.1,1.6,0.1,2.3l0,0.1L15,17.8
		c-0.3,0.3-0.6,0.6-0.9,1c-0.5,0.7-1.1,1.4-1.7,1.4C11.9,20.2,11.3,19.5,10.8,18.8z M15.2,22.7h-2.6v-2.2l0.2,0
		c0.6-0.2,1.1-0.9,1.6-1.5c0.1-0.2,0.3-0.4,0.5-0.6l0.4-0.5V22.7z M16.7,22.7h-1.2V18h1.2V22.7z M18.1,22.7h-1.2V18l0.3,0
		c0.3,0,0.5,0.1,0.8,0.2l0.1,0.1V22.7z M20.3,22.7c-0.1,0-0.1,0-0.2,0h-1.7v-4.3l0.4,0.2c0.2,0.1,0.4,0.3,0.6,0.5
		c0.4,0.4,0.7,0.8,0.9,1.4l0.5,1.5C20.8,22.3,20.6,22.6,20.3,22.7z"/>
</g>
</svg>
