<svg xmlns="http://www.w3.org/2000/svg" xmlns:xlink="http://www.w3.org/1999/xlink" viewBox="0 0 30 30">
  <defs>
    <style>
      .cls-1 {
        clip-path: url(#clip-XD_06);
      }

      .cls-2 {
        fill: #353535;
      }
    </style>
    <clipPath id="clip-XD_06">
      <rect width="30" height="30"/>
    </clipPath>
  </defs>
  <g id="XD_06" data-name="XD 06" class="cls-1">
    <g id="Group_803" data-name="Group 803" transform="translate(1 1)">
      <path id="Path_1290" data-name="Path 1290" class="cls-2" d="M16.363,18.738H14.438a10.674,10.674,0,0,0-.613-1.488l1.4-1.4a.437.437,0,0,0,0-.525l-1.75-1.75c-.175-.175-.437-.175-.525,0l-1.4,1.4a7.569,7.569,0,0,0-1.488-.612V12.438A.413.413,0,0,0,9.625,12H7.088a.413.413,0,0,0-.437.438v1.925a5.594,5.594,0,0,0-1.4.525l-1.4-1.4c-.175-.175-.437-.175-.525,0l-1.75,1.75a.437.437,0,0,0,0,.525l1.4,1.488a7.57,7.57,0,0,0-.613,1.488H.438A.413.413,0,0,0,0,19.175v2.45a.413.413,0,0,0,.438.438H2.362a10.674,10.674,0,0,0,.613,1.488l-1.4,1.4c-.175.175-.175.438,0,.525l1.75,1.75c.175.175.438.175.525,0l1.4-1.4a7.57,7.57,0,0,0,1.487.613v1.925a.413.413,0,0,0,.438.438h2.45a.413.413,0,0,0,.438-.437V26.438a10.674,10.674,0,0,0,1.488-.613l1.4,1.4c.175.175.438.175.525,0l1.75-1.75c.175-.175.175-.437,0-.525l-1.4-1.4a7.57,7.57,0,0,0,.613-1.488h1.925a.413.413,0,0,0,.438-.437V19.087A.4.4,0,0,0,16.363,18.738Zm-.35,2.537H14.175a.321.321,0,0,0-.35.35,6.11,6.11,0,0,1-.7,1.75.412.412,0,0,0,.088.525l1.312,1.313-1.4,1.138-1.312-1.312a.412.412,0,0,0-.525-.088,4.339,4.339,0,0,1-1.75.7.376.376,0,0,0-.35.35v1.837H7.438V26a.321.321,0,0,0-.35-.35,6.11,6.11,0,0,1-1.75-.7.412.412,0,0,0-.525.088L3.5,26.35,2.45,25.125l1.313-1.312a.412.412,0,0,0,.087-.525,4.339,4.339,0,0,1-.7-1.75.376.376,0,0,0-.35-.35H.787v-1.75H2.625a.321.321,0,0,0,.35-.35,6.11,6.11,0,0,1,.7-1.75.412.412,0,0,0-.087-.525L2.275,15.5,3.5,14.275l1.313,1.313a.412.412,0,0,0,.525.088,4.339,4.339,0,0,1,1.75-.7.376.376,0,0,0,.35-.35V12.788h1.75v1.837a.321.321,0,0,0,.35.35,6.11,6.11,0,0,1,1.75.7.412.412,0,0,0,.525-.088l1.313-1.312L14.35,15.5l-1.312,1.313a.412.412,0,0,0-.088.525,4.339,4.339,0,0,1,.7,1.75.376.376,0,0,0,.35.35h1.837l.175,1.838Z" transform="translate(0 -1.5)"/>
      <path id="Path_1291" data-name="Path 1291" class="cls-2" d="M10.822,17.6c-.175-.088-.437.088-.525.262s.088.438.263.525a2.884,2.884,0,0,1,1.925,2.188.376.376,0,0,0,.35.35h.087a.581.581,0,0,0,.35-.437A3.521,3.521,0,0,0,10.822,17.6Z" transform="translate(-1.284 -2.197)"/>
      <path id="Path_1292" data-name="Path 1292" class="cls-2" d="M12.3,21.872a.39.39,0,0,0-.525.262,2.846,2.846,0,0,1-2.712,1.838,2.887,2.887,0,0,1-.7-5.687A.415.415,0,1,0,8.1,17.5a3.656,3.656,0,0,0-2.8,3.587A3.663,3.663,0,0,0,12.387,22.4C12.563,22.134,12.475,21.872,12.3,21.872Z" transform="translate(-0.663 -2.184)"/>
      <path id="Path_1293" data-name="Path 1293" class="cls-2" d="M29.688,10.762h-1.4A3.235,3.235,0,0,0,27.85,9.8l.962-.963a.438.438,0,0,0,0-.525L27.5,6.825c-.175-.175-.437-.175-.525,0l-.963.963a4.689,4.689,0,0,0-.962-.437V6.037a.413.413,0,0,0-.437-.437H22.687a.413.413,0,0,0-.437.438v1.4a3.235,3.235,0,0,0-.962.438l-1.05-1.05c-.175-.175-.437-.175-.525,0l-1.4,1.4a.438.438,0,0,0,0,.525l.962.962a4.69,4.69,0,0,0-.437.963h-1.4a.413.413,0,0,0-.437.438v1.925a.413.413,0,0,0,.438.438h1.4a3.235,3.235,0,0,0,.438.962l-.962.962c-.175.175-.175.438,0,.525l1.4,1.4a.438.438,0,0,0,.525,0l.962-.963a4.69,4.69,0,0,0,.963.438v1.4a.413.413,0,0,0,.438.438h1.925a.413.413,0,0,0,.438-.437V16.8a3.235,3.235,0,0,0,.963-.438l.962.963a.438.438,0,0,0,.525,0l1.4-1.4c.175-.175.175-.437,0-.525l-.962-.962a4.69,4.69,0,0,0,.438-.963h1.4a.413.413,0,0,0,.438-.437V11.2A.413.413,0,0,0,29.688,10.762Zm-.35,1.925H28.025a.321.321,0,0,0-.35.35,3.453,3.453,0,0,1-.525,1.313.412.412,0,0,0,.088.525l.962.962-.787.788-.963-.963a.412.412,0,0,0-.525-.088,4.125,4.125,0,0,1-1.312.525.376.376,0,0,0-.35.35v1.313H23.125V16.45a.321.321,0,0,0-.35-.35,3.866,3.866,0,0,1-1.4-.525.412.412,0,0,0-.525.088l-.963.963-.787-.788.962-.962a.412.412,0,0,0,.087-.525,4.125,4.125,0,0,1-.525-1.312.376.376,0,0,0-.35-.35h-1.4V11.55h1.313a.321.321,0,0,0,.35-.35,3.453,3.453,0,0,1,.525-1.312.412.412,0,0,0-.087-.525L19.012,8.4l.963-.7.962.963a.412.412,0,0,0,.525.088,4.125,4.125,0,0,1,1.313-.525.376.376,0,0,0,.35-.35v-1.4h1.137V7.788a.321.321,0,0,0,.35.35,3.453,3.453,0,0,1,1.313.525.412.412,0,0,0,.525-.088l.788-.875.787.787-.875.963a.412.412,0,0,0-.087.525,4.125,4.125,0,0,1,.525,1.313.376.376,0,0,0,.35.35H29.25l.087,1.05Z" transform="translate(-2.125 -0.7)"/>
      <path id="Path_1294" data-name="Path 1294" class="cls-2" d="M26.638,13.216a.39.39,0,0,0-.525.262,1.905,1.905,0,0,1-.437.7,2.168,2.168,0,0,1-2.975,0,2.049,2.049,0,0,1-.613-1.487A2.283,2.283,0,0,1,22.7,11.2a2.168,2.168,0,0,1,2.975,0,1.905,1.905,0,0,1,.438.7c.088.175.35.35.525.262s.35-.35.262-.525a3.613,3.613,0,0,0-.613-.963,2.9,2.9,0,0,0-4.112,0,3.055,3.055,0,0,0-.875,2.1,2.844,2.844,0,0,0,.875,2.1,3.055,3.055,0,0,0,2.1.875,2.844,2.844,0,0,0,2.1-.875,2.265,2.265,0,0,0,.613-.963C26.9,13.566,26.813,13.3,26.638,13.216Z" transform="translate(-2.662 -1.228)"/>
      <path id="Path_1295" data-name="Path 1295" class="cls-2" d="M7.537,6.388h1.05c.087.175.175.438.262.612l-.7.787c-.088.088-.175.175-.175.263a.321.321,0,0,0,.088.262l1.05,1.05a.438.438,0,0,0,.525,0l.875-.7a6.029,6.029,0,0,0,.7.263v1.05a.413.413,0,0,0,.438.438h1.488a.413.413,0,0,0,.438-.437V8.925c.262-.088.438-.175.7-.263l.7.7a.437.437,0,0,0,.525,0l1.05-1.05a.437.437,0,0,0,0-.525L15.85,7a6.028,6.028,0,0,0,.262-.7h1.05a.413.413,0,0,0,.438-.437v-1.4a.413.413,0,0,0-.437-.437h-1.05c-.087-.263-.175-.438-.262-.7l.7-.7a.321.321,0,0,0,.088-.263A.321.321,0,0,0,16.55,2.1L15.5,1.05c-.087-.175-.175-.175-.35-.175s-.175,0-.262.088l-.7.787a6.029,6.029,0,0,0-.7-.262V.438A.413.413,0,0,0,13.05,0H11.563a.413.413,0,0,0-.437.438v1.05a.945.945,0,0,0-.613.262l-.7-.7a.349.349,0,0,0-.35-.175A.321.321,0,0,0,9.2.963L8.15,2.1c-.088,0-.175.175-.175.262a.321.321,0,0,0,.088.263l.7.7a1.648,1.648,0,0,1-.175.7H7.537a.413.413,0,0,0-.437.438V5.95A.413.413,0,0,0,7.537,6.388Zm.438-1.575h.963a.321.321,0,0,0,.35-.35A3.015,3.015,0,0,1,9.725,3.5a.412.412,0,0,0-.088-.525l-.7-.613.525-.525.7.7a.551.551,0,0,0,.525,0,3.787,3.787,0,0,1,1.05-.437.376.376,0,0,0,.35-.35V.787h.7V1.75a.321.321,0,0,0,.35.35,5.352,5.352,0,0,1,1.05.438c0,.087.175.087.35,0l.7-.7.525.525-.7.7c-.175.087-.175.262-.088.437a3.787,3.787,0,0,1,.438,1.05.376.376,0,0,0,.35.35h.963v.7h-.963a.321.321,0,0,0-.35.35A5.352,5.352,0,0,1,14.975,7a.216.216,0,0,0,.088.35l.7.7-.525.525-.7-.7c-.175-.088-.35-.175-.525,0a3.787,3.787,0,0,1-1.05.438.376.376,0,0,0-.35.35v.963h-.7V8.662a.321.321,0,0,0-.35-.35,5.352,5.352,0,0,1-1.05-.437c0-.175-.263-.088-.35,0l-.7.7L8.938,8.05l.7-.7a.412.412,0,0,0,.088-.525,1.942,1.942,0,0,1-.437-.963.376.376,0,0,0-.35-.35H7.975Z" transform="translate(-0.887)"/>
      <path id="Path_1296" data-name="Path 1296" class="cls-2" d="M12.813,7.625a1.98,1.98,0,0,0,2.012-2.013,2.013,2.013,0,0,0-4.025,0A1.98,1.98,0,0,0,12.813,7.625Zm0-3.15A1.2,1.2,0,0,1,14.038,5.7a1.225,1.225,0,1,1-2.45,0A1.2,1.2,0,0,1,12.813,4.475Z" transform="translate(-1.35 -0.45)"/>
      <path id="Path_1297" data-name="Path 1297" class="cls-2" d="M21.138,3.238h0a.413.413,0,0,0,.438-.437V2.538a.413.413,0,0,0-.437-.437h0a.413.413,0,0,0-.437.438V2.8C20.787,3.063,20.962,3.238,21.138,3.238Z" transform="translate(-2.588 -0.263)"/>
      <path id="Path_1298" data-name="Path 1298" class="cls-2" d="M21.138,4.1h0a.413.413,0,0,0-.437.438V4.8a.413.413,0,0,0,.438.438h0a.413.413,0,0,0,.438-.437V4.537A.413.413,0,0,0,21.138,4.1Z" transform="translate(-2.588 -0.512)"/>
      <path id="Path_1299" data-name="Path 1299" class="cls-2" d="M21.938,4.075H22.2a.413.413,0,0,0,.438-.437A.413.413,0,0,0,22.2,3.2h-.262a.413.413,0,0,0-.437.438C21.587,3.9,21.762,4.075,21.938,4.075Z" transform="translate(-2.688 -0.4)"/>
      <path id="Path_1300" data-name="Path 1300" class="cls-2" d="M20.138,4.075H20.4a.413.413,0,0,0,.438-.437A.413.413,0,0,0,20.4,3.2h-.262a.413.413,0,0,0-.437.438A.413.413,0,0,0,20.138,4.075Z" transform="translate(-2.463 -0.4)"/>
      <path id="Path_1301" data-name="Path 1301" class="cls-2" d="M5.438,9.438h0A.413.413,0,0,0,5.875,9V8.738A.413.413,0,0,0,5.438,8.3h0A.555.555,0,0,0,5,8.825v.263A.4.4,0,0,0,5.438,9.438Z" transform="translate(-0.625 -1.038)"/>
      <path id="Path_1302" data-name="Path 1302" class="cls-2" d="M5.438,10.3h0A.413.413,0,0,0,5,10.738v.175a.413.413,0,0,0,.438.438h0a.413.413,0,0,0,.438-.437V10.65A.581.581,0,0,0,5.438,10.3Z" transform="translate(-0.625 -1.288)"/>
      <path id="Path_1303" data-name="Path 1303" class="cls-2" d="M6.15,10.287h.263a.4.4,0,0,0,.438-.35A.413.413,0,0,0,6.412,9.5H6.15a.4.4,0,0,0-.35.438A.376.376,0,0,0,6.15,10.287Z" transform="translate(-0.725 -1.188)"/>
      <path id="Path_1304" data-name="Path 1304" class="cls-2" d="M4.338,10.275H4.6a.437.437,0,1,0,0-.875H4.338a.438.438,0,1,0,0,.875Z" transform="translate(-0.488 -1.175)"/>
      <path id="Path_1305" data-name="Path 1305" class="cls-2" d="M21.538,22.238h0a.413.413,0,0,0,.438-.437v-.263a.413.413,0,0,0-.437-.437h0a.413.413,0,0,0-.437.438V21.8C21.188,22.063,21.363,22.238,21.538,22.238Z" transform="translate(-2.638 -2.638)"/>
      <path id="Path_1306" data-name="Path 1306" class="cls-2" d="M21.538,23.1h0a.413.413,0,0,0-.437.438V23.8a.413.413,0,0,0,.438.438h0a.413.413,0,0,0,.438-.437v-.263A.413.413,0,0,0,21.538,23.1Z" transform="translate(-2.638 -2.888)"/>
      <path id="Path_1307" data-name="Path 1307" class="cls-2" d="M22.6,22.3h-.263a.438.438,0,0,0,0,.875H22.6a.413.413,0,0,0,.438-.437C22.95,22.475,22.775,22.3,22.6,22.3Z" transform="translate(-2.738 -2.787)"/>
      <path id="Path_1308" data-name="Path 1308" class="cls-2" d="M20.7,22.3h-.262a.437.437,0,0,0,0,.875H20.7a.438.438,0,0,0,0-.875Z" transform="translate(-2.5 -2.787)"/>
    </g>
  </g>
</svg>
