<?xml version="1.0" encoding="utf-8"?>
<!-- Generator: Adobe Illustrator 22.1.0, SVG Export Plug-In . SVG Version: 6.00 Build 0)  -->
<svg version="1.1" id="Слой_1" xmlns="http://www.w3.org/2000/svg" xmlns:xlink="http://www.w3.org/1999/xlink" x="0px" y="0px"
	 width="25px" height="25px" viewBox="0 0 25 25" style="enable-background:new 0 0 25 25;" xml:space="preserve">
<style type="text/css">
	.st0{fill:#12100B;}
	.st1{fill:#005DD7;}
	.st2{fill:#140F0D;}
	.st3{fill:none;}
</style>
<g>
	<path class="st0" d="M10.7,11.6h2.1c0.1,0,0.2-0.1,0.2-0.2c0-0.1-0.1-0.2-0.2-0.2h-2.1c-0.1,0-0.2,0.1-0.2,0.2
		C10.5,11.5,10.6,11.6,10.7,11.6z"/>
	<path class="st0" d="M21.4,4.8H10.7c-0.1,0-0.2,0.1-0.2,0.2c0,0.1,0.1,0.2,0.2,0.2h10.5v16.2c0,0.7-0.6,1.3-1.3,1.3H5
		c-0.7,0-1.3-0.6-1.3-1.3V4.7l0.3,0.2c0.2,0.2,0.5,0.2,0.6,0.3l0.1,0v16.2c0,0.1,0.1,0.2,0.2,0.2c0.1,0,0.2-0.1,0.2-0.2V5
		c0-0.1-0.1-0.2-0.2-0.2c-0.6,0-1.3-0.3-1.3-1.3V3.2c0-0.5,0.4-0.9,0.9-0.9h16.7c0.1,0,0.2-0.1,0.2-0.2c0-0.1-0.1-0.2-0.2-0.2H4.7
		C4,2,3.4,2.6,3.4,3.2v18.2C3.4,22.3,4.2,23,5,23h15c0.9,0,1.6-0.7,1.6-1.6V5C21.6,4.9,21.5,4.8,21.4,4.8z"/>
	<path class="st0" d="M20.9,3.6c0-0.1-0.1-0.2-0.2-0.2H9.3c-0.1,0-0.2,0.1-0.2,0.2v3.9L8,6.3c0,0-0.1,0-0.1,0c0,0-0.1,0-0.1,0
		L6.6,7.5V3.6c0-0.1-0.1-0.2-0.2-0.2H5c-0.1,0-0.2,0.1-0.2,0.2c0,0.1,0.1,0.2,0.2,0.2h1.3v4.1c0,0.1,0,0.1,0.1,0.2
		c0.1,0,0.1,0,0.2,0l1.3-1.3L9.2,8C9.2,8,9.2,8,9.3,8c0,0,0,0,0.1,0c0.1,0,0.1-0.1,0.1-0.2V3.8h11.2C20.8,3.8,20.9,3.7,20.9,3.6z"/>
	<path class="st0" d="M8.4,9.3V15c0,0.1,0.1,0.2,0.2,0.2h7.8c0.1,0,0.2-0.1,0.2-0.2V9.3c0-0.1-0.1-0.2-0.2-0.2H8.6
		C8.5,9.1,8.4,9.2,8.4,9.3z M16.2,9.5v5.4H8.8V9.5H16.2z"/>
	<path class="st0" d="M10.7,13h3.6c0.1,0,0.2-0.1,0.2-0.2c0-0.1-0.1-0.2-0.2-0.2h-3.6c-0.1,0-0.2,0.1-0.2,0.2
		C10.5,13,10.6,13,10.7,13z"/>
</g>
</svg>
