<svg width="25" height="27" xmlns="http://www.w3.org/2000/svg"><path d="M.893 2.232h.893V15.18H9c.18 0 .36.036.526.107l2.973 1.27 3.001-1.271a1.33 1.33 0 01.523-.106h7.19V2.232h.893v13.84h-8.116c-.302-.001-.601.06-.879.178L12.5 17.37 9.888 16.25a2.225 2.225 0 00-.88-.179H.894zM2.679.892H9.82c1.233.002 2.231 1 2.233 2.233v12.27l-2.176-.93a2.218 2.218 0 00-.877-.18H2.679zm12.5 0h7.142v13.394h-6.297c-.3 0-.596.06-.871.178l-2.207.933V3.125c.002-1.232 1-2.23 2.233-2.232zm7.589 20.983v3.571c0 .247-.2.447-.447.447h-1.785a.446.446 0 01-.447-.447v-3.571c0-.247.2-.446.447-.446h1.785c.247 0 .447.2.447.446zm-13.76-4.91c.182 0 .361.036.528.107l2.964 1.27 2.964-1.27c.167-.071.346-.108.527-.108H25V1.34h-1.786V0H15.18A3.124 3.124 0 0012.5 1.518 3.124 3.124 0 009.821 0H1.786v1.34H0v15.624h1.786v1.34c0 .74.6 1.339 1.339 1.339h17.41c.247 0 .447.2.447.446v.447h-.446c-.74 0-1.34.6-1.34 1.339v3.571c0 .74.6 1.34 1.34 1.34h1.785c.74 0 1.34-.6 1.34-1.34v-3.571c0-.74-.6-1.34-1.34-1.34h-.446v-.446c0-.74-.6-1.339-1.34-1.339H3.126a.446.446 0 01-.446-.446v-1.34z" fill="#363636"/><g><path d="M21.079 21.993h.871v.871h-.871z" fill="#363636"/></g></svg>