<svg xmlns="http://www.w3.org/2000/svg" xmlns:xlink="http://www.w3.org/1999/xlink" viewBox="0 0 30 30">
  <defs>
    <style>
      .cls-1 {
        clip-path: url(#clip-XD_07a);
      }

      .cls-2 {
        fill: #0585fa;
      }
    </style>
    <clipPath id="clip-XD_07a">
      <rect width="30" height="30"/>
    </clipPath>
  </defs>
  <g id="XD_07a" data-name="XD 07a" class="cls-1">
    <g id="Group_801" data-name="Group 801" transform="translate(1 5.041)">
      <path id="Path_530" data-name="Path 530" class="cls-2" d="M4.665,6.051h.078l6.438-1.439c.233-.072.388-.288.31-.432-.078-.216-.233-.36-.465-.288L4.588,5.332c-.31,0-.388.216-.388.432a.426.426,0,0,0,.465.288Zm0,0" transform="translate(-0.942 -1.098)"/>
      <path id="Path_531" data-name="Path 531" class="cls-2" d="M29.5,5.332,23.06,3.893a.34.34,0,0,0-.465.288.32.32,0,0,0,.31.432l6.438,1.439h.078c.155,0,.388-.144.388-.288,0-.216-.078-.432-.31-.432Zm0,0" transform="translate(-5.065 -1.098)"/>
      <path id="Path_532" data-name="Path 532" class="cls-2" d="M4.682,9.751H4.76L11.2,8.312c.233-.072.388-.288.31-.432-.078-.216-.31-.36-.465-.288L4.6,9.032c-.233.072-.388.288-.31.432,0,.144.155.288.388.288Zm0,0" transform="translate(-0.959 -2.136)"/>
      <path id="Path_533" data-name="Path 533" class="cls-2" d="M29.5,9.032,23.06,7.593a.34.34,0,0,0-.465.288.32.32,0,0,0,.31.432l6.438,1.439h.078c.155,0,.388-.144.388-.288,0-.216-.078-.432-.31-.432Zm0,0" transform="translate(-5.065 -2.136)"/>
      <path id="Path_534" data-name="Path 534" class="cls-2" d="M4.682,13.451H4.76L11.2,12.012c.233-.072.388-.288.31-.432-.078-.216-.31-.36-.465-.288L4.6,12.732c-.233.072-.388.288-.31.432,0,.144.155.288.388.288Zm0,0" transform="translate(-0.959 -3.174)"/>
      <path id="Path_535" data-name="Path 535" class="cls-2" d="M29.5,12.632,23.06,11.193a.34.34,0,0,0-.465.288.32.32,0,0,0,.31.432l6.438,1.439h.078c.155,0,.388-.144.388-.288a.447.447,0,0,0-.31-.432Zm0,0" transform="translate(-5.065 -3.146)"/>
      <path id="Path_536" data-name="Path 536" class="cls-2" d="M4.682,17.151H4.76L11.2,15.712c.233-.072.388-.288.31-.432-.078-.216-.31-.36-.465-.288L4.6,16.432c-.233.072-.388.288-.31.432,0,.144.155.288.388.288Zm0,0" transform="translate(-0.959 -4.212)"/>
      <path id="Path_537" data-name="Path 537" class="cls-2" d="M29.5,16.332,23.06,14.893a.34.34,0,0,0-.465.288.32.32,0,0,0,.31.432l6.438,1.439h.078c.155,0,.388-.144.388-.288a.447.447,0,0,0-.31-.432Zm0,0" transform="translate(-5.065 -4.183)"/>
      <path id="Path_538" data-name="Path 538" class="cls-2" d="M27.612,1.859H25.828L22.26,1.068a.34.34,0,0,0-.465.288.32.32,0,0,0,.31.432l3.49.791V16.106l-7.679-1.727a3.917,3.917,0,0,0-2.56.288,2.11,2.11,0,0,0-.931.648V2.363a2.773,2.773,0,0,1,1.319-1.3A3.216,3.216,0,0,1,17.762.852l2.172.5a.34.34,0,0,0,.465-.288.32.32,0,0,0-.31-.432l-2.172-.5a3.9,3.9,0,0,0-2.56.216,5.011,5.011,0,0,0-1.4,1.079,2.875,2.875,0,0,0-1.4-1.079A3.917,3.917,0,0,0,10.006.06l-7.756,1.8H.388A.354.354,0,0,0,0,2.219V19.7a.413.413,0,0,0,.388.432H5.2a.361.361,0,1,0,0-.72H.853v-.791H11.945v.791H6.9a.361.361,0,1,0,0,.72H27.612a.354.354,0,0,0,.388-.36V2.219a.354.354,0,0,0-.388-.36ZM27.147,3.8v14.03h-.776V2.651h.776ZM14.582,17.76a3.031,3.031,0,0,1,1.163-1.007,3.216,3.216,0,0,1,2.017-.216l5.507,1.223H14.582Zm-9.85,0,5.507-1.223a3.216,3.216,0,0,1,2.017.216,2.561,2.561,0,0,1,1.163,1.007Zm8.842-1.007a3.639,3.639,0,0,0-.931-.648,3.917,3.917,0,0,0-2.56-.288l-7.6,1.727v-.576l7.834-1.727a3.216,3.216,0,0,1,2.017.216,2.147,2.147,0,0,1,1.241,1.3Zm2.172-1.367a3.216,3.216,0,0,1,2.017-.216L25.6,16.9v.576l-7.679-1.655a3.917,3.917,0,0,0-2.56.288,2.11,2.11,0,0,0-.931.648v-.072a2.474,2.474,0,0,1,1.319-1.3ZM10.238.852a3.216,3.216,0,0,1,2.017.216,2.474,2.474,0,0,1,1.319,1.3V15.314a3.639,3.639,0,0,0-.931-.648,3.917,3.917,0,0,0-2.56-.288l-7.6,1.727V2.579ZM.853,3.8V2.651h.776V17.832H.853V3.8ZM12.72,19.343v-.791H15.2v.791Zm3.335,0v-.791H27.147v.791Zm0,0" transform="translate(0 0)"/>
    </g>
  </g>
</svg>
