<svg xmlns="http://www.w3.org/2000/svg" xmlns:xlink="http://www.w3.org/1999/xlink" viewBox="0 0 30 30">
  <defs>
    <style>
      .cls-1 {
        clip-path: url(#clip-XD_08);
      }

      .cls-2 {
        fill: #353535;
      }
    </style>
    <clipPath id="clip-XD_08">
      <rect width="30" height="30"/>
    </clipPath>
  </defs>
  <g id="XD_08" data-name="XD 08" class="cls-1">
    <path id="Path_1284" data-name="Path 1284" class="cls-2" d="M26.963,13.011h-.257L23.882,7.1A1.38,1.38,0,0,0,24.4,5.992a1.534,1.534,0,0,0-1.541-1.541,1.632,1.632,0,0,0-1.455.942c-.342-.086-.856-.171-1.284-.257L16.092,4.023a2.155,2.155,0,0,0-.77-1.712V.942A.95.95,0,0,0,14.381,0h-.514a.95.95,0,0,0-.942.942V2.226a1.925,1.925,0,0,0-.77,1.712l-4.194,1.2c-.428.086-.942.171-1.37.257A1.574,1.574,0,0,0,5.136,4.366,1.534,1.534,0,0,0,3.6,5.906a1.38,1.38,0,0,0,.514,1.113L1.284,12.925H1.113A1.133,1.133,0,0,0,0,14.038v.257a1.133,1.133,0,0,0,1.113,1.113,3.948,3.948,0,0,0,7.7,0h.342a1.133,1.133,0,0,0,1.113-1.113v-.257a1.133,1.133,0,0,0-1.113-1.113H8.9L6.163,7.019a1.776,1.776,0,0,0,.514-.856,9.648,9.648,0,0,0,1.541-.257l4.023-1.113a2.307,2.307,0,0,0,.6.685V21.485H10.957A1.133,1.133,0,0,0,9.844,22.6v.6A1.114,1.114,0,0,0,8.9,24.31v.257a1.133,1.133,0,0,0,1.113,1.113H13.1a.428.428,0,0,0,0-.856H10.015a.227.227,0,0,1-.257-.257V24.31a.227.227,0,0,1,.257-.257h8.046a.227.227,0,0,1,.257.257v.257a.227.227,0,0,1-.257.257H14.98a.428.428,0,1,0,0,.856h3.082a1.133,1.133,0,0,0,1.113-1.113V24.31a1.185,1.185,0,0,0-.942-1.113v-.6a1.133,1.133,0,0,0-1.113-1.113H15.236V15.151a.428.428,0,0,0-.856,0v6.334h-.77V5.821a1.188,1.188,0,0,0,.77,0v7.361a.428.428,0,0,0,.856,0v-7.7a2.307,2.307,0,0,0,.6-.685l4.023,1.113a9.648,9.648,0,0,0,1.541.257,1.776,1.776,0,0,0,.514.856l-2.825,5.906h-.257a1.133,1.133,0,0,0-1.113,1.113v.257a1.133,1.133,0,0,0,1.113,1.113h.342a3.948,3.948,0,0,0,7.7,0,1.133,1.133,0,0,0,1.113-1.113v-.257a.944.944,0,0,0-1.027-1.027ZM5.136,5.221a.736.736,0,0,1,.685.685.685.685,0,0,1-1.37,0,.736.736,0,0,1,.685-.685Zm-.171,12.5a3.133,3.133,0,0,1-3-2.226H8.046a3.24,3.24,0,0,1-3.082,2.226Zm4.451-3.681v.257a.273.273,0,0,1-.257.257H1.113a.227.227,0,0,1-.257-.257v-.257a.273.273,0,0,1,.257-.257H9.159a.273.273,0,0,1,.257.257Zm-1.37-1.027H2.226L4.879,7.447h.514Zm9.073,9.33a.273.273,0,0,1,.257.257v.514H10.614V22.6a.273.273,0,0,1,.257-.257ZM14.038,5.05a1.17,1.17,0,0,1-1.2-1.2,1.17,1.17,0,0,1,1.2-1.2,1.2,1.2,0,0,1,.6,2.226.923.923,0,0,1-.6.171ZM13.61.942c0-.086.086-.086.171-.086h.514a.184.184,0,0,1,.171.171v.942a1.188,1.188,0,0,0-.77,0V.942Zm9.33,4.28a.736.736,0,0,1,.685.685.675.675,0,0,1-.685.685.736.736,0,0,1-.685-.685.675.675,0,0,1,.685-.685Zm-.257,2.226H23.2l2.654,5.564H20.03Zm.428,10.272a3.133,3.133,0,0,1-3-2.226h6.077a3.412,3.412,0,0,1-3.082,2.226Zm4.109-3.338a.273.273,0,0,1-.257.257H18.917a.227.227,0,0,1-.257-.257v-.257a.273.273,0,0,1,.257-.257h8.046a.273.273,0,0,1,.257.257Zm0,0" transform="translate(1 2)"/>
  </g>
</svg>
