<?xml version="1.0" encoding="utf-8"?>
<!-- Generator: Adobe Illustrator 22.1.0, SVG Export Plug-In . SVG Version: 6.00 Build 0)  -->
<svg version="1.1" id="Слой_1" xmlns="http://www.w3.org/2000/svg" xmlns:xlink="http://www.w3.org/1999/xlink" x="0px" y="0px"
	 width="25px" height="25px" viewBox="0 0 25 25" style="enable-background:new 0 0 25 25;" xml:space="preserve">
<style type="text/css">
	.st0{fill:#12100B;}
	.st1{fill:#005DD7;}
	.st2{fill:#140F0D;}
	.st3{fill:none;}
</style>
<g>
	<path class="st0" d="M22.3,5.4H7.8C7.6,4,6.5,2.9,5.1,2.9c-1.5,0-2.7,1.2-2.7,2.7c0,0,0,0,0,0v0c0,0,0,0,0,0c0,1.5,1.2,2.7,2.7,2.7
		c1.4,0,2.5-1.1,2.6-2.4h14.5c0.1,0,0.2-0.1,0.2-0.2S22.4,5.4,22.3,5.4z M7.3,5.9c-0.1,1.1-1,1.9-2.1,1.9S3.1,6.9,3,5.9
		c0-0.1,0-0.2,0-0.3c0-0.1,0-0.2,0-0.2c0.1-1.1,1-1.9,2.1-1.9s2,0.8,2.1,1.9c0,0.1,0,0.2,0,0.2C7.3,5.7,7.3,5.8,7.3,5.9z"/>
	<g>
		<path class="st3" d="M15.2,12.2h-0.5c-0.1-1.1-1-1.9-2.1-1.9c-1.1,0-2,0.8-2.2,1.9c0,0.1,0,0.2,0,0.2s0,0.2,0,0.2
			c0.1,1.1,1,1.9,2.2,1.9c1.1,0,2-0.8,2.1-1.9h0.5c0-0.1,0-0.2,0-0.2S15.2,12.3,15.2,12.2z"/>
		<path class="st0" d="M22.3,12.2h-7.2c0,0.1,0,0.2,0,0.2s0,0.2,0,0.2h7.2c0.1,0,0.2-0.1,0.2-0.2S22.4,12.2,22.3,12.2z"/>
		<path class="st0" d="M12.5,14.7c-1.1,0-2-0.8-2.2-1.9c0-0.1,0-0.2,0-0.2s0-0.2,0-0.2c0.1-1.1,1-1.9,2.2-1.9c1.1,0,2,0.8,2.1,1.9
			h0.5c-0.1-1.4-1.3-2.4-2.6-2.4c-1.4,0-2.5,1.1-2.7,2.4H2.7c-0.1,0-0.2,0.1-0.2,0.2s0.1,0.2,0.2,0.2h7.2c0.1,1.4,1.3,2.4,2.7,2.4
			c1.4,0,2.5-1.1,2.6-2.4h-0.5C14.5,13.8,13.6,14.7,12.5,14.7z"/>
	</g>
	<path class="st0" d="M15.2,12.2h-0.5c0,0.1,0,0.2,0,0.2s0,0.2,0,0.2h0.5c0-0.1,0-0.2,0-0.2S15.2,12.3,15.2,12.2z"/>
	<path class="st0" d="M22.5,19.4c0-1.2-0.9-2.4-2.2-2.6c-0.7-0.1-1.4,0-2,0.4c-0.6,0.4-1,1-1.1,1.7c0,0.1,0,0.2,0,0.3H2.7
		c-0.1,0-0.2,0.1-0.2,0.2c0,0.1,0.1,0.2,0.2,0.2h14.5c0.1,1.1,0.9,2.1,2.1,2.4c0.2,0,0.4,0.1,0.5,0.1c0.5,0,1-0.2,1.5-0.5
		c0.6-0.4,1-1,1.1-1.7C22.5,19.7,22.5,19.6,22.5,19.4C22.5,19.4,22.6,19.4,22.5,19.4C22.6,19.4,22.5,19.4,22.5,19.4z M22,19.8
		c-0.1,0.6-0.4,1.1-0.9,1.4c-0.5,0.3-1.1,0.4-1.6,0.3c-0.9-0.2-1.6-1-1.7-1.9c0-0.2,0-0.3,0-0.5c0-0.1,0-0.1,0-0.2
		c0.1-0.6,0.4-1.1,0.9-1.4c0.4-0.2,0.8-0.4,1.2-0.4c0.1,0,0.3,0,0.4,0c0.9,0.2,1.6,1,1.7,1.9c0,0.2,0,0.3,0,0.5
		C22,19.7,22,19.8,22,19.8z"/>
</g>
</svg>
