<svg xmlns="http://www.w3.org/2000/svg" xmlns:xlink="http://www.w3.org/1999/xlink" width="30" height="30" viewBox="0 0 30 30">
  <defs>
    <clipPath id="clip-XD_09">
      <rect width="30" height="30"/>
    </clipPath>
  </defs>
  <g id="XD_09" data-name="XD 09" clip-path="url(#clip-XD_09)">
    <g id="Group_806" data-name="Group 806" transform="translate(-8.665 -594.534)">
      <path id="Path_1311" data-name="Path 1311" d="M27.145,615.7c2.165-3.59,4.9-8.637,4.9-11.232a7.935,7.935,0,0,0-15.869,0c0,2.595,2.736,7.641,4.9,11.232-2.568.194-8.411.89-8.411,3.2,0,2.274,5.933,3.312,11.451,3.312s11.451-1.038,11.451-3.312c0-2.312-5.855-3.008-8.422-3.2Zm-9.873-11.232a6.842,6.842,0,1,1,13.684,0c0,3.3-5.252,11.567-6.844,14-1.594-2.431-6.839-10.7-6.839-14Zm6.839,16.65c-6.7,0-10.356-1.467-10.356-2.223,0-.581,2.41-1.834,7.965-2.154,1.044,1.682,1.834,2.872,1.94,3.013a.558.558,0,0,0,.906,0c.111-.13.9-1.331,1.939-3.013,5.556.319,7.967,1.567,7.967,2.154,0,.76-3.658,2.223-10.361,2.223Zm0,0" transform="translate(0)" fill="#353535"/>
      <path id="Path_1312" data-name="Path 1312" d="M24.8,603a2.813,2.813,0,1,0-2.813,2.813A2.813,2.813,0,0,0,24.8,603Zm-4.738,0a1.925,1.925,0,1,1,1.925,1.925A1.925,1.925,0,0,1,20.062,603Zm0,0" transform="translate(2.124 1.138)" fill="#353535"/>
    </g>
  </g>
</svg>
