<svg width="27" height="37" xmlns="http://www.w3.org/2000/svg"><path d="M13.617 16.645a3.263 3.263 0 01-3.26-3.26 3.263 3.263 0 013.26-3.259 3.263 3.263 0 013.259 3.26 3.263 3.263 0 01-3.26 3.259zm0-7.823a4.569 4.569 0 00-4.563 4.564 4.569 4.569 0 004.563 4.563 4.569 4.569 0 004.563-4.563 4.569 4.569 0 00-4.563-4.564z" fill="#0585fa"/><path d="M13.617 16.645a3.263 3.263 0 01-3.26-3.26 3.263 3.263 0 013.26-3.259 3.263 3.263 0 013.259 3.26 3.263 3.263 0 01-3.26 3.259zm0-7.823a4.569 4.569 0 00-4.563 4.564 4.569 4.569 0 004.563 4.563 4.569 4.569 0 004.563-4.563 4.569 4.569 0 00-4.563-4.564z" fill="none" stroke="#363636" stroke-miterlimit="50" stroke-width=".5"/><g><path d="M22.444 21.489l-8.943 12.915-8.957-12.935C1.154 16.95 1.64 9.526 5.584 5.583a11.123 11.123 0 017.917-3.28c2.991 0 5.803 1.166 7.918 3.28 3.944 3.943 4.43 11.367 1.025 15.906zm-.103-16.827A12.42 12.42 0 0013.5 1c-3.34 0-6.478 1.3-8.84 3.662C.293 9.03-.25 17.25 3.487 22.23L13.5 36.695l10-14.444c3.752-5 3.21-13.22-1.16-17.59z" fill="#0585fa"/><path d="M22.444 21.489l-8.943 12.915-8.957-12.935C1.154 16.95 1.64 9.526 5.584 5.583a11.123 11.123 0 017.917-3.28c2.991 0 5.803 1.166 7.918 3.28 3.944 3.943 4.43 11.367 1.025 15.906zm-.103-16.827A12.42 12.42 0 0013.5 1c-3.34 0-6.478 1.3-8.84 3.662C.293 9.03-.25 17.25 3.487 22.23L13.5 36.695l10-14.444c3.752-5 3.21-13.22-1.16-17.59z" fill="none" stroke="#363636" stroke-miterlimit="50" stroke-width=".5"/></g></svg>