<svg xmlns="http://www.w3.org/2000/svg" viewBox="0 0 50 50"><title>whatsapp_top_rgb</title><path d="M25,2A23,23,0,0,0,5,36.29L2,46.73A1,1,0,0,0,3,48l.24,0,10.9-2.7A23,23,0,1,0,25,2ZM36.57,33.12c-.49,1.36-2.85,2.6-4,2.77a8.21,8.21,0,0,1-3.72-.23,34.61,34.61,0,0,1-3.37-1.23c-5.92-2.53-9.79-8.42-10.09-8.8S13,22.46,13,19.59a6.5,6.5,0,0,1,2.07-4.86A2.18,2.18,0,0,1,16.64,14l1.13,0c.36,0,.85-.14,1.33,1s1.67,4,1.82,4.33a1.06,1.06,0,0,1,0,1,3.93,3.93,0,0,1-.59,1c-.3.34-.62.76-.89,1s-.6.61-.26,1.19a17.57,17.57,0,0,0,3.28,4,16.19,16.19,0,0,0,4.75,2.89c.59.29.93.24,1.28-.15s1.48-1.7,1.87-2.29.79-.49,1.33-.29,3.45,1.6,4,1.9,1,.44,1.13.68A4.81,4.81,0,0,1,36.57,33.12Z" style="fill:#00e676"/></svg>