<?xml version="1.0" encoding="utf-8"?>
<!-- Generator: Adobe Illustrator 23.0.1, SVG Export Plug-In . SVG Version: 6.00 Build 0)  -->
<!DOCTYPE svg PUBLIC "-//W3C//DTD SVG 1.1//EN" "http://www.w3.org/Graphics/SVG/1.1/DTD/svg11.dtd" [
	<!ENTITY ns_extend "http://ns.adobe.com/Extensibility/1.0/">
	<!ENTITY ns_ai "http://ns.adobe.com/AdobeIllustrator/10.0/">
	<!ENTITY ns_graphs "http://ns.adobe.com/Graphs/1.0/">
	<!ENTITY ns_vars "http://ns.adobe.com/Variables/1.0/">
	<!ENTITY ns_imrep "http://ns.adobe.com/ImageReplacement/1.0/">
	<!ENTITY ns_sfw "http://ns.adobe.com/SaveForWeb/1.0/">
	<!ENTITY ns_custom "http://ns.adobe.com/GenericCustomNamespace/1.0/">
	<!ENTITY ns_adobe_xpath "http://ns.adobe.com/XPath/1.0/">
]>
<svg version="1.1" id="Layer_1" xmlns:x="&ns_extend;" xmlns:i="&ns_ai;" xmlns:graph="&ns_graphs;"
	 xmlns="http://www.w3.org/2000/svg" xmlns:xlink="http://www.w3.org/1999/xlink" x="0px" y="0px" viewBox="0 0 1677.3 3101.4"
	 style="enable-background:new 0 0 1677.3 3101.4;" xml:space="preserve">
<style type="text/css">
	.st0{fill:none;stroke:#FFFFFF;stroke-width:2;stroke-linecap:round;stroke-linejoin:round;}
</style>
<metadata>
	<sfw  xmlns="&ns_sfw;">
		<slices></slices>
		<sliceSourceBounds  bottomLeftOrigin="true" height="3103.4" width="1679.3" x="654.6" y="448.3"></sliceSourceBounds>
	</sfw>
</metadata>
<line class="st0" x1="1580.2" y1="108.1" x2="1580.5" y2="106.7"/>
<line class="st0" x1="1581.2" y1="176.5" x2="1580.5" y2="176.2"/>
<line class="st0" x1="1580.2" y1="271" x2="1580.5" y2="270.1"/>
<line class="st0" x1="1581.3" y1="340.1" x2="1580.5" y2="339.5"/>
<line class="st0" x1="1580.5" y1="176.2" x2="1580.2" y2="175.1"/>
<line class="st0" x1="1580.5" y1="339.5" x2="1580.2" y2="338"/>
<line class="st0" x1="1579.8" y1="2991.9" x2="1579.8" y2="2991.9"/>
<line class="st0" x1="1579.8" y1="2987.6" x2="1579.8" y2="2991.9"/>
<line class="st0" x1="1579.8" y1="2987.4" x2="1579.8" y2="2987.6"/>
<line class="st0" x1="1579.8" y1="2975.8" x2="1579.8" y2="2987.4"/>
<line class="st0" x1="1675.5" y1="0.6" x2="1676.7" y2="1.8"/>
<line class="st0" x1="1675.5" y1="3100.8" x2="1676.7" y2="3099.6"/>
<line class="st0" x1="1675.6" y1="0.7" x2="1675.6" y2="0.7"/>
<line class="st0" x1="1676" y1="0" x2="1675.6" y2="0.7"/>
<line class="st0" x1="1676" y1="0" x2="1675.5" y2="0.6"/>
<line class="st0" x1="1676" y1="0" x2="1676" y2="0"/>
<line class="st0" x1="1677.2" y1="1.4" x2="1677.3" y2="1.3"/>
<line class="st0" x1="1677" y1="1.5" x2="1677.2" y2="1.4"/>
<line class="st0" x1="1676.8" y1="1.7" x2="1677" y2="1.5"/>
<line class="st0" x1="1676.5" y1="2" x2="1676.8" y2="1.7"/>
<line class="st0" x1="1676.1" y1="2.3" x2="1676.5" y2="2"/>
<line class="st0" x1="1578.1" y1="100.3" x2="1676.1" y2="2.3"/>
<line class="st0" x1="1675.6" y1="3100.7" x2="1675.6" y2="3100.7"/>
<line class="st0" x1="1676" y1="3101.4" x2="1675.5" y2="3100.8"/>
<line class="st0" x1="1676" y1="3101.4" x2="1675.6" y2="3100.7"/>
<line class="st0" x1="1677.3" y1="3100.1" x2="1677.3" y2="1.3"/>
<line class="st0" x1="1676" y1="3101.4" x2="1676" y2="3101.4"/>
<line class="st0" x1="1677.2" y1="3100" x2="1677.3" y2="3100.1"/>
<line class="st0" x1="1677" y1="3099.9" x2="1677.2" y2="3100"/>
<line class="st0" x1="1676.8" y1="3099.7" x2="1677" y2="3099.9"/>
<line class="st0" x1="1676.5" y1="3099.4" x2="1676.8" y2="3099.7"/>
<line class="st0" x1="1676.1" y1="3099" x2="1676.5" y2="3099.4"/>
<line class="st0" x1="1578.1" y1="3001.1" x2="1676.1" y2="3099"/>
<line class="st0" x1="1.8" y1="0.6" x2="0.6" y2="1.8"/>
<line class="st0" x1="1.8" y1="3100.8" x2="0.6" y2="3099.6"/>
<line class="st0" x1="1.6" y1="0.7" x2="1.7" y2="0.7"/>
<line class="st0" x1="1.3" y1="0" x2="1.6" y2="0.7"/>
<line class="st0" x1="0" y1="1.3" x2="0" y2="1.3"/>
<line class="st0" x1="1.3" y1="0" x2="1676" y2="0"/>
<line class="st0" x1="1.3" y1="0" x2="1.3" y2="0"/>
<line class="st0" x1="0.1" y1="1.4" x2="0" y2="1.3"/>
<line class="st0" x1="0.3" y1="1.5" x2="0.1" y2="1.4"/>
<line class="st0" x1="0.5" y1="1.7" x2="0.3" y2="1.5"/>
<line class="st0" x1="0.8" y1="2" x2="0.5" y2="1.7"/>
<line class="st0" x1="1.2" y1="2.3" x2="0.8" y2="2"/>
<line class="st0" x1="99.2" y1="100.4" x2="1.2" y2="2.3"/>
<line class="st0" x1="1.6" y1="3100.7" x2="1.7" y2="3100.6"/>
<line class="st0" x1="0" y1="3100.1" x2="0" y2="1.3"/>
<line class="st0" x1="1.3" y1="3101.4" x2="1.6" y2="3100.7"/>
<line class="st0" x1="0" y1="3100.1" x2="0" y2="3100.1"/>
<line class="st0" x1="1.3" y1="3101.4" x2="1676" y2="3101.4"/>
<line class="st0" x1="1.3" y1="3101.4" x2="1.3" y2="3101.4"/>
<line class="st0" x1="0.1" y1="3100" x2="0" y2="3100.1"/>
<line class="st0" x1="0.3" y1="3099.9" x2="0.1" y2="3100"/>
<line class="st0" x1="0.5" y1="3099.7" x2="0.3" y2="3099.9"/>
<line class="st0" x1="0.8" y1="3099.4" x2="0.5" y2="3099.7"/>
<line class="st0" x1="1.2" y1="3099" x2="0.8" y2="3099.4"/>
<line class="st0" x1="99.2" y1="3001" x2="1.2" y2="3099"/>
<line class="st0" x1="1361.4" y1="318.7" x2="1360.2" y2="317.4"/>
<line class="st0" x1="1361.4" y1="318.7" x2="1360.2" y2="317.4"/>
<line class="st0" x1="1361.4" y1="318.7" x2="1360.2" y2="317.4"/>
<line class="st0" x1="1360.2" y1="2784" x2="1361.4" y2="2782.7"/>
<line class="st0" x1="1360.2" y1="2784" x2="1361.4" y2="2782.7"/>
<line class="st0" x1="1360.2" y1="2784" x2="1361.4" y2="2782.7"/>
<line class="st0" x1="1370.1" y1="309.7" x2="1370.2" y2="309.5"/>
<line class="st0" x1="1369.7" y1="310.1" x2="1370.1" y2="309.7"/>
<line class="st0" x1="1369.3" y1="310.5" x2="1369.7" y2="310.1"/>
<line class="st0" x1="1368.9" y1="310.9" x2="1369.3" y2="310.5"/>
<line class="st0" x1="1368.5" y1="311.4" x2="1368.9" y2="310.9"/>
<line class="st0" x1="1368.1" y1="311.8" x2="1368.5" y2="311.4"/>
<line class="st0" x1="1367.7" y1="312.3" x2="1368.1" y2="311.8"/>
<line class="st0" x1="1367.2" y1="312.7" x2="1367.7" y2="312.3"/>
<line class="st0" x1="1366.8" y1="313.2" x2="1367.2" y2="312.7"/>
<line class="st0" x1="1366.3" y1="313.7" x2="1366.8" y2="313.2"/>
<line class="st0" x1="1365.9" y1="314.2" x2="1366.3" y2="313.7"/>
<line class="st0" x1="1365.4" y1="314.6" x2="1365.9" y2="314.2"/>
<line class="st0" x1="1364.9" y1="315.1" x2="1365.4" y2="314.6"/>
<line class="st0" x1="1364.5" y1="315.6" x2="1364.9" y2="315.1"/>
<line class="st0" x1="1364" y1="316" x2="1364.5" y2="315.6"/>
<line class="st0" x1="1363.6" y1="316.5" x2="1364" y2="316"/>
<line class="st0" x1="1362" y1="318" x2="1363.6" y2="316.5"/>
<line class="st0" x1="1361.8" y1="318.3" x2="1362" y2="318"/>
<line class="st0" x1="1361.6" y1="318.5" x2="1361.8" y2="318.3"/>
<line class="st0" x1="1361.4" y1="318.7" x2="1361.6" y2="318.5"/>
<line class="st0" x1="1361.2" y1="318.9" x2="1361.4" y2="318.7"/>
<line class="st0" x1="1361.1" y1="319" x2="1361.2" y2="318.9"/>
<line class="st0" x1="1359.8" y1="317.7" x2="1360.2" y2="317.4"/>
<line class="st0" x1="1361" y1="319.2" x2="1361.1" y2="319"/>
<line class="st0" x1="1359.6" y1="318" x2="1360.1" y2="317.5"/>
<line class="st0" x1="1360.9" y1="319.2" x2="1361" y2="319.2"/>
<line class="st0" x1="1359.6" y1="318" x2="1359.6" y2="318"/>
<line class="st0" x1="1360.9" y1="319.3" x2="1360.9" y2="319.2"/>
<line class="st0" x1="1359.7" y1="317.9" x2="1359.7" y2="318"/>
<line class="st0" x1="1359.9" y1="317.8" x2="1359.7" y2="317.9"/>
<line class="st0" x1="1360" y1="317.7" x2="1359.9" y2="317.8"/>
<line class="st0" x1="1360.2" y1="317.5" x2="1360" y2="317.7"/>
<line class="st0" x1="1360.2" y1="317.5" x2="1360.2" y2="317.5"/>
<line class="st0" x1="1370.1" y1="2791.7" x2="1370.2" y2="2791.9"/>
<line class="st0" x1="1369.7" y1="2791.3" x2="1370.1" y2="2791.7"/>
<line class="st0" x1="1369.3" y1="2790.9" x2="1369.7" y2="2791.3"/>
<line class="st0" x1="1368.9" y1="2790.4" x2="1369.3" y2="2790.9"/>
<line class="st0" x1="1368.5" y1="2790" x2="1368.9" y2="2790.4"/>
<line class="st0" x1="1368.1" y1="2789.6" x2="1368.5" y2="2790"/>
<line class="st0" x1="1367.7" y1="2789.1" x2="1368.1" y2="2789.6"/>
<line class="st0" x1="1367.2" y1="2788.6" x2="1367.7" y2="2789.1"/>
<line class="st0" x1="1366.8" y1="2788.2" x2="1367.2" y2="2788.6"/>
<line class="st0" x1="1366.3" y1="2787.7" x2="1366.8" y2="2788.2"/>
<line class="st0" x1="1365.9" y1="2787.2" x2="1366.3" y2="2787.7"/>
<line class="st0" x1="1365.4" y1="2786.7" x2="1365.9" y2="2787.2"/>
<line class="st0" x1="1364.9" y1="2786.3" x2="1365.4" y2="2786.7"/>
<line class="st0" x1="1364.5" y1="2785.8" x2="1364.9" y2="2786.3"/>
<line class="st0" x1="1364" y1="2785.3" x2="1364.5" y2="2785.8"/>
<line class="st0" x1="1363.6" y1="2784.9" x2="1364" y2="2785.3"/>
<line class="st0" x1="1362" y1="2783.3" x2="1363.6" y2="2784.9"/>
<line class="st0" x1="1361.8" y1="2783.1" x2="1362" y2="2783.3"/>
<line class="st0" x1="1361.6" y1="2782.9" x2="1361.8" y2="2783.1"/>
<line class="st0" x1="1361.4" y1="2782.7" x2="1361.6" y2="2782.9"/>
<line class="st0" x1="1361.2" y1="2782.5" x2="1361.4" y2="2782.7"/>
<line class="st0" x1="1361.1" y1="2782.3" x2="1361.2" y2="2782.5"/>
<line class="st0" x1="1361" y1="2782.2" x2="1361.1" y2="2782.3"/>
<line class="st0" x1="1360.9" y1="2782.1" x2="1361" y2="2782.2"/>
<line class="st0" x1="1360.9" y1="2782.1" x2="1360.9" y2="319.3"/>
<line class="st0" x1="1360.9" y1="2782.1" x2="1360.9" y2="2782.1"/>
<line class="st0" x1="1359.6" y1="2783.4" x2="1360.2" y2="2784"/>
<line class="st0" x1="1359.6" y1="2783.4" x2="1360.2" y2="2784"/>
<line class="st0" x1="1359.7" y1="2783.4" x2="1359.6" y2="2783.4"/>
<line class="st0" x1="1359.7" y1="2783.5" x2="1359.7" y2="2783.4"/>
<line class="st0" x1="1359.9" y1="2783.6" x2="1359.7" y2="2783.5"/>
<line class="st0" x1="1360" y1="2783.7" x2="1359.9" y2="2783.6"/>
<line class="st0" x1="1360.2" y1="2783.9" x2="1360" y2="2783.7"/>
<line class="st0" x1="1360.2" y1="2783.9" x2="1360.2" y2="2783.9"/>
<line class="st0" x1="315.8" y1="318.7" x2="317.1" y2="317.4"/>
<line class="st0" x1="315.8" y1="318.7" x2="317.1" y2="317.4"/>
<line class="st0" x1="315.8" y1="318.7" x2="317.1" y2="317.4"/>
<line class="st0" x1="317.1" y1="2784" x2="315.8" y2="2782.7"/>
<line class="st0" x1="317.1" y1="2784" x2="315.8" y2="2782.7"/>
<line class="st0" x1="317.1" y1="2784" x2="315.8" y2="2782.7"/>
<line class="st0" x1="307.2" y1="309.7" x2="307" y2="309.5"/>
<line class="st0" x1="307.6" y1="310.1" x2="307.2" y2="309.7"/>
<line class="st0" x1="307.9" y1="310.5" x2="307.6" y2="310.1"/>
<line class="st0" x1="308.3" y1="310.9" x2="307.9" y2="310.5"/>
<line class="st0" x1="308.8" y1="311.4" x2="308.3" y2="310.9"/>
<line class="st0" x1="309.2" y1="311.8" x2="308.8" y2="311.4"/>
<line class="st0" x1="309.6" y1="312.3" x2="309.2" y2="311.8"/>
<line class="st0" x1="310.1" y1="312.7" x2="309.6" y2="312.3"/>
<line class="st0" x1="310.5" y1="313.2" x2="310.1" y2="312.7"/>
<line class="st0" x1="310.9" y1="313.7" x2="310.5" y2="313.2"/>
<line class="st0" x1="311.4" y1="314.2" x2="310.9" y2="313.7"/>
<line class="st0" x1="311.9" y1="314.6" x2="311.4" y2="314.2"/>
<line class="st0" x1="312.3" y1="315.1" x2="311.9" y2="314.6"/>
<line class="st0" x1="312.8" y1="315.6" x2="312.3" y2="315.1"/>
<line class="st0" x1="313.2" y1="316" x2="312.8" y2="315.6"/>
<line class="st0" x1="313.7" y1="316.5" x2="313.2" y2="316"/>
<line class="st0" x1="315.2" y1="318" x2="313.7" y2="316.5"/>
<line class="st0" x1="315.4" y1="318.3" x2="315.2" y2="318"/>
<line class="st0" x1="315.7" y1="318.5" x2="315.4" y2="318.3"/>
<line class="st0" x1="315.9" y1="318.7" x2="315.7" y2="318.5"/>
<line class="st0" x1="316" y1="318.9" x2="315.9" y2="318.7"/>
<line class="st0" x1="316.2" y1="319" x2="316" y2="318.9"/>
<line class="st0" x1="317.5" y1="317.7" x2="317.1" y2="317.4"/>
<line class="st0" x1="316.3" y1="319.2" x2="316.2" y2="319"/>
<line class="st0" x1="317.6" y1="318" x2="317.1" y2="317.5"/>
<line class="st0" x1="316.3" y1="319.2" x2="316.3" y2="319.2"/>
<line class="st0" x1="317.6" y1="318" x2="317.6" y2="318"/>
<line class="st0" x1="316.3" y1="319.3" x2="316.3" y2="319.2"/>
<line class="st0" x1="317.6" y1="318" x2="1359.7" y2="318"/>
<line class="st0" x1="317.5" y1="317.9" x2="317.6" y2="318"/>
<line class="st0" x1="317.4" y1="317.8" x2="317.5" y2="317.9"/>
<line class="st0" x1="317.3" y1="317.7" x2="317.4" y2="317.8"/>
<line class="st0" x1="317.1" y1="317.5" x2="317.3" y2="317.7"/>
<line class="st0" x1="317" y1="317.5" x2="317.1" y2="317.5"/>
<line class="st0" x1="307.2" y1="2791.7" x2="307" y2="2791.8"/>
<line class="st0" x1="307.6" y1="2791.3" x2="307.2" y2="2791.7"/>
<line class="st0" x1="307.9" y1="2790.9" x2="307.6" y2="2791.3"/>
<line class="st0" x1="308.3" y1="2790.4" x2="307.9" y2="2790.9"/>
<line class="st0" x1="308.8" y1="2790" x2="308.3" y2="2790.4"/>
<line class="st0" x1="309.2" y1="2789.6" x2="308.8" y2="2790"/>
<line class="st0" x1="309.6" y1="2789.1" x2="309.2" y2="2789.6"/>
<line class="st0" x1="310.1" y1="2788.6" x2="309.6" y2="2789.1"/>
<line class="st0" x1="310.5" y1="2788.2" x2="310.1" y2="2788.6"/>
<line class="st0" x1="310.9" y1="2787.7" x2="310.5" y2="2788.2"/>
<line class="st0" x1="311.4" y1="2787.2" x2="310.9" y2="2787.7"/>
<line class="st0" x1="311.9" y1="2786.7" x2="311.4" y2="2787.2"/>
<line class="st0" x1="312.3" y1="2786.3" x2="311.9" y2="2786.7"/>
<line class="st0" x1="312.8" y1="2785.8" x2="312.3" y2="2786.3"/>
<line class="st0" x1="313.2" y1="2785.3" x2="312.8" y2="2785.8"/>
<line class="st0" x1="313.7" y1="2784.9" x2="313.2" y2="2785.3"/>
<line class="st0" x1="315.2" y1="2783.3" x2="313.7" y2="2784.9"/>
<line class="st0" x1="315.4" y1="2783.1" x2="315.2" y2="2783.3"/>
<line class="st0" x1="315.7" y1="2782.9" x2="315.4" y2="2783.1"/>
<line class="st0" x1="315.9" y1="2782.7" x2="315.7" y2="2782.9"/>
<line class="st0" x1="316" y1="2782.5" x2="315.9" y2="2782.7"/>
<line class="st0" x1="316.2" y1="2782.3" x2="316" y2="2782.5"/>
<line class="st0" x1="316.3" y1="2782.2" x2="316.2" y2="2782.3"/>
<line class="st0" x1="316.3" y1="2782.1" x2="316.3" y2="2782.2"/>
<line class="st0" x1="317.6" y1="2783.4" x2="317.1" y2="2784"/>
<line class="st0" x1="317.6" y1="2783.4" x2="317.1" y2="2784"/>
<line class="st0" x1="316.3" y1="2782.1" x2="316.3" y2="319.3"/>
<line class="st0" x1="316.3" y1="2782.1" x2="316.3" y2="2782.1"/>
<line class="st0" x1="317.6" y1="2783.4" x2="1359.6" y2="2783.4"/>
<line class="st0" x1="317.6" y1="2783.4" x2="317.6" y2="2783.4"/>
<line class="st0" x1="317.5" y1="2783.5" x2="317.6" y2="2783.4"/>
<line class="st0" x1="317.4" y1="2783.6" x2="317.5" y2="2783.5"/>
<line class="st0" x1="317.3" y1="2783.7" x2="317.4" y2="2783.6"/>
<line class="st0" x1="317.1" y1="2783.9" x2="317.3" y2="2783.7"/>
<line class="st0" x1="317" y1="2783.9" x2="317.1" y2="2783.9"/>
<line class="st0" x1="1369.8" y1="307.3" x2="1371" y2="308.5"/>
<line class="st0" x1="1420.4" y1="253.6" x2="1419.2" y2="252.4"/>
<line class="st0" x1="1369.8" y1="2794.1" x2="1371" y2="2792.9"/>
<line class="st0" x1="1420.4" y1="2847.9" x2="1419.2" y2="2849.1"/>
<line class="st0" x1="1420.8" y1="253.2" x2="1420.9" y2="253.1"/>
<line class="st0" x1="1420.5" y1="253.5" x2="1420.8" y2="253.2"/>
<line class="st0" x1="1420.1" y1="253.8" x2="1420.5" y2="253.5"/>
<line class="st0" x1="1419.7" y1="254.2" x2="1420.1" y2="253.8"/>
<line class="st0" x1="1419.1" y1="254.7" x2="1419.7" y2="254.2"/>
<line class="st0" x1="1418.6" y1="255.2" x2="1419.1" y2="254.7"/>
<line class="st0" x1="1389.8" y1="284.1" x2="1418.6" y2="255.2"/>
<line class="st0" x1="1389.3" y1="284.6" x2="1389.8" y2="284.1"/>
<line class="st0" x1="1388.8" y1="285.1" x2="1389.3" y2="284.6"/>
<line class="st0" x1="1388.3" y1="285.6" x2="1388.8" y2="285.1"/>
<line class="st0" x1="1387.9" y1="286" x2="1388.3" y2="285.6"/>
<line class="st0" x1="1387.5" y1="286.4" x2="1387.9" y2="286"/>
<line class="st0" x1="1387.3" y1="286.8" x2="1387.5" y2="286.4"/>
<line class="st0" x1="1387.1" y1="287" x2="1387.3" y2="286.8"/>
<line class="st0" x1="1370.2" y1="309.5" x2="1387.1" y2="287"/>
<line class="st0" x1="1369.8" y1="307.4" x2="1369" y2="308.2"/>
<line class="st0" x1="1421" y1="253.9" x2="1422" y2="252.9"/>
<line class="st0" x1="1421" y1="253.1" x2="1420.9" y2="253.1"/>
<line class="st0" x1="1419.7" y1="251.9" x2="1419.3" y2="252.5"/>
<line class="st0" x1="1419.7" y1="251.9" x2="1419.7" y2="251.8"/>
<line class="st0" x1="1420.8" y1="2848.2" x2="1420.9" y2="2848.4"/>
<line class="st0" x1="1420.5" y1="2848" x2="1420.8" y2="2848.2"/>
<line class="st0" x1="1420.1" y1="2847.7" x2="1420.5" y2="2848"/>
<line class="st0" x1="1419.7" y1="2847.2" x2="1420.1" y2="2847.7"/>
<line class="st0" x1="1419.1" y1="2846.8" x2="1419.7" y2="2847.2"/>
<line class="st0" x1="1418.6" y1="2846.2" x2="1419.1" y2="2846.8"/>
<line class="st0" x1="1389.8" y1="2817.4" x2="1418.6" y2="2846.2"/>
<line class="st0" x1="1389.3" y1="2816.9" x2="1389.8" y2="2817.4"/>
<line class="st0" x1="1388.8" y1="2816.4" x2="1389.3" y2="2816.9"/>
<line class="st0" x1="1388.3" y1="2815.9" x2="1388.8" y2="2816.4"/>
<line class="st0" x1="1387.9" y1="2815.4" x2="1388.3" y2="2815.9"/>
<line class="st0" x1="1387.5" y1="2815" x2="1387.9" y2="2815.4"/>
<line class="st0" x1="1387.3" y1="2814.7" x2="1387.5" y2="2815"/>
<line class="st0" x1="1387.1" y1="2814.4" x2="1387.3" y2="2814.7"/>
<line class="st0" x1="1370.2" y1="2792" x2="1370.2" y2="309.5"/>
<line class="st0" x1="1370.2" y1="2792" x2="1387.1" y2="2814.4"/>
<line class="st0" x1="1369.8" y1="2794.1" x2="1369" y2="2793.3"/>
<line class="st0" x1="1421" y1="2847.6" x2="1422" y2="2848.6"/>
<line class="st0" x1="1421" y1="2848.4" x2="1421" y2="253.1"/>
<line class="st0" x1="1421" y1="2848.4" x2="1420.9" y2="2848.4"/>
<line class="st0" x1="1419.7" y1="2849.6" x2="1419.3" y2="2849"/>
<line class="st0" x1="1419.7" y1="2849.6" x2="1419.7" y2="2849.7"/>
<line class="st0" x1="307.5" y1="307.3" x2="306.3" y2="308.5"/>
<line class="st0" x1="257" y1="253.6" x2="258.2" y2="252.4"/>
<line class="st0" x1="307.5" y1="2794.1" x2="306.3" y2="2792.9"/>
<line class="st0" x1="257" y1="2847.9" x2="258.2" y2="2849.1"/>
<line class="st0" x1="256.6" y1="253.2" x2="256.5" y2="253.1"/>
<line class="st0" x1="256.9" y1="253.5" x2="256.6" y2="253.2"/>
<line class="st0" x1="257.3" y1="253.8" x2="256.9" y2="253.5"/>
<line class="st0" x1="257.7" y1="254.2" x2="257.3" y2="253.8"/>
<line class="st0" x1="258.2" y1="254.7" x2="257.7" y2="254.2"/>
<line class="st0" x1="258.8" y1="255.2" x2="258.2" y2="254.7"/>
<line class="st0" x1="287.6" y1="284.1" x2="258.8" y2="255.2"/>
<line class="st0" x1="288.1" y1="284.6" x2="287.6" y2="284.1"/>
<line class="st0" x1="288.6" y1="285.1" x2="288.1" y2="284.6"/>
<line class="st0" x1="289" y1="285.6" x2="288.6" y2="285.1"/>
<line class="st0" x1="289.5" y1="286" x2="289" y2="285.6"/>
<line class="st0" x1="289.8" y1="286.4" x2="289.5" y2="286"/>
<line class="st0" x1="290.1" y1="286.8" x2="289.8" y2="286.4"/>
<line class="st0" x1="290.3" y1="287" x2="290.1" y2="286.8"/>
<line class="st0" x1="307" y1="309.5" x2="290.3" y2="287"/>
<line class="st0" x1="308.3" y1="308.2" x2="1369" y2="308.2"/>
<line class="st0" x1="307.5" y1="307.4" x2="308.3" y2="308.2"/>
<line class="st0" x1="256.4" y1="253.9" x2="255.3" y2="252.8"/>
<line class="st0" x1="257.7" y1="251.8" x2="1419.7" y2="251.8"/>
<line class="st0" x1="256.4" y1="253.1" x2="256.5" y2="253.1"/>
<line class="st0" x1="257.7" y1="251.9" x2="258.1" y2="252.5"/>
<line class="st0" x1="257.7" y1="251.9" x2="257.7" y2="251.8"/>
<line class="st0" x1="256.6" y1="2848.2" x2="256.5" y2="2848.4"/>
<line class="st0" x1="256.9" y1="2848" x2="256.6" y2="2848.2"/>
<line class="st0" x1="257.3" y1="2847.7" x2="256.9" y2="2848"/>
<line class="st0" x1="257.7" y1="2847.2" x2="257.3" y2="2847.7"/>
<line class="st0" x1="258.2" y1="2846.8" x2="257.7" y2="2847.2"/>
<line class="st0" x1="258.8" y1="2846.2" x2="258.2" y2="2846.8"/>
<line class="st0" x1="287.6" y1="2817.4" x2="258.8" y2="2846.2"/>
<line class="st0" x1="288.1" y1="2816.9" x2="287.6" y2="2817.4"/>
<line class="st0" x1="288.6" y1="2816.4" x2="288.1" y2="2816.9"/>
<line class="st0" x1="289" y1="2815.9" x2="288.6" y2="2816.4"/>
<line class="st0" x1="289.5" y1="2815.4" x2="289" y2="2815.9"/>
<line class="st0" x1="289.8" y1="2815" x2="289.5" y2="2815.4"/>
<line class="st0" x1="290.1" y1="2814.7" x2="289.8" y2="2815"/>
<line class="st0" x1="290.3" y1="2814.4" x2="290.1" y2="2814.7"/>
<line class="st0" x1="307" y1="2792" x2="307" y2="309.5"/>
<line class="st0" x1="307" y1="2792" x2="290.3" y2="2814.4"/>
<line class="st0" x1="308.3" y1="2793.3" x2="1369" y2="2793.3"/>
<line class="st0" x1="307.5" y1="2794.1" x2="308.3" y2="2793.3"/>
<line class="st0" x1="256.4" y1="2847.6" x2="255.3" y2="2848.6"/>
<line class="st0" x1="257.7" y1="2849.7" x2="1419.7" y2="2849.7"/>
<line class="st0" x1="256.4" y1="2848.4" x2="256.4" y2="253.1"/>
<line class="st0" x1="256.4" y1="2848.4" x2="256.5" y2="2848.4"/>
<line class="st0" x1="257.7" y1="2849.6" x2="258.1" y2="2849"/>
<line class="st0" x1="257.7" y1="2849.6" x2="257.7" y2="2849.7"/>
<line class="st0" x1="218.1" y1="1485.7" x2="218.1" y2="1494.8"/>
<line class="st0" x1="218.1" y1="1483.3" x2="218.1" y2="1485.7"/>
<line class="st0" x1="218.1" y1="1474.2" x2="218.1" y2="1483.3"/>
<line class="st0" x1="218.1" y1="1471.7" x2="218.1" y2="1474.2"/>
<line class="st0" x1="218.1" y1="1462.7" x2="218.1" y2="1471.7"/>
<line class="st0" x1="218.1" y1="1460.2" x2="218.1" y2="1462.7"/>
<line class="st0" x1="218.1" y1="1451.2" x2="218.1" y2="1460.2"/>
<line class="st0" x1="218.1" y1="1448.7" x2="218.1" y2="1451.2"/>
<line class="st0" x1="218.1" y1="1439.7" x2="218.1" y2="1448.7"/>
<line class="st0" x1="218.1" y1="1437.2" x2="218.1" y2="1439.7"/>
<line class="st0" x1="218.1" y1="1433.7" x2="218.1" y2="1437.2"/>
<line class="st0" x1="218.1" y1="1432.8" x2="218.1" y2="1433.7"/>
<line class="st0" x1="216.6" y1="1423.4" x2="218.1" y2="1432.8"/>
<line class="st0" x1="216.2" y1="1420.8" x2="216.6" y2="1423.4"/>
<line class="st0" x1="211.9" y1="1412.3" x2="216.2" y2="1420.8"/>
<line class="st0" x1="210.7" y1="1410" x2="211.9" y2="1412.3"/>
<line class="st0" x1="204" y1="1403.2" x2="210.7" y2="1410"/>
<line class="st0" x1="202.2" y1="1401.4" x2="204" y2="1403.2"/>
<line class="st0" x1="193.7" y1="1397.1" x2="202.2" y2="1401.4"/>
<line class="st0" x1="191.9" y1="1396.2" x2="193.7" y2="1397.1"/>
<line class="st0" x1="197.2" y1="1544.6" x2="199.8" y2="1543.3"/>
<line class="st0" x1="199.8" y1="1543.3" x2="202.2" y2="1542.1"/>
<line class="st0" x1="202.2" y1="1542.1" x2="208.9" y2="1535.4"/>
<line class="st0" x1="208.9" y1="1535.4" x2="210.7" y2="1533.5"/>
<line class="st0" x1="210.7" y1="1533.5" x2="215.1" y2="1525"/>
<line class="st0" x1="215.1" y1="1525" x2="216.2" y2="1522.7"/>
<line class="st0" x1="216.2" y1="1522.7" x2="217.7" y2="1513.3"/>
<line class="st0" x1="217.7" y1="1513.3" x2="218.1" y2="1510.7"/>
<line class="st0" x1="218.1" y1="1507.2" x2="218.1" y2="1510.7"/>
<line class="st0" x1="218.1" y1="1506.3" x2="218.1" y2="1507.2"/>
<line class="st0" x1="218.1" y1="1497.3" x2="218.1" y2="1506.3"/>
<line class="st0" x1="218.1" y1="1494.8" x2="218.1" y2="1497.3"/>
<line class="st0" x1="191.9" y1="1396.2" x2="191.3" y2="1395.9"/>
<line class="st0" x1="1576.3" y1="95.5" x2="1577.4" y2="96.7"/>
<line class="st0" x1="1421.3" y1="250.8" x2="1422.4" y2="251.9"/>
<line class="st0" x1="1576.3" y1="3005.8" x2="1577.4" y2="3004.7"/>
<line class="st0" x1="1421.3" y1="2850.5" x2="1422.4" y2="2849.5"/>
<line class="st0" x1="1576.8" y1="95.2" x2="1576.5" y2="95.8"/>
<line class="st0" x1="1576.8" y1="95" x2="1576.8" y2="95.2"/>
<line class="st0" x1="1577.9" y1="96.4" x2="1578.1" y2="96.3"/>
<line class="st0" x1="1577.3" y1="96.8" x2="1577.9" y2="96.4"/>
<line class="st0" x1="1576.4" y1="97.5" x2="1577.3" y2="96.8"/>
<line class="st0" x1="1575.2" y1="98.6" x2="1576.4" y2="97.5"/>
<line class="st0" x1="1573.9" y1="99.8" x2="1575.2" y2="98.6"/>
<line class="st0" x1="1572.3" y1="101.3" x2="1573.9" y2="99.8"/>
<line class="st0" x1="1570.6" y1="103" x2="1572.3" y2="101.3"/>
<line class="st0" x1="1568.8" y1="104.8" x2="1570.6" y2="103"/>
<line class="st0" x1="1425.7" y1="247.9" x2="1568.8" y2="104.8"/>
<line class="st0" x1="1425" y1="248.6" x2="1425.7" y2="247.9"/>
<line class="st0" x1="1424.3" y1="249.3" x2="1425" y2="248.6"/>
<line class="st0" x1="1423.7" y1="249.9" x2="1424.3" y2="249.3"/>
<line class="st0" x1="1423.3" y1="250.4" x2="1423.7" y2="249.9"/>
<line class="st0" x1="1422.9" y1="250.8" x2="1423.3" y2="250.4"/>
<line class="st0" x1="1422.8" y1="251" x2="1422.9" y2="250.8"/>
<line class="st0" x1="1422" y1="252.7" x2="1422.8" y2="251"/>
<line class="st0" x1="1420.8" y1="251.3" x2="1421.3" y2="250.8"/>
<line class="st0" x1="1420.8" y1="251.3" x2="1420.7" y2="251.4"/>
<line class="st0" x1="1421" y1="251.2" x2="1420.8" y2="251.3"/>
<line class="st0" x1="1421.3" y1="250.9" x2="1421" y2="251.2"/>
<line class="st0" x1="1421.3" y1="250.9" x2="1421.3" y2="250.9"/>
<line class="st0" x1="1576.8" y1="3006.2" x2="1576.5" y2="3005.6"/>
<line class="st0" x1="1578.1" y1="3005.1" x2="1578.1" y2="96.3"/>
<line class="st0" x1="1576.8" y1="3006.4" x2="1576.8" y2="3006.2"/>
<line class="st0" x1="1577.9" y1="3005" x2="1578.1" y2="3005.1"/>
<line class="st0" x1="1577.3" y1="3004.6" x2="1577.9" y2="3005"/>
<line class="st0" x1="1576.4" y1="3003.8" x2="1577.3" y2="3004.6"/>
<line class="st0" x1="1575.2" y1="3002.8" x2="1576.4" y2="3003.8"/>
<line class="st0" x1="1573.9" y1="3001.6" x2="1575.2" y2="3002.8"/>
<line class="st0" x1="1572.3" y1="3000.1" x2="1573.9" y2="3001.6"/>
<line class="st0" x1="1570.6" y1="2998.4" x2="1572.3" y2="3000.1"/>
<line class="st0" x1="1568.8" y1="2996.6" x2="1570.6" y2="2998.4"/>
<line class="st0" x1="1425.7" y1="2853.5" x2="1568.8" y2="2996.6"/>
<line class="st0" x1="1425" y1="2852.8" x2="1425.7" y2="2853.5"/>
<line class="st0" x1="1424.3" y1="2852.1" x2="1425" y2="2852.8"/>
<line class="st0" x1="1423.7" y1="2851.5" x2="1424.3" y2="2852.1"/>
<line class="st0" x1="1423.3" y1="2851" x2="1423.7" y2="2851.5"/>
<line class="st0" x1="1422.9" y1="2850.6" x2="1423.3" y2="2851"/>
<line class="st0" x1="1422.8" y1="2850.4" x2="1422.9" y2="2850.6"/>
<line class="st0" x1="1422" y1="2848.7" x2="1422" y2="252.7"/>
<line class="st0" x1="1422" y1="2848.7" x2="1422.8" y2="2850.4"/>
<line class="st0" x1="1420.8" y1="2850" x2="1421.3" y2="2850.5"/>
<line class="st0" x1="1420.8" y1="2850" x2="1420.7" y2="2850"/>
<line class="st0" x1="1421" y1="2850.2" x2="1420.8" y2="2850"/>
<line class="st0" x1="1421.3" y1="2850.4" x2="1421" y2="2850.2"/>
<line class="st0" x1="1421.3" y1="2850.5" x2="1421.3" y2="2850.4"/>
<line class="st0" x1="101.1" y1="95.5" x2="99.9" y2="96.7"/>
<line class="st0" x1="256.1" y1="250.8" x2="255" y2="251.9"/>
<line class="st0" x1="101.1" y1="3005.8" x2="99.9" y2="3004.7"/>
<line class="st0" x1="256.1" y1="2850.5" x2="255" y2="2849.5"/>
<line class="st0" x1="100.6" y1="95.2" x2="100.8" y2="95.8"/>
<line class="st0" x1="100.5" y1="95" x2="1576.8" y2="95"/>
<line class="st0" x1="100.5" y1="95" x2="100.6" y2="95.2"/>
<line class="st0" x1="99.5" y1="96.4" x2="99.2" y2="96.3"/>
<line class="st0" x1="100.1" y1="96.8" x2="99.5" y2="96.4"/>
<line class="st0" x1="101" y1="97.5" x2="100.1" y2="96.8"/>
<line class="st0" x1="102.1" y1="98.6" x2="101" y2="97.5"/>
<line class="st0" x1="103.5" y1="99.8" x2="102.1" y2="98.6"/>
<line class="st0" x1="105.1" y1="101.3" x2="103.5" y2="99.8"/>
<line class="st0" x1="106.8" y1="103" x2="105.1" y2="101.3"/>
<line class="st0" x1="108.6" y1="104.8" x2="106.8" y2="103"/>
<line class="st0" x1="251.7" y1="247.9" x2="108.6" y2="104.8"/>
<line class="st0" x1="252.4" y1="248.6" x2="251.7" y2="247.9"/>
<line class="st0" x1="253.1" y1="249.3" x2="252.4" y2="248.6"/>
<line class="st0" x1="253.6" y1="249.9" x2="253.1" y2="249.3"/>
<line class="st0" x1="254.1" y1="250.4" x2="253.6" y2="249.9"/>
<line class="st0" x1="254.4" y1="250.8" x2="254.1" y2="250.4"/>
<line class="st0" x1="254.6" y1="251" x2="254.4" y2="250.8"/>
<line class="st0" x1="255.3" y1="252.7" x2="254.6" y2="251"/>
<line class="st0" x1="256.6" y1="251.4" x2="1420.7" y2="251.4"/>
<line class="st0" x1="256.5" y1="251.3" x2="256.6" y2="251.4"/>
<line class="st0" x1="256.3" y1="251.2" x2="256.5" y2="251.3"/>
<line class="st0" x1="256.1" y1="250.9" x2="256.3" y2="251.2"/>
<line class="st0" x1="256" y1="250.9" x2="256.1" y2="250.9"/>
<line class="st0" x1="100.6" y1="3006.2" x2="100.9" y2="3005.6"/>
<line class="st0" x1="99.2" y1="3005.1" x2="99.2" y2="96.3"/>
<line class="st0" x1="100.5" y1="3006.4" x2="1576.8" y2="3006.4"/>
<line class="st0" x1="100.5" y1="3006.4" x2="100.6" y2="3006.2"/>
<line class="st0" x1="99.5" y1="3005" x2="99.2" y2="3005.1"/>
<line class="st0" x1="100.1" y1="3004.6" x2="99.5" y2="3005"/>
<line class="st0" x1="101" y1="3003.8" x2="100.1" y2="3004.6"/>
<line class="st0" x1="102.1" y1="3002.8" x2="101" y2="3003.8"/>
<line class="st0" x1="103.5" y1="3001.6" x2="102.1" y2="3002.8"/>
<line class="st0" x1="105.1" y1="3000.1" x2="103.5" y2="3001.6"/>
<line class="st0" x1="106.8" y1="2998.4" x2="105.1" y2="3000.1"/>
<line class="st0" x1="108.6" y1="2996.6" x2="106.8" y2="2998.4"/>
<line class="st0" x1="251.7" y1="2853.5" x2="108.6" y2="2996.6"/>
<line class="st0" x1="252.4" y1="2852.8" x2="251.7" y2="2853.5"/>
<line class="st0" x1="253.1" y1="2852.1" x2="252.4" y2="2852.8"/>
<line class="st0" x1="253.6" y1="2851.5" x2="253.1" y2="2852.1"/>
<line class="st0" x1="254.1" y1="2851" x2="253.6" y2="2851.5"/>
<line class="st0" x1="254.4" y1="2850.6" x2="254.1" y2="2851"/>
<line class="st0" x1="254.6" y1="2850.4" x2="254.4" y2="2850.6"/>
<line class="st0" x1="255.3" y1="2848.7" x2="255.3" y2="252.7"/>
<line class="st0" x1="255.3" y1="2848.7" x2="254.6" y2="2850.4"/>
<line class="st0" x1="256.6" y1="2850" x2="1420.7" y2="2850"/>
<line class="st0" x1="256.5" y1="2850" x2="256.6" y2="2850"/>
<line class="st0" x1="256.3" y1="2850.2" x2="256.5" y2="2850"/>
<line class="st0" x1="256.1" y1="2850.4" x2="256.3" y2="2850.2"/>
<line class="st0" x1="256" y1="2850.5" x2="256.1" y2="2850.4"/>
<line class="st0" x1="1579.8" y1="2962.4" x2="1579.8" y2="2976.8"/>
<line class="st0" x1="1579.8" y1="2961.3" x2="1579.8" y2="2962.4"/>
<line class="st0" x1="1579.8" y1="2961.3" x2="1579.8" y2="2956.8"/>
<line class="st0" x1="1579.8" y1="2956.7" x2="1579.8" y2="2956.8"/>
<line class="st0" x1="1615.7" y1="173.9" x2="1615.7" y2="267.5"/>
<line class="st0" x1="1583.1" y1="176" x2="1583.3" y2="174.9"/>
<line class="st0" x1="1583.1" y1="177.7" x2="1578.1" y2="177.7"/>
<line class="st0" x1="1583.1" y1="177.7" x2="1583.1" y2="176"/>
<line class="st0" x1="1583.1" y1="266.2" x2="1583.1" y2="264.6"/>
<line class="st0" x1="1583.2" y1="267" x2="1583.1" y2="266.2"/>
<line class="st0" x1="1583.1" y1="176.5" x2="1581.3" y2="176.5"/>
<line class="st0" x1="1580.2" y1="115" x2="1580.2" y2="108.2"/>
<line class="st0" x1="1615.7" y1="268.9" x2="1615.7" y2="267.5"/>
<line class="st0" x1="1585.8" y1="340.1" x2="1581.3" y2="340.1"/>
<line class="st0" x1="1585.8" y1="340.1" x2="1597.3" y2="340.1"/>
<line class="st0" x1="1580.2" y1="275.6" x2="1580.2" y2="271.1"/>
<line class="st0" x1="1614.4" y1="175" x2="1614.4" y2="176.7"/>
<line class="st0" x1="1614.4" y1="263.7" x2="1614.4" y2="265.3"/>
<line class="st0" x1="1583.1" y1="266.1" x2="1578.1" y2="266.1"/>
<line class="st0" x1="1614.1" y1="173.9" x2="1614.4" y2="175"/>
<line class="st0" x1="1613.1" y1="172.8" x2="1614.1" y2="173.9"/>
<line class="st0" x1="1613.1" y1="172.8" x2="1612.4" y2="172.5"/>
<line class="st0" x1="1609.9" y1="171.6" x2="1612.4" y2="172.5"/>
<line class="st0" x1="1605.7" y1="171" x2="1609.9" y2="171.6"/>
<line class="st0" x1="1600.5" y1="170.8" x2="1605.7" y2="171"/>
<line class="st0" x1="1595.1" y1="171" x2="1600.5" y2="170.8"/>
<line class="st0" x1="1590.2" y1="171.6" x2="1595.1" y2="171"/>
<line class="st0" x1="1586.8" y1="172.6" x2="1590.2" y2="171.6"/>
<line class="st0" x1="1586.1" y1="172.9" x2="1586.8" y2="172.6"/>
<line class="st0" x1="1583.9" y1="173.9" x2="1583.3" y2="174.9"/>
<line class="st0" x1="1583.9" y1="173.9" x2="1586.1" y2="172.9"/>
<line class="st0" x1="1614.2" y1="266.3" x2="1614.4" y2="265.3"/>
<line class="st0" x1="1615.7" y1="172.8" x2="1615.7" y2="173.9"/>
<line class="st0" x1="1580.2" y1="170.7" x2="1580.2" y2="115"/>
<line class="st0" x1="1580.2" y1="170.7" x2="1580.2" y2="175.1"/>
<line class="st0" x1="1600.6" y1="100" x2="1606.1" y2="100.2"/>
<line class="st0" x1="1594.8" y1="100.2" x2="1600.6" y2="100"/>
<line class="st0" x1="1589.6" y1="100.9" x2="1594.8" y2="100.2"/>
<line class="st0" x1="1585.9" y1="101.9" x2="1589.6" y2="100.9"/>
<line class="st0" x1="1585.9" y1="101.9" x2="1583.6" y2="102.9"/>
<line class="st0" x1="1582.8" y1="103.4" x2="1583.6" y2="102.9"/>
<line class="st0" x1="1581.7" y1="104.2" x2="1582.8" y2="103.4"/>
<line class="st0" x1="1580.9" y1="105.8" x2="1581.7" y2="104.2"/>
<line class="st0" x1="1580.5" y1="106.7" x2="1580.9" y2="105.8"/>
<line class="st0" x1="1615.5" y1="104.2" x2="1615.7" y2="105.8"/>
<line class="st0" x1="1615.3" y1="103.4" x2="1615.5" y2="104.2"/>
<line class="st0" x1="1610.6" y1="100.9" x2="1606.1" y2="100.2"/>
<line class="st0" x1="1613.3" y1="101.9" x2="1610.6" y2="100.9"/>
<line class="st0" x1="1614" y1="102.3" x2="1615.3" y2="103.4"/>
<line class="st0" x1="1614" y1="102.3" x2="1613.3" y2="101.9"/>
<line class="st0" x1="1615.7" y1="112.5" x2="1615.7" y2="105.8"/>
<line class="st0" x1="1615.7" y1="168.3" x2="1615.7" y2="172.8"/>
<line class="st0" x1="1615.7" y1="168.3" x2="1615.7" y2="112.5"/>
<line class="st0" x1="1615.7" y1="335.9" x2="1615.5" y2="337.5"/>
<line class="st0" x1="1580.2" y1="331.2" x2="1580.2" y2="275.6"/>
<line class="st0" x1="1580.2" y1="331.2" x2="1580.2" y2="338"/>
<line class="st0" x1="1615.6" y1="268.2" x2="1615.7" y2="268.9"/>
<line class="st0" x1="1600.6" y1="264.2" x2="1606.1" y2="264.4"/>
<line class="st0" x1="1594.8" y1="264.4" x2="1600.6" y2="264.2"/>
<line class="st0" x1="1589.6" y1="265" x2="1594.8" y2="264.4"/>
<line class="st0" x1="1585.9" y1="265.9" x2="1589.6" y2="265"/>
<line class="st0" x1="1585.9" y1="265.9" x2="1583.6" y2="266.8"/>
<line class="st0" x1="1582.8" y1="267.2" x2="1581.7" y2="267.9"/>
<line class="st0" x1="1582.8" y1="267.2" x2="1583.6" y2="266.8"/>
<line class="st0" x1="1581.4" y1="268.5" x2="1581.7" y2="267.9"/>
<line class="st0" x1="1580.5" y1="270.1" x2="1581.4" y2="268.5"/>
<line class="st0" x1="1615.3" y1="267.2" x2="1615.7" y2="267.5"/>
<line class="st0" x1="1615.3" y1="267.2" x2="1615.6" y2="268.2"/>
<line class="st0" x1="1610.6" y1="265" x2="1606.1" y2="264.4"/>
<line class="st0" x1="1613.3" y1="265.9" x2="1610.6" y2="265"/>
<line class="st0" x1="1614" y1="266.2" x2="1615.3" y2="267.2"/>
<line class="st0" x1="1614" y1="266.2" x2="1613.3" y2="265.9"/>
<line class="st0" x1="1608.8" y1="340.1" x2="1597.3" y2="340.1"/>
<line class="st0" x1="1613.3" y1="340.1" x2="1608.8" y2="340.1"/>
<line class="st0" x1="1615.1" y1="338.1" x2="1615.5" y2="337.5"/>
<line class="st0" x1="1614.1" y1="339.5" x2="1613.3" y2="340.1"/>
<line class="st0" x1="1614.1" y1="339.5" x2="1615.1" y2="338.1"/>
<line class="st0" x1="1615.7" y1="273.4" x2="1615.7" y2="268.9"/>
<line class="st0" x1="1615.7" y1="329.2" x2="1615.7" y2="335.9"/>
<line class="st0" x1="1615.7" y1="329.2" x2="1615.7" y2="273.4"/>
<line class="st0" x1="1614.4" y1="261.8" x2="1614.4" y2="263.7"/>
<line class="st0" x1="1614.4" y1="178.5" x2="1614.4" y2="176.7"/>
<line class="st0" x1="1614.4" y1="178.5" x2="1614.4" y2="261.8"/>
<line class="st0" x1="1580" y1="2992.4" x2="1579.8" y2="2991.9"/>
<line class="st0" x1="1581.7" y1="2994.8" x2="1580" y2="2992.4"/>
<line class="st0" x1="1588.5" y1="2958.3" x2="1587.6" y2="2956.7"/>
<line class="st0" x1="1610" y1="2958.3" x2="1608.8" y2="2955.9"/>
<line class="st0" x1="1592.5" y1="2963.5" x2="1598.1" y2="2963.5"/>
<line class="st0" x1="1592.5" y1="2963.5" x2="1591.9" y2="2963.5"/>
<line class="st0" x1="1591.9" y1="2962.7" x2="1591.7" y2="2962.5"/>
<line class="st0" x1="1591.9" y1="2963.7" x2="1591.9" y2="2962.7"/>
<line class="st0" x1="1591.2" y1="2961.7" x2="1588.5" y2="2958.3"/>
<line class="st0" x1="1591.2" y1="2961.7" x2="1591.7" y2="2962.5"/>
<line class="st0" x1="1584.7" y1="2997" x2="1581.7" y2="2994.8"/>
<line class="st0" x1="1584.7" y1="2997" x2="1585" y2="2997.2"/>
<line class="st0" x1="1585.5" y1="2997.5" x2="1585" y2="2997.2"/>
<line class="st0" x1="1590.1" y1="2997.5" x2="1590.8" y2="2997.5"/>
<line class="st0" x1="1590.1" y1="2997.5" x2="1585.5" y2="2997.5"/>
<line class="st0" x1="1592.4" y1="2997.5" x2="1597.9" y2="2997.5"/>
<line class="st0" x1="1591.6" y1="2997.5" x2="1590.8" y2="2997.5"/>
<line class="st0" x1="1591.6" y1="2997.5" x2="1592.4" y2="2997.5"/>
<line class="st0" x1="1610.7" y1="2970.1" x2="1610.5" y2="2993.5"/>
<line class="st0" x1="1610.7" y1="2962.7" x2="1610.6" y2="2962"/>
<line class="st0" x1="1610.7" y1="2963.7" x2="1610.7" y2="2964.4"/>
<line class="st0" x1="1610.7" y1="2963.7" x2="1610.7" y2="2962.7"/>
<line class="st0" x1="1610.5" y1="2961.7" x2="1610" y2="2958.3"/>
<line class="st0" x1="1610.5" y1="2961.7" x2="1610.6" y2="2962"/>
<line class="st0" x1="1603.7" y1="2963.5" x2="1598.1" y2="2963.5"/>
<line class="st0" x1="1603.7" y1="2963.5" x2="1604.5" y2="2963.5"/>
<line class="st0" x1="1610.7" y1="2969" x2="1610.7" y2="2970.1"/>
<line class="st0" x1="1610.7" y1="2969" x2="1610.7" y2="2964.4"/>
<line class="st0" x1="1610.4" y1="2997.5" x2="1610.5" y2="2993.5"/>
<line class="st0" x1="1605.8" y1="2997.5" x2="1605.1" y2="2997.5"/>
<line class="st0" x1="1605.8" y1="2997.5" x2="1610.4" y2="2997.5"/>
<line class="st0" x1="1603.5" y1="2997.5" x2="1597.9" y2="2997.5"/>
<line class="st0" x1="1604.3" y1="2997.5" x2="1605.1" y2="2997.5"/>
<line class="st0" x1="1604.3" y1="2997.5" x2="1603.5" y2="2997.5"/>
<line class="st0" x1="1602.8" y1="2956.6" x2="1602.8" y2="2963.5"/>
<line class="st0" x1="1590.3" y1="2956.7" x2="1590.3" y2="2960.6"/>
<line class="st0" x1="1605.1" y1="2956.5" x2="1599.8" y2="2956.7"/>
<line class="st0" x1="1609.4" y1="2955.8" x2="1605.1" y2="2956.5"/>
<line class="st0" x1="1612" y1="2954.9" x2="1609.4" y2="2955.8"/>
<line class="st0" x1="1579" y1="2956.7" x2="1578.1" y2="2956.7"/>
<line class="st0" x1="1579.9" y1="2956.7" x2="1579" y2="2956.7"/>
<line class="st0" x1="1583.6" y1="2956.7" x2="1579.9" y2="2956.7"/>
<line class="st0" x1="1585.5" y1="2956.7" x2="1583.6" y2="2956.7"/>
<line class="st0" x1="1588.3" y1="2956.7" x2="1585.5" y2="2956.7"/>
<line class="st0" x1="1594.3" y1="2956.7" x2="1599.8" y2="2956.7"/>
<line class="st0" x1="1594.3" y1="2956.7" x2="1588.3" y2="2956.7"/>
<line class="st0" x1="1612.5" y1="2953.8" x2="1612.5" y2="2953.2"/>
<line class="st0" x1="1612.5" y1="2953.8" x2="1612" y2="2954.9"/>
<line class="st0" x1="1612.5" y1="2746.1" x2="1612.5" y2="2953.2"/>
<line class="st0" x1="1612.5" y1="2720" x2="1612.5" y2="2746.1"/>
<line class="st0" x1="1580.6" y1="2704.1" x2="1578.1" y2="2704.1"/>
<line class="st0" x1="1582.5" y1="2704.1" x2="1580.6" y2="2704.1"/>
<line class="st0" x1="1596.7" y1="2710" x2="1591.3" y2="2707.7"/>
<line class="st0" x1="1612.5" y1="2718.1" x2="1612.5" y2="2720"/>
<line class="st0" x1="1612.5" y1="2718.1" x2="1610.8" y2="2716.8"/>
<line class="st0" x1="1602.2" y1="2712.4" x2="1596.7" y2="2710"/>
<line class="st0" x1="1607.2" y1="2714.8" x2="1610.8" y2="2716.8"/>
<line class="st0" x1="1607.2" y1="2714.8" x2="1602.2" y2="2712.4"/>
<line class="st0" x1="1585.3" y1="2705.3" x2="1582.5" y2="2704.1"/>
<line class="st0" x1="1585.3" y1="2705.3" x2="1591.3" y2="2707.7"/>
<line class="st0" x1="191.3" y1="1395.9" x2="189.5" y2="1395.4"/>
<line class="st0" x1="189.4" y1="1395.4" x2="189.5" y2="1395.4"/>
<line class="st0" x1="189.3" y1="1395.4" x2="189.4" y2="1395.4"/>
<line class="st0" x1="137.8" y1="1494.6" x2="137.8" y2="1483"/>
<line class="st0" x1="137.8" y1="1506.1" x2="137.8" y2="1494.6"/>
<line class="st0" x1="137.8" y1="1510.6" x2="137.8" y2="1506.1"/>
<line class="st0" x1="137.8" y1="1510.6" x2="139.5" y2="1521.3"/>
<line class="st0" x1="137.8" y1="1448.3" x2="137.8" y2="1459.9"/>
<line class="st0" x1="137.8" y1="1436.7" x2="137.8" y2="1448.3"/>
<line class="st0" x1="137.8" y1="1471.4" x2="137.8" y2="1483"/>
<line class="st0" x1="137.8" y1="1471.4" x2="137.8" y2="1459.9"/>
<line class="st0" x1="188.8" y1="1395.3" x2="188.9" y2="1395.3"/>
<line class="st0" x1="176.7" y1="1393.3" x2="188.8" y2="1395.3"/>
<line class="st0" x1="164.7" y1="1395.3" x2="176.7" y2="1393.3"/>
<line class="st0" x1="153.9" y1="1400.8" x2="164.7" y2="1395.3"/>
<line class="st0" x1="145.2" y1="1409.4" x2="153.9" y2="1400.8"/>
<line class="st0" x1="139.7" y1="1420.3" x2="145.2" y2="1409.4"/>
<line class="st0" x1="137.8" y1="1432.3" x2="137.8" y2="1436.7"/>
<line class="st0" x1="137.8" y1="1432.3" x2="139.7" y2="1420.3"/>
<line class="st0" x1="216.2" y1="1483" x2="216.2" y2="1494.6"/>
<line class="st0" x1="216.2" y1="1506.2" x2="216.2" y2="1494.6"/>
<line class="st0" x1="216.2" y1="1510.6" x2="216.2" y2="1506.2"/>
<line class="st0" x1="214.3" y1="1522.6" x2="216.2" y2="1510.6"/>
<line class="st0" x1="208.8" y1="1533.5" x2="214.3" y2="1522.6"/>
<line class="st0" x1="200.1" y1="1542.1" x2="208.8" y2="1533.5"/>
<line class="st0" x1="197.2" y1="1543.5" x2="200.1" y2="1542.1"/>
<line class="st0" x1="216.2" y1="1459.9" x2="216.2" y2="1448.4"/>
<line class="st0" x1="216.2" y1="1436.8" x2="216.2" y2="1448.4"/>
<line class="st0" x1="216.2" y1="1471.5" x2="216.2" y2="1483"/>
<line class="st0" x1="216.2" y1="1471.5" x2="216.2" y2="1459.9"/>
<line class="st0" x1="216.2" y1="1432.4" x2="216.2" y2="1436.8"/>
<line class="st0" x1="214.3" y1="1420.4" x2="216.2" y2="1432.4"/>
<line class="st0" x1="208.8" y1="1409.5" x2="214.3" y2="1420.4"/>
<line class="st0" x1="200.1" y1="1400.9" x2="208.8" y2="1409.5"/>
<line class="st0" x1="189.3" y1="1395.4" x2="188.9" y2="1395.3"/>
<line class="st0" x1="189.3" y1="1395.4" x2="200.1" y2="1400.9"/>
<line class="st0" x1="193.4" y1="1728" x2="192.9" y2="1758.7"/>
<line class="st0" x1="194" y1="1693.5" x2="193.4" y2="1728"/>
<line class="st0" x1="194.7" y1="1658.6" x2="194" y2="1693.5"/>
<line class="st0" x1="195.5" y1="1623.6" x2="194.7" y2="1658.6"/>
<line class="st0" x1="196.3" y1="1588.5" x2="195.5" y2="1623.6"/>
<line class="st0" x1="146.9" y1="1730.9" x2="148.3" y2="1761.5"/>
<line class="st0" x1="145.3" y1="1695.8" x2="146.9" y2="1730.9"/>
<line class="st0" x1="143.9" y1="1660.5" x2="145.3" y2="1695.8"/>
<line class="st0" x1="142.6" y1="1624.9" x2="143.9" y2="1660.5"/>
<line class="st0" x1="141.4" y1="1589.2" x2="142.6" y2="1624.9"/>
<line class="st0" x1="197.3" y1="1538.3" x2="196.3" y2="1588.5"/>
<line class="st0" x1="140.3" y1="1538.3" x2="141.4" y2="1589.2"/>
<line class="st0" x1="139.7" y1="1468.8" x2="139.7" y2="1473.6"/>
<line class="st0" x1="141.9" y1="1451.8" x2="141.5" y2="1452.2"/>
<line class="st0" x1="140.1" y1="1455.2" x2="140.2" y2="1454.9"/>
<line class="st0" x1="146.5" y1="1448.2" x2="141.9" y2="1451.8"/>
<line class="st0" x1="139.2" y1="1496.3" x2="139.2" y2="1509.6"/>
<line class="st0" x1="139.2" y1="1496.3" x2="140.1" y2="1460.2"/>
<line class="st0" x1="139.2" y1="1516" x2="139.2" y2="1509.6"/>
<line class="st0" x1="139.2" y1="1516" x2="140.3" y2="1538.3"/>
<line class="st0" x1="148.4" y1="1764.6" x2="148.3" y2="1761.5"/>
<line class="st0" x1="191.5" y1="1764.6" x2="191.6" y2="1764.3"/>
<line class="st0" x1="148.6" y1="1765.5" x2="148.4" y2="1764.6"/>
<line class="st0" x1="190.7" y1="1765.5" x2="191.5" y2="1764.6"/>
<line class="st0" x1="198.5" y1="1516" x2="198.5" y2="1509.7"/>
<line class="st0" x1="198.5" y1="1516" x2="197.3" y2="1538.3"/>
<line class="st0" x1="211.9" y1="1477" x2="208.4" y2="1487.8"/>
<line class="st0" x1="211.9" y1="1465.6" x2="211.9" y2="1477"/>
<line class="st0" x1="208.4" y1="1454.7" x2="211.9" y2="1465.6"/>
<line class="st0" x1="201.7" y1="1445.5" x2="208.4" y2="1454.7"/>
<line class="st0" x1="192.5" y1="1438.8" x2="201.7" y2="1445.5"/>
<line class="st0" x1="181.6" y1="1435.3" x2="192.5" y2="1438.8"/>
<line class="st0" x1="201.7" y1="1497" x2="208.4" y2="1487.8"/>
<line class="st0" x1="201.7" y1="1497" x2="201.4" y2="1497.2"/>
<line class="st0" x1="181.5" y1="1435.3" x2="181.6" y2="1435.3"/>
<line class="st0" x1="170.1" y1="1435.3" x2="181.5" y2="1435.3"/>
<line class="st0" x1="159.3" y1="1438.8" x2="170.1" y2="1435.3"/>
<line class="st0" x1="150.1" y1="1445.5" x2="146.5" y2="1448.2"/>
<line class="st0" x1="150.1" y1="1445.5" x2="159.3" y2="1438.8"/>
<line class="st0" x1="201.6" y1="1497" x2="198.5" y2="1501.2"/>
<line class="st0" x1="139.7" y1="1469.2" x2="139.7" y2="1468.8"/>
<line class="st0" x1="139.7" y1="1473.2" x2="139.7" y2="1473.6"/>
<line class="st0" x1="139.7" y1="1473.2" x2="139.7" y2="1469.2"/>
<line class="st0" x1="139.8" y1="1458.3" x2="140.1" y2="1455.2"/>
<line class="st0" x1="198.5" y1="1501" x2="198.5" y2="1509.7"/>
<line class="st0" x1="205" y1="1491.5" x2="198.5" y2="1501"/>
<line class="st0" x1="192.8" y1="1761.7" x2="192.9" y2="1758.7"/>
<line class="st0" x1="192.8" y1="1761.7" x2="191.6" y2="1764.3"/>
<line class="st0" x1="149.4" y1="1768" x2="148.6" y2="1765.5"/>
<line class="st0" x1="156.1" y1="1768.1" x2="149.4" y2="1768"/>
<line class="st0" x1="164.2" y1="1768.1" x2="156.1" y2="1768.1"/>
<line class="st0" x1="172.8" y1="1768.1" x2="164.2" y2="1768.1"/>
<line class="st0" x1="181.1" y1="1768.1" x2="172.8" y2="1768.1"/>
<line class="st0" x1="188.4" y1="1768" x2="190.7" y2="1765.5"/>
<line class="st0" x1="188.4" y1="1768" x2="181.1" y2="1768.1"/>
<line class="st0" x1="149.6" y1="1446.4" x2="150.9" y2="1445.4"/>
<line class="st0" x1="140.5" y1="1453.2" x2="141.5" y2="1452.2"/>
<line class="st0" x1="140.5" y1="1453.2" x2="140.2" y2="1454.9"/>
<line class="st0" x1="140.5" y1="1453.2" x2="149.6" y2="1446.4"/>
<line class="st0" x1="139.6" y1="1465.5" x2="139.8" y2="1458.3"/>
<line class="st0" x1="139.6" y1="1476.9" x2="139.6" y2="1477.9"/>
<line class="st0" x1="139.6" y1="1476.9" x2="139.6" y2="1465.5"/>
</svg>
