<?xml version="1.0" encoding="utf-8"?>
<!-- Generator: Adobe Illustrator 23.0.1, SVG Export Plug-In . SVG Version: 6.00 Build 0)  -->
<!DOCTYPE svg PUBLIC "-//W3C//DTD SVG 1.1//EN" "http://www.w3.org/Graphics/SVG/1.1/DTD/svg11.dtd" [
	<!ENTITY ns_extend "http://ns.adobe.com/Extensibility/1.0/">
	<!ENTITY ns_ai "http://ns.adobe.com/AdobeIllustrator/10.0/">
	<!ENTITY ns_graphs "http://ns.adobe.com/Graphs/1.0/">
	<!ENTITY ns_vars "http://ns.adobe.com/Variables/1.0/">
	<!ENTITY ns_imrep "http://ns.adobe.com/ImageReplacement/1.0/">
	<!ENTITY ns_sfw "http://ns.adobe.com/SaveForWeb/1.0/">
	<!ENTITY ns_custom "http://ns.adobe.com/GenericCustomNamespace/1.0/">
	<!ENTITY ns_adobe_xpath "http://ns.adobe.com/XPath/1.0/">
]>
<svg version="1.1" id="Layer_1" xmlns:x="&ns_extend;" xmlns:i="&ns_ai;" xmlns:graph="&ns_graphs;"
	 xmlns="http://www.w3.org/2000/svg" xmlns:xlink="http://www.w3.org/1999/xlink" x="0px" y="0px" viewBox="0 0 1679.3 3103.4"
	 style="enable-background:new 0 0 1679.3 3103.4;" xml:space="preserve">
<style type="text/css">
	.st0{fill:none;stroke:#FFFFFF;stroke-width:2;stroke-linecap:round;stroke-linejoin:round;}
</style>
<metadata>
	<sfw  xmlns="&ns_sfw;">
		<slices></slices>
		<sliceSourceBounds  bottomLeftOrigin="true" height="3103.4" width="1679.3" x="654.6" y="448.3"></sliceSourceBounds>
	</sfw>
</metadata>
<line class="st0" x1="1581.2" y1="109.1" x2="1581.5" y2="107.7"/>
<line class="st0" x1="1582.2" y1="177.5" x2="1581.5" y2="177.2"/>
<line class="st0" x1="1581.2" y1="272" x2="1581.5" y2="271.1"/>
<line class="st0" x1="1582.3" y1="341.1" x2="1581.5" y2="340.5"/>
<line class="st0" x1="1581.5" y1="177.2" x2="1581.2" y2="176.1"/>
<line class="st0" x1="1581.5" y1="340.5" x2="1581.2" y2="339"/>
<line class="st0" x1="1580.8" y1="2992.9" x2="1580.8" y2="2992.9"/>
<line class="st0" x1="1580.8" y1="2988.6" x2="1580.8" y2="2992.9"/>
<line class="st0" x1="1580.8" y1="2988.4" x2="1580.8" y2="2988.6"/>
<line class="st0" x1="1580.8" y1="2976.8" x2="1580.8" y2="2988.4"/>
<line class="st0" x1="1676.5" y1="1.6" x2="1677.7" y2="2.8"/>
<line class="st0" x1="1676.5" y1="3101.8" x2="1677.7" y2="3100.6"/>
<line class="st0" x1="1676.6" y1="1.7" x2="1676.6" y2="1.7"/>
<line class="st0" x1="1677" y1="1" x2="1676.6" y2="1.7"/>
<line class="st0" x1="1677" y1="1" x2="1676.5" y2="1.6"/>
<line class="st0" x1="1677" y1="1" x2="1677" y2="1"/>
<line class="st0" x1="1678.2" y1="2.4" x2="1678.3" y2="2.3"/>
<line class="st0" x1="1678" y1="2.5" x2="1678.2" y2="2.4"/>
<line class="st0" x1="1677.8" y1="2.7" x2="1678" y2="2.5"/>
<line class="st0" x1="1677.5" y1="3" x2="1677.8" y2="2.7"/>
<line class="st0" x1="1677.1" y1="3.3" x2="1677.5" y2="3"/>
<line class="st0" x1="1579.1" y1="101.3" x2="1677.1" y2="3.3"/>
<line class="st0" x1="1676.6" y1="3101.7" x2="1676.6" y2="3101.7"/>
<line class="st0" x1="1677" y1="3102.4" x2="1676.5" y2="3101.8"/>
<line class="st0" x1="1677" y1="3102.4" x2="1676.6" y2="3101.7"/>
<line class="st0" x1="1678.3" y1="3101.1" x2="1678.3" y2="2.3"/>
<line class="st0" x1="1677" y1="3102.4" x2="1677" y2="3102.4"/>
<line class="st0" x1="1678.2" y1="3101" x2="1678.3" y2="3101.1"/>
<line class="st0" x1="1678" y1="3100.9" x2="1678.2" y2="3101"/>
<line class="st0" x1="1677.8" y1="3100.7" x2="1678" y2="3100.9"/>
<line class="st0" x1="1677.5" y1="3100.4" x2="1677.8" y2="3100.7"/>
<line class="st0" x1="1677.1" y1="3100" x2="1677.5" y2="3100.4"/>
<line class="st0" x1="1579.1" y1="3002.1" x2="1677.1" y2="3100"/>
<line class="st0" x1="2.8" y1="1.6" x2="1.6" y2="2.8"/>
<line class="st0" x1="2.8" y1="3101.8" x2="1.6" y2="3100.6"/>
<line class="st0" x1="2.6" y1="1.7" x2="2.7" y2="1.7"/>
<line class="st0" x1="2.3" y1="1" x2="2.6" y2="1.7"/>
<line class="st0" x1="1" y1="2.3" x2="1" y2="2.3"/>
<line class="st0" x1="2.3" y1="1" x2="1677" y2="1"/>
<line class="st0" x1="2.3" y1="1" x2="2.3" y2="1"/>
<line class="st0" x1="1.1" y1="2.4" x2="1" y2="2.3"/>
<line class="st0" x1="1.3" y1="2.5" x2="1.1" y2="2.4"/>
<line class="st0" x1="1.5" y1="2.7" x2="1.3" y2="2.5"/>
<line class="st0" x1="1.8" y1="3" x2="1.5" y2="2.7"/>
<line class="st0" x1="2.2" y1="3.3" x2="1.8" y2="3"/>
<line class="st0" x1="100.2" y1="101.4" x2="2.2" y2="3.3"/>
<line class="st0" x1="2.6" y1="3101.7" x2="2.7" y2="3101.6"/>
<line class="st0" x1="1" y1="3101.1" x2="1" y2="2.3"/>
<line class="st0" x1="2.3" y1="3102.4" x2="2.6" y2="3101.7"/>
<line class="st0" x1="1" y1="3101.1" x2="1" y2="3101.1"/>
<line class="st0" x1="2.3" y1="3102.4" x2="1677" y2="3102.4"/>
<line class="st0" x1="2.3" y1="3102.4" x2="2.3" y2="3102.4"/>
<line class="st0" x1="1.1" y1="3101" x2="1" y2="3101.1"/>
<line class="st0" x1="1.3" y1="3100.9" x2="1.1" y2="3101"/>
<line class="st0" x1="1.5" y1="3100.7" x2="1.3" y2="3100.9"/>
<line class="st0" x1="1.8" y1="3100.4" x2="1.5" y2="3100.7"/>
<line class="st0" x1="2.2" y1="3100" x2="1.8" y2="3100.4"/>
<line class="st0" x1="100.2" y1="3002" x2="2.2" y2="3100"/>
<line class="st0" x1="1362.4" y1="319.7" x2="1361.2" y2="318.4"/>
<line class="st0" x1="1362.4" y1="319.7" x2="1361.2" y2="318.4"/>
<line class="st0" x1="1362.4" y1="319.7" x2="1361.2" y2="318.4"/>
<line class="st0" x1="1361.2" y1="2785" x2="1362.4" y2="2783.7"/>
<line class="st0" x1="1361.2" y1="2785" x2="1362.4" y2="2783.7"/>
<line class="st0" x1="1361.2" y1="2785" x2="1362.4" y2="2783.7"/>
<line class="st0" x1="1371.1" y1="310.7" x2="1371.2" y2="310.5"/>
<line class="st0" x1="1370.7" y1="311.1" x2="1371.1" y2="310.7"/>
<line class="st0" x1="1370.3" y1="311.5" x2="1370.7" y2="311.1"/>
<line class="st0" x1="1369.9" y1="311.9" x2="1370.3" y2="311.5"/>
<line class="st0" x1="1369.5" y1="312.4" x2="1369.9" y2="311.9"/>
<line class="st0" x1="1369.1" y1="312.8" x2="1369.5" y2="312.4"/>
<line class="st0" x1="1368.7" y1="313.3" x2="1369.1" y2="312.8"/>
<line class="st0" x1="1368.2" y1="313.7" x2="1368.7" y2="313.3"/>
<line class="st0" x1="1367.8" y1="314.2" x2="1368.2" y2="313.7"/>
<line class="st0" x1="1367.3" y1="314.7" x2="1367.8" y2="314.2"/>
<line class="st0" x1="1366.9" y1="315.2" x2="1367.3" y2="314.7"/>
<line class="st0" x1="1366.4" y1="315.6" x2="1366.9" y2="315.2"/>
<line class="st0" x1="1365.9" y1="316.1" x2="1366.4" y2="315.6"/>
<line class="st0" x1="1365.5" y1="316.6" x2="1365.9" y2="316.1"/>
<line class="st0" x1="1365" y1="317" x2="1365.5" y2="316.6"/>
<line class="st0" x1="1364.6" y1="317.5" x2="1365" y2="317"/>
<line class="st0" x1="1363" y1="319" x2="1364.6" y2="317.5"/>
<line class="st0" x1="1362.8" y1="319.3" x2="1363" y2="319"/>
<line class="st0" x1="1362.6" y1="319.5" x2="1362.8" y2="319.3"/>
<line class="st0" x1="1362.4" y1="319.7" x2="1362.6" y2="319.5"/>
<line class="st0" x1="1362.2" y1="319.9" x2="1362.4" y2="319.7"/>
<line class="st0" x1="1362.1" y1="320" x2="1362.2" y2="319.9"/>
<line class="st0" x1="1360.8" y1="318.7" x2="1361.2" y2="318.4"/>
<line class="st0" x1="1362" y1="320.2" x2="1362.1" y2="320"/>
<line class="st0" x1="1360.6" y1="319" x2="1361.1" y2="318.5"/>
<line class="st0" x1="1361.9" y1="320.2" x2="1362" y2="320.2"/>
<line class="st0" x1="1360.6" y1="319" x2="1360.6" y2="319"/>
<line class="st0" x1="1361.9" y1="320.3" x2="1361.9" y2="320.2"/>
<line class="st0" x1="1360.7" y1="318.9" x2="1360.7" y2="319"/>
<line class="st0" x1="1360.9" y1="318.8" x2="1360.7" y2="318.9"/>
<line class="st0" x1="1361" y1="318.7" x2="1360.9" y2="318.8"/>
<line class="st0" x1="1361.2" y1="318.5" x2="1361" y2="318.7"/>
<line class="st0" x1="1361.2" y1="318.5" x2="1361.2" y2="318.5"/>
<line class="st0" x1="1371.1" y1="2792.7" x2="1371.2" y2="2792.9"/>
<line class="st0" x1="1370.7" y1="2792.3" x2="1371.1" y2="2792.7"/>
<line class="st0" x1="1370.3" y1="2791.9" x2="1370.7" y2="2792.3"/>
<line class="st0" x1="1369.9" y1="2791.4" x2="1370.3" y2="2791.9"/>
<line class="st0" x1="1369.5" y1="2791" x2="1369.9" y2="2791.4"/>
<line class="st0" x1="1369.1" y1="2790.6" x2="1369.5" y2="2791"/>
<line class="st0" x1="1368.7" y1="2790.1" x2="1369.1" y2="2790.6"/>
<line class="st0" x1="1368.2" y1="2789.6" x2="1368.7" y2="2790.1"/>
<line class="st0" x1="1367.8" y1="2789.2" x2="1368.2" y2="2789.6"/>
<line class="st0" x1="1367.3" y1="2788.7" x2="1367.8" y2="2789.2"/>
<line class="st0" x1="1366.9" y1="2788.2" x2="1367.3" y2="2788.7"/>
<line class="st0" x1="1366.4" y1="2787.7" x2="1366.9" y2="2788.2"/>
<line class="st0" x1="1365.9" y1="2787.3" x2="1366.4" y2="2787.7"/>
<line class="st0" x1="1365.5" y1="2786.8" x2="1365.9" y2="2787.3"/>
<line class="st0" x1="1365" y1="2786.3" x2="1365.5" y2="2786.8"/>
<line class="st0" x1="1364.6" y1="2785.9" x2="1365" y2="2786.3"/>
<line class="st0" x1="1363" y1="2784.3" x2="1364.6" y2="2785.9"/>
<line class="st0" x1="1362.8" y1="2784.1" x2="1363" y2="2784.3"/>
<line class="st0" x1="1362.6" y1="2783.9" x2="1362.8" y2="2784.1"/>
<line class="st0" x1="1362.4" y1="2783.7" x2="1362.6" y2="2783.9"/>
<line class="st0" x1="1362.2" y1="2783.5" x2="1362.4" y2="2783.7"/>
<line class="st0" x1="1362.1" y1="2783.3" x2="1362.2" y2="2783.5"/>
<line class="st0" x1="1362" y1="2783.2" x2="1362.1" y2="2783.3"/>
<line class="st0" x1="1361.9" y1="2783.1" x2="1362" y2="2783.2"/>
<line class="st0" x1="1361.9" y1="2783.1" x2="1361.9" y2="320.3"/>
<line class="st0" x1="1361.9" y1="2783.1" x2="1361.9" y2="2783.1"/>
<line class="st0" x1="1360.6" y1="2784.4" x2="1361.2" y2="2785"/>
<line class="st0" x1="1360.6" y1="2784.4" x2="1361.2" y2="2785"/>
<line class="st0" x1="1360.7" y1="2784.4" x2="1360.6" y2="2784.4"/>
<line class="st0" x1="1360.7" y1="2784.5" x2="1360.7" y2="2784.4"/>
<line class="st0" x1="1360.9" y1="2784.6" x2="1360.7" y2="2784.5"/>
<line class="st0" x1="1361" y1="2784.7" x2="1360.9" y2="2784.6"/>
<line class="st0" x1="1361.2" y1="2784.9" x2="1361" y2="2784.7"/>
<line class="st0" x1="1361.2" y1="2784.9" x2="1361.2" y2="2784.9"/>
<line class="st0" x1="1358.7" y1="2774.9" x2="1358.7" y2="328.5"/>
<line class="st0" x1="316.8" y1="319.7" x2="318.1" y2="318.4"/>
<line class="st0" x1="316.8" y1="319.7" x2="318.1" y2="318.4"/>
<line class="st0" x1="316.8" y1="319.7" x2="318.1" y2="318.4"/>
<line class="st0" x1="318.1" y1="2785" x2="316.8" y2="2783.7"/>
<line class="st0" x1="318.1" y1="2785" x2="316.8" y2="2783.7"/>
<line class="st0" x1="318.1" y1="2785" x2="316.8" y2="2783.7"/>
<line class="st0" x1="308.2" y1="310.7" x2="308" y2="310.5"/>
<line class="st0" x1="308.6" y1="311.1" x2="308.2" y2="310.7"/>
<line class="st0" x1="308.9" y1="311.5" x2="308.6" y2="311.1"/>
<line class="st0" x1="309.3" y1="311.9" x2="308.9" y2="311.5"/>
<line class="st0" x1="309.8" y1="312.4" x2="309.3" y2="311.9"/>
<line class="st0" x1="310.2" y1="312.8" x2="309.8" y2="312.4"/>
<line class="st0" x1="310.6" y1="313.3" x2="310.2" y2="312.8"/>
<line class="st0" x1="311.1" y1="313.7" x2="310.6" y2="313.3"/>
<line class="st0" x1="311.5" y1="314.2" x2="311.1" y2="313.7"/>
<line class="st0" x1="311.9" y1="314.7" x2="311.5" y2="314.2"/>
<line class="st0" x1="312.4" y1="315.2" x2="311.9" y2="314.7"/>
<line class="st0" x1="312.9" y1="315.6" x2="312.4" y2="315.2"/>
<line class="st0" x1="313.3" y1="316.1" x2="312.9" y2="315.6"/>
<line class="st0" x1="313.8" y1="316.6" x2="313.3" y2="316.1"/>
<line class="st0" x1="314.2" y1="317" x2="313.8" y2="316.6"/>
<line class="st0" x1="314.7" y1="317.5" x2="314.2" y2="317"/>
<line class="st0" x1="316.2" y1="319" x2="314.7" y2="317.5"/>
<line class="st0" x1="316.4" y1="319.3" x2="316.2" y2="319"/>
<line class="st0" x1="316.7" y1="319.5" x2="316.4" y2="319.3"/>
<line class="st0" x1="316.9" y1="319.7" x2="316.7" y2="319.5"/>
<line class="st0" x1="317" y1="319.9" x2="316.9" y2="319.7"/>
<line class="st0" x1="317.2" y1="320" x2="317" y2="319.9"/>
<line class="st0" x1="318.5" y1="318.7" x2="318.1" y2="318.4"/>
<line class="st0" x1="317.3" y1="320.2" x2="317.2" y2="320"/>
<line class="st0" x1="318.6" y1="319" x2="318.1" y2="318.5"/>
<line class="st0" x1="317.3" y1="320.2" x2="317.3" y2="320.2"/>
<line class="st0" x1="318.6" y1="319" x2="318.6" y2="319"/>
<line class="st0" x1="317.3" y1="320.3" x2="317.3" y2="320.2"/>
<line class="st0" x1="318.6" y1="319" x2="1360.7" y2="319"/>
<line class="st0" x1="318.5" y1="318.9" x2="318.6" y2="319"/>
<line class="st0" x1="318.4" y1="318.8" x2="318.5" y2="318.9"/>
<line class="st0" x1="318.3" y1="318.7" x2="318.4" y2="318.8"/>
<line class="st0" x1="318.1" y1="318.5" x2="318.3" y2="318.7"/>
<line class="st0" x1="318" y1="318.5" x2="318.1" y2="318.5"/>
<line class="st0" x1="308.2" y1="2792.7" x2="308" y2="2792.8"/>
<line class="st0" x1="308.6" y1="2792.3" x2="308.2" y2="2792.7"/>
<line class="st0" x1="308.9" y1="2791.9" x2="308.6" y2="2792.3"/>
<line class="st0" x1="309.3" y1="2791.4" x2="308.9" y2="2791.9"/>
<line class="st0" x1="309.8" y1="2791" x2="309.3" y2="2791.4"/>
<line class="st0" x1="310.2" y1="2790.6" x2="309.8" y2="2791"/>
<line class="st0" x1="310.6" y1="2790.1" x2="310.2" y2="2790.6"/>
<line class="st0" x1="311.1" y1="2789.6" x2="310.6" y2="2790.1"/>
<line class="st0" x1="311.5" y1="2789.2" x2="311.1" y2="2789.6"/>
<line class="st0" x1="311.9" y1="2788.7" x2="311.5" y2="2789.2"/>
<line class="st0" x1="312.4" y1="2788.2" x2="311.9" y2="2788.7"/>
<line class="st0" x1="312.9" y1="2787.7" x2="312.4" y2="2788.2"/>
<line class="st0" x1="313.3" y1="2787.3" x2="312.9" y2="2787.7"/>
<line class="st0" x1="313.8" y1="2786.8" x2="313.3" y2="2787.3"/>
<line class="st0" x1="314.2" y1="2786.3" x2="313.8" y2="2786.8"/>
<line class="st0" x1="314.7" y1="2785.9" x2="314.2" y2="2786.3"/>
<line class="st0" x1="316.2" y1="2784.3" x2="314.7" y2="2785.9"/>
<line class="st0" x1="316.4" y1="2784.1" x2="316.2" y2="2784.3"/>
<line class="st0" x1="316.7" y1="2783.9" x2="316.4" y2="2784.1"/>
<line class="st0" x1="316.9" y1="2783.7" x2="316.7" y2="2783.9"/>
<line class="st0" x1="317" y1="2783.5" x2="316.9" y2="2783.7"/>
<line class="st0" x1="317.2" y1="2783.3" x2="317" y2="2783.5"/>
<line class="st0" x1="317.3" y1="2783.2" x2="317.2" y2="2783.3"/>
<line class="st0" x1="317.3" y1="2783.1" x2="317.3" y2="2783.2"/>
<line class="st0" x1="318.6" y1="2784.4" x2="318.1" y2="2785"/>
<line class="st0" x1="318.6" y1="2784.4" x2="318.1" y2="2785"/>
<line class="st0" x1="317.3" y1="2783.1" x2="317.3" y2="320.3"/>
<line class="st0" x1="317.3" y1="2783.1" x2="317.3" y2="2783.1"/>
<line class="st0" x1="318.6" y1="2784.4" x2="1360.6" y2="2784.4"/>
<line class="st0" x1="318.6" y1="2784.4" x2="318.6" y2="2784.4"/>
<line class="st0" x1="318.5" y1="2784.5" x2="318.6" y2="2784.4"/>
<line class="st0" x1="318.4" y1="2784.6" x2="318.5" y2="2784.5"/>
<line class="st0" x1="318.3" y1="2784.7" x2="318.4" y2="2784.6"/>
<line class="st0" x1="318.1" y1="2784.9" x2="318.3" y2="2784.7"/>
<line class="st0" x1="318" y1="2784.9" x2="318.1" y2="2784.9"/>
<line class="st0" x1="320.5" y1="328.5" x2="1358.7" y2="328.5"/>
<line class="st0" x1="320.5" y1="2774.9" x2="320.5" y2="328.5"/>
<line class="st0" x1="320.5" y1="2774.9" x2="1358.7" y2="2774.9"/>
<line class="st0" x1="1370.8" y1="308.3" x2="1372" y2="309.5"/>
<line class="st0" x1="1421.4" y1="254.6" x2="1420.2" y2="253.4"/>
<line class="st0" x1="1370.8" y1="2795.1" x2="1372" y2="2793.9"/>
<line class="st0" x1="1421.4" y1="2848.9" x2="1420.2" y2="2850.1"/>
<line class="st0" x1="1421.8" y1="254.2" x2="1421.9" y2="254.1"/>
<line class="st0" x1="1421.5" y1="254.5" x2="1421.8" y2="254.2"/>
<line class="st0" x1="1421.1" y1="254.8" x2="1421.5" y2="254.5"/>
<line class="st0" x1="1420.7" y1="255.2" x2="1421.1" y2="254.8"/>
<line class="st0" x1="1420.1" y1="255.7" x2="1420.7" y2="255.2"/>
<line class="st0" x1="1419.6" y1="256.2" x2="1420.1" y2="255.7"/>
<line class="st0" x1="1390.8" y1="285.1" x2="1419.6" y2="256.2"/>
<line class="st0" x1="1390.3" y1="285.6" x2="1390.8" y2="285.1"/>
<line class="st0" x1="1389.8" y1="286.1" x2="1390.3" y2="285.6"/>
<line class="st0" x1="1389.3" y1="286.6" x2="1389.8" y2="286.1"/>
<line class="st0" x1="1388.9" y1="287" x2="1389.3" y2="286.6"/>
<line class="st0" x1="1388.5" y1="287.4" x2="1388.9" y2="287"/>
<line class="st0" x1="1388.3" y1="287.8" x2="1388.5" y2="287.4"/>
<line class="st0" x1="1388.1" y1="288" x2="1388.3" y2="287.8"/>
<line class="st0" x1="1371.2" y1="310.5" x2="1388.1" y2="288"/>
<line class="st0" x1="1370.8" y1="308.4" x2="1370" y2="309.2"/>
<line class="st0" x1="1422" y1="254.9" x2="1423" y2="253.9"/>
<line class="st0" x1="1422" y1="254.1" x2="1421.9" y2="254.1"/>
<line class="st0" x1="1420.7" y1="252.9" x2="1420.3" y2="253.5"/>
<line class="st0" x1="1420.7" y1="252.9" x2="1420.7" y2="252.8"/>
<line class="st0" x1="1421.8" y1="2849.2" x2="1421.9" y2="2849.4"/>
<line class="st0" x1="1421.5" y1="2849" x2="1421.8" y2="2849.2"/>
<line class="st0" x1="1421.1" y1="2848.7" x2="1421.5" y2="2849"/>
<line class="st0" x1="1420.7" y1="2848.2" x2="1421.1" y2="2848.7"/>
<line class="st0" x1="1420.1" y1="2847.8" x2="1420.7" y2="2848.2"/>
<line class="st0" x1="1419.6" y1="2847.2" x2="1420.1" y2="2847.8"/>
<line class="st0" x1="1390.8" y1="2818.4" x2="1419.6" y2="2847.2"/>
<line class="st0" x1="1390.3" y1="2817.9" x2="1390.8" y2="2818.4"/>
<line class="st0" x1="1389.8" y1="2817.4" x2="1390.3" y2="2817.9"/>
<line class="st0" x1="1389.3" y1="2816.9" x2="1389.8" y2="2817.4"/>
<line class="st0" x1="1388.9" y1="2816.4" x2="1389.3" y2="2816.9"/>
<line class="st0" x1="1388.5" y1="2816" x2="1388.9" y2="2816.4"/>
<line class="st0" x1="1388.3" y1="2815.7" x2="1388.5" y2="2816"/>
<line class="st0" x1="1388.1" y1="2815.4" x2="1388.3" y2="2815.7"/>
<line class="st0" x1="1371.2" y1="2793" x2="1371.2" y2="310.5"/>
<line class="st0" x1="1371.2" y1="2793" x2="1388.1" y2="2815.4"/>
<line class="st0" x1="1370.8" y1="2795.1" x2="1370" y2="2794.3"/>
<line class="st0" x1="1422" y1="2848.6" x2="1423" y2="2849.6"/>
<line class="st0" x1="1422" y1="2849.4" x2="1422" y2="254.1"/>
<line class="st0" x1="1422" y1="2849.4" x2="1421.9" y2="2849.4"/>
<line class="st0" x1="1420.7" y1="2850.6" x2="1420.3" y2="2850"/>
<line class="st0" x1="1420.7" y1="2850.6" x2="1420.7" y2="2850.7"/>
<line class="st0" x1="308.5" y1="308.3" x2="307.3" y2="309.5"/>
<line class="st0" x1="258" y1="254.6" x2="259.2" y2="253.4"/>
<line class="st0" x1="308.5" y1="2795.1" x2="307.3" y2="2793.9"/>
<line class="st0" x1="258" y1="2848.9" x2="259.2" y2="2850.1"/>
<line class="st0" x1="257.6" y1="254.2" x2="257.5" y2="254.1"/>
<line class="st0" x1="257.9" y1="254.5" x2="257.6" y2="254.2"/>
<line class="st0" x1="258.3" y1="254.8" x2="257.9" y2="254.5"/>
<line class="st0" x1="258.7" y1="255.2" x2="258.3" y2="254.8"/>
<line class="st0" x1="259.2" y1="255.7" x2="258.7" y2="255.2"/>
<line class="st0" x1="259.8" y1="256.2" x2="259.2" y2="255.7"/>
<line class="st0" x1="288.6" y1="285.1" x2="259.8" y2="256.2"/>
<line class="st0" x1="289.1" y1="285.6" x2="288.6" y2="285.1"/>
<line class="st0" x1="289.6" y1="286.1" x2="289.1" y2="285.6"/>
<line class="st0" x1="290" y1="286.6" x2="289.6" y2="286.1"/>
<line class="st0" x1="290.5" y1="287" x2="290" y2="286.6"/>
<line class="st0" x1="290.8" y1="287.4" x2="290.5" y2="287"/>
<line class="st0" x1="291.1" y1="287.8" x2="290.8" y2="287.4"/>
<line class="st0" x1="291.3" y1="288" x2="291.1" y2="287.8"/>
<line class="st0" x1="308" y1="310.5" x2="291.3" y2="288"/>
<line class="st0" x1="309.3" y1="309.2" x2="1370" y2="309.2"/>
<line class="st0" x1="308.5" y1="308.4" x2="309.3" y2="309.2"/>
<line class="st0" x1="257.4" y1="254.9" x2="256.3" y2="253.8"/>
<line class="st0" x1="258.7" y1="252.8" x2="1420.7" y2="252.8"/>
<line class="st0" x1="257.4" y1="254.1" x2="257.5" y2="254.1"/>
<line class="st0" x1="258.7" y1="252.9" x2="259.1" y2="253.5"/>
<line class="st0" x1="258.7" y1="252.9" x2="258.7" y2="252.8"/>
<line class="st0" x1="257.6" y1="2849.2" x2="257.5" y2="2849.4"/>
<line class="st0" x1="257.9" y1="2849" x2="257.6" y2="2849.2"/>
<line class="st0" x1="258.3" y1="2848.7" x2="257.9" y2="2849"/>
<line class="st0" x1="258.7" y1="2848.2" x2="258.3" y2="2848.7"/>
<line class="st0" x1="259.2" y1="2847.8" x2="258.7" y2="2848.2"/>
<line class="st0" x1="259.8" y1="2847.2" x2="259.2" y2="2847.8"/>
<line class="st0" x1="288.6" y1="2818.4" x2="259.8" y2="2847.2"/>
<line class="st0" x1="289.1" y1="2817.9" x2="288.6" y2="2818.4"/>
<line class="st0" x1="289.6" y1="2817.4" x2="289.1" y2="2817.9"/>
<line class="st0" x1="290" y1="2816.9" x2="289.6" y2="2817.4"/>
<line class="st0" x1="290.5" y1="2816.4" x2="290" y2="2816.9"/>
<line class="st0" x1="290.8" y1="2816" x2="290.5" y2="2816.4"/>
<line class="st0" x1="291.1" y1="2815.7" x2="290.8" y2="2816"/>
<line class="st0" x1="291.3" y1="2815.4" x2="291.1" y2="2815.7"/>
<line class="st0" x1="308" y1="2793" x2="308" y2="310.5"/>
<line class="st0" x1="308" y1="2793" x2="291.3" y2="2815.4"/>
<line class="st0" x1="309.3" y1="2794.3" x2="1370" y2="2794.3"/>
<line class="st0" x1="308.5" y1="2795.1" x2="309.3" y2="2794.3"/>
<line class="st0" x1="257.4" y1="2848.6" x2="256.3" y2="2849.6"/>
<line class="st0" x1="258.7" y1="2850.7" x2="1420.7" y2="2850.7"/>
<line class="st0" x1="257.4" y1="2849.4" x2="257.4" y2="254.1"/>
<line class="st0" x1="257.4" y1="2849.4" x2="257.5" y2="2849.4"/>
<line class="st0" x1="258.7" y1="2850.6" x2="259.1" y2="2850"/>
<line class="st0" x1="258.7" y1="2850.6" x2="258.7" y2="2850.7"/>
<line class="st0" x1="219.1" y1="1486.7" x2="219.1" y2="1495.8"/>
<line class="st0" x1="219.1" y1="1484.3" x2="219.1" y2="1486.7"/>
<line class="st0" x1="219.1" y1="1475.2" x2="219.1" y2="1484.3"/>
<line class="st0" x1="219.1" y1="1472.7" x2="219.1" y2="1475.2"/>
<line class="st0" x1="219.1" y1="1463.7" x2="219.1" y2="1472.7"/>
<line class="st0" x1="219.1" y1="1461.2" x2="219.1" y2="1463.7"/>
<line class="st0" x1="219.1" y1="1452.2" x2="219.1" y2="1461.2"/>
<line class="st0" x1="219.1" y1="1449.7" x2="219.1" y2="1452.2"/>
<line class="st0" x1="219.1" y1="1440.7" x2="219.1" y2="1449.7"/>
<line class="st0" x1="219.1" y1="1438.2" x2="219.1" y2="1440.7"/>
<line class="st0" x1="219.1" y1="1434.7" x2="219.1" y2="1438.2"/>
<line class="st0" x1="219.1" y1="1433.8" x2="219.1" y2="1434.7"/>
<line class="st0" x1="217.6" y1="1424.4" x2="219.1" y2="1433.8"/>
<line class="st0" x1="217.2" y1="1421.8" x2="217.6" y2="1424.4"/>
<line class="st0" x1="212.9" y1="1413.3" x2="217.2" y2="1421.8"/>
<line class="st0" x1="211.7" y1="1411" x2="212.9" y2="1413.3"/>
<line class="st0" x1="205" y1="1404.2" x2="211.7" y2="1411"/>
<line class="st0" x1="203.2" y1="1402.4" x2="205" y2="1404.2"/>
<line class="st0" x1="194.7" y1="1398.1" x2="203.2" y2="1402.4"/>
<line class="st0" x1="192.9" y1="1397.2" x2="194.7" y2="1398.1"/>
<line class="st0" x1="198.2" y1="1545.6" x2="200.8" y2="1544.3"/>
<line class="st0" x1="200.8" y1="1544.3" x2="203.2" y2="1543.1"/>
<line class="st0" x1="203.2" y1="1543.1" x2="209.9" y2="1536.4"/>
<line class="st0" x1="209.9" y1="1536.4" x2="211.7" y2="1534.5"/>
<line class="st0" x1="211.7" y1="1534.5" x2="216.1" y2="1526"/>
<line class="st0" x1="216.1" y1="1526" x2="217.2" y2="1523.7"/>
<line class="st0" x1="217.2" y1="1523.7" x2="218.7" y2="1514.3"/>
<line class="st0" x1="218.7" y1="1514.3" x2="219.1" y2="1511.7"/>
<line class="st0" x1="219.1" y1="1508.2" x2="219.1" y2="1511.7"/>
<line class="st0" x1="219.1" y1="1507.3" x2="219.1" y2="1508.2"/>
<line class="st0" x1="219.1" y1="1498.3" x2="219.1" y2="1507.3"/>
<line class="st0" x1="219.1" y1="1495.8" x2="219.1" y2="1498.3"/>
<line class="st0" x1="192.9" y1="1397.2" x2="192.3" y2="1396.9"/>
<line class="st0" x1="1577.3" y1="96.5" x2="1578.4" y2="97.7"/>
<line class="st0" x1="1422.3" y1="251.8" x2="1423.4" y2="252.9"/>
<line class="st0" x1="1577.3" y1="3006.8" x2="1578.4" y2="3005.7"/>
<line class="st0" x1="1422.3" y1="2851.5" x2="1423.4" y2="2850.5"/>
<line class="st0" x1="1577.8" y1="96.2" x2="1577.5" y2="96.8"/>
<line class="st0" x1="1577.8" y1="96" x2="1577.8" y2="96.2"/>
<line class="st0" x1="1578.9" y1="97.4" x2="1579.1" y2="97.3"/>
<line class="st0" x1="1578.3" y1="97.8" x2="1578.9" y2="97.4"/>
<line class="st0" x1="1577.4" y1="98.5" x2="1578.3" y2="97.8"/>
<line class="st0" x1="1576.2" y1="99.6" x2="1577.4" y2="98.5"/>
<line class="st0" x1="1574.9" y1="100.8" x2="1576.2" y2="99.6"/>
<line class="st0" x1="1573.3" y1="102.3" x2="1574.9" y2="100.8"/>
<line class="st0" x1="1571.6" y1="104" x2="1573.3" y2="102.3"/>
<line class="st0" x1="1569.8" y1="105.8" x2="1571.6" y2="104"/>
<line class="st0" x1="1426.7" y1="248.9" x2="1569.8" y2="105.8"/>
<line class="st0" x1="1426" y1="249.6" x2="1426.7" y2="248.9"/>
<line class="st0" x1="1425.3" y1="250.3" x2="1426" y2="249.6"/>
<line class="st0" x1="1424.7" y1="250.9" x2="1425.3" y2="250.3"/>
<line class="st0" x1="1424.3" y1="251.4" x2="1424.7" y2="250.9"/>
<line class="st0" x1="1423.9" y1="251.8" x2="1424.3" y2="251.4"/>
<line class="st0" x1="1423.8" y1="252" x2="1423.9" y2="251.8"/>
<line class="st0" x1="1423" y1="253.7" x2="1423.8" y2="252"/>
<line class="st0" x1="1421.8" y1="252.3" x2="1422.3" y2="251.8"/>
<line class="st0" x1="1421.8" y1="252.3" x2="1421.7" y2="252.4"/>
<line class="st0" x1="1422" y1="252.2" x2="1421.8" y2="252.3"/>
<line class="st0" x1="1422.3" y1="251.9" x2="1422" y2="252.2"/>
<line class="st0" x1="1422.3" y1="251.9" x2="1422.3" y2="251.9"/>
<line class="st0" x1="1577.8" y1="3007.2" x2="1577.5" y2="3006.6"/>
<line class="st0" x1="1579.1" y1="3006.1" x2="1579.1" y2="97.3"/>
<line class="st0" x1="1577.8" y1="3007.4" x2="1577.8" y2="3007.2"/>
<line class="st0" x1="1578.9" y1="3006" x2="1579.1" y2="3006.1"/>
<line class="st0" x1="1578.3" y1="3005.6" x2="1578.9" y2="3006"/>
<line class="st0" x1="1577.4" y1="3004.8" x2="1578.3" y2="3005.6"/>
<line class="st0" x1="1576.2" y1="3003.8" x2="1577.4" y2="3004.8"/>
<line class="st0" x1="1574.9" y1="3002.6" x2="1576.2" y2="3003.8"/>
<line class="st0" x1="1573.3" y1="3001.1" x2="1574.9" y2="3002.6"/>
<line class="st0" x1="1571.6" y1="2999.4" x2="1573.3" y2="3001.1"/>
<line class="st0" x1="1569.8" y1="2997.6" x2="1571.6" y2="2999.4"/>
<line class="st0" x1="1426.7" y1="2854.5" x2="1569.8" y2="2997.6"/>
<line class="st0" x1="1426" y1="2853.8" x2="1426.7" y2="2854.5"/>
<line class="st0" x1="1425.3" y1="2853.1" x2="1426" y2="2853.8"/>
<line class="st0" x1="1424.7" y1="2852.5" x2="1425.3" y2="2853.1"/>
<line class="st0" x1="1424.3" y1="2852" x2="1424.7" y2="2852.5"/>
<line class="st0" x1="1423.9" y1="2851.6" x2="1424.3" y2="2852"/>
<line class="st0" x1="1423.8" y1="2851.4" x2="1423.9" y2="2851.6"/>
<line class="st0" x1="1423" y1="2849.7" x2="1423" y2="253.7"/>
<line class="st0" x1="1423" y1="2849.7" x2="1423.8" y2="2851.4"/>
<line class="st0" x1="1421.8" y1="2851" x2="1422.3" y2="2851.5"/>
<line class="st0" x1="1421.8" y1="2851" x2="1421.7" y2="2851"/>
<line class="st0" x1="1422" y1="2851.2" x2="1421.8" y2="2851"/>
<line class="st0" x1="1422.3" y1="2851.4" x2="1422" y2="2851.2"/>
<line class="st0" x1="1422.3" y1="2851.5" x2="1422.3" y2="2851.4"/>
<line class="st0" x1="102.1" y1="96.5" x2="100.9" y2="97.7"/>
<line class="st0" x1="257.1" y1="251.8" x2="256" y2="252.9"/>
<line class="st0" x1="102.1" y1="3006.8" x2="100.9" y2="3005.7"/>
<line class="st0" x1="257.1" y1="2851.5" x2="256" y2="2850.5"/>
<line class="st0" x1="101.6" y1="96.2" x2="101.8" y2="96.8"/>
<line class="st0" x1="101.5" y1="96" x2="1577.8" y2="96"/>
<line class="st0" x1="101.5" y1="96" x2="101.6" y2="96.2"/>
<line class="st0" x1="100.5" y1="97.4" x2="100.2" y2="97.3"/>
<line class="st0" x1="101.1" y1="97.8" x2="100.5" y2="97.4"/>
<line class="st0" x1="102" y1="98.5" x2="101.1" y2="97.8"/>
<line class="st0" x1="103.1" y1="99.6" x2="102" y2="98.5"/>
<line class="st0" x1="104.5" y1="100.8" x2="103.1" y2="99.6"/>
<line class="st0" x1="106.1" y1="102.3" x2="104.5" y2="100.8"/>
<line class="st0" x1="107.8" y1="104" x2="106.1" y2="102.3"/>
<line class="st0" x1="109.6" y1="105.8" x2="107.8" y2="104"/>
<line class="st0" x1="252.7" y1="248.9" x2="109.6" y2="105.8"/>
<line class="st0" x1="253.4" y1="249.6" x2="252.7" y2="248.9"/>
<line class="st0" x1="254.1" y1="250.3" x2="253.4" y2="249.6"/>
<line class="st0" x1="254.6" y1="250.9" x2="254.1" y2="250.3"/>
<line class="st0" x1="255.1" y1="251.4" x2="254.6" y2="250.9"/>
<line class="st0" x1="255.4" y1="251.8" x2="255.1" y2="251.4"/>
<line class="st0" x1="255.6" y1="252" x2="255.4" y2="251.8"/>
<line class="st0" x1="256.3" y1="253.7" x2="255.6" y2="252"/>
<line class="st0" x1="257.6" y1="252.4" x2="1421.7" y2="252.4"/>
<line class="st0" x1="257.5" y1="252.3" x2="257.6" y2="252.4"/>
<line class="st0" x1="257.3" y1="252.2" x2="257.5" y2="252.3"/>
<line class="st0" x1="257.1" y1="251.9" x2="257.3" y2="252.2"/>
<line class="st0" x1="257" y1="251.9" x2="257.1" y2="251.9"/>
<line class="st0" x1="101.6" y1="3007.2" x2="101.9" y2="3006.6"/>
<line class="st0" x1="100.2" y1="3006.1" x2="100.2" y2="97.3"/>
<line class="st0" x1="101.5" y1="3007.4" x2="1577.8" y2="3007.4"/>
<line class="st0" x1="101.5" y1="3007.4" x2="101.6" y2="3007.2"/>
<line class="st0" x1="100.5" y1="3006" x2="100.2" y2="3006.1"/>
<line class="st0" x1="101.1" y1="3005.6" x2="100.5" y2="3006"/>
<line class="st0" x1="102" y1="3004.8" x2="101.1" y2="3005.6"/>
<line class="st0" x1="103.1" y1="3003.8" x2="102" y2="3004.8"/>
<line class="st0" x1="104.5" y1="3002.6" x2="103.1" y2="3003.8"/>
<line class="st0" x1="106.1" y1="3001.1" x2="104.5" y2="3002.6"/>
<line class="st0" x1="107.8" y1="2999.4" x2="106.1" y2="3001.1"/>
<line class="st0" x1="109.6" y1="2997.6" x2="107.8" y2="2999.4"/>
<line class="st0" x1="252.7" y1="2854.5" x2="109.6" y2="2997.6"/>
<line class="st0" x1="253.4" y1="2853.8" x2="252.7" y2="2854.5"/>
<line class="st0" x1="254.1" y1="2853.1" x2="253.4" y2="2853.8"/>
<line class="st0" x1="254.6" y1="2852.5" x2="254.1" y2="2853.1"/>
<line class="st0" x1="255.1" y1="2852" x2="254.6" y2="2852.5"/>
<line class="st0" x1="255.4" y1="2851.6" x2="255.1" y2="2852"/>
<line class="st0" x1="255.6" y1="2851.4" x2="255.4" y2="2851.6"/>
<line class="st0" x1="256.3" y1="2849.7" x2="256.3" y2="253.7"/>
<line class="st0" x1="256.3" y1="2849.7" x2="255.6" y2="2851.4"/>
<line class="st0" x1="257.6" y1="2851" x2="1421.7" y2="2851"/>
<line class="st0" x1="257.5" y1="2851" x2="257.6" y2="2851"/>
<line class="st0" x1="257.3" y1="2851.2" x2="257.5" y2="2851"/>
<line class="st0" x1="257.1" y1="2851.4" x2="257.3" y2="2851.2"/>
<line class="st0" x1="257" y1="2851.5" x2="257.1" y2="2851.4"/>
<line class="st0" x1="1580.8" y1="2963.4" x2="1580.8" y2="2977.8"/>
<line class="st0" x1="1580.8" y1="2962.3" x2="1580.8" y2="2963.4"/>
<line class="st0" x1="1580.8" y1="2962.3" x2="1580.8" y2="2957.8"/>
<line class="st0" x1="1580.8" y1="2957.7" x2="1580.8" y2="2957.8"/>
<line class="st0" x1="1616.7" y1="174.9" x2="1616.7" y2="268.5"/>
<line class="st0" x1="1584.1" y1="177" x2="1584.3" y2="175.9"/>
<line class="st0" x1="1584.1" y1="178.7" x2="1579.1" y2="178.7"/>
<line class="st0" x1="1584.1" y1="178.7" x2="1584.1" y2="177"/>
<line class="st0" x1="1584.1" y1="267.2" x2="1584.1" y2="265.6"/>
<line class="st0" x1="1584.2" y1="268" x2="1584.1" y2="267.2"/>
<line class="st0" x1="1584.1" y1="177.5" x2="1582.3" y2="177.5"/>
<line class="st0" x1="1581.2" y1="116" x2="1581.2" y2="109.2"/>
<line class="st0" x1="1616.7" y1="269.9" x2="1616.7" y2="268.5"/>
<line class="st0" x1="1586.8" y1="341.1" x2="1582.3" y2="341.1"/>
<line class="st0" x1="1586.8" y1="341.1" x2="1598.3" y2="341.1"/>
<line class="st0" x1="1581.2" y1="276.6" x2="1581.2" y2="272.1"/>
<line class="st0" x1="1615.4" y1="176" x2="1615.4" y2="177.7"/>
<line class="st0" x1="1615.4" y1="264.7" x2="1615.4" y2="266.3"/>
<line class="st0" x1="1584.1" y1="267.1" x2="1579.1" y2="267.1"/>
<line class="st0" x1="1615.1" y1="174.9" x2="1615.4" y2="176"/>
<line class="st0" x1="1614.1" y1="173.8" x2="1615.1" y2="174.9"/>
<line class="st0" x1="1614.1" y1="173.8" x2="1613.4" y2="173.5"/>
<line class="st0" x1="1610.9" y1="172.6" x2="1613.4" y2="173.5"/>
<line class="st0" x1="1606.7" y1="172" x2="1610.9" y2="172.6"/>
<line class="st0" x1="1601.5" y1="171.8" x2="1606.7" y2="172"/>
<line class="st0" x1="1596.1" y1="172" x2="1601.5" y2="171.8"/>
<line class="st0" x1="1591.2" y1="172.6" x2="1596.1" y2="172"/>
<line class="st0" x1="1587.8" y1="173.6" x2="1591.2" y2="172.6"/>
<line class="st0" x1="1587.1" y1="173.9" x2="1587.8" y2="173.6"/>
<line class="st0" x1="1584.9" y1="174.9" x2="1584.3" y2="175.9"/>
<line class="st0" x1="1584.9" y1="174.9" x2="1587.1" y2="173.9"/>
<line class="st0" x1="1615.2" y1="267.3" x2="1615.4" y2="266.3"/>
<line class="st0" x1="1616.7" y1="173.8" x2="1616.7" y2="174.9"/>
<line class="st0" x1="1581.2" y1="171.7" x2="1581.2" y2="116"/>
<line class="st0" x1="1581.2" y1="171.7" x2="1581.2" y2="176.1"/>
<line class="st0" x1="1601.6" y1="101" x2="1607.1" y2="101.2"/>
<line class="st0" x1="1595.8" y1="101.2" x2="1601.6" y2="101"/>
<line class="st0" x1="1590.6" y1="101.9" x2="1595.8" y2="101.2"/>
<line class="st0" x1="1586.9" y1="102.9" x2="1590.6" y2="101.9"/>
<line class="st0" x1="1586.9" y1="102.9" x2="1584.6" y2="103.9"/>
<line class="st0" x1="1583.8" y1="104.4" x2="1584.6" y2="103.9"/>
<line class="st0" x1="1582.7" y1="105.2" x2="1583.8" y2="104.4"/>
<line class="st0" x1="1581.9" y1="106.8" x2="1582.7" y2="105.2"/>
<line class="st0" x1="1581.5" y1="107.7" x2="1581.9" y2="106.8"/>
<line class="st0" x1="1616.5" y1="105.2" x2="1616.7" y2="106.8"/>
<line class="st0" x1="1616.3" y1="104.4" x2="1616.5" y2="105.2"/>
<line class="st0" x1="1611.6" y1="101.9" x2="1607.1" y2="101.2"/>
<line class="st0" x1="1614.3" y1="102.9" x2="1611.6" y2="101.9"/>
<line class="st0" x1="1615" y1="103.3" x2="1616.3" y2="104.4"/>
<line class="st0" x1="1615" y1="103.3" x2="1614.3" y2="102.9"/>
<line class="st0" x1="1616.7" y1="113.5" x2="1616.7" y2="106.8"/>
<line class="st0" x1="1616.7" y1="169.3" x2="1616.7" y2="173.8"/>
<line class="st0" x1="1616.7" y1="169.3" x2="1616.7" y2="113.5"/>
<line class="st0" x1="1616.7" y1="336.9" x2="1616.5" y2="338.5"/>
<line class="st0" x1="1581.2" y1="332.2" x2="1581.2" y2="276.6"/>
<line class="st0" x1="1581.2" y1="332.2" x2="1581.2" y2="339"/>
<line class="st0" x1="1616.6" y1="269.2" x2="1616.7" y2="269.9"/>
<line class="st0" x1="1601.6" y1="265.2" x2="1607.1" y2="265.4"/>
<line class="st0" x1="1595.8" y1="265.4" x2="1601.6" y2="265.2"/>
<line class="st0" x1="1590.6" y1="266" x2="1595.8" y2="265.4"/>
<line class="st0" x1="1586.9" y1="266.9" x2="1590.6" y2="266"/>
<line class="st0" x1="1586.9" y1="266.9" x2="1584.6" y2="267.8"/>
<line class="st0" x1="1583.8" y1="268.2" x2="1582.7" y2="268.9"/>
<line class="st0" x1="1583.8" y1="268.2" x2="1584.6" y2="267.8"/>
<line class="st0" x1="1582.4" y1="269.5" x2="1582.7" y2="268.9"/>
<line class="st0" x1="1581.5" y1="271.1" x2="1582.4" y2="269.5"/>
<line class="st0" x1="1616.3" y1="268.2" x2="1616.7" y2="268.5"/>
<line class="st0" x1="1616.3" y1="268.2" x2="1616.6" y2="269.2"/>
<line class="st0" x1="1611.6" y1="266" x2="1607.1" y2="265.4"/>
<line class="st0" x1="1614.3" y1="266.9" x2="1611.6" y2="266"/>
<line class="st0" x1="1615" y1="267.2" x2="1616.3" y2="268.2"/>
<line class="st0" x1="1615" y1="267.2" x2="1614.3" y2="266.9"/>
<line class="st0" x1="1609.8" y1="341.1" x2="1598.3" y2="341.1"/>
<line class="st0" x1="1614.3" y1="341.1" x2="1609.8" y2="341.1"/>
<line class="st0" x1="1616.1" y1="339.1" x2="1616.5" y2="338.5"/>
<line class="st0" x1="1615.1" y1="340.5" x2="1614.3" y2="341.1"/>
<line class="st0" x1="1615.1" y1="340.5" x2="1616.1" y2="339.1"/>
<line class="st0" x1="1616.7" y1="274.4" x2="1616.7" y2="269.9"/>
<line class="st0" x1="1616.7" y1="330.2" x2="1616.7" y2="336.9"/>
<line class="st0" x1="1616.7" y1="330.2" x2="1616.7" y2="274.4"/>
<line class="st0" x1="1615.4" y1="262.8" x2="1615.4" y2="264.7"/>
<line class="st0" x1="1615.4" y1="179.5" x2="1615.4" y2="177.7"/>
<line class="st0" x1="1615.4" y1="179.5" x2="1615.4" y2="262.8"/>
<line class="st0" x1="1581" y1="2993.4" x2="1580.8" y2="2992.9"/>
<line class="st0" x1="1582.7" y1="2995.8" x2="1581" y2="2993.4"/>
<line class="st0" x1="1589.5" y1="2959.3" x2="1588.6" y2="2957.7"/>
<line class="st0" x1="1611" y1="2959.3" x2="1609.8" y2="2956.9"/>
<line class="st0" x1="1593.5" y1="2964.5" x2="1599.1" y2="2964.5"/>
<line class="st0" x1="1593.5" y1="2964.5" x2="1592.9" y2="2964.5"/>
<line class="st0" x1="1592.9" y1="2963.7" x2="1592.7" y2="2963.5"/>
<line class="st0" x1="1592.9" y1="2964.7" x2="1592.9" y2="2963.7"/>
<line class="st0" x1="1592.2" y1="2962.7" x2="1589.5" y2="2959.3"/>
<line class="st0" x1="1592.2" y1="2962.7" x2="1592.7" y2="2963.5"/>
<line class="st0" x1="1585.7" y1="2998" x2="1582.7" y2="2995.8"/>
<line class="st0" x1="1585.7" y1="2998" x2="1586" y2="2998.2"/>
<line class="st0" x1="1586.5" y1="2998.5" x2="1586" y2="2998.2"/>
<line class="st0" x1="1591.1" y1="2998.5" x2="1591.8" y2="2998.5"/>
<line class="st0" x1="1591.1" y1="2998.5" x2="1586.5" y2="2998.5"/>
<line class="st0" x1="1593.4" y1="2998.5" x2="1598.9" y2="2998.5"/>
<line class="st0" x1="1592.6" y1="2998.5" x2="1591.8" y2="2998.5"/>
<line class="st0" x1="1592.6" y1="2998.5" x2="1593.4" y2="2998.5"/>
<line class="st0" x1="1611.7" y1="2971.1" x2="1611.5" y2="2994.5"/>
<line class="st0" x1="1611.7" y1="2963.7" x2="1611.6" y2="2963"/>
<line class="st0" x1="1611.7" y1="2964.7" x2="1611.7" y2="2965.4"/>
<line class="st0" x1="1611.7" y1="2964.7" x2="1611.7" y2="2963.7"/>
<line class="st0" x1="1611.5" y1="2962.7" x2="1611" y2="2959.3"/>
<line class="st0" x1="1611.5" y1="2962.7" x2="1611.6" y2="2963"/>
<line class="st0" x1="1604.7" y1="2964.5" x2="1599.1" y2="2964.5"/>
<line class="st0" x1="1604.7" y1="2964.5" x2="1605.5" y2="2964.5"/>
<line class="st0" x1="1611.7" y1="2970" x2="1611.7" y2="2971.1"/>
<line class="st0" x1="1611.7" y1="2970" x2="1611.7" y2="2965.4"/>
<line class="st0" x1="1611.4" y1="2998.5" x2="1611.5" y2="2994.5"/>
<line class="st0" x1="1606.8" y1="2998.5" x2="1606.1" y2="2998.5"/>
<line class="st0" x1="1606.8" y1="2998.5" x2="1611.4" y2="2998.5"/>
<line class="st0" x1="1604.5" y1="2998.5" x2="1598.9" y2="2998.5"/>
<line class="st0" x1="1605.3" y1="2998.5" x2="1606.1" y2="2998.5"/>
<line class="st0" x1="1605.3" y1="2998.5" x2="1604.5" y2="2998.5"/>
<line class="st0" x1="1603.8" y1="2957.6" x2="1603.8" y2="2964.5"/>
<line class="st0" x1="1591.3" y1="2957.7" x2="1591.3" y2="2961.6"/>
<line class="st0" x1="1606.1" y1="2957.5" x2="1600.8" y2="2957.7"/>
<line class="st0" x1="1610.4" y1="2956.8" x2="1606.1" y2="2957.5"/>
<line class="st0" x1="1613" y1="2955.9" x2="1610.4" y2="2956.8"/>
<line class="st0" x1="1580" y1="2957.7" x2="1579.1" y2="2957.7"/>
<line class="st0" x1="1580.9" y1="2957.7" x2="1580" y2="2957.7"/>
<line class="st0" x1="1584.6" y1="2957.7" x2="1580.9" y2="2957.7"/>
<line class="st0" x1="1586.5" y1="2957.7" x2="1584.6" y2="2957.7"/>
<line class="st0" x1="1589.3" y1="2957.7" x2="1586.5" y2="2957.7"/>
<line class="st0" x1="1595.3" y1="2957.7" x2="1600.8" y2="2957.7"/>
<line class="st0" x1="1595.3" y1="2957.7" x2="1589.3" y2="2957.7"/>
<line class="st0" x1="1613.5" y1="2954.8" x2="1613.5" y2="2954.2"/>
<line class="st0" x1="1613.5" y1="2954.8" x2="1613" y2="2955.9"/>
<line class="st0" x1="1613.5" y1="2747.1" x2="1613.5" y2="2954.2"/>
<line class="st0" x1="1613.5" y1="2721" x2="1613.5" y2="2747.1"/>
<line class="st0" x1="1581.6" y1="2705.1" x2="1579.1" y2="2705.1"/>
<line class="st0" x1="1583.5" y1="2705.1" x2="1581.6" y2="2705.1"/>
<line class="st0" x1="1597.7" y1="2711" x2="1592.3" y2="2708.7"/>
<line class="st0" x1="1613.5" y1="2719.1" x2="1613.5" y2="2721"/>
<line class="st0" x1="1613.5" y1="2719.1" x2="1611.8" y2="2717.8"/>
<line class="st0" x1="1603.2" y1="2713.4" x2="1597.7" y2="2711"/>
<line class="st0" x1="1608.2" y1="2715.8" x2="1611.8" y2="2717.8"/>
<line class="st0" x1="1608.2" y1="2715.8" x2="1603.2" y2="2713.4"/>
<line class="st0" x1="1586.3" y1="2706.3" x2="1583.5" y2="2705.1"/>
<line class="st0" x1="1586.3" y1="2706.3" x2="1592.3" y2="2708.7"/>
<line class="st0" x1="192.3" y1="1396.9" x2="190.5" y2="1396.4"/>
<line class="st0" x1="190.4" y1="1396.4" x2="190.5" y2="1396.4"/>
<line class="st0" x1="190.3" y1="1396.4" x2="190.4" y2="1396.4"/>
<line class="st0" x1="138.8" y1="1495.6" x2="138.8" y2="1484"/>
<line class="st0" x1="138.8" y1="1507.1" x2="138.8" y2="1495.6"/>
<line class="st0" x1="138.8" y1="1511.6" x2="138.8" y2="1507.1"/>
<line class="st0" x1="138.8" y1="1511.6" x2="140.5" y2="1522.3"/>
<line class="st0" x1="138.8" y1="1449.3" x2="138.8" y2="1460.9"/>
<line class="st0" x1="138.8" y1="1437.7" x2="138.8" y2="1449.3"/>
<line class="st0" x1="138.8" y1="1472.4" x2="138.8" y2="1484"/>
<line class="st0" x1="138.8" y1="1472.4" x2="138.8" y2="1460.9"/>
<line class="st0" x1="189.8" y1="1396.3" x2="189.9" y2="1396.3"/>
<line class="st0" x1="177.7" y1="1394.3" x2="189.8" y2="1396.3"/>
<line class="st0" x1="165.7" y1="1396.3" x2="177.7" y2="1394.3"/>
<line class="st0" x1="154.9" y1="1401.8" x2="165.7" y2="1396.3"/>
<line class="st0" x1="146.2" y1="1410.4" x2="154.9" y2="1401.8"/>
<line class="st0" x1="140.7" y1="1421.3" x2="146.2" y2="1410.4"/>
<line class="st0" x1="138.8" y1="1433.3" x2="138.8" y2="1437.7"/>
<line class="st0" x1="138.8" y1="1433.3" x2="140.7" y2="1421.3"/>
<line class="st0" x1="217.2" y1="1484" x2="217.2" y2="1495.6"/>
<line class="st0" x1="217.2" y1="1507.2" x2="217.2" y2="1495.6"/>
<line class="st0" x1="217.2" y1="1511.6" x2="217.2" y2="1507.2"/>
<line class="st0" x1="215.3" y1="1523.6" x2="217.2" y2="1511.6"/>
<line class="st0" x1="209.8" y1="1534.5" x2="215.3" y2="1523.6"/>
<line class="st0" x1="201.1" y1="1543.1" x2="209.8" y2="1534.5"/>
<line class="st0" x1="198.2" y1="1544.5" x2="201.1" y2="1543.1"/>
<line class="st0" x1="217.2" y1="1460.9" x2="217.2" y2="1449.4"/>
<line class="st0" x1="217.2" y1="1437.8" x2="217.2" y2="1449.4"/>
<line class="st0" x1="217.2" y1="1472.5" x2="217.2" y2="1484"/>
<line class="st0" x1="217.2" y1="1472.5" x2="217.2" y2="1460.9"/>
<line class="st0" x1="217.2" y1="1433.4" x2="217.2" y2="1437.8"/>
<line class="st0" x1="215.3" y1="1421.4" x2="217.2" y2="1433.4"/>
<line class="st0" x1="209.8" y1="1410.5" x2="215.3" y2="1421.4"/>
<line class="st0" x1="201.1" y1="1401.9" x2="209.8" y2="1410.5"/>
<line class="st0" x1="190.3" y1="1396.4" x2="189.9" y2="1396.3"/>
<line class="st0" x1="190.3" y1="1396.4" x2="201.1" y2="1401.9"/>
<line class="st0" x1="194.4" y1="1729" x2="193.9" y2="1759.7"/>
<line class="st0" x1="195" y1="1694.5" x2="194.4" y2="1729"/>
<line class="st0" x1="195.7" y1="1659.6" x2="195" y2="1694.5"/>
<line class="st0" x1="196.5" y1="1624.6" x2="195.7" y2="1659.6"/>
<line class="st0" x1="197.3" y1="1589.5" x2="196.5" y2="1624.6"/>
<line class="st0" x1="147.9" y1="1731.9" x2="149.3" y2="1762.5"/>
<line class="st0" x1="146.3" y1="1696.8" x2="147.9" y2="1731.9"/>
<line class="st0" x1="144.9" y1="1661.5" x2="146.3" y2="1696.8"/>
<line class="st0" x1="143.6" y1="1625.9" x2="144.9" y2="1661.5"/>
<line class="st0" x1="142.4" y1="1590.2" x2="143.6" y2="1625.9"/>
<line class="st0" x1="198.3" y1="1539.3" x2="197.3" y2="1589.5"/>
<line class="st0" x1="141.3" y1="1539.3" x2="142.4" y2="1590.2"/>
<line class="st0" x1="140.7" y1="1469.8" x2="140.7" y2="1474.6"/>
<line class="st0" x1="142.9" y1="1452.8" x2="142.5" y2="1453.2"/>
<line class="st0" x1="141.1" y1="1456.2" x2="141.2" y2="1455.9"/>
<line class="st0" x1="147.5" y1="1449.2" x2="142.9" y2="1452.8"/>
<line class="st0" x1="140.2" y1="1497.3" x2="140.2" y2="1510.6"/>
<line class="st0" x1="140.2" y1="1497.3" x2="141.1" y2="1461.2"/>
<line class="st0" x1="140.2" y1="1517" x2="140.2" y2="1510.6"/>
<line class="st0" x1="140.2" y1="1517" x2="141.3" y2="1539.3"/>
<line class="st0" x1="149.4" y1="1765.6" x2="149.3" y2="1762.5"/>
<line class="st0" x1="192.5" y1="1765.6" x2="192.6" y2="1765.3"/>
<line class="st0" x1="149.6" y1="1766.5" x2="149.4" y2="1765.6"/>
<line class="st0" x1="191.7" y1="1766.5" x2="192.5" y2="1765.6"/>
<line class="st0" x1="199.5" y1="1517" x2="199.5" y2="1510.7"/>
<line class="st0" x1="199.5" y1="1517" x2="198.3" y2="1539.3"/>
<line class="st0" x1="212.9" y1="1478" x2="209.4" y2="1488.8"/>
<line class="st0" x1="212.9" y1="1466.6" x2="212.9" y2="1478"/>
<line class="st0" x1="209.4" y1="1455.7" x2="212.9" y2="1466.6"/>
<line class="st0" x1="202.7" y1="1446.5" x2="209.4" y2="1455.7"/>
<line class="st0" x1="193.5" y1="1439.8" x2="202.7" y2="1446.5"/>
<line class="st0" x1="182.6" y1="1436.3" x2="193.5" y2="1439.8"/>
<line class="st0" x1="202.7" y1="1498" x2="209.4" y2="1488.8"/>
<line class="st0" x1="202.7" y1="1498" x2="202.4" y2="1498.2"/>
<line class="st0" x1="182.5" y1="1436.3" x2="182.6" y2="1436.3"/>
<line class="st0" x1="171.1" y1="1436.3" x2="182.5" y2="1436.3"/>
<line class="st0" x1="160.3" y1="1439.8" x2="171.1" y2="1436.3"/>
<line class="st0" x1="151.1" y1="1446.5" x2="147.5" y2="1449.2"/>
<line class="st0" x1="151.1" y1="1446.5" x2="160.3" y2="1439.8"/>
<line class="st0" x1="202.6" y1="1498" x2="199.5" y2="1502.2"/>
<line class="st0" x1="140.7" y1="1470.2" x2="140.7" y2="1469.8"/>
<line class="st0" x1="140.7" y1="1474.2" x2="140.7" y2="1474.6"/>
<line class="st0" x1="140.7" y1="1474.2" x2="140.7" y2="1470.2"/>
<line class="st0" x1="140.8" y1="1459.3" x2="141.1" y2="1456.2"/>
<line class="st0" x1="199.5" y1="1502" x2="199.5" y2="1510.7"/>
<line class="st0" x1="206" y1="1492.5" x2="199.5" y2="1502"/>
<line class="st0" x1="193.8" y1="1762.7" x2="193.9" y2="1759.7"/>
<line class="st0" x1="193.8" y1="1762.7" x2="192.6" y2="1765.3"/>
<line class="st0" x1="150.4" y1="1769" x2="149.6" y2="1766.5"/>
<line class="st0" x1="157.1" y1="1769.1" x2="150.4" y2="1769"/>
<line class="st0" x1="165.2" y1="1769.1" x2="157.1" y2="1769.1"/>
<line class="st0" x1="173.8" y1="1769.1" x2="165.2" y2="1769.1"/>
<line class="st0" x1="182.1" y1="1769.1" x2="173.8" y2="1769.1"/>
<line class="st0" x1="189.4" y1="1769" x2="191.7" y2="1766.5"/>
<line class="st0" x1="189.4" y1="1769" x2="182.1" y2="1769.1"/>
<line class="st0" x1="150.6" y1="1447.4" x2="151.9" y2="1446.4"/>
<line class="st0" x1="141.5" y1="1454.2" x2="142.5" y2="1453.2"/>
<line class="st0" x1="141.5" y1="1454.2" x2="141.2" y2="1455.9"/>
<line class="st0" x1="141.5" y1="1454.2" x2="150.6" y2="1447.4"/>
<line class="st0" x1="140.6" y1="1466.5" x2="140.8" y2="1459.3"/>
<line class="st0" x1="140.6" y1="1477.9" x2="140.6" y2="1478.9"/>
<line class="st0" x1="140.6" y1="1477.9" x2="140.6" y2="1466.5"/>
</svg>
