<?xml version="1.0" encoding="utf-8"?>
<!-- Generator: Adobe Illustrator 23.0.1, SVG Export Plug-In . SVG Version: 6.00 Build 0)  -->
<!DOCTYPE svg PUBLIC "-//W3C//DTD SVG 1.1//EN" "http://www.w3.org/Graphics/SVG/1.1/DTD/svg11.dtd" [
	<!ENTITY ns_extend "http://ns.adobe.com/Extensibility/1.0/">
	<!ENTITY ns_ai "http://ns.adobe.com/AdobeIllustrator/10.0/">
	<!ENTITY ns_graphs "http://ns.adobe.com/Graphs/1.0/">
	<!ENTITY ns_vars "http://ns.adobe.com/Variables/1.0/">
	<!ENTITY ns_imrep "http://ns.adobe.com/ImageReplacement/1.0/">
	<!ENTITY ns_sfw "http://ns.adobe.com/SaveForWeb/1.0/">
	<!ENTITY ns_custom "http://ns.adobe.com/GenericCustomNamespace/1.0/">
	<!ENTITY ns_adobe_xpath "http://ns.adobe.com/XPath/1.0/">
]>
<svg version="1.1" id="Layer_1" xmlns:x="&ns_extend;" xmlns:i="&ns_ai;" xmlns:graph="&ns_graphs;"
	 xmlns="http://www.w3.org/2000/svg" xmlns:xlink="http://www.w3.org/1999/xlink" x="0px" y="0px" viewBox="0 0 1303.2 3370.5"
	 style="enable-background:new 0 0 1303.2 3370.5;" xml:space="preserve">
<style type="text/css">
	.st0{fill:none;stroke:#FFFFFF;stroke-width:2;stroke-linecap:round;stroke-linejoin:round;}
</style>
<metadata>
	<sfw  xmlns="&ns_sfw;">
		<slices></slices>
		<sliceSourceBounds  bottomLeftOrigin="true" height="3372.5" width="1305.2" x="895.6" y="313.7"></sliceSourceBounds>
	</sfw>
</metadata>
<line class="st0" x1="1176.3" y1="466.1" x2="1176.6" y2="466.6"/>
<line class="st0" x1="1108.5" y1="509.1" x2="1109.2" y2="510.2"/>
<line class="st0" x1="1176.3" y1="2904.6" x2="1176.6" y2="2904"/>
<line class="st0" x1="1108.5" y1="2861.5" x2="1109.2" y2="2860.4"/>
<line class="st0" x1="1177.2" y1="466.2" x2="1177" y2="466.1"/>
<line class="st0" x1="1176.4" y1="464.9" x2="1176.2" y2="464.7"/>
<line class="st0" x1="1177.3" y1="466.4" x2="1177.2" y2="466.2"/>
<line class="st0" x1="1176.5" y1="465.1" x2="1176.4" y2="464.9"/>
<line class="st0" x1="1177.4" y1="466.7" x2="1177.3" y2="466.4"/>
<line class="st0" x1="1176.5" y1="465.4" x2="1176.5" y2="465.1"/>
<line class="st0" x1="1176.4" y1="465.7" x2="1176.5" y2="465.4"/>
<line class="st0" x1="1176.2" y1="466.1" x2="1176.4" y2="465.7"/>
<line class="st0" x1="1176" y1="466.6" x2="1176.2" y2="466.1"/>
<line class="st0" x1="1158.1" y1="490.4" x2="1176" y2="466.6"/>
<line class="st0" x1="1157.7" y1="490.8" x2="1158.1" y2="490.4"/>
<line class="st0" x1="1157.3" y1="491.3" x2="1157.7" y2="490.8"/>
<line class="st0" x1="1156.8" y1="491.7" x2="1157.3" y2="491.3"/>
<line class="st0" x1="1156.4" y1="492" x2="1156.8" y2="491.7"/>
<line class="st0" x1="1155.9" y1="492.3" x2="1156.4" y2="492"/>
<line class="st0" x1="1155.4" y1="492.6" x2="1155.9" y2="492.3"/>
<line class="st0" x1="1155" y1="492.8" x2="1155.4" y2="492.6"/>
<line class="st0" x1="1107.3" y1="509.5" x2="1155" y2="492.8"/>
<line class="st0" x1="1108.9" y1="509.9" x2="1108.1" y2="510.9"/>
<line class="st0" x1="1108.9" y1="509.8" x2="1108.9" y2="509.9"/>
<line class="st0" x1="1176.7" y1="466.1" x2="1177" y2="466.1"/>
<line class="st0" x1="1176.3" y1="466.1" x2="1176.3" y2="466.1"/>
<line class="st0" x1="1176.3" y1="466.1" x2="1176.7" y2="466.1"/>
<line class="st0" x1="1177.2" y1="2904.4" x2="1177" y2="2904.5"/>
<line class="st0" x1="1176.4" y1="2905.7" x2="1176.2" y2="2905.9"/>
<line class="st0" x1="1177.3" y1="2904.2" x2="1177.2" y2="2904.4"/>
<line class="st0" x1="1176.5" y1="2905.5" x2="1176.4" y2="2905.7"/>
<line class="st0" x1="1177.4" y1="2903.9" x2="1177.4" y2="466.7"/>
<line class="st0" x1="1177.4" y1="2903.9" x2="1177.3" y2="2904.2"/>
<line class="st0" x1="1176.5" y1="2905.2" x2="1176.5" y2="2905.5"/>
<line class="st0" x1="1176.4" y1="2904.9" x2="1176.5" y2="2905.2"/>
<line class="st0" x1="1176.2" y1="2904.5" x2="1176.4" y2="2904.9"/>
<line class="st0" x1="1176" y1="2904" x2="1176.2" y2="2904.5"/>
<line class="st0" x1="1158.1" y1="2880.2" x2="1176" y2="2904"/>
<line class="st0" x1="1157.7" y1="2879.8" x2="1158.1" y2="2880.2"/>
<line class="st0" x1="1157.3" y1="2879.3" x2="1157.7" y2="2879.8"/>
<line class="st0" x1="1156.8" y1="2878.9" x2="1157.3" y2="2879.3"/>
<line class="st0" x1="1156.4" y1="2878.6" x2="1156.8" y2="2878.9"/>
<line class="st0" x1="1155.9" y1="2878.3" x2="1156.4" y2="2878.6"/>
<line class="st0" x1="1155.4" y1="2878" x2="1155.9" y2="2878.3"/>
<line class="st0" x1="1155" y1="2877.8" x2="1155.4" y2="2878"/>
<line class="st0" x1="1108.1" y1="2859.7" x2="1108.1" y2="510.9"/>
<line class="st0" x1="1107.3" y1="2861.1" x2="1155" y2="2877.8"/>
<line class="st0" x1="1108.9" y1="2860.7" x2="1108.1" y2="2859.7"/>
<line class="st0" x1="1108.9" y1="2860.8" x2="1108.9" y2="2860.7"/>
<line class="st0" x1="1176.7" y1="2904.5" x2="1177" y2="2904.5"/>
<line class="st0" x1="1176.3" y1="2904.5" x2="1176.3" y2="2904.5"/>
<line class="st0" x1="1176.3" y1="2904.5" x2="1176.7" y2="2904.5"/>
<line class="st0" x1="393.6" y1="354.6" x2="393.3" y2="354.9"/>
<line class="st0" x1="393.5" y1="3015.8" x2="393.3" y2="3015.7"/>
<line class="st0" x1="367.9" y1="314.8" x2="1176.2" y2="464.7"/>
<line class="st0" x1="368" y1="316.5" x2="367.5" y2="316.2"/>
<line class="st0" x1="368.5" y1="316.9" x2="368" y2="316.5"/>
<line class="st0" x1="369.1" y1="317.4" x2="368.5" y2="316.9"/>
<line class="st0" x1="369.6" y1="318" x2="369.1" y2="317.4"/>
<line class="st0" x1="370.1" y1="318.7" x2="369.6" y2="318"/>
<line class="st0" x1="392.5" y1="353.2" x2="370.1" y2="318.7"/>
<line class="st0" x1="392.8" y1="353.8" x2="392.5" y2="353.2"/>
<line class="st0" x1="393.1" y1="354.4" x2="392.8" y2="353.8"/>
<line class="st0" x1="393.3" y1="354.9" x2="393.1" y2="354.4"/>
<line class="st0" x1="393.4" y1="355.5" x2="393.3" y2="354.9"/>
<line class="st0" x1="393.4" y1="383.3" x2="1107.3" y2="509.5"/>
<line class="st0" x1="367.5" y1="314.8" x2="367.9" y2="314.8"/>
<line class="st0" x1="367.9" y1="3055.8" x2="1176.2" y2="2905.9"/>
<line class="st0" x1="368" y1="3054.1" x2="367.5" y2="3054.4"/>
<line class="st0" x1="368.5" y1="3053.7" x2="368" y2="3054.1"/>
<line class="st0" x1="369.1" y1="3053.2" x2="368.5" y2="3053.7"/>
<line class="st0" x1="369.6" y1="3052.6" x2="369.1" y2="3053.2"/>
<line class="st0" x1="370.1" y1="3051.9" x2="369.6" y2="3052.6"/>
<line class="st0" x1="392.5" y1="3017.4" x2="370.1" y2="3051.9"/>
<line class="st0" x1="392.8" y1="3016.8" x2="392.5" y2="3017.4"/>
<line class="st0" x1="393.1" y1="3016.2" x2="392.8" y2="3016.8"/>
<line class="st0" x1="393.3" y1="3015.7" x2="393.1" y2="3016.2"/>
<line class="st0" x1="393.4" y1="1568.8" x2="393.4" y2="355.5"/>
<line class="st0" x1="393.4" y1="3015.2" x2="393.4" y2="1915.6"/>
<line class="st0" x1="393.4" y1="3015.2" x2="393.3" y2="3015.7"/>
<line class="st0" x1="393.4" y1="2987.4" x2="1107.3" y2="2861.1"/>
<line class="st0" x1="367.5" y1="3055.9" x2="367.9" y2="3055.8"/>
<line class="st0" x1="1099" y1="518.3" x2="1098.3" y2="517.2"/>
<line class="st0" x1="1099" y1="518.3" x2="1098.3" y2="517.2"/>
<line class="st0" x1="1099" y1="518.3" x2="1098.3" y2="517.2"/>
<line class="st0" x1="1098.3" y1="2853.3" x2="1099" y2="2852.2"/>
<line class="st0" x1="1098.3" y1="2853.3" x2="1099" y2="2852.2"/>
<line class="st0" x1="1098.3" y1="2853.3" x2="1099" y2="2852.2"/>
<line class="st0" x1="1106.3" y1="509.6" x2="1106.6" y2="509.4"/>
<line class="st0" x1="1105.8" y1="509.9" x2="1106.3" y2="509.6"/>
<line class="st0" x1="1105.4" y1="510.3" x2="1105.8" y2="509.9"/>
<line class="st0" x1="1105" y1="510.6" x2="1105.4" y2="510.3"/>
<line class="st0" x1="1104.5" y1="511" x2="1105" y2="510.6"/>
<line class="st0" x1="1104.1" y1="511.3" x2="1104.5" y2="511"/>
<line class="st0" x1="1103.7" y1="511.7" x2="1104.1" y2="511.3"/>
<line class="st0" x1="1103.2" y1="512.1" x2="1103.7" y2="511.7"/>
<line class="st0" x1="1102.8" y1="512.5" x2="1103.2" y2="512.1"/>
<line class="st0" x1="1102.4" y1="512.9" x2="1102.8" y2="512.5"/>
<line class="st0" x1="1102" y1="513.2" x2="1102.4" y2="512.9"/>
<line class="st0" x1="1101.6" y1="513.6" x2="1102" y2="513.2"/>
<line class="st0" x1="1101.3" y1="514" x2="1101.6" y2="513.6"/>
<line class="st0" x1="1100.9" y1="514.4" x2="1101.3" y2="514"/>
<line class="st0" x1="1100.6" y1="514.8" x2="1100.9" y2="514.4"/>
<line class="st0" x1="1100.2" y1="515.2" x2="1100.6" y2="514.8"/>
<line class="st0" x1="1099.2" y1="516.5" x2="1100.2" y2="515.2"/>
<line class="st0" x1="1099.1" y1="516.7" x2="1099.2" y2="516.5"/>
<line class="st0" x1="1098.9" y1="516.8" x2="1099.1" y2="516.7"/>
<line class="st0" x1="1098.7" y1="517" x2="1098.9" y2="516.8"/>
<line class="st0" x1="1098.5" y1="517.1" x2="1098.7" y2="517"/>
<line class="st0" x1="1098.3" y1="517.3" x2="1098.5" y2="517.1"/>
<line class="st0" x1="1098.1" y1="517.4" x2="1098.3" y2="517.3"/>
<line class="st0" x1="1097.9" y1="517.4" x2="1098.1" y2="517.4"/>
<line class="st0" x1="1097.8" y1="517.4" x2="1097.9" y2="517.4"/>
<line class="st0" x1="1099" y1="518.3" x2="1099" y2="518.3"/>
<line class="st0" x1="1098.6" y1="518.8" x2="1099" y2="518.4"/>
<line class="st0" x1="1098.6" y1="518.8" x2="1099" y2="518.3"/>
<line class="st0" x1="1097.6" y1="517.4" x2="1097.8" y2="517.4"/>
<line class="st0" x1="1098.3" y1="518.5" x2="1098.3" y2="518.7"/>
<line class="st0" x1="1098.4" y1="518.4" x2="1098.3" y2="518.5"/>
<line class="st0" x1="1098.5" y1="518.2" x2="1098.4" y2="518.4"/>
<line class="st0" x1="1098.6" y1="518" x2="1098.5" y2="518.2"/>
<line class="st0" x1="1098.7" y1="517.9" x2="1098.6" y2="518"/>
<line class="st0" x1="1106.3" y1="2860.9" x2="1106.7" y2="2861.2"/>
<line class="st0" x1="1105.8" y1="2860.6" x2="1106.3" y2="2860.9"/>
<line class="st0" x1="1105.4" y1="2860.3" x2="1105.8" y2="2860.6"/>
<line class="st0" x1="1105" y1="2859.9" x2="1105.4" y2="2860.3"/>
<line class="st0" x1="1104.5" y1="2859.6" x2="1105" y2="2859.9"/>
<line class="st0" x1="1104.1" y1="2859.2" x2="1104.5" y2="2859.6"/>
<line class="st0" x1="1103.7" y1="2858.8" x2="1104.1" y2="2859.2"/>
<line class="st0" x1="1103.2" y1="2858.4" x2="1103.7" y2="2858.8"/>
<line class="st0" x1="1102.8" y1="2858.1" x2="1103.2" y2="2858.4"/>
<line class="st0" x1="1102.4" y1="2857.7" x2="1102.8" y2="2858.1"/>
<line class="st0" x1="1102" y1="2857.3" x2="1102.4" y2="2857.7"/>
<line class="st0" x1="1101.6" y1="2856.9" x2="1102" y2="2857.3"/>
<line class="st0" x1="1101.3" y1="2856.5" x2="1101.6" y2="2856.9"/>
<line class="st0" x1="1100.9" y1="2856.1" x2="1101.3" y2="2856.5"/>
<line class="st0" x1="1100.6" y1="2855.7" x2="1100.9" y2="2856.1"/>
<line class="st0" x1="1100.2" y1="2855.3" x2="1100.6" y2="2855.7"/>
<line class="st0" x1="1099.2" y1="2854.1" x2="1100.2" y2="2855.3"/>
<line class="st0" x1="1099.1" y1="2853.9" x2="1099.2" y2="2854.1"/>
<line class="st0" x1="1098.9" y1="2853.7" x2="1099.1" y2="2853.9"/>
<line class="st0" x1="1098.7" y1="2853.5" x2="1098.9" y2="2853.7"/>
<line class="st0" x1="1098.5" y1="2853.4" x2="1098.7" y2="2853.5"/>
<line class="st0" x1="1098.3" y1="2853.2" x2="1098.5" y2="2853.4"/>
<line class="st0" x1="1098.1" y1="2853.1" x2="1098.3" y2="2853.2"/>
<line class="st0" x1="1099" y1="2852.2" x2="1099" y2="2852.2"/>
<line class="st0" x1="1098.7" y1="2851.7" x2="1099" y2="2852.2"/>
<line class="st0" x1="1098.7" y1="2851.7" x2="1099" y2="2852.2"/>
<line class="st0" x1="1097.9" y1="2853.1" x2="1098.1" y2="2853.1"/>
<line class="st0" x1="1097.8" y1="2853.1" x2="1097.9" y2="2853.1"/>
<line class="st0" x1="1097.6" y1="2853.1" x2="1097.8" y2="2853.1"/>
<line class="st0" x1="1098.3" y1="2851.9" x2="1098.3" y2="518.7"/>
<line class="st0" x1="1098.3" y1="2852" x2="1098.3" y2="2851.9"/>
<line class="st0" x1="1098.4" y1="2852.1" x2="1098.3" y2="2852"/>
<line class="st0" x1="1098.5" y1="2852.3" x2="1098.4" y2="2852.1"/>
<line class="st0" x1="1098.6" y1="2852.5" x2="1098.5" y2="2852.3"/>
<line class="st0" x1="1098.7" y1="2852.6" x2="1098.6" y2="2852.5"/>
<line class="st0" x1="393.4" y1="393.9" x2="1097.6" y2="517.4"/>
<line class="st0" x1="393.4" y1="2976.6" x2="1097.6" y2="2853.1"/>
<line class="st0" x1="208.9" y1="127.3" x2="209" y2="127.2"/>
<line class="st0" x1="208.8" y1="127.6" x2="208.9" y2="127.3"/>
<line class="st0" x1="213.9" y1="128" x2="216.2" y2="128.4"/>
<line class="st0" x1="209.3" y1="127.2" x2="209" y2="127.2"/>
<line class="st0" x1="209.3" y1="127.2" x2="213.9" y2="128"/>
<line class="st0" x1="208.9" y1="3243.2" x2="209" y2="3243.3"/>
<line class="st0" x1="208.8" y1="3242.9" x2="208.8" y2="127.6"/>
<line class="st0" x1="208.8" y1="3242.9" x2="208.9" y2="3243.2"/>
<line class="st0" x1="213.9" y1="3242.5" x2="216.3" y2="3242.1"/>
<line class="st0" x1="209.3" y1="3243.3" x2="209" y2="3243.3"/>
<line class="st0" x1="209.3" y1="3243.3" x2="213.9" y2="3242.5"/>
<line class="st0" x1="309.6" y1="1518.6" x2="302.1" y2="1520"/>
<line class="st0" x1="302.1" y1="1520" x2="300.1" y2="1520.4"/>
<line class="st0" x1="300.1" y1="1520.4" x2="293.3" y2="1524.8"/>
<line class="st0" x1="293.3" y1="1524.8" x2="291.5" y2="1526.1"/>
<line class="st0" x1="291.5" y1="1526.1" x2="286.1" y2="1533.1"/>
<line class="st0" x1="286.1" y1="1533.1" x2="284.6" y2="1535.1"/>
<line class="st0" x1="284.6" y1="1535.1" x2="281.2" y2="1544.1"/>
<line class="st0" x1="281.2" y1="1544.1" x2="280.2" y2="1546.5"/>
<line class="st0" x1="280.2" y1="1546.5" x2="279" y2="1556.5"/>
<line class="st0" x1="279" y1="1556.5" x2="278.7" y2="1559.3"/>
<line class="st0" x1="278.7" y1="1563" x2="278.7" y2="1559.3"/>
<line class="st0" x1="278.7" y1="1564" x2="278.7" y2="1563"/>
<line class="st0" x1="278.7" y1="1573.7" x2="278.7" y2="1564"/>
<line class="st0" x1="278.7" y1="1576.3" x2="278.7" y2="1573.7"/>
<line class="st0" x1="278.7" y1="1586" x2="278.7" y2="1576.3"/>
<line class="st0" x1="278.7" y1="1588.6" x2="278.7" y2="1586"/>
<line class="st0" x1="278.7" y1="1598.3" x2="278.7" y2="1588.6"/>
<line class="st0" x1="278.7" y1="1600.9" x2="278.7" y2="1598.3"/>
<line class="st0" x1="278.7" y1="1610.6" x2="278.7" y2="1600.9"/>
<line class="st0" x1="278.7" y1="1613.2" x2="278.7" y2="1610.6"/>
<line class="st0" x1="278.7" y1="1622.9" x2="278.7" y2="1613.2"/>
<line class="st0" x1="278.7" y1="1625.5" x2="278.7" y2="1622.9"/>
<line class="st0" x1="278.7" y1="1635.2" x2="278.7" y2="1625.5"/>
<line class="st0" x1="278.7" y1="1637.8" x2="278.7" y2="1635.2"/>
<line class="st0" x1="278.7" y1="1641.5" x2="278.7" y2="1637.8"/>
<line class="st0" x1="278.7" y1="1642.6" x2="278.7" y2="1641.5"/>
<line class="st0" x1="279.9" y1="1652.6" x2="278.7" y2="1642.6"/>
<line class="st0" x1="280.2" y1="1655.4" x2="279.9" y2="1652.6"/>
<line class="st0" x1="283.7" y1="1664.4" x2="280.2" y2="1655.4"/>
<line class="st0" x1="284.6" y1="1666.9" x2="283.7" y2="1664.4"/>
<line class="st0" x1="290" y1="1674.1" x2="284.6" y2="1666.9"/>
<line class="st0" x1="291.5" y1="1676.1" x2="290" y2="1674.1"/>
<line class="st0" x1="298.2" y1="1680.7" x2="291.5" y2="1676.1"/>
<line class="st0" x1="300.1" y1="1682" x2="298.2" y2="1680.7"/>
<line class="st0" x1="307.6" y1="1683.6" x2="300.1" y2="1682"/>
<line class="st0" x1="309.6" y1="1684" x2="307.6" y2="1683.6"/>
<line class="st0" x1="1271.6" y1="339.8" x2="1271.7" y2="340"/>
<line class="st0" x1="1172.6" y1="464" x2="1172.6" y2="464"/>
<line class="st0" x1="1271.6" y1="3030.7" x2="1271.7" y2="3030.5"/>
<line class="st0" x1="1271.9" y1="339" x2="1271.7" y2="338.9"/>
<line class="st0" x1="1271.2" y1="337.6" x2="1270.5" y2="337.2"/>
<line class="st0" x1="1272.4" y1="339.7" x2="1271.9" y2="339"/>
<line class="st0" x1="1271.6" y1="338.3" x2="1271.2" y2="337.6"/>
<line class="st0" x1="1272.5" y1="340.5" x2="1272.4" y2="339.7"/>
<line class="st0" x1="1271.7" y1="339.2" x2="1271.6" y2="338.3"/>
<line class="st0" x1="1271.6" y1="340.2" x2="1271.7" y2="339.2"/>
<line class="st0" x1="1271.1" y1="341.5" x2="1271.6" y2="340.2"/>
<line class="st0" x1="1270.4" y1="342.8" x2="1271.1" y2="341.5"/>
<line class="st0" x1="1269.4" y1="344.2" x2="1270.4" y2="342.8"/>
<line class="st0" x1="1182" y1="460.6" x2="1269.4" y2="344.2"/>
<line class="st0" x1="1181.6" y1="461.1" x2="1182" y2="460.6"/>
<line class="st0" x1="1181" y1="461.7" x2="1181.6" y2="461.1"/>
<line class="st0" x1="1180.3" y1="462.2" x2="1181" y2="461.7"/>
<line class="st0" x1="1179.7" y1="462.6" x2="1180.3" y2="462.2"/>
<line class="st0" x1="1179.1" y1="462.9" x2="1179.7" y2="462.6"/>
<line class="st0" x1="1178.5" y1="463.1" x2="1179.1" y2="462.9"/>
<line class="st0" x1="1172.5" y1="464" x2="1178.5" y2="463.1"/>
<line class="st0" x1="1271.9" y1="3031.5" x2="1271.7" y2="3031.7"/>
<line class="st0" x1="1271.2" y1="3032.9" x2="1270.5" y2="3033.3"/>
<line class="st0" x1="1272.4" y1="3030.9" x2="1271.9" y2="3031.5"/>
<line class="st0" x1="1271.6" y1="3032.2" x2="1271.2" y2="3032.9"/>
<line class="st0" x1="1272.5" y1="3030" x2="1272.5" y2="340.5"/>
<line class="st0" x1="1272.5" y1="3030" x2="1272.4" y2="3030.9"/>
<line class="st0" x1="1271.7" y1="3031.4" x2="1271.6" y2="3032.2"/>
<line class="st0" x1="1271.6" y1="3030.3" x2="1271.7" y2="3031.4"/>
<line class="st0" x1="1271.1" y1="3029.1" x2="1271.6" y2="3030.3"/>
<line class="st0" x1="1270.4" y1="3027.7" x2="1271.1" y2="3029.1"/>
<line class="st0" x1="1269.4" y1="3026.3" x2="1270.4" y2="3027.7"/>
<line class="st0" x1="1182" y1="2909.9" x2="1269.4" y2="3026.3"/>
<line class="st0" x1="1181.6" y1="2909.4" x2="1182" y2="2909.9"/>
<line class="st0" x1="1181" y1="2908.8" x2="1181.6" y2="2909.4"/>
<line class="st0" x1="1180.3" y1="2908.3" x2="1181" y2="2908.8"/>
<line class="st0" x1="1179.7" y1="2907.9" x2="1180.3" y2="2908.3"/>
<line class="st0" x1="1179.1" y1="2907.6" x2="1179.7" y2="2907.9"/>
<line class="st0" x1="1178.5" y1="2907.4" x2="1179.1" y2="2907.6"/>
<line class="st0" x1="1172.8" y1="2906.5" x2="1178.5" y2="2907.4"/>
<line class="st0" x1="217.1" y1="129.1" x2="217.2" y2="128.9"/>
<line class="st0" x1="367.6" y1="311.7" x2="367.4" y2="311.9"/>
<line class="st0" x1="217.2" y1="3241.6" x2="217.1" y2="3241.4"/>
<line class="st0" x1="367.6" y1="3058.9" x2="367.4" y2="3058.6"/>
<line class="st0" x1="216.2" y1="128.4" x2="216.7" y2="129.2"/>
<line class="st0" x1="238.3" y1="123.2" x2="216.2" y2="128.4"/>
<line class="st0" x1="237.2" y1="124.4" x2="215.2" y2="129.6"/>
<line class="st0" x1="238.6" y1="124.2" x2="237.2" y2="124.4"/>
<line class="st0" x1="239.7" y1="123.1" x2="238.3" y2="123.2"/>
<line class="st0" x1="240.3" y1="124.5" x2="238.6" y2="124.2"/>
<line class="st0" x1="241.3" y1="123.4" x2="1270.5" y2="337.2"/>
<line class="st0" x1="241.3" y1="123.4" x2="239.7" y2="123.1"/>
<line class="st0" x1="242" y1="125.2" x2="240.3" y2="124.5"/>
<line class="st0" x1="243.9" y1="126.2" x2="242" y2="125.2"/>
<line class="st0" x1="245.9" y1="127.6" x2="243.9" y2="126.2"/>
<line class="st0" x1="247.8" y1="129.3" x2="245.9" y2="127.6"/>
<line class="st0" x1="249.7" y1="131.2" x2="247.8" y2="129.3"/>
<line class="st0" x1="251.4" y1="133.3" x2="249.7" y2="131.2"/>
<line class="st0" x1="253" y1="135.5" x2="251.4" y2="133.3"/>
<line class="st0" x1="366.6" y1="310" x2="253" y2="135.5"/>
<line class="st0" x1="367.1" y1="310.9" x2="366.6" y2="310"/>
<line class="st0" x1="367.4" y1="311.7" x2="367.1" y2="310.9"/>
<line class="st0" x1="367.5" y1="312.4" x2="367.4" y2="311.7"/>
<line class="st0" x1="215.2" y1="3240.9" x2="215.2" y2="129.6"/>
<line class="st0" x1="216.2" y1="3242.1" x2="216.7" y2="3241.3"/>
<line class="st0" x1="237.2" y1="3246.2" x2="215.2" y2="3240.9"/>
<line class="st0" x1="238.3" y1="3247.3" x2="216.2" y2="3242.1"/>
<line class="st0" x1="238.6" y1="3246.3" x2="237.2" y2="3246.2"/>
<line class="st0" x1="239.7" y1="3247.5" x2="238.3" y2="3247.3"/>
<line class="st0" x1="240.3" y1="3246" x2="238.6" y2="3246.3"/>
<line class="st0" x1="241.3" y1="3247.2" x2="1270.5" y2="3033.3"/>
<line class="st0" x1="241.3" y1="3247.2" x2="239.7" y2="3247.5"/>
<line class="st0" x1="242" y1="3245.3" x2="240.3" y2="3246"/>
<line class="st0" x1="243.9" y1="3244.3" x2="242" y2="3245.3"/>
<line class="st0" x1="245.9" y1="3242.9" x2="243.9" y2="3244.3"/>
<line class="st0" x1="247.8" y1="3241.2" x2="245.9" y2="3242.9"/>
<line class="st0" x1="249.7" y1="3239.3" x2="247.8" y2="3241.2"/>
<line class="st0" x1="251.4" y1="3237.2" x2="249.7" y2="3239.3"/>
<line class="st0" x1="253" y1="3235" x2="251.4" y2="3237.2"/>
<line class="st0" x1="366.6" y1="3060.5" x2="253" y2="3235"/>
<line class="st0" x1="367.1" y1="3059.6" x2="366.6" y2="3060.5"/>
<line class="st0" x1="367.4" y1="3058.8" x2="367.1" y2="3059.6"/>
<line class="st0" x1="367.5" y1="1565.7" x2="367.5" y2="312.4"/>
<line class="st0" x1="367.5" y1="3058.1" x2="367.5" y2="1913.5"/>
<line class="st0" x1="367.5" y1="3058.1" x2="367.4" y2="3058.8"/>
<line class="st0" x1="1302" y1="260.9" x2="1302.5" y2="261.7"/>
<line class="st0" x1="1302" y1="3109.6" x2="1302.5" y2="3108.8"/>
<line class="st0" x1="1302.7" y1="261.3" x2="1302.3" y2="261.4"/>
<line class="st0" x1="1303" y1="261.3" x2="1302.7" y2="261.3"/>
<line class="st0" x1="1303.1" y1="261.4" x2="1303" y2="261.3"/>
<line class="st0" x1="1302.3" y1="260" x2="1302.2" y2="259.9"/>
<line class="st0" x1="1303.2" y1="261.5" x2="1303.1" y2="261.4"/>
<line class="st0" x1="1302.4" y1="260.1" x2="1302.3" y2="260"/>
<line class="st0" x1="1302.4" y1="260.3" x2="1302.4" y2="260.1"/>
<line class="st0" x1="1302.3" y1="260.5" x2="1302.4" y2="260.3"/>
<line class="st0" x1="1302.1" y1="260.8" x2="1302.3" y2="260.5"/>
<line class="st0" x1="1248" y1="332.6" x2="1302.1" y2="260.8"/>
<line class="st0" x1="1302.7" y1="3109.2" x2="1302.3" y2="3109.1"/>
<line class="st0" x1="1303" y1="3109.2" x2="1302.7" y2="3109.2"/>
<line class="st0" x1="1303.1" y1="3109.2" x2="1303" y2="3109.2"/>
<line class="st0" x1="1302.3" y1="3110.5" x2="1302.2" y2="3110.6"/>
<line class="st0" x1="1303.2" y1="3109" x2="1303.2" y2="261.5"/>
<line class="st0" x1="1303.2" y1="3109" x2="1303.1" y2="3109.2"/>
<line class="st0" x1="1302.4" y1="3110.4" x2="1302.3" y2="3110.5"/>
<line class="st0" x1="1302.4" y1="3110.2" x2="1302.4" y2="3110.4"/>
<line class="st0" x1="1302.3" y1="3110" x2="1302.4" y2="3110.2"/>
<line class="st0" x1="1302.1" y1="3109.7" x2="1302.3" y2="3110"/>
<line class="st0" x1="1248" y1="3038" x2="1302.1" y2="3109.7"/>
<line class="st0" x1="89.6" y1="10.2" x2="89.7" y2="10"/>
<line class="st0" x1="107.8" y1="5.4" x2="107.7" y2="5.5"/>
<line class="st0" x1="1.7" y1="32.9" x2="1.8" y2="32.8"/>
<line class="st0" x1="13" y1="40.4" x2="12.3" y2="41.1"/>
<line class="st0" x1="17.7" y1="28.8" x2="17.5" y2="28.9"/>
<line class="st0" x1="27.7" y1="36.6" x2="27" y2="37.3"/>
<line class="st0" x1="89.7" y1="3360.5" x2="89.6" y2="3360.3"/>
<line class="st0" x1="107.8" y1="3365.2" x2="107.7" y2="3365"/>
<line class="st0" x1="1.8" y1="3337.7" x2="1.7" y2="3337.6"/>
<line class="st0" x1="13" y1="3330.2" x2="12.3" y2="3329.4"/>
<line class="st0" x1="17.7" y1="3341.8" x2="17.5" y2="3341.6"/>
<line class="st0" x1="27.7" y1="3333.9" x2="27" y2="3333.2"/>
<line class="st0" x1="88.9" y1="9.8" x2="88.8" y2="10.3"/>
<line class="st0" x1="87.8" y1="11" x2="87.8" y2="11.5"/>
<line class="st0" x1="89.1" y1="9.4" x2="88.9" y2="9.8"/>
<line class="st0" x1="88.1" y1="10.6" x2="87.8" y2="11"/>
<line class="st0" x1="88.4" y1="10.4" x2="88.1" y2="10.6"/>
<line class="st0" x1="89.5" y1="9.2" x2="89.1" y2="9.4"/>
<line class="st0" x1="90.1" y1="9.1" x2="89.5" y2="9.2"/>
<line class="st0" x1="89.1" y1="10.2" x2="88.4" y2="10.4"/>
<line class="st0" x1="89.5" y1="10.2" x2="89.1" y2="10.2"/>
<line class="st0" x1="90.6" y1="9" x2="105.9" y2="12.4"/>
<line class="st0" x1="90.6" y1="9" x2="90.1" y2="9.1"/>
<line class="st0" x1="90" y1="10.3" x2="89.5" y2="10.2"/>
<line class="st0" x1="90.6" y1="10.6" x2="90" y2="10.3"/>
<line class="st0" x1="91.1" y1="11" x2="90.6" y2="10.6"/>
<line class="st0" x1="91.7" y1="11.5" x2="91.1" y2="11"/>
<line class="st0" x1="93.3" y1="12.9" x2="91.7" y2="11.5"/>
<line class="st0" x1="96.6" y1="16.1" x2="93.3" y2="12.9"/>
<line class="st0" x1="97" y1="16.4" x2="96.6" y2="16.1"/>
<line class="st0" x1="97.3" y1="16.8" x2="97" y2="16.4"/>
<line class="st0" x1="97.5" y1="17.2" x2="97.3" y2="16.8"/>
<line class="st0" x1="105.9" y1="32.5" x2="97.5" y2="17.2"/>
<line class="st0" x1="105.9" y1="6.3" x2="105.9" y2="6.8"/>
<line class="st0" x1="107" y1="5.1" x2="107" y2="5.6"/>
<line class="st0" x1="106.2" y1="5.9" x2="105.9" y2="6.3"/>
<line class="st0" x1="107.2" y1="4.8" x2="107" y2="5.1"/>
<line class="st0" x1="106.5" y1="5.7" x2="106.2" y2="5.9"/>
<line class="st0" x1="107.6" y1="4.5" x2="107.2" y2="4.8"/>
<line class="st0" x1="108.2" y1="4.4" x2="107.6" y2="4.5"/>
<line class="st0" x1="107.2" y1="5.5" x2="106.5" y2="5.7"/>
<line class="st0" x1="107.6" y1="5.5" x2="107.2" y2="5.5"/>
<line class="st0" x1="108.7" y1="4.3" x2="120.9" y2="7"/>
<line class="st0" x1="108.7" y1="4.3" x2="108.2" y2="4.4"/>
<line class="st0" x1="108.1" y1="5.6" x2="107.6" y2="5.5"/>
<line class="st0" x1="108.6" y1="5.9" x2="108.1" y2="5.6"/>
<line class="st0" x1="109.2" y1="6.3" x2="108.6" y2="5.9"/>
<line class="st0" x1="109.8" y1="6.8" x2="109.2" y2="6.3"/>
<line class="st0" x1="114.8" y1="11.4" x2="109.8" y2="6.8"/>
<line class="st0" x1="115.1" y1="11.7" x2="114.8" y2="11.4"/>
<line class="st0" x1="115.4" y1="12.1" x2="115.1" y2="11.7"/>
<line class="st0" x1="115.6" y1="12.5" x2="115.4" y2="12.1"/>
<line class="st0" x1="120.9" y1="22.3" x2="115.6" y2="12.5"/>
<line class="st0" x1="121" y1="2.4" x2="120.9" y2="3"/>
<line class="st0" x1="122" y1="1.3" x2="122" y2="1.6"/>
<line class="st0" x1="121.2" y1="1.9" x2="121" y2="2.4"/>
<line class="st0" x1="122.3" y1="0.8" x2="122" y2="1.3"/>
<line class="st0" x1="121.6" y1="1.7" x2="121.2" y2="1.9"/>
<line class="st0" x1="122.7" y1="0.6" x2="122.3" y2="0.8"/>
<line class="st0" x1="123.7" y1="1.2" x2="121.6" y2="1.7"/>
<line class="st0" x1="124.8" y1="0" x2="122.7" y2="0.6"/>
<line class="st0" x1="124" y1="1.2" x2="123.7" y2="1.2"/>
<line class="st0" x1="125.1" y1="0" x2="1302.2" y2="259.9"/>
<line class="st0" x1="125.1" y1="0" x2="124.8" y2="0"/>
<line class="st0" x1="124.3" y1="1.3" x2="124" y2="1.2"/>
<line class="st0" x1="124.7" y1="1.5" x2="124.3" y2="1.3"/>
<line class="st0" x1="125.1" y1="1.8" x2="124.7" y2="1.5"/>
<line class="st0" x1="125.4" y1="2.2" x2="125.1" y2="1.8"/>
<line class="st0" x1="125.8" y1="2.6" x2="125.4" y2="2.2"/>
<line class="st0" x1="208.8" y1="129.5" x2="125.8" y2="2.6"/>
<line class="st0" x1="1.1" y1="32.8" x2="1.1" y2="33.1"/>
<line class="st0" x1="0" y1="33.6" x2="0" y2="33.9"/>
<line class="st0" x1="1.1" y1="32.5" x2="1.1" y2="32.8"/>
<line class="st0" x1="1.2" y1="32.3" x2="1.1" y2="32.5"/>
<line class="st0" x1="0.1" y1="33.4" x2="0" y2="33.6"/>
<line class="st0" x1="1.4" y1="32.1" x2="1.2" y2="32.3"/>
<line class="st0" x1="0.3" y1="33.3" x2="0.1" y2="33.4"/>
<line class="st0" x1="3.5" y1="31.6" x2="1.4" y2="32.1"/>
<line class="st0" x1="2.4" y1="32.7" x2="0.3" y2="33.3"/>
<line class="st0" x1="2.8" y1="32.7" x2="2.4" y2="32.7"/>
<line class="st0" x1="3.8" y1="31.6" x2="15.7" y2="34.1"/>
<line class="st0" x1="3.8" y1="31.6" x2="3.5" y2="31.6"/>
<line class="st0" x1="3.2" y1="32.8" x2="2.8" y2="32.7"/>
<line class="st0" x1="3.7" y1="33" x2="3.2" y2="32.8"/>
<line class="st0" x1="4.3" y1="33.4" x2="3.7" y2="33"/>
<line class="st0" x1="8.6" y1="36.5" x2="4.3" y2="33.4"/>
<line class="st0" x1="9.4" y1="37.1" x2="8.6" y2="36.5"/>
<line class="st0" x1="10.1" y1="37.8" x2="9.4" y2="37.1"/>
<line class="st0" x1="10.7" y1="38.6" x2="10.1" y2="37.8"/>
<line class="st0" x1="13" y1="42" x2="10.7" y2="38.6"/>
<line class="st0" x1="15.7" y1="50.3" x2="13" y2="46.1"/>
<line class="st0" x1="16.8" y1="28.9" x2="16.8" y2="29"/>
<line class="st0" x1="16.9" y1="28.4" x2="16.8" y2="28.9"/>
<line class="st0" x1="15.8" y1="29.6" x2="15.7" y2="30"/>
<line class="st0" x1="16" y1="29.3" x2="15.8" y2="29.6"/>
<line class="st0" x1="17.1" y1="28.1" x2="16.9" y2="28.4"/>
<line class="st0" x1="16.4" y1="29.1" x2="16" y2="29.3"/>
<line class="st0" x1="17.4" y1="28" x2="17.1" y2="28.1"/>
<line class="st0" x1="18.1" y1="27.8" x2="17.4" y2="28"/>
<line class="st0" x1="17" y1="28.9" x2="16.4" y2="29.1"/>
<line class="st0" x1="17.5" y1="28.9" x2="17" y2="28.9"/>
<line class="st0" x1="18.5" y1="27.8" x2="82.4" y2="41.5"/>
<line class="st0" x1="18.5" y1="27.8" x2="18.1" y2="27.8"/>
<line class="st0" x1="18" y1="29.1" x2="17.5" y2="28.9"/>
<line class="st0" x1="18.7" y1="29.4" x2="18" y2="29.1"/>
<line class="st0" x1="19.3" y1="30" x2="18.7" y2="29.4"/>
<line class="st0" x1="21" y1="31.3" x2="19.3" y2="30"/>
<line class="st0" x1="24.6" y1="34.3" x2="21" y2="31.3"/>
<line class="st0" x1="25.1" y1="34.9" x2="24.6" y2="34.3"/>
<line class="st0" x1="25.7" y1="35.5" x2="25.1" y2="34.9"/>
<line class="st0" x1="26.2" y1="36.2" x2="25.7" y2="35.5"/>
<line class="st0" x1="27.6" y1="38.3" x2="26.2" y2="36.2"/>
<line class="st0" x1="34.6" y1="53.6" x2="27.6" y2="44.6"/>
<line class="st0" x1="34.8" y1="53.8" x2="34.6" y2="53.6"/>
<line class="st0" x1="35" y1="54" x2="34.8" y2="53.8"/>
<line class="st0" x1="35.2" y1="54.1" x2="35" y2="54"/>
<line class="st0" x1="35.4" y1="54.2" x2="35.2" y2="54.1"/>
<line class="st0" x1="35.5" y1="54.3" x2="35.4" y2="54.2"/>
<line class="st0" x1="35.7" y1="54.3" x2="35.5" y2="54.3"/>
<line class="st0" x1="36.7" y1="53.1" x2="36.6" y2="53.1"/>
<line class="st0" x1="87.8" y1="41" x2="35.7" y2="54.3"/>
<line class="st0" x1="87.8" y1="40.1" x2="36.7" y2="53.1"/>
<line class="st0" x1="87.8" y1="3359" x2="87.8" y2="11.5"/>
<line class="st0" x1="87.8" y1="3359.5" x2="87.8" y2="3359"/>
<line class="st0" x1="88.9" y1="3360.7" x2="88.8" y2="3360.2"/>
<line class="st0" x1="88.1" y1="3359.9" x2="87.8" y2="3359.5"/>
<line class="st0" x1="89.1" y1="3361.1" x2="88.9" y2="3360.7"/>
<line class="st0" x1="88.4" y1="3360.1" x2="88.1" y2="3359.9"/>
<line class="st0" x1="89.5" y1="3361.3" x2="89.1" y2="3361.1"/>
<line class="st0" x1="89.1" y1="3360.3" x2="88.4" y2="3360.1"/>
<line class="st0" x1="90.1" y1="3361.5" x2="89.5" y2="3361.3"/>
<line class="st0" x1="89.5" y1="3360.3" x2="89.1" y2="3360.3"/>
<line class="st0" x1="90.6" y1="3361.5" x2="105.9" y2="3358.1"/>
<line class="st0" x1="90.6" y1="3361.5" x2="90.1" y2="3361.5"/>
<line class="st0" x1="90" y1="3360.2" x2="89.5" y2="3360.3"/>
<line class="st0" x1="90.6" y1="3359.9" x2="90" y2="3360.2"/>
<line class="st0" x1="91.1" y1="3359.5" x2="90.6" y2="3359.9"/>
<line class="st0" x1="91.7" y1="3359" x2="91.1" y2="3359.5"/>
<line class="st0" x1="93.3" y1="3357.6" x2="91.7" y2="3359"/>
<line class="st0" x1="96.6" y1="3354.4" x2="93.3" y2="3357.6"/>
<line class="st0" x1="97" y1="3354.1" x2="96.6" y2="3354.4"/>
<line class="st0" x1="97.3" y1="3353.7" x2="97" y2="3354.1"/>
<line class="st0" x1="97.5" y1="3353.3" x2="97.3" y2="3353.7"/>
<line class="st0" x1="105.9" y1="3338" x2="97.5" y2="3353.3"/>
<line class="st0" x1="105.9" y1="3363.7" x2="105.9" y2="6.8"/>
<line class="st0" x1="105.9" y1="3364.2" x2="105.9" y2="3363.7"/>
<line class="st0" x1="107" y1="3365.4" x2="107" y2="3364.9"/>
<line class="st0" x1="106.2" y1="3364.6" x2="105.9" y2="3364.2"/>
<line class="st0" x1="107.2" y1="3365.8" x2="107" y2="3365.4"/>
<line class="st0" x1="106.5" y1="3364.8" x2="106.2" y2="3364.6"/>
<line class="st0" x1="107.6" y1="3366" x2="107.2" y2="3365.8"/>
<line class="st0" x1="107.2" y1="3365" x2="106.5" y2="3364.8"/>
<line class="st0" x1="108.2" y1="3366.2" x2="107.6" y2="3366"/>
<line class="st0" x1="107.6" y1="3365" x2="107.2" y2="3365"/>
<line class="st0" x1="108.7" y1="3366.2" x2="120.9" y2="3363.5"/>
<line class="st0" x1="108.7" y1="3366.2" x2="108.2" y2="3366.2"/>
<line class="st0" x1="108.1" y1="3364.9" x2="107.6" y2="3365"/>
<line class="st0" x1="108.6" y1="3364.6" x2="108.1" y2="3364.9"/>
<line class="st0" x1="109.2" y1="3364.2" x2="108.6" y2="3364.6"/>
<line class="st0" x1="109.8" y1="3363.7" x2="109.2" y2="3364.2"/>
<line class="st0" x1="114.8" y1="3359.1" x2="109.8" y2="3363.7"/>
<line class="st0" x1="115.1" y1="3358.8" x2="114.8" y2="3359.1"/>
<line class="st0" x1="115.4" y1="3358.4" x2="115.1" y2="3358.8"/>
<line class="st0" x1="115.6" y1="3358" x2="115.4" y2="3358.4"/>
<line class="st0" x1="120.9" y1="3348.2" x2="115.6" y2="3358"/>
<line class="st0" x1="120.9" y1="3367.5" x2="120.9" y2="3"/>
<line class="st0" x1="121" y1="3368.1" x2="120.9" y2="3367.5"/>
<line class="st0" x1="122" y1="3369.3" x2="122" y2="3368.9"/>
<line class="st0" x1="121.2" y1="3368.6" x2="121" y2="3368.1"/>
<line class="st0" x1="122.3" y1="3369.7" x2="122" y2="3369.3"/>
<line class="st0" x1="121.6" y1="3368.8" x2="121.2" y2="3368.6"/>
<line class="st0" x1="122.7" y1="3370" x2="122.3" y2="3369.7"/>
<line class="st0" x1="123.7" y1="3369.3" x2="121.6" y2="3368.8"/>
<line class="st0" x1="124.8" y1="3370.5" x2="122.7" y2="3370"/>
<line class="st0" x1="124" y1="3369.4" x2="123.7" y2="3369.3"/>
<line class="st0" x1="125.1" y1="3370.5" x2="1302.2" y2="3110.6"/>
<line class="st0" x1="125.1" y1="3370.5" x2="124.8" y2="3370.5"/>
<line class="st0" x1="124.3" y1="3369.2" x2="124" y2="3369.4"/>
<line class="st0" x1="124.7" y1="3369" x2="124.3" y2="3369.2"/>
<line class="st0" x1="125.1" y1="3368.7" x2="124.7" y2="3369"/>
<line class="st0" x1="125.4" y1="3368.3" x2="125.1" y2="3368.7"/>
<line class="st0" x1="125.8" y1="3367.9" x2="125.4" y2="3368.3"/>
<line class="st0" x1="208.8" y1="3241" x2="125.8" y2="3367.9"/>
<line class="st0" x1="0" y1="3336.6" x2="0" y2="33.9"/>
<line class="st0" x1="1.1" y1="3337.7" x2="1.1" y2="3337.4"/>
<line class="st0" x1="0" y1="3336.9" x2="0" y2="3336.6"/>
<line class="st0" x1="1.1" y1="3338" x2="1.1" y2="3337.7"/>
<line class="st0" x1="0.1" y1="3337.1" x2="0" y2="3336.9"/>
<line class="st0" x1="1.2" y1="3338.3" x2="1.1" y2="3338"/>
<line class="st0" x1="0.3" y1="3337.2" x2="0.1" y2="3337.1"/>
<line class="st0" x1="1.4" y1="3338.4" x2="1.2" y2="3338.3"/>
<line class="st0" x1="2.4" y1="3337.8" x2="0.3" y2="3337.2"/>
<line class="st0" x1="3.5" y1="3338.9" x2="1.4" y2="3338.4"/>
<line class="st0" x1="2.8" y1="3337.8" x2="2.4" y2="3337.8"/>
<line class="st0" x1="3.8" y1="3338.9" x2="15.7" y2="3336.4"/>
<line class="st0" x1="3.8" y1="3338.9" x2="3.5" y2="3338.9"/>
<line class="st0" x1="3.2" y1="3337.7" x2="2.8" y2="3337.8"/>
<line class="st0" x1="3.7" y1="3337.5" x2="3.2" y2="3337.7"/>
<line class="st0" x1="4.3" y1="3337.1" x2="3.7" y2="3337.5"/>
<line class="st0" x1="8.6" y1="3334" x2="4.3" y2="3337.1"/>
<line class="st0" x1="9.4" y1="3333.4" x2="8.6" y2="3334"/>
<line class="st0" x1="10.1" y1="3332.7" x2="9.4" y2="3333.4"/>
<line class="st0" x1="10.7" y1="3331.9" x2="10.1" y2="3332.7"/>
<line class="st0" x1="13" y1="3328.5" x2="13" y2="42"/>
<line class="st0" x1="13" y1="3328.5" x2="10.7" y2="3331.9"/>
<line class="st0" x1="15.7" y1="3320.2" x2="13" y2="3324.4"/>
<line class="st0" x1="15.7" y1="3340.5" x2="15.7" y2="30"/>
<line class="st0" x1="16.8" y1="3341.7" x2="16.8" y2="3341.5"/>
<line class="st0" x1="15.8" y1="3340.9" x2="15.7" y2="3340.5"/>
<line class="st0" x1="16.9" y1="3342.1" x2="16.8" y2="3341.7"/>
<line class="st0" x1="16" y1="3341.2" x2="15.8" y2="3340.9"/>
<line class="st0" x1="17.1" y1="3342.4" x2="16.9" y2="3342.1"/>
<line class="st0" x1="16.4" y1="3341.4" x2="16" y2="3341.2"/>
<line class="st0" x1="17.4" y1="3342.6" x2="17.1" y2="3342.4"/>
<line class="st0" x1="17" y1="3341.6" x2="16.4" y2="3341.4"/>
<line class="st0" x1="18.1" y1="3342.7" x2="17.4" y2="3342.6"/>
<line class="st0" x1="17.5" y1="3341.6" x2="17" y2="3341.6"/>
<line class="st0" x1="18.5" y1="3342.7" x2="82.4" y2="3329.1"/>
<line class="st0" x1="18.5" y1="3342.7" x2="18.1" y2="3342.7"/>
<line class="st0" x1="18" y1="3341.4" x2="17.5" y2="3341.6"/>
<line class="st0" x1="18.7" y1="3341.1" x2="18" y2="3341.4"/>
<line class="st0" x1="19.3" y1="3340.6" x2="18.7" y2="3341.1"/>
<line class="st0" x1="21" y1="3339.2" x2="19.3" y2="3340.6"/>
<line class="st0" x1="24.6" y1="3336.2" x2="21" y2="3339.2"/>
<line class="st0" x1="25.1" y1="3335.6" x2="24.6" y2="3336.2"/>
<line class="st0" x1="25.7" y1="3335" x2="25.1" y2="3335.6"/>
<line class="st0" x1="26.2" y1="3334.4" x2="25.7" y2="3335"/>
<line class="st0" x1="27.6" y1="3332.2" x2="27.6" y2="38.3"/>
<line class="st0" x1="27.6" y1="3332.2" x2="26.2" y2="3334.4"/>
<line class="st0" x1="34.6" y1="3316.9" x2="27.6" y2="3325.9"/>
<line class="st0" x1="34.8" y1="3316.7" x2="34.6" y2="3316.9"/>
<line class="st0" x1="35" y1="3316.5" x2="34.8" y2="3316.7"/>
<line class="st0" x1="35.2" y1="3316.4" x2="35" y2="3316.5"/>
<line class="st0" x1="35.4" y1="3316.3" x2="35.2" y2="3316.4"/>
<line class="st0" x1="35.5" y1="3316.2" x2="35.4" y2="3316.3"/>
<line class="st0" x1="35.7" y1="3316.3" x2="35.5" y2="3316.2"/>
<line class="st0" x1="36.7" y1="3317.4" x2="36.6" y2="3317.4"/>
<line class="st0" x1="87.8" y1="3329.5" x2="35.7" y2="3316.3"/>
<line class="st0" x1="87.8" y1="3330.4" x2="36.7" y2="3317.4"/>
<line class="st0" x1="1280.4" y1="412.6" x2="1280.4" y2="414.2"/>
<line class="st0" x1="1280.4" y1="494.6" x2="1280.4" y2="496.1"/>
<line class="st0" x1="1280.2" y1="411.6" x2="1280.4" y2="412.6"/>
<line class="st0" x1="1279.5" y1="410.7" x2="1280.2" y2="411.6"/>
<line class="st0" x1="1279.5" y1="410.7" x2="1278.9" y2="410.3"/>
<line class="st0" x1="1276.4" y1="409.6" x2="1278.9" y2="410.3"/>
<line class="st0" x1="1272.5" y1="409.1" x2="1276.4" y2="409.6"/>
<line class="st0" x1="1280.2" y1="497" x2="1280.4" y2="496.1"/>
<line class="st0" x1="1280.4" y1="345.4" x2="1279.7" y2="345"/>
<line class="st0" x1="1277.1" y1="344.1" x2="1279.7" y2="345"/>
<line class="st0" x1="1272.9" y1="343.6" x2="1277.1" y2="344.1"/>
<line class="st0" x1="1272.5" y1="343.6" x2="1272.9" y2="343.6"/>
<line class="st0" x1="1281.1" y1="346.4" x2="1281.3" y2="347.9"/>
<line class="st0" x1="1281.1" y1="346.4" x2="1280.4" y2="345.4"/>
<line class="st0" x1="1281.1" y1="410.8" x2="1281.3" y2="409.9"/>
<line class="st0" x1="1280.1" y1="411.5" x2="1281.1" y2="410.8"/>
<line class="st0" x1="1281.3" y1="405.8" x2="1281.3" y2="409.9"/>
<line class="st0" x1="1281.3" y1="354.1" x2="1281.3" y2="347.9"/>
<line class="st0" x1="1281.3" y1="354.1" x2="1281.3" y2="405.8"/>
<line class="st0" x1="1280.4" y1="497" x2="1279.7" y2="496.7"/>
<line class="st0" x1="1277.1" y1="496" x2="1279.7" y2="496.7"/>
<line class="st0" x1="1272.9" y1="495.5" x2="1277.1" y2="496"/>
<line class="st0" x1="1272.5" y1="495.5" x2="1272.9" y2="495.5"/>
<line class="st0" x1="1281.1" y1="497.9" x2="1281.3" y2="498.9"/>
<line class="st0" x1="1281.1" y1="497.9" x2="1280.4" y2="497"/>
<line class="st0" x1="1272.5" y1="565" x2="1273.8" y2="564.8"/>
<line class="st0" x1="1281.1" y1="562.3" x2="1281.3" y2="560.9"/>
<line class="st0" x1="1281.1" y1="562.3" x2="1280.3" y2="562.8"/>
<line class="st0" x1="1276.2" y1="564.4" x2="1273.8" y2="564.8"/>
<line class="st0" x1="1278.8" y1="563.7" x2="1280.3" y2="562.8"/>
<line class="st0" x1="1278.8" y1="563.7" x2="1276.2" y2="564.4"/>
<line class="st0" x1="1281.3" y1="554.6" x2="1281.3" y2="560.9"/>
<line class="st0" x1="1281.3" y1="503" x2="1281.3" y2="498.9"/>
<line class="st0" x1="1281.3" y1="503" x2="1281.3" y2="554.6"/>
<line class="st0" x1="1280.4" y1="492.9" x2="1280.4" y2="494.6"/>
<line class="st0" x1="1280.4" y1="415.9" x2="1280.4" y2="414.2"/>
<line class="st0" x1="1280.4" y1="415.9" x2="1280.4" y2="492.9"/>
<line class="st0" x1="1277" y1="2991.9" x2="1280.1" y2="2991.3"/>
<line class="st0" x1="1277" y1="2991.2" x2="1276.3" y2="2991.1"/>
<line class="st0" x1="1277" y1="2992.2" x2="1277" y2="2991.2"/>
<line class="st0" x1="1273.6" y1="2990.7" x2="1272.5" y2="2990.5"/>
<line class="st0" x1="1273.6" y1="2990.7" x2="1276.3" y2="2991.1"/>
<line class="st0" x1="1274.3" y1="3023.8" x2="1274.7" y2="3023.7"/>
<line class="st0" x1="1274.3" y1="3023.8" x2="1272.5" y2="3024.2"/>
<line class="st0" x1="1275.7" y1="3023.5" x2="1279.1" y2="3022.8"/>
<line class="st0" x1="1275.2" y1="3023.6" x2="1274.7" y2="3023.7"/>
<line class="st0" x1="1275.2" y1="3023.6" x2="1275.7" y2="3023.5"/>
<line class="st0" x1="1288.3" y1="2995.8" x2="1286.8" y2="3017.5"/>
<line class="st0" x1="1288.3" y1="2989" x2="1286.1" y2="2988.5"/>
<line class="st0" x1="1288.3" y1="2989.9" x2="1288.3" y2="2990.6"/>
<line class="st0" x1="1288.3" y1="2989.9" x2="1288.3" y2="2989"/>
<line class="st0" x1="1285.2" y1="2988.3" x2="1276.4" y2="2986.6"/>
<line class="st0" x1="1285.2" y1="2988.3" x2="1286.1" y2="2988.5"/>
<line class="st0" x1="1283.5" y1="2990.6" x2="1280.1" y2="2991.3"/>
<line class="st0" x1="1283.5" y1="2990.6" x2="1283.9" y2="2990.5"/>
<line class="st0" x1="1288.3" y1="2994.8" x2="1288.3" y2="2995.8"/>
<line class="st0" x1="1288.3" y1="2994.8" x2="1288.3" y2="2990.6"/>
<line class="st0" x1="1286.5" y1="3021.3" x2="1286.8" y2="3017.5"/>
<line class="st0" x1="1283.8" y1="3021.8" x2="1283.3" y2="3021.9"/>
<line class="st0" x1="1283.8" y1="3021.8" x2="1286.5" y2="3021.3"/>
<line class="st0" x1="1282.4" y1="3022.1" x2="1279.1" y2="3022.8"/>
<line class="st0" x1="1282.9" y1="3022" x2="1283.3" y2="3021.9"/>
<line class="st0" x1="1282.9" y1="3022" x2="1282.4" y2="3022.1"/>
<line class="st0" x1="1276.4" y1="2985.8" x2="1276.4" y2="2991.1"/>
<line class="st0" x1="1284.2" y1="2983.9" x2="1281.7" y2="2984.7"/>
<line class="st0" x1="1284.8" y1="2983" x2="1284.8" y2="2982.4"/>
<line class="st0" x1="1284.8" y1="2983" x2="1284.2" y2="2983.9"/>
<line class="st0" x1="1273.2" y1="2986.4" x2="1272.5" y2="2986.6"/>
<line class="st0" x1="1274.9" y1="2986.1" x2="1273.2" y2="2986.4"/>
<line class="st0" x1="1278.5" y1="2985.4" x2="1281.7" y2="2984.7"/>
<line class="st0" x1="1278.5" y1="2985.4" x2="1274.9" y2="2986.1"/>
<line class="st0" x1="1284.8" y1="2790.9" x2="1284.8" y2="2982.4"/>
<line class="st0" x1="1284.8" y1="2765.2" x2="1284.8" y2="2790.9"/>
<line class="st0" x1="1272.5" y1="2756.9" x2="1273.2" y2="2757"/>
<line class="st0" x1="1284.8" y1="2763.4" x2="1284.8" y2="2765.2"/>
<line class="st0" x1="1284.2" y1="2762.4" x2="1284.8" y2="2763.4"/>
<line class="st0" x1="1281.7" y1="2761" x2="1278.5" y2="2759.5"/>
<line class="st0" x1="1281.7" y1="2761" x2="1284.2" y2="2762.4"/>
<line class="st0" x1="1274.9" y1="2757.8" x2="1273.2" y2="2757"/>
<line class="st0" x1="1274.9" y1="2757.8" x2="1278.5" y2="2759.5"/>
<line class="st0" x1="309.6" y1="1684" x2="323.7" y2="1684"/>
<line class="st0" x1="309.6" y1="1518.6" x2="323.7" y2="1518.2"/>
<line class="st0" x1="324.6" y1="1684" x2="323.7" y2="1684"/>
<line class="st0" x1="324.6" y1="1684" x2="325.1" y2="1683.9"/>
<line class="st0" x1="324.6" y1="1518.2" x2="323.7" y2="1518.2"/>
<line class="st0" x1="324.6" y1="1518.2" x2="325" y2="1518.3"/>
<line class="st0" x1="359.7" y1="1655.2" x2="361" y2="1644.4"/>
<line class="st0" x1="355.5" y1="1666.4" x2="359.7" y2="1655.2"/>
<line class="st0" x1="348.9" y1="1675.3" x2="355.5" y2="1666.4"/>
<line class="st0" x1="340.5" y1="1681" x2="348.9" y2="1675.3"/>
<line class="st0" x1="361.2" y1="1564.6" x2="361.2" y2="1565"/>
<line class="st0" x1="361.2" y1="1560" x2="361.2" y2="1564.6"/>
<line class="st0" x1="359.7" y1="1547.5" x2="361.2" y2="1560"/>
<line class="st0" x1="355.5" y1="1536.2" x2="359.7" y2="1547.5"/>
<line class="st0" x1="348.9" y1="1527.1" x2="355.5" y2="1536.2"/>
<line class="st0" x1="340.5" y1="1521.2" x2="348.9" y2="1527.1"/>
<line class="st0" x1="339.1" y1="1682" x2="340.5" y2="1681"/>
<line class="st0" x1="329.6" y1="1684" x2="328.8" y2="1684"/>
<line class="st0" x1="329.6" y1="1684" x2="339.1" y2="1682"/>
<line class="st0" x1="339.1" y1="1520.3" x2="340.5" y2="1521.2"/>
<line class="st0" x1="329.6" y1="1518.1" x2="328.8" y2="1518.1"/>
<line class="st0" x1="329.6" y1="1518.1" x2="339.1" y2="1520.3"/>
<line class="st0" x1="294.7" y1="1625.4" x2="294.7" y2="1613.1"/>
<line class="st0" x1="294.7" y1="1637.7" x2="294.7" y2="1625.4"/>
<line class="st0" x1="325.6" y1="1684" x2="328.8" y2="1684"/>
<line class="st0" x1="316" y1="1682" x2="325.6" y2="1684"/>
<line class="st0" x1="307.4" y1="1676.1" x2="316" y2="1682"/>
<line class="st0" x1="300.6" y1="1666.9" x2="307.4" y2="1676.1"/>
<line class="st0" x1="294.7" y1="1642.5" x2="294.7" y2="1637.7"/>
<line class="st0" x1="296.2" y1="1655.3" x2="300.6" y2="1666.9"/>
<line class="st0" x1="296.2" y1="1655.3" x2="294.7" y2="1642.5"/>
<line class="st0" x1="294.7" y1="1576.1" x2="294.7" y2="1588.4"/>
<line class="st0" x1="294.7" y1="1563.7" x2="294.7" y2="1576.1"/>
<line class="st0" x1="294.7" y1="1600.7" x2="294.7" y2="1613.1"/>
<line class="st0" x1="294.7" y1="1600.7" x2="294.7" y2="1588.4"/>
<line class="st0" x1="325.6" y1="1518.2" x2="328.8" y2="1518.1"/>
<line class="st0" x1="316" y1="1520" x2="325.6" y2="1518.2"/>
<line class="st0" x1="307.4" y1="1525.7" x2="316" y2="1520"/>
<line class="st0" x1="300.6" y1="1534.7" x2="307.4" y2="1525.7"/>
<line class="st0" x1="294.7" y1="1559" x2="294.7" y2="1563.7"/>
<line class="st0" x1="296.2" y1="1546.2" x2="300.6" y2="1534.7"/>
<line class="st0" x1="296.2" y1="1546.2" x2="294.7" y2="1559"/>
<line class="st0" x1="410" y1="1879.3" x2="405.4" y2="1911.7"/>
<line class="st0" x1="414.8" y1="1841.7" x2="410" y2="1879.3"/>
<line class="st0" x1="418.9" y1="1803.6" x2="414.8" y2="1841.7"/>
<line class="st0" x1="422.1" y1="1765.3" x2="418.9" y2="1803.6"/>
<line class="st0" x1="424.4" y1="1726.8" x2="422.1" y2="1765.3"/>
<line class="st0" x1="360.5" y1="1873.7" x2="357.7" y2="1906.3"/>
<line class="st0" x1="363.2" y1="1837" x2="360.5" y2="1873.7"/>
<line class="st0" x1="365.1" y1="1800" x2="363.2" y2="1837"/>
<line class="st0" x1="366.2" y1="1762.8" x2="365.1" y2="1800"/>
<line class="st0" x1="366.4" y1="1725.4" x2="366.2" y2="1762.8"/>
<line class="st0" x1="425.9" y1="1672.2" x2="424.4" y2="1726.8"/>
<line class="st0" x1="365.9" y1="1672.1" x2="366.4" y2="1725.4"/>
<line class="st0" x1="400.9" y1="1569.6" x2="403.7" y2="1570.1"/>
<line class="st0" x1="367.4" y1="1565.7" x2="400.9" y2="1569.6"/>
<line class="st0" x1="364.6" y1="1912.5" x2="363.9" y2="1912.2"/>
<line class="st0" x1="367.3" y1="1913.4" x2="364.6" y2="1912.5"/>
<line class="st0" x1="427" y1="1648.5" x2="427" y2="1641.8"/>
<line class="st0" x1="427" y1="1648.5" x2="425.9" y2="1672.2"/>
<line class="st0" x1="364.8" y1="1648.4" x2="364.8" y2="1641.7"/>
<line class="st0" x1="364.8" y1="1648.4" x2="365.9" y2="1672.1"/>
<line class="st0" x1="313.5" y1="1626.9" x2="320.5" y2="1633.8"/>
<line class="st0" x1="308.5" y1="1617.5" x2="313.5" y2="1626.9"/>
<line class="st0" x1="305.8" y1="1606.4" x2="308.5" y2="1617.5"/>
<line class="st0" x1="305.8" y1="1594.8" x2="305.8" y2="1606.4"/>
<line class="st0" x1="308.5" y1="1583.8" x2="305.8" y2="1594.8"/>
<line class="st0" x1="313.5" y1="1574.5" x2="308.5" y2="1583.8"/>
<line class="st0" x1="320.5" y1="1567.8" x2="313.5" y2="1574.5"/>
<line class="st0" x1="322.7" y1="1566.2" x2="320.5" y2="1567.8"/>
<line class="st0" x1="322.7" y1="1566.2" x2="331.3" y2="1562.6"/>
<line class="st0" x1="322.7" y1="1635.3" x2="320.5" y2="1633.8"/>
<line class="st0" x1="331.3" y1="1639.1" x2="322.7" y2="1635.3"/>
<line class="st0" x1="332.3" y1="1639.1" x2="331.3" y2="1639.1"/>
<line class="st0" x1="341.2" y1="1562.7" x2="367.4" y2="1565.7"/>
<line class="st0" x1="332.2" y1="1562.6" x2="331.3" y2="1562.6"/>
<line class="st0" x1="332.2" y1="1562.6" x2="341.2" y2="1562.7"/>
<line class="st0" x1="332.2" y1="1639.1" x2="358.4" y2="1644"/>
<line class="st0" x1="427" y1="1585.1" x2="427" y2="1588"/>
<line class="st0" x1="427" y1="1588.5" x2="427" y2="1588"/>
<line class="st0" x1="364.8" y1="1632.4" x2="364.8" y2="1641.7"/>
<line class="st0" x1="357.5" y1="1909.6" x2="357.7" y2="1906.3"/>
<line class="st0" x1="357.5" y1="1909.6" x2="363.9" y2="1912.2"/>
<line class="st0" x1="374.4" y1="1916" x2="367.3" y2="1913.4"/>
<line class="st0" x1="381.9" y1="1915.9" x2="374.4" y2="1916"/>
<line class="st0" x1="389.4" y1="1915.7" x2="381.9" y2="1915.9"/>
<line class="st0" x1="396.1" y1="1915.5" x2="389.4" y2="1915.7"/>
<line class="st0" x1="401.5" y1="1915.2" x2="396.1" y2="1915.5"/>
<line class="st0" x1="404.9" y1="1915" x2="405.4" y2="1911.7"/>
<line class="st0" x1="404.9" y1="1915" x2="401.5" y2="1915.2"/>
<line class="st0" x1="364.8" y1="1645.1" x2="358.4" y2="1644"/>
<line class="st0" x1="427" y1="1582.3" x2="427" y2="1585.1"/>
<line class="st0" x1="421.8" y1="1575" x2="427" y2="1582.3"/>
<line class="st0" x1="414.2" y1="1571.1" x2="403.7" y2="1570.1"/>
<line class="st0" x1="414.2" y1="1571.1" x2="421.8" y2="1575"/>
<line class="st0" x1="427" y1="1627.9" x2="427" y2="1641.8"/>
<line class="st0" x1="427" y1="1627.9" x2="427" y2="1588.5"/>
</svg>
