<?xml version="1.0" encoding="utf-8"?>
<!-- Generator: Adobe Illustrator 23.0.1, SVG Export Plug-In . SVG Version: 6.00 Build 0)  -->
<!DOCTYPE svg PUBLIC "-//W3C//DTD SVG 1.1//EN" "http://www.w3.org/Graphics/SVG/1.1/DTD/svg11.dtd" [
	<!ENTITY ns_extend "http://ns.adobe.com/Extensibility/1.0/">
	<!ENTITY ns_ai "http://ns.adobe.com/AdobeIllustrator/10.0/">
	<!ENTITY ns_graphs "http://ns.adobe.com/Graphs/1.0/">
	<!ENTITY ns_vars "http://ns.adobe.com/Variables/1.0/">
	<!ENTITY ns_imrep "http://ns.adobe.com/ImageReplacement/1.0/">
	<!ENTITY ns_sfw "http://ns.adobe.com/SaveForWeb/1.0/">
	<!ENTITY ns_custom "http://ns.adobe.com/GenericCustomNamespace/1.0/">
	<!ENTITY ns_adobe_xpath "http://ns.adobe.com/XPath/1.0/">
]>
<svg version="1.1" id="Layer_1" xmlns:x="&ns_extend;" xmlns:i="&ns_ai;" xmlns:graph="&ns_graphs;"
	 xmlns="http://www.w3.org/2000/svg" xmlns:xlink="http://www.w3.org/1999/xlink" x="0px" y="0px" viewBox="0 0 1305.2 3372.5"
	 style="enable-background:new 0 0 1305.2 3372.5;" xml:space="preserve">
<style type="text/css">
	.st0{fill:none;stroke:#FFFFFF;stroke-width:2;stroke-linecap:round;stroke-linejoin:round;}
</style>
<metadata>
	<sfw  xmlns="&ns_sfw;">
		<slices></slices>
		<sliceSourceBounds  bottomLeftOrigin="true" height="3372.5" width="1305.2" x="895.6" y="313.7"></sliceSourceBounds>
	</sfw>
</metadata>
<line class="st0" x1="1074.1" y1="2858.4" x2="1074.1" y2="514.1"/>
<line class="st0" x1="1177.3" y1="467.1" x2="1177.6" y2="467.6"/>
<line class="st0" x1="1109.5" y1="510.1" x2="1110.2" y2="511.2"/>
<line class="st0" x1="1177.3" y1="2905.6" x2="1177.6" y2="2905"/>
<line class="st0" x1="1109.5" y1="2862.5" x2="1110.2" y2="2861.4"/>
<line class="st0" x1="1178.2" y1="467.2" x2="1178" y2="467.1"/>
<line class="st0" x1="1177.4" y1="465.9" x2="1177.2" y2="465.7"/>
<line class="st0" x1="1178.3" y1="467.4" x2="1178.2" y2="467.2"/>
<line class="st0" x1="1177.5" y1="466.1" x2="1177.4" y2="465.9"/>
<line class="st0" x1="1178.4" y1="467.7" x2="1178.3" y2="467.4"/>
<line class="st0" x1="1177.5" y1="466.4" x2="1177.5" y2="466.1"/>
<line class="st0" x1="1177.4" y1="466.7" x2="1177.5" y2="466.4"/>
<line class="st0" x1="1177.2" y1="467.1" x2="1177.4" y2="466.7"/>
<line class="st0" x1="1177" y1="467.6" x2="1177.2" y2="467.1"/>
<line class="st0" x1="1159.1" y1="491.4" x2="1177" y2="467.6"/>
<line class="st0" x1="1158.7" y1="491.8" x2="1159.1" y2="491.4"/>
<line class="st0" x1="1158.3" y1="492.3" x2="1158.7" y2="491.8"/>
<line class="st0" x1="1157.8" y1="492.7" x2="1158.3" y2="492.3"/>
<line class="st0" x1="1157.4" y1="493" x2="1157.8" y2="492.7"/>
<line class="st0" x1="1156.9" y1="493.3" x2="1157.4" y2="493"/>
<line class="st0" x1="1156.4" y1="493.6" x2="1156.9" y2="493.3"/>
<line class="st0" x1="1156" y1="493.8" x2="1156.4" y2="493.6"/>
<line class="st0" x1="1108.3" y1="510.5" x2="1156" y2="493.8"/>
<line class="st0" x1="1109.9" y1="510.9" x2="1109.1" y2="511.9"/>
<line class="st0" x1="1109.9" y1="510.8" x2="1109.9" y2="510.9"/>
<line class="st0" x1="1177.7" y1="467.1" x2="1178" y2="467.1"/>
<line class="st0" x1="1177.3" y1="467.1" x2="1177.3" y2="467.1"/>
<line class="st0" x1="1177.3" y1="467.1" x2="1177.7" y2="467.1"/>
<line class="st0" x1="1178.2" y1="2905.4" x2="1178" y2="2905.5"/>
<line class="st0" x1="1177.4" y1="2906.7" x2="1177.2" y2="2906.9"/>
<line class="st0" x1="1178.3" y1="2905.2" x2="1178.2" y2="2905.4"/>
<line class="st0" x1="1177.5" y1="2906.5" x2="1177.4" y2="2906.7"/>
<line class="st0" x1="1178.4" y1="2904.9" x2="1178.4" y2="467.7"/>
<line class="st0" x1="1178.4" y1="2904.9" x2="1178.3" y2="2905.2"/>
<line class="st0" x1="1177.5" y1="2906.2" x2="1177.5" y2="2906.5"/>
<line class="st0" x1="1177.4" y1="2905.9" x2="1177.5" y2="2906.2"/>
<line class="st0" x1="1177.2" y1="2905.5" x2="1177.4" y2="2905.9"/>
<line class="st0" x1="1177" y1="2905" x2="1177.2" y2="2905.5"/>
<line class="st0" x1="1159.1" y1="2881.2" x2="1177" y2="2905"/>
<line class="st0" x1="1158.7" y1="2880.8" x2="1159.1" y2="2881.2"/>
<line class="st0" x1="1158.3" y1="2880.3" x2="1158.7" y2="2880.8"/>
<line class="st0" x1="1157.8" y1="2879.9" x2="1158.3" y2="2880.3"/>
<line class="st0" x1="1157.4" y1="2879.6" x2="1157.8" y2="2879.9"/>
<line class="st0" x1="1156.9" y1="2879.3" x2="1157.4" y2="2879.6"/>
<line class="st0" x1="1156.4" y1="2879" x2="1156.9" y2="2879.3"/>
<line class="st0" x1="1156" y1="2878.8" x2="1156.4" y2="2879"/>
<line class="st0" x1="1109.1" y1="2860.7" x2="1109.1" y2="511.9"/>
<line class="st0" x1="1108.3" y1="2862.1" x2="1156" y2="2878.8"/>
<line class="st0" x1="1109.9" y1="2861.7" x2="1109.1" y2="2860.7"/>
<line class="st0" x1="1109.9" y1="2861.8" x2="1109.9" y2="2861.7"/>
<line class="st0" x1="1177.7" y1="2905.5" x2="1178" y2="2905.5"/>
<line class="st0" x1="1177.3" y1="2905.5" x2="1177.3" y2="2905.5"/>
<line class="st0" x1="1177.3" y1="2905.5" x2="1177.7" y2="2905.5"/>
<line class="st0" x1="394.6" y1="355.6" x2="394.3" y2="355.9"/>
<line class="st0" x1="394.5" y1="3016.8" x2="394.3" y2="3016.7"/>
<line class="st0" x1="368.9" y1="315.8" x2="1177.2" y2="465.7"/>
<line class="st0" x1="369" y1="317.5" x2="368.5" y2="317.2"/>
<line class="st0" x1="369.5" y1="317.9" x2="369" y2="317.5"/>
<line class="st0" x1="370.1" y1="318.4" x2="369.5" y2="317.9"/>
<line class="st0" x1="370.6" y1="319" x2="370.1" y2="318.4"/>
<line class="st0" x1="371.1" y1="319.7" x2="370.6" y2="319"/>
<line class="st0" x1="393.5" y1="354.2" x2="371.1" y2="319.7"/>
<line class="st0" x1="393.8" y1="354.8" x2="393.5" y2="354.2"/>
<line class="st0" x1="394.1" y1="355.4" x2="393.8" y2="354.8"/>
<line class="st0" x1="394.3" y1="355.9" x2="394.1" y2="355.4"/>
<line class="st0" x1="394.4" y1="356.5" x2="394.3" y2="355.9"/>
<line class="st0" x1="394.4" y1="384.3" x2="1108.3" y2="510.5"/>
<line class="st0" x1="368.5" y1="315.8" x2="368.9" y2="315.8"/>
<line class="st0" x1="368.9" y1="3056.8" x2="1177.2" y2="2906.9"/>
<line class="st0" x1="369" y1="3055.1" x2="368.5" y2="3055.4"/>
<line class="st0" x1="369.5" y1="3054.7" x2="369" y2="3055.1"/>
<line class="st0" x1="370.1" y1="3054.2" x2="369.5" y2="3054.7"/>
<line class="st0" x1="370.6" y1="3053.6" x2="370.1" y2="3054.2"/>
<line class="st0" x1="371.1" y1="3052.9" x2="370.6" y2="3053.6"/>
<line class="st0" x1="393.5" y1="3018.4" x2="371.1" y2="3052.9"/>
<line class="st0" x1="393.8" y1="3017.8" x2="393.5" y2="3018.4"/>
<line class="st0" x1="394.1" y1="3017.2" x2="393.8" y2="3017.8"/>
<line class="st0" x1="394.3" y1="3016.7" x2="394.1" y2="3017.2"/>
<line class="st0" x1="394.4" y1="1569.8" x2="394.4" y2="356.5"/>
<line class="st0" x1="394.4" y1="3016.2" x2="394.4" y2="1916.6"/>
<line class="st0" x1="394.4" y1="3016.2" x2="394.3" y2="3016.7"/>
<line class="st0" x1="394.4" y1="2988.4" x2="1108.3" y2="2862.1"/>
<line class="st0" x1="368.5" y1="3056.9" x2="368.9" y2="3056.8"/>
<line class="st0" x1="1100" y1="519.3" x2="1099.3" y2="518.2"/>
<line class="st0" x1="1100" y1="519.3" x2="1099.3" y2="518.2"/>
<line class="st0" x1="1100" y1="519.3" x2="1099.3" y2="518.2"/>
<line class="st0" x1="1099.3" y1="2854.3" x2="1100" y2="2853.2"/>
<line class="st0" x1="1099.3" y1="2854.3" x2="1100" y2="2853.2"/>
<line class="st0" x1="1099.3" y1="2854.3" x2="1100" y2="2853.2"/>
<line class="st0" x1="1107.3" y1="510.6" x2="1107.6" y2="510.4"/>
<line class="st0" x1="1106.8" y1="510.9" x2="1107.3" y2="510.6"/>
<line class="st0" x1="1106.4" y1="511.3" x2="1106.8" y2="510.9"/>
<line class="st0" x1="1106" y1="511.6" x2="1106.4" y2="511.3"/>
<line class="st0" x1="1105.5" y1="512" x2="1106" y2="511.6"/>
<line class="st0" x1="1105.1" y1="512.3" x2="1105.5" y2="512"/>
<line class="st0" x1="1104.7" y1="512.7" x2="1105.1" y2="512.3"/>
<line class="st0" x1="1104.2" y1="513.1" x2="1104.7" y2="512.7"/>
<line class="st0" x1="1103.8" y1="513.5" x2="1104.2" y2="513.1"/>
<line class="st0" x1="1103.4" y1="513.9" x2="1103.8" y2="513.5"/>
<line class="st0" x1="1103" y1="514.2" x2="1103.4" y2="513.9"/>
<line class="st0" x1="1102.6" y1="514.6" x2="1103" y2="514.2"/>
<line class="st0" x1="1102.3" y1="515" x2="1102.6" y2="514.6"/>
<line class="st0" x1="1101.9" y1="515.4" x2="1102.3" y2="515"/>
<line class="st0" x1="1101.6" y1="515.8" x2="1101.9" y2="515.4"/>
<line class="st0" x1="1101.2" y1="516.2" x2="1101.6" y2="515.8"/>
<line class="st0" x1="1100.2" y1="517.5" x2="1101.2" y2="516.2"/>
<line class="st0" x1="1100.1" y1="517.7" x2="1100.2" y2="517.5"/>
<line class="st0" x1="1099.9" y1="517.8" x2="1100.1" y2="517.7"/>
<line class="st0" x1="1099.7" y1="518" x2="1099.9" y2="517.8"/>
<line class="st0" x1="1099.5" y1="518.1" x2="1099.7" y2="518"/>
<line class="st0" x1="1099.3" y1="518.3" x2="1099.5" y2="518.1"/>
<line class="st0" x1="1099.1" y1="518.4" x2="1099.3" y2="518.3"/>
<line class="st0" x1="1098.9" y1="518.4" x2="1099.1" y2="518.4"/>
<line class="st0" x1="1098.8" y1="518.4" x2="1098.9" y2="518.4"/>
<line class="st0" x1="1100" y1="519.3" x2="1100" y2="519.3"/>
<line class="st0" x1="1099.6" y1="519.8" x2="1100" y2="519.4"/>
<line class="st0" x1="1099.6" y1="519.8" x2="1100" y2="519.3"/>
<line class="st0" x1="1098.6" y1="518.4" x2="1098.8" y2="518.4"/>
<line class="st0" x1="1099.3" y1="519.5" x2="1099.3" y2="519.7"/>
<line class="st0" x1="1099.4" y1="519.4" x2="1099.3" y2="519.5"/>
<line class="st0" x1="1099.5" y1="519.2" x2="1099.4" y2="519.4"/>
<line class="st0" x1="1099.6" y1="519" x2="1099.5" y2="519.2"/>
<line class="st0" x1="1099.7" y1="518.9" x2="1099.6" y2="519"/>
<line class="st0" x1="1107.3" y1="2861.9" x2="1107.7" y2="2862.2"/>
<line class="st0" x1="1106.8" y1="2861.6" x2="1107.3" y2="2861.9"/>
<line class="st0" x1="1106.4" y1="2861.3" x2="1106.8" y2="2861.6"/>
<line class="st0" x1="1106" y1="2860.9" x2="1106.4" y2="2861.3"/>
<line class="st0" x1="1105.5" y1="2860.6" x2="1106" y2="2860.9"/>
<line class="st0" x1="1105.1" y1="2860.2" x2="1105.5" y2="2860.6"/>
<line class="st0" x1="1104.7" y1="2859.8" x2="1105.1" y2="2860.2"/>
<line class="st0" x1="1104.2" y1="2859.4" x2="1104.7" y2="2859.8"/>
<line class="st0" x1="1103.8" y1="2859.1" x2="1104.2" y2="2859.4"/>
<line class="st0" x1="1103.4" y1="2858.7" x2="1103.8" y2="2859.1"/>
<line class="st0" x1="1103" y1="2858.3" x2="1103.4" y2="2858.7"/>
<line class="st0" x1="1102.6" y1="2857.9" x2="1103" y2="2858.3"/>
<line class="st0" x1="1102.3" y1="2857.5" x2="1102.6" y2="2857.9"/>
<line class="st0" x1="1101.9" y1="2857.1" x2="1102.3" y2="2857.5"/>
<line class="st0" x1="1101.6" y1="2856.7" x2="1101.9" y2="2857.1"/>
<line class="st0" x1="1101.2" y1="2856.3" x2="1101.6" y2="2856.7"/>
<line class="st0" x1="1100.2" y1="2855.1" x2="1101.2" y2="2856.3"/>
<line class="st0" x1="1100.1" y1="2854.9" x2="1100.2" y2="2855.1"/>
<line class="st0" x1="1099.9" y1="2854.7" x2="1100.1" y2="2854.9"/>
<line class="st0" x1="1099.7" y1="2854.5" x2="1099.9" y2="2854.7"/>
<line class="st0" x1="1099.5" y1="2854.4" x2="1099.7" y2="2854.5"/>
<line class="st0" x1="1099.3" y1="2854.2" x2="1099.5" y2="2854.4"/>
<line class="st0" x1="1099.1" y1="2854.1" x2="1099.3" y2="2854.2"/>
<line class="st0" x1="1100" y1="2853.2" x2="1100" y2="2853.2"/>
<line class="st0" x1="1099.7" y1="2852.7" x2="1100" y2="2853.2"/>
<line class="st0" x1="1099.7" y1="2852.7" x2="1100" y2="2853.2"/>
<line class="st0" x1="1098.9" y1="2854.1" x2="1099.1" y2="2854.1"/>
<line class="st0" x1="1098.8" y1="2854.1" x2="1098.9" y2="2854.1"/>
<line class="st0" x1="1098.6" y1="2854.1" x2="1098.8" y2="2854.1"/>
<line class="st0" x1="1099.3" y1="2852.9" x2="1099.3" y2="519.7"/>
<line class="st0" x1="1099.3" y1="2853" x2="1099.3" y2="2852.9"/>
<line class="st0" x1="1099.4" y1="2853.1" x2="1099.3" y2="2853"/>
<line class="st0" x1="1099.5" y1="2853.3" x2="1099.4" y2="2853.1"/>
<line class="st0" x1="1099.6" y1="2853.5" x2="1099.5" y2="2853.3"/>
<line class="st0" x1="1099.7" y1="2853.6" x2="1099.6" y2="2853.5"/>
<line class="st0" x1="1051.8" y1="2848.9" x2="1051.8" y2="523.7"/>
<line class="st0" x1="394.4" y1="394.9" x2="1098.6" y2="518.4"/>
<line class="st0" x1="394.4" y1="2977.6" x2="1098.6" y2="2854.1"/>
<line class="st0" x1="394.4" y1="409.7" x2="1055.7" y2="524.3"/>
<line class="st0" x1="209.9" y1="128.3" x2="210" y2="128.2"/>
<line class="st0" x1="209.8" y1="128.6" x2="209.9" y2="128.3"/>
<line class="st0" x1="214.9" y1="129" x2="217.2" y2="129.4"/>
<line class="st0" x1="210.3" y1="128.2" x2="210" y2="128.2"/>
<line class="st0" x1="210.3" y1="128.2" x2="214.9" y2="129"/>
<line class="st0" x1="394.4" y1="2962.8" x2="1055.7" y2="2848.2"/>
<line class="st0" x1="209.9" y1="3244.2" x2="210" y2="3244.3"/>
<line class="st0" x1="209.8" y1="3243.9" x2="209.8" y2="128.6"/>
<line class="st0" x1="209.8" y1="3243.9" x2="209.9" y2="3244.2"/>
<line class="st0" x1="214.9" y1="3243.5" x2="217.3" y2="3243.1"/>
<line class="st0" x1="210.3" y1="3244.3" x2="210" y2="3244.3"/>
<line class="st0" x1="210.3" y1="3244.3" x2="214.9" y2="3243.5"/>
<line class="st0" x1="310.6" y1="1519.6" x2="303.1" y2="1521"/>
<line class="st0" x1="303.1" y1="1521" x2="301.1" y2="1521.4"/>
<line class="st0" x1="301.1" y1="1521.4" x2="294.3" y2="1525.8"/>
<line class="st0" x1="294.3" y1="1525.8" x2="292.5" y2="1527.1"/>
<line class="st0" x1="292.5" y1="1527.1" x2="287.1" y2="1534.1"/>
<line class="st0" x1="287.1" y1="1534.1" x2="285.6" y2="1536.1"/>
<line class="st0" x1="285.6" y1="1536.1" x2="282.2" y2="1545.1"/>
<line class="st0" x1="282.2" y1="1545.1" x2="281.2" y2="1547.5"/>
<line class="st0" x1="281.2" y1="1547.5" x2="280" y2="1557.5"/>
<line class="st0" x1="280" y1="1557.5" x2="279.7" y2="1560.3"/>
<line class="st0" x1="279.7" y1="1564" x2="279.7" y2="1560.3"/>
<line class="st0" x1="279.7" y1="1565" x2="279.7" y2="1564"/>
<line class="st0" x1="279.7" y1="1574.7" x2="279.7" y2="1565"/>
<line class="st0" x1="279.7" y1="1577.3" x2="279.7" y2="1574.7"/>
<line class="st0" x1="279.7" y1="1587" x2="279.7" y2="1577.3"/>
<line class="st0" x1="279.7" y1="1589.6" x2="279.7" y2="1587"/>
<line class="st0" x1="279.7" y1="1599.3" x2="279.7" y2="1589.6"/>
<line class="st0" x1="279.7" y1="1601.9" x2="279.7" y2="1599.3"/>
<line class="st0" x1="279.7" y1="1611.6" x2="279.7" y2="1601.9"/>
<line class="st0" x1="279.7" y1="1614.2" x2="279.7" y2="1611.6"/>
<line class="st0" x1="279.7" y1="1623.9" x2="279.7" y2="1614.2"/>
<line class="st0" x1="279.7" y1="1626.5" x2="279.7" y2="1623.9"/>
<line class="st0" x1="279.7" y1="1636.2" x2="279.7" y2="1626.5"/>
<line class="st0" x1="279.7" y1="1638.8" x2="279.7" y2="1636.2"/>
<line class="st0" x1="279.7" y1="1642.5" x2="279.7" y2="1638.8"/>
<line class="st0" x1="279.7" y1="1643.6" x2="279.7" y2="1642.5"/>
<line class="st0" x1="280.9" y1="1653.6" x2="279.7" y2="1643.6"/>
<line class="st0" x1="281.2" y1="1656.4" x2="280.9" y2="1653.6"/>
<line class="st0" x1="284.7" y1="1665.4" x2="281.2" y2="1656.4"/>
<line class="st0" x1="285.6" y1="1667.9" x2="284.7" y2="1665.4"/>
<line class="st0" x1="291" y1="1675.1" x2="285.6" y2="1667.9"/>
<line class="st0" x1="292.5" y1="1677.1" x2="291" y2="1675.1"/>
<line class="st0" x1="299.2" y1="1681.7" x2="292.5" y2="1677.1"/>
<line class="st0" x1="301.1" y1="1683" x2="299.2" y2="1681.7"/>
<line class="st0" x1="308.6" y1="1684.6" x2="301.1" y2="1683"/>
<line class="st0" x1="310.6" y1="1685" x2="308.6" y2="1684.6"/>
<line class="st0" x1="1272.6" y1="340.8" x2="1272.7" y2="341"/>
<line class="st0" x1="1173.6" y1="465" x2="1173.6" y2="465"/>
<line class="st0" x1="1272.6" y1="3031.7" x2="1272.7" y2="3031.5"/>
<line class="st0" x1="1272.9" y1="340" x2="1272.7" y2="339.9"/>
<line class="st0" x1="1272.2" y1="338.6" x2="1271.5" y2="338.2"/>
<line class="st0" x1="1273.4" y1="340.7" x2="1272.9" y2="340"/>
<line class="st0" x1="1272.6" y1="339.3" x2="1272.2" y2="338.6"/>
<line class="st0" x1="1273.5" y1="341.5" x2="1273.4" y2="340.7"/>
<line class="st0" x1="1272.7" y1="340.2" x2="1272.6" y2="339.3"/>
<line class="st0" x1="1272.6" y1="341.2" x2="1272.7" y2="340.2"/>
<line class="st0" x1="1272.1" y1="342.5" x2="1272.6" y2="341.2"/>
<line class="st0" x1="1271.4" y1="343.8" x2="1272.1" y2="342.5"/>
<line class="st0" x1="1270.4" y1="345.2" x2="1271.4" y2="343.8"/>
<line class="st0" x1="1183" y1="461.6" x2="1270.4" y2="345.2"/>
<line class="st0" x1="1182.6" y1="462.1" x2="1183" y2="461.6"/>
<line class="st0" x1="1182" y1="462.7" x2="1182.6" y2="462.1"/>
<line class="st0" x1="1181.3" y1="463.2" x2="1182" y2="462.7"/>
<line class="st0" x1="1180.7" y1="463.6" x2="1181.3" y2="463.2"/>
<line class="st0" x1="1180.1" y1="463.9" x2="1180.7" y2="463.6"/>
<line class="st0" x1="1179.5" y1="464.1" x2="1180.1" y2="463.9"/>
<line class="st0" x1="1173.5" y1="465" x2="1179.5" y2="464.1"/>
<line class="st0" x1="1045.1" y1="523.2" x2="1047.4" y2="522.9"/>
<line class="st0" x1="1272.9" y1="3032.5" x2="1272.7" y2="3032.7"/>
<line class="st0" x1="1272.2" y1="3033.9" x2="1271.5" y2="3034.3"/>
<line class="st0" x1="1273.4" y1="3031.9" x2="1272.9" y2="3032.5"/>
<line class="st0" x1="1272.6" y1="3033.2" x2="1272.2" y2="3033.9"/>
<line class="st0" x1="1273.5" y1="3031" x2="1273.5" y2="341.5"/>
<line class="st0" x1="1273.5" y1="3031" x2="1273.4" y2="3031.9"/>
<line class="st0" x1="1272.7" y1="3032.4" x2="1272.6" y2="3033.2"/>
<line class="st0" x1="1272.6" y1="3031.3" x2="1272.7" y2="3032.4"/>
<line class="st0" x1="1272.1" y1="3030.1" x2="1272.6" y2="3031.3"/>
<line class="st0" x1="1271.4" y1="3028.7" x2="1272.1" y2="3030.1"/>
<line class="st0" x1="1270.4" y1="3027.3" x2="1271.4" y2="3028.7"/>
<line class="st0" x1="1183" y1="2910.9" x2="1270.4" y2="3027.3"/>
<line class="st0" x1="1182.6" y1="2910.4" x2="1183" y2="2910.9"/>
<line class="st0" x1="1182" y1="2909.8" x2="1182.6" y2="2910.4"/>
<line class="st0" x1="1181.3" y1="2909.3" x2="1182" y2="2909.8"/>
<line class="st0" x1="1180.7" y1="2908.9" x2="1181.3" y2="2909.3"/>
<line class="st0" x1="1180.1" y1="2908.6" x2="1180.7" y2="2908.9"/>
<line class="st0" x1="1179.5" y1="2908.4" x2="1180.1" y2="2908.6"/>
<line class="st0" x1="1173.8" y1="2907.5" x2="1179.5" y2="2908.4"/>
<line class="st0" x1="1045.1" y1="2849.3" x2="1047.3" y2="2849.6"/>
<line class="st0" x1="1031.9" y1="2851.6" x2="1031.9" y2="520.9"/>
<line class="st0" x1="218.1" y1="130.1" x2="218.2" y2="129.9"/>
<line class="st0" x1="368.6" y1="312.7" x2="368.4" y2="312.9"/>
<line class="st0" x1="218.2" y1="3242.6" x2="218.1" y2="3242.4"/>
<line class="st0" x1="368.6" y1="3059.9" x2="368.4" y2="3059.6"/>
<line class="st0" x1="217.2" y1="129.4" x2="217.7" y2="130.2"/>
<line class="st0" x1="239.3" y1="124.2" x2="217.2" y2="129.4"/>
<line class="st0" x1="238.2" y1="125.4" x2="216.2" y2="130.6"/>
<line class="st0" x1="239.6" y1="125.2" x2="238.2" y2="125.4"/>
<line class="st0" x1="240.7" y1="124.1" x2="239.3" y2="124.2"/>
<line class="st0" x1="241.3" y1="125.5" x2="239.6" y2="125.2"/>
<line class="st0" x1="242.3" y1="124.4" x2="1271.5" y2="338.2"/>
<line class="st0" x1="242.3" y1="124.4" x2="240.7" y2="124.1"/>
<line class="st0" x1="243" y1="126.2" x2="241.3" y2="125.5"/>
<line class="st0" x1="244.9" y1="127.2" x2="243" y2="126.2"/>
<line class="st0" x1="246.9" y1="128.6" x2="244.9" y2="127.2"/>
<line class="st0" x1="248.8" y1="130.3" x2="246.9" y2="128.6"/>
<line class="st0" x1="250.7" y1="132.2" x2="248.8" y2="130.3"/>
<line class="st0" x1="252.4" y1="134.3" x2="250.7" y2="132.2"/>
<line class="st0" x1="254" y1="136.5" x2="252.4" y2="134.3"/>
<line class="st0" x1="367.6" y1="311" x2="254" y2="136.5"/>
<line class="st0" x1="368.1" y1="311.9" x2="367.6" y2="311"/>
<line class="st0" x1="368.4" y1="312.7" x2="368.1" y2="311.9"/>
<line class="st0" x1="368.5" y1="313.4" x2="368.4" y2="312.7"/>
<line class="st0" x1="394.4" y1="410.5" x2="1045.1" y2="523.2"/>
<line class="st0" x1="216.2" y1="3241.9" x2="216.2" y2="130.6"/>
<line class="st0" x1="217.2" y1="3243.1" x2="217.7" y2="3242.3"/>
<line class="st0" x1="238.2" y1="3247.2" x2="216.2" y2="3241.9"/>
<line class="st0" x1="239.3" y1="3248.3" x2="217.2" y2="3243.1"/>
<line class="st0" x1="239.6" y1="3247.3" x2="238.2" y2="3247.2"/>
<line class="st0" x1="240.7" y1="3248.5" x2="239.3" y2="3248.3"/>
<line class="st0" x1="241.3" y1="3247" x2="239.6" y2="3247.3"/>
<line class="st0" x1="242.3" y1="3248.2" x2="1271.5" y2="3034.3"/>
<line class="st0" x1="242.3" y1="3248.2" x2="240.7" y2="3248.5"/>
<line class="st0" x1="243" y1="3246.3" x2="241.3" y2="3247"/>
<line class="st0" x1="244.9" y1="3245.3" x2="243" y2="3246.3"/>
<line class="st0" x1="246.9" y1="3243.9" x2="244.9" y2="3245.3"/>
<line class="st0" x1="248.8" y1="3242.2" x2="246.9" y2="3243.9"/>
<line class="st0" x1="250.7" y1="3240.3" x2="248.8" y2="3242.2"/>
<line class="st0" x1="252.4" y1="3238.2" x2="250.7" y2="3240.3"/>
<line class="st0" x1="254" y1="3236" x2="252.4" y2="3238.2"/>
<line class="st0" x1="367.6" y1="3061.5" x2="254" y2="3236"/>
<line class="st0" x1="368.1" y1="3060.6" x2="367.6" y2="3061.5"/>
<line class="st0" x1="368.4" y1="3059.8" x2="368.1" y2="3060.6"/>
<line class="st0" x1="368.5" y1="1566.7" x2="368.5" y2="313.4"/>
<line class="st0" x1="368.5" y1="3059.1" x2="368.5" y2="1914.5"/>
<line class="st0" x1="368.5" y1="3059.1" x2="368.4" y2="3059.8"/>
<line class="st0" x1="394.4" y1="2962.1" x2="1045.1" y2="2849.3"/>
<line class="st0" x1="1303" y1="261.9" x2="1303.5" y2="262.7"/>
<line class="st0" x1="1303" y1="3110.6" x2="1303.5" y2="3109.8"/>
<line class="st0" x1="1303.7" y1="262.3" x2="1303.3" y2="262.4"/>
<line class="st0" x1="1304" y1="262.3" x2="1303.7" y2="262.3"/>
<line class="st0" x1="1304.1" y1="262.4" x2="1304" y2="262.3"/>
<line class="st0" x1="1303.3" y1="261" x2="1303.2" y2="260.9"/>
<line class="st0" x1="1304.2" y1="262.5" x2="1304.1" y2="262.4"/>
<line class="st0" x1="1303.4" y1="261.1" x2="1303.3" y2="261"/>
<line class="st0" x1="1303.4" y1="261.3" x2="1303.4" y2="261.1"/>
<line class="st0" x1="1303.3" y1="261.5" x2="1303.4" y2="261.3"/>
<line class="st0" x1="1303.1" y1="261.8" x2="1303.3" y2="261.5"/>
<line class="st0" x1="1249" y1="333.6" x2="1303.1" y2="261.8"/>
<line class="st0" x1="1303.7" y1="3110.2" x2="1303.3" y2="3110.1"/>
<line class="st0" x1="1304" y1="3110.2" x2="1303.7" y2="3110.2"/>
<line class="st0" x1="1304.1" y1="3110.2" x2="1304" y2="3110.2"/>
<line class="st0" x1="1303.3" y1="3111.5" x2="1303.2" y2="3111.6"/>
<line class="st0" x1="1304.2" y1="3110" x2="1304.2" y2="262.5"/>
<line class="st0" x1="1304.2" y1="3110" x2="1304.1" y2="3110.2"/>
<line class="st0" x1="1303.4" y1="3111.4" x2="1303.3" y2="3111.5"/>
<line class="st0" x1="1303.4" y1="3111.2" x2="1303.4" y2="3111.4"/>
<line class="st0" x1="1303.3" y1="3111" x2="1303.4" y2="3111.2"/>
<line class="st0" x1="1303.1" y1="3110.7" x2="1303.3" y2="3111"/>
<line class="st0" x1="1249" y1="3039" x2="1303.1" y2="3110.7"/>
<line class="st0" x1="90.6" y1="11.2" x2="90.7" y2="11"/>
<line class="st0" x1="108.8" y1="6.4" x2="108.7" y2="6.5"/>
<line class="st0" x1="2.7" y1="33.9" x2="2.8" y2="33.8"/>
<line class="st0" x1="14" y1="41.4" x2="13.3" y2="42.1"/>
<line class="st0" x1="18.7" y1="29.8" x2="18.5" y2="29.9"/>
<line class="st0" x1="28.7" y1="37.6" x2="28" y2="38.3"/>
<line class="st0" x1="90.7" y1="3361.5" x2="90.6" y2="3361.3"/>
<line class="st0" x1="108.8" y1="3366.2" x2="108.7" y2="3366"/>
<line class="st0" x1="2.8" y1="3338.7" x2="2.7" y2="3338.6"/>
<line class="st0" x1="14" y1="3331.2" x2="13.3" y2="3330.4"/>
<line class="st0" x1="18.7" y1="3342.8" x2="18.5" y2="3342.6"/>
<line class="st0" x1="28.7" y1="3334.9" x2="28" y2="3334.2"/>
<line class="st0" x1="89.9" y1="10.8" x2="89.8" y2="11.3"/>
<line class="st0" x1="88.8" y1="12" x2="88.8" y2="12.5"/>
<line class="st0" x1="90.1" y1="10.4" x2="89.9" y2="10.8"/>
<line class="st0" x1="89.1" y1="11.6" x2="88.8" y2="12"/>
<line class="st0" x1="89.4" y1="11.4" x2="89.1" y2="11.6"/>
<line class="st0" x1="90.5" y1="10.2" x2="90.1" y2="10.4"/>
<line class="st0" x1="91.1" y1="10.1" x2="90.5" y2="10.2"/>
<line class="st0" x1="90.1" y1="11.2" x2="89.4" y2="11.4"/>
<line class="st0" x1="90.5" y1="11.2" x2="90.1" y2="11.2"/>
<line class="st0" x1="91.6" y1="10" x2="106.9" y2="13.4"/>
<line class="st0" x1="91.6" y1="10" x2="91.1" y2="10.1"/>
<line class="st0" x1="91" y1="11.3" x2="90.5" y2="11.2"/>
<line class="st0" x1="91.6" y1="11.6" x2="91" y2="11.3"/>
<line class="st0" x1="92.1" y1="12" x2="91.6" y2="11.6"/>
<line class="st0" x1="92.7" y1="12.5" x2="92.1" y2="12"/>
<line class="st0" x1="94.3" y1="13.9" x2="92.7" y2="12.5"/>
<line class="st0" x1="97.6" y1="17.1" x2="94.3" y2="13.9"/>
<line class="st0" x1="98" y1="17.4" x2="97.6" y2="17.1"/>
<line class="st0" x1="98.3" y1="17.8" x2="98" y2="17.4"/>
<line class="st0" x1="98.5" y1="18.2" x2="98.3" y2="17.8"/>
<line class="st0" x1="106.9" y1="33.5" x2="98.5" y2="18.2"/>
<line class="st0" x1="106.9" y1="7.3" x2="106.9" y2="7.8"/>
<line class="st0" x1="108" y1="6.1" x2="108" y2="6.6"/>
<line class="st0" x1="107.2" y1="6.9" x2="106.9" y2="7.3"/>
<line class="st0" x1="108.2" y1="5.8" x2="108" y2="6.1"/>
<line class="st0" x1="107.5" y1="6.7" x2="107.2" y2="6.9"/>
<line class="st0" x1="108.6" y1="5.5" x2="108.2" y2="5.8"/>
<line class="st0" x1="109.2" y1="5.4" x2="108.6" y2="5.5"/>
<line class="st0" x1="108.2" y1="6.5" x2="107.5" y2="6.7"/>
<line class="st0" x1="108.6" y1="6.5" x2="108.2" y2="6.5"/>
<line class="st0" x1="109.7" y1="5.3" x2="121.9" y2="8"/>
<line class="st0" x1="109.7" y1="5.3" x2="109.2" y2="5.4"/>
<line class="st0" x1="109.1" y1="6.6" x2="108.6" y2="6.5"/>
<line class="st0" x1="109.6" y1="6.9" x2="109.1" y2="6.6"/>
<line class="st0" x1="110.2" y1="7.3" x2="109.6" y2="6.9"/>
<line class="st0" x1="110.8" y1="7.8" x2="110.2" y2="7.3"/>
<line class="st0" x1="115.8" y1="12.4" x2="110.8" y2="7.8"/>
<line class="st0" x1="116.1" y1="12.7" x2="115.8" y2="12.4"/>
<line class="st0" x1="116.4" y1="13.1" x2="116.1" y2="12.7"/>
<line class="st0" x1="116.6" y1="13.5" x2="116.4" y2="13.1"/>
<line class="st0" x1="121.9" y1="23.3" x2="116.6" y2="13.5"/>
<line class="st0" x1="122" y1="3.4" x2="121.9" y2="4"/>
<line class="st0" x1="123" y1="2.3" x2="123" y2="2.6"/>
<line class="st0" x1="122.2" y1="2.9" x2="122" y2="3.4"/>
<line class="st0" x1="123.3" y1="1.8" x2="123" y2="2.3"/>
<line class="st0" x1="122.6" y1="2.7" x2="122.2" y2="2.9"/>
<line class="st0" x1="123.7" y1="1.6" x2="123.3" y2="1.8"/>
<line class="st0" x1="124.7" y1="2.2" x2="122.6" y2="2.7"/>
<line class="st0" x1="125.8" y1="1" x2="123.7" y2="1.6"/>
<line class="st0" x1="125" y1="2.2" x2="124.7" y2="2.2"/>
<line class="st0" x1="126.1" y1="1" x2="1303.2" y2="260.9"/>
<line class="st0" x1="126.1" y1="1" x2="125.8" y2="1"/>
<line class="st0" x1="125.3" y1="2.3" x2="125" y2="2.2"/>
<line class="st0" x1="125.7" y1="2.5" x2="125.3" y2="2.3"/>
<line class="st0" x1="126.1" y1="2.8" x2="125.7" y2="2.5"/>
<line class="st0" x1="126.4" y1="3.2" x2="126.1" y2="2.8"/>
<line class="st0" x1="126.8" y1="3.6" x2="126.4" y2="3.2"/>
<line class="st0" x1="209.8" y1="130.5" x2="126.8" y2="3.6"/>
<line class="st0" x1="2.1" y1="33.8" x2="2.1" y2="34.1"/>
<line class="st0" x1="1" y1="34.6" x2="1" y2="34.9"/>
<line class="st0" x1="2.1" y1="33.5" x2="2.1" y2="33.8"/>
<line class="st0" x1="2.2" y1="33.3" x2="2.1" y2="33.5"/>
<line class="st0" x1="1.1" y1="34.4" x2="1" y2="34.6"/>
<line class="st0" x1="2.4" y1="33.1" x2="2.2" y2="33.3"/>
<line class="st0" x1="1.3" y1="34.3" x2="1.1" y2="34.4"/>
<line class="st0" x1="4.5" y1="32.6" x2="2.4" y2="33.1"/>
<line class="st0" x1="3.4" y1="33.7" x2="1.3" y2="34.3"/>
<line class="st0" x1="3.8" y1="33.7" x2="3.4" y2="33.7"/>
<line class="st0" x1="4.8" y1="32.6" x2="16.7" y2="35.1"/>
<line class="st0" x1="4.8" y1="32.6" x2="4.5" y2="32.6"/>
<line class="st0" x1="4.2" y1="33.8" x2="3.8" y2="33.7"/>
<line class="st0" x1="4.7" y1="34" x2="4.2" y2="33.8"/>
<line class="st0" x1="5.3" y1="34.4" x2="4.7" y2="34"/>
<line class="st0" x1="9.6" y1="37.5" x2="5.3" y2="34.4"/>
<line class="st0" x1="10.4" y1="38.1" x2="9.6" y2="37.5"/>
<line class="st0" x1="11.1" y1="38.8" x2="10.4" y2="38.1"/>
<line class="st0" x1="11.7" y1="39.6" x2="11.1" y2="38.8"/>
<line class="st0" x1="14" y1="43" x2="11.7" y2="39.6"/>
<line class="st0" x1="16.7" y1="51.3" x2="14" y2="47.1"/>
<line class="st0" x1="17.8" y1="29.9" x2="17.8" y2="30"/>
<line class="st0" x1="17.9" y1="29.4" x2="17.8" y2="29.9"/>
<line class="st0" x1="16.8" y1="30.6" x2="16.7" y2="31"/>
<line class="st0" x1="17" y1="30.3" x2="16.8" y2="30.6"/>
<line class="st0" x1="18.1" y1="29.1" x2="17.9" y2="29.4"/>
<line class="st0" x1="17.4" y1="30.1" x2="17" y2="30.3"/>
<line class="st0" x1="18.4" y1="29" x2="18.1" y2="29.1"/>
<line class="st0" x1="19.1" y1="28.8" x2="18.4" y2="29"/>
<line class="st0" x1="18" y1="29.9" x2="17.4" y2="30.1"/>
<line class="st0" x1="18.5" y1="29.9" x2="18" y2="29.9"/>
<line class="st0" x1="19.5" y1="28.8" x2="83.4" y2="42.5"/>
<line class="st0" x1="19.5" y1="28.8" x2="19.1" y2="28.8"/>
<line class="st0" x1="19" y1="30.1" x2="18.5" y2="29.9"/>
<line class="st0" x1="19.7" y1="30.4" x2="19" y2="30.1"/>
<line class="st0" x1="20.3" y1="31" x2="19.7" y2="30.4"/>
<line class="st0" x1="22" y1="32.3" x2="20.3" y2="31"/>
<line class="st0" x1="25.6" y1="35.3" x2="22" y2="32.3"/>
<line class="st0" x1="26.1" y1="35.9" x2="25.6" y2="35.3"/>
<line class="st0" x1="26.7" y1="36.5" x2="26.1" y2="35.9"/>
<line class="st0" x1="27.2" y1="37.2" x2="26.7" y2="36.5"/>
<line class="st0" x1="28.6" y1="39.3" x2="27.2" y2="37.2"/>
<line class="st0" x1="35.6" y1="54.6" x2="28.6" y2="45.6"/>
<line class="st0" x1="35.8" y1="54.8" x2="35.6" y2="54.6"/>
<line class="st0" x1="36" y1="55" x2="35.8" y2="54.8"/>
<line class="st0" x1="36.2" y1="55.1" x2="36" y2="55"/>
<line class="st0" x1="36.4" y1="55.2" x2="36.2" y2="55.1"/>
<line class="st0" x1="36.5" y1="55.3" x2="36.4" y2="55.2"/>
<line class="st0" x1="36.7" y1="55.3" x2="36.5" y2="55.3"/>
<line class="st0" x1="37.7" y1="54.1" x2="37.6" y2="54.1"/>
<line class="st0" x1="88.8" y1="42" x2="36.7" y2="55.3"/>
<line class="st0" x1="88.8" y1="41.1" x2="37.7" y2="54.1"/>
<line class="st0" x1="88.8" y1="3360" x2="88.8" y2="12.5"/>
<line class="st0" x1="88.8" y1="3360.5" x2="88.8" y2="3360"/>
<line class="st0" x1="89.9" y1="3361.7" x2="89.8" y2="3361.2"/>
<line class="st0" x1="89.1" y1="3360.9" x2="88.8" y2="3360.5"/>
<line class="st0" x1="90.1" y1="3362.1" x2="89.9" y2="3361.7"/>
<line class="st0" x1="89.4" y1="3361.1" x2="89.1" y2="3360.9"/>
<line class="st0" x1="90.5" y1="3362.3" x2="90.1" y2="3362.1"/>
<line class="st0" x1="90.1" y1="3361.3" x2="89.4" y2="3361.1"/>
<line class="st0" x1="91.1" y1="3362.5" x2="90.5" y2="3362.3"/>
<line class="st0" x1="90.5" y1="3361.3" x2="90.1" y2="3361.3"/>
<line class="st0" x1="91.6" y1="3362.5" x2="106.9" y2="3359.1"/>
<line class="st0" x1="91.6" y1="3362.5" x2="91.1" y2="3362.5"/>
<line class="st0" x1="91" y1="3361.2" x2="90.5" y2="3361.3"/>
<line class="st0" x1="91.6" y1="3360.9" x2="91" y2="3361.2"/>
<line class="st0" x1="92.1" y1="3360.5" x2="91.6" y2="3360.9"/>
<line class="st0" x1="92.7" y1="3360" x2="92.1" y2="3360.5"/>
<line class="st0" x1="94.3" y1="3358.6" x2="92.7" y2="3360"/>
<line class="st0" x1="97.6" y1="3355.4" x2="94.3" y2="3358.6"/>
<line class="st0" x1="98" y1="3355.1" x2="97.6" y2="3355.4"/>
<line class="st0" x1="98.3" y1="3354.7" x2="98" y2="3355.1"/>
<line class="st0" x1="98.5" y1="3354.3" x2="98.3" y2="3354.7"/>
<line class="st0" x1="106.9" y1="3339" x2="98.5" y2="3354.3"/>
<line class="st0" x1="106.9" y1="3364.7" x2="106.9" y2="7.8"/>
<line class="st0" x1="106.9" y1="3365.2" x2="106.9" y2="3364.7"/>
<line class="st0" x1="108" y1="3366.4" x2="108" y2="3365.9"/>
<line class="st0" x1="107.2" y1="3365.6" x2="106.9" y2="3365.2"/>
<line class="st0" x1="108.2" y1="3366.8" x2="108" y2="3366.4"/>
<line class="st0" x1="107.5" y1="3365.8" x2="107.2" y2="3365.6"/>
<line class="st0" x1="108.6" y1="3367" x2="108.2" y2="3366.8"/>
<line class="st0" x1="108.2" y1="3366" x2="107.5" y2="3365.8"/>
<line class="st0" x1="109.2" y1="3367.2" x2="108.6" y2="3367"/>
<line class="st0" x1="108.6" y1="3366" x2="108.2" y2="3366"/>
<line class="st0" x1="109.7" y1="3367.2" x2="121.9" y2="3364.5"/>
<line class="st0" x1="109.7" y1="3367.2" x2="109.2" y2="3367.2"/>
<line class="st0" x1="109.1" y1="3365.9" x2="108.6" y2="3366"/>
<line class="st0" x1="109.6" y1="3365.6" x2="109.1" y2="3365.9"/>
<line class="st0" x1="110.2" y1="3365.2" x2="109.6" y2="3365.6"/>
<line class="st0" x1="110.8" y1="3364.7" x2="110.2" y2="3365.2"/>
<line class="st0" x1="115.8" y1="3360.1" x2="110.8" y2="3364.7"/>
<line class="st0" x1="116.1" y1="3359.8" x2="115.8" y2="3360.1"/>
<line class="st0" x1="116.4" y1="3359.4" x2="116.1" y2="3359.8"/>
<line class="st0" x1="116.6" y1="3359" x2="116.4" y2="3359.4"/>
<line class="st0" x1="121.9" y1="3349.2" x2="116.6" y2="3359"/>
<line class="st0" x1="121.9" y1="3368.5" x2="121.9" y2="4"/>
<line class="st0" x1="122" y1="3369.1" x2="121.9" y2="3368.5"/>
<line class="st0" x1="123" y1="3370.3" x2="123" y2="3369.9"/>
<line class="st0" x1="122.2" y1="3369.6" x2="122" y2="3369.1"/>
<line class="st0" x1="123.3" y1="3370.7" x2="123" y2="3370.3"/>
<line class="st0" x1="122.6" y1="3369.8" x2="122.2" y2="3369.6"/>
<line class="st0" x1="123.7" y1="3371" x2="123.3" y2="3370.7"/>
<line class="st0" x1="124.7" y1="3370.3" x2="122.6" y2="3369.8"/>
<line class="st0" x1="125.8" y1="3371.5" x2="123.7" y2="3371"/>
<line class="st0" x1="125" y1="3370.4" x2="124.7" y2="3370.3"/>
<line class="st0" x1="126.1" y1="3371.5" x2="1303.2" y2="3111.6"/>
<line class="st0" x1="126.1" y1="3371.5" x2="125.8" y2="3371.5"/>
<line class="st0" x1="125.3" y1="3370.2" x2="125" y2="3370.4"/>
<line class="st0" x1="125.7" y1="3370" x2="125.3" y2="3370.2"/>
<line class="st0" x1="126.1" y1="3369.7" x2="125.7" y2="3370"/>
<line class="st0" x1="126.4" y1="3369.3" x2="126.1" y2="3369.7"/>
<line class="st0" x1="126.8" y1="3368.9" x2="126.4" y2="3369.3"/>
<line class="st0" x1="209.8" y1="3242" x2="126.8" y2="3368.9"/>
<line class="st0" x1="1" y1="3337.6" x2="1" y2="34.9"/>
<line class="st0" x1="2.1" y1="3338.7" x2="2.1" y2="3338.4"/>
<line class="st0" x1="1" y1="3337.9" x2="1" y2="3337.6"/>
<line class="st0" x1="2.1" y1="3339" x2="2.1" y2="3338.7"/>
<line class="st0" x1="1.1" y1="3338.1" x2="1" y2="3337.9"/>
<line class="st0" x1="2.2" y1="3339.3" x2="2.1" y2="3339"/>
<line class="st0" x1="1.3" y1="3338.2" x2="1.1" y2="3338.1"/>
<line class="st0" x1="2.4" y1="3339.4" x2="2.2" y2="3339.3"/>
<line class="st0" x1="3.4" y1="3338.8" x2="1.3" y2="3338.2"/>
<line class="st0" x1="4.5" y1="3339.9" x2="2.4" y2="3339.4"/>
<line class="st0" x1="3.8" y1="3338.8" x2="3.4" y2="3338.8"/>
<line class="st0" x1="4.8" y1="3339.9" x2="16.7" y2="3337.4"/>
<line class="st0" x1="4.8" y1="3339.9" x2="4.5" y2="3339.9"/>
<line class="st0" x1="4.2" y1="3338.7" x2="3.8" y2="3338.8"/>
<line class="st0" x1="4.7" y1="3338.5" x2="4.2" y2="3338.7"/>
<line class="st0" x1="5.3" y1="3338.1" x2="4.7" y2="3338.5"/>
<line class="st0" x1="9.6" y1="3335" x2="5.3" y2="3338.1"/>
<line class="st0" x1="10.4" y1="3334.4" x2="9.6" y2="3335"/>
<line class="st0" x1="11.1" y1="3333.7" x2="10.4" y2="3334.4"/>
<line class="st0" x1="11.7" y1="3332.9" x2="11.1" y2="3333.7"/>
<line class="st0" x1="14" y1="3329.5" x2="14" y2="43"/>
<line class="st0" x1="14" y1="3329.5" x2="11.7" y2="3332.9"/>
<line class="st0" x1="16.7" y1="3321.2" x2="14" y2="3325.4"/>
<line class="st0" x1="16.7" y1="3341.5" x2="16.7" y2="31"/>
<line class="st0" x1="17.8" y1="3342.7" x2="17.8" y2="3342.5"/>
<line class="st0" x1="16.8" y1="3341.9" x2="16.7" y2="3341.5"/>
<line class="st0" x1="17.9" y1="3343.1" x2="17.8" y2="3342.7"/>
<line class="st0" x1="17" y1="3342.2" x2="16.8" y2="3341.9"/>
<line class="st0" x1="18.1" y1="3343.4" x2="17.9" y2="3343.1"/>
<line class="st0" x1="17.4" y1="3342.4" x2="17" y2="3342.2"/>
<line class="st0" x1="18.4" y1="3343.6" x2="18.1" y2="3343.4"/>
<line class="st0" x1="18" y1="3342.6" x2="17.4" y2="3342.4"/>
<line class="st0" x1="19.1" y1="3343.7" x2="18.4" y2="3343.6"/>
<line class="st0" x1="18.5" y1="3342.6" x2="18" y2="3342.6"/>
<line class="st0" x1="19.5" y1="3343.7" x2="83.4" y2="3330.1"/>
<line class="st0" x1="19.5" y1="3343.7" x2="19.1" y2="3343.7"/>
<line class="st0" x1="19" y1="3342.4" x2="18.5" y2="3342.6"/>
<line class="st0" x1="19.7" y1="3342.1" x2="19" y2="3342.4"/>
<line class="st0" x1="20.3" y1="3341.6" x2="19.7" y2="3342.1"/>
<line class="st0" x1="22" y1="3340.2" x2="20.3" y2="3341.6"/>
<line class="st0" x1="25.6" y1="3337.2" x2="22" y2="3340.2"/>
<line class="st0" x1="26.1" y1="3336.6" x2="25.6" y2="3337.2"/>
<line class="st0" x1="26.7" y1="3336" x2="26.1" y2="3336.6"/>
<line class="st0" x1="27.2" y1="3335.4" x2="26.7" y2="3336"/>
<line class="st0" x1="28.6" y1="3333.2" x2="28.6" y2="39.3"/>
<line class="st0" x1="28.6" y1="3333.2" x2="27.2" y2="3335.4"/>
<line class="st0" x1="35.6" y1="3317.9" x2="28.6" y2="3326.9"/>
<line class="st0" x1="35.8" y1="3317.7" x2="35.6" y2="3317.9"/>
<line class="st0" x1="36" y1="3317.5" x2="35.8" y2="3317.7"/>
<line class="st0" x1="36.2" y1="3317.4" x2="36" y2="3317.5"/>
<line class="st0" x1="36.4" y1="3317.3" x2="36.2" y2="3317.4"/>
<line class="st0" x1="36.5" y1="3317.2" x2="36.4" y2="3317.3"/>
<line class="st0" x1="36.7" y1="3317.3" x2="36.5" y2="3317.2"/>
<line class="st0" x1="37.7" y1="3318.4" x2="37.6" y2="3318.4"/>
<line class="st0" x1="88.8" y1="3330.5" x2="36.7" y2="3317.3"/>
<line class="st0" x1="88.8" y1="3331.4" x2="37.7" y2="3318.4"/>
<line class="st0" x1="1281.4" y1="413.6" x2="1281.4" y2="415.2"/>
<line class="st0" x1="1281.4" y1="495.6" x2="1281.4" y2="497.1"/>
<line class="st0" x1="1281.2" y1="412.6" x2="1281.4" y2="413.6"/>
<line class="st0" x1="1280.5" y1="411.7" x2="1281.2" y2="412.6"/>
<line class="st0" x1="1280.5" y1="411.7" x2="1279.9" y2="411.3"/>
<line class="st0" x1="1277.4" y1="410.6" x2="1279.9" y2="411.3"/>
<line class="st0" x1="1273.5" y1="410.1" x2="1277.4" y2="410.6"/>
<line class="st0" x1="1281.2" y1="498" x2="1281.4" y2="497.1"/>
<line class="st0" x1="1281.4" y1="346.4" x2="1280.7" y2="346"/>
<line class="st0" x1="1278.1" y1="345.1" x2="1280.7" y2="346"/>
<line class="st0" x1="1273.9" y1="344.6" x2="1278.1" y2="345.1"/>
<line class="st0" x1="1273.5" y1="344.6" x2="1273.9" y2="344.6"/>
<line class="st0" x1="1282.1" y1="347.4" x2="1282.3" y2="348.9"/>
<line class="st0" x1="1282.1" y1="347.4" x2="1281.4" y2="346.4"/>
<line class="st0" x1="1282.1" y1="411.8" x2="1282.3" y2="410.9"/>
<line class="st0" x1="1281.1" y1="412.5" x2="1282.1" y2="411.8"/>
<line class="st0" x1="1282.3" y1="406.8" x2="1282.3" y2="410.9"/>
<line class="st0" x1="1282.3" y1="355.1" x2="1282.3" y2="348.9"/>
<line class="st0" x1="1282.3" y1="355.1" x2="1282.3" y2="406.8"/>
<line class="st0" x1="1281.4" y1="498" x2="1280.7" y2="497.7"/>
<line class="st0" x1="1278.1" y1="497" x2="1280.7" y2="497.7"/>
<line class="st0" x1="1273.9" y1="496.5" x2="1278.1" y2="497"/>
<line class="st0" x1="1273.5" y1="496.5" x2="1273.9" y2="496.5"/>
<line class="st0" x1="1282.1" y1="498.9" x2="1282.3" y2="499.9"/>
<line class="st0" x1="1282.1" y1="498.9" x2="1281.4" y2="498"/>
<line class="st0" x1="1273.5" y1="566" x2="1274.8" y2="565.8"/>
<line class="st0" x1="1282.1" y1="563.3" x2="1282.3" y2="561.9"/>
<line class="st0" x1="1282.1" y1="563.3" x2="1281.3" y2="563.8"/>
<line class="st0" x1="1277.2" y1="565.4" x2="1274.8" y2="565.8"/>
<line class="st0" x1="1279.8" y1="564.7" x2="1281.3" y2="563.8"/>
<line class="st0" x1="1279.8" y1="564.7" x2="1277.2" y2="565.4"/>
<line class="st0" x1="1282.3" y1="555.6" x2="1282.3" y2="561.9"/>
<line class="st0" x1="1282.3" y1="504" x2="1282.3" y2="499.9"/>
<line class="st0" x1="1282.3" y1="504" x2="1282.3" y2="555.6"/>
<line class="st0" x1="1281.4" y1="493.9" x2="1281.4" y2="495.6"/>
<line class="st0" x1="1281.4" y1="416.9" x2="1281.4" y2="415.2"/>
<line class="st0" x1="1281.4" y1="416.9" x2="1281.4" y2="493.9"/>
<line class="st0" x1="1278" y1="2992.9" x2="1281.1" y2="2992.3"/>
<line class="st0" x1="1278" y1="2992.2" x2="1277.3" y2="2992.1"/>
<line class="st0" x1="1278" y1="2993.2" x2="1278" y2="2992.2"/>
<line class="st0" x1="1274.6" y1="2991.7" x2="1273.5" y2="2991.5"/>
<line class="st0" x1="1274.6" y1="2991.7" x2="1277.3" y2="2992.1"/>
<line class="st0" x1="1275.3" y1="3024.8" x2="1275.7" y2="3024.7"/>
<line class="st0" x1="1275.3" y1="3024.8" x2="1273.5" y2="3025.2"/>
<line class="st0" x1="1276.7" y1="3024.5" x2="1280.1" y2="3023.8"/>
<line class="st0" x1="1276.2" y1="3024.6" x2="1275.7" y2="3024.7"/>
<line class="st0" x1="1276.2" y1="3024.6" x2="1276.7" y2="3024.5"/>
<line class="st0" x1="1289.3" y1="2996.8" x2="1287.8" y2="3018.5"/>
<line class="st0" x1="1289.3" y1="2990" x2="1287.1" y2="2989.5"/>
<line class="st0" x1="1289.3" y1="2990.9" x2="1289.3" y2="2991.6"/>
<line class="st0" x1="1289.3" y1="2990.9" x2="1289.3" y2="2990"/>
<line class="st0" x1="1286.2" y1="2989.3" x2="1277.4" y2="2987.6"/>
<line class="st0" x1="1286.2" y1="2989.3" x2="1287.1" y2="2989.5"/>
<line class="st0" x1="1284.5" y1="2991.6" x2="1281.1" y2="2992.3"/>
<line class="st0" x1="1284.5" y1="2991.6" x2="1284.9" y2="2991.5"/>
<line class="st0" x1="1289.3" y1="2995.8" x2="1289.3" y2="2996.8"/>
<line class="st0" x1="1289.3" y1="2995.8" x2="1289.3" y2="2991.6"/>
<line class="st0" x1="1287.5" y1="3022.3" x2="1287.8" y2="3018.5"/>
<line class="st0" x1="1284.8" y1="3022.8" x2="1284.3" y2="3022.9"/>
<line class="st0" x1="1284.8" y1="3022.8" x2="1287.5" y2="3022.3"/>
<line class="st0" x1="1283.4" y1="3023.1" x2="1280.1" y2="3023.8"/>
<line class="st0" x1="1283.9" y1="3023" x2="1284.3" y2="3022.9"/>
<line class="st0" x1="1283.9" y1="3023" x2="1283.4" y2="3023.1"/>
<line class="st0" x1="1277.4" y1="2986.8" x2="1277.4" y2="2992.1"/>
<line class="st0" x1="1285.2" y1="2984.9" x2="1282.7" y2="2985.7"/>
<line class="st0" x1="1285.8" y1="2984" x2="1285.8" y2="2983.4"/>
<line class="st0" x1="1285.8" y1="2984" x2="1285.2" y2="2984.9"/>
<line class="st0" x1="1274.2" y1="2987.4" x2="1273.5" y2="2987.6"/>
<line class="st0" x1="1275.9" y1="2987.1" x2="1274.2" y2="2987.4"/>
<line class="st0" x1="1279.5" y1="2986.4" x2="1282.7" y2="2985.7"/>
<line class="st0" x1="1279.5" y1="2986.4" x2="1275.9" y2="2987.1"/>
<line class="st0" x1="1285.8" y1="2791.9" x2="1285.8" y2="2983.4"/>
<line class="st0" x1="1285.8" y1="2766.2" x2="1285.8" y2="2791.9"/>
<line class="st0" x1="1273.5" y1="2757.9" x2="1274.2" y2="2758"/>
<line class="st0" x1="1285.8" y1="2764.4" x2="1285.8" y2="2766.2"/>
<line class="st0" x1="1285.2" y1="2763.4" x2="1285.8" y2="2764.4"/>
<line class="st0" x1="1282.7" y1="2762" x2="1279.5" y2="2760.5"/>
<line class="st0" x1="1282.7" y1="2762" x2="1285.2" y2="2763.4"/>
<line class="st0" x1="1275.9" y1="2758.8" x2="1274.2" y2="2758"/>
<line class="st0" x1="1275.9" y1="2758.8" x2="1279.5" y2="2760.5"/>
<line class="st0" x1="310.6" y1="1685" x2="324.7" y2="1685"/>
<line class="st0" x1="310.6" y1="1519.6" x2="324.7" y2="1519.2"/>
<line class="st0" x1="325.6" y1="1685" x2="324.7" y2="1685"/>
<line class="st0" x1="325.6" y1="1685" x2="326.1" y2="1684.9"/>
<line class="st0" x1="325.6" y1="1519.2" x2="324.7" y2="1519.2"/>
<line class="st0" x1="325.6" y1="1519.2" x2="326" y2="1519.3"/>
<line class="st0" x1="360.7" y1="1656.2" x2="362" y2="1645.4"/>
<line class="st0" x1="356.5" y1="1667.4" x2="360.7" y2="1656.2"/>
<line class="st0" x1="349.9" y1="1676.3" x2="356.5" y2="1667.4"/>
<line class="st0" x1="341.5" y1="1682" x2="349.9" y2="1676.3"/>
<line class="st0" x1="362.2" y1="1565.6" x2="362.2" y2="1566"/>
<line class="st0" x1="362.2" y1="1561" x2="362.2" y2="1565.6"/>
<line class="st0" x1="360.7" y1="1548.5" x2="362.2" y2="1561"/>
<line class="st0" x1="356.5" y1="1537.2" x2="360.7" y2="1548.5"/>
<line class="st0" x1="349.9" y1="1528.1" x2="356.5" y2="1537.2"/>
<line class="st0" x1="341.5" y1="1522.2" x2="349.9" y2="1528.1"/>
<line class="st0" x1="340.1" y1="1683" x2="341.5" y2="1682"/>
<line class="st0" x1="330.6" y1="1685" x2="329.8" y2="1685"/>
<line class="st0" x1="330.6" y1="1685" x2="340.1" y2="1683"/>
<line class="st0" x1="340.1" y1="1521.3" x2="341.5" y2="1522.2"/>
<line class="st0" x1="330.6" y1="1519.1" x2="329.8" y2="1519.1"/>
<line class="st0" x1="330.6" y1="1519.1" x2="340.1" y2="1521.3"/>
<line class="st0" x1="295.7" y1="1626.4" x2="295.7" y2="1614.1"/>
<line class="st0" x1="295.7" y1="1638.7" x2="295.7" y2="1626.4"/>
<line class="st0" x1="326.6" y1="1685" x2="329.8" y2="1685"/>
<line class="st0" x1="317" y1="1683" x2="326.6" y2="1685"/>
<line class="st0" x1="308.4" y1="1677.1" x2="317" y2="1683"/>
<line class="st0" x1="301.6" y1="1667.9" x2="308.4" y2="1677.1"/>
<line class="st0" x1="295.7" y1="1643.5" x2="295.7" y2="1638.7"/>
<line class="st0" x1="297.2" y1="1656.3" x2="301.6" y2="1667.9"/>
<line class="st0" x1="297.2" y1="1656.3" x2="295.7" y2="1643.5"/>
<line class="st0" x1="295.7" y1="1577.1" x2="295.7" y2="1589.4"/>
<line class="st0" x1="295.7" y1="1564.7" x2="295.7" y2="1577.1"/>
<line class="st0" x1="295.7" y1="1601.7" x2="295.7" y2="1614.1"/>
<line class="st0" x1="295.7" y1="1601.7" x2="295.7" y2="1589.4"/>
<line class="st0" x1="326.6" y1="1519.2" x2="329.8" y2="1519.1"/>
<line class="st0" x1="317" y1="1521" x2="326.6" y2="1519.2"/>
<line class="st0" x1="308.4" y1="1526.7" x2="317" y2="1521"/>
<line class="st0" x1="301.6" y1="1535.7" x2="308.4" y2="1526.7"/>
<line class="st0" x1="295.7" y1="1560" x2="295.7" y2="1564.7"/>
<line class="st0" x1="297.2" y1="1547.2" x2="301.6" y2="1535.7"/>
<line class="st0" x1="297.2" y1="1547.2" x2="295.7" y2="1560"/>
<line class="st0" x1="411" y1="1880.3" x2="406.4" y2="1912.7"/>
<line class="st0" x1="415.8" y1="1842.7" x2="411" y2="1880.3"/>
<line class="st0" x1="419.9" y1="1804.6" x2="415.8" y2="1842.7"/>
<line class="st0" x1="423.1" y1="1766.3" x2="419.9" y2="1804.6"/>
<line class="st0" x1="425.4" y1="1727.8" x2="423.1" y2="1766.3"/>
<line class="st0" x1="361.5" y1="1874.7" x2="358.7" y2="1907.3"/>
<line class="st0" x1="364.2" y1="1838" x2="361.5" y2="1874.7"/>
<line class="st0" x1="366.1" y1="1801" x2="364.2" y2="1838"/>
<line class="st0" x1="367.2" y1="1763.8" x2="366.1" y2="1801"/>
<line class="st0" x1="367.4" y1="1726.4" x2="367.2" y2="1763.8"/>
<line class="st0" x1="426.9" y1="1673.2" x2="425.4" y2="1727.8"/>
<line class="st0" x1="366.9" y1="1673.1" x2="367.4" y2="1726.4"/>
<line class="st0" x1="401.9" y1="1570.6" x2="404.7" y2="1571.1"/>
<line class="st0" x1="368.4" y1="1566.7" x2="401.9" y2="1570.6"/>
<line class="st0" x1="365.6" y1="1913.5" x2="364.9" y2="1913.2"/>
<line class="st0" x1="368.3" y1="1914.4" x2="365.6" y2="1913.5"/>
<line class="st0" x1="428" y1="1649.5" x2="428" y2="1642.8"/>
<line class="st0" x1="428" y1="1649.5" x2="426.9" y2="1673.2"/>
<line class="st0" x1="365.8" y1="1649.4" x2="365.8" y2="1642.7"/>
<line class="st0" x1="365.8" y1="1649.4" x2="366.9" y2="1673.1"/>
<line class="st0" x1="314.5" y1="1627.9" x2="321.5" y2="1634.8"/>
<line class="st0" x1="309.5" y1="1618.5" x2="314.5" y2="1627.9"/>
<line class="st0" x1="306.8" y1="1607.4" x2="309.5" y2="1618.5"/>
<line class="st0" x1="306.8" y1="1595.8" x2="306.8" y2="1607.4"/>
<line class="st0" x1="309.5" y1="1584.8" x2="306.8" y2="1595.8"/>
<line class="st0" x1="314.5" y1="1575.5" x2="309.5" y2="1584.8"/>
<line class="st0" x1="321.5" y1="1568.8" x2="314.5" y2="1575.5"/>
<line class="st0" x1="323.7" y1="1567.2" x2="321.5" y2="1568.8"/>
<line class="st0" x1="323.7" y1="1567.2" x2="332.3" y2="1563.6"/>
<line class="st0" x1="323.7" y1="1636.3" x2="321.5" y2="1634.8"/>
<line class="st0" x1="332.3" y1="1640.1" x2="323.7" y2="1636.3"/>
<line class="st0" x1="333.3" y1="1640.1" x2="332.3" y2="1640.1"/>
<line class="st0" x1="342.2" y1="1563.7" x2="368.4" y2="1566.7"/>
<line class="st0" x1="333.2" y1="1563.6" x2="332.3" y2="1563.6"/>
<line class="st0" x1="333.2" y1="1563.6" x2="342.2" y2="1563.7"/>
<line class="st0" x1="333.2" y1="1640.1" x2="359.4" y2="1645"/>
<line class="st0" x1="428" y1="1586.1" x2="428" y2="1589"/>
<line class="st0" x1="428" y1="1589.5" x2="428" y2="1589"/>
<line class="st0" x1="365.8" y1="1633.4" x2="365.8" y2="1642.7"/>
<line class="st0" x1="358.5" y1="1910.6" x2="358.7" y2="1907.3"/>
<line class="st0" x1="358.5" y1="1910.6" x2="364.9" y2="1913.2"/>
<line class="st0" x1="375.4" y1="1917" x2="368.3" y2="1914.4"/>
<line class="st0" x1="382.9" y1="1916.9" x2="375.4" y2="1917"/>
<line class="st0" x1="390.4" y1="1916.7" x2="382.9" y2="1916.9"/>
<line class="st0" x1="397.1" y1="1916.5" x2="390.4" y2="1916.7"/>
<line class="st0" x1="402.5" y1="1916.2" x2="397.1" y2="1916.5"/>
<line class="st0" x1="405.9" y1="1916" x2="406.4" y2="1912.7"/>
<line class="st0" x1="405.9" y1="1916" x2="402.5" y2="1916.2"/>
<line class="st0" x1="365.8" y1="1646.1" x2="359.4" y2="1645"/>
<line class="st0" x1="428" y1="1583.3" x2="428" y2="1586.1"/>
<line class="st0" x1="422.8" y1="1576" x2="428" y2="1583.3"/>
<line class="st0" x1="415.2" y1="1572.1" x2="404.7" y2="1571.1"/>
<line class="st0" x1="415.2" y1="1572.1" x2="422.8" y2="1576"/>
<line class="st0" x1="428" y1="1628.9" x2="428" y2="1642.8"/>
<line class="st0" x1="428" y1="1628.9" x2="428" y2="1589.5"/>
</svg>
