<svg xmlns="http://www.w3.org/2000/svg" width="21.02" height="22.521" viewBox="0 0 21.02 22.521">
  <g id="Group_12339" data-name="Group 12339" transform="translate(-1219.069 -229)">
    <path id="Path_555" data-name="Path 555" d="M18.193,461.551h-.751a.375.375,0,0,1,0-.751h.751a.375.375,0,0,1,0,.751Z" transform="translate(1202.002 -211.531)" fill="#fff"/>
    <path id="Path_556" data-name="Path 556" d="M68.842,53.652H51.575a.355.355,0,0,1-.375-.375V34.508a.355.355,0,0,1,.375-.375H68.842a.355.355,0,0,1,.375.375V53.276A.355.355,0,0,1,68.842,53.652ZM51.951,52.9H68.466V34.884H51.951Z" transform="translate(1169.37 196.369)" fill="#fff"/>
    <path id="Path_557" data-name="Path 557" d="M99.972,86.284H85.708a.355.355,0,0,1-.375-.375V68.642a.355.355,0,0,1,.375-.375H99.972a.355.355,0,0,1,.375.375V85.909A.355.355,0,0,1,99.972,86.284Zm-13.888-.751H99.6V69.018H86.084Z" transform="translate(1136.739 163.736)" fill="#fff"/>
    <path id="Path_558" data-name="Path 558" d="M52.525,463.052H35.259a1.106,1.106,0,0,1-1.126-1.126v-.751a.355.355,0,0,1,.375-.375H53.276a.355.355,0,0,1,.375.375v.751A1.106,1.106,0,0,1,52.525,463.052Zm-17.642-1.5v.375a.355.355,0,0,0,.375.375H52.525a.355.355,0,0,0,.375-.375v-.375Z" transform="translate(1185.687 -211.531)" fill="#fff"/>
    <path id="Path_559" data-name="Path 559" d="M52.525,2.252H35.259a1.129,1.129,0,0,1-1.126-1.126A1.106,1.106,0,0,1,35.259,0H52.525a1.106,1.106,0,0,1,1.126,1.126A1.106,1.106,0,0,1,52.525,2.252ZM35.259.751a.4.4,0,0,0-.375.375.376.376,0,0,0,.375.375H52.525a.355.355,0,0,0,.375-.375.355.355,0,0,0-.375-.375Z" transform="translate(1185.687 229)" fill="#fff"/>
    <path id="Path_560" data-name="Path 560" d="M461.926,461.551h-.751a.375.375,0,0,1,0-.751h.751a.375.375,0,0,1,0,.751Z" transform="translate(777.788 -211.531)" fill="#fff"/>
    <path id="Path_561" data-name="Path 561" d="M232.277,86.284h-1.5a.355.355,0,0,1-.375-.375V68.642a.355.355,0,0,1,.375-.375h1.5a.355.355,0,0,1,.375.375V85.909A.355.355,0,0,1,232.277,86.284Zm-1.126-.751h.751V69.018h-.751Z" transform="translate(998.053 163.736)" fill="#fff"/>
    <path id="Path_562" data-name="Path 562" d="M111.309,95.743a.341.341,0,0,1-.263-.113.363.363,0,0,1,0-.525l1.126-1.126a.372.372,0,0,1,.526.525l-1.126,1.126A.341.341,0,0,1,111.309,95.743Z" transform="translate(1112.265 139.262)" fill="#fff"/>
    <path id="Path_563" data-name="Path 563" d="M111.309,146.568a.341.341,0,0,1-.263-.113.363.363,0,0,1,0-.526l.751-.751a.372.372,0,0,1,.526.525l-.751.751A.341.341,0,0,1,111.309,146.568Z" transform="translate(1112.265 90.314)" fill="#fff"/>
    <path id="Path_564" data-name="Path 564" d="M153.976,95.743a.341.341,0,0,1-.263-.113.363.363,0,0,1,0-.525l1.126-1.126a.372.372,0,0,1,.526.525l-1.126,1.126A.341.341,0,0,1,153.976,95.743Z" transform="translate(1071.474 139.262)" fill="#fff"/>
    <path id="Path_565" data-name="Path 565" d="M358.776,411.477a.341.341,0,0,1-.263-.113.363.363,0,0,1,0-.526l1.126-1.126a.372.372,0,0,1,.526.526l-1.126,1.126A.341.341,0,0,1,358.776,411.477Z" transform="translate(875.683 -162.584)" fill="#fff"/>
    <path id="Path_566" data-name="Path 566" d="M367.309,368.435a.341.341,0,0,1-.263-.113.363.363,0,0,1,0-.526l.751-.751a.372.372,0,0,1,.526.526l-.751.751A.341.341,0,0,1,367.309,368.435Z" transform="translate(867.525 -121.793)" fill="#fff"/>
    <path id="Path_567" data-name="Path 567" d="M316.109,411.477a.341.341,0,0,1-.263-.113.363.363,0,0,1,0-.526l1.126-1.126a.372.372,0,0,1,.526.526l-1.126,1.126A.341.341,0,0,1,316.109,411.477Z" transform="translate(916.473 -162.584)" fill="#fff"/>
    <path id="Path_568" data-name="Path 568" d="M163.259,234.154a1.106,1.106,0,0,1-1.126-1.126v-1.5a1.126,1.126,0,0,1,2.252,0v1.5A1.106,1.106,0,0,1,163.259,234.154Zm0-3a.355.355,0,0,0-.375.375v1.5a.375.375,0,1,0,.751,0v-1.5A.376.376,0,0,0,163.259,231.151Z" transform="translate(1063.317 8.734)" fill="#fff"/>
    <path id="Path_569" data-name="Path 569" d="M299.793,234.154a1.106,1.106,0,0,1-1.126-1.126v-1.5a1.126,1.126,0,0,1,2.252,0v1.5A1.106,1.106,0,0,1,299.793,234.154Zm0-3a.355.355,0,0,0-.375.375v1.5a.375.375,0,1,0,.751,0v-1.5A.376.376,0,0,0,299.793,231.151Z" transform="translate(932.789 8.734)" fill="#fff"/>
  </g>
</svg>
