<svg xmlns="http://www.w3.org/2000/svg" width="23.256" height="23.256" viewBox="0 0 23.256 23.256">
  <path id="Path_586" data-name="Path 586" d="M742.868,308.527H740.93v-.775h.388a.388.388,0,0,0,.388-.388v-1.55a.388.388,0,0,0-.388-.388h-6.589v-3.1h.388a.388.388,0,0,0,.388-.388v-1.55a.388.388,0,0,0-.388-.388H721.938a.388.388,0,0,0-.388.388v1.55a.388.388,0,0,0,.388.388h.388v6.2h-1.938a.388.388,0,0,0-.388.388v13.954a.388.388,0,0,0,.388.388h22.481a.388.388,0,0,0,.388-.388V308.915a.388.388,0,0,0-.388-.388Zm-2.713,4.651H737.83v-2.326h2.326Zm-3.1,0h-2.326v-2.326h2.326Zm-2.326-3.1v-2.326h2.326v2.326Zm0,3.876h2.326v1.938h-2.326Zm3.1,0h2.326v1.938H737.83Zm2.326-3.876H737.83v-2.326h2.326Zm.775-3.876v.775h-6.2V306.2Zm-18.6-5.426h12.4v.775h-12.4Zm-1.55,8.527h1.55v13.178h-1.55Zm11.24,13.178h-6.977v-2.713a.388.388,0,0,1,.388-.388h6.2a.388.388,0,0,1,.388.388Zm1.938,0h-1.163v-2.713a1.163,1.163,0,0,0-1.163-1.163h-6.2a1.163,1.163,0,0,0-1.163,1.163v2.713H723.1V302.326h10.853Zm.775,0v-5.814h5.426v5.814Zm7.752,0h-1.55V309.3h1.55Zm0,0" transform="translate(-720 -300)" fill="#fff"/>
</svg>
