<svg xmlns="http://www.w3.org/2000/svg" width="23" height="23" viewBox="0 0 23 23">
  <path id="Path_570" data-name="Path 570" d="M725.989,304.979h-5.528v-2.092a17.713,17.713,0,0,0,6.209-2.13.426.426,0,0,0-.054-.762,11.783,11.783,0,0,1-3.917-2.879,13.692,13.692,0,0,0,2.261-1.022.426.426,0,0,0-.049-.762,10.115,10.115,0,0,1-3.685-2.96,9.889,9.889,0,0,0,1.86-.852.426.426,0,0,0-.044-.753,5.162,5.162,0,0,1-1.017-.624.337.337,0,1,0-.412.533,6.28,6.28,0,0,0,.729.489,9.617,9.617,0,0,1-1.772.709l-.023.006a8.227,8.227,0,0,1-2.248.326,7.975,7.975,0,0,1-1.648-.178l-1.813-1.242a10.074,10.074,0,0,0,2.089-2.157,3.7,3.7,0,0,1,.434.257,2.16,2.16,0,0,0,1.165.46h0a2.179,2.179,0,0,0,1.265-.556c.239.313.483.6.727.87a.337.337,0,0,0,.5-.456c-.213-.231-.426-.484-.635-.755a.951.951,0,0,1,.5-.019.337.337,0,0,0,.3-.566,15.252,15.252,0,0,1-2.469-3.6.465.465,0,0,0-.419-.26h0a.465.465,0,0,0-.42.26,14.7,14.7,0,0,1-2.865,3.988.337.337,0,0,0,.345.565,4.866,4.866,0,0,1,.764-.241,8.5,8.5,0,0,1-1.878,1.807l-1.164-.8a.673.673,0,0,0-.756,0l-7.7,5.276a1.157,1.157,0,0,0,1.3,1.912l.5-.333v8.541h-1.416a1.011,1.011,0,1,0,0,2.021h20.979a1.011,1.011,0,1,0,0-2.021Zm-7.69-20.06a16.477,16.477,0,0,0,1.917,2.876,2.914,2.914,0,0,0-.858.479,1.556,1.556,0,0,1-.829.4h0a1.623,1.623,0,0,1-.8-.351,1.939,1.939,0,0,0-1.413-.451,16.262,16.262,0,0,0,1.982-2.952Zm1.488,20.06h-.806v-1.953q.41-.019.806-.058Zm-5.285-9.971a1.836,1.836,0,0,0-1.016-1.317h1.372l1.976,1.317Zm-2.956.328a1.156,1.156,0,0,1,2.313,0v.018a1.156,1.156,0,0,1-2.313,0s0-.006,0-.009,0-.006,0-.009Zm.012-2.319,1.144-.763,1.145.763Zm-1.011.674h1.372a1.837,1.837,0,0,0-1.016,1.317h-.786v-1.031Zm-.43,2.729v-.738h.786A1.837,1.837,0,0,0,711.921,297h-1.955a1.188,1.188,0,0,0,.152-.58Zm-1.162,1.622.383-.369h6.16a.337.337,0,0,0,0-.674h-2.014a1.837,1.837,0,0,0,1.017-1.318h3.344l.461.307V297h-1.359a.337.337,0,0,0,0,.674h1.359v1.317H714.9a3.046,3.046,0,0,0-2.192-.929H712.7a3.047,3.047,0,0,0-2.192.929H708.8v-.579a.516.516,0,0,1,.158-.37Zm1.363,3.074a2.384,2.384,0,0,1,2.381-2.381h.006a2.384,2.384,0,0,1,2.381,2.381v3.848h-4.769Zm7.988,1.857h-2.545v-1.317h2.545Zm-2.545.674h2.545v1.317h-2.545Zm2.545-2.665h-2.548a3.033,3.033,0,0,0-.365-1.317h2.913Zm-9.574-1.317h1.28a3.035,3.035,0,0,0-.365,1.317H707.1v-.637a1.186,1.186,0,0,0,1.633-.68Zm-1.633,3.982h.847a.337.337,0,0,0,0-.674H707.1v-1.317h2.545v1.317H709.4a.337.337,0,0,0,0,.674h.244v1.317H707.1Zm11.881-1.294v-3.532a.718.718,0,0,1,.286-.11c.436-.063.87.363,1.2.741a2.432,2.432,0,0,0,1.675,1.045,1.95,1.95,0,0,0,1.6-1.193c.037-.068.072-.137.107-.206a10.92,10.92,0,0,0,2.057,1.317,17.207,17.207,0,0,1-6.919,1.938Zm4.332-3.7c-.231.467-.58,1.142-1.138,1.17-.435.021-.832-.39-1.2-.813a2.143,2.143,0,0,0-1.8-.965,1.315,1.315,0,0,0-.19.042v-.2a13.363,13.363,0,0,0,3.011-.534,17.253,17.253,0,0,0,1.321,1.305ZM718.3,292.88a8.808,8.808,0,0,0,2.227-.3,11.684,11.684,0,0,0,3.669,3.161,13.435,13.435,0,0,1-5.215,1.461v-.767l.5.33a1.157,1.157,0,0,0,1.308-1.909l-2.9-1.989q.212.011.421.011Zm-12.75,3.332a.483.483,0,0,1-.756-.4.483.483,0,0,1,.21-.4l7.7-5.274,7.7,5.274a.483.483,0,0,1,.21.4.483.483,0,0,1-.76.4l-6.908-4.6a.435.435,0,0,0-.484,0l-5.877,3.917-.016.011Zm3.894-1.786v1.993a.513.513,0,0,1-.158.369l-.8.767a1.192,1.192,0,0,0-.364.855c0,.99,0,.868,0,.887a.512.512,0,0,1-1.024-.024v-3.286Zm16.545,11.9H705.011a.337.337,0,0,1,0-.674h20.979a.337.337,0,0,1,0,.674Zm0,0" transform="translate(-704 -284)" fill="#fff"/>
</svg>
