<svg xmlns="http://www.w3.org/2000/svg" width="23" height="22.998" viewBox="0 0 23 22.998">
  <g id="Group_12343" data-name="Group 12343" transform="translate(-765.068 -569)">
    <path id="Path_571" data-name="Path 571" d="M259.617,125.885h-1.15V123.2a.383.383,0,0,0-.383-.383H256.55v-6.9a.383.383,0,0,0-.186-.329l-7.667-4.6a.383.383,0,0,0-.395,0l-7.667,4.6a.383.383,0,0,0-.186.329v6.9h-1.533a.383.383,0,0,0-.383.383v2.683h-1.15a.383.383,0,0,0,0,.767h22.233a.383.383,0,0,0,0-.767Zm-8.433-3.067v-1.533h3.45a.383.383,0,1,0,0-.767h-3.45v-2.683h4.6v4.983Zm-4.6-1.533h3.833v4.6h-3.833Zm0-.767v-2.683h3.833v2.683Zm9.2-3.45h-4.6v-3.693l4.6,2.76Zm-7.283-5.3,1.917,1.15v4.153h-3.833v-4.153Zm-2.683,1.61v3.693h-3.45a.383.383,0,1,0,0,.767h3.45v2.683h-4.6v-4.383Zm-4.6,7.91h4.6v1.533h-4.6Zm-1.917,3.833h1.917a.383.383,0,0,0,0-.767H239.3v-.767h6.517v2.3H239.3Zm11.883.767v-.767H253.1a.383.383,0,0,0,0-.767h-1.917v-.767H257.7v2.3Z" transform="translate(528.068 463.814)" fill="#fff"/>
    <path id="Path_572" data-name="Path 572" d="M240.833,478.634a.383.383,0,1,0,0-.767h-3.45a.383.383,0,1,0,0,.767Z" transform="translate(528.068 113.366)" fill="#fff"/>
    <path id="Path_573" data-name="Path 573" d="M365.566,477.867h-17.25a.383.383,0,1,0,0,.767h17.25a.383.383,0,0,0,0-.767Z" transform="translate(422.119 113.366)" fill="#fff"/>
    <path id="Path_574" data-name="Path 574" d="M358.767,409.6H356.85a.383.383,0,1,0,0,.767h1.917a.383.383,0,1,0,0-.767Z" transform="translate(413.968 178.566)" fill="#fff"/>
    <path id="Path_575" data-name="Path 575" d="M623.3,409.6h-1.917a.383.383,0,0,0,0,.767H623.3a.383.383,0,0,0,0-.767Z" transform="translate(161.318 178.566)" fill="#fff"/>
    <path id="Path_576" data-name="Path 576" d="M606.233,30.2a2.3,2.3,0,1,0-2.3-2.3A2.3,2.3,0,0,0,606.233,30.2Zm0-3.833A1.533,1.533,0,1,1,604.7,27.9,1.533,1.533,0,0,1,606.233,26.367Z" transform="translate(177.619 545.316)" fill="#fff"/>
    <path id="Path_577" data-name="Path 577" d="M646.983-15.917a.383.383,0,0,0,.383-.383v-.383a.383.383,0,0,0-.383-.383.383.383,0,0,0-.383.383v.383A.383.383,0,0,0,646.983-15.917Z" transform="translate(136.868 586.066)" fill="#fff"/>
    <path id="Path_578" data-name="Path 578" d="M586.744,8.953a.383.383,0,1,0,.542-.542l-.271-.271a.383.383,0,0,0-.542.542Z" transform="translate(194.397 562.094)" fill="#fff"/>
    <path id="Path_579" data-name="Path 579" d="M561.65,69.034h.383a.383.383,0,1,0,0-.767h-.383a.383.383,0,1,0,0,.767Z" transform="translate(218.368 504.566)" fill="#fff"/>
    <path id="Path_580" data-name="Path 580" d="M586.544,122.785l-.271.271a.383.383,0,1,0,.542.542l.271-.271a.383.383,0,0,0-.542-.542Z" transform="translate(194.597 452.6)" fill="#fff"/>
    <path id="Path_581" data-name="Path 581" d="M646.6,145.45v.383a.383.383,0,0,0,.767,0v-.383a.383.383,0,0,0-.767,0Z" transform="translate(136.868 431.216)" fill="#fff"/>
    <path id="Path_582" data-name="Path 582" d="M701.016,122.682a.383.383,0,0,0,0,.542l.271.271a.383.383,0,1,0,.542-.542l-.271-.271A.383.383,0,0,0,701.016,122.682Z" transform="translate(85.004 452.702)" fill="#fff"/>
    <path id="Path_583" data-name="Path 583" d="M724.167,68.267h-.383a.383.383,0,0,0,0,.767h.383a.383.383,0,1,0,0-.767Z" transform="translate(63.518 504.566)" fill="#fff"/>
    <path id="Path_584" data-name="Path 584" d="M701.291,8.865a.381.381,0,0,0,.271-.112l.271-.271a.383.383,0,1,0-.542-.542l-.271.271a.383.383,0,0,0,.271.654Z" transform="translate(85 562.295)" fill="#fff"/>
  </g>
</svg>
