<svg xmlns="http://www.w3.org/2000/svg" width="16.66" height="22.447" viewBox="0 0 16.66 22.447">
  <g id="Group_12294" data-name="Group 12294" transform="translate(-769 -284)">
    <path id="Path_11719" data-name="Path 11719" d="M785.222,284H774.7a.438.438,0,1,0,0,.877h10.084V305.57h-.877v-.439a.438.438,0,0,0-.877,0v.439h-11.4v-18.94h11.4v14.994a.438.438,0,0,0,.877,0V286.192a.438.438,0,0,0-.438-.438H771.192a.438.438,0,0,0-.438.438V305.57h-.877V284.877h1.315a.438.438,0,1,0,0-.877h-1.754a.438.438,0,0,0-.438.438v21.57a.438.438,0,0,0,.438.438h15.783a.438.438,0,0,0,.438-.438v-21.57a.438.438,0,0,0-.438-.438Zm0,0" fill="#fff"/>
    <path id="Path_11720" data-name="Path 11720" d="M1019,531.315a1.315,1.315,0,1,0,1.315-1.315,1.317,1.317,0,0,0-1.315,1.315Zm1.754,0a.438.438,0,1,1-.439-.438.439.439,0,0,1,.439.438Zm0,0" transform="translate(-239.036 -235.215)" fill="#fff"/>
    <path id="Path_11721" data-name="Path 11721" d="M909,386.192v12.8a.439.439,0,0,0,.438.438h3.507a.439.439,0,0,0,.438-.438v-12.8a2.192,2.192,0,0,0-4.384,0Zm.877,12.363v-6.4h2.631v6.4Zm2.631-12.363v5.086h-2.631v-5.086a1.315,1.315,0,0,1,2.631,0Zm0,0" transform="translate(-133.862 -95.616)" fill="#fff"/>
    <path id="Path_11722" data-name="Path 11722" d="M849.439,284.877a.438.438,0,0,0,0-.877h0a.438.438,0,1,0,0,.877Zm0,0" transform="translate(-76.493)" fill="#fff"/>
    <path id="Path_11723" data-name="Path 11723" d="M1089.438,716a.438.438,0,1,0,.438.439h0a.438.438,0,0,0-.438-.438Zm0,0" transform="translate(-305.971 -413.056)" fill="#fff"/>
  </g>
</svg>
