<svg xmlns="http://www.w3.org/2000/svg" width="25.665" height="21.012" viewBox="0 0 25.665 21.012">
  <g id="Group_12293" data-name="Group 12293" transform="translate(-1278.5 -288.499)">
    <path id="Path_11716" data-name="Path 11716" d="M1303.752,309.511h-24.839a.413.413,0,0,1-.412-.412V288.912a.413.413,0,0,1,.412-.412h24.839a.413.413,0,0,1,.412.412V309.1A.413.413,0,0,1,1303.752,309.511Zm-24.621-.631h24.4v-19.75h-24.4Z" transform="translate(0 0)" fill="#fff"/>
    <path id="Path_11717" data-name="Path 11717" d="M1331.734,337.112h-21.821a.413.413,0,0,1-.412-.412V319.412a.413.413,0,0,1,.412-.412h21.821a.413.413,0,0,1,.412.412V336.7A.413.413,0,0,1,1331.734,337.112Zm-21.6-.631h21.384V319.631h-21.384Z" transform="translate(-29.496 -29.02)" fill="#fff"/>
    <rect id="Rectangle_1265" data-name="Rectangle 1265" width="0.631" height="17.482" transform="translate(1291.017 290.295)" fill="#fff"/>
  </g>
</svg>
