<svg xmlns="http://www.w3.org/2000/svg" width="20.417" height="17.945" viewBox="0 0 20.417 17.945">
  <path id="Path_11718" data-name="Path 11718" d="M326.819,31h-2.393a2.988,2.988,0,0,0-2.393,1.2,2.988,2.988,0,0,0-2.393-1.2h-4.865a2.988,2.988,0,0,0-2.393,1.2,2.988,2.988,0,0,0-2.393-1.2H307.6a.6.6,0,0,0-.6.6V48.347a.6.6,0,1,0,1.2,0V46.552h3.589v1.794a.6.6,0,1,0,1.2,0V46.552h8.454v1.794a.6.6,0,1,0,1.2,0V46.552h3.589v1.794a.6.6,0,1,0,1.2,0V31.6A.6.6,0,0,0,326.819,31ZM308.2,40.571V36.982h18.025v3.589Zm16.23-8.374h1.794v3.589h-3.589V33.991A1.8,1.8,0,0,1,324.426,32.2Zm-4.785,0a1.8,1.8,0,0,1,1.794,1.794v1.794h-3.669V32.2Zm-4.865,0h1.794v3.589h-3.589V33.991A1.8,1.8,0,0,1,314.776,32.2Zm-4.785,0a1.8,1.8,0,0,1,1.794,1.794v1.794H308.2V32.2ZM308.2,41.767h3.589v3.589H308.2Zm4.785,3.589V41.767h3.589v3.589Zm4.785-3.589h3.669v3.589h-3.669Zm4.865,3.589V41.767h3.589v3.589Z" transform="translate(-307 -31)" fill="#fff"/>
</svg>
