<?xml version="1.0" encoding="utf-8"?>
<!-- Generator: Adobe Illustrator 22.1.0, SVG Export Plug-In . SVG Version: 6.00 Build 0)  -->
<svg version="1.1" id="Слой_1" xmlns="http://www.w3.org/2000/svg" xmlns:xlink="http://www.w3.org/1999/xlink" x="0px" y="0px"
	 width="160px" height="160px" viewBox="0 0 160 160" style="enable-background:new 0 0 160 160;" xml:space="preserve">
<style type="text/css">
	.st0{clip-path:url(#SVGID_2_);}
	.st1{fill:none;}
	.st2{fill:none;stroke:#707070;stroke-linecap:round;stroke-linejoin:round;}
	.st3{fill:none;stroke:#2D2D2D;stroke-width:2;stroke-linecap:round;stroke-linejoin:round;}
	.st4{fill:none;stroke:#2D2D2D;stroke-width:2;stroke-miterlimit:10;}
	.st5{fill:#3C3C3C;}
</style>
<g>
	<circle class="st3" cx="88" cy="64" r="22"/>
	<ellipse class="st3" cx="88" cy="64" rx="17" ry="22"/>
	<ellipse class="st3" cx="88" cy="64" rx="9" ry="22"/>
	<rect x="51" y="26" class="st3" width="73" height="76.1"/>
	<polyline class="st3" points="85,38 85,31 56,31 56,97 85,97 85,90 	"/>
	<polyline class="st3" points="90,90 90,97 119,97 119,31 90,31 90,38 	"/>
	<path class="st3" d="M11,132V27.5l0,0C11,18.4,18.9,11,28,11h121v105H27.5c-9.1,0-16.5,7.4-16.5,16.5l0,0c0,9.1,7.4,16.5,16.5,16.5
		H149v-33"/>
	<line class="st3" x1="102" y1="122" x2="149" y2="122"/>
	<line class="st3" x1="121" y1="128" x2="149" y2="128"/>
	<line class="st3" x1="115" y1="134" x2="149" y2="134"/>
	<line class="st3" x1="137" y1="140" x2="149" y2="140"/>
	<line class="st3" x1="27" y1="116" x2="27" y2="20"/>
	<line class="st3" x1="66" y1="64" x2="110" y2="64"/>
	<line class="st3" x1="71" y1="51" x2="105" y2="51"/>
	<line class="st3" x1="71" y1="78" x2="105" y2="78"/>
</g>
</svg>
