<?xml version="1.0" encoding="utf-8"?>
<!-- Generator: Adobe Illustrator 22.1.0, SVG Export Plug-In . SVG Version: 6.00 Build 0)  -->
<svg version="1.1" id="Слой_1" xmlns="http://www.w3.org/2000/svg" xmlns:xlink="http://www.w3.org/1999/xlink" x="0px" y="0px"
	 width="160px" height="160px" viewBox="0 0 160 160" style="enable-background:new 0 0 160 160;" xml:space="preserve">
<style type="text/css">
	.st0{clip-path:url(#SVGID_2_);}
	.st1{fill:none;}
	.st2{fill:none;stroke:#707070;stroke-linecap:round;stroke-linejoin:round;}
	.st3{fill:none;stroke:#2D2D2D;stroke-width:2;stroke-linecap:round;stroke-linejoin:round;}
	.st4{fill:none;stroke:#2D2D2D;stroke-width:2;stroke-miterlimit:10;}
	.st5{fill:#3C3C3C;}
</style>
<g>
	<rect x="11" y="26" class="st3" width="138" height="123"/>
	<polygon class="st3" points="149,26 11,26 25,17.4 18,11 144,11 138,16.7 	"/>
	<path class="st3" d="M94.8,51.3l-5.8,2.5c-1,0.4-2.1,0.2-2.8-0.5l-4.4-4.4c-1-1-2.6-1-3.6,0c0,0,0,0,0,0l-4.8,4.8
		c-0.7,0.7-1.8,1-2.8,0.6l-6.3-2.5"/>
	<path class="st3" d="M56.3,60.4H50c-1.4,0-2.6,1.2-2.6,2.6v6.8c0,1-0.6,2-1.6,2.4l-6.2,2.7c-1.3,0.6-1.9,2.1-1.4,3.4l2.5,5.8
		c0.4,1,0.2,2.1-0.5,2.8l-4.4,4.4c-1,1-1,2.6,0,3.6c0,0,0,0,0,0l4.8,4.8c0.7,0.7,1,1.8,0.6,2.8l-2.5,6.3c-0.5,1.3,0.1,2.8,1.4,3.3
		l5.8,2.3c1,0.4,1.6,1.3,1.6,2.4v6.3c0,1.4,1.2,2.6,2.6,2.6c0,0,0,0,0,0h6.8c1,0,2,0.6,2.4,1.6l2.7,6.2c0.6,1.3,2.1,1.9,3.4,1.4
		l5.8-2.4c1-0.4,2.1-0.2,2.8,0.6l4.4,4.4c1,1,2.6,1,3.6,0c0,0,0,0,0,0l4.8-4.8c0.7-0.7,1.8-1,2.8-0.6l6.3,2.5
		c1.3,0.5,2.8-0.1,3.3-1.4l2.3-5.8c0.4-1,1.3-1.6,2.4-1.6h6.3c1.4,0,2.6-1.2,2.6-2.6v-6.8c0-1,0.6-2,1.6-2.4l6.2-2.7
		c1.3-0.6,1.9-2.1,1.4-3.4l-2.4-5.8c-0.4-1-0.2-2.1,0.6-2.8l4.4-4.4c1-1,1-2.6,0-3.6c0,0,0,0,0,0l-4.8-4.8c-0.7-0.7-1-1.8-0.6-2.8
		l2.5-6.3c0.5-1.3-0.1-2.8-1.4-3.3l-5.8-2.3c-1-0.4-1.6-1.3-1.6-2.4V63c0-1.4-1.2-2.6-2.6-2.6c0,0,0,0,0,0h-6.8"/>
	<circle class="st3" cx="68" cy="82.6" r="8.6"/>
	<circle class="st3" cx="92" cy="106.5" r="8.6"/>
	<line class="st3" x1="97.1" y1="77.4" x2="62.9" y2="111.7"/>
	<path class="st3" d="M107,39c0,14.9-12.1,27-27,27S53,53.9,53,39"/>
	<path class="st3" d="M49,38c0-2.2,1.8-4,4-4s4,1.8,4,4"/>
	<path class="st3" d="M103.4,39.1c0-1.8,2-3.2,4.4-3.2s4.4,1.5,4.4,3.2"/>
	<line class="st3" x1="11" y1="143" x2="37" y2="143"/>
	<line class="st3" x1="123" y1="143" x2="149" y2="143"/>
	<line class="st3" x1="138" y1="17" x2="138" y2="24.2"/>
	<line class="st3" x1="25" y1="18.8" x2="25" y2="26"/>
	<line class="st3" x1="144" y1="11" x2="144" y2="21"/>
	<line class="st3" x1="18" y1="11" x2="18" y2="21"/>
</g>
</svg>
