<?xml version="1.0" encoding="utf-8"?>
<!-- Generator: Adobe Illustrator 22.1.0, SVG Export Plug-In . SVG Version: 6.00 Build 0)  -->
<svg version="1.1" id="Слой_1" xmlns="http://www.w3.org/2000/svg" xmlns:xlink="http://www.w3.org/1999/xlink" x="0px" y="0px"
	 width="160px" height="160px" viewBox="0 0 160 160" style="enable-background:new 0 0 160 160;" xml:space="preserve">
<style type="text/css">
	.st0{clip-path:url(#SVGID_2_);}
	.st1{fill:none;}
	.st2{fill:none;stroke:#707070;stroke-linecap:round;stroke-linejoin:round;}
	.st3{fill:none;stroke:#2D2D2D;stroke-width:2;stroke-linecap:round;stroke-linejoin:round;}
	.st4{fill:none;stroke:#2D2D2D;stroke-width:2;stroke-miterlimit:10;}
	.st5{fill:#3C3C3C;}
</style>
<g>
	<polyline class="st3" points="55,75 11,75 11,11 75,11 75,55 	"/>
	<polyline class="st3" points="85,55 85,11 149,11 149,75 105,75 	"/>
	<polyline class="st3" points="75,105 75,149 11,149 11,85 55,85 	"/>
	<polyline class="st3" points="105,85 149,85 149,149 85,149 85,105 	"/>
	<line class="st3" x1="43" y1="11" x2="43" y2="75"/>
	<line class="st3" x1="75" y1="43" x2="43" y2="43"/>
	<line class="st3" x1="149" y1="43" x2="85" y2="43"/>
	<line class="st3" x1="117" y1="75" x2="117" y2="43"/>
	<line class="st3" x1="11" y1="117" x2="75" y2="117"/>
	<line class="st3" x1="43" y1="85" x2="43" y2="117"/>
	<line class="st3" x1="117" y1="149" x2="117" y2="85"/>
	<line class="st3" x1="85" y1="117" x2="117" y2="117"/>
	<circle class="st4" cx="80" cy="80" r="25"/>
	<polygon class="st3" points="74,81 77,81 77,89 74,89 74,95 86,95 86,89 83,89 83,76 77,76 74,78 	"/>
	<circle class="st3" cx="79.5" cy="67.5" r="4.5"/>
</g>
</svg>
