<svg xmlns="http://www.w3.org/2000/svg" viewBox="0 0 15.112 13.453"><defs><style>.a{fill:#707070;}</style></defs><g transform="translate(0.025)"><path class="a" d="M11.809.686A1.383,1.383,0,0,0,10.617,0H4.441A1.375,1.375,0,0,0,3.249.686L.16,6.038a1.373,1.373,0,0,0,0,1.376l3.09,5.352a1.383,1.383,0,0,0,1.192.686h.919a.305.305,0,1,0,0-.611H4.441a.775.775,0,0,1-.663-.381L.688,7.109a.759.759,0,0,1,0-.765L3.778.992A.764.764,0,0,1,4.441.611h6.179a.775.775,0,0,1,.663.381l3.09,5.352a.775.775,0,0,1,0,.765l-3.09,5.352a.768.768,0,0,1-.663.381h-2.4a.305.305,0,1,0,0,.611h2.4a1.383,1.383,0,0,0,1.192-.686L14.9,7.414a1.373,1.373,0,0,0,0-1.376Z"/><path class="a" d="M63.851,62.073l2.719-4.708a.3.3,0,0,0,0-.305l-2.719-4.708a.3.3,0,0,0-.263-.151H58.148a.314.314,0,0,0-.266.151l-2.715,4.708a.3.3,0,0,0,0,.305l2.719,4.708a.3.3,0,0,0,.263.151h5.437A.307.307,0,0,0,63.851,62.073Zm-.44-.456H58.326L55.784,57.21l2.541-4.4h5.086l2.541,4.4Z" transform="translate(-53.339 -50.486)"/></g></svg>