<?xml version="1.0" encoding="utf-8"?>
<!-- Generator: Adobe Illustrator 22.1.0, SVG Export Plug-In . SVG Version: 6.00 Build 0)  -->
<svg version="1.1" id="Слой_1" xmlns="http://www.w3.org/2000/svg" xmlns:xlink="http://www.w3.org/1999/xlink" x="0px" y="0px"
	 width="20px" height="20px" viewBox="0 0 20 20" style="enable-background:new 0 0 20 20;" xml:space="preserve">
<style type="text/css">
	.st0{opacity:0.29;fill:#FFFFFF;}
	.st1{fill:#FFFFFF;}
	.st2{fill:#2D70E4;}
	.st3{fill:#343434;}
	.st4{fill:#4FB725;}
	.st5{fill:none;stroke:#FFFFFF;stroke-miterlimit:10;}
</style>
<g>
	<path id="Skype" class="st1" d="M19.2,11.4c0.1-0.5,0.1-1,0.1-1.4c0-5.1-4.2-9.3-9.3-9.3c-0.5,0-1,0-1.4,0.1C7.7,0.3,6.7,0,5.6,0
		C2.5,0,0,2.5,0,5.6c0,1.1,0.3,2.1,0.8,2.9C0.8,9,0.7,9.5,0.7,10c0,5.1,4.2,9.3,9.3,9.3c0.5,0,1,0,1.4-0.1c0.9,0.5,1.9,0.8,2.9,0.8
		c3.1,0,5.6-2.5,5.6-5.6C20,13.3,19.7,12.3,19.2,11.4z M14.4,14.2c-0.4,0.6-1,1-1.7,1.3C11.9,15.9,11,16,10,16
		c-1.2,0-2.3-0.2-3.1-0.7c-0.6-0.3-1-0.7-1.4-1.3c-0.4-0.5-0.5-1-0.5-1.5c0-0.3,0.1-0.6,0.3-0.8c0.2-0.2,0.5-0.3,0.8-0.3
		c0.3,0,0.5,0.1,0.7,0.2c0.2,0.2,0.4,0.4,0.5,0.7c0.2,0.4,0.3,0.7,0.5,0.9c0.2,0.2,0.4,0.4,0.8,0.6c0.3,0.2,0.8,0.2,1.3,0.2
		c0.7,0,1.3-0.2,1.8-0.5c0.5-0.3,0.7-0.7,0.7-1.2c0-0.4-0.1-0.7-0.4-0.9c-0.2-0.2-0.6-0.4-1-0.5c-0.4-0.1-0.9-0.3-1.6-0.4
		c-0.9-0.2-1.6-0.4-2.3-0.7C6.6,9.8,6.1,9.4,5.8,9c-0.4-0.5-0.5-1-0.5-1.7c0-0.6,0.2-1.2,0.6-1.7C6.2,5,6.7,4.6,7.5,4.4
		C8.2,4.1,9,4,10,4c0.8,0,1.4,0.1,2,0.3c0.6,0.2,1,0.4,1.4,0.7c0.4,0.3,0.6,0.6,0.8,0.9c0.2,0.3,0.3,0.6,0.3,1
		c0,0.3-0.1,0.6-0.3,0.8C13.9,7.9,13.6,8,13.3,8c-0.3,0-0.5-0.1-0.7-0.2c-0.2-0.1-0.3-0.4-0.5-0.7c-0.2-0.4-0.5-0.8-0.8-1
		C11,5.8,10.5,5.7,9.8,5.7c-0.6,0-1.2,0.1-1.6,0.4C7.9,6.4,7.7,6.7,7.7,7c0,0.2,0.1,0.4,0.2,0.6C8,7.8,8.2,7.9,8.4,8
		c0.2,0.1,0.5,0.2,0.7,0.3c0.2,0.1,0.6,0.2,1.2,0.3c0.7,0.2,1.3,0.3,1.9,0.5c0.6,0.2,1.1,0.4,1.5,0.7c0.4,0.3,0.7,0.6,1,1
		c0.2,0.4,0.3,0.9,0.3,1.5C15,13,14.8,13.7,14.4,14.2z"/>
</g>
</svg>
