<?xml version="1.0" encoding="utf-8"?>
<!-- Generator: Adobe Illustrator 22.1.0, SVG Export Plug-In . SVG Version: 6.00 Build 0)  -->
<svg version="1.1" id="Слой_1" xmlns="http://www.w3.org/2000/svg" xmlns:xlink="http://www.w3.org/1999/xlink" x="0px" y="0px"
	 width="160px" height="160px" viewBox="0 0 160 160" style="enable-background:new 0 0 160 160;" xml:space="preserve">
<style type="text/css">
	.st0{clip-path:url(#SVGID_2_);}
	.st1{fill:none;}
	.st2{fill:none;stroke:#707070;stroke-linecap:round;stroke-linejoin:round;}
	.st3{fill:none;stroke:#2D2D2D;stroke-width:2;stroke-linecap:round;stroke-linejoin:round;}
	.st4{fill:none;stroke:#2D2D2D;stroke-width:2;stroke-miterlimit:10;}
	.st5{fill:#3C3C3C;}
</style>
<g>
	<line class="st2" x1="138.5" y1="22.5" x2="138.5" y2="34.5"/>
	<line class="st2" x1="78.5" y1="21.5" x2="78.5" y2="46"/>
	<line class="st2" x1="145.5" y1="145.5" x2="145.5" y2="102.5"/>
	<line class="st2" x1="71.5" y1="145.5" x2="71.5" y2="102.5"/>
	<line class="st2" x1="136.5" y1="137.5" x2="120.5" y2="137.5"/>
	<line class="st2" x1="81.5" y1="145.5" x2="69.5" y2="145.5"/>
	<line class="st2" x1="70.5" y1="13.5" x2="88" y2="13.5"/>
	<rect x="68" y="11" class="st3" width="81" height="138"/>
	<polyline class="st3" points="82,78 82,25 135,25 135,135 82,135 82,83.4 	"/>
	<polyline class="st3" points="68,147 11,147 11,13 68,13 	"/>
	<polyline class="st3" points="68,137 23,137 23,23 68,23 	"/>
	<path class="st3" d="M79,86c0.1,1-0.7,1.9-1.8,2c-0.1,0-0.2,0-0.2,0h-4c-1,0.1-1.9-0.7-2-1.8c0-0.1,0-0.2,0-0.2V75
		c-0.1-1,0.7-1.9,1.8-2c0.1,0,0.2,0,0.2,0h4c1-0.1,1.9,0.7,2,1.8c0,0.1,0,0.2,0,0.2"/>
	<path class="st3" d="M75,80.9v-0.9c0-1.1,0.9-2.1,2.1-2.1h15.9c1.1,0,2.1,0.9,2.1,2.1v0.9c0,1.1-0.9,2.1-2.1,2.1H77.1
		C75.9,83,75,82.1,75,80.9z"/>
	<line class="st3" x1="82" y1="135" x2="69" y2="148"/>
	<line class="st3" x1="148" y1="148" x2="135" y2="135"/>
	<line class="st3" x1="135" y1="25" x2="148" y2="12"/>
	<line class="st3" x1="69" y1="12" x2="82" y2="25"/>
</g>
</svg>
