<?xml version="1.0" encoding="utf-8"?>
<!-- Generator: Adobe Illustrator 22.1.0, SVG Export Plug-In . SVG Version: 6.00 Build 0)  -->
<svg version="1.1" id="Слой_1" xmlns="http://www.w3.org/2000/svg" xmlns:xlink="http://www.w3.org/1999/xlink" x="0px" y="0px"
	 width="160px" height="160px" viewBox="0 0 160 160" style="enable-background:new 0 0 160 160;" xml:space="preserve">
<style type="text/css">
	.st0{clip-path:url(#SVGID_2_);}
	.st1{fill:none;}
	.st2{fill:none;stroke:#707070;stroke-linecap:round;stroke-linejoin:round;}
	.st3{fill:none;stroke:#2D2D2D;stroke-width:2;stroke-linecap:round;stroke-linejoin:round;}
	.st4{fill:none;stroke:#2D2D2D;stroke-width:2;stroke-miterlimit:10;}
	.st5{fill:#3C3C3C;}
</style>
<g>
	<line class="st3" x1="133" y1="20" x2="133" y2="12"/>
	<line class="st3" x1="141" y1="15" x2="141" y2="12"/>
	<line class="st3" x1="117" y1="20" x2="117" y2="12"/>
	<line class="st3" x1="125" y1="15" x2="125" y2="12"/>
	<line class="st3" x1="109" y1="15" x2="109" y2="12"/>
	<line class="st3" x1="43" y1="20" x2="43" y2="12"/>
	<line class="st3" x1="51" y1="15" x2="51" y2="12"/>
	<line class="st3" x1="27" y1="20" x2="27" y2="12"/>
	<line class="st3" x1="35" y1="15" x2="35" y2="12"/>
	<line class="st3" x1="19" y1="15" x2="19" y2="12"/>
	<path class="st3" d="M28,115h5.1c7.1,0,12.9,5.8,12.9,12.9c0,0,0,0,0,0v16.9c0,2.3-1.9,4.2-4.2,4.2H22.3c-6.3,0-11.3-5.1-11.3-11.3
		V132C11,122.6,18.6,115,28,115z"/>
	<polyline class="st3" points="39,149 145,149 145,144 46,144 	"/>
	<rect x="145" y="134" class="st3" width="4" height="15"/>
	<rect x="11" y="11" class="st4" width="138" height="26"/>
	<path class="st4" d="M58,11h43l0,0v0.2c0,6-4.8,10.8-10.8,10.8l0,0H68.8c-6,0-10.8-4.8-10.8-10.8c0,0,0,0,0,0V11L58,11z"/>
	<path class="st4" d="M77,11h6c1.7,0,3,1.3,3,3l0,0c0,1.7-1.3,3-3,3h-6c-1.7,0-3-1.3-3-3l0,0C74,12.3,75.3,11,77,11z"/>
	<path class="st3" d="M38,132c0,5.5-4.5,10-10,10v7"/>
	<path class="st3" d="M18,132c0-5.5,4.5-10,10-10"/>
	<circle class="st3" cx="28" cy="132" r="6"/>
	<path class="st4" d="M59.6,51h8.8c0.9,0,1.6,0.7,1.6,1.6v56.8c0,0.9-0.7,1.6-1.6,1.6h-8.8c-0.9,0-1.6-0.7-1.6-1.6V52.6
		C58,51.7,58.7,51,59.6,51z"/>
	<path class="st4" d="M56.5,111h15c0.8,0,1.5,0.7,1.5,1.5v2c0,0.8-0.7,1.5-1.5,1.5h-15c-0.8,0-1.5-0.7-1.5-1.5v-2
		C55,111.7,55.7,111,56.5,111z"/>
	<path class="st4" d="M123.5,115h19c2.5,0,4.5,2,4.5,4.5l0,0c0,2.5-2,4.5-4.5,4.5h-19c-2.5,0-4.5-2-4.5-4.5l0,0
		C119,117,121,115,123.5,115z"/>
	<polyline class="st4" points="116,82.9 122,115 143.4,115 137,83 	"/>
	<path class="st4" d="M94.4,83h44.9c5.5-0.1,9.8-4.5,9.8-10c0,0,0,0,0,0V58.4c0.1-5.1-4-9.3-9.1-9.4c0,0,0,0,0,0H72.5
		c-1.4,0-2.5,1.2-2.5,2.6c0,0,0,0,0,0V74L94.4,83z"/>
	<path class="st3" d="M111,83l-3.2,10.5c-0.3,1,0.3,2.1,1.3,2.4c0.2,0.1,0.4,0.1,0.6,0.1h8.4"/>
	<polygon class="st4" points="45,65 52,69 58,69 58,53 52,53 45,57 	"/>
	<polygon class="st3" points="11,63 45,63 45,59 13,59 	"/>
	<path class="st4" d="M85,55L85,55c1.1,0,2,0.9,2,2v12c0,1.1-0.9,2-2,2l0,0c-1.1,0-2-0.9-2-2V57C83,55.9,83.9,55,85,55z"/>
	<path class="st4" d="M93,55L93,55c1.1,0,2,0.9,2,2v12c0,1.1-0.9,2-2,2l0,0c-1.1,0-2-0.9-2-2V57C91,55.9,91.9,55,93,55z"/>
	<path class="st4" d="M101,55L101,55c1.1,0,2,0.9,2,2v12c0,1.1-0.9,2-2,2l0,0c-1.1,0-2-0.9-2-2V57C99,55.9,99.9,55,101,55z"/>
	<line class="st3" x1="28" y1="122" x2="28" y2="115"/>
</g>
</svg>
