<?xml version="1.0" encoding="utf-8"?>
<!-- Generator: Adobe Illustrator 22.1.0, SVG Export Plug-In . SVG Version: 6.00 Build 0)  -->
<svg version="1.1" id="Слой_1" xmlns="http://www.w3.org/2000/svg" xmlns:xlink="http://www.w3.org/1999/xlink" x="0px" y="0px"
	 width="160px" height="160px" viewBox="0 0 160 160" style="enable-background:new 0 0 160 160;" xml:space="preserve">
<style type="text/css">
	.st0{clip-path:url(#SVGID_2_);}
	.st1{fill:none;}
	.st2{fill:none;stroke:#707070;stroke-linecap:round;stroke-linejoin:round;}
	.st3{fill:none;stroke:#2D2D2D;stroke-width:2;stroke-linecap:round;stroke-linejoin:round;}
	.st4{fill:none;stroke:#2D2D2D;stroke-width:2;stroke-miterlimit:10;}
	.st5{fill:#3C3C3C;}
</style>
<g>
	<path class="st3" d="M23.6,117h-3.1c-5.2,0-9.5-4.3-9.5-9.5v-68c0-5.2,4.3-9.5,9.5-9.5h66.7"/>
	<path class="st3" d="M144,87v20.5c0,5.2-4.3,9.5-9.5,9.5H77"/>
	<path class="st3" d="M27,104h27c0.6,0,1,0.4,1,1v7c0,0.6-0.4,1-1,1H27c-0.6,0-1-0.4-1-1v-7C26,104.4,26.4,104,27,104z"/>
	<line class="st3" x1="30" y1="113" x2="30" y2="107"/>
	<line class="st3" x1="35" y1="113" x2="35" y2="109"/>
	<path class="st3" d="M27,122h27c0.6,0,1,0.4,1,1v7c0,0.6-0.4,1-1,1H27c-0.6,0-1-0.4-1-1v-7C26,122.4,26.4,122,27,122z"/>
	<line class="st3" x1="30" y1="131" x2="30" y2="125"/>
	<line class="st3" x1="35" y1="131" x2="35" y2="127"/>
	<path class="st3" d="M25,131h27c0.6,0,1,0.4,1,1v7c0,0.6-0.4,1-1,1H25c-0.6,0-1-0.4-1-1v-7C24,131.4,24.4,131,25,131z"/>
	<line class="st3" x1="28" y1="140" x2="28" y2="134"/>
	<line class="st3" x1="33" y1="140" x2="33" y2="136"/>
	<path class="st3" d="M25,113h27c0.6,0,1,0.4,1,1v7c0,0.6-0.4,1-1,1H25c-0.6,0-1-0.4-1-1v-7C24,113.4,24.4,113,25,113z"/>
	<line class="st3" x1="28" y1="122" x2="28" y2="116"/>
	<line class="st3" x1="33" y1="122" x2="33" y2="118"/>
	<path class="st3" d="M74,117c0.6,0,1,0.4,1,1v7c0,0.6-0.4,1-1,1H55"/>
	<line class="st3" x1="71" y1="117" x2="71" y2="123"/>
	<line class="st3" x1="66" y1="117" x2="66" y2="121"/>
	<path class="st3" d="M59,108h15c0.6,0,1-0.4,1-1v-7c0-0.6-0.4-1-1-1H47c-0.6,0-1,0.4-1,1v4"/>
	<line class="st3" x1="71" y1="99" x2="71" y2="105"/>
	<line class="st3" x1="66" y1="99" x2="66" y2="103"/>
	<path class="st3" d="M76,99H49c-0.6,0-1-0.4-1-1v-7c0-0.6,0.4-1,1-1h27c0.6,0,1,0.4,1,1v7C77,98.6,76.6,99,76,99z"/>
	<line class="st3" x1="73" y1="90" x2="73" y2="96"/>
	<line class="st3" x1="68" y1="90" x2="68" y2="94"/>
	<path class="st3" d="M58,108h18c0.6,0,1,0.4,1,1v7c0,0.6-0.4,1-1,1H56"/>
	<line class="st3" x1="73" y1="108" x2="73" y2="114"/>
	<line class="st3" x1="68" y1="108" x2="68" y2="112"/>
	<line class="st3" x1="12" y1="45" x2="87" y2="45"/>
	<line class="st3" x1="12" y1="65" x2="87" y2="65"/>
	<path class="st3" d="M90,21h56c1.7,0,3,1.3,3,3v56c0,1.7-1.3,3-3,3H90c-1.7,0-3-1.3-3-3V24C87,22.3,88.3,21,90,21z"/>
	<path class="st3" d="M94,26h47c1.1,0,2,0.9,2,2v9c0,1.1-0.9,2-2,2H94c-1.1,0-2-0.9-2-2v-9C92,26.9,92.9,26,94,26z"/>
	<path class="st3" d="M132,44h10c1.1,0,2,0.9,2,2v29c0,1.1-0.9,2-2,2h-10c-1.1,0-2-0.9-2-2V46C130,44.9,130.9,44,132,44z"/>
	<path class="st3" d="M113,44h10c1.1,0,2,0.9,2,2v10c0,1.1-0.9,2-2,2h-10c-1.1,0-2-0.9-2-2V46C111,44.9,111.9,44,113,44z"/>
	<path class="st3" d="M113,63h10c1.1,0,2,0.9,2,2v10c0,1.1-0.9,2-2,2h-10c-1.1,0-2-0.9-2-2V65C111,63.9,111.9,63,113,63z"/>
	<path class="st3" d="M94,44h10c1.1,0,2,0.9,2,2v10c0,1.1-0.9,2-2,2H94c-1.1,0-2-0.9-2-2V46C92,44.9,92.9,44,94,44z"/>
	<path class="st3" d="M94,63h10c1.1,0,2,0.9,2,2v10c0,1.1-0.9,2-2,2H94c-1.1,0-2-0.9-2-2V65C92,63.9,92.9,63,94,63z"/>
	<line class="st3" x1="133" y1="57" x2="141" y2="57"/>
	<line class="st3" x1="115" y1="51" x2="121" y2="51"/>
	<line class="st3" x1="96" y1="51" x2="102" y2="51"/>
	<line class="st3" x1="96" y1="70" x2="102" y2="70"/>
	<line class="st3" x1="99" y1="67" x2="99" y2="73"/>
	<line class="st3" x1="115.2" y1="67.2" x2="120.8" y2="72.8"/>
	<line class="st3" x1="115.2" y1="72.8" x2="120.8" y2="67.2"/>
	<line class="st3" x1="133" y1="61" x2="141" y2="61"/>
	<rect x="117" y="47" class="st5" width="2" height="2"/>
	<rect x="117" y="53" class="st5" width="2" height="2"/>
	<line class="st3" x1="11" y1="11" x2="77" y2="11"/>
	<line class="st3" x1="65" y1="149" x2="149" y2="149"/>
</g>
</svg>
