<?xml version="1.0" encoding="utf-8"?>
<!-- Generator: Adobe Illustrator 22.1.0, SVG Export Plug-In . SVG Version: 6.00 Build 0)  -->
<svg version="1.1" id="Слой_1" xmlns="http://www.w3.org/2000/svg" xmlns:xlink="http://www.w3.org/1999/xlink" x="0px" y="0px"
	 width="160px" height="160px" viewBox="0 0 160 160" style="enable-background:new 0 0 160 160;" xml:space="preserve">
<style type="text/css">
	.st0{clip-path:url(#SVGID_2_);}
	.st1{fill:none;}
	.st2{fill:none;stroke:#707070;stroke-linecap:round;stroke-linejoin:round;}
	.st3{fill:none;stroke:#2D2D2D;stroke-width:2;stroke-linecap:round;stroke-linejoin:round;}
	.st4{fill:none;stroke:#2D2D2D;stroke-width:2;stroke-miterlimit:10;}
	.st5{fill:#3C3C3C;}
</style>
<g>
	<rect x="21" y="11" class="st3" width="118" height="138"/>
	<line class="st3" x1="11" y1="149" x2="11" y2="83"/>
	<line class="st3" x1="149" y1="122" x2="149" y2="11"/>
	<line class="st3" x1="112" y1="111" x2="48" y2="111"/>
	<line class="st3" x1="112" y1="99" x2="48" y2="99"/>
	<path class="st3" d="M57.5,120h44c4.7,0,8.5,3.8,8.5,8.5l0,0c0,4.7-3.8,8.5-8.5,8.5h-44c-4.7,0-8.5-3.8-8.5-8.5l0,0
		C49,123.8,52.8,120,57.5,120z"/>
	<circle class="st3" cx="79" cy="47" r="30"/>
	<line class="st3" x1="125" y1="17" x2="133" y2="25"/>
	<line class="st3" x1="133" y1="17" x2="125" y2="25"/>
	<line class="st3" x1="88" y1="61" x2="88" y2="56"/>
	<line class="st3" x1="72" y1="56" x2="72" y2="61"/>
	<path class="st3" d="M99,67.5l-8.5-3.7"/>
	<path class="st3" d="M69.3,63.9l-10.1,4.4"/>
	<path class="st3" d="M83,77l-1.3-5.9c0.3-0.1,0.4-0.5,0.3-0.8c0,0,0,0,0-0.1V69h-4v1.3c-0.2,0.3-0.1,0.6,0.2,0.8c0,0,0.1,0,0.1,0
		L77,77"/>
	<path class="st3" d="M71.9,61.3l8.1,7.3c-1.8,1-3.5,2.1-5.1,3.5c-0.5,0.4-1.2,0.3-1.6-0.1c-0.1-0.1-0.1-0.2-0.2-0.3l-3.8-8.4
		l1.2-1.8c0.3-0.4,0.8-0.5,1.2-0.2C71.8,61.2,71.8,61.2,71.9,61.3z"/>
	<path class="st3" d="M88.1,61.3L80,68.6c1.8,1,3.5,2.1,5.1,3.5c0.5,0.4,1.2,0.3,1.6-0.1c0.1-0.1,0.1-0.2,0.2-0.3l3.8-8.4l-1.2-1.8
		c-0.3-0.4-0.8-0.5-1.2-0.2C88.2,61.2,88.2,61.2,88.1,61.3z"/>
	<path class="st3" d="M67.3,43.4c-0.5,0.5-0.7,1.2-0.6,1.8l1,4c0.1,0.6,0.7,0.9,1.3,0.8c0,0,0.1,0,0.1,0l0.1,1.1
		c0.1,1.6,0.9,3,2.1,4l3.7,2.8c0.9,0.7,2.1,1.1,3.2,1.1h3.6c1.2,0,2.3-0.4,3.2-1.1l3.7-2.8c1.3-1,2-2.4,2.1-4l0-1.2
		c0.5,0.2,1.2,0,1.4-0.6c0,0,0-0.1,0-0.1l1-4c0.2-0.8-0.1-1.6-0.7-2"/>
	<path class="st3" d="M87.4,35c2.7,1.6,3.2,6.5,3.2,8c0,0.3,0.1,0.6,0.3,0.9l1.4,2.2c0,0-0.5-3.7,1.8-6.2c0,0,0.6-10.8-5.2-11.7"/>
	<path class="st3" d="M69.3,27.1l1.3,0.9c-6,4.4-4.8,11.9-4.8,11.9c1.8,1.8,1.8,6.2,1.8,6.2l1.8-1.8c0,0-0.7-5.1,2.7-7.1
		c3.1-1.8,5.8-0.9,8.6-0.9c7.4,0,9.5-2.8,9.2-6.2c-0.2-1.8-2.9-5.5-9.8-5.3C77.2,24.8,72,25.7,69.3,27.1z"/>
	<line class="st3" x1="52" y1="95" x2="52" y2="86"/>
</g>
</svg>
