<?xml version="1.0" encoding="utf-8"?>
<!-- Generator: Adobe Illustrator 22.1.0, SVG Export Plug-In . SVG Version: 6.00 Build 0)  -->
<svg version="1.1" id="Слой_1" xmlns="http://www.w3.org/2000/svg" xmlns:xlink="http://www.w3.org/1999/xlink" x="0px" y="0px"
	 width="253px" height="253px" viewBox="0 0 253 253" style="enable-background:new 0 0 253 253;" xml:space="preserve">
<style type="text/css">
	.st0{opacity:6.000000e-02;}
	.st1{fill:#FFFFFF;}
</style>
<g class="st0">
	<path class="st1" d="M244.7,0.5h-0.9H140.3h-0.9c-4.7,0-8.6,3.8-8.6,8.6v104.4c0,4.7,3.8,8.6,8.6,8.6h0.9h103.4h0.9
		c4.7,0,8.6-3.8,8.6-8.6V9C253.2,4.3,249.4,0.5,244.7,0.5z M240.4,12.4v42.8h-96.6V12.4H240.4z M143.7,67.2h41.9V110h-41.9V67.2z
		 M198.5,110V67.2h41.9V110H198.5z"/>
	<path class="st1" d="M112.7,0H8.3C3.6,0-0.2,3.8-0.2,8.6v0.9v103.4v0.9c0,4.7,3.8,8.6,8.6,8.6h104.4c4.7,0,8.6-3.8,8.6-8.6v-0.9
		V9.5V8.6C121.2,3.8,117.4,0,112.7,0z M11.7,109.5V12.9h42.8v96.6H11.7z M66.5,54.8V12.9h42.8v41.9H66.5z M66.5,109.5V67.6h42.8
		v41.9H66.5z"/>
	<path class="st1" d="M112.7,131.5H8.3c-4.7,0-8.6,3.8-8.6,8.6v104.4c0,4.7,3.8,8.6,8.6,8.6h104.4c4.7,0,8.6-3.8,8.6-8.6V140.1
		C121.2,135.4,117.4,131.5,112.7,131.5z M109.3,186.3H66.5v-42.8h42.8V186.3z M54.5,143.5v42.8H11.7v-42.8H54.5z M11.7,241v-42.8
		h97.6V241H11.7z"/>
	<path class="st1" d="M244.2,131.5H139.9c-4.7,0-8.5,3.8-8.5,8.6v104.4c0,4.7,3.8,8.6,8.5,8.6h104.4c4.7,0,8.6-3.8,8.6-8.6V140.1
		C252.8,135.4,248.9,131.5,244.2,131.5z M186.1,143.5v42.8h-42.8v-42.8H186.1z M143.3,198.2h42.8V241h-42.8V198.2z M240.8,241H198
		v-97.6h42.8V241z"/>
</g>
</svg>
