<?xml version="1.0" encoding="utf-8"?>
<!-- Generator: Adobe Illustrator 22.1.0, SVG Export Plug-In . SVG Version: 6.00 Build 0)  -->
<svg version="1.1" id="Слой_1" xmlns="http://www.w3.org/2000/svg" xmlns:xlink="http://www.w3.org/1999/xlink" x="0px" y="0px"
	 width="18.6px" height="18px" viewBox="0 0 18.6 18" style="enable-background:new 0 0 18.6 18;" xml:space="preserve">
<style type="text/css">
	.st0{opacity:0.29;fill:#FFFFFF;}
	.st1{fill:#FFFFFF;}
	.st2{fill:#2D70E4;}
	.st3{fill:#343434;}
	.st4{fill:#4FB725;}
	.st5{fill:none;stroke:#FFFFFF;stroke-miterlimit:10;}
</style>
<g>
	<path class="st1" d="M18.4,8.8c0.3-0.4,0.3-0.9-0.1-1.3L10,0.2c-0.4-0.3-1-0.3-1.4,0L0.3,7.9c-0.4,0.3-0.4,0.9,0,1.3l0.2,0.2
		c0.3,0.4,0.9,0.4,1.3,0.1l0.6-0.6v8.2c0,0.5,0.4,0.9,0.9,0.9h3.3c0.5,0,0.9-0.4,0.9-0.9v-5.7h4.1v5.7c0,0.5,0.4,0.9,0.9,0.9h3.4
		c0.5,0,0.9-0.4,0.9-0.9V9c0,0,0.2,0.2,0.4,0.3c0.2,0.2,0.7,0,1-0.3L18.4,8.8z"/>
</g>
</svg>
