<?xml version="1.0" encoding="utf-8"?>
<!-- Generator: Adobe Illustrator 22.1.0, SVG Export Plug-In . SVG Version: 6.00 Build 0)  -->
<svg version="1.1" id="Слой_1" xmlns="http://www.w3.org/2000/svg" xmlns:xlink="http://www.w3.org/1999/xlink" x="0px" y="0px"
	 width="22px" height="21.8px" viewBox="0 0 22 21.8" style="enable-background:new 0 0 22 21.8;" xml:space="preserve">
<style type="text/css">
	.st0{opacity:0.29;fill:#FFFFFF;}
	.st1{fill:#FFFFFF;}
	.st2{fill:#2D70E4;}
	.st3{fill:#343434;}
	.st4{fill:#4FB725;}
	.st5{fill:none;stroke:#FFFFFF;stroke-miterlimit:10;}
</style>
<g>
	<g>
		<path class="st1" d="M20.7,12.7c-0.7-0.8-1.7-1.2-2.8-1.3c0.9-0.8,1.5-2,1.5-3.3c0-2.5-2-4.5-4.5-4.5c-2.4,0-4.3,1.8-4.4,4.1
			c2.1,0.9,3.6,3,3.6,5.4c0,0.9-0.2,1.7-0.6,2.5c0.5,0.3,1,0.6,1.5,1.1c1.1,1.1,1.7,2.7,1.7,4.2l0,0l0,0l0,0.7H22l0-5.9
			C22,14.7,21.5,13.6,20.7,12.7z"/>
		<path class="st1" d="M11.1,16.5c0.9-0.8,1.5-2,1.5-3.3c0-2.5-2-4.5-4.5-4.5c-2.5,0-4.5,2-4.5,4.5c0,1.3,0.6,2.5,1.5,3.3
			C2.8,16.7,1,18.6,1,20.9l0,0.9h6.8h7.5l0-0.8c0-1.2-0.5-2.4-1.3-3.2C13.2,17,12.2,16.6,11.1,16.5z"/>
		<path class="st1" d="M2.9,5.4V7c0,0.7,0.6,1.2,1.2,1.2c0.7,0,1.2-0.6,1.2-1.2V5.4H7c0.7,0,1.2-0.6,1.2-1.2c0-0.7-0.6-1.2-1.2-1.2
			H5.4V1.2C5.4,0.6,4.8,0,4.1,0C3.4,0,2.9,0.6,2.9,1.2v1.6H1.2C0.6,2.9,0,3.4,0,4.1c0,0.7,0.6,1.2,1.2,1.2L2.9,5.4L2.9,5.4z"/>
	</g>
</g>
</svg>
