<?xml version="1.0" encoding="utf-8"?>
<!-- Generator: Adobe Illustrator 22.1.0, SVG Export Plug-In . SVG Version: 6.00 Build 0)  -->
<svg version="1.1" id="Слой_1" xmlns="http://www.w3.org/2000/svg" xmlns:xlink="http://www.w3.org/1999/xlink" x="0px" y="0px"
	 width="24.3px" height="31px" viewBox="0 0 24.3 31" style="enable-background:new 0 0 24.3 31;" xml:space="preserve">
<style type="text/css">
	.st0{fill:#FFFFFF;}
	.st1{fill:#2E2E2E;}
	.st2{opacity:0.5;fill:#2E2E2E;}
	.st3{opacity:0.5;}
	.st4{fill:#005ED8;}
</style>
<path class="st4" d="M0,15.5c0-4.9,0-9.8,0-14.8c0-0.1,0-0.2,0-0.3C0,0.2,0.2,0,0.4,0c0.3,0,0.5,0.2,0.5,0.4c0,0.3,0,0.5,0,0.8
	c0,0.3,0.1,0.4,0.4,0.4c0.1,0,0.2,0,0.3,0c7.3,0,14.6,0,21.9,0c0.1,0,0.2,0,0.3,0c0.3,0,0.5,0.2,0.5,0.5c0,0.2,0,0.3,0,0.5
	c0,5.3,0,10.5,0,15.8c0,0.6-0.1,0.7-0.7,0.7c-7.3,0-14.7,0-22,0c-0.1,0-0.2,0-0.3,0c-0.2,0-0.3,0.1-0.3,0.3c0,0.2,0,0.3,0,0.5
	c0,3.5,0,7,0,10.6c0,0.4-0.1,0.6-0.4,0.6C0.2,31,0,30.9,0,30.6c0-0.1,0-0.2,0-0.4C0,25.3,0,20.4,0,15.5z M12.1,18.1
	c3.6,0,7.2,0,10.8,0c0.5,0,0.5,0,0.5-0.4c0-4.9,0-9.9,0-14.8c0-0.4,0-0.4-0.4-0.4c-7.2,0-14.4,0-21.5,0c-0.5,0-0.5,0-0.5,0.4
	c0,4.9,0,9.9,0,14.8c0,0.5,0,0.5,0.4,0.5C5,18.1,8.5,18.1,12.1,18.1z"/>
</svg>
