<?xml version="1.0" encoding="utf-8"?>
<!-- Generator: Adobe Illustrator 22.1.0, SVG Export Plug-In . SVG Version: 6.00 Build 0)  -->
<svg version="1.1" id="Слой_1" xmlns="http://www.w3.org/2000/svg" xmlns:xlink="http://www.w3.org/1999/xlink" x="0px" y="0px"
	 width="31px" height="29.7px" viewBox="0 0 31 29.7" style="enable-background:new 0 0 31 29.7;" xml:space="preserve">
<style type="text/css">
	.st0{fill:#FFFFFF;}
	.st1{fill:#2E2E2E;}
	.st2{opacity:0.5;fill:#2E2E2E;}
	.st3{opacity:0.5;}
	.st4{fill:#005ED8;}
</style>
<path class="st4" d="M31,12c0,0.6-0.3,1.1-0.7,1.6c-1.7,1.7-3.4,3.4-5.2,5c-0.4,0.4-0.5,0.8-0.4,1.3c0.4,2.3,0.8,4.7,1.2,7
	c0.2,1.2-0.2,2.1-1.2,2.5c-0.7,0.3-1.3,0.3-2,0c-1.6-0.8-3.2-1.7-4.8-2.5c-0.6-0.3-1.2-0.6-1.8-0.9c-0.4-0.2-0.8-0.2-1.3,0
	c-2.2,1.1-4.3,2.3-6.5,3.4c-1.4,0.8-2.9-0.1-3.2-1.3c-0.2-0.5,0-1,0-1.5C5.6,24.3,6,22,6.4,19.7c0.1-0.4-0.1-0.8-0.4-1.1
	c-1.4-1.3-2.8-2.7-4.1-4c-0.3-0.3-0.7-0.7-1-1c-0.7-0.7-1-1.5-0.7-2.4c0.3-0.9,1.1-1.4,2-1.5c1.7-0.2,3.3-0.5,5-0.7
	c0.7-0.1,1.4-0.2,2.2-0.3c0.5-0.1,0.8-0.3,1-0.7c1.1-2.2,2.1-4.3,3.2-6.5C13.8,0.6,14.5,0,15.5,0c0.8,0,1.4,0.4,1.8,1
	c0.2,0.3,0.4,0.7,0.5,1.1c0.9,1.9,1.9,3.7,2.8,5.6c0.3,0.6,0.7,0.9,1.4,1c2.2,0.3,4.3,0.6,6.5,0.9c0.3,0,0.6,0.1,0.9,0.2
	C30.4,10,31,10.9,31,12z M6.2,27.4c0,0.8,0.7,1.4,1.4,1.1c0.2-0.1,0.4-0.2,0.5-0.3c2.1-1.1,4.1-2.2,6.2-3.3c0.7-0.4,1.5-0.4,2.2,0
	c0.9,0.5,1.8,1,2.7,1.4c1.3,0.7,2.5,1.3,3.8,2c0.4,0.2,0.8,0.2,1.2-0.1c0.4-0.3,0.5-0.6,0.4-1.1c-0.4-2.3-0.8-4.6-1.2-6.9
	c-0.1-0.4-0.1-0.8-0.1-1.2c0-0.6,0.3-1,0.7-1.4c1.8-1.7,3.5-3.4,5.2-5.1c0.3-0.3,0.5-0.7,0.3-1.2c-0.2-0.4-0.5-0.6-1-0.7
	c-1.1-0.1-2.1-0.3-3.1-0.5c-1.3-0.2-2.6-0.4-3.9-0.6c-1-0.1-1.6-0.6-2.1-1.4c-0.4-0.9-0.9-1.9-1.4-2.8c-0.6-1.2-1.2-2.5-1.8-3.7
	c-0.3-0.5-0.6-0.7-1.1-0.7c-0.5,0-0.7,0.3-0.9,0.7c-1.1,2.2-2.1,4.3-3.2,6.5c-0.4,0.8-0.9,1.3-1.8,1.4C9.1,9.8,8.7,9.9,8.3,9.9
	c-2,0.3-4.1,0.6-6.1,0.9c-0.5,0.1-0.8,0.2-1,0.7c-0.2,0.5,0,0.9,0.3,1.2c0.5,0.5,1,1,1.5,1.5c1.3,1.3,2.6,2.5,3.8,3.8
	c0.5,0.5,0.8,1.1,0.7,1.7c-0.3,1.9-0.6,3.9-1,5.8C6.5,26.1,6.3,26.8,6.2,27.4z"/>
</svg>
