<svg xmlns="http://www.w3.org/2000/svg" width="56" height="56" viewBox="0 0 56 56">
  <g id="Group_12244" data-name="Group 12244" transform="translate(-655.021 8)" opacity="0.149">
    <path id="Path_19329" data-name="Path 19329" d="M709.927,24.7h-12.36V8.064h.6a1.094,1.094,0,1,0,0-2.187h-.617A14.564,14.564,0,0,0,683.021-8h0A14.564,14.564,0,0,0,668.49,5.877h-.617a1.094,1.094,0,0,0,0,2.188h.6V19.846h0V24.7H656.115a1.094,1.094,0,0,0-1.094,1.094V46.906A1.094,1.094,0,0,0,656.115,48h53.813a1.094,1.094,0,0,0,1.094-1.094V25.793A1.094,1.094,0,0,0,709.927,24.7Zm-1.094,14.55h-4.539V26.887h4.539Zm-6.726-12.363V39.25h-4.539V26.887ZM684.115,39.25V26.887h4.539V39.25Zm-6.727,0V26.887h4.539V39.25Zm-6.726,0V26.887H675.2V39.25Zm20.18-12.363h4.539V39.25h-4.539ZM695.38,24.7h-9.719l7.635-7.635a1.094,1.094,0,0,0-1.547-1.547l-7.635,7.634v-9.6h0V8.064h7.641l-2.08,2.08a1.094,1.094,0,1,0,1.547,1.547l3.627-3.627h.531V24.7ZM681.927,5.877h-5.278A6.481,6.481,0,0,1,681.927.6ZM684.115.6a6.48,6.48,0,0,1,5.278,5.278h-5.278Zm11.247,5.278H691.6a8.668,8.668,0,0,0-7.488-7.488V-5.764A12.378,12.378,0,0,1,695.362,5.877ZM681.927-5.764v4.152a8.668,8.668,0,0,0-7.488,7.488H670.68A12.378,12.378,0,0,1,681.927-5.764ZM670.662,20.3l3.627-3.627a1.094,1.094,0,1,0-1.547-1.547l-2.08,2.08V8.064h11.266V13.1l-5.278,5.278a1.094,1.094,0,1,0,1.547,1.547l3.732-3.732v8.5H670.662ZM668.474,39.25h-4.539V26.887h4.539ZM657.208,26.887h4.539V39.25h-4.539Zm51.625,18.925H657.208V41.437h51.625v4.375Z" fill="#fff"/>
    <path id="Path_19330" data-name="Path 19330" d="M836.315,181.887a1.094,1.094,0,0,0-1.556-1.538l-.018.018a1.094,1.094,0,1,0,1.556,1.538Z" transform="translate(-159.782 -167.459)" fill="#fff"/>
    <path id="Path_19331" data-name="Path 19331" d="M948.792,175.6l-.018.018a1.094,1.094,0,1,0,1.547,1.547l.018-.018a1.094,1.094,0,1,0-1.547-1.547Z" transform="translate(-261.338 -163.23)" fill="#fff"/>
  </g>
</svg>
