<svg xmlns="http://www.w3.org/2000/svg" width="37.442" height="37.442" viewBox="0 0 37.442 37.442">
  <path id="Path_19329" data-name="Path 19329" d="M691.732,13.863h-8.264V2.741h.4a.731.731,0,1,0,0-1.463h-.412A9.738,9.738,0,0,0,673.742-8h0a9.738,9.738,0,0,0-9.715,9.278h-.413a.731.731,0,1,0,0,1.463h.4v7.877h0v3.245h-8.264a.731.731,0,0,0-.731.731V28.711a.731.731,0,0,0,.731.731h35.98a.731.731,0,0,0,.731-.731V14.595A.731.731,0,0,0,691.732,13.863ZM691,23.592h-3.035V15.326H691Zm-4.5-8.266v8.266h-3.035V15.326Zm-12.03,8.266V15.326h3.035v8.266Zm-4.5,0V15.326h3.035v8.266Zm-4.5,0V15.326h3.035v8.266Zm13.492-8.266h3.035v8.266h-3.035Zm3.035-1.463h-6.5l5.1-5.1a.731.731,0,0,0-1.034-1.034l-5.1,5.1V6.414h0V2.741h5.109l-1.391,1.391a.731.731,0,1,0,1.034,1.034l2.425-2.425h.355V13.863ZM673.011,1.278h-3.529a4.333,4.333,0,0,1,3.529-3.529Zm1.463-3.529A4.333,4.333,0,0,1,678,1.278h-3.529Zm7.52,3.529H679.48a5.8,5.8,0,0,0-5.007-5.007V-6.5A8.276,8.276,0,0,1,681.993,1.278ZM673.011-6.5v2.776A5.8,5.8,0,0,0,668,1.278h-2.513A8.276,8.276,0,0,1,673.011-6.5Zm-7.532,17.426L667.9,8.5a.731.731,0,0,0-1.034-1.034l-1.391,1.391V2.741h7.532v3.37L669.482,9.64a.731.731,0,0,0,1.034,1.034l2.495-2.495v5.684h-7.532Zm-1.463,12.671h-3.035V15.326h3.035Zm-7.532-8.266h3.035v8.266h-3.035ZM691,27.98H656.484V25.055H691V27.98Z" transform="translate(-655.021 8)" fill="#fff"/>
</svg>
