<svg id="Group_14567" data-name="Group 14567" xmlns="http://www.w3.org/2000/svg" width="23" height="23" viewBox="0 0 23 23">
  <path id="Path_19329" data-name="Path 19329" d="M677.572,5.43H672.5V-1.4h.247a.449.449,0,0,0,.449-.449.449.449,0,0,0-.449-.449h-.253A5.982,5.982,0,0,0,666.521-8h0a5.982,5.982,0,0,0-5.968,5.7H660.3a.449.449,0,0,0-.449.449.449.449,0,0,0,.449.449h.247V3.437h0V5.43H655.47a.449.449,0,0,0-.449.449v8.671a.449.449,0,0,0,.449.449h22.1a.449.449,0,0,0,.449-.449V5.879A.449.449,0,0,0,677.572,5.43Zm-.449,5.976h-1.864V6.329h1.864ZM674.36,6.329v5.078H672.5V6.329Zm-7.39,5.078V6.329h1.864v5.078Zm-2.763,0V6.329h1.864v5.078Zm-2.763,0V6.329h1.864v5.078Zm8.288-5.078H671.6v5.078h-1.864Zm1.864-.9h-3.992l3.136-3.136a.449.449,0,0,0-.635-.635L666.97,4.795V.854h0V-1.4h3.138l-.854.854a.449.449,0,0,0,0,.635.448.448,0,0,0,.318.132.448.448,0,0,0,.318-.132l1.49-1.49h.218V5.43ZM666.072-2.3H663.9a2.662,2.662,0,0,1,2.168-2.168Zm.9-2.168A2.662,2.662,0,0,1,669.138-2.3H666.97ZM671.59-2.3h-1.544a3.56,3.56,0,0,0-3.075-3.076V-7.081A5.084,5.084,0,0,1,671.59-2.3Zm-5.518-4.781v1.705A3.56,3.56,0,0,0,663-2.3h-1.544A5.084,5.084,0,0,1,666.072-7.081Zm-4.627,10.7,1.489-1.49A.449.449,0,0,0,662.3,1.5l-.854.854V-1.4h4.627V.668L663.9,2.836a.449.449,0,1,0,.635.635l1.533-1.533V5.43h-4.627Zm-.9,7.783h-1.864V6.329h1.864Zm-4.627-5.078h1.864v5.078h-1.864Zm21.2,7.773h-21.2V12.3h21.2v1.8Z" transform="translate(-655.021 8)" fill="#707070"/>
  <path id="Path_19330" data-name="Path 19330" d="M835.2,180.789a.449.449,0,0,0-.639-.632l-.008.008a.449.449,0,0,0,.639.632Z" transform="translate(-826.366 -171.578)" fill="#707070"/>
  <path id="Path_19331" data-name="Path 19331" d="M948.592,175.408l-.008.008a.449.449,0,1,0,.635.635l.008-.007a.449.449,0,0,0-.635-.635Z" transform="translate(-935.272 -167.043)" fill="#707070"/>
</svg>
