<?xml version="1.0" encoding="utf-8"?>
<!-- Generator: Adobe Illustrator 23.0.1, SVG Export Plug-In . SVG Version: 6.00 Build 0)  -->
<!DOCTYPE svg PUBLIC "-//W3C//DTD SVG 1.1//EN" "http://www.w3.org/Graphics/SVG/1.1/DTD/svg11.dtd" [
	<!ENTITY ns_extend "http://ns.adobe.com/Extensibility/1.0/">
	<!ENTITY ns_ai "http://ns.adobe.com/AdobeIllustrator/10.0/">
	<!ENTITY ns_graphs "http://ns.adobe.com/Graphs/1.0/">
	<!ENTITY ns_vars "http://ns.adobe.com/Variables/1.0/">
	<!ENTITY ns_imrep "http://ns.adobe.com/ImageReplacement/1.0/">
	<!ENTITY ns_sfw "http://ns.adobe.com/SaveForWeb/1.0/">
	<!ENTITY ns_custom "http://ns.adobe.com/GenericCustomNamespace/1.0/">
	<!ENTITY ns_adobe_xpath "http://ns.adobe.com/XPath/1.0/">
]>
<svg version="1.1" id="Layer_1" xmlns:x="&ns_extend;" xmlns:i="&ns_ai;" xmlns:graph="&ns_graphs;"
	 xmlns="http://www.w3.org/2000/svg" xmlns:xlink="http://www.w3.org/1999/xlink" x="0px" y="0px" viewBox="0 0 1838.1 3390.3"
	 style="enable-background:new 0 0 1838.1 3390.3;" xml:space="preserve">
<style type="text/css">
	.st0{fill:none;stroke:#FFFFFF;stroke-width:2;stroke-linecap:round;stroke-linejoin:round;}
</style>
<metadata>
	<sfw  xmlns="&ns_sfw;">
		<slices></slices>
		<sliceSourceBounds  bottomLeftOrigin="true" height="3390.3" width="1838.1" x="581" y="304.9"></sliceSourceBounds>
	</sfw>
</metadata>
<line class="st0" x1="42.9" y1="3334.3" x2="843.2" y2="3334.3"/>
<line class="st0" x1="42.9" y1="1771" x2="42.9" y2="3334.3"/>
<line class="st0" x1="42.9" y1="56" x2="843.2" y2="56"/>
<line class="st0" x1="42.9" y1="1619.3" x2="42.9" y2="56"/>
<line class="st0" x1="1795.2" y1="3334.3" x2="994.8" y2="3334.3"/>
<line class="st0" x1="1795.2" y1="1771" x2="1795.2" y2="3334.3"/>
<line class="st0" x1="1795.2" y1="56" x2="994.8" y2="56"/>
<line class="st0" x1="1795.2" y1="1619.3" x2="1795.2" y2="56"/>
<line class="st0" x1="8.6" y1="1771" x2="8.6" y2="3375.2"/>
<line class="st0" x1="843.2" y1="3375.2" x2="8.6" y2="3375.2"/>
<line class="st0" x1="8.6" y1="15.1" x2="8.6" y2="1619.3"/>
<line class="st0" x1="843.2" y1="15.1" x2="8.6" y2="15.1"/>
<line class="st0" x1="1829.5" y1="3375.2" x2="1829.5" y2="1771"/>
<line class="st0" x1="994.8" y1="3375.2" x2="1829.5" y2="3375.2"/>
<line class="st0" x1="1829.5" y1="1619.3" x2="1829.5" y2="15.1"/>
<line class="st0" x1="994.8" y1="15.1" x2="1829.5" y2="15.1"/>
<line class="st0" x1="26.8" y1="3356.4" x2="843.2" y2="3356.4"/>
<line class="st0" x1="26.8" y1="1771" x2="26.8" y2="3356.4"/>
<line class="st0" x1="26.8" y1="34" x2="843.2" y2="34"/>
<line class="st0" x1="26.8" y1="1619.3" x2="26.8" y2="34"/>
<line class="st0" x1="1811.2" y1="3356.4" x2="994.8" y2="3356.4"/>
<line class="st0" x1="1811.2" y1="1771" x2="1811.2" y2="3356.4"/>
<line class="st0" x1="1811.2" y1="34" x2="994.8" y2="34"/>
<line class="st0" x1="1811.2" y1="1619.3" x2="1811.2" y2="34"/>
<line class="st0" x1="847.8" y1="1766.3" x2="848" y2="1766.1"/>
<line class="st0" x1="843.5" y1="1770.6" x2="843.2" y2="1771"/>
<line class="st0" x1="843.5" y1="1770.6" x2="847.8" y2="1766.3"/>
<line class="st0" x1="847.8" y1="1766.3" x2="848" y2="1766.1"/>
<line class="st0" x1="843.5" y1="1770.6" x2="843.2" y2="1771"/>
<line class="st0" x1="843.5" y1="1770.6" x2="847.8" y2="1766.3"/>
<line class="st0" x1="847.8" y1="1624" x2="848.1" y2="1624.2"/>
<line class="st0" x1="843.5" y1="1619.7" x2="843.2" y2="1619.3"/>
<line class="st0" x1="843.5" y1="1619.7" x2="847.8" y2="1624"/>
<line class="st0" x1="847.8" y1="1624" x2="848.1" y2="1624.2"/>
<line class="st0" x1="843.5" y1="1619.7" x2="843.2" y2="1619.3"/>
<line class="st0" x1="843.5" y1="1619.7" x2="847.8" y2="1624"/>
<line class="st0" x1="6.4" y1="1624.2" x2="6.5" y2="1624"/>
<line class="st0" x1="7" y1="1619.3" x2="843.2" y2="1619.3"/>
<line class="st0" x1="6.9" y1="1619.7" x2="6.5" y2="1624"/>
<line class="st0" x1="6.9" y1="1619.7" x2="7" y2="1619.3"/>
<line class="st0" x1="6.4" y1="1766.1" x2="6.5" y2="1766.3"/>
<line class="st0" x1="7" y1="1771" x2="843.2" y2="1771"/>
<line class="st0" x1="6.9" y1="1770.6" x2="6.5" y2="1766.3"/>
<line class="st0" x1="6.9" y1="1770.6" x2="7" y2="1771"/>
<line class="st0" x1="1831.7" y1="1624.2" x2="1831.7" y2="1624"/>
<line class="st0" x1="1831.1" y1="1619.3" x2="994.8" y2="1619.3"/>
<line class="st0" x1="1831.2" y1="1619.7" x2="1831.7" y2="1624"/>
<line class="st0" x1="1831.2" y1="1619.7" x2="1831.1" y2="1619.3"/>
<line class="st0" x1="1831.7" y1="1766.1" x2="1831.7" y2="1766.3"/>
<line class="st0" x1="1831.1" y1="1771" x2="994.8" y2="1771"/>
<line class="st0" x1="1831.2" y1="1770.6" x2="1831.7" y2="1766.3"/>
<line class="st0" x1="1831.2" y1="1770.6" x2="1831.1" y2="1771"/>
<line class="st0" x1="848.1" y1="3379.3" x2="847.8" y2="3379.2"/>
<line class="st0" x1="843.2" y1="3378.2" x2="843.2" y2="1771"/>
<line class="st0" x1="843.5" y1="3378.4" x2="847.8" y2="3379.2"/>
<line class="st0" x1="843.5" y1="3378.4" x2="843.2" y2="3378.2"/>
<line class="st0" x1="990" y1="3379.3" x2="990.2" y2="3379.2"/>
<line class="st0" x1="994.8" y1="3378.2" x2="994.8" y2="1771"/>
<line class="st0" x1="994.5" y1="3378.4" x2="990.2" y2="3379.2"/>
<line class="st0" x1="994.5" y1="3378.4" x2="994.8" y2="3378.2"/>
<line class="st0" x1="848.1" y1="11" x2="847.8" y2="11.1"/>
<line class="st0" x1="843.2" y1="12.1" x2="843.2" y2="1619.3"/>
<line class="st0" x1="843.5" y1="11.9" x2="847.8" y2="11.1"/>
<line class="st0" x1="843.5" y1="11.9" x2="843.2" y2="12.1"/>
<line class="st0" x1="990" y1="11" x2="990.2" y2="11.1"/>
<line class="st0" x1="994.8" y1="12.1" x2="994.8" y2="1619.3"/>
<line class="st0" x1="994.5" y1="11.9" x2="990.2" y2="11.1"/>
<line class="st0" x1="994.5" y1="11.9" x2="994.8" y2="12.1"/>
<line class="st0" x1="1.1" y1="1627" x2="1" y2="1628.4"/>
<line class="st0" x1="1.2" y1="1625.9" x2="1.1" y2="1627"/>
<line class="st0" x1="1.4" y1="1625" x2="1.2" y2="1625.9"/>
<line class="st0" x1="1.5" y1="1624.4" x2="1.4" y2="1625"/>
<line class="st0" x1="1.7" y1="1624.2" x2="1.5" y2="1624.4"/>
<line class="st0" x1="1" y1="1629.9" x2="1" y2="1628.4"/>
<line class="st0" x1="1.4" y1="1765.4" x2="1.5" y2="1766"/>
<line class="st0" x1="1.2" y1="1764.5" x2="1.4" y2="1765.4"/>
<line class="st0" x1="1.1" y1="1763.4" x2="1.2" y2="1764.5"/>
<line class="st0" x1="1" y1="1762" x2="1.1" y2="1763.4"/>
<line class="st0" x1="1" y1="1760.6" x2="1" y2="1629.9"/>
<line class="st0" x1="1" y1="1760.6" x2="1" y2="1762"/>
<line class="st0" x1="1.7" y1="1766.1" x2="1.5" y2="1766"/>
<line class="st0" x1="848.1" y1="1762.6" x2="848.1" y2="1762.3"/>
<line class="st0" x1="848.1" y1="1762.7" x2="848.1" y2="1762.6"/>
<line class="st0" x1="848.1" y1="1761.9" x2="848.1" y2="1762.3"/>
<line class="st0" x1="848.1" y1="1628" x2="848.1" y2="1627.7"/>
<line class="st0" x1="848.1" y1="1628.5" x2="848.1" y2="1761.9"/>
<line class="st0" x1="848.1" y1="1628.5" x2="848.1" y2="1628"/>
<line class="st0" x1="848.1" y1="1627.6" x2="848.1" y2="1627.7"/>
<line class="st0" x1="848.1" y1="1624.2" x2="1.7" y2="1624.2"/>
<line class="st0" x1="848.1" y1="1624.2" x2="848.1" y2="1624.2"/>
<line class="st0" x1="848.1" y1="1766.1" x2="1.7" y2="1766.1"/>
<line class="st0" x1="848.1" y1="1766.1" x2="848.1" y2="1766.1"/>
<line class="st0" x1="1837" y1="1627" x2="1837.1" y2="1628.4"/>
<line class="st0" x1="1836.9" y1="1625.9" x2="1837" y2="1627"/>
<line class="st0" x1="1836.7" y1="1625" x2="1836.9" y2="1625.9"/>
<line class="st0" x1="1836.6" y1="1624.4" x2="1836.7" y2="1625"/>
<line class="st0" x1="1836.4" y1="1624.2" x2="1836.6" y2="1624.4"/>
<line class="st0" x1="1837.1" y1="1629.9" x2="1837.1" y2="1628.4"/>
<line class="st0" x1="1836.7" y1="1765.4" x2="1836.6" y2="1766"/>
<line class="st0" x1="1836.9" y1="1764.5" x2="1836.7" y2="1765.4"/>
<line class="st0" x1="1837" y1="1763.4" x2="1836.9" y2="1764.5"/>
<line class="st0" x1="1837.1" y1="1762" x2="1837" y2="1763.4"/>
<line class="st0" x1="1837.1" y1="1760.6" x2="1837.1" y2="1629.9"/>
<line class="st0" x1="1837.1" y1="1760.6" x2="1837.1" y2="1762"/>
<line class="st0" x1="1836.4" y1="1766.1" x2="1836.6" y2="1766"/>
<line class="st0" x1="990" y1="1762.6" x2="990" y2="1762.3"/>
<line class="st0" x1="990" y1="1762.7" x2="990" y2="1762.6"/>
<line class="st0" x1="990" y1="1761.9" x2="990" y2="1762.3"/>
<line class="st0" x1="990" y1="1628" x2="990" y2="1627.7"/>
<line class="st0" x1="990" y1="1628.5" x2="990" y2="1761.9"/>
<line class="st0" x1="990" y1="1628.5" x2="990" y2="1628"/>
<line class="st0" x1="990" y1="1627.6" x2="990" y2="1627.7"/>
<line class="st0" x1="990" y1="1624.2" x2="1836.4" y2="1624.2"/>
<line class="st0" x1="990" y1="1624.2" x2="990" y2="1624.2"/>
<line class="st0" x1="990" y1="1766.1" x2="1836.4" y2="1766.1"/>
<line class="st0" x1="990" y1="1766.1" x2="990" y2="1766.1"/>
<line class="st0" x1="850.9" y1="3389.1" x2="852.3" y2="3389.3"/>
<line class="st0" x1="849.8" y1="3388.9" x2="850.9" y2="3389.1"/>
<line class="st0" x1="848.9" y1="3388.6" x2="849.8" y2="3388.9"/>
<line class="st0" x1="848.3" y1="3388.3" x2="848.9" y2="3388.6"/>
<line class="st0" x1="848.1" y1="3387.9" x2="848.3" y2="3388.3"/>
<line class="st0" x1="853.8" y1="3389.3" x2="852.3" y2="3389.3"/>
<line class="st0" x1="989.3" y1="3388.6" x2="989.8" y2="3388.3"/>
<line class="st0" x1="988.4" y1="3388.9" x2="989.3" y2="3388.6"/>
<line class="st0" x1="987.2" y1="3389.1" x2="988.4" y2="3388.9"/>
<line class="st0" x1="985.9" y1="3389.3" x2="987.2" y2="3389.1"/>
<line class="st0" x1="984.4" y1="3389.3" x2="853.8" y2="3389.3"/>
<line class="st0" x1="984.4" y1="3389.3" x2="985.9" y2="3389.3"/>
<line class="st0" x1="990" y1="3387.9" x2="989.8" y2="3388.3"/>
<line class="st0" x1="850.9" y1="1.2" x2="852.3" y2="1"/>
<line class="st0" x1="849.8" y1="1.4" x2="850.9" y2="1.2"/>
<line class="st0" x1="848.9" y1="1.7" x2="849.8" y2="1.4"/>
<line class="st0" x1="848.3" y1="2" x2="848.9" y2="1.7"/>
<line class="st0" x1="848.1" y1="2.4" x2="848.1" y2="3387.9"/>
<line class="st0" x1="848.1" y1="2.4" x2="848.3" y2="2"/>
<line class="st0" x1="853.8" y1="1" x2="852.3" y2="1"/>
<line class="st0" x1="989.3" y1="1.7" x2="989.8" y2="2"/>
<line class="st0" x1="988.4" y1="1.4" x2="989.3" y2="1.7"/>
<line class="st0" x1="987.2" y1="1.2" x2="988.4" y2="1.4"/>
<line class="st0" x1="985.9" y1="1" x2="987.2" y2="1.2"/>
<line class="st0" x1="984.4" y1="1" x2="853.8" y2="1"/>
<line class="st0" x1="984.4" y1="1" x2="985.9" y2="1"/>
<line class="st0" x1="990" y1="2.4" x2="990" y2="3387.9"/>
<line class="st0" x1="990" y1="2.4" x2="989.8" y2="2"/>
</svg>
