<?xml version="1.0" encoding="utf-8"?>
<!-- Generator: Adobe Illustrator 23.0.1, SVG Export Plug-In . SVG Version: 6.00 Build 0)  -->
<!DOCTYPE svg PUBLIC "-//W3C//DTD SVG 1.1//EN" "http://www.w3.org/Graphics/SVG/1.1/DTD/svg11.dtd" [
	<!ENTITY ns_extend "http://ns.adobe.com/Extensibility/1.0/">
	<!ENTITY ns_ai "http://ns.adobe.com/AdobeIllustrator/10.0/">
	<!ENTITY ns_graphs "http://ns.adobe.com/Graphs/1.0/">
	<!ENTITY ns_vars "http://ns.adobe.com/Variables/1.0/">
	<!ENTITY ns_imrep "http://ns.adobe.com/ImageReplacement/1.0/">
	<!ENTITY ns_sfw "http://ns.adobe.com/SaveForWeb/1.0/">
	<!ENTITY ns_custom "http://ns.adobe.com/GenericCustomNamespace/1.0/">
	<!ENTITY ns_adobe_xpath "http://ns.adobe.com/XPath/1.0/">
]>
<svg version="1.1" id="Layer_1" xmlns:x="&ns_extend;" xmlns:i="&ns_ai;" xmlns:graph="&ns_graphs;"
	 xmlns="http://www.w3.org/2000/svg" xmlns:xlink="http://www.w3.org/1999/xlink" x="0px" y="0px" viewBox="0 0 1838.1 3390.3"
	 style="enable-background:new 0 0 1838.1 3390.3;" xml:space="preserve">
<style type="text/css">
	.st0{fill:none;stroke:#FFFFFF;stroke-width:2;stroke-linecap:round;stroke-linejoin:round;}
</style>
<metadata>
	<sfw  xmlns="&ns_sfw;">
		<slices></slices>
		<sliceSourceBounds  bottomLeftOrigin="true" height="3390.3" width="1838.1" x="580.9" y="304.9"></sliceSourceBounds>
	</sfw>
</metadata>
<line class="st0" x1="1773.1" y1="3292.9" x2="989.7" y2="3292.9"/>
<line class="st0" x1="1773.1" y1="1765.8" x2="1773.1" y2="3292.9"/>
<line class="st0" x1="1773.1" y1="97.5" x2="989.7" y2="97.5"/>
<line class="st0" x1="1773.1" y1="1624.6" x2="1773.1" y2="97.5"/>
<line class="st0" x1="65.1" y1="3292.9" x2="848.5" y2="3292.9"/>
<line class="st0" x1="65.1" y1="1765.8" x2="65.1" y2="3292.9"/>
<line class="st0" x1="65.1" y1="97.5" x2="848.5" y2="97.5"/>
<line class="st0" x1="65.1" y1="1624.6" x2="65.1" y2="97.5"/>
<line class="st0" x1="1806.3" y1="3332.4" x2="1806.3" y2="1765.8"/>
<line class="st0" x1="989.7" y1="3332.4" x2="1806.3" y2="3332.4"/>
<line class="st0" x1="1806.3" y1="1624.6" x2="1806.3" y2="58"/>
<line class="st0" x1="989.7" y1="58" x2="1806.3" y2="58"/>
<line class="st0" x1="31.9" y1="1765.8" x2="31.9" y2="3332.4"/>
<line class="st0" x1="848.5" y1="3332.4" x2="31.9" y2="3332.4"/>
<line class="st0" x1="31.9" y1="58" x2="31.9" y2="1624.6"/>
<line class="st0" x1="848.5" y1="58" x2="31.9" y2="58"/>
<line class="st0" x1="1788.5" y1="3314.1" x2="989.7" y2="3314.1"/>
<line class="st0" x1="1788.5" y1="1765.8" x2="1788.5" y2="3314.1"/>
<line class="st0" x1="1788.5" y1="76.3" x2="989.7" y2="76.3"/>
<line class="st0" x1="1788.5" y1="1624.6" x2="1788.5" y2="76.3"/>
<line class="st0" x1="49.6" y1="3314.1" x2="848.5" y2="3314.1"/>
<line class="st0" x1="49.6" y1="1765.8" x2="49.6" y2="3314.1"/>
<line class="st0" x1="49.6" y1="76.3" x2="848.5" y2="76.3"/>
<line class="st0" x1="49.6" y1="1624.6" x2="49.6" y2="76.3"/>
<line class="st0" x1="991.9" y1="1768" x2="992.1" y2="1768.1"/>
<line class="st0" x1="991.9" y1="1768" x2="991.4" y2="1767.4"/>
<line class="st0" x1="989.9" y1="1765.9" x2="989.7" y2="1765.7"/>
<line class="st0" x1="990.6" y1="1766.6" x2="991.4" y2="1767.4"/>
<line class="st0" x1="990.6" y1="1766.6" x2="989.9" y2="1765.9"/>
<line class="st0" x1="991.9" y1="1768" x2="992.1" y2="1768.1"/>
<line class="st0" x1="991.9" y1="1768" x2="991.4" y2="1767.4"/>
<line class="st0" x1="990.6" y1="1766.6" x2="991.4" y2="1767.4"/>
<line class="st0" x1="989.9" y1="1765.9" x2="989.7" y2="1765.7"/>
<line class="st0" x1="989.9" y1="1765.9" x2="990.6" y2="1766.6"/>
<line class="st0" x1="991.9" y1="1622.3" x2="992.1" y2="1622.2"/>
<line class="st0" x1="991.9" y1="1622.3" x2="991.4" y2="1622.9"/>
<line class="st0" x1="989.9" y1="1624.4" x2="989.7" y2="1624.6"/>
<line class="st0" x1="990.6" y1="1623.7" x2="991.4" y2="1622.9"/>
<line class="st0" x1="990.6" y1="1623.7" x2="989.9" y2="1624.4"/>
<line class="st0" x1="991.9" y1="1622.3" x2="992.1" y2="1622.2"/>
<line class="st0" x1="989.9" y1="1624.4" x2="989.7" y2="1624.6"/>
<line class="st0" x1="990.6" y1="1623.7" x2="991.4" y2="1622.9"/>
<line class="st0" x1="1773.1" y1="1622.2" x2="992.1" y2="1622.2"/>
<line class="st0" x1="1773.1" y1="1768.1" x2="992.1" y2="1768.1"/>
<line class="st0" x1="65.1" y1="1622.2" x2="846.2" y2="1622.2"/>
<line class="st0" x1="65.1" y1="1768.1" x2="846.2" y2="1768.1"/>
<line class="st0" x1="992.1" y1="3292.9" x2="992.1" y2="1768.1"/>
<line class="st0" x1="846.2" y1="3292.9" x2="846.2" y2="1768.1"/>
<line class="st0" x1="992.1" y1="97.5" x2="992.1" y2="1622.2"/>
<line class="st0" x1="846.2" y1="97.5" x2="846.2" y2="1622.2"/>
<line class="st0" x1="1837.1" y1="1765.7" x2="1837.1" y2="1765.4"/>
<line class="st0" x1="1837" y1="1765.8" x2="1837.1" y2="1765.7"/>
<line class="st0" x1="1837.1" y1="1764.9" x2="1837.1" y2="1765.4"/>
<line class="st0" x1="1837.1" y1="1625" x2="1837.1" y2="1624.7"/>
<line class="st0" x1="1837.1" y1="1625.4" x2="1837.1" y2="1764.9"/>
<line class="st0" x1="1837.1" y1="1625.4" x2="1837.1" y2="1625"/>
<line class="st0" x1="1837" y1="1624.6" x2="1837.1" y2="1624.7"/>
<line class="st0" x1="990" y1="1765.8" x2="1837" y2="1765.8"/>
<line class="st0" x1="990" y1="1765.8" x2="989.7" y2="1765.4"/>
<line class="st0" x1="990" y1="1624.6" x2="1837" y2="1624.6"/>
<line class="st0" x1="989.7" y1="1625" x2="990" y2="1624.6"/>
<line class="st0" x1="989.9" y1="1761" x2="989.9" y2="1761.1"/>
<line class="st0" x1="989.9" y1="1760.7" x2="989.9" y2="1761"/>
<line class="st0" x1="989.9" y1="1760.3" x2="989.9" y2="1760.7"/>
<line class="st0" x1="989.9" y1="1759.4" x2="989.9" y2="1760.3"/>
<line class="st0" x1="989.9" y1="1759.4" x2="989.9" y2="1759"/>
<line class="st0" x1="989.9" y1="1758.7" x2="989.9" y2="1759"/>
<line class="st0" x1="989.9" y1="1758.6" x2="990" y2="1758.6"/>
<line class="st0" x1="989.9" y1="1758.6" x2="989.9" y2="1758.7"/>
<line class="st0" x1="990" y1="1758.6" x2="990" y2="1758.7"/>
<line class="st0" x1="990" y1="1758.3" x2="990" y2="1758.6"/>
<line class="st0" x1="990" y1="1757.8" x2="990" y2="1758.3"/>
<line class="st0" x1="990" y1="1632.5" x2="990" y2="1757.8"/>
<line class="st0" x1="990" y1="1632.1" x2="990" y2="1632.5"/>
<line class="st0" x1="990" y1="1631.8" x2="990" y2="1632.1"/>
<line class="st0" x1="990" y1="1631.7" x2="990" y2="1631.8"/>
<line class="st0" x1="989.9" y1="1631.8" x2="990" y2="1631.8"/>
<line class="st0" x1="989.9" y1="1631.8" x2="989.9" y2="1631.7"/>
<line class="st0" x1="989.9" y1="1631.4" x2="989.9" y2="1631.7"/>
<line class="st0" x1="989.9" y1="1630.9" x2="989.9" y2="1631.4"/>
<line class="st0" x1="989.9" y1="1630.1" x2="989.9" y2="1630.9"/>
<line class="st0" x1="989.9" y1="1630.1" x2="989.9" y2="1629.7"/>
<line class="st0" x1="989.9" y1="1629.4" x2="989.9" y2="1629.7"/>
<line class="st0" x1="989.9" y1="1629.2" x2="989.9" y2="1629.4"/>
<line class="st0" x1="1.1" y1="1765.7" x2="1" y2="1765.4"/>
<line class="st0" x1="1.1" y1="1765.8" x2="1.1" y2="1765.7"/>
<line class="st0" x1="1" y1="1764.9" x2="1" y2="1765.4"/>
<line class="st0" x1="1" y1="1625" x2="1.1" y2="1624.7"/>
<line class="st0" x1="1" y1="1625.4" x2="1" y2="1764.9"/>
<line class="st0" x1="1" y1="1625.4" x2="1" y2="1625"/>
<line class="st0" x1="1.1" y1="1624.6" x2="1.1" y2="1624.7"/>
<line class="st0" x1="848.1" y1="1765.8" x2="1.1" y2="1765.8"/>
<line class="st0" x1="848.1" y1="1765.8" x2="848.5" y2="1765.3"/>
<line class="st0" x1="848.1" y1="1624.6" x2="1.1" y2="1624.6"/>
<line class="st0" x1="848.5" y1="1625" x2="848.1" y2="1624.6"/>
<line class="st0" x1="848.2" y1="1761" x2="848.2" y2="1761.1"/>
<line class="st0" x1="848.2" y1="1760.7" x2="848.2" y2="1761"/>
<line class="st0" x1="848.2" y1="1760.3" x2="848.2" y2="1760.7"/>
<line class="st0" x1="848.2" y1="1759.4" x2="848.2" y2="1760.3"/>
<line class="st0" x1="848.2" y1="1759.4" x2="848.2" y2="1759"/>
<line class="st0" x1="848.2" y1="1758.7" x2="848.2" y2="1759"/>
<line class="st0" x1="848.2" y1="1758.6" x2="848.1" y2="1758.6"/>
<line class="st0" x1="848.2" y1="1758.6" x2="848.2" y2="1758.7"/>
<line class="st0" x1="848.1" y1="1758.6" x2="848.1" y2="1758.7"/>
<line class="st0" x1="848.1" y1="1758.3" x2="848.1" y2="1758.6"/>
<line class="st0" x1="848.1" y1="1757.8" x2="848.1" y2="1758.3"/>
<line class="st0" x1="848.1" y1="1632.5" x2="848.1" y2="1757.8"/>
<line class="st0" x1="848.1" y1="1632.1" x2="848.1" y2="1632.5"/>
<line class="st0" x1="848.1" y1="1631.8" x2="848.1" y2="1632.1"/>
<line class="st0" x1="848.1" y1="1631.7" x2="848.1" y2="1631.8"/>
<line class="st0" x1="848.2" y1="1631.8" x2="848.1" y2="1631.8"/>
<line class="st0" x1="848.2" y1="1631.8" x2="848.2" y2="1631.7"/>
<line class="st0" x1="848.2" y1="1631.4" x2="848.2" y2="1631.7"/>
<line class="st0" x1="848.2" y1="1630.9" x2="848.2" y2="1631.4"/>
<line class="st0" x1="848.2" y1="1630.1" x2="848.2" y2="1630.9"/>
<line class="st0" x1="848.2" y1="1630.1" x2="848.2" y2="1629.7"/>
<line class="st0" x1="848.2" y1="1629.4" x2="848.2" y2="1629.7"/>
<line class="st0" x1="848.2" y1="1629.2" x2="848.2" y2="1629.4"/>
<line class="st0" x1="848.6" y1="3389.2" x2="848.9" y2="3389.3"/>
<line class="st0" x1="848.5" y1="3389.1" x2="848.6" y2="3389.2"/>
<line class="st0" x1="849.3" y1="3389.3" x2="848.9" y2="3389.3"/>
<line class="st0" x1="989.2" y1="3389.3" x2="989.6" y2="3389.2"/>
<line class="st0" x1="988.8" y1="3389.3" x2="849.3" y2="3389.3"/>
<line class="st0" x1="988.8" y1="3389.3" x2="989.2" y2="3389.3"/>
<line class="st0" x1="989.7" y1="3389.1" x2="989.6" y2="3389.2"/>
<line class="st0" x1="848.6" y1="1.1" x2="848.9" y2="1"/>
<line class="st0" x1="848.5" y1="1.2" x2="848.5" y2="3389.1"/>
<line class="st0" x1="848.5" y1="1.2" x2="848.6" y2="1.1"/>
<line class="st0" x1="849.3" y1="1" x2="848.9" y2="1"/>
<line class="st0" x1="989.2" y1="1" x2="989.6" y2="1.1"/>
<line class="st0" x1="988.8" y1="1" x2="849.3" y2="1"/>
<line class="st0" x1="988.8" y1="1" x2="989.2" y2="1"/>
<line class="st0" x1="989.7" y1="1.2" x2="989.7" y2="3389.1"/>
<line class="st0" x1="989.7" y1="1.2" x2="989.6" y2="1.1"/>
</svg>
