<svg xmlns="http://www.w3.org/2000/svg" width="20.923" height="19" viewBox="0 0 20.923 19">
  <path id="Path_11629" data-name="Path 11629" d="M19.345,1.585a5.406,5.406,0,0,0-7.644,0L1.193,12.094a4.043,4.043,0,0,0,4.812,6.4.667.667,0,0,0,.442-.191L16.956,7.8a2.7,2.7,0,1,0-3.821-3.821l-8.6,8.6a.675.675,0,1,0,.955.955l8.6-8.6A1.351,1.351,0,0,1,16,6.841L5.969,16.874a2.7,2.7,0,0,1-3.821-3.821L12.656,2.541a4.054,4.054,0,0,1,5.733,5.733L8.835,17.827a.675.675,0,0,0,.956.955l9.553-9.554a5.4,5.4,0,0,0,0-7.643Zm0,0" transform="translate(-0.005 -0.002)" fill="#707070"/>
</svg>
