<svg xmlns="http://www.w3.org/2000/svg" width="12.203" height="21.5" viewBox="0 0 12.203 21.5">
  <path id="Path_11526" data-name="Path 11526" d="M.4,21.5a.264.264,0,0,1-.181-.038.357.357,0,0,1-.143-.428l4.014-9.566H.4a.423.423,0,0,1-.323-.181.324.324,0,0,1,0-.357L5.454.181A.37.37,0,0,1,5.777,0h5.732a.376.376,0,0,1,.323.181.324.324,0,0,1,0,.357L7.641,7.168h4.224a.346.346,0,0,1,.323.214.378.378,0,0,1-.038.395L.687,21.391A.411.411,0,0,1,.4,21.5ZM.973,10.75H4.626a.436.436,0,0,1,.286.143.358.358,0,0,1,.038.323L1.653,19.1,11.114,7.882H6.957A.376.376,0,0,1,6.634,7.7a.324.324,0,0,1,0-.357L10.862.718H5.991Z" transform="translate(-0.025)" fill="#fff"/>
</svg>
