<svg xmlns="http://www.w3.org/2000/svg" viewBox="0 0 41.498 33.002"><defs><style>.a{fill:#fff;}</style></defs><g transform="translate(0.1 0.041)"><path class="a" d="M-.093,13.411a4.229,4.229,0,0,1,.762-1.664,3.271,3.271,0,0,1,2.618-1.186c2.85.007,5.7,0,8.55,0H19.9c-.08-.5-.139-.961-.232-1.418A10.8,10.8,0,0,0,18.26,5.915,9.86,9.86,0,0,1,16.934.791c.013-.5.252-.8.683-.829a.732.732,0,0,1,.8.749c.04.431.04.862.08,1.286a8.35,8.35,0,0,0,1.233,3.466,10.707,10.707,0,0,1,1.644,5.09h16.61a3.218,3.218,0,0,1,3.1,1.916,7.382,7.382,0,0,1,.318.935v16.7a8.475,8.475,0,0,1-.3.9,3.286,3.286,0,0,1-3.221,1.949H6.641c-1.107,0-2.207.007-3.314,0A3.226,3.226,0,0,1,.377,31.333,8.466,8.466,0,0,1-.1,30.114Q-.09,21.762-.093,13.411ZM20.652,31.479h17.1a2.281,2.281,0,0,0,.563-.027,3.038,3.038,0,0,0,.868-.358,1.856,1.856,0,0,0,.742-1.677c-.007-5.09,0-10.181-.007-15.278a4.509,4.509,0,0,0-.04-.6,1.717,1.717,0,0,0-1.531-1.465c-1.292-.046-2.585-.04-3.877-.04q-15.49,0-30.98.007a2.6,2.6,0,0,0-1.06.186,1.8,1.8,0,0,0-1.047,1.8q0,7.735.007,15.477a2.326,2.326,0,0,0,.192.928,1.848,1.848,0,0,0,1.869,1.047Q12.053,31.466,20.652,31.479Z"/><path class="a" d="M164.665,383.707h9.478c.782,0,1.021.245,1.021,1.034v2.32c0,.828-.232,1.06-1.067,1.06H155.141c-.789,0-1.041-.245-1.041-1.027v-2.452c0-.669.278-.941.954-.941Q159.866,383.71,164.665,383.707Z" transform="translate(-143.979 -358.306)"/><path class="a" d="M74.4,303.674H71.685c-.59,0-.855-.258-.855-.842-.007-.908-.007-1.809,0-2.717a.75.75,0,0,1,.829-.855c1.843-.013,3.692-.013,5.534,0a.754.754,0,0,1,.829.829q.02,1.392,0,2.784c-.007.55-.278.8-.835.8Z" transform="translate(-66.224 -279.453)"/><path class="a" d="M450.236,299.259h2.618c.709,0,.968.258.968.954q.01,1.292,0,2.585c-.007.63-.252.895-.882.895-1.809.007-3.626.007-5.435,0-.61,0-.868-.272-.875-.875-.007-.882-.007-1.77,0-2.651.007-.623.292-.9.921-.908C448.446,299.252,449.341,299.259,450.236,299.259Z" transform="translate(-417.116 -279.458)"/><path class="a" d="M240.08,215.765h1.326c.544.007.848.252.862.782.027.961.02,1.922,0,2.877a.7.7,0,0,1-.749.756c-.968.027-1.942.027-2.91,0a.717.717,0,0,1-.749-.789c-.013-.948-.013-1.9,0-2.85a.746.746,0,0,1,.8-.782c.245-.007.484,0,.729,0C239.616,215.765,239.848,215.765,240.08,215.765Z" transform="translate(-222.179 -201.493)"/><path class="a" d="M70.759,218.031c0-.464-.007-.928,0-1.392a.747.747,0,0,1,.8-.809c.941-.007,1.876-.007,2.817,0a.711.711,0,0,1,.782.716q.04,1.491,0,2.983a.642.642,0,0,1-.683.7c-1.014.027-2.028.033-3.042,0-.451-.013-.669-.312-.676-.775Z" transform="translate(-66.159 -201.557)"/><path class="a" d="M323.5,215.807c.464,0,.928-.007,1.392,0a.735.735,0,0,1,.809.769c.02.961.02,1.922,0,2.877a.708.708,0,0,1-.742.762c-.968.027-1.942.027-2.91,0a.712.712,0,0,1-.762-.782q-.03-1.422,0-2.843c.013-.537.318-.782.855-.789h.066C322.642,215.807,323.073,215.807,323.5,215.807Z" transform="translate(-300.074 -201.534)"/><path class="a" d="M407.237,215.858c.464,0,.928-.007,1.392,0a.767.767,0,0,1,.828.8c.013.941.013,1.876,0,2.817a.752.752,0,0,1-.809.809c-.941.02-1.876.02-2.817,0a.742.742,0,0,1-.8-.842c-.007-.908-.007-1.809,0-2.717a.769.769,0,0,1,.882-.862C406.356,215.852,406.793,215.858,407.237,215.858Z" transform="translate(-378.273 -201.586)"/><path class="a" d="M363.059,301.284c0-.444-.007-.882,0-1.326a.778.778,0,0,1,.828-.868c.928-.02,1.856-.02,2.777,0a.76.76,0,0,1,.815.842c.013.928.013,1.856,0,2.777a.726.726,0,0,1-.8.809c-.928.02-1.856.02-2.777,0-.577-.013-.835-.3-.842-.882Z" transform="translate(-339.085 -279.29)"/><path class="a" d="M156.14,215.858c.451,0,.908-.007,1.359,0a.717.717,0,0,1,.789.749c.02.974.02,1.942,0,2.916a.681.681,0,0,1-.716.749c-.981.027-1.962.033-2.949.007a.741.741,0,0,1-.762-.822c-.013-.915-.013-1.829,0-2.751a.777.777,0,0,1,.882-.842C155.212,215.852,155.676,215.858,156.14,215.858Z" transform="translate(-143.746 -201.586)"/><path class="a" d="M200.488,301.494c0,.444.007.882,0,1.326a.755.755,0,0,1-.829.862c-.935.02-1.876.02-2.81,0a.732.732,0,0,1-.789-.822q-.02-1.372,0-2.744a.773.773,0,0,1,.868-.855c.895-.013,1.79-.013,2.678,0,.59.007.875.312.882.915Z" transform="translate(-183.149 -279.453)"/><path class="a" d="M492.874,218.127c0,.451.007.908,0,1.359a.742.742,0,0,1-.8.842c-.941.02-1.876.02-2.817,0a.728.728,0,0,1-.8-.815c-.013-.915-.013-1.836,0-2.751.007-.6.292-.855.888-.862H492a.761.761,0,0,1,.875.868C492.881,217.219,492.874,217.676,492.874,218.127Z" transform="translate(-456.169 -201.627)"/><path class="a" d="M70.792,385.944c0-.484-.007-.968,0-1.458a.693.693,0,0,1,.736-.762c.981-.02,1.962-.013,2.943,0a.673.673,0,0,1,.722.7c.027.994.027,1.982,0,2.976a.684.684,0,0,1-.749.716c-.968.02-1.942.02-2.91,0a.7.7,0,0,1-.742-.789c-.013-.457-.007-.921,0-1.385Z" transform="translate(-66.186 -358.316)"/><path class="a" d="M492.9,386.041c0,.477.007.948,0,1.425a.723.723,0,0,1-.775.8c-.948.013-1.9.02-2.843,0a.711.711,0,0,1-.789-.782q-.03-1.422,0-2.843a.711.711,0,0,1,.8-.775c.935-.013,1.876-.013,2.81,0a.716.716,0,0,1,.8.8C492.9,385.113,492.9,385.577,492.9,386.041Z" transform="translate(-456.192 -358.446)"/><path class="a" d="M279.613,301.62c0-.484-.013-.974,0-1.458a.682.682,0,0,1,.683-.742q1.521-.04,3.042,0a.673.673,0,0,1,.669.722q.02,1.471,0,2.943a.712.712,0,0,1-.8.742c-.51.013-1.014.007-1.524.007-.411,0-.815.007-1.226,0a.76.76,0,0,1-.862-.855c.007-.457.013-.908.013-1.359Z" transform="translate(-261.161 -279.593)"/></g></svg>