<?xml version="1.0" encoding="utf-8"?>
<!-- Generator: Adobe Illustrator 22.1.0, SVG Export Plug-In . SVG Version: 6.00 Build 0)  -->
<svg version="1.1" id="Слой_1" xmlns="http://www.w3.org/2000/svg" xmlns:xlink="http://www.w3.org/1999/xlink" x="0px" y="0px"
	 width="20px" height="11.4px" viewBox="0 0 20 11.4" style="enable-background:new 0 0 20 11.4;" xml:space="preserve">
<style type="text/css">
	.st0{opacity:0.29;fill:#FFFFFF;}
	.st1{fill:#FFFFFF;}
	.st2{fill:#2D70E4;}
	.st3{fill:#343434;}
	.st4{fill:#4FB725;}
	.st5{fill:none;stroke:#FFFFFF;stroke-miterlimit:10;}
</style>
<g>
	<path class="st1" d="M19.9,10.3c0-0.1,0-0.1-0.1-0.1c-0.3-0.6-1-1.4-2-2.3l0,0l0,0l0,0h0c-0.4-0.4-0.7-0.7-0.8-0.9
		c-0.2-0.3-0.3-0.6-0.1-0.8c0.1-0.2,0.4-0.7,0.9-1.4c0.3-0.4,0.5-0.7,0.7-0.9c1.2-1.6,1.7-2.6,1.6-3.1l-0.1-0.1
		c0-0.1-0.1-0.1-0.3-0.2c-0.2-0.1-0.4-0.1-0.7,0l-3,0c0,0-0.1,0-0.2,0c-0.1,0-0.1,0-0.1,0l-0.1,0l0,0c0,0-0.1,0.1-0.1,0.1
		c0,0.1-0.1,0.1-0.1,0.2c-0.3,0.8-0.7,1.6-1.1,2.3c-0.3,0.4-0.5,0.8-0.7,1.1c-0.2,0.3-0.4,0.5-0.5,0.7c-0.1,0.1-0.3,0.3-0.4,0.4
		c-0.1,0.1-0.2,0.1-0.3,0.1c-0.1,0-0.1,0-0.2,0c-0.1-0.1-0.2-0.1-0.2-0.3c-0.1-0.1-0.1-0.2-0.1-0.4c0-0.2,0-0.3,0-0.4
		c0-0.1,0-0.3,0-0.5c0-0.2,0-0.4,0-0.4c0-0.3,0-0.6,0-0.9c0-0.3,0-0.6,0-0.7c0-0.2,0-0.4,0-0.6s0-0.4,0-0.5c0-0.1-0.1-0.2-0.1-0.3
		c0-0.1-0.1-0.2-0.2-0.2c-0.1-0.1-0.2-0.1-0.3-0.1C10.7,0.1,10.2,0,9.6,0C8.3,0,7.5,0.1,7.1,0.3C7,0.3,6.9,0.4,6.7,0.6
		C6.6,0.7,6.6,0.8,6.7,0.8C7.1,0.9,7.4,1,7.6,1.3l0.1,0.1c0,0.1,0.1,0.2,0.1,0.5c0,0.2,0.1,0.5,0.1,0.8c0,0.5,0,0.9,0,1.3
		c0,0.4-0.1,0.6-0.1,0.8c0,0.2-0.1,0.4-0.1,0.5C7.6,5.4,7.5,5.5,7.5,5.5c0,0,0,0-0.1,0.1c-0.1,0-0.2,0.1-0.3,0.1
		c-0.1,0-0.2,0-0.4-0.1C6.7,5.4,6.5,5.2,6.4,5C6.2,4.9,6.1,4.6,5.9,4.3C5.7,4,5.5,3.7,5.3,3.3L5.1,2.9C5,2.8,4.9,2.5,4.7,2.1
		C4.5,1.7,4.4,1.4,4.2,1C4.2,0.9,4.1,0.8,4,0.7l-0.1,0c0,0-0.1-0.1-0.2-0.1c-0.1,0-0.2-0.1-0.2-0.1l-2.9,0c-0.3,0-0.5,0.1-0.6,0.2
		l0,0.1c0,0,0,0.1,0,0.2C0,1,0,1.1,0.1,1.2c0.4,1,0.9,1.9,1.4,2.8C1.9,5,2.3,5.7,2.7,6.3c0.4,0.6,0.7,1.1,1.1,1.6
		c0.4,0.5,0.6,0.8,0.7,0.9C4.7,8.9,4.8,9,4.8,9.1l0.3,0.2c0.2,0.2,0.4,0.4,0.7,0.6c0.3,0.2,0.7,0.5,1.1,0.7c0.4,0.2,0.8,0.4,1.4,0.6
		c0.5,0.1,1,0.2,1.5,0.2H11c0.2,0,0.4-0.1,0.6-0.2l0-0.1c0,0,0.1-0.1,0.1-0.2c0-0.1,0-0.2,0-0.3c0-0.3,0-0.6,0.1-0.8
		c0.1-0.2,0.1-0.4,0.2-0.5C12,9.1,12.1,9,12.2,8.9c0.1-0.1,0.1-0.1,0.2-0.2c0,0,0.1,0,0.1,0c0.2-0.1,0.4,0,0.6,0.2
		c0.2,0.2,0.4,0.4,0.6,0.6c0.2,0.2,0.4,0.5,0.7,0.8c0.3,0.3,0.5,0.5,0.7,0.7l0.2,0.1c0.1,0.1,0.3,0.2,0.5,0.2
		c0.2,0.1,0.4,0.1,0.6,0.1l2.7,0c0.3,0,0.5,0,0.6-0.1c0.1-0.1,0.2-0.2,0.3-0.3c0-0.1,0-0.2,0-0.4C19.9,10.4,19.9,10.4,19.9,10.3z"/>
</g>
</svg>
