<?xml version="1.0" encoding="utf-8"?>
<!-- Generator: Adobe Illustrator 22.1.0, SVG Export Plug-In . SVG Version: 6.00 Build 0)  -->
<svg version="1.1" id="Слой_1" xmlns="http://www.w3.org/2000/svg" xmlns:xlink="http://www.w3.org/1999/xlink" x="0px" y="0px"
	 width="20px" height="16.2px" viewBox="0 0 20 16.2" style="enable-background:new 0 0 20 16.2;" xml:space="preserve">
<style type="text/css">
	.st0{opacity:0.29;fill:#FFFFFF;}
	.st1{fill:#FFFFFF;}
	.st2{fill:#2D70E4;}
	.st3{fill:#343434;}
	.st4{fill:#4FB725;}
	.st5{fill:none;stroke:#FFFFFF;stroke-miterlimit:10;}
</style>
<g>
	<g>
		<path class="st1" d="M20,1.9c-0.7,0.3-1.5,0.5-2.4,0.6c0.8-0.5,1.5-1.3,1.8-2.3c-0.8,0.5-1.7,0.8-2.6,1C16.1,0.5,15,0,13.8,0
			c-2.3,0-4.1,1.8-4.1,4.1c0,0.3,0,0.6,0.1,0.9C6.4,4.9,3.4,3.2,1.4,0.7C1,1.4,0.8,2.1,0.8,2.8c0,1.4,0.7,2.7,1.8,3.4
			C2,6.2,1.4,6,0.8,5.7v0.1c0,2,1.4,3.6,3.3,4C3.8,9.9,3.4,9.9,3,9.9c-0.3,0-0.5,0-0.8-0.1c0.5,1.6,2,2.8,3.8,2.8
			c-1.4,1.1-3.2,1.8-5.1,1.8c-0.3,0-0.7,0-1-0.1c1.8,1.2,4,1.8,6.3,1.8C13.8,16.2,18,10,18,4.6l0-0.5C18.8,3.5,19.5,2.7,20,1.9z"/>
	</g>
</g>
</svg>
