<svg xmlns="http://www.w3.org/2000/svg" viewBox="0 0 31.977 22.25"><defs><style>.a{fill:#fff;}</style></defs><path class="a" d="M20.278.473c-.041.166-.083.324-.116.465.7-.282,1.386-.564,2.083-.838a1.1,1.1,0,0,1,.116.158Q22.1.619,21.813,1c.34-.083.664-.183,1-.257a1.291,1.291,0,0,1,.5-.05c.166.033.423.133.448.241a.551.551,0,0,1-.224.465,12.2,12.2,0,0,1-1.328.514c-.274.1-.548.166-.821.274A7.234,7.234,0,0,1,27.9,7.858c.091.382.224.572.655.622a6.158,6.158,0,0,0,2.663-.315c.166-.058.34-.116.514-.183a2.354,2.354,0,0,1-1.294,1.435c-.581.282-1.211.465-1.817.7a7.97,7.97,0,0,0,3.352.274c-.249.224-.4.382-.572.514a5.079,5.079,0,0,1-3.012.954c-.183.008-.29.033-.348.249a13.121,13.121,0,0,1-6.289,7.783,17.474,17.474,0,0,1-8.264,2.439A15.748,15.748,0,0,1,1.7,18.179,16.4,16.4,0,0,1,0,16.262,8.908,8.908,0,0,0,5.841,18.2a8.378,8.378,0,0,0,5.708-2.464c-.29-.041-.523-.066-.755-.1a1.539,1.539,0,0,1-1.419-1.344,1.256,1.256,0,0,1,.572-1c.133-.108.274-.191.431-.3-.423-.05-.821-.066-1.211-.149a3.646,3.646,0,0,1-2.315-1.568q-.261-.386.1-.572c.407-.207.838-.382,1.261-.556.091-.041.2-.041.315-.1C6.92,9.509,5.617,8.7,5.3,6.829c.6-.091,1.137-.174,1.61-.249-.548-.539-1.17-1.062-1.676-1.668A3.261,3.261,0,0,1,4.514,2.6c.133.033.241.058.34.091a66.47,66.47,0,0,1,7.683,3.36,11.588,11.588,0,0,1,2.514,1.917c.05.041.1.083.174.141C16.411,5.236,17.523,2.324,20.278.473Z" transform="translate(0 -0.1)"/></svg>