<svg xmlns="http://www.w3.org/2000/svg" viewBox="0 0 27.618 25.25"><defs><style>.a{fill:#005ed8;}</style></defs><path class="a" d="M13.8,2.957A7.849,7.849,0,0,1,17.086.5,7.7,7.7,0,0,1,27.425,6.131a10.776,10.776,0,0,1-1.241,7.33,22.526,22.526,0,0,1-5.533,6.644c-2.034,1.667-4.134,3.246-6.212,4.855a.882.882,0,0,1-1.2.036,67.532,67.532,0,0,1-7.683-6.19,20.514,20.514,0,0,1-4.43-5.981A10.739,10.739,0,0,1,.176,6.131,7.7,7.7,0,0,1,8.559.02a7.56,7.56,0,0,1,5.079,2.756C13.689,2.827,13.732,2.877,13.8,2.957Z" transform="translate(0.005 0.033)"/></svg>