<svg xmlns="http://www.w3.org/2000/svg" viewBox="0 0 39.022 22.25"><defs><style>.a{fill:#fff;}</style></defs><path class="a" d="M22.755,5.418c0,1.279-.021,2.558.014,3.831a2.206,2.206,0,0,0,.342,1.012c.321.52.793.54,1.272.15a9.6,9.6,0,0,0,1.806-2.059A32.571,32.571,0,0,0,29.52,2.108c.034-.089.075-.178.109-.267A1.262,1.262,0,0,1,31.087.9c2.079.014,4.159-.041,6.231-.055a3.3,3.3,0,0,1,.937.13A.8.8,0,0,1,38.9,2.067a8.4,8.4,0,0,1-.629,1.662,37.6,37.6,0,0,1-3.584,5.205c-.6.793-1.2,1.58-1.737,2.408a1.63,1.63,0,0,0,.239,2.333C34,14.5,34.842,15.3,35.67,16.116a17,17,0,0,1,2.77,3.331,3.7,3.7,0,0,1,.431,1.115,1,1,0,0,1-.828,1.286,4.417,4.417,0,0,1-1.04.13c-1.778.048-3.557.1-5.335.1a3.63,3.63,0,0,1-2.476-.978c-.917-.841-1.731-1.785-2.613-2.668a12.963,12.963,0,0,0-1.436-1.306.991.991,0,0,0-1.5.164,2.924,2.924,0,0,0-.759,1.69c-.082.581-.1,1.163-.157,1.751a1.165,1.165,0,0,1-1.163,1.211c-2.558.13-5.13.2-7.5-1.026a16.957,16.957,0,0,1-5.541-4.3A57.665,57.665,0,0,1,1.181,4.755C.812,3.982.477,3.2.121,2.429-.323,1.465-.016.911,1.058.883,2.932.835,4.807.842,6.688.829A1.685,1.685,0,0,1,7,.883,1.71,1.71,0,0,1,8.24,1.978a56.047,56.047,0,0,0,3.133,6.245,7.118,7.118,0,0,0,1.765,2.168,1.178,1.178,0,0,0,1.122.308.768.768,0,0,0,.383-.294,3.857,3.857,0,0,0,.506-1.7,17.363,17.363,0,0,0,.082-4.337,13.618,13.618,0,0,0-.253-1.382,1.953,1.953,0,0,0-1.587-1.477,5.16,5.16,0,0,1-.506-.2,3.052,3.052,0,0,1,.321-.492A2.51,2.51,0,0,1,14.725.076a23.334,23.334,0,0,1,6.019-.1A3.953,3.953,0,0,1,21.435.1c.944.253,1.183.568,1.327,1.6a16.358,16.358,0,0,1,.027,2.168V5.4A.044.044,0,0,1,22.755,5.418Z" transform="translate(0.075 0.168)"/></svg>