<svg xmlns="http://www.w3.org/2000/svg" width="16.13" height="17.226" viewBox="0 0 16.13 17.226">
  <g id="Group_1304" data-name="Group 1304" transform="translate(0 0)">
    <path id="Path_1920" data-name="Path 1920" d="M15.8,122.805a.41.41,0,1,0-.646.5.485.485,0,0,1,0,.6,9.04,9.04,0,0,1-3.771,2.843,4.6,4.6,0,0,0,.01-6.275,8.968,8.968,0,0,1,2.355,1.393l.262.222a.41.41,0,0,0,.545-.612c-.094-.084-.188-.165-.286-.242A9.872,9.872,0,0,0,.228,122.805a1.3,1.3,0,0,0,0,1.608,9.874,9.874,0,0,0,15.577,0A1.313,1.313,0,0,0,15.8,122.805Zm-4,.8A3.793,3.793,0,0,1,8.023,127.4H8.016a3.788,3.788,0,0,1,0-7.577h.007A3.8,3.8,0,0,1,11.8,123.609Zm-10.928.3a.485.485,0,0,1,0-.6,9.02,9.02,0,0,1,3.771-2.843,4.6,4.6,0,0,0,0,6.285A9.019,9.019,0,0,1,.877,123.909Z" transform="translate(0.05 -114.996)" fill="#fff"/>
    <path id="Path_1921" data-name="Path 1921" d="M187.9,205.943a1.743,1.743,0,1,0,1.743-1.743A1.745,1.745,0,0,0,187.9,205.943Zm2.665,0a.922.922,0,1,1-.922-.922A.923.923,0,0,1,190.565,205.943Z" transform="translate(-181.577 -197.33)" fill="#fff"/>
    <path id="Path_1922" data-name="Path 1922" d="M227.91,2.362a.412.412,0,0,0,.41-.41V.41a.41.41,0,0,0-.821,0V1.951A.41.41,0,0,0,227.91,2.362Z" transform="translate(-219.844)" fill="#fff"/>
    <path id="Path_1923" data-name="Path 1923" d="M227.91,441.8a.412.412,0,0,0-.41.41v1.541a.41.41,0,0,0,.821,0V442.21A.41.41,0,0,0,227.91,441.8Z" transform="translate(-219.844 -426.936)" fill="#fff"/>
    <path id="Path_1924" data-name="Path 1924" d="M377.414,72.891a.4.4,0,0,0,.289-.121L378.47,72a.412.412,0,1,0-.582-.582l-.767.767a.41.41,0,0,0,0,.582A.415.415,0,0,0,377.414,72.891Z" transform="translate(-364.315 -68.901)" fill="#fff"/>
    <path id="Path_1925" data-name="Path 1925" d="M55.988,393.494l-.767.767a.412.412,0,0,0,.289.7.4.4,0,0,0,.289-.121l.767-.767a.41.41,0,1,0-.579-.582Z" transform="translate(-53.245 -380.14)" fill="#fff"/>
    <path id="Path_1926" data-name="Path 1926" d="M55.988,72.87a.408.408,0,0,0,.289.121.4.4,0,0,0,.289-.121.41.41,0,0,0,0-.582l-.764-.767a.412.412,0,0,0-.582.582Z" transform="translate(-53.245 -68.998)" fill="#fff"/>
    <path id="Path_1927" data-name="Path 1927" d="M377.7,393.421a.412.412,0,1,0-.582.582l.767.767a.408.408,0,0,0,.289.121.4.4,0,0,0,.289-.121.41.41,0,0,0,0-.582Z" transform="translate(-364.315 -380.068)" fill="#fff"/>
  </g>
</svg>
