<svg id="Group_407" data-name="Group 407" xmlns="http://www.w3.org/2000/svg" viewBox="0 0 25.442 25.441">
  <defs>
    <style>
      .cls-1 {
        fill: #353435;
      }
    </style>
  </defs>
  <path id="Path_290" data-name="Path 290" class="cls-1" d="M12.459,9.779a.753.753,0,0,0,.318-.106l1.7-1.7a.412.412,0,1,0-.583-.583l-1.7,1.7a.416.416,0,0,0,0,.583.4.4,0,0,0,.265.106Zm0,0" transform="translate(-5.675 -3.419)"/>
  <path id="Path_291" data-name="Path 291" class="cls-1" d="M12.942,12.894l-.848.848a.416.416,0,0,0,0,.583.389.389,0,0,0,.318.106.753.753,0,0,0,.318-.106l.848-.848a.416.416,0,0,0,0-.583.484.484,0,0,0-.636,0Zm0,0" transform="translate(-5.628 -6.004)"/>
  <path id="Path_292" data-name="Path 292" class="cls-1" d="M15.306,11.294a.568.568,0,0,0-.106.318.753.753,0,0,0,.106.318.53.53,0,0,0,.636,0,.753.753,0,0,0,.106-.318.753.753,0,0,0-.106-.318.484.484,0,0,0-.636,0Zm0,0" transform="translate(-7.143 -5.252)"/>
  <path id="Path_293" data-name="Path 293" class="cls-1" d="M18.166,7.294,16.894,8.566a.416.416,0,0,0,0,.583.389.389,0,0,0,.318.106.753.753,0,0,0,.318-.106L18.8,7.877a.416.416,0,0,0,0-.583.484.484,0,0,0-.636,0Zm0,0" transform="translate(-7.883 -3.372)"/>
  <path id="Path_294" data-name="Path 294" class="cls-1" d="M32.99,24.094l-1.7,1.7a.416.416,0,0,0,0,.583.389.389,0,0,0,.318.106.753.753,0,0,0,.318-.106l1.7-1.7a.416.416,0,0,0,0-.583.484.484,0,0,0-.636,0Zm0,0" transform="translate(-14.651 -11.267)"/>
  <path id="Path_295" data-name="Path 295" class="cls-1" d="M33.212,21.731a.753.753,0,0,0,.318-.106l.848-.848a.412.412,0,0,0-.583-.583l-.9.8a.416.416,0,0,0,0,.583.458.458,0,0,0,.318.159Zm0,0" transform="translate(-15.403 -9.434)"/>
  <path id="Path_296" data-name="Path 296" class="cls-1" d="M31.671,24.036a.753.753,0,0,0,.318-.106.53.53,0,0,0,0-.636.416.416,0,0,0-.583,0,.568.568,0,0,0-.106.318.753.753,0,0,0,.106.318.4.4,0,0,0,.265.106Zm0,0" transform="translate(-14.709 -10.891)"/>
  <path id="Path_297" data-name="Path 297" class="cls-1" d="M29.249,24.894a.416.416,0,0,0-.583,0l-1.272,1.272a.416.416,0,0,0,0,.583.389.389,0,0,0,.318.106.753.753,0,0,0,.318-.106L29.3,25.477a.486.486,0,0,0-.053-.583Zm0,0" transform="translate(-12.818 -11.643)"/>
  <path id="Path_298" data-name="Path 298" class="cls-1" d="M24.594,1.7h.424a.456.456,0,0,0,.424-.424.456.456,0,0,0-.424-.424h-.424V.424a.424.424,0,0,0-.848,0V.848H22.9V.424a.424.424,0,1,0-.848,0V.848H21.2V.424a.424.424,0,0,0-.848,0V.848H5.088V.424A.456.456,0,0,0,4.664,0,.456.456,0,0,0,4.24.424V.848H3.392V.424A.456.456,0,0,0,2.968,0a.456.456,0,0,0-.424.424V.848H1.7V.424A.456.456,0,0,0,1.272,0,.456.456,0,0,0,.848.424V.848H.424A.456.456,0,0,0,0,1.272.456.456,0,0,0,.424,1.7H.848V2.12H0V25.442H5.937V19.506H19.506v5.937h5.937V2.12h-.848Zm-4.24,0V2.12H13.145V8.481a.424.424,0,0,0,0,.848v7.209h6.361v.424H5.937v-.424H12.3V2.12H5.088V1.7ZM13.993,9.329h.848a.424.424,0,0,0,0-.848h-.848V2.968h5.513V15.689H13.993ZM5.937,15.689V2.968h5.512V15.689Zm-4.24,8.9H.848V2.968H1.7ZM1.7,2.12V1.7h.848V2.12Zm1.7,22.474H2.544V2.968h.848Zm0-22.474V1.7H4.24V2.12Zm1.7,22.474H4.24V2.968h.848Zm.848-5.937V17.81H19.506v.848ZM21.2,24.594h-.848V2.968H21.2Zm0-22.474V1.7h.848V2.12Zm1.7,22.474H22.05V2.968H22.9Zm1.7,0h-.848V2.968h.848ZM22.9,2.12V1.7h.848V2.12Zm0,0"/>
</svg>
