<svg xmlns="http://www.w3.org/2000/svg" width="20.344" height="19.5" viewBox="0 0 20.344 19.5">
  <path id="Path_432" data-name="Path 432" d="M19.911,8.836a1.462,1.462,0,0,0-.81-2.49l-4.93-.718a.652.652,0,0,1-.484-.351L11.488.815a1.459,1.459,0,0,0-2.618,0L6.67,5.281a.643.643,0,0,1-.484.351l-4.93.718a1.459,1.459,0,0,0-.8,2.49l3.565,3.473a.641.641,0,0,1,.183.57l-.84,4.909a1.458,1.458,0,0,0,2.113,1.538l4.405-2.317a.658.658,0,0,1,.6,0l4.405,2.317a1.485,1.485,0,0,0,.682.168A1.462,1.462,0,0,0,17,17.794l-.845-4.909a.644.644,0,0,1,.188-.57Z" transform="translate(-0.008)" fill="#fff"/>
</svg>
