<svg xmlns="http://www.w3.org/2000/svg" width="19.168" height="19.879" viewBox="0 0 19.168 19.879">
  <g id="Group_12285" data-name="Group 12285" transform="translate(-938 -518)">
    <path id="Path_11711" data-name="Path 11711" d="M940.486,522.969a2.487,2.487,0,0,0,2.456-2.13h13.871a.354.354,0,1,0,0-.709H942.942a2.484,2.484,0,1,0-2.456,2.839Zm0-4.258a1.775,1.775,0,1,1-1.775,1.775,1.777,1.777,0,0,1,1.775-1.775Zm0,0" fill="#fff"/>
    <path id="Path_11712" data-name="Path 11712" d="M954.685,551.6a2.487,2.487,0,0,0-2.458,2.128H938.355a.355.355,0,1,0,0,.711h13.871a2.484,2.484,0,1,0,2.458-2.839Zm0,4.258a1.775,1.775,0,1,1,1.775-1.775,1.776,1.776,0,0,1-1.775,1.775Zm0,0" transform="translate(0 -18.692)" fill="#fff"/>
    <path id="Path_11713" data-name="Path 11713" d="M956.813,536.747H950.2a2.558,2.558,0,0,0-5.085,0h-6.76a.354.354,0,1,0,0,.709h6.782a2.555,2.555,0,0,0,5.038,0h6.637a.354.354,0,1,0,0-.709Zm-9.155,2.128a1.848,1.848,0,1,1,1.848-1.848,1.849,1.849,0,0,1-1.848,1.848Zm0,0" transform="translate(0 -9.161)" fill="#fff"/>
  </g>
</svg>
