<svg xmlns="http://www.w3.org/2000/svg" width="16.964" height="19.04" viewBox="0 0 16.964 19.04"><path d="M759.167,27.841a2.5,2.5,0,0,0-.737-1.778l-.579-.579h-4.013v.559h3.223l-2.38,2.38h-7.992l-2.38-2.38h8.97v-.559h-9.761l-.579.579a2.515,2.515,0,0,0,0,3.557l2.055,2.055.4-.4-2.055-2.055a1.956,1.956,0,0,1,0-2.766l.3-.3,6.656,6.655L748.607,34.5l-2.822-2.822-.4.4,3.358,3.358a4.754,4.754,0,0,0-1.616,1.17l.416.374a4.185,4.185,0,1,1-.325.411l-.459-.319a4.751,4.751,0,1,0,5.848-1.624l5.819-5.819a2.5,2.5,0,0,0,.736-1.778Zm-11.919,1.14h6.875l-3.437,3.437Zm4.788,6.242a4.743,4.743,0,0,0-2.709-.008L749,34.891l8.733-8.734.3.3a1.956,1.956,0,0,1,0,2.766Zm0,0" transform="translate(-742.203 -25.483)" fill="#fff"/><path d="M876.8,312.042a4.7,4.7,0,1,0,3.669,1.764l-.564.452a3.931,3.931,0,0,1,.869,2.481,3.974,3.974,0,1,1-1.324-2.962l.482-.538a4.688,4.688,0,0,0-3.132-1.2Zm0,0" transform="translate(-868.334 -303.84)" fill="#fff"/><path d="M917.1,356.331l-.835-1.692-.835,1.692-1.868.272,1.352,1.317-.319,1.86,1.671-.878,1.671.878-.319-1.86,1.351-1.318Zm-.124,2.128-.711-.374-.711.374.136-.792-.575-.561.795-.115.355-.72.355.72.795.115-.575.561Zm0,0" transform="translate(-907.804 -344.389)" fill="#fff"/><path d="M772.385,74.069a1.8,1.8,0,0,0,.383,1.989l.511-.511a1.081,1.081,0,0,1-.23-1.194Zm0,0" transform="translate(-770.794 -71.733)" fill="#fff"/><path d="M842.925,164.989l-.511-.511.511-.511.511.511Zm0,0" transform="translate(-838.741 -158.882)" fill="#fff"/><path d="M821.671,143.735l-.511-.511.511-.511.511.511Zm0,0" transform="translate(-818.266 -138.409)" fill="#fff"/><path d="M864.183,185.221l1.771,1.771-.511.511-1.771-1.771Zm0,0" transform="translate(-859.308 -179.458)" fill="#fff"/><rect width="2.89" height="0.723" transform="translate(3.947 1.445)" fill="#fff"/><rect width="0.723" height="0.723" transform="translate(6.856 1.445)" fill="#fff"/><rect width="0.723" height="0.723" transform="translate(7.962 1.445)" fill="#fff"/><path d="M1083.382,116.119l-.511-.511,1.328-1.328.511.511Zm0,0" transform="translate(-1070.542 -111.056)" fill="#fff"/><path d="M1121.64,73.759l-.511-.511,1.535-1.535.511.511Zm0,0" transform="translate(-1107.879 -69.491)" fill="#fff"/><path d="M1003.284,203.441l-.511-.511.964-.963.511.511Zm0,0" transform="translate(-993.287 -195.526)" fill="#fff"/><rect width="0.722" height="0.723" transform="translate(6.793 12.261)" fill="#fff"/><rect width="0.723" height="0.723" transform="translate(9.412 12.261)" fill="#fff"/><rect width="0.722" height="0.722" transform="translate(6.055 14.514)" fill="#fff"/><rect width="0.723" height="0.722" transform="translate(10.15 14.514)" fill="#fff"/><rect width="0.722" height="0.723" transform="translate(8.103 15.427)" fill="#fff"/></svg>