<svg xmlns="http://www.w3.org/2000/svg" width="20.714" height="19.04" viewBox="0 0 20.714 19.04"><path d="M999.395,119.628h-1.746a.985.985,0,0,0-.932-.67h-1.695v-.69a.984.984,0,0,0-.983-.983h-2.7v-.021a.985.985,0,0,0-.983-.983h-7.7a3.676,3.676,0,0,0-2.672,1.158,3.633,3.633,0,0,0-.982,2.747,3.729,3.729,0,0,0,3.768,3.418h.463a1.025,1.025,0,0,1,.987,1.3l-1.568,5.6a.7.7,0,0,1-.667.506.314.314,0,0,0-.314.314v3.348a.649.649,0,0,0,.649.648h5.356a.649.649,0,0,0,.649-.648v-3.013a.649.649,0,0,0-.649-.649h-.363a.356.356,0,0,1-.342-.452l1.385-4.947h1.329a.314.314,0,0,0,.287-.439,2.6,2.6,0,0,1-.056-1.569h.438a.984.984,0,0,0,.983-.983V122.6h2.7a.984.984,0,0,0,.983-.983v-.69h1.695a.985.985,0,0,0,.932-.67h1.746a.314.314,0,0,0,0-.628Zm-10.126,5.356h-.735l.387-1.381h.353a3.354,3.354,0,0,0,0,1.381Zm1.443-2.364a.356.356,0,0,1-.356.356h-1.674a.314.314,0,0,0-.3.229l-2.012,7.184a.984.984,0,0,0,.947,1.249h.363a.021.021,0,0,1,.021.021v3.013a.021.021,0,0,1-.021.021h-5.356a.021.021,0,0,1-.021-.021v-3.034h3.368a.314.314,0,1,0,0-.628H983.11a1.312,1.312,0,0,0,.148-.337l1.568-5.6a1.64,1.64,0,0,0-.275-1.445l-.021-.026h2.813a.314.314,0,1,0,0-.628h-4.017l-.032,0-.059,0h-.463a3.1,3.1,0,0,1-3.142-2.831,3.034,3.034,0,0,1,3.027-3.236h7.7a.356.356,0,0,1,.356.356Zm3.682-1a.356.356,0,0,1-.356.356h-.021v-2.7a.314.314,0,0,0-.628,0v2.7h-2.05v-4.059h2.05v.356a.314.314,0,0,0,.628,0v-.356h.021a.356.356,0,0,1,.356.356Zm2.322-1.318h-1.695v-.711h1.695a.356.356,0,0,1,0,.711Zm0,0" transform="translate(-978.995 -116.28)" fill="#fff"/><path d="M1015.257,180.28H1011.4a.4.4,0,1,0,0,.8h3.856a.4.4,0,1,0,0-.8Zm0,0" transform="translate(-1008.857 -176.964)" fill="#fff"/><path d="M1024.2,161.884h2.142a.4.4,0,1,0,0-.8H1024.2a.4.4,0,1,0,0,.8Zm0,0" transform="translate(-1020.798 -158.082)" fill="#fff"/><path d="M1026.341,199.479H1024.2a.4.4,0,1,0,0,.8h2.142a.4.4,0,1,0,0-.8Zm0,0" transform="translate(-1020.798 -195.169)" fill="#fff"/></svg>