<svg xmlns="http://www.w3.org/2000/svg" width="19.036" height="19.036" viewBox="0 0 19.036 19.036">
    <path d="M8.725,0H.4A.4.4,0,0,0,0,.4V8.725a.4.4,0,0,0,.4.4H8.725a.4.4,0,0,0,.4-.4V.4A.4.4,0,0,0,8.725,0Zm-.4,8.328H.793V.793H8.328Z"
          fill="#86ECFB"/>
    <path d="M8.725,25H.4a.4.4,0,0,0-.4.4v8.328a.4.4,0,0,0,.4.4H8.725a.4.4,0,0,0,.4-.4V25.4A.4.4,0,0,0,8.725,25Zm-.4,8.328H.793V25.793H8.328Z"
          transform="translate(0 -15.085)" fill="#86ECFB"/>
    <path d="M33.725,25H25.4a.4.4,0,0,0-.4.4v8.328a.4.4,0,0,0,.4.4h8.328a.4.4,0,0,0,.4-.4V25.4A.4.4,0,0,0,33.725,25Zm-.4,8.328H25.793V25.793h7.535Z"
          transform="translate(-15.085 -15.085)" fill="#86ECFB"/>
    <path d="M33.725,0H25.4a.4.4,0,0,0-.4.4V8.725a.4.4,0,0,0,.4.4h8.328a.4.4,0,0,0,.4-.4V.4A.4.4,0,0,0,33.725,0Zm-.4,8.328H25.793V.793h7.535Z"
          transform="translate(-15.085)" fill="#86ECFB"/>
</svg>
