<?xml version="1.0" encoding="utf-8"?>
<!-- Generator: Adobe Illustrator 22.1.0, SVG Export Plug-In . SVG Version: 6.00 Build 0)  -->
<svg version="1.1" id="Слой_1" xmlns="http://www.w3.org/2000/svg" xmlns:xlink="http://www.w3.org/1999/xlink" x="0px" y="0px"
	 width="118.2px" height="35px" viewBox="0 0 118.2 35" style="enable-background:new 0 0 118.2 35;" xml:space="preserve">
<style type="text/css">
	.st0{fill:#2E2E2E;}
	.st1{fill:#3A3A3A;}
</style>
<g>
	<g>
		<path class="st1" d="M33.9,16.9H19.4c-0.7,0-1.2-0.5-1.2-1.2V1.2c0-0.7,0.5-1.2,1.2-1.2h14.4c0.7,0,1.2,0.5,1.2,1.2v14.4
			C35.1,16.3,34.5,16.9,33.9,16.9z M19.9,15.2h13.5V1.7H19.9V15.2z"/>
		<rect x="19" y="7.6" class="st1" width="15.3" height="1.7"/>
		<rect x="25.8" y="8.3" class="st1" width="1.7" height="7.7"/>
		<path class="st1" d="M33.8,16.9H19.3c-0.7,0-1.2-0.5-1.2-1.2V1.2c0-0.7,0.5-1.2,1.2-1.2h14.4c0.7,0,1.2,0.5,1.2,1.2v14.4
			C34.9,16.3,34.4,16.9,33.8,16.9z M19.8,15.2h13.5V1.7H19.8V15.2z"/>
		<rect x="18.9" y="7.6" class="st1" width="15.3" height="1.7"/>
		<rect x="25.7" y="8.3" class="st1" width="1.7" height="7.7"/>
		<path class="st1" d="M15.6,16.8H1.2c-0.7,0-1.2-0.5-1.2-1.2V1.2C0,0.5,0.5,0,1.2,0h14.4c0.7,0,1.2,0.5,1.2,1.2v14.4
			C16.8,16.3,16.3,16.8,15.6,16.8z M1.7,15.1h13.5V1.7H1.7V15.1z"/>
		<rect x="7.6" y="0.8" class="st1" width="1.7" height="15.3"/>
		<rect x="8.2" y="7.6" class="st1" width="7.7" height="1.7"/>
		<path class="st1" d="M15.6,16.9H1.2c-0.7,0-1.2-0.5-1.2-1.2V1.3c0-0.7,0.5-1.2,1.2-1.2h14.4c0.7,0,1.2,0.5,1.2,1.2v14.4
			C16.8,16.4,16.3,16.9,15.6,16.9z M1.7,15.3h13.5V1.8H1.7V15.3z"/>
		<rect x="7.6" y="0.9" class="st1" width="1.7" height="15.3"/>
		<rect x="8.2" y="7.7" class="st1" width="7.7" height="1.7"/>
		<path class="st1" d="M15.6,35H1.2C0.5,35,0,34.5,0,33.8V19.4c0-0.7,0.5-1.2,1.2-1.2h14.4c0.7,0,1.2,0.5,1.2,1.2v14.4
			C16.8,34.5,16.3,35,15.6,35z M1.7,33.3h13.5V19.9H1.7V33.3z"/>
		<rect x="0.8" y="25.8" class="st1" width="15.3" height="1.7"/>
		<rect x="7.6" y="19.1" class="st1" width="1.7" height="7.7"/>
		<path class="st1" d="M33.8,35H19.4c-0.7,0-1.2-0.5-1.2-1.2V19.4c0-0.7,0.5-1.2,1.2-1.2h14.4c0.7,0,1.2,0.5,1.2,1.2v14.4
			C35,34.5,34.5,35,33.8,35z M19.9,33.3h13.5V19.9H19.9V33.3z"/>
		<rect x="25.8" y="19" class="st1" width="1.7" height="15.3"/>
		<rect x="19.1" y="25.8" class="st1" width="7.7" height="1.7"/>
		<g>
			<g>
				<path class="st1" d="M42.7,5h10.2v12.2h-2.7V7.4h-4.8v9.8h-2.7V5z"/>
				<path class="st1" d="M55.8,5h5c2.9,0,4.7,1.7,4.7,4.2c0,2.8-2.2,4.3-4.9,4.3h-2v3.7h-2.7V5z M60.6,11.1c1.3,0,2.1-0.8,2.1-1.9
					c0-1.2-0.8-1.8-2.2-1.8h-2.1v3.7H60.6z"/>
				<path class="st1" d="M66.9,11.1c0-3.5,2.7-6.3,6.5-6.3c3.8,0,6.5,2.8,6.5,6.3c0,3.5-2.7,6.3-6.5,6.3S66.9,14.6,66.9,11.1z
					 M77,11.1c0-2.1-1.5-3.8-3.7-3.8s-3.7,1.7-3.7,3.8c0,2.1,1.5,3.8,3.7,3.8C75.5,14.9,77,13.2,77,11.1z"/>
				<path class="st1" d="M81.7,11.1c0-3.5,2.6-6.3,6.4-6.3c2.3,0,3.6,0.9,4.7,2l-1.6,1.8c-0.9-0.9-1.7-1.4-3.1-1.4
					c-2.1,0-3.5,1.7-3.5,3.8c0,2.1,1.4,3.8,3.5,3.8c1.4,0,2.2-0.6,3.2-1.4l1.7,1.8c-1.3,1.3-2.6,2.1-5,2.1
					C84.3,17.4,81.7,14.6,81.7,11.1z"/>
				<path class="st1" d="M97.9,7.4h-3.7V5h10.1v2.5h-3.7v9.7h-2.7V7.4z"/>
				<path class="st1" d="M105.3,11.1c0-3.5,2.7-6.3,6.5-6.3c3.8,0,6.5,2.8,6.5,6.3c0,3.5-2.7,6.3-6.5,6.3
					C108,17.4,105.3,14.6,105.3,11.1z M115.4,11.1c0-2.1-1.5-3.8-3.7-3.8c-2.2,0-3.7,1.7-3.7,3.8c0,2.1,1.5,3.8,3.7,3.8
					C113.9,14.9,115.4,13.2,115.4,11.1z"/>
				<path class="st1" d="M42.1,26.1c0-2.4,1.8-4.5,4.5-4.5c2.7,0,4.5,2.1,4.5,4.5c0,2.4-1.8,4.5-4.5,4.5
					C43.9,30.6,42.1,28.5,42.1,26.1z M50,26.1c0-2-1.5-3.6-3.5-3.6s-3.4,1.6-3.4,3.6c0,2,1.5,3.6,3.5,3.6C48.6,29.7,50,28.1,50,26.1
					z"/>
				<path class="st1" d="M53.1,21.7h1v5.2l5-5.2h1.3l-3.8,3.8l3.9,4.9h-1.2L56,26.2l-1.9,1.9v2.4h-1V21.7z"/>
				<path class="st1" d="M62.2,21.7h1v3.9h5.1v-3.9h1v8.8h-1v-4h-5.1v4h-1V21.7z"/>
				<path class="st1" d="M75,21.6h0.9l4,8.8h-1.1l-1-2.3H73l-1,2.3h-1L75,21.6z M77.4,27.2l-2-4.5l-2,4.5H77.4z"/>
			</g>
		</g>
	</g>
</g>
</svg>
