<svg id="Слой_1" data-name="Слой 1" xmlns="http://www.w3.org/2000/svg" width="125" height="30" viewBox="0 0 125 30">
  <defs>
    <style>
      .cls-1 {
        fill: #353435;
      }
    </style>
  </defs>
  <title>Logo</title>
  <g>
    <path class="cls-1" d="M44.87,14.56H34.78a.83.83,0,0,1-.83-.83V3.64a.83.83,0,0,1,.83-.82H44.87a.82.82,0,0,1,.82.82V13.73A.83.83,0,0,1,44.87,14.56ZM35.11,13.4h9.43V4H35.11Z"/>
    <rect class="cls-1" x="34.49" y="8.11" width="10.67" height="1.16"/>
    <rect class="cls-1" x="39.25" y="8.56" width="1.16" height="5.36"/>
    <path class="cls-1" d="M44.78,14.56H34.69a.83.83,0,0,1-.83-.83V3.64a.83.83,0,0,1,.83-.82H44.78a.82.82,0,0,1,.82.82V13.73A.83.83,0,0,1,44.78,14.56ZM35,13.4h9.43V4H35Z"/>
    <rect class="cls-1" x="34.4" y="8.11" width="10.67" height="1.16"/>
    <rect class="cls-1" x="39.16" y="8.56" width="1.16" height="5.36"/>
    <path class="cls-1" d="M32.11,14.51H22a.82.82,0,0,1-.82-.82V3.6A.83.83,0,0,1,22,2.77H32.11a.83.83,0,0,1,.83.83V13.69A.83.83,0,0,1,32.11,14.51Zm-9.76-1.15h9.43V3.93H22.35Z"/>
    <rect class="cls-1" x="26.49" y="3.31" width="1.16" height="10.67"/>
    <rect class="cls-1" x="26.93" y="8.07" width="5.36" height="1.16"/>
    <path class="cls-1" d="M32.11,14.6H22a.82.82,0,0,1-.82-.82V3.69A.83.83,0,0,1,22,2.86H32.11a.83.83,0,0,1,.83.83V13.78A.83.83,0,0,1,32.11,14.6Zm-9.76-1.15h9.43V4H22.35Z"/>
    <rect class="cls-1" x="26.49" y="3.4" width="1.16" height="10.67"/>
    <rect class="cls-1" x="26.93" y="8.15" width="5.36" height="1.16"/>
    <path class="cls-1" d="M32.11,27.23H22a.83.83,0,0,1-.82-.83V16.31a.82.82,0,0,1,.82-.82H32.11a.83.83,0,0,1,.83.82V26.4A.83.83,0,0,1,32.11,27.23Zm-9.76-1.16h9.43V16.64H22.35Z"/>
    <rect class="cls-1" x="21.73" y="20.78" width="10.67" height="1.16"/>
    <rect class="cls-1" x="26.49" y="16.13" width="1.16" height="5.36"/>
    <path class="cls-1" d="M44.82,27.23H34.74a.83.83,0,0,1-.83-.83V16.31a.83.83,0,0,1,.83-.82H44.82a.83.83,0,0,1,.83.82V26.4A.83.83,0,0,1,44.82,27.23Zm-9.76-1.16h9.43V16.64H35.06Z"/>
    <rect class="cls-1" x="39.2" y="16.02" width="1.16" height="10.67"/>
    <rect class="cls-1" x="34.56" y="20.78" width="5.36" height="1.16"/>
    <g>
      <path class="cls-1" d="M51,6.24h7.1v8.51H56.26V7.93H52.9v6.82H51Z"/>
      <path class="cls-1" d="M60.18,6.24h3.47c2,0,3.26,1.2,3.26,3,0,2-1.53,3-3.44,3H62.05v2.55H60.18Zm3.35,4.29A1.33,1.33,0,0,0,65,9.22c0-.84-.59-1.29-1.52-1.29H62.05v2.6Z"/>
      <path class="cls-1" d="M67.92,10.5a4.53,4.53,0,1,1,4.52,4.4A4.41,4.41,0,0,1,67.92,10.5Zm7.09,0a2.59,2.59,0,0,0-2.57-2.68,2.56,2.56,0,0,0-2.56,2.68,2.58,2.58,0,0,0,2.58,2.67A2.55,2.55,0,0,0,75,10.5Z"/>
      <path class="cls-1" d="M78.26,10.5A4.34,4.34,0,0,1,82.7,6.09,4.28,4.28,0,0,1,86,7.48L84.88,8.77a2.94,2.94,0,0,0-2.19-.95,2.53,2.53,0,0,0-2.47,2.68,2.52,2.52,0,0,0,2.47,2.67,3.11,3.11,0,0,0,2.24-1l1.19,1.27a4.54,4.54,0,0,1-7.86-2.95Z"/>
      <path class="cls-1" d="M89.6,8H87V6.24h7V8H91.47v6.78H89.6Z"/>
      <path class="cls-1" d="M94.75,10.5a4.53,4.53,0,1,1,4.52,4.4A4.41,4.41,0,0,1,94.75,10.5Zm7.1,0a2.6,2.6,0,0,0-2.58-2.68,2.56,2.56,0,0,0-2.56,2.68,2.58,2.58,0,0,0,2.58,2.67A2.55,2.55,0,0,0,101.85,10.5Z"/>
      <path class="cls-1" d="M50.6,21a3.13,3.13,0,1,1,3.12,3.17A3.12,3.12,0,0,1,50.6,21Zm5.55,0a2.42,2.42,0,1,0-2.41,2.53A2.42,2.42,0,0,0,56.15,21Z"/>
      <path class="cls-1" d="M58.33,17.91H59v3.67l3.53-3.67h.89l-2.63,2.68,2.74,3.46h-.86l-2.36-3L59,22.4v1.65h-.69Z"/>
      <path class="cls-1" d="M64.63,17.91h.7v2.73h3.54V17.91h.69v6.14h-.69V21.29H65.33v2.76h-.7Z"/>
      <path class="cls-1" d="M73.57,17.87h.65L77,24.05h-.74l-.72-1.62H72.21l-.73,1.62h-.71Zm1.71,3.93-1.4-3.13-1.4,3.13Z"/>
    </g>
  </g>
</svg>
