<svg width="95" height="36" xmlns="http://www.w3.org/2000/svg"><defs><linearGradient id="a" gradientUnits="userSpaceOnUse" x1="8.5" y1="0" x2="8.5" y2="17"><stop stop-color="#d75be7" offset="0"/><stop stop-color="#bd86ee" offset="1"/></linearGradient></defs><path d="M0 21c0-1 1-2 2-2h13c1 0 2 1 2 2v13c0 1-1 2-2 2H2c-1 0-2-1-2-2z" fill="#c973eb"/><path d="M0 2c0-1 1-2 2-2h13c1 0 2 1 2 2v13c0 1-1 2-2 2H2c-1 0-2-1-2-2z" fill="url(#a)"/><text dominant-baseline="text-before-edge" style="line-height:6px;font-kerning:normal" fill="#363636" font-size="8" font-family="'Montserrat','Montserrat-SemiBold'" letter-spacing=".4" transform="translate(46 17)"><tspan>ОКНА</tspan></text><g><text dominant-baseline="text-before-edge" style="line-height:10px;font-kerning:normal" fill="#363636" font-size="10" font-family="'Montserrat','Montserrat-Bold'" font-weight="700" font-style="none" letter-spacing=".5" transform="translate(46 5)"><tspan fill="#d165e9">ПРО</tspan><tspan>СТО</tspan></text></g><g><path d="M19 2c0-1 1-2 2-2h13c1 0 2 1 2 2v13c0 1-1 2-2 2H21c-1 0-2-1-2-2z" fill="#a9b1f7"/></g><g><path d="M19 21c0-1 1-2 2-2h13c1 0 2 1 2 2v13c0 1-1 2-2 2H21c-1 0-2-1-2-2z" fill="#82dcee"/></g></svg>