<svg xmlns="http://www.w3.org/2000/svg" width="36.535" height="21.271" viewBox="0 0 36.535 21.271">
  <g id="Group_451" data-name="Group 451" transform="translate(-684.923 -97.709)">
    <g id="Group_393" data-name="Group 393" transform="translate(691.424 112.408)">
      <g id="Group_391" data-name="Group 391" transform="translate(0.106 0.106)">
        <path id="Path_475" data-name="Path 475" d="M787.5,310.764h-7.915a.282.282,0,0,1-.283-.283V308.22a.283.283,0,0,1,.283-.283H787.5a.283.283,0,0,1,.283.283v2.261A.282.282,0,0,1,787.5,310.764Zm-7.632-.565h7.349v-1.7h-7.349Z" transform="translate(-779.229 -307.866)" fill="#fff"/>
        <path id="Path_476" data-name="Path 476" d="M786.568,309.905h-7.915a.354.354,0,0,1-.353-.353V307.29a.354.354,0,0,1,.353-.353h7.915a.354.354,0,0,1,.353.353v2.261a.353.353,0,0,1-.353.353Zm-7.915-2.827a.212.212,0,0,0-.212.212v2.261a.212.212,0,0,0,.212.212h7.915a.211.211,0,0,0,.212-.212V307.29a.212.212,0,0,0-.212-.212Zm7.7,2.261h-7.491V307.5h7.491Zm-7.349-.142h7.208v-1.554h-7.208Z" transform="translate(-778.3 -306.937)" fill="#fff"/>
      </g>
      <g id="Group_392" data-name="Group 392" transform="translate(0 0)">
        <path id="Path_477" data-name="Path 477" d="M786.1,309.476h-7.915a.389.389,0,0,1-.389-.389v-2.261a.389.389,0,0,1,.389-.389H786.1a.389.389,0,0,1,.389.389v2.261a.388.388,0,0,1-.389.389Zm-7.915-2.827a.177.177,0,0,0-.177.177v2.261a.177.177,0,0,0,.177.177H786.1a.176.176,0,0,0,.177-.176v-2.261a.177.177,0,0,0-.177-.177Zm7.738,2.261h-7.561V307h7.561Zm-7.349-.212h7.137v-1.484h-7.137Z" transform="translate(-777.729 -306.366)" fill="#fff"/>
        <path id="Path_478" data-name="Path 478" d="M785.174,308.618H777.26a.46.46,0,0,1-.46-.46V305.9a.46.46,0,0,1,.46-.46h7.915a.46.46,0,0,1,.46.46v2.261a.459.459,0,0,1-.46.46Zm-7.915-3.039a.318.318,0,0,0-.318.318v2.261a.318.318,0,0,0,.318.318h7.915a.318.318,0,0,0,.318-.318V305.9a.318.318,0,0,0-.318-.318Zm7.915,2.827H777.26a.248.248,0,0,1-.247-.247V305.9a.248.248,0,0,1,.247-.247h7.915a.248.248,0,0,1,.247.247v2.261a.247.247,0,0,1-.247.247Zm-7.915-2.614a.106.106,0,0,0-.106.106v2.261a.106.106,0,0,0,.106.106h7.915a.105.105,0,0,0,.106-.106V305.9a.106.106,0,0,0-.106-.106Zm7.809,2.261h-7.7V306h7.7Zm-7.562-.142h7.42v-1.767h-7.42Zm7.349-.071h-7.278v-1.625h7.278Zm-7.137-.142h7v-1.342h-7Z" transform="translate(-776.8 -305.437)" fill="#fff"/>
      </g>
    </g>
    <g id="Group_396" data-name="Group 396" transform="translate(706.123 97.709)">
      <g id="Group_394" data-name="Group 394" transform="translate(0.106 0.106)">
        <path id="Path_479" data-name="Path 479" d="M995.221,100.776h-7.915a.283.283,0,1,1,0-.565h7.915a.283.283,0,0,1,0,.565Z" transform="translate(-986.953 -100.14)" fill="#fff"/>
        <path id="Path_480" data-name="Path 480" d="M994.291,99.917h-7.915a.353.353,0,0,1,0-.707h7.915a.353.353,0,0,1,0,.707Zm-7.915-.565a.212.212,0,0,0,0,.424h7.915a.212.212,0,0,0,0-.424Z" transform="translate(-986.023 -99.21)" fill="#fff"/>
      </g>
      <g id="Group_395" data-name="Group 395" transform="translate(0 0)">
        <path id="Path_481" data-name="Path 481" d="M993.827,99.488h-7.915a.389.389,0,1,1,0-.778h7.915a.389.389,0,0,1,0,.778Zm-7.915-.565a.177.177,0,1,0,0,.353h7.915a.177.177,0,0,0,0-.353Z" transform="translate(-985.452 -98.639)" fill="#fff"/>
        <path id="Path_482" data-name="Path 482" d="M992.9,98.629h-7.915a.46.46,0,1,1,0-.919H992.9a.46.46,0,0,1,0,.919Zm-7.915-.778a.318.318,0,1,0,0,.636H992.9a.318.318,0,0,0,0-.636Zm7.915.565h-7.915a.247.247,0,1,1,0-.495H992.9a.247.247,0,0,1,0,.495Zm-7.915-.353a.106.106,0,1,0,0,.212H992.9a.106.106,0,0,0,0-.212Z" transform="translate(-984.523 -97.71)" fill="#fff"/>
      </g>
    </g>
    <g id="Group_399" data-name="Group 399" transform="translate(699.339 97.709)">
      <g id="Group_397" data-name="Group 397" transform="translate(0.106 0.106)">
        <path id="Path_483" data-name="Path 483" d="M891.434,115.475a.283.283,0,0,1-.2-.483l14.7-14.7a.283.283,0,0,1,.4.4l-14.7,14.7A.282.282,0,0,1,891.434,115.475Z" transform="translate(-891.081 -100.139)" fill="#fff"/>
        <path id="Path_484" data-name="Path 484" d="M890.508,114.616a.354.354,0,0,1-.25-.6l14.7-14.7a.353.353,0,1,1,.5.5l-14.7,14.7A.352.352,0,0,1,890.508,114.616Zm14.7-15.264a.211.211,0,0,0-.15.062l-14.7,14.7a.212.212,0,0,0,0,.3.217.217,0,0,0,.3,0l14.7-14.7a.212.212,0,0,0-.15-.362Z" transform="translate(-890.154 -99.21)" fill="#fff"/>
      </g>
      <g id="Group_398" data-name="Group 398" transform="translate(0 0)">
        <path id="Path_485" data-name="Path 485" d="M890.043,114.187a.389.389,0,0,1-.275-.664l14.7-14.7a.389.389,0,1,1,.55.55l-14.7,14.7A.387.387,0,0,1,890.043,114.187Zm14.7-15.264a.175.175,0,0,0-.125.052l-14.7,14.7a.177.177,0,0,0,0,.25.181.181,0,0,0,.25,0l14.7-14.7a.177.177,0,0,0-.125-.3Z" transform="translate(-889.584 -98.639)" fill="#fff"/>
        <path id="Path_486" data-name="Path 486" d="M889.114,113.328a.46.46,0,0,1-.325-.785l14.7-14.7a.459.459,0,1,1,.65.65l-14.7,14.7A.457.457,0,0,1,889.114,113.328Zm14.7-15.477a.316.316,0,0,0-.225.093l-14.7,14.7a.318.318,0,1,0,.45.45l14.7-14.7a.318.318,0,0,0-.225-.543Zm-14.7,15.263a.246.246,0,0,1-.175-.421l14.7-14.7a.253.253,0,0,1,.35,0,.247.247,0,0,1,0,.35l-14.7,14.7A.247.247,0,0,1,889.114,113.114Zm14.7-15.05a.105.105,0,0,0-.075.031l-14.7,14.7a.106.106,0,0,0,0,.15.11.11,0,0,0,.15,0l14.7-14.7a.106.106,0,0,0-.075-.181Z" transform="translate(-888.655 -97.71)" fill="#fff"/>
      </g>
    </g>
    <g id="Group_402" data-name="Group 402" transform="translate(699.339 99.971)">
      <g id="Group_400" data-name="Group 400" transform="translate(0.106 0.106)">
        <path id="Path_487" data-name="Path 487" d="M891.434,147.439a.283.283,0,0,1-.2-.482l14.7-14.7a.283.283,0,0,1,.4.4l-14.7,14.7A.281.281,0,0,1,891.434,147.439Z" transform="translate(-891.081 -132.104)" fill="#fff"/>
        <path id="Path_488" data-name="Path 488" d="M890.507,146.58a.353.353,0,0,1-.25-.6l14.7-14.7a.353.353,0,1,1,.5.5l-14.7,14.7A.351.351,0,0,1,890.507,146.58Zm14.7-15.264a.21.21,0,0,0-.15.062l-14.7,14.7a.212.212,0,0,0,0,.3.217.217,0,0,0,.3,0l14.7-14.7a.212.212,0,0,0-.15-.362Z" transform="translate(-890.154 -131.175)" fill="#fff"/>
      </g>
      <g id="Group_401" data-name="Group 401" transform="translate(0 0)">
        <path id="Path_489" data-name="Path 489" d="M890.043,146.151a.389.389,0,0,1-.275-.664l14.7-14.7a.389.389,0,1,1,.55.55l-14.7,14.7A.386.386,0,0,1,890.043,146.151Zm14.7-15.264a.176.176,0,0,0-.125.052l-14.7,14.7a.177.177,0,0,0,0,.25.181.181,0,0,0,.25,0l14.7-14.7a.176.176,0,0,0-.125-.3Z" transform="translate(-889.584 -130.604)" fill="#fff"/>
        <path id="Path_490" data-name="Path 490" d="M889.115,145.293a.46.46,0,0,1-.325-.785l14.7-14.7a.459.459,0,1,1,.65.65l-14.7,14.7A.456.456,0,0,1,889.115,145.293Zm14.7-15.476a.316.316,0,0,0-.225.093l-14.7,14.7a.318.318,0,1,0,.45.45l14.7-14.7a.318.318,0,0,0-.225-.543Zm-14.7,15.262a.246.246,0,0,1-.175-.421l14.7-14.7a.253.253,0,0,1,.35,0,.247.247,0,0,1,0,.35l-14.7,14.7A.247.247,0,0,1,889.115,145.079Zm14.7-15.05a.105.105,0,0,0-.075.031l-14.7,14.7a.106.106,0,0,0,0,.15.11.11,0,0,0,.15,0l14.7-14.7a.106.106,0,0,0-.075-.181Z" transform="translate(-888.656 -129.675)" fill="#fff"/>
      </g>
    </g>
    <g id="Group_405" data-name="Group 405" transform="translate(691.425 97.709)">
      <g id="Group_403" data-name="Group 403" transform="translate(0.106 0.106)">
        <path id="Path_491" data-name="Path 491" d="M779.583,115.475a.283.283,0,0,1-.2-.483l14.7-14.7a.283.283,0,0,1,.4.4l-14.7,14.7A.282.282,0,0,1,779.583,115.475Z" transform="translate(-779.23 -100.139)" fill="#fff"/>
        <path id="Path_492" data-name="Path 492" d="M778.657,114.616a.353.353,0,0,1-.25-.6l14.7-14.7a.353.353,0,0,1,.5.5l-14.7,14.7A.351.351,0,0,1,778.657,114.616Zm14.7-15.264a.211.211,0,0,0-.15.062l-14.7,14.7a.212.212,0,0,0,0,.3.217.217,0,0,0,.3,0l14.7-14.7a.212.212,0,0,0-.15-.362Z" transform="translate(-778.304 -99.21)" fill="#fff"/>
      </g>
      <g id="Group_404" data-name="Group 404" transform="translate(0 0)">
        <path id="Path_493" data-name="Path 493" d="M778.193,114.187a.389.389,0,0,1-.275-.664l14.7-14.7a.389.389,0,0,1,.55.55l-14.7,14.7A.387.387,0,0,1,778.193,114.187Zm14.7-15.264a.176.176,0,0,0-.125.052l-14.7,14.7a.177.177,0,0,0,0,.25.181.181,0,0,0,.25,0l14.7-14.7a.177.177,0,0,0-.125-.3Z" transform="translate(-777.734 -98.639)" fill="#fff"/>
        <path id="Path_494" data-name="Path 494" d="M777.264,113.328a.46.46,0,0,1-.325-.785l14.7-14.7a.459.459,0,0,1,.65.65l-14.7,14.7A.457.457,0,0,1,777.264,113.328Zm14.7-15.477a.316.316,0,0,0-.225.093l-14.7,14.7a.318.318,0,1,0,.45.45l14.7-14.7a.318.318,0,0,0-.225-.543Zm-14.7,15.263a.246.246,0,0,1-.175-.421l14.7-14.7a.253.253,0,0,1,.35,0,.248.248,0,0,1,0,.35l-14.7,14.7A.247.247,0,0,1,777.264,113.114Zm14.7-15.05a.105.105,0,0,0-.075.031l-14.7,14.7a.106.106,0,0,0,0,.15.11.11,0,0,0,.15,0l14.7-14.7a.106.106,0,0,0,0-.15A.1.1,0,0,0,791.963,98.064Z" transform="translate(-776.805 -97.71)" fill="#fff"/>
      </g>
    </g>
    <g id="Group_408" data-name="Group 408" transform="translate(714.038 97.709)">
      <g id="Group_406" data-name="Group 406" transform="translate(0.106 0.106)">
        <path id="Path_495" data-name="Path 495" d="M1099.157,103.037a.283.283,0,0,1-.283-.283v-2.262a.283.283,0,1,1,.565,0v2.262A.282.282,0,0,1,1099.157,103.037Z" transform="translate(-1098.803 -100.139)" fill="#fff"/>
        <path id="Path_496" data-name="Path 496" d="M1098.228,102.178a.354.354,0,0,1-.353-.354V99.563a.353.353,0,1,1,.707,0v2.262A.354.354,0,0,1,1098.228,102.178Zm0-2.827a.212.212,0,0,0-.212.212v2.262a.212.212,0,1,0,.424,0V99.563A.212.212,0,0,0,1098.228,99.351Z" transform="translate(-1097.874 -99.209)" fill="#fff"/>
      </g>
      <g id="Group_407" data-name="Group 407" transform="translate(0 0)">
        <path id="Path_497" data-name="Path 497" d="M1097.763,101.749a.389.389,0,0,1-.389-.389V99.1a.389.389,0,1,1,.778,0v2.262A.389.389,0,0,1,1097.763,101.749Zm0-2.827a.177.177,0,0,0-.176.177v2.262a.176.176,0,1,0,.353,0V99.1A.177.177,0,0,0,1097.763,98.921Z" transform="translate(-1097.303 -98.638)" fill="#fff"/>
        <path id="Path_498" data-name="Path 498" d="M1096.834,100.89a.46.46,0,0,1-.46-.46V98.169a.46.46,0,1,1,.919,0v2.262A.46.46,0,0,1,1096.834,100.89Zm0-3.04a.319.319,0,0,0-.318.318v2.262a.318.318,0,1,0,.636,0V98.169A.318.318,0,0,0,1096.834,97.851Zm0,2.827a.248.248,0,0,1-.247-.247V98.169a.247.247,0,1,1,.494,0v2.262A.247.247,0,0,1,1096.834,100.678Zm0-2.615a.106.106,0,0,0-.106.106v2.262a.106.106,0,1,0,.211,0V98.169A.106.106,0,0,0,1096.834,98.063Z" transform="translate(-1096.374 -97.709)" fill="#fff"/>
      </g>
    </g>
    <g id="Group_411" data-name="Group 411" transform="translate(699.056 101.102)">
      <g id="Group_409" data-name="Group 409" transform="translate(0.106 0.106)">
        <path id="Path_499" data-name="Path 499" d="M887.439,150.416a.283.283,0,0,1-.2-.483l1.7-1.7a.283.283,0,0,1,.4.4l-1.7,1.7A.282.282,0,0,1,887.439,150.416Z" transform="translate(-887.085 -148.083)" fill="#fff"/>
        <path id="Path_500" data-name="Path 500" d="M886.509,149.557a.353.353,0,0,1-.25-.6l1.7-1.7a.353.353,0,1,1,.5.5l-1.7,1.7A.352.352,0,0,1,886.509,149.557Zm1.7-2.261a.211.211,0,0,0-.15.062l-1.7,1.7a.212.212,0,0,0,0,.3.217.217,0,0,0,.3,0l1.7-1.7a.212.212,0,0,0-.15-.362Z" transform="translate(-886.156 -147.154)" fill="#fff"/>
      </g>
      <g id="Group_410" data-name="Group 410" transform="translate(0 0)">
        <path id="Path_501" data-name="Path 501" d="M886.045,149.128a.389.389,0,0,1-.275-.664l1.7-1.7a.389.389,0,1,1,.55.55l-1.7,1.7A.386.386,0,0,1,886.045,149.128Zm1.7-2.261a.176.176,0,0,0-.125.052l-1.7,1.7a.176.176,0,0,0,0,.25.181.181,0,0,0,.25,0l1.7-1.7a.177.177,0,0,0-.125-.3Z" transform="translate(-885.585 -146.583)" fill="#fff"/>
        <path id="Path_502" data-name="Path 502" d="M885.116,148.269a.46.46,0,0,1-.325-.785l1.7-1.7a.46.46,0,1,1,.65.65l-1.7,1.7A.456.456,0,0,1,885.116,148.269Zm1.7-2.474a.316.316,0,0,0-.225.093l-1.7,1.7a.318.318,0,1,0,.45.45l1.7-1.7a.318.318,0,0,0-.225-.543Zm-1.7,2.26a.246.246,0,0,1-.175-.42l1.7-1.7a.253.253,0,0,1,.35,0,.247.247,0,0,1,0,.35l-1.7,1.7a.249.249,0,0,1-.175.071Zm1.7-2.047a.106.106,0,0,0-.075.031l-1.7,1.7a.106.106,0,0,0,0,.15.114.114,0,0,0,.15,0l1.7-1.7a.106.106,0,0,0-.075-.181Z" transform="translate(-884.656 -145.654)" fill="#fff"/>
      </g>
    </g>
    <g id="Group_414" data-name="Group 414" transform="translate(684.923 115.8)">
      <g id="Group_412" data-name="Group 412" transform="translate(0.106 0.106)">
        <path id="Path_503" data-name="Path 503" d="M695.621,358.7h-7.915a.282.282,0,0,1-.283-.283v-2.261a.283.283,0,0,1,.283-.283h7.915a.283.283,0,0,1,.283.283v2.261A.282.282,0,0,1,695.621,358.7Zm-7.632-.565h7.349v-1.7h-7.349Z" transform="translate(-687.353 -355.803)" fill="#fff"/>
        <path id="Path_504" data-name="Path 504" d="M694.692,357.842h-7.915a.354.354,0,0,1-.353-.353v-2.261a.354.354,0,0,1,.353-.353h7.915a.354.354,0,0,1,.353.353v2.261A.354.354,0,0,1,694.692,357.842Zm-7.915-2.827a.212.212,0,0,0-.212.212v2.261a.212.212,0,0,0,.212.212h7.915a.212.212,0,0,0,.212-.212v-2.261a.212.212,0,0,0-.212-.212Zm7.7,2.261h-7.491v-1.838h7.491Zm-7.349-.142h7.208v-1.555h-7.208Z" transform="translate(-686.424 -354.874)" fill="#fff"/>
      </g>
      <g id="Group_413" data-name="Group 413" transform="translate(0 0)">
        <path id="Path_505" data-name="Path 505" d="M694.227,357.413h-7.915a.389.389,0,0,1-.389-.389v-2.261a.389.389,0,0,1,.389-.389h7.915a.389.389,0,0,1,.389.389v2.261A.389.389,0,0,1,694.227,357.413Zm-7.915-2.827a.177.177,0,0,0-.177.176v2.261a.177.177,0,0,0,.177.176h7.915a.177.177,0,0,0,.177-.176v-2.261a.177.177,0,0,0-.177-.176Zm7.738,2.261h-7.562v-1.908h7.562Zm-7.349-.212h7.137v-1.484H686.7Z" transform="translate(-685.853 -354.303)" fill="#fff"/>
        <path id="Path_506" data-name="Path 506" d="M693.3,356.554h-7.915a.46.46,0,0,1-.46-.46v-2.261a.46.46,0,0,1,.46-.46H693.3a.46.46,0,0,1,.46.46v2.261A.46.46,0,0,1,693.3,356.554Zm-7.915-3.039a.318.318,0,0,0-.318.318v2.261a.318.318,0,0,0,.318.318H693.3a.318.318,0,0,0,.318-.318v-2.261a.318.318,0,0,0-.318-.318Zm7.915,2.827h-7.915a.247.247,0,0,1-.247-.247v-2.261a.247.247,0,0,1,.247-.247H693.3a.248.248,0,0,1,.247.247v2.261A.247.247,0,0,1,693.3,356.342Zm-7.915-2.614a.106.106,0,0,0-.106.106v2.261a.106.106,0,0,0,.106.106H693.3a.106.106,0,0,0,.106-.106v-2.261a.106.106,0,0,0-.106-.106Zm7.809,2.261h-7.7v-2.05h7.7Zm-7.562-.142h7.42v-1.767h-7.42Zm7.349-.071H685.7v-1.625h7.279Zm-7.137-.142h7v-1.342h-7Z" transform="translate(-684.924 -353.374)" fill="#fff"/>
      </g>
    </g>
    <g id="Group_417" data-name="Group 417" transform="translate(699.622 101.1)">
      <g id="Group_415" data-name="Group 415" transform="translate(0.106 0.106)">
        <path id="Path_507" data-name="Path 507" d="M897.408,148.7h-1.98a.283.283,0,1,1,0-.565h1.98a.283.283,0,1,1,0,.565Z" transform="translate(-895.075 -148.06)" fill="#fff"/>
        <path id="Path_508" data-name="Path 508" d="M896.479,147.837H894.5a.353.353,0,0,1,0-.707h1.98a.353.353,0,0,1,0,.707Zm-1.98-.565a.212.212,0,0,0,0,.424h1.98a.212.212,0,0,0,0-.424Z" transform="translate(-894.146 -147.13)" fill="#fff"/>
      </g>
      <g id="Group_416" data-name="Group 416" transform="translate(0 0)">
        <path id="Path_509" data-name="Path 509" d="M896.015,147.408h-1.98a.389.389,0,0,1,0-.778h1.98a.389.389,0,0,1,0,.778Zm-1.98-.565a.177.177,0,0,0,0,.353h1.98a.177.177,0,0,0,0-.353Z" transform="translate(-893.575 -146.559)" fill="#fff"/>
        <path id="Path_510" data-name="Path 510" d="M895.085,146.549h-1.98a.46.46,0,0,1,0-.919h1.98a.46.46,0,0,1,0,.919Zm-1.98-.778a.318.318,0,0,0,0,.636h1.98a.318.318,0,0,0,0-.636Zm1.98.565h-1.98a.247.247,0,0,1,0-.495h1.98a.247.247,0,0,1,0,.495Zm-1.98-.353a.106.106,0,0,0,0,.212h1.98a.106.106,0,0,0,0-.212Z" transform="translate(-892.646 -145.63)" fill="#fff"/>
      </g>
    </g>
    <g id="Group_420" data-name="Group 420" transform="translate(692.838 115.818)">
      <g id="Group_418" data-name="Group 418" transform="translate(0.106 0.106)">
        <path id="Path_511" data-name="Path 511" d="M799.557,358.932a.283.283,0,0,1-.2-.482l2.244-2.244a.283.283,0,0,1,.4.4l-2.244,2.244A.282.282,0,0,1,799.557,358.932Z" transform="translate(-799.203 -356.052)" fill="#fff"/>
        <path id="Path_512" data-name="Path 512" d="M798.627,358.073a.353.353,0,0,1-.25-.6l2.244-2.244a.353.353,0,1,1,.5.5l-2.244,2.244A.351.351,0,0,1,798.627,358.073Zm2.244-2.809a.211.211,0,0,0-.15.062l-2.244,2.244a.212.212,0,0,0,0,.3.217.217,0,0,0,.3,0l2.244-2.244a.212.212,0,0,0-.15-.362Z" transform="translate(-798.274 -355.123)" fill="#fff"/>
      </g>
      <g id="Group_419" data-name="Group 419" transform="translate(0 0)">
        <path id="Path_513" data-name="Path 513" d="M798.163,357.644a.389.389,0,0,1-.275-.664l2.244-2.244a.389.389,0,1,1,.55.55l-2.244,2.244A.386.386,0,0,1,798.163,357.644Zm2.244-2.809a.176.176,0,0,0-.125.052l-2.244,2.244a.176.176,0,0,0,0,.249.181.181,0,0,0,.25,0l2.244-2.244a.177.177,0,0,0-.125-.3Z" transform="translate(-797.703 -354.552)" fill="#fff"/>
        <path id="Path_514" data-name="Path 514" d="M797.234,356.786a.459.459,0,0,1-.325-.784l2.244-2.244a.459.459,0,1,1,.65.65l-2.244,2.244A.456.456,0,0,1,797.234,356.786Zm2.244-3.021a.316.316,0,0,0-.225.093l-2.244,2.244a.318.318,0,0,0,.45.45l2.244-2.244a.318.318,0,0,0-.225-.543Zm-2.244,2.808a.246.246,0,0,1-.175-.421l2.244-2.244a.253.253,0,0,1,.35,0,.247.247,0,0,1,0,.35l-2.244,2.244A.247.247,0,0,1,797.234,356.572Zm2.244-2.6a.1.1,0,0,0-.075.031l-2.244,2.244a.106.106,0,0,0,0,.149.11.11,0,0,0,.15,0l2.244-2.244a.106.106,0,0,0,0-.149A.1.1,0,0,0,799.477,353.977Z" transform="translate(-796.774 -353.623)" fill="#fff"/>
      </g>
    </g>
    <g id="Group_423" data-name="Group 423" transform="translate(684.923 101.101)">
      <g id="Group_421" data-name="Group 421" transform="translate(0.106 0.106)">
        <path id="Path_515" data-name="Path 515" d="M687.706,163.411a.283.283,0,0,1-.2-.483l14.7-14.7a.283.283,0,0,1,.4.4l-14.7,14.7A.282.282,0,0,1,687.706,163.411Z" transform="translate(-687.353 -148.075)" fill="#fff"/>
        <path id="Path_516" data-name="Path 516" d="M686.776,162.552a.353.353,0,0,1-.25-.6l14.7-14.7a.353.353,0,1,1,.5.5l-14.7,14.7A.351.351,0,0,1,686.776,162.552Zm14.7-15.264a.211.211,0,0,0-.15.062l-14.7,14.7a.212.212,0,0,0,0,.3.217.217,0,0,0,.3,0l14.7-14.7a.212.212,0,0,0-.15-.362Z" transform="translate(-686.423 -147.146)" fill="#fff"/>
      </g>
      <g id="Group_422" data-name="Group 422" transform="translate(0 0)">
        <path id="Path_517" data-name="Path 517" d="M686.312,162.123a.389.389,0,0,1-.275-.664l14.7-14.7a.389.389,0,1,1,.55.55l-14.7,14.7A.386.386,0,0,1,686.312,162.123Zm14.7-15.264a.175.175,0,0,0-.125.052l-14.7,14.7a.177.177,0,0,0,0,.25.181.181,0,0,0,.25,0l14.7-14.7a.177.177,0,0,0-.125-.3Z" transform="translate(-685.852 -146.575)" fill="#fff"/>
        <path id="Path_518" data-name="Path 518" d="M685.383,161.264a.46.46,0,0,1-.325-.784l14.7-14.7a.459.459,0,1,1,.65.65l-14.7,14.7A.457.457,0,0,1,685.383,161.264Zm14.7-15.477a.316.316,0,0,0-.225.093l-14.7,14.7a.318.318,0,0,0,.45.45l14.7-14.7a.318.318,0,0,0-.225-.543Zm-14.7,15.263a.246.246,0,0,1-.175-.421l14.7-14.7a.253.253,0,0,1,.35,0,.247.247,0,0,1,0,.35l-14.7,14.7A.247.247,0,0,1,685.383,161.05ZM700.081,146a.105.105,0,0,0-.075.031l-14.7,14.7a.106.106,0,0,0,0,.15.11.11,0,0,0,.15,0l14.7-14.7a.106.106,0,0,0-.075-.18Z" transform="translate(-684.923 -145.646)" fill="#fff"/>
      </g>
    </g>
    <g id="Group_426" data-name="Group 426" transform="translate(697.926 115.8)">
      <g id="Group_424" data-name="Group 424" transform="translate(0.106 0.106)">
        <path id="Path_519" data-name="Path 519" d="M879.375,358.7h-7.915a.282.282,0,0,1-.283-.283v-2.261a.283.283,0,0,1,.283-.283h7.915a.283.283,0,0,1,.283.283v2.261A.282.282,0,0,1,879.375,358.7Zm-7.632-.565h7.349v-1.7h-7.349Z" transform="translate(-871.107 -355.803)" fill="#fff"/>
        <path id="Path_520" data-name="Path 520" d="M878.446,357.842h-7.915a.354.354,0,0,1-.353-.353v-2.261a.354.354,0,0,1,.353-.353h7.915a.354.354,0,0,1,.353.353v2.261A.354.354,0,0,1,878.446,357.842Zm-7.915-2.827a.212.212,0,0,0-.212.212v2.261a.212.212,0,0,0,.212.212h7.915a.212.212,0,0,0,.212-.212v-2.261a.212.212,0,0,0-.212-.212Zm7.7,2.261h-7.491v-1.838h7.491Zm-7.349-.142h7.208v-1.555h-7.208Z" transform="translate(-870.178 -354.874)" fill="#fff"/>
      </g>
      <g id="Group_425" data-name="Group 425" transform="translate(0 0)">
        <path id="Path_521" data-name="Path 521" d="M877.981,357.413h-7.915a.389.389,0,0,1-.389-.389v-2.261a.389.389,0,0,1,.389-.389h7.915a.389.389,0,0,1,.389.389v2.261A.389.389,0,0,1,877.981,357.413Zm-7.915-2.827a.177.177,0,0,0-.177.176v2.261a.177.177,0,0,0,.177.176h7.915a.177.177,0,0,0,.177-.176v-2.261a.177.177,0,0,0-.177-.176Zm7.738,2.261h-7.562v-1.908H877.8Zm-7.349-.212h7.137v-1.484h-7.137Z" transform="translate(-869.607 -354.303)" fill="#fff"/>
        <path id="Path_522" data-name="Path 522" d="M877.052,356.554h-7.915a.46.46,0,0,1-.46-.46v-2.261a.46.46,0,0,1,.46-.46h7.915a.46.46,0,0,1,.46.46v2.261A.46.46,0,0,1,877.052,356.554Zm-7.915-3.039a.318.318,0,0,0-.318.318v2.261a.318.318,0,0,0,.318.318h7.915a.318.318,0,0,0,.318-.318v-2.261a.318.318,0,0,0-.318-.318Zm7.915,2.827h-7.915a.247.247,0,0,1-.247-.247v-2.261a.248.248,0,0,1,.247-.247h7.915a.248.248,0,0,1,.247.247v2.261A.248.248,0,0,1,877.052,356.342Zm-7.915-2.614a.106.106,0,0,0-.106.106v2.261a.106.106,0,0,0,.106.106h7.915a.106.106,0,0,0,.106-.106v-2.261a.106.106,0,0,0-.106-.106Zm7.809,2.261h-7.7v-2.05h7.7Zm-7.562-.142h7.42v-1.767h-7.42Zm7.349-.071h-7.279v-1.625h7.279Zm-7.137-.142h7v-1.342h-7Z" transform="translate(-868.678 -353.374)" fill="#fff"/>
      </g>
    </g>
    <g id="Group_429" data-name="Group 429" transform="translate(714.04 101.101)">
      <g id="Group_427" data-name="Group 427" transform="translate(0.106 0.106)">
        <path id="Path_523" data-name="Path 523" d="M1105.694,148.712h-6.5a.283.283,0,0,1,0-.565h6.5a.283.283,0,0,1,0,.565Z" transform="translate(-1098.842 -148.076)" fill="#fff"/>
        <path id="Path_524" data-name="Path 524" d="M1104.765,147.853h-6.5a.353.353,0,1,1,0-.707h6.5a.353.353,0,0,1,0,.707Zm-6.5-.565a.212.212,0,0,0,0,.424h6.5a.212.212,0,1,0,0-.424Z" transform="translate(-1097.913 -147.146)" fill="#fff"/>
      </g>
      <g id="Group_428" data-name="Group 428" transform="translate(0 0)">
        <path id="Path_525" data-name="Path 525" d="M1104.3,147.424h-6.5a.389.389,0,1,1,0-.778h6.5a.389.389,0,1,1,0,.778Zm-6.5-.565a.177.177,0,1,0,0,.353h6.5a.177.177,0,1,0,0-.353Z" transform="translate(-1097.342 -146.575)" fill="#fff"/>
        <path id="Path_526" data-name="Path 526" d="M1103.371,146.565h-6.5a.46.46,0,0,1,0-.919h6.5a.46.46,0,1,1,0,.919Zm-6.5-.778a.318.318,0,1,0,0,.636h6.5a.318.318,0,0,0,0-.636Zm6.5.565h-6.5a.247.247,0,0,1,0-.495h6.5a.247.247,0,0,1,0,.495Zm-6.5-.353a.106.106,0,1,0,0,.212h6.5a.106.106,0,0,0,0-.212Z" transform="translate(-1096.413 -145.646)" fill="#fff"/>
      </g>
    </g>
    <g id="Group_432" data-name="Group 432" transform="translate(705.84 101.101)">
      <g id="Group_430" data-name="Group 430" transform="translate(0.106 0.106)">
        <path id="Path_527" data-name="Path 527" d="M983.311,163.411a.283.283,0,0,1-.2-.483l14.7-14.7a.283.283,0,0,1,.4.4l-14.7,14.7A.282.282,0,0,1,983.311,163.411Z" transform="translate(-982.958 -148.075)" fill="#fff"/>
        <path id="Path_528" data-name="Path 528" d="M982.381,162.552a.353.353,0,0,1-.25-.6l14.7-14.7a.353.353,0,1,1,.5.5l-14.7,14.7A.352.352,0,0,1,982.381,162.552Zm14.7-15.264a.211.211,0,0,0-.15.062l-14.7,14.7a.212.212,0,0,0,0,.3.217.217,0,0,0,.3,0l14.7-14.7a.212.212,0,0,0-.15-.362Z" transform="translate(-982.028 -147.146)" fill="#fff"/>
      </g>
      <g id="Group_431" data-name="Group 431" transform="translate(0 0)">
        <path id="Path_529" data-name="Path 529" d="M981.917,162.123a.389.389,0,0,1-.275-.664l14.7-14.7a.389.389,0,1,1,.55.55l-14.7,14.7A.387.387,0,0,1,981.917,162.123Zm14.7-15.264a.175.175,0,0,0-.125.052l-14.7,14.7a.176.176,0,0,0,0,.25.181.181,0,0,0,.25,0l14.7-14.7a.177.177,0,0,0-.125-.3Z" transform="translate(-981.457 -146.575)" fill="#fff"/>
        <path id="Path_530" data-name="Path 530" d="M980.988,161.264a.459.459,0,0,1-.325-.785l14.7-14.7a.459.459,0,1,1,.65.65l-14.7,14.7A.457.457,0,0,1,980.988,161.264Zm14.7-15.477a.316.316,0,0,0-.225.093l-14.7,14.7a.318.318,0,1,0,.45.45l14.7-14.7a.318.318,0,0,0-.225-.543Zm-14.7,15.263a.246.246,0,0,1-.175-.421l14.7-14.7a.253.253,0,0,1,.35,0,.247.247,0,0,1,0,.35l-14.7,14.7A.247.247,0,0,1,980.988,161.05ZM995.686,146a.105.105,0,0,0-.075.031l-14.7,14.7a.106.106,0,0,0,0,.15.11.11,0,0,0,.15,0l14.7-14.7a.106.106,0,0,0-.075-.18Z" transform="translate(-980.528 -145.646)" fill="#fff"/>
      </g>
    </g>
    <g id="Group_435" data-name="Group 435" transform="translate(705.84 103.363)">
      <g id="Group_433" data-name="Group 433" transform="translate(0.106 0.106)">
        <path id="Path_531" data-name="Path 531" d="M983.311,195.376a.283.283,0,0,1-.2-.482l14.7-14.7a.283.283,0,1,1,.4.4l-14.7,14.7A.282.282,0,0,1,983.311,195.376Z" transform="translate(-982.958 -180.041)" fill="#fff"/>
        <path id="Path_532" data-name="Path 532" d="M982.381,194.517a.353.353,0,0,1-.25-.6l14.7-14.7a.353.353,0,1,1,.5.5l-14.7,14.7A.351.351,0,0,1,982.381,194.517Zm14.7-15.264a.21.21,0,0,0-.15.062l-14.7,14.7a.212.212,0,0,0,0,.3.217.217,0,0,0,.3,0l14.7-14.7a.212.212,0,0,0-.15-.362Z" transform="translate(-982.028 -179.112)" fill="#fff"/>
      </g>
      <g id="Group_434" data-name="Group 434">
        <path id="Path_533" data-name="Path 533" d="M981.917,194.088a.389.389,0,0,1-.275-.664l14.7-14.7a.389.389,0,0,1,.55.55l-14.7,14.7A.387.387,0,0,1,981.917,194.088Zm14.7-15.264a.175.175,0,0,0-.125.052l-14.7,14.7a.176.176,0,0,0,0,.249.181.181,0,0,0,.25,0l14.7-14.7a.177.177,0,0,0-.125-.3Z" transform="translate(-981.457 -178.541)" fill="#fff"/>
        <path id="Path_534" data-name="Path 534" d="M980.988,193.229a.459.459,0,0,1-.325-.784l14.7-14.7a.46.46,0,1,1,.65.65l-14.7,14.7A.457.457,0,0,1,980.988,193.229Zm14.7-15.476a.316.316,0,0,0-.225.093l-14.7,14.7a.318.318,0,1,0,.45.45l14.7-14.7a.318.318,0,0,0-.225-.543Zm-14.7,15.262a.246.246,0,0,1-.175-.42l14.7-14.7a.253.253,0,0,1,.35,0,.247.247,0,0,1,0,.35l-14.7,14.7a.248.248,0,0,1-.175.071Zm14.7-15.05a.105.105,0,0,0-.075.031l-14.7,14.7a.106.106,0,0,0,0,.149.114.114,0,0,0,.15,0l14.7-14.7a.106.106,0,0,0-.075-.181Z" transform="translate(-980.528 -177.612)" fill="#fff"/>
      </g>
    </g>
    <g id="Group_438" data-name="Group 438" transform="translate(700.752 113.539)">
      <g id="Group_436" data-name="Group 436" transform="translate(0.106 0.106)">
        <path id="Path_535" data-name="Path 535" d="M911.407,326.743a.283.283,0,0,1-.2-.482L913.468,324a.283.283,0,0,1,.4.4l-2.261,2.261A.282.282,0,0,1,911.407,326.743Z" transform="translate(-911.053 -323.846)" fill="#fff"/>
        <path id="Path_536" data-name="Path 536" d="M910.478,325.884a.353.353,0,0,1-.25-.6l2.261-2.261a.353.353,0,1,1,.5.5l-2.261,2.261A.351.351,0,0,1,910.478,325.884Zm2.261-2.827a.211.211,0,0,0-.15.062l-2.261,2.261a.212.212,0,0,0,0,.3.217.217,0,0,0,.3,0l2.261-2.261a.212.212,0,0,0-.15-.362Z" transform="translate(-910.124 -322.916)" fill="#fff"/>
      </g>
      <g id="Group_437" data-name="Group 437" transform="translate(0)">
        <path id="Path_537" data-name="Path 537" d="M910.013,325.455a.389.389,0,0,1-.275-.664L912,322.53a.389.389,0,1,1,.55.55l-2.261,2.261A.386.386,0,0,1,910.013,325.455Zm2.261-2.827a.176.176,0,0,0-.125.052l-2.261,2.261a.177.177,0,0,0,0,.25.181.181,0,0,0,.25,0l2.261-2.261a.177.177,0,0,0-.125-.3Z" transform="translate(-909.553 -322.345)" fill="#fff"/>
        <path id="Path_538" data-name="Path 538" d="M909.084,324.6a.459.459,0,0,1-.325-.785l2.261-2.261a.459.459,0,1,1,.65.65l-2.261,2.261A.456.456,0,0,1,909.084,324.6Zm2.261-3.039a.316.316,0,0,0-.225.093l-2.261,2.261a.318.318,0,1,0,.45.45l2.261-2.261a.318.318,0,0,0-.225-.543Zm-2.261,2.825h0a.249.249,0,0,1-.175-.071.247.247,0,0,1,0-.35l2.261-2.261a.253.253,0,0,1,.35,0,.247.247,0,0,1,0,.35l-2.261,2.261A.247.247,0,0,1,909.084,324.383Zm2.261-2.613a.1.1,0,0,0-.075.031l-2.261,2.261a.106.106,0,0,0,0,.15.106.106,0,0,0,.075.029h0a.106.106,0,0,0,.074-.029l2.261-2.262a.106.106,0,0,0-.075-.181Z" transform="translate(-908.624 -321.416)" fill="#fff"/>
      </g>
    </g>
    <g id="Group_441" data-name="Group 441" transform="translate(703.579 111.843)">
      <g id="Group_439" data-name="Group 439" transform="translate(0.106 0.106)">
        <path id="Path_539" data-name="Path 539" d="M951.354,304.47a.283.283,0,0,1-.2-.483l3.957-3.956a.283.283,0,1,1,.4.4l-3.957,3.956A.282.282,0,0,1,951.354,304.47Z" transform="translate(-951 -299.877)" fill="#fff"/>
        <path id="Path_540" data-name="Path 540" d="M950.424,303.61a.353.353,0,0,1-.25-.6l3.957-3.956a.353.353,0,1,1,.5.5l-3.957,3.956A.352.352,0,0,1,950.424,303.61Zm3.957-4.522a.211.211,0,0,0-.15.062l-3.957,3.956a.212.212,0,0,0,0,.3.217.217,0,0,0,.3,0l3.957-3.956a.212.212,0,0,0-.15-.362Z" transform="translate(-950.071 -298.947)" fill="#fff"/>
      </g>
      <g id="Group_440" data-name="Group 440" transform="translate(0)">
        <path id="Path_541" data-name="Path 541" d="M949.96,303.181a.389.389,0,0,1-.275-.664l3.957-3.956a.389.389,0,1,1,.55.55l-3.957,3.956A.386.386,0,0,1,949.96,303.181Zm3.957-4.522a.175.175,0,0,0-.125.052l-3.957,3.956a.176.176,0,0,0,0,.25.181.181,0,0,0,.25,0l3.957-3.956a.177.177,0,0,0-.125-.3Z" transform="translate(-949.5 -298.376)" fill="#fff"/>
        <path id="Path_542" data-name="Path 542" d="M949.031,302.322a.459.459,0,0,1-.325-.785l3.957-3.956a.459.459,0,1,1,.65.65l-3.957,3.956A.456.456,0,0,1,949.031,302.322Zm3.957-4.734a.316.316,0,0,0-.225.093l-3.957,3.956a.318.318,0,1,0,.45.45l3.957-3.956a.318.318,0,0,0-.225-.543Zm-3.958,4.52a.246.246,0,0,1-.174-.42l3.957-3.956a.253.253,0,0,1,.35,0,.247.247,0,0,1,0,.35l-3.957,3.956a.249.249,0,0,1-.175.071Zm3.958-4.308a.105.105,0,0,0-.075.031l-3.957,3.956a.1.1,0,0,0,.074.179h0a.107.107,0,0,0,.075-.029l3.957-3.956a.106.106,0,0,0-.075-.181Z" transform="translate(-948.571 -297.447)" fill="#fff"/>
      </g>
    </g>
    <g id="Group_444" data-name="Group 444" transform="translate(712.457 101.126)">
      <g id="Group_442" data-name="Group 442" transform="translate(0.15 0.106)">
        <path id="Path_543" data-name="Path 543" d="M1077.975,151.388l-.4-.4,2.415-2.415a.283.283,0,0,1,.4.4Z" transform="translate(-1077.475 -148.421)" fill="#fff"/>
        <path id="Path_544" data-name="Path 544" d="M1076.661,150.561l-.5-.5,2.465-2.465a.354.354,0,0,1,.5.5Zm-.3-.5.3.3,2.365-2.364a.212.212,0,0,0,0-.3.213.213,0,0,0-.3,0Z" transform="translate(-1076.161 -147.494)" fill="#fff"/>
      </g>
      <g id="Group_443" data-name="Group 443" transform="translate(0 0)">
        <path id="Path_545" data-name="Path 545" d="M1076,150.147l-.55-.55,2.49-2.49a.389.389,0,0,1,.55.55Zm-.25-.55.25.25,2.34-2.339a.177.177,0,0,0-.25-.25Z" transform="translate(-1075.354 -146.924)" fill="#fff"/>
        <path id="Path_546" data-name="Path 546" d="M1074.69,149.32l-.65-.65,2.54-2.54a.46.46,0,0,1,.65.65Zm-.45-.65.45.45,2.44-2.439a.318.318,0,0,0-.45-.45Zm.45.35-.35-.35,2.39-2.389a.247.247,0,1,1,.35.35Zm-.15-.35.15.15,2.29-2.289a.106.106,0,1,0-.15-.15Z" transform="translate(-1074.04 -145.996)" fill="#fff"/>
      </g>
    </g>
    <g id="Group_447" data-name="Group 447" transform="translate(705.276 97.709)">
      <g id="Group_445" data-name="Group 445" transform="translate(0.106 0.106)">
        <path id="Path_547" data-name="Path 547" d="M975.33,103.6a.283.283,0,0,1-.2-.483l2.827-2.828a.283.283,0,1,1,.4.4l-2.827,2.828A.282.282,0,0,1,975.33,103.6Z" transform="translate(-974.977 -100.139)" fill="#fff"/>
        <path id="Path_548" data-name="Path 548" d="M974.4,102.745a.353.353,0,0,1-.25-.6l2.827-2.828a.353.353,0,1,1,.5.5l-2.827,2.828A.351.351,0,0,1,974.4,102.745Zm2.827-3.393a.21.21,0,0,0-.15.062l-2.827,2.828a.212.212,0,0,0,0,.3.217.217,0,0,0,.3,0l2.827-2.828a.212.212,0,0,0-.15-.362Z" transform="translate(-974.047 -99.21)" fill="#fff"/>
      </g>
      <g id="Group_446" data-name="Group 446" transform="translate(0 0)">
        <path id="Path_549" data-name="Path 549" d="M973.936,102.315a.389.389,0,0,1-.275-.664l2.827-2.828a.389.389,0,1,1,.55.55l-2.827,2.828A.386.386,0,0,1,973.936,102.315Zm2.827-3.393a.176.176,0,0,0-.125.052l-2.827,2.828a.177.177,0,0,0,0,.25.181.181,0,0,0,.25,0l2.827-2.828a.177.177,0,0,0-.125-.3Z" transform="translate(-973.476 -98.639)" fill="#fff"/>
        <path id="Path_550" data-name="Path 550" d="M973.007,101.457a.46.46,0,0,1-.325-.785l2.827-2.828a.459.459,0,1,1,.65.65l-2.827,2.828A.456.456,0,0,1,973.007,101.457Zm2.827-3.605a.316.316,0,0,0-.225.093l-2.827,2.828a.318.318,0,1,0,.45.45l2.827-2.828a.318.318,0,0,0-.225-.543Zm-2.827,3.392a.246.246,0,0,1-.175-.421l2.827-2.828a.253.253,0,0,1,.35,0,.247.247,0,0,1,0,.35l-2.827,2.828A.247.247,0,0,1,973.007,101.243Zm2.827-3.179a.106.106,0,0,0-.075.031l-2.827,2.828a.105.105,0,0,0,0,.15.11.11,0,0,0,.15,0l2.827-2.828a.106.106,0,0,0-.075-.181Z" transform="translate(-972.547 -97.71)" fill="#fff"/>
      </g>
    </g>
    <g id="Group_450" data-name="Group 450" transform="translate(705.276 97.709)">
      <g id="Group_448" data-name="Group 448" transform="translate(0.106 0.106)">
        <path id="Path_551" data-name="Path 551" d="M975.33,106.428a.283.283,0,0,1-.2-.483l5.653-5.653a.283.283,0,0,1,.4.4l-5.653,5.653A.282.282,0,0,1,975.33,106.428Z" transform="translate(-974.977 -100.139)" fill="#fff"/>
        <path id="Path_552" data-name="Path 552" d="M974.4,105.57a.353.353,0,0,1-.25-.6l5.653-5.653a.353.353,0,0,1,.5.5l-5.653,5.653A.351.351,0,0,1,974.4,105.57Zm5.653-6.218a.211.211,0,0,0-.15.062l-5.653,5.653a.212.212,0,0,0,0,.3.217.217,0,0,0,.3,0l5.653-5.653a.212.212,0,0,0-.15-.362Z" transform="translate(-974.047 -99.21)" fill="#fff"/>
      </g>
      <g id="Group_449" data-name="Group 449" transform="translate(0 0)">
        <path id="Path_553" data-name="Path 553" d="M973.936,105.14a.389.389,0,0,1-.275-.664l5.653-5.653a.389.389,0,0,1,.55.55l-5.653,5.653A.386.386,0,0,1,973.936,105.14Zm5.653-6.218a.175.175,0,0,0-.125.052l-5.653,5.653a.177.177,0,0,0,0,.25.181.181,0,0,0,.25,0l5.653-5.653a.177.177,0,0,0-.125-.3Z" transform="translate(-973.476 -98.639)" fill="#fff"/>
        <path id="Path_554" data-name="Path 554" d="M973.007,104.282a.459.459,0,0,1-.325-.784l5.653-5.653a.459.459,0,0,1,.65.65l-5.653,5.653A.456.456,0,0,1,973.007,104.282Zm5.653-6.43a.316.316,0,0,0-.225.093l-5.653,5.653a.318.318,0,0,0,.45.45l5.653-5.653a.318.318,0,0,0-.225-.543Zm-5.653,6.217a.246.246,0,0,1-.175-.421l5.653-5.653a.253.253,0,0,1,.35,0,.248.248,0,0,1,0,.35L973.181,104A.246.246,0,0,1,973.007,104.068Zm5.653-6a.105.105,0,0,0-.075.031l-5.653,5.653a.106.106,0,0,0,0,.15.11.11,0,0,0,.149,0l5.653-5.653a.106.106,0,0,0-.075-.181Z" transform="translate(-972.547 -97.71)" fill="#fff"/>
      </g>
    </g>
  </g>
</svg>
