<svg id="Capa_1" data-name="Capa 1" xmlns="http://www.w3.org/2000/svg" viewBox="0 0 512 512"><defs><style>.cls-1{fill:#383838;}.cls-2{fill:#fafafa;}</style></defs><title>whatsapp_grey</title><path class="cls-1" d="M256.06,0h-.12C114.78,0,0,114.82,0,256A254.11,254.11,0,0,0,48.74,406.05l-31.91,95.1,98.4-31.45A253.83,253.83,0,0,0,256.06,512C397.22,512,512,397.15,512,256S397.22,0,256.06,0Z"/><path class="cls-2" d="M405,361.5c-6.17,17.44-30.68,31.91-50.24,36.13-13.37,2.85-30.84,5.12-89.66-19.26C189.89,347.2,141.44,270.75,137.66,265.79c-3.61-5-30.4-40.48-30.4-77.21s18.66-54.63,26.18-62.31c6.18-6.3,16.38-9.18,26.18-9.18,3.16,0,6,.16,8.57.29,7.52.32,11.3.76,16.26,12.64,6.17,14.88,21.21,51.61,23,55.39s3.64,8.89,1.08,13.85c-2.4,5.12-4.51,7.4-8.28,11.75s-7.36,7.68-11.14,12.35c-3.46,4.06-7.36,8.42-3,15.94,4.35,7.36,19.39,31.9,41.54,51.61,28.57,25.44,51.74,33.57,60,37,6.18,2.56,13.54,1.95,18.05-2.85,5.73-6.18,12.8-16.42,20-26.5,5.12-7.23,11.58-8.13,18.37-5.57,6.91,2.4,43.48,20.48,51,24.23s12.48,5.57,14.31,8.73S411.2,344,405,361.5Z"/></svg>