<svg xmlns="http://www.w3.org/2000/svg" width="59.734" height="47.479" viewBox="0 0 59.734 47.479">
  <g id="Group_12299" data-name="Group 12299" transform="translate(-608.25 5.921)">
    <path id="Path_11715" data-name="Path 11715" d="M655.174,10.893a16.282,16.282,0,0,0-32.217-3.122H622.8a13.8,13.8,0,1,0,0,27.6h9.639a1.242,1.242,0,1,0,0-2.484H622.8a11.317,11.317,0,1,1,0-22.634c.332,0,.684.018,1.075.055a1.243,1.243,0,0,0,1.347-1.069,13.8,13.8,0,0,1,27.469,1.88c0,.274-.02.557-.042.856l-.009.127A1.242,1.242,0,0,0,654,13.426a9.909,9.909,0,0,1,.99-.05,9.756,9.756,0,1,1,0,19.512H644.859a1.242,1.242,0,0,0,0,2.484h10.135a12.24,12.24,0,0,0,.18-24.479Z" fill="#fff" stroke="#313131" stroke-width="1.5"/>
    <path id="Path_11716" data-name="Path 11716" d="M791.091,48.632a1.242,1.242,0,1,0,0-2.484,10.476,10.476,0,0,0-10.341,9.027,1.242,1.242,0,0,0,1.063,1.4,1.259,1.259,0,0,0,.169.012,1.242,1.242,0,0,0,1.229-1.074A7.983,7.983,0,0,1,791.091,48.632Z" transform="translate(-152.205 -45.482)" fill="#fff" stroke="#313131" stroke-width="1.5"/>
    <path id="Path_11717" data-name="Path 11717" d="M825.656,227.663a1.242,1.242,0,0,0,.828-2.168l-4.517-4.035a2.049,2.049,0,0,0-2.733,0l-4.518,4.036a1.242,1.242,0,1,0,1.655,1.852l2.987-2.668v15.279a1.242,1.242,0,1,0,2.484,0V224.679l2.987,2.669A1.237,1.237,0,0,0,825.656,227.663Z" transform="translate(-181.951 -200.391)" fill="#fff" stroke="#313131" stroke-width="1.5"/>
  </g>
</svg>
