<svg xmlns="http://www.w3.org/2000/svg" width="15.973" height="16" viewBox="0 0 15.973 16">
  <g id="Group_11465" data-name="Group 11465" transform="translate(-359.648 -675.648)">
    <path id="Path_3074" data-name="Path 3074" d="M12.609,30.884a1.571,1.571,0,0,0-1.139-.523,1.63,1.63,0,0,0-1.156.519L9.246,31.943c-.089-.046-.177-.093-.262-.135-.122-.059-.236-.118-.333-.177A11.472,11.472,0,0,1,5.874,29.1a6.835,6.835,0,0,1-.912-1.439c.279-.253.532-.515.785-.768.093-.093.19-.194.283-.287a1.551,1.551,0,0,0,0-2.338l-.92-.92C5,23.242,4.9,23.136,4.8,23.027c-.2-.211-.414-.426-.633-.629a1.621,1.621,0,0,0-1.135-.5,1.649,1.649,0,0,0-1.148.5l-.008.008L.726,23.563a2.458,2.458,0,0,0-.734,1.57,6,6,0,0,0,.43,2.507A14.526,14.526,0,0,0,3,31.948,15.9,15.9,0,0,0,8.3,36.092a8.3,8.3,0,0,0,2.971.878c.072,0,.143.008.211.008a2.547,2.547,0,0,0,1.95-.836c0-.008.008-.008.013-.017.177-.211.38-.405.591-.612.143-.139.3-.283.439-.435a1.683,1.683,0,0,0,.511-1.169,1.616,1.616,0,0,0-.519-1.156Zm1.207,3.553s0,0,0,0c-.131.143-.266.27-.414.414a9,9,0,0,0-.65.675,1.634,1.634,0,0,1-1.27.536c-.051,0-.105,0-.156,0a7.322,7.322,0,0,1-2.633-.789,14.975,14.975,0,0,1-4.984-3.9,13.7,13.7,0,0,1-2.426-4.047A4.845,4.845,0,0,1,.9,25.2a1.562,1.562,0,0,1,.464-1l1.152-1.152a.765.765,0,0,1,.515-.241.724.724,0,0,1,.494.236l.008.008c.207.194.4.392.608.6.105.11.211.215.321.329l.92.92a.643.643,0,0,1,0,1.047l-.291.291c-.283.291-.553.561-.848.823-.008.008-.013.008-.017.017a.694.694,0,0,0-.177.768l.008.03A7.521,7.521,0,0,0,5.148,29.66l0,0a12.419,12.419,0,0,0,3,2.726,4.52,4.52,0,0,0,.414.228c.122.059.236.118.333.177a.371.371,0,0,0,.042.025.71.71,0,0,0,.333.084.745.745,0,0,0,.515-.232l1.156-1.156a.762.762,0,0,1,.511-.253.686.686,0,0,1,.485.245L13.8,33.374a.667.667,0,0,1,.013,1.063Zm0,0" transform="translate(359.67 654.67)" fill="#fff"/>
    <path id="Path_3075" data-name="Path 3075" d="M196.019,69.652a4.336,4.336,0,0,1,3.536,3.536.453.453,0,0,0,.447.38.466.466,0,0,0,.076-.008.462.462,0,0,0,.376-.528,5.245,5.245,0,0,0-4.279-4.279.461.461,0,0,0-.527.371.454.454,0,0,0,.371.527Zm0,0" transform="translate(172.264 609.8)" fill="#fff"/>
    <path id="Path_3076" data-name="Path 3076" d="M206.324,7.1A8.642,8.642,0,0,0,199.276.053a.457.457,0,0,0-.523.371.461.461,0,0,0,.376.527,7.737,7.737,0,0,1,6.3,6.3.453.453,0,0,0,.447.38.465.465,0,0,0,.076-.008.45.45,0,0,0,.371-.523Zm0,0" transform="translate(169.289 675.601)" fill="#fff"/>
  </g>
</svg>
