<svg xmlns="http://www.w3.org/2000/svg" xmlns:xlink="http://www.w3.org/1999/xlink" width="18" height="18" viewBox="0 0 18 18">
  <defs>
    <clipPath id="clip-Viber">
      <rect width="18" height="18"/>
    </clipPath>
  </defs>
  <g id="Viber" clip-path="url(#clip-Viber)">
    <g id="Group_11800" data-name="Group 11800" transform="translate(-1475 7542)">
      <path id="Path_11520" data-name="Path 11520" d="M1131.83,129.151c.069,0,.136.009.2.018,3.921.592,5.724,2.412,6.223,6.282a2.313,2.313,0,0,1,.011.236c.005.3.015.864.633.876h.018a.612.612,0,0,0,.459-.169.975.975,0,0,0,.168-.758c0-.062-.006-.123-.005-.18a7.766,7.766,0,0,0-7.352-7.556.132.132,0,0,0-.036,0,1.231,1.231,0,0,1-.2,0,.916.916,0,0,0-.7.146.684.684,0,0,0-.209.5c-.032.551.507.589.8.61Zm-.382-.586a.321.321,0,0,1,.069-.208.354.354,0,0,1,.223-.051c.057,0,.117,0,.174.008a1.54,1.54,0,0,0,.27,0,7.339,7.339,0,0,1,6.935,7.135c0,.064,0,.134.005.2.008.169.017.379-.051.45a.263.263,0,0,1-.172.043c-.174,0-.219-.05-.226-.469a2.559,2.559,0,0,0-.015-.282c-.527-4.091-2.431-6.014-6.572-6.64-.071-.01-.149-.016-.229-.022-.4-.029-.417-.071-.411-.172Zm0,0" transform="translate(352.893 -7668.891)" fill="#fff"/>
      <path id="Path_11521" data-name="Path 11521" d="M1024.161,142.956c-.084-.063-.168-.126-.25-.19-.423-.333-.875-.642-1.312-.94l-.269-.184a2.393,2.393,0,0,0-1.8-.532,2.069,2.069,0,0,0-1.3.972,1.039,1.039,0,0,1-1.451.324,8.136,8.136,0,0,1-2.377-1.569.207.207,0,1,0-.289.3,8.553,8.553,0,0,0,2.5,1.65,1.437,1.437,0,0,0,1.963-.471,1.659,1.659,0,0,1,1.032-.8,2.013,2.013,0,0,1,1.485.466l.27.185c.431.295.877.6,1.289.924.084.067.171.132.258.2.694.52,1.105.88.813,1.689a3.643,3.643,0,0,1-2.926,2.211c-.046-.012-.1-.024-.163-.037a3.593,3.593,0,0,1-.624-.179,20.936,20.936,0,0,1-11.673-11.5,2.744,2.744,0,0,1-.063-2.227,3,3,0,0,1,1.892-1.514,1.312,1.312,0,0,1,.886,0,8.849,8.849,0,0,1,2.8,3.75c.03.531-.343.823-.76,1.1a1.64,1.64,0,0,0-.556,2.306.207.207,0,0,0,.378-.171,1.235,1.235,0,0,1,.408-1.789,1.64,1.64,0,0,0,.944-1.469,8.583,8.583,0,0,0-3.078-4.117,1.732,1.732,0,0,0-1.157,0,3.4,3.4,0,0,0-2.139,1.735,3.146,3.146,0,0,0,.057,2.558,21.34,21.34,0,0,0,11.895,11.72,4,4,0,0,0,.7.2c.066.014.124.027.17.039a.274.274,0,0,0,.074.007,4.06,4.06,0,0,0,3.323-2.485c.411-1.139-.346-1.706-.955-2.162Zm0,0" transform="translate(467.345 -7672.025)" fill="#fff" stroke="#fff" stroke-width="1"/>
      <path id="Path_11522" data-name="Path 11522" d="M1150.266,187.419a.753.753,0,0,0-.8.444.586.586,0,0,0,.02.511.806.806,0,0,0,.606.311,1.58,1.58,0,0,1,1.485,1.564.765.765,0,0,0,.263.521.57.57,0,0,0,.362.127.626.626,0,0,0,.075,0c.606-.071.582-.684.574-.873a2.6,2.6,0,0,0-.841-1.79,2.548,2.548,0,0,0-1.746-.811Zm1.965,3.062a.165.165,0,0,1-.129-.034.356.356,0,0,1-.11-.24,1.991,1.991,0,0,0-1.833-1.932c-.226-.036-.3-.082-.315-.114a.227.227,0,0,1,.016-.162c.042-.122.136-.159.417-.166h.028a2.148,2.148,0,0,1,1.416.691,2.19,2.19,0,0,1,.719,1.5c.016.4-.08.442-.208.457Zm0,0" transform="translate(335.696 -7724.563)" fill="#fff"/>
      <path id="Path_11523" data-name="Path 11523" d="M1146.3,162.133a5.222,5.222,0,0,0-4.677-4.937c-.056-.006-.114-.016-.174-.025-.326-.053-.933-.15-1.045.5a.62.62,0,0,0,.091.489.973.973,0,0,0,.7.292c.073.01.144.019.209.033,2.4.525,3.208,1.351,3.6,3.683a2.035,2.035,0,0,1,.019.205.879.879,0,0,0,.235.669.585.585,0,0,0,.379.119,1.084,1.084,0,0,0,.154-.012c.525-.079.509-.547.5-.8a1.325,1.325,0,0,1,0-.192.173.173,0,0,0,0-.026Zm-.417.232c.011.317-.018.354-.147.374a.3.3,0,0,1-.211-.019c-.062-.05-.073-.229-.083-.372a2.45,2.45,0,0,0-.024-.249c-.426-2.515-1.342-3.454-3.923-4.019-.075-.017-.158-.028-.243-.039-.163-.022-.367-.049-.424-.127a.252.252,0,0,1-.016-.173c.023-.135.064-.2.24-.2a2.227,2.227,0,0,1,.331.035c.065.011.13.021.191.028a4.8,4.8,0,0,1,4.311,4.509,1.694,1.694,0,0,0,0,.248Zm0,0" transform="translate(344.143 -7696.238)" fill="#fff"/>
    </g>
  </g>
</svg>
