<svg xmlns="http://www.w3.org/2000/svg" xmlns:xlink="http://www.w3.org/1999/xlink" width="34" height="33" viewBox="0 0 34 33"><defs><path id="2m4ia" d="M1219.145 628.862c-.009 0-.009.009 0 0-.27.297-.55.559-.856.856-.454.437-.917.89-1.345 1.398-.708.75-1.538 1.109-2.63 1.109-.104 0-.218 0-.323-.009-2.079-.13-4-.943-5.45-1.633-3.958-1.913-7.426-4.63-10.317-8.08-2.376-2.866-3.966-5.521-5.023-8.378-.646-1.738-.891-3.092-.786-4.376.07-.821.384-1.494.96-2.08l2.386-2.384c.34-.323.707-.498 1.065-.498.437 0 .795.262 1.022.49l.018.017c.428.402.83.812 1.258 1.249.218.227.436.445.664.681l1.904 1.905c.742.742.742 1.423 0 2.166l-.603.603a32.116 32.116 0 0 1-1.756 1.703c-.017.018-.026.018-.035.035-.602.603-.489 1.188-.367 1.59l.018.061c.498 1.206 1.197 2.332 2.254 3.686l.008.01c1.93 2.375 3.966 4.227 6.203 5.642.288.184.576.332.856.472.253.122.489.244.69.367.026.017.052.035.087.052.236.122.463.175.69.175.577 0 .944-.367 1.066-.48l2.393-2.394c.236-.236.612-.524 1.057-.524.437 0 .787.27 1.005.506l3.861 3.862c.742.733.742 1.467.026 2.2zm-2.498-7.355c-.682-.708-1.494-1.084-2.359-1.084-.856 0-1.686.367-2.393 1.075l-2.21 2.201c-.184-.096-.367-.192-.542-.28a8.265 8.265 0 0 1-.69-.366c-2.07-1.31-3.948-3.023-5.748-5.241-.873-1.101-1.459-2.036-1.887-2.98.577-.523 1.101-1.065 1.625-1.59.192-.191.393-.4.585-.593 1.468-1.468 1.468-3.372 0-4.84l-1.904-1.904c-.218-.218-.437-.437-.646-.664-.42-.436-.856-.882-1.31-1.301-.69-.673-1.503-1.031-2.35-1.031-.857 0-1.678.358-2.377 1.03l-.017.018-2.376 2.394c-.9.89-1.406 1.983-1.52 3.25-.166 2.043.437 3.939.891 5.188 1.136 3.057 2.822 5.888 5.346 8.919 3.057 3.651 6.744 6.543 10.954 8.578 1.608.76 3.756 1.66 6.15 1.817.148.009.297.018.437.018 1.616 0 2.97-.577 4.036-1.73.008-.018.017-.018.026-.035.367-.437.786-.839 1.223-1.267.297-.288.611-.585.908-.9.69-.716 1.057-1.554 1.057-2.42 0-.864-.367-1.694-1.074-2.393z"/><path id="2m4ib" d="M1208.374 608.875a8.833 8.833 0 0 1 4.822 2.499 8.89 8.89 0 0 1 2.499 4.822.937.937 0 0 0 .926.786c.052 0 .104-.009.157-.018a.955.955 0 0 0 .777-1.092 10.755 10.755 0 0 0-3.022-5.835 10.756 10.756 0 0 0-5.835-3.022.954.954 0 0 0-1.092.768.94.94 0 0 0 .768 1.092z"/><path id="2m4ic" d="M1223.548 615.602a17.715 17.715 0 0 0-4.98-9.61 17.715 17.715 0 0 0-9.608-4.979.945.945 0 0 0-1.083.77.953.953 0 0 0 .777 1.091c3.258.55 6.228 2.097 8.587 4.455a15.883 15.883 0 0 1 4.455 8.587.937.937 0 0 0 .926.786c.052 0 .105-.009.157-.017a.932.932 0 0 0 .769-1.083z"/></defs><g><g transform="translate(-1190 -601)"><use fill="#fff" xlink:href="#2m4ia"/></g><g transform="translate(-1190 -601)"><use fill="#fff" xlink:href="#2m4ib"/></g><g transform="translate(-1190 -601)"><use fill="#fff" xlink:href="#2m4ic"/></g></g></svg>