<svg width="56" height="24" viewBox="0 0 56 24" fill="none" xmlns="http://www.w3.org/2000/svg">
<path d="M1.31104 9.89391V8.95007M0.811035 9.39391H29.8754H0.811035ZM29.3754 8.95007V9.89391V8.95007ZM29.8754 9.45007H0.811035H29.8754Z" stroke="white"/>
<path d="M14.848 11.7916V7.05298M14.375 7.55298H15.348H14.375ZM14.875 7.05298V11.7916V7.05298ZM15.348 11.2916H14.375H15.348Z" stroke="white"/>
<path d="M54.574 23.9614L29.4064 9.73212L29.8905 8.91064L55.0583 23.1399L54.574 23.9614Z" fill="white"/>
<path d="M42.604 13.9084L43.443 14.3828L41.0212 18.4904L40.1823 18.0161L42.604 13.9084Z" fill="white"/>
<path d="M25.0881 1.98901H17.0341" stroke="white" stroke-width="0.5"/>
<path d="M18.7601 0.37915L17.077 2.06519L18.7601 3.72998" stroke="white" stroke-width="0.5"/>
<path d="M3.22705 1.98901H11.2811" stroke="white" stroke-width="0.5"/>
<path d="M9.55505 0.37915L11.2382 2.06519L9.55505 3.72998" stroke="white" stroke-width="0.5"/>
<path d="M54.7209 14.3664L47.746 10.3394" stroke="white" stroke-width="0.5"/>
<path d="M50.0458 9.80805L47.7453 10.4267L48.3708 12.7092" stroke="white" stroke-width="0.5"/>
<path d="M35.7889 3.43628L42.7639 7.46328" stroke="white" stroke-width="0.5"/>
<path d="M42.0742 5.20593L42.6887 7.50755L40.3992 8.10712" stroke="white" stroke-width="0.5"/>
</svg>
