<svg width="57" height="25" viewBox="0 0 57 25" fill="none" xmlns="http://www.w3.org/2000/svg">
<path d="M27.463 9.52905H56.463H27.463Z" stroke="white"/>
<path d="M42.463 8.52905V11.5291V8.52905Z" stroke="white"/>
<path d="M2.26807 24.5651L1.78156 23.7225L27.0615 9.12708L27.548 9.96967L2.26807 24.5651Z" fill="white"/>
<path d="M14.2906 14.2529L16.7232 18.4662L15.8804 18.9527L13.4479 14.7394L14.2906 14.2529Z" fill="white"/>
<path d="M53.451 1.98901H45.397" stroke="white" stroke-width="0.5"/>
<path d="M47.123 0.37915L45.4399 2.06519L47.123 3.72998" stroke="white" stroke-width="0.5"/>
<path d="M31.589 1.98901H39.643" stroke="white" stroke-width="0.5"/>
<path d="M37.917 0.37915L39.6001 2.06519L37.917 3.72998" stroke="white" stroke-width="0.5"/>
<path d="M0.805549 14.3671L7.78052 10.3401" stroke="white" stroke-width="0.5"/>
<path d="M5.48027 9.80787L7.78079 10.4265L7.15527 12.7091" stroke="white" stroke-width="0.5"/>
<path d="M19.7375 3.43604L12.7625 7.46304" stroke="white" stroke-width="0.5"/>
<path d="M13.4518 5.20477L12.8372 7.50639L15.1268 8.10596" stroke="white" stroke-width="0.5"/>
</svg>
