<svg width="46" height="26" viewBox="0 0 46 26" fill="none" xmlns="http://www.w3.org/2000/svg">
<path d="M11.782 1.86011H19.836" stroke="white" stroke-width="0.5"/>
<path d="M18.11 0.25L19.7931 1.93604L18.11 3.60083" stroke="white" stroke-width="0.5"/>
<path d="M33.643 1.86011H25.589" stroke="white" stroke-width="0.5"/>
<path d="M27.3151 0.25L25.632 1.93604L27.3151 3.60083" stroke="white" stroke-width="0.5"/>
<path d="M44.649 9.37891H0.776001V9.52991H44.649V9.37891Z" stroke="white"/>
<path d="M22.463 7.52905V11.5291V7.52905Z" stroke="white"/>
<path d="M0.851013 9.4541V25.5621" stroke="white"/>
<path d="M15.9743 25.3311C16.0934 24.626 16.1535 23.9019 16.1535 23.1631C16.1535 15.9722 10.3259 10.1441 3.13689 10.1441C2.39714 10.1441 1.67302 10.2066 0.965991 10.3243V25.3311H15.9743ZM16.1433 25.5311H15.9743H0.965991H0.765991V25.3311V10.3243V10.1548L0.933151 10.127C1.66229 10.0056 2.40373 9.94409 3.13689 9.94409C6.66729 9.94409 9.98628 11.319 12.4825 13.8156C14.9787 16.3123 16.3535 19.6319 16.3535 23.1631C16.3535 23.9091 16.2923 24.6498 16.1715 25.3644L16.1433 25.5311Z" fill="white"/>
</svg>
