<svg width="46" height="26" viewBox="0 0 46 26" fill="none" xmlns="http://www.w3.org/2000/svg">
<path d="M34.196 1.86011H26.142" stroke="white" stroke-width="0.5"/>
<path d="M27.868 0.25L26.1849 1.93604L27.868 3.60083" stroke="white" stroke-width="0.5"/>
<path d="M12.335 1.86011H20.389" stroke="white" stroke-width="0.5"/>
<path d="M18.663 0.25L20.3461 1.93604L18.663 3.60083" stroke="white" stroke-width="0.5"/>
<path d="M45.202 9.37891H1.32898V9.52991H45.202V9.37891Z" stroke="white"/>
<path d="M23.464 7.52905V11.5291V7.52905Z" stroke="white"/>
<path d="M45.127 9.4541V25.5621" stroke="white"/>
<path d="M45.013 25.331V10.3245C44.3063 10.2065 43.5821 10.1441 42.8422 10.1441C35.6533 10.1441 29.8256 15.9724 29.8256 23.163C29.8256 23.9018 29.8857 24.6259 30.0048 25.331L45.013 25.331ZM45.213 25.531H45.013L30.0048 25.531H29.8358L29.8076 25.3643C29.6868 24.6494 29.6256 23.9088 29.6256 23.163C29.6256 19.6319 31.0003 16.3123 33.4966 13.8157C35.9928 11.3191 39.3118 9.94415 42.8422 9.94415C43.5768 9.94415 44.3182 10.0057 45.0459 10.1272L45.213 10.1551V10.3245V25.331V25.531Z" fill="white"/>
</svg>
