<svg width="60" height="12" viewBox="0 0 60 12" fill="none" xmlns="http://www.w3.org/2000/svg">
<path d="M1.46301 9.53003H59.463H1.46301Z" stroke="white"/>
<path d="M15.485 7.58008H15.334V11.1821H15.485V7.58008Z" stroke="white"/>
<path d="M30.442 7.58008H30.291V11.1821H30.442V7.58008Z" stroke="white"/>
<path d="M45.399 7.58008H45.248V11.1821H45.399V7.58008Z" stroke="white"/>
<path d="M4.479 1.78711H12.533" stroke="white" stroke-width="0.5"/>
<path d="M10.807 0.177002L12.4901 1.86304L10.807 3.52783" stroke="white" stroke-width="0.5"/>
<path d="M26.339 1.78711H18.285" stroke="white" stroke-width="0.5"/>
<path d="M20.0111 0.177002L18.328 1.86304L20.0111 3.52783" stroke="white" stroke-width="0.5"/>
<path d="M34.394 1.78711H42.448" stroke="white" stroke-width="0.5"/>
<path d="M40.722 0.177002L42.4052 1.86304L40.722 3.52783" stroke="white" stroke-width="0.5"/>
<path d="M56.254 1.78711H48.2" stroke="white" stroke-width="0.5"/>
<path d="M49.9261 0.177002L48.243 1.86304L49.9261 3.52783" stroke="white" stroke-width="0.5"/>
</svg>
