<svg width="46" height="26" viewBox="0 0 46 26" fill="none" xmlns="http://www.w3.org/2000/svg">
<path d="M34.2969 1.86011H26.2429" stroke="white" stroke-width="0.5"/>
<path d="M27.969 0.25L26.2859 1.93604L27.969 3.60083" stroke="white" stroke-width="0.5"/>
<path d="M12.4359 1.86011H20.4899" stroke="white" stroke-width="0.5"/>
<path d="M18.7639 0.25L20.447 1.93604L18.7639 3.60083" stroke="white" stroke-width="0.5"/>
<path d="M45.3029 9.37891H1.42993V9.52991H45.3029V9.37891Z" stroke="white"/>
<path d="M23.4629 7.52905V11.5291V7.52905Z" stroke="white"/>
<path d="M45.2269 9.4541V25.5621" stroke="white"/>
<path d="M45.113 25.331V10.3245C44.4062 10.2065 43.6821 10.1441 42.9422 10.1441C35.7532 10.1441 29.9256 15.9724 29.9256 23.163C29.9256 23.9018 29.9857 24.6259 30.1048 25.331L45.113 25.331ZM45.313 25.531H45.113L30.1048 25.531H29.9357L29.9076 25.3643C29.7868 24.6494 29.7256 23.9088 29.7256 23.163C29.7256 19.6319 31.1003 16.3123 33.5966 13.8157C36.0928 11.3191 39.4118 9.94415 42.9422 9.94415C43.6768 9.94415 44.4182 10.0057 45.1459 10.1272L45.313 10.1551V10.3245V25.331V25.531Z" fill="white"/>
<path d="M1.50488 9.4541V25.5621" stroke="white"/>
<path d="M16.6272 25.3321C16.7464 24.627 16.8064 23.9029 16.8064 23.1641C16.8064 15.9732 10.9788 10.1451 3.78985 10.1451C3.0501 10.1451 2.32598 10.2076 1.61895 10.3252V25.3321H16.6272ZM16.7963 25.5321H16.6272H1.61895H1.41895V25.3321V10.3252V10.1558L1.58611 10.128C2.31525 10.0066 3.05669 9.94507 3.78985 9.94507C7.32025 9.94507 10.6392 11.32 13.1354 13.8166C15.6317 16.3132 17.0064 19.6329 17.0064 23.1641C17.0064 23.9101 16.9452 24.6507 16.8244 25.3654L16.7963 25.5321Z" fill="white"/>
</svg>
