<svg xmlns="http://www.w3.org/2000/svg" xmlns:xlink="http://www.w3.org/1999/xlink" viewBox="0 0 75 75">
  <defs>
    <style>
      .cls-3 {
        fill: #fff;
      }
    </style>
  </defs>
  <g id="XD_call_back_button" data-name="XD call back button" class="cls-1">
    <g id="Group_3" data-name="Group 3" transform="translate(-24351 -14274)">
      <g id="Group_78" data-name="Group 78" transform="translate(24351 14274)">
        <path id="Path_79" data-name="Path 79" class="cls-3" d="M22.97,48.279a8.757,8.757,0,0,1-5.513-5.128,8.17,8.17,0,0,1-.256-.9V41.74a6.4,6.4,0,0,1,1.41-2.18,18.491,18.491,0,0,1,3.462-2.821A12.064,12.064,0,0,1,24.893,35.2a2.008,2.008,0,0,1,2.051.385,3.4,3.4,0,0,1,.641.769c.385.641.9,1.282,1.282,1.923l.769,1.154c.128.256.385.256.641.128.128-.128.385-.128.513-.256A20.211,20.211,0,0,0,36.3,34.945a19.269,19.269,0,0,0,2.949-4.231c.385-.769.385-.9-.385-1.41s-1.41-.9-2.18-1.41a8.983,8.983,0,0,1-1.282-1.026,1.643,1.643,0,0,1-.513-1.795c.128-.256.128-.641.385-.9.513-.9,1.026-1.795,1.539-2.564a23.941,23.941,0,0,1,3.334-3.846A2.327,2.327,0,0,1,43.1,17.38a11.121,11.121,0,0,1,4.1,3.59,3.58,3.58,0,0,1,.769,2.308,9.7,9.7,0,0,1-.128,1.923,18.371,18.371,0,0,1-2.18,6.8A32.337,32.337,0,0,1,30.919,46.228a16.589,16.589,0,0,1-4.872,1.539A9.965,9.965,0,0,1,24,48.023C23.867,48.279,23.354,48.279,22.97,48.279Zm6.667-2.949a29.563,29.563,0,0,0,11.411-8.718,25.41,25.41,0,0,0,4.616-8.077,15.6,15.6,0,0,0,.9-4.872,4.174,4.174,0,0,0-.513-1.795,8.554,8.554,0,0,0-3.462-2.949.976.976,0,0,0-1.154.128,14.048,14.048,0,0,0-2.692,2.821,27.289,27.289,0,0,0-2.051,3.205c-.385.769-.385.769.256,1.282A11.072,11.072,0,0,0,39,27.637a6.235,6.235,0,0,1,1.795,1.41,1.8,1.8,0,0,1,.256,1.795,18.643,18.643,0,0,1-4.359,6.026,21.489,21.489,0,0,1-5.128,3.846c-.256.128-.641.256-.9.385a1.59,1.59,0,0,1-1.923-.513A8.982,8.982,0,0,1,27.713,39.3c-.513-.769-.9-1.41-1.41-2.18s-.641-.769-1.41-.385a25.976,25.976,0,0,0-5.641,4.231,1.4,1.4,0,0,0-.256,1.795A8.035,8.035,0,0,0,22.2,46.1a3.343,3.343,0,0,0,1.41.385A13.67,13.67,0,0,0,29.637,45.33Z" transform="translate(4.852 4.801)"/>
      </g>
    </g>
  </g>
</svg>
