<svg xmlns="http://www.w3.org/2000/svg" xmlns:xlink="http://www.w3.org/1999/xlink" viewBox="0 0 45 44">
  <defs>
    <style>
      .cls-1 {
        clip-path: url(#clip-XD_Window_Cross_3);
      }

      .cls-2 {
        fill: #353535;
      }
    </style>
    <clipPath id="clip-XD_Window_Cross_3">
      <rect width="45" height="44"/>
    </clipPath>
  </defs>
  <g id="XD_Window_Cross_3" data-name="XD Window Cross – 3" class="cls-1">
    <g id="Group_332" data-name="Group 332" transform="translate(3 1)">
      <path id="Path_289" data-name="Path 289" class="cls-2" d="M1.2,461.361H-.27a.69.69,0,0,1-.73-.73.69.69,0,0,1,.73-.73H1.2a.73.73,0,0,1,0,1.461Z" transform="translate(0 -421.291)"/>
      <path id="Path_290" data-name="Path 290" class="cls-2" d="M67.661,71.33H33.93a.69.69,0,0,1-.73-.73V33.93a.69.69,0,0,1,.73-.73h33.73a.69.69,0,0,1,.73.73V70.6A.69.69,0,0,1,67.661,71.33Zm-33-1.47H66.93v-35.2H34.661Z" transform="translate(-31.261 -31.261)"/>
      <path id="Path_291" data-name="Path 291" class="cls-2" d="M95.9,102.5H68.03a.69.69,0,0,1-.73-.73V68.03a.69.69,0,0,1,.73-.73H95.9a.69.69,0,0,1,.73.73v33.73A.692.692,0,0,1,95.9,102.5Zm-27.139-1.47h26.4V68.761h-26.4Z" transform="translate(-62.43 -62.43)"/>
      <path id="Path_292" data-name="Path 292" class="cls-2" d="M52.03,464.2H18.3a2.161,2.161,0,0,1-2.2-2.2v-1.47a.69.69,0,0,1,.73-.73H53.5a.69.69,0,0,1,.73.73V462A2.161,2.161,0,0,1,52.03,464.2Zm-34.47-2.93V462a.69.69,0,0,0,.73.73h33.73a.69.69,0,0,0,.73-.73v-.73Z" transform="translate(-15.63 -421.2)"/>
      <path id="Path_293" data-name="Path 293" class="cls-2" d="M52.03,3.4H18.3a2.2,2.2,0,0,1-2.2-2.2A2.161,2.161,0,0,1,18.3-1H52.03a2.161,2.161,0,0,1,2.2,2.2A2.161,2.161,0,0,1,52.03,3.4ZM18.3.47a.786.786,0,0,0-.73.73.735.735,0,0,0,.73.73H52.03a.69.69,0,0,0,.73-.73.69.69,0,0,0-.73-.73H18.3Z" transform="translate(-15.63)"/>
      <path id="Path_294" data-name="Path 294" class="cls-2" d="M444.9,461.361h-1.47a.73.73,0,0,1,0-1.461h1.47a.69.69,0,0,1,.73.73A.681.681,0,0,1,444.9,461.361Z" transform="translate(-405.57 -421.291)"/>
      <path id="Path_295" data-name="Path 295" class="cls-2" d="M216.061,102.5h-2.93a.69.69,0,0,1-.73-.73V68.03a.69.69,0,0,1,.73-.73h2.93a.69.69,0,0,1,.73.73v33.73A.692.692,0,0,1,216.061,102.5Zm-2.2-1.47h1.47V68.761h-1.47Z" transform="translate(-195.061 -62.43)"/>
      <path id="Path_296" data-name="Path 296" class="cls-2" d="M93.585,96.515a.669.669,0,0,1-.516-.223.706.706,0,0,1,0-1.023l2.2-2.2a.723.723,0,0,1,1.023,1.023L94.1,96.3A.663.663,0,0,1,93.585,96.515Z" transform="translate(-85.785 -85.785)"/>
      <path id="Path_297" data-name="Path 297" class="cls-2" d="M93.585,146.985a.669.669,0,0,1-.516-.223.706.706,0,0,1,0-1.023l1.47-1.47a.723.723,0,0,1,1.023,1.023l-1.47,1.47A.639.639,0,0,1,93.585,146.985Z" transform="translate(-85.785 -132.585)"/>
      <path id="Path_298" data-name="Path 298" class="cls-2" d="M136.285,96.515a.669.669,0,0,1-.516-.223.706.706,0,0,1,0-1.023l2.2-2.2a.723.723,0,0,1,1.023,1.023l-2.2,2.209A.657.657,0,0,1,136.285,96.515Z" transform="translate(-124.815 -85.785)"/>
      <path id="Path_299" data-name="Path 299" class="cls-2" d="M341.085,412.315a.67.67,0,0,1-.516-.223.706.706,0,0,1,0-1.023l2.2-2.2a.723.723,0,1,1,1.023,1.023l-2.2,2.2A.664.664,0,0,1,341.085,412.315Z" transform="translate(-312.015 -374.446)"/>
      <path id="Path_300" data-name="Path 300" class="cls-2" d="M349.585,368.885a.67.67,0,0,1-.516-.223.706.706,0,0,1,0-1.023l1.47-1.47a.723.723,0,0,1,1.023,1.023l-1.47,1.47A.639.639,0,0,1,349.585,368.885Z" transform="translate(-319.785 -335.415)"/>
      <path id="Path_301" data-name="Path 301" class="cls-2" d="M298.385,412.315a.67.67,0,0,1-.516-.223.706.706,0,0,1,0-1.023l2.2-2.2a.723.723,0,1,1,1.023,1.023l-2.2,2.2A.639.639,0,0,1,298.385,412.315Z" transform="translate(-272.985 -374.446)"/>
      <path id="Path_302" data-name="Path 302" class="cls-2" d="M146.3,236.73a2.161,2.161,0,0,1-2.2-2.2V231.6a2.2,2.2,0,0,1,4.4,0v2.93A2.161,2.161,0,0,1,146.3,236.73Zm0-5.861a.69.69,0,0,0-.73.73v2.93a.73.73,0,0,0,1.461,0V231.6A.729.729,0,0,0,146.3,230.87Z" transform="translate(-132.63 -210.6)"/>
      <path id="Path_303" data-name="Path 303" class="cls-2" d="M282.8,236.73a2.161,2.161,0,0,1-2.2-2.2V231.6a2.2,2.2,0,1,1,4.4,0v2.93A2.161,2.161,0,0,1,282.8,236.73Zm0-5.861a.69.69,0,0,0-.73.73v2.93a.73.73,0,0,0,1.461,0V231.6A.729.729,0,0,0,282.8,230.87Z" transform="translate(-257.4 -210.6)"/>
    </g>
  </g>
</svg>
