<svg id="Group_11467" data-name="Group 11467" xmlns="http://www.w3.org/2000/svg" width="15.97" height="11.333" viewBox="0 0 15.97 11.333">
  <path id="Path_11493" data-name="Path 11493" d="M18.3,11.766a.237.237,0,0,1-.193-.064L15.147,8.933a.273.273,0,0,1,.386-.386L18.5,11.316a.241.241,0,0,1,0,.386.237.237,0,0,1-.193.064Zm0,0" transform="translate(-5.359 -3.009)" fill="#fff"/>
  <path id="Path_11494" data-name="Path 11494" d="M4.552,11.779a.237.237,0,0,1-.193-.064c-.129-.129-.064-.258,0-.386L7.321,8.559c.129-.129.258-.064.386,0,.129.129.064.258,0,.386L4.745,11.714a.237.237,0,0,1-.193.064Zm0,0" transform="translate(-1.525 -3.021)" fill="#fff"/>
  <path id="Path_11495" data-name="Path 11495" d="M14.682,11.334H1.288A1.292,1.292,0,0,1,0,10.046V1.288A1.292,1.292,0,0,1,1.288,0H14.682A1.292,1.292,0,0,1,15.97,1.288v8.758a1.292,1.292,0,0,1-1.288,1.288ZM1.288.515a.744.744,0,0,0-.773.773v8.758a.744.744,0,0,0,.773.773H14.682a.744.744,0,0,0,.773-.773V1.288a.744.744,0,0,0-.773-.773H1.288Zm0,0" fill="#fff"/>
  <path id="Path_11496" data-name="Path 11496" d="M8.145,7.151a1.735,1.735,0,0,1-.966-.322L.547,1.033C.418.969.418.775.547.647.611.518.8.518.933.647l6.633,5.8a1.065,1.065,0,0,0,1.224,0L15.422.711a.411.411,0,0,1,.386,0,.411.411,0,0,1,0,.386L9.176,6.829a1.622,1.622,0,0,1-1.03.322Zm0,0" transform="translate(-0.16 -0.196)" fill="#fff"/>
</svg>
