<svg id="Group_11464" data-name="Group 11464" xmlns="http://www.w3.org/2000/svg" width="15.97" height="14.658" viewBox="0 0 15.97 14.658">
  <path id="Path_11486" data-name="Path 11486" d="M76.684,114.4a.884.884,0,1,0,.884.884.885.885,0,0,0-.884-.884Zm0,0" transform="translate(-72.382 -109.242)" fill="#fff"/>
  <path id="Path_11487" data-name="Path 11487" d="M158.384,114.4a.884.884,0,1,0,.884.884.885.885,0,0,0-.884-.884Zm0,0" transform="translate(-150.399 -109.242)" fill="#fff"/>
  <path id="Path_11488" data-name="Path 11488" d="M240.184,114.4a.884.884,0,1,0,.884.884.885.885,0,0,0-.884-.884Zm0,0" transform="translate(-228.511 -109.242)" fill="#fff"/>
  <path id="Path_11485" data-name="Path 11485" d="M13.021,0H2.949A2.95,2.95,0,0,0,0,2.949V9.081a2.95,2.95,0,0,0,2.949,2.949H9.9l2.511,2.511a.393.393,0,0,0,.28.117.34.34,0,0,0,.149-.032.388.388,0,0,0,.243-.365V12.025A2.955,2.955,0,0,0,15.97,9.076V2.944A2.946,2.946,0,0,0,13.021,0Zm2.164,9.081a2.165,2.165,0,0,1-2.164,2.164h-.329a.393.393,0,0,0-.392.392v1.677l-1.957-1.952a.4.4,0,0,0-.28-.117H2.949A2.165,2.165,0,0,1,.785,9.081V2.949A2.165,2.165,0,0,1,2.949.785H13.021a2.165,2.165,0,0,1,2.164,2.164Zm0,0" fill="#fff"/>
</svg>
