<svg id="Group_11472" data-name="Group 11472" xmlns="http://www.w3.org/2000/svg" width="11.4" height="23.94" viewBox="0 0 11.4 23.94">
  <path id="Path_11511" data-name="Path 11511" d="M10.792,17.7a1.092,1.092,0,1,0,1.093,1.092A1.075,1.075,0,0,0,10.792,17.7Zm0,1.52a.427.427,0,1,1,.427-.427.426.426,0,0,1-.427.427Zm0,0" transform="translate(-5.093 -9.293)" fill="#fff"/>
  <path id="Path_11512" data-name="Path 11512" d="M6.84,5.7H6.08V.38a.38.38,0,1,0-.76,0V5.7H4.56A4.561,4.561,0,0,0,0,10.26v9.12a4.561,4.561,0,0,0,4.56,4.56H6.84a4.561,4.561,0,0,0,4.56-4.56V10.26A4.561,4.561,0,0,0,6.84,5.7Zm3.8,13.68a3.811,3.811,0,0,1-3.8,3.8H4.56a3.811,3.811,0,0,1-3.8-3.8V10.26a3.811,3.811,0,0,1,3.8-3.8H6.84a3.811,3.811,0,0,1,3.8,3.8v9.12Zm0,0" fill="#fff"/>
</svg>
