<svg xmlns="http://www.w3.org/2000/svg" xmlns:xlink="http://www.w3.org/1999/xlink" width="18" height="18" viewBox="0 0 18 18">
  <defs>
    <clipPath id="clip-Telegram">
      <rect width="18" height="18"/>
    </clipPath>
  </defs>
  <g id="Telegram" clip-path="url(#clip-Telegram)">
    <path id="Path_11525" data-name="Path 11525" d="M1060.1,49.762a.615.615,0,0,0-.688-.188l-15.594,5.635a.874.874,0,0,0-.2,1.544l2.229,1.522a.7.7,0,0,0,.725.041l4.835-2.55-3.768,2.814a.707.707,0,0,0-.283.564V61.75a.732.732,0,0,0,1.135.609l1.694-1.123,1.665,1.136a.878.878,0,0,0,1.24-.262l7.055-11.634a.618.618,0,0,0-.049-.714Zm-7.788,11.716-1.725-1.176a.7.7,0,0,0-.785-.005l-1.446.959V59.291l6.654-4.969a.7.7,0,0,0-.749-1.186l-7.995,4.216-1.885-1.287,14.36-5.189Zm0,0" transform="translate(-1042.237 -46.536)" fill="#fff"/>
  </g>
</svg>
