<svg xmlns="http://www.w3.org/2000/svg" xmlns:xlink="http://www.w3.org/1999/xlink" width="18" height="18" viewBox="0 0 18 18">
  <defs>
    <clipPath id="clip-What_s_app">
      <rect width="18" height="18"/>
    </clipPath>
  </defs>
  <g id="What_s_app" data-name="What’s app" clip-path="url(#clip-What_s_app)">
    <g id="Group_11799" data-name="Group 11799" transform="translate(-1024.658 -58.888)">
      <path id="Path_11518" data-name="Path 11518" d="M1039.881,62.243a7.986,7.986,0,0,0-5.685-2.355h0a8.041,8.041,0,0,0-7.144,11.726l-1.351,3.86a.745.745,0,0,0,.7.991.75.75,0,0,0,.248-.043l3.86-1.351a8.04,8.04,0,0,0,9.372-12.829Zm-.687,10.682a7.069,7.069,0,0,1-8.315,1.244.749.749,0,0,0-.6-.046l-3.507,1.227L1028,71.842a.749.749,0,0,0-.046-.6,7.068,7.068,0,0,1,6.24-10.384h0a7.067,7.067,0,0,1,5,12.064Zm0,0" fill="#fff"/>
      <path id="Path_11519" data-name="Path 11519" d="M1134.939,155.988a.95.95,0,0,0-1.342,0l-.4.4a5.888,5.888,0,0,1-2.365-2.364l.4-.4a.949.949,0,0,0,0-1.341l-1.09-1.09a.949.949,0,0,0-1.341,0l-.872.872c-.5.5-.524,1.358-.07,2.418a10.612,10.612,0,0,0,4.88,4.88,3.52,3.52,0,0,0,1.357.324,1.445,1.445,0,0,0,1.061-.394l.872-.872h0a.948.948,0,0,0,0-1.341Zm-.47,2.616c-.143.143-.581.193-1.347-.136a9.665,9.665,0,0,1-4.369-4.369c-.328-.766-.278-1.2-.136-1.347l.855-.855,1.056,1.056-.506.507a.742.742,0,0,0-.137.864,6.859,6.859,0,0,0,3.013,3.013.742.742,0,0,0,.864-.137l.506-.506,1.057,1.057Zm0,0" transform="translate(-97.755 -87.343)" fill="#fff"/>
    </g>
  </g>
</svg>
