<svg xmlns="http://www.w3.org/2000/svg" width="34.19" height="28.181" viewBox="0 0 34.19 28.181"><path d="M192.039,154.111a6.913,6.913,0,0,0,6.516-9.225.5.5,0,0,0-.945.336,5.914,5.914,0,1,1-5.572-3.923,5.427,5.427,0,0,1,4.462,2.027.5.5,0,0,0,.814-.586,6.425,6.425,0,0,0-5.275-2.443,6.907,6.907,0,1,0,0,13.814Zm0,0" transform="translate(-172.763 -130.928)" fill="#fff"/><path d="M31.385,5.428H27.691L25.771.984C25.622.64,25.343,0,24.626,0H15.044c-.723,0-1,.642-1.144.985L11.98,5.428H9.239V4.183A1.186,1.186,0,0,0,8.054,3H4.031A1.186,1.186,0,0,0,2.847,4.183V5.428H2.8A2.805,2.805,0,0,0,0,8.229V25.376a2.806,2.806,0,0,0,2.8,2.8l16.888,0a.5.5,0,0,0,0-1l-16.888,0a1.8,1.8,0,0,1-1.8-1.7h9.769a3.5,3.5,0,0,0,3.076-1.863,8.838,8.838,0,0,0,5.426,1.814,9.136,9.136,0,0,0,6.538-2.749l1.035.641a1.8,1.8,0,1,0,1.9-3.064l-.964-.6a9.145,9.145,0,0,0-8.51-12.525,8.652,8.652,0,0,0-5.845,2.248,3.457,3.457,0,0,0-2.658-1.24H1.005a1.8,1.8,0,0,1,1.8-1.7h9.506a.5.5,0,0,0,.46-.3l2.053-4.748A1.3,1.3,0,0,1,15.031,1h9.606a1.3,1.3,0,0,1,.214.38L26.9,6.129a.5.5,0,0,0,.46.3h4.024a1.8,1.8,0,0,1,1.8,1.8V25.377a1.8,1.8,0,0,1-1.8,1.8H21.953a.5.5,0,0,0,0,1h9.432a2.807,2.807,0,0,0,2.8-2.8V8.229A2.806,2.806,0,0,0,31.385,5.428ZM28.224,21.1a.8.8,0,0,1,.257,1.1.8.8,0,0,1-1.1.258l-.888-.55a9.068,9.068,0,0,0,.875-1.342ZM19.277,8.131a8.144,8.144,0,1,1-8.153,8.145A8.159,8.159,0,0,1,19.277,8.131ZM6.543,9.139h4.231a2.461,2.461,0,0,1,1.858.844,9.143,9.143,0,0,0,.411,12.993,2.488,2.488,0,0,1-2.269,1.493H6.543Zm-1,0v15.33H1V9.139Zm2.7-3.71H3.85V4.183A.184.184,0,0,1,4.031,4H8.054a.184.184,0,0,1,.182.181Zm0,0" fill="#fff"/><path d="M431.957,114.29a1.826,1.826,0,1,0-1.826,1.825A1.828,1.828,0,0,0,431.957,114.29Zm-2.65,0a.824.824,0,1,1,.824.822A.824.824,0,0,1,429.307,114.29Zm0,0" transform="translate(-399.703 -104.955)" fill="#fff"/><path d="M230.266,30.949h-6.691c-.615,0-.838.583-.945.863l-.506,1.324a.859.859,0,0,0,.055.818.82.82,0,0,0,.708.344h8.069a.82.82,0,0,0,.708-.344.858.858,0,0,0,.055-.818l-.506-1.324C231.1,31.532,230.881,30.949,230.266,30.949Zm-7.13,2.346.43-1.125a2.356,2.356,0,0,1,.093-.218h6.523a2.352,2.352,0,0,1,.093.218l.43,1.125Zm0,0" transform="translate(-207.218 -28.882)" fill="#fff"/><path d="M435.408,184.139h1.768a.5.5,0,0,0,0-1h-1.768a.5.5,0,0,0,0,1Zm0,0" transform="translate(-405.864 -170.907)" fill="#fff"/></svg>