<svg xmlns="http://www.w3.org/2000/svg" width="28" height="27.998" viewBox="0 0 28 27.998">
  <g id="Group_876" data-name="Group 876" transform="translate(-532.29 245.939)">
    <path id="Path_526" data-name="Path 526" d="M609.637-158.316a7.31,7.31,0,0,0,5.138,2.147,7.152,7.152,0,0,0,5.138-2.147,7.31,7.31,0,0,0,2.147-5.138,7.152,7.152,0,0,0-2.147-5.138,7.31,7.31,0,0,0-5.138-2.147,7.152,7.152,0,0,0-5.138,2.147,7.31,7.31,0,0,0-2.147,5.138A7.31,7.31,0,0,0,609.637-158.316Zm1.38-8.9a5.3,5.3,0,0,1,3.758-1.534,5.3,5.3,0,0,1,3.758,1.534,5.3,5.3,0,0,1,1.534,3.758,5.3,5.3,0,0,1-1.534,3.758,5.3,5.3,0,0,1-3.758,1.534,5.3,5.3,0,0,1-3.758-1.534,5.3,5.3,0,0,1-1.534-3.758A5.3,5.3,0,0,1,611.018-167.212Z" transform="translate(-68.486 -68.486)" fill="#fff"/>
    <path id="Path_527" data-name="Path 527" d="M783.09-104.211a.946.946,0,0,0,.929.929h2.75a.946.946,0,0,0,.929-.929.946.946,0,0,0-.929-.929h-2.75A.946.946,0,0,0,783.09-104.211Z" transform="translate(-227.407 -127.729)" fill="#fff"/>
    <path id="Path_528" data-name="Path 528" d="M673.09,5.789v2.75a.929.929,0,1,0,1.857,0V5.789a.929.929,0,1,0-1.857,0Z" transform="translate(-127.729 -227.407)" fill="#fff"/>
    <path id="Path_529" data-name="Path 529" d="M751.158-27.072a.905.905,0,0,0,0,1.286l1.964,1.964a.905.905,0,0,0,1.286,0,.905.905,0,0,0,0-1.286l-1.964-1.964A.905.905,0,0,0,751.158-27.072Z" transform="translate(-198.082 -198.082)" fill="#fff"/>
    <path id="Path_530" data-name="Path 530" d="M674.019-241.333a.946.946,0,0,0,.929-.929v-2.75a.946.946,0,0,0-.929-.929.946.946,0,0,0-.929.929v2.75A.946.946,0,0,0,674.019-241.333Z" transform="translate(-127.729)" fill="#fff"/>
    <path id="Path_531" data-name="Path 531" d="M752.844-201.022l1.964-1.964a.905.905,0,0,0,0-1.286.905.905,0,0,0-1.286,0l-1.964,1.964a.905.905,0,0,0,0,1.286A.905.905,0,0,0,752.844-201.022Z" transform="translate(-198.447 -37.703)" fill="#fff"/>
    <path id="Path_532" data-name="Path 532" d="M533.219-103.283h2.75a.946.946,0,0,0,.929-.929.946.946,0,0,0-.929-.929h-2.75a.946.946,0,0,0-.929.929A.922.922,0,0,0,533.219-103.283Z" transform="translate(0 -127.729)" fill="#fff"/>
    <path id="Path_533" data-name="Path 533" d="M575.522-27.072l-1.964,1.964a.905.905,0,0,0,0,1.286.905.905,0,0,0,1.286,0l1.964-1.964a.905.905,0,0,0,0-1.286A.905.905,0,0,0,575.522-27.072Z" transform="translate(-37.339 -198.082)" fill="#fff"/>
    <path id="Path_534" data-name="Path 534" d="M575.522-201.022a.905.905,0,0,0,1.286,0,.905.905,0,0,0,0-1.286l-1.964-1.964a.905.905,0,0,0-1.286,0,.905.905,0,0,0,0,1.286Z" transform="translate(-37.339 -37.703)" fill="#fff"/>
  </g>
</svg>
