<svg xmlns="http://www.w3.org/2000/svg" width="21.938" height="26" viewBox="0 0 21.938 26">
  <path id="Path_11693" data-name="Path 11693" d="M489.531-56.882h-.406v-3.656a.406.406,0,0,0-.406-.406.407.407,0,0,1-.406-.406v-8.235a.813.813,0,0,0,.406-.7V-71.1a.813.813,0,0,0-.406-.7v-6.2a.406.406,0,0,0,.406-.406.406.406,0,0,0-.406-.406v-.812a.406.406,0,0,0-.053-.2l1.191-1.587a.406.406,0,0,0,.038-.425.407.407,0,0,0-.363-.225H468.813a.407.407,0,0,0-.364.225.407.407,0,0,0,.039.425l1.137,1.517v1.083a.407.407,0,0,0-.406.406.406.406,0,0,0,.406.406v6.2a.813.813,0,0,0-.406.7v.813a.813.813,0,0,0,.406.7v8.235a.407.407,0,0,1-.406.406.406.406,0,0,0-.406.406v3.656h-.406a.406.406,0,0,0-.406.406.406.406,0,0,0,.406.406h21.125a.406.406,0,0,0,.406-.406.406.406,0,0,0-.406-.406ZM470.031-71.1h2.031v.813h-2.031Zm9.344-6.906v.825c-.135-.008-.27-.012-.406-.012s-.272,0-.406.012v-.825Zm5.688,0v4.472a6.927,6.927,0,0,0-4.875-3.551v-.92Zm2.844,6.906v.813h-2.031V-71.1Zm-.406,9.344h-1.625v-7.719H487.5Zm-5.281-7.719h-6.5a1.22,1.22,0,0,0-1.219,1.219v9.75h-1.625V-70.288h12.188v11.781h-1.625v-9.75a1.22,1.22,0,0,0-1.219-1.219Zm-3.25-6.906a6.1,6.1,0,0,1,6.039,5.281h-.821a5.266,5.266,0,0,0-1.424-2.861.392.392,0,0,0-.054-.067.4.4,0,0,0-.067-.054,5.306,5.306,0,0,0-.593-.5.406.406,0,0,0-.567.093.407.407,0,0,0,.093.567c.087.063.172.129.254.2l-1.739,1.739a2.03,2.03,0,0,0-.714-.3v-2.46a4.5,4.5,0,0,1,.712.123.406.406,0,0,0,.495-.292.407.407,0,0,0-.292-.495,5.3,5.3,0,0,0-1.321-.167,5.267,5.267,0,0,0-3.586,1.4,5.265,5.265,0,0,0-1.632,3.065h-.822a6.1,6.1,0,0,1,6.04-5.281Zm-.406,4.1a2.034,2.034,0,0,0-.714.3l-1.739-1.739a4.45,4.45,0,0,1,2.453-1.016Zm-3.028-.869,1.739,1.738a1.985,1.985,0,0,0-.167.308h-2.533a4.441,4.441,0,0,1,.961-2.047Zm3.434,1.64a1.218,1.218,0,0,1,.908.406h-1.816a1.218,1.218,0,0,1,.908-.406Zm1.862.406a1.993,1.993,0,0,0-.167-.308l1.739-1.739a4.451,4.451,0,0,1,.96,2.047Zm-3.081-5.986a6.927,6.927,0,0,0-4.875,3.551v-4.472h4.875Zm-5.687,7.611v7.719h-1.625v-7.719Zm.813,11.781H474.5v.813h-1.625Zm2.438-10.562a.407.407,0,0,1,.406-.406h6.5a.407.407,0,0,1,.406.406v11.375h-7.312Zm8.125,10.562h1.625v.813h-1.625Zm2.438-3.25h1.695a1.224,1.224,0,0,0,.743.743v3.32h-2.437ZM487.5-71.913h-1.625v-6.094H487.5Zm-1.625-6.906v-.812H487.5v.813Zm2.438-2.437-.61.813H484.25a.406.406,0,0,0-.406.406.406.406,0,0,0,.406.406h.813v.813H472.875v-.812h9.75a.406.406,0,0,0,.406-.406.406.406,0,0,0-.406-.406h-12.39l-.609-.813Zm-17.875,1.625h1.625v.813h-1.625Zm1.625,1.625v6.094h-1.625v-6.094ZM469.625-60.2a1.226,1.226,0,0,0,.743-.743h1.694v4.063h-2.437Zm0,0" transform="translate(-468 82.069)" fill="#fff"/>
</svg>
