<?xml version="1.0" encoding="utf-8"?>
<!-- Generator: Adobe Illustrator 23.0.1, SVG Export Plug-In . SVG Version: 6.00 Build 0)  -->
<!DOCTYPE svg PUBLIC "-//W3C//DTD SVG 1.1//EN" "http://www.w3.org/Graphics/SVG/1.1/DTD/svg11.dtd" [
	<!ENTITY ns_extend "http://ns.adobe.com/Extensibility/1.0/">
	<!ENTITY ns_ai "http://ns.adobe.com/AdobeIllustrator/10.0/">
	<!ENTITY ns_graphs "http://ns.adobe.com/Graphs/1.0/">
	<!ENTITY ns_vars "http://ns.adobe.com/Variables/1.0/">
	<!ENTITY ns_imrep "http://ns.adobe.com/ImageReplacement/1.0/">
	<!ENTITY ns_sfw "http://ns.adobe.com/SaveForWeb/1.0/">
	<!ENTITY ns_custom "http://ns.adobe.com/GenericCustomNamespace/1.0/">
	<!ENTITY ns_adobe_xpath "http://ns.adobe.com/XPath/1.0/">
]>
<svg version="1.1" id="Layer_1" xmlns:x="&ns_extend;" xmlns:i="&ns_ai;" xmlns:graph="&ns_graphs;"
	 xmlns="http://www.w3.org/2000/svg" xmlns:xlink="http://www.w3.org/1999/xlink" x="0px" y="0px" viewBox="0 0 1839.8 3394.9"
	 style="enable-background:new 0 0 1839.8 3394.9;" xml:space="preserve">
<style type="text/css">
	.st0{fill:none;stroke:#FFFFFF;stroke-width:2;stroke-linecap:round;stroke-linejoin:round;}
</style>
<metadata>
	<sfw  xmlns="&ns_sfw;">
		<slices></slices>
		<sliceSourceBounds  bottomLeftOrigin="true" height="3394.9" width="1839.8" x="580.1" y="302.6"></sliceSourceBounds>
	</sfw>
</metadata>
<line class="st0" x1="1795.9" y1="3337.1" x2="999.3" y2="3337.1"/>
<line class="st0" x1="1795.9" y1="1776.9" x2="1795.9" y2="3337.1"/>
<line class="st0" x1="43.9" y1="3337.1" x2="840.5" y2="3337.1"/>
<line class="st0" x1="43.9" y1="1776.9" x2="43.9" y2="3337.1"/>
<line class="st0" x1="1795.9" y1="57.8" x2="999.3" y2="57.8"/>
<line class="st0" x1="1795.9" y1="1618" x2="1795.9" y2="57.8"/>
<line class="st0" x1="43.9" y1="57.8" x2="840.5" y2="57.8"/>
<line class="st0" x1="43.9" y1="1618" x2="43.9" y2="57.8"/>
<line class="st0" x1="1811.4" y1="1776.9" x2="1811.4" y2="3358.2"/>
<line class="st0" x1="999.3" y1="3358.2" x2="1811.4" y2="3358.2"/>
<line class="st0" x1="28.4" y1="3358.2" x2="28.4" y2="1776.9"/>
<line class="st0" x1="840.5" y1="3358.2" x2="28.4" y2="3358.2"/>
<line class="st0" x1="1811.4" y1="36.7" x2="1811.4" y2="1618"/>
<line class="st0" x1="999.3" y1="36.7" x2="1811.4" y2="36.7"/>
<line class="st0" x1="28.4" y1="1618" x2="28.4" y2="36.7"/>
<line class="st0" x1="840.5" y1="36.7" x2="28.4" y2="36.7"/>
<line class="st0" x1="1828.9" y1="3375.7" x2="1828.9" y2="1776.9"/>
<line class="st0" x1="999.3" y1="3375.7" x2="1828.9" y2="3375.7"/>
<line class="st0" x1="10.9" y1="1776.9" x2="10.9" y2="3375.7"/>
<line class="st0" x1="840.5" y1="3375.7" x2="10.9" y2="3375.7"/>
<line class="st0" x1="1828.9" y1="1618" x2="1828.9" y2="19.2"/>
<line class="st0" x1="999.3" y1="19.2" x2="1828.9" y2="19.2"/>
<line class="st0" x1="10.9" y1="19.2" x2="10.9" y2="1618"/>
<line class="st0" x1="840.5" y1="19.2" x2="10.9" y2="19.2"/>
<line class="st0" x1="1810.7" y1="3356.9" x2="999.3" y2="3356.9"/>
<line class="st0" x1="1810.7" y1="1776.9" x2="1810.7" y2="3356.9"/>
<line class="st0" x1="29.1" y1="3356.9" x2="840.5" y2="3356.9"/>
<line class="st0" x1="29.1" y1="1776.9" x2="29.1" y2="3356.9"/>
<line class="st0" x1="1810.7" y1="38" x2="999.3" y2="38"/>
<line class="st0" x1="1810.7" y1="1618" x2="1810.7" y2="38"/>
<line class="st0" x1="29.1" y1="38" x2="840.5" y2="38"/>
<line class="st0" x1="29.1" y1="1618" x2="29.1" y2="38"/>
<line class="st0" x1="992.7" y1="1770.2" x2="995.1" y2="1772.7"/>
<line class="st0" x1="990.5" y1="1768.1" x2="992.7" y2="1770.2"/>
<line class="st0" x1="997.7" y1="1775.3" x2="995.1" y2="1772.7"/>
<line class="st0" x1="999.3" y1="1776.8" x2="999.3" y2="1776.9"/>
<line class="st0" x1="999" y1="1776.5" x2="997.7" y2="1775.3"/>
<line class="st0" x1="999.2" y1="1776.7" x2="999.3" y2="1776.8"/>
<line class="st0" x1="999.2" y1="1776.7" x2="999" y2="1776.5"/>
<line class="st0" x1="992.7" y1="1770.2" x2="995.1" y2="1772.7"/>
<line class="st0" x1="990.5" y1="1768.1" x2="992.7" y2="1770.2"/>
<line class="st0" x1="997.7" y1="1775.3" x2="995.1" y2="1772.7"/>
<line class="st0" x1="999.3" y1="1776.8" x2="999.3" y2="1776.9"/>
<line class="st0" x1="999" y1="1776.5" x2="997.7" y2="1775.3"/>
<line class="st0" x1="999.2" y1="1776.7" x2="999.3" y2="1776.8"/>
<line class="st0" x1="999.2" y1="1776.7" x2="999" y2="1776.5"/>
<line class="st0" x1="992.7" y1="3379.4" x2="990.5" y2="3379.6"/>
<line class="st0" x1="995.1" y1="3379.1" x2="992.7" y2="3379.4"/>
<line class="st0" x1="997.7" y1="3378.9" x2="995.1" y2="3379.1"/>
<line class="st0" x1="999.3" y1="3378.7" x2="999.2" y2="3378.8"/>
<line class="st0" x1="999.3" y1="3378.7" x2="999.3" y2="1776.9"/>
<line class="st0" x1="999.3" y1="3378.7" x2="999.3" y2="3378.7"/>
<line class="st0" x1="999" y1="3378.8" x2="997.7" y2="3378.9"/>
<line class="st0" x1="999" y1="3378.8" x2="999.2" y2="3378.8"/>
<line class="st0" x1="1830.9" y1="1770.2" x2="1831.1" y2="1768.1"/>
<line class="st0" x1="1830.8" y1="1772.7" x2="1830.9" y2="1770.2"/>
<line class="st0" x1="1830.7" y1="1775.3" x2="1830.8" y2="1772.7"/>
<line class="st0" x1="992" y1="1728.3" x2="990.5" y2="1728.3"/>
<line class="st0" x1="1830.6" y1="1776.8" x2="1830.6" y2="1776.7"/>
<line class="st0" x1="1830.6" y1="1776.9" x2="999.3" y2="1776.9"/>
<line class="st0" x1="1830.6" y1="1776.9" x2="1830.6" y2="1776.8"/>
<line class="st0" x1="1830.7" y1="1776.5" x2="1830.7" y2="1775.3"/>
<line class="st0" x1="1830.7" y1="1776.5" x2="1830.6" y2="1776.7"/>
<line class="st0" x1="992" y1="1762" x2="990.5" y2="1762"/>
<line class="st0" x1="992.1" y1="1757.5" x2="990.5" y2="1757.5"/>
<line class="st0" x1="992.1" y1="1733.3" x2="990.5" y2="1733.3"/>
<line class="st0" x1="847.1" y1="1770.2" x2="844.7" y2="1772.7"/>
<line class="st0" x1="849.3" y1="1768" x2="847.1" y2="1770.2"/>
<line class="st0" x1="842.1" y1="1775.3" x2="844.7" y2="1772.7"/>
<line class="st0" x1="840.5" y1="1776.8" x2="840.5" y2="1776.9"/>
<line class="st0" x1="840.8" y1="1776.5" x2="842.1" y2="1775.3"/>
<line class="st0" x1="840.6" y1="1776.7" x2="840.5" y2="1776.8"/>
<line class="st0" x1="840.6" y1="1776.7" x2="840.8" y2="1776.5"/>
<line class="st0" x1="847.1" y1="1770.2" x2="844.7" y2="1772.7"/>
<line class="st0" x1="849.3" y1="1768" x2="847.1" y2="1770.2"/>
<line class="st0" x1="842.1" y1="1775.3" x2="844.7" y2="1772.7"/>
<line class="st0" x1="840.5" y1="1776.8" x2="840.5" y2="1776.9"/>
<line class="st0" x1="840.8" y1="1776.5" x2="842.1" y2="1775.3"/>
<line class="st0" x1="840.6" y1="1776.7" x2="840.5" y2="1776.8"/>
<line class="st0" x1="840.6" y1="1776.7" x2="840.8" y2="1776.5"/>
<line class="st0" x1="847.1" y1="3379.4" x2="849.3" y2="3379.6"/>
<line class="st0" x1="844.7" y1="3379.1" x2="847.1" y2="3379.4"/>
<line class="st0" x1="842.1" y1="3378.9" x2="844.7" y2="3379.1"/>
<line class="st0" x1="840.5" y1="3378.7" x2="840.6" y2="3378.8"/>
<line class="st0" x1="840.5" y1="3378.7" x2="840.5" y2="1776.9"/>
<line class="st0" x1="840.5" y1="3378.7" x2="840.5" y2="3378.7"/>
<line class="st0" x1="840.8" y1="3378.8" x2="842.1" y2="3378.9"/>
<line class="st0" x1="840.8" y1="3378.8" x2="840.6" y2="3378.8"/>
<line class="st0" x1="8.9" y1="1770.2" x2="8.7" y2="1768"/>
<line class="st0" x1="9" y1="1772.7" x2="8.9" y2="1770.2"/>
<line class="st0" x1="9.1" y1="1775.3" x2="9" y2="1772.7"/>
<line class="st0" x1="847.5" y1="1728.3" x2="849.3" y2="1728.3"/>
<line class="st0" x1="9.2" y1="1776.8" x2="9.2" y2="1776.7"/>
<line class="st0" x1="9.2" y1="1776.9" x2="840.5" y2="1776.9"/>
<line class="st0" x1="9.2" y1="1776.9" x2="9.2" y2="1776.8"/>
<line class="st0" x1="9.1" y1="1776.5" x2="9.1" y2="1775.3"/>
<line class="st0" x1="9.1" y1="1776.5" x2="9.2" y2="1776.7"/>
<line class="st0" x1="847.5" y1="1762" x2="849.3" y2="1762"/>
<line class="st0" x1="847.4" y1="1757.5" x2="849.3" y2="1757.5"/>
<line class="st0" x1="847.4" y1="1733.3" x2="849.3" y2="1733.3"/>
<line class="st0" x1="992.7" y1="1624.7" x2="995.1" y2="1622.2"/>
<line class="st0" x1="990.5" y1="1626.8" x2="992.7" y2="1624.7"/>
<line class="st0" x1="997.7" y1="1619.6" x2="995.1" y2="1622.2"/>
<line class="st0" x1="999.3" y1="1618" x2="999.3" y2="1618"/>
<line class="st0" x1="999" y1="1618.4" x2="997.7" y2="1619.6"/>
<line class="st0" x1="999.2" y1="1618.2" x2="999.3" y2="1618"/>
<line class="st0" x1="999.2" y1="1618.2" x2="999" y2="1618.4"/>
<line class="st0" x1="992.7" y1="1624.7" x2="995.1" y2="1622.2"/>
<line class="st0" x1="990.5" y1="1626.8" x2="992.7" y2="1624.7"/>
<line class="st0" x1="997.7" y1="1619.6" x2="995.1" y2="1622.2"/>
<line class="st0" x1="999.3" y1="1618" x2="999.3" y2="1618"/>
<line class="st0" x1="999" y1="1618.4" x2="997.7" y2="1619.6"/>
<line class="st0" x1="999.2" y1="1618.2" x2="999.3" y2="1618"/>
<line class="st0" x1="999.2" y1="1618.2" x2="999" y2="1618.4"/>
<line class="st0" x1="992.7" y1="15.5" x2="990.5" y2="15.2"/>
<line class="st0" x1="995.1" y1="15.8" x2="992.7" y2="15.5"/>
<line class="st0" x1="997.7" y1="16" x2="995.1" y2="15.8"/>
<line class="st0" x1="999.3" y1="16.1" x2="999.2" y2="16.1"/>
<line class="st0" x1="999.3" y1="16.2" x2="999.3" y2="1618"/>
<line class="st0" x1="999.3" y1="16.2" x2="999.3" y2="16.1"/>
<line class="st0" x1="999" y1="16" x2="997.7" y2="16"/>
<line class="st0" x1="999" y1="16" x2="999.2" y2="16.1"/>
<line class="st0" x1="1830.9" y1="1624.7" x2="1831.1" y2="1626.8"/>
<line class="st0" x1="1830.8" y1="1622.2" x2="1830.9" y2="1624.7"/>
<line class="st0" x1="1830.7" y1="1619.6" x2="1830.8" y2="1622.2"/>
<line class="st0" x1="992" y1="1666.6" x2="990.5" y2="1666.6"/>
<line class="st0" x1="1830.6" y1="1618" x2="1830.6" y2="1618.2"/>
<line class="st0" x1="1830.6" y1="1618" x2="999.3" y2="1618"/>
<line class="st0" x1="1830.6" y1="1618" x2="1830.6" y2="1618"/>
<line class="st0" x1="1830.7" y1="1618.4" x2="1830.7" y2="1619.6"/>
<line class="st0" x1="1830.7" y1="1618.4" x2="1830.6" y2="1618.2"/>
<line class="st0" x1="992" y1="1632.9" x2="990.5" y2="1632.9"/>
<line class="st0" x1="992.1" y1="1637.4" x2="990.5" y2="1637.4"/>
<line class="st0" x1="992.1" y1="1661.6" x2="990.5" y2="1661.6"/>
<line class="st0" x1="847.1" y1="1624.7" x2="844.7" y2="1622.2"/>
<line class="st0" x1="849.3" y1="1626.8" x2="847.1" y2="1624.7"/>
<line class="st0" x1="842.1" y1="1619.6" x2="844.7" y2="1622.2"/>
<line class="st0" x1="840.5" y1="1618" x2="840.5" y2="1618"/>
<line class="st0" x1="840.8" y1="1618.4" x2="842.1" y2="1619.6"/>
<line class="st0" x1="840.6" y1="1618.2" x2="840.5" y2="1618"/>
<line class="st0" x1="840.6" y1="1618.2" x2="840.8" y2="1618.4"/>
<line class="st0" x1="847.1" y1="1624.7" x2="844.7" y2="1622.2"/>
<line class="st0" x1="849.3" y1="1626.8" x2="847.1" y2="1624.7"/>
<line class="st0" x1="842.1" y1="1619.6" x2="844.7" y2="1622.2"/>
<line class="st0" x1="840.5" y1="1618" x2="840.5" y2="1618"/>
<line class="st0" x1="840.8" y1="1618.4" x2="842.1" y2="1619.6"/>
<line class="st0" x1="840.6" y1="1618.2" x2="840.5" y2="1618"/>
<line class="st0" x1="840.6" y1="1618.2" x2="840.8" y2="1618.4"/>
<line class="st0" x1="847.1" y1="15.5" x2="849.3" y2="15.2"/>
<line class="st0" x1="844.7" y1="15.8" x2="847.1" y2="15.5"/>
<line class="st0" x1="842.1" y1="16" x2="844.7" y2="15.8"/>
<line class="st0" x1="840.5" y1="16.1" x2="840.6" y2="16.1"/>
<line class="st0" x1="840.5" y1="16.2" x2="840.5" y2="1618"/>
<line class="st0" x1="840.5" y1="16.2" x2="840.5" y2="16.1"/>
<line class="st0" x1="840.8" y1="16" x2="842.1" y2="16"/>
<line class="st0" x1="840.8" y1="16" x2="840.6" y2="16.1"/>
<line class="st0" x1="8.9" y1="1624.7" x2="8.7" y2="1626.8"/>
<line class="st0" x1="9" y1="1622.2" x2="8.9" y2="1624.7"/>
<line class="st0" x1="9.1" y1="1619.6" x2="9" y2="1622.2"/>
<line class="st0" x1="847.5" y1="1666.6" x2="849.3" y2="1666.6"/>
<line class="st0" x1="9.2" y1="1618" x2="9.2" y2="1618.2"/>
<line class="st0" x1="9.2" y1="1618" x2="840.5" y2="1618"/>
<line class="st0" x1="9.2" y1="1618" x2="9.2" y2="1618"/>
<line class="st0" x1="9.1" y1="1618.4" x2="9.1" y2="1619.6"/>
<line class="st0" x1="9.1" y1="1618.4" x2="9.2" y2="1618.2"/>
<line class="st0" x1="847.5" y1="1632.9" x2="849.3" y2="1632.9"/>
<line class="st0" x1="847.4" y1="1637.4" x2="849.3" y2="1637.4"/>
<line class="st0" x1="847.4" y1="1661.6" x2="849.3" y2="1661.6"/>
<line class="st0" x1="847.3" y1="1764.4" x2="847.4" y2="1764.4"/>
<line class="st0" x1="847.4" y1="1764.4" x2="847.4" y2="1764.4"/>
<line class="st0" x1="847.3" y1="1630.5" x2="847.4" y2="1630.5"/>
<line class="st0" x1="847.4" y1="1630.5" x2="847.4" y2="1630.5"/>
<line class="st0" x1="847.4" y1="1630.5" x2="847.4" y2="1630.5"/>
<line class="st0" x1="992.2" y1="1764.4" x2="992.1" y2="1764.4"/>
<line class="st0" x1="992.1" y1="1764.4" x2="992.1" y2="1764.4"/>
<line class="st0" x1="992.1" y1="1764.4" x2="992.1" y2="1764.4"/>
<line class="st0" x1="992.2" y1="1630.5" x2="992.1" y2="1630.5"/>
<line class="st0" x1="992.1" y1="1630.5" x2="992.1" y2="1630.5"/>
<line class="st0" x1="992.1" y1="1630.5" x2="992.1" y2="1630.5"/>
<line class="st0" x1="850.9" y1="3393.7" x2="852" y2="3393.8"/>
<line class="st0" x1="850" y1="3393.5" x2="850.9" y2="3393.7"/>
<line class="st0" x1="849.5" y1="3393.2" x2="850" y2="3393.5"/>
<line class="st0" x1="849.3" y1="3392.9" x2="849.5" y2="3393.2"/>
<line class="st0" x1="853.3" y1="3393.9" x2="852" y2="3393.8"/>
<line class="st0" x1="989.8" y1="3393.5" x2="990.3" y2="3393.2"/>
<line class="st0" x1="988.9" y1="3393.7" x2="989.8" y2="3393.5"/>
<line class="st0" x1="987.8" y1="3393.8" x2="988.9" y2="3393.7"/>
<line class="st0" x1="986.5" y1="3393.9" x2="853.3" y2="3393.9"/>
<line class="st0" x1="986.5" y1="3393.9" x2="987.8" y2="3393.8"/>
<line class="st0" x1="990.5" y1="3392.9" x2="990.3" y2="3393.2"/>
<line class="st0" x1="847.4" y1="1662.3" x2="847.5" y2="1662.3"/>
<line class="st0" x1="847.4" y1="1661.6" x2="847.4" y2="1662.3"/>
<line class="st0" x1="847.4" y1="1637" x2="847.4" y2="1661.5"/>
<line class="st0" x1="847.5" y1="1637.2" x2="847.5" y2="1637.4"/>
<line class="st0" x1="847.5" y1="1630.4" x2="847.5" y2="1630.1"/>
<line class="st0" x1="847.5" y1="1635.5" x2="847.5" y2="1637.2"/>
<line class="st0" x1="847.5" y1="1634" x2="847.5" y2="1634"/>
<line class="st0" x1="847.5" y1="1632.6" x2="847.5" y2="1633.9"/>
<line class="st0" x1="847.5" y1="1630.9" x2="847.5" y2="1632.5"/>
<line class="st0" x1="847.5" y1="1630.9" x2="847.5" y2="1630.4"/>
<line class="st0" x1="847.4" y1="1633.6" x2="847.4" y2="1633.5"/>
<line class="st0" x1="847.4" y1="1633.1" x2="847.4" y2="1633.5"/>
<line class="st0" x1="847.4" y1="1630.5" x2="847.4" y2="1630.5"/>
<line class="st0" x1="847.4" y1="1630.7" x2="847.4" y2="1630.5"/>
<line class="st0" x1="847.4" y1="1631" x2="847.4" y2="1633.1"/>
<line class="st0" x1="847.4" y1="1631" x2="847.4" y2="1630.7"/>
<line class="st0" x1="847.4" y1="1764.4" x2="847.4" y2="1764.2"/>
<line class="st0" x1="847.4" y1="1764.4" x2="847.4" y2="1764.4"/>
<line class="st0" x1="847.4" y1="1763.9" x2="847.4" y2="1764.2"/>
<line class="st0" x1="847.4" y1="1761.4" x2="847.4" y2="1761.3"/>
<line class="st0" x1="847.4" y1="1761.8" x2="847.4" y2="1763.9"/>
<line class="st0" x1="847.4" y1="1761.8" x2="847.4" y2="1761.4"/>
<line class="st0" x1="847.5" y1="1764.8" x2="847.5" y2="1764.5"/>
<line class="st0" x1="847.5" y1="1764" x2="847.5" y2="1764.5"/>
<line class="st0" x1="847.5" y1="1757.7" x2="847.5" y2="1764"/>
<line class="st0" x1="847.5" y1="1757.5" x2="847.5" y2="1757.7"/>
<line class="st0" x1="847.4" y1="1732.6" x2="847.4" y2="1757.9"/>
<line class="st0" x1="847.5" y1="1732.6" x2="847.4" y2="1732.6"/>
<line class="st0" x1="847.5" y1="1732.7" x2="847.5" y2="1733.3"/>
<line class="st0" x1="847.5" y1="1727.7" x2="847.5" y2="1727.1"/>
<line class="st0" x1="847.5" y1="1728.4" x2="847.5" y2="1732.7"/>
<line class="st0" x1="847.5" y1="1728.3" x2="847.5" y2="1727.7"/>
<line class="st0" x1="847.5" y1="1728.4" x2="847.5" y2="1728.4"/>
<line class="st0" x1="847.5" y1="1726.9" x2="847.5" y2="1727.1"/>
<line class="st0" x1="847.5" y1="1667.9" x2="847.5" y2="1726.9"/>
<line class="st0" x1="847.5" y1="1667.8" x2="847.5" y2="1667.2"/>
<line class="st0" x1="847.5" y1="1668" x2="847.5" y2="1667.8"/>
<line class="st0" x1="847.5" y1="1666.6" x2="847.5" y2="1667.2"/>
<line class="st0" x1="847.5" y1="1666.5" x2="847.5" y2="1666.5"/>
<line class="st0" x1="847.5" y1="1662.2" x2="847.5" y2="1666.5"/>
<line class="st0" x1="847.5" y1="1661.6" x2="847.5" y2="1662.2"/>
<line class="st0" x1="847.5" y1="1627.9" x2="847.5" y2="1627.4"/>
<line class="st0" x1="847.5" y1="1628.4" x2="847.5" y2="1627.9"/>
<line class="st0" x1="847.5" y1="1629" x2="847.5" y2="1628.4"/>
<line class="st0" x1="847.5" y1="1629.4" x2="847.5" y2="1629"/>
<line class="st0" x1="847.5" y1="1627.3" x2="847.5" y2="1627.4"/>
<line class="st0" x1="847.1" y1="1626.8" x2="847.5" y2="1627.3"/>
<line class="st0" x1="847.5" y1="1766.4" x2="847.5" y2="1765.9"/>
<line class="st0" x1="847.5" y1="1767" x2="847.5" y2="1766.4"/>
<line class="st0" x1="847.5" y1="1767.5" x2="847.5" y2="1767"/>
<line class="st0" x1="847.5" y1="1767.6" x2="847.1" y2="1768.1"/>
<line class="st0" x1="847.5" y1="1767.6" x2="847.5" y2="1767.5"/>
<line class="st0" x1="847.5" y1="1765.5" x2="847.5" y2="1765.9"/>
<line class="st0" x1="847.5" y1="1762.6" x2="847.5" y2="1765.5"/>
<line class="st0" x1="847.5" y1="1762.6" x2="847.5" y2="1762.4"/>
<line class="st0" x1="847.3" y1="1759.8" x2="847.3" y2="1759.5"/>
<line class="st0" x1="847.3" y1="1760.3" x2="847.3" y2="1764.5"/>
<line class="st0" x1="847.3" y1="1760.3" x2="847.3" y2="1759.8"/>
<line class="st0" x1="847.3" y1="1759.4" x2="847.3" y2="1759.5"/>
<line class="st0" x1="847.1" y1="1764.5" x2="847.1" y2="1764.2"/>
<line class="st0" x1="847.1" y1="1764.7" x2="847.1" y2="1764.5"/>
<line class="st0" x1="847.1" y1="1763.8" x2="847.1" y2="1764.2"/>
<line class="st0" x1="847.1" y1="1630.7" x2="847.1" y2="1630.3"/>
<line class="st0" x1="847.1" y1="1740.3" x2="847.1" y2="1759.3"/>
<line class="st0" x1="847.1" y1="1738.8" x2="847.1" y2="1740.2"/>
<line class="st0" x1="847.1" y1="1735.4" x2="847.1" y2="1738.8"/>
<line class="st0" x1="847.1" y1="1659.9" x2="847.1" y2="1735.3"/>
<line class="st0" x1="847.1" y1="1656.1" x2="847.1" y2="1659.5"/>
<line class="st0" x1="847.1" y1="1654.7" x2="847.1" y2="1656.1"/>
<line class="st0" x1="847.1" y1="1635.6" x2="847.1" y2="1654.6"/>
<line class="st0" x1="847.1" y1="1631.1" x2="847.1" y2="1630.7"/>
<line class="st0" x1="847.1" y1="1630.2" x2="847.1" y2="1630.3"/>
<line class="st0" x1="847.3" y1="1635.3" x2="847.3" y2="1635"/>
<line class="st0" x1="847.3" y1="1635.4" x2="847.3" y2="1635.3"/>
<line class="st0" x1="847.3" y1="1634.6" x2="847.3" y2="1635"/>
<line class="st0" x1="847.3" y1="1630.4" x2="847.3" y2="1634.6"/>
<line class="st0" x1="847.5" y1="1632.3" x2="847.5" y2="1629.4"/>
<line class="st0" x1="847.5" y1="1632.5" x2="847.5" y2="1632.3"/>
<line class="st0" x1="1.1" y1="1628.5" x2="1" y2="1629.6"/>
<line class="st0" x1="1.2" y1="1627.6" x2="1.1" y2="1628.5"/>
<line class="st0" x1="1.4" y1="1627" x2="1.2" y2="1627.6"/>
<line class="st0" x1="1.5" y1="1626.8" x2="847.1" y2="1626.8"/>
<line class="st0" x1="1.5" y1="1626.8" x2="1.4" y2="1627"/>
<line class="st0" x1="1" y1="1630.8" x2="1" y2="1629.6"/>
<line class="st0" x1="1.2" y1="1767.3" x2="1.4" y2="1767.9"/>
<line class="st0" x1="1.1" y1="1766.4" x2="1.2" y2="1767.3"/>
<line class="st0" x1="1" y1="1765.3" x2="1.1" y2="1766.4"/>
<line class="st0" x1="1" y1="1764.1" x2="1" y2="1630.8"/>
<line class="st0" x1="1" y1="1764.1" x2="1" y2="1765.3"/>
<line class="st0" x1="1.5" y1="1768" x2="847.1" y2="1768.1"/>
<line class="st0" x1="1.5" y1="1768" x2="1.4" y2="1767.9"/>
<line class="st0" x1="847.1" y1="1759.4" x2="847.3" y2="1759.4"/>
<line class="st0" x1="847.1" y1="1635.4" x2="847.3" y2="1635.4"/>
<line class="st0" x1="992.1" y1="1662.3" x2="992" y2="1662.3"/>
<line class="st0" x1="992.1" y1="1637" x2="992.1" y2="1662.3"/>
<line class="st0" x1="992" y1="1637.2" x2="992" y2="1637.4"/>
<line class="st0" x1="992" y1="1630.4" x2="992" y2="1630.1"/>
<line class="st0" x1="992" y1="1630.9" x2="992" y2="1637.2"/>
<line class="st0" x1="992" y1="1630.9" x2="992" y2="1630.4"/>
<line class="st0" x1="992.1" y1="1633.6" x2="992.1" y2="1633.5"/>
<line class="st0" x1="992.1" y1="1633.1" x2="992.1" y2="1633.5"/>
<line class="st0" x1="992.1" y1="1630.5" x2="992.1" y2="1630.5"/>
<line class="st0" x1="992.1" y1="1630.7" x2="992.1" y2="1630.5"/>
<line class="st0" x1="992.1" y1="1631" x2="992.1" y2="1633.1"/>
<line class="st0" x1="992.1" y1="1631" x2="992.1" y2="1630.7"/>
<line class="st0" x1="992.1" y1="1764.4" x2="992.1" y2="1764.2"/>
<line class="st0" x1="992.1" y1="1763.9" x2="992.1" y2="1764.2"/>
<line class="st0" x1="992.1" y1="1761.4" x2="992.1" y2="1761.3"/>
<line class="st0" x1="992.1" y1="1761.8" x2="992.1" y2="1763.9"/>
<line class="st0" x1="992.1" y1="1761.8" x2="992.1" y2="1761.4"/>
<line class="st0" x1="992" y1="1764.8" x2="992" y2="1764.5"/>
<line class="st0" x1="992" y1="1764" x2="992" y2="1764.5"/>
<line class="st0" x1="992" y1="1757.7" x2="992" y2="1764"/>
<line class="st0" x1="992" y1="1757.5" x2="992" y2="1757.7"/>
<line class="st0" x1="992.1" y1="1732.6" x2="992.1" y2="1757.9"/>
<line class="st0" x1="992" y1="1732.6" x2="992.1" y2="1732.6"/>
<line class="st0" x1="992" y1="1732.7" x2="992" y2="1733.3"/>
<line class="st0" x1="992" y1="1727.7" x2="992" y2="1727.1"/>
<line class="st0" x1="992" y1="1728.4" x2="992" y2="1732.7"/>
<line class="st0" x1="992" y1="1728.3" x2="992" y2="1727.7"/>
<line class="st0" x1="992" y1="1728.4" x2="992" y2="1728.4"/>
<line class="st0" x1="992" y1="1726.9" x2="992" y2="1727.1"/>
<line class="st0" x1="992.1" y1="1667.9" x2="992.1" y2="1726.9"/>
<line class="st0" x1="992" y1="1667.8" x2="992" y2="1667.2"/>
<line class="st0" x1="992" y1="1668" x2="992" y2="1667.8"/>
<line class="st0" x1="992" y1="1666.5" x2="992" y2="1667.2"/>
<line class="st0" x1="992" y1="1662.2" x2="992" y2="1666.5"/>
<line class="st0" x1="992" y1="1661.6" x2="992" y2="1662.2"/>
<line class="st0" x1="992" y1="1627.9" x2="992" y2="1627.4"/>
<line class="st0" x1="992" y1="1628.4" x2="992" y2="1627.9"/>
<line class="st0" x1="992" y1="1629" x2="992" y2="1628.4"/>
<line class="st0" x1="992" y1="1629.4" x2="992" y2="1629"/>
<line class="st0" x1="992" y1="1627.3" x2="992" y2="1627.4"/>
<line class="st0" x1="992.5" y1="1626.8" x2="992" y2="1627.3"/>
<line class="st0" x1="992" y1="1766.4" x2="992" y2="1765.9"/>
<line class="st0" x1="992" y1="1767" x2="992" y2="1766.4"/>
<line class="st0" x1="992" y1="1767.5" x2="992" y2="1767"/>
<line class="st0" x1="992" y1="1767.6" x2="992.5" y2="1768.1"/>
<line class="st0" x1="992" y1="1767.6" x2="992" y2="1767.5"/>
<line class="st0" x1="992" y1="1765.5" x2="992" y2="1765.9"/>
<line class="st0" x1="992.1" y1="1762.6" x2="992" y2="1765.5"/>
<line class="st0" x1="992.1" y1="1762.6" x2="992.1" y2="1762.4"/>
<line class="st0" x1="992.2" y1="1759.8" x2="992.3" y2="1759.5"/>
<line class="st0" x1="992.2" y1="1760.3" x2="992.2" y2="1764.5"/>
<line class="st0" x1="992.2" y1="1760.3" x2="992.2" y2="1759.8"/>
<line class="st0" x1="992.3" y1="1759.4" x2="992.3" y2="1759.5"/>
<line class="st0" x1="992.5" y1="1764.5" x2="992.5" y2="1764.2"/>
<line class="st0" x1="992.5" y1="1764.7" x2="992.5" y2="1764.5"/>
<line class="st0" x1="992.5" y1="1763.8" x2="992.5" y2="1764.2"/>
<line class="st0" x1="992.5" y1="1630.7" x2="992.5" y2="1630.3"/>
<line class="st0" x1="992.5" y1="1740.3" x2="992.5" y2="1759.3"/>
<line class="st0" x1="992.5" y1="1738.8" x2="992.5" y2="1740.2"/>
<line class="st0" x1="992.5" y1="1735.4" x2="992.5" y2="1738.8"/>
<line class="st0" x1="992.5" y1="1703" x2="992.5" y2="1735.3"/>
<line class="st0" x1="992.5" y1="1659.9" x2="992.5" y2="1703"/>
<line class="st0" x1="992.5" y1="1656.1" x2="992.5" y2="1659.5"/>
<line class="st0" x1="992.5" y1="1654.7" x2="992.5" y2="1656.1"/>
<line class="st0" x1="992.5" y1="1635.6" x2="992.5" y2="1654.6"/>
<line class="st0" x1="992.5" y1="1631.1" x2="992.5" y2="1630.7"/>
<line class="st0" x1="992.5" y1="1630.2" x2="992.5" y2="1630.3"/>
<line class="st0" x1="992.3" y1="1635.3" x2="992.2" y2="1635"/>
<line class="st0" x1="992.3" y1="1635.4" x2="992.3" y2="1635.3"/>
<line class="st0" x1="992.2" y1="1634.6" x2="992.2" y2="1635"/>
<line class="st0" x1="992.2" y1="1630.4" x2="992.2" y2="1634.6"/>
<line class="st0" x1="992.1" y1="1632.3" x2="992" y2="1629.4"/>
<line class="st0" x1="992.1" y1="1632.5" x2="992.1" y2="1632.3"/>
<line class="st0" x1="1838.7" y1="1628.5" x2="1838.8" y2="1629.6"/>
<line class="st0" x1="1838.6" y1="1627.6" x2="1838.7" y2="1628.5"/>
<line class="st0" x1="1838.4" y1="1627" x2="1838.6" y2="1627.6"/>
<line class="st0" x1="1838.3" y1="1626.8" x2="992.5" y2="1626.8"/>
<line class="st0" x1="1838.3" y1="1626.8" x2="1838.4" y2="1627"/>
<line class="st0" x1="1838.8" y1="1630.8" x2="1838.8" y2="1629.6"/>
<line class="st0" x1="1838.6" y1="1767.3" x2="1838.4" y2="1767.9"/>
<line class="st0" x1="1838.7" y1="1766.4" x2="1838.6" y2="1767.3"/>
<line class="st0" x1="1838.8" y1="1765.3" x2="1838.7" y2="1766.4"/>
<line class="st0" x1="1838.8" y1="1764.1" x2="1838.8" y2="1630.8"/>
<line class="st0" x1="1838.8" y1="1764.1" x2="1838.8" y2="1765.3"/>
<line class="st0" x1="1838.3" y1="1768.1" x2="992.5" y2="1768.1"/>
<line class="st0" x1="1838.3" y1="1768.1" x2="1838.4" y2="1767.9"/>
<line class="st0" x1="992.5" y1="1759.4" x2="992.3" y2="1759.4"/>
<line class="st0" x1="992.5" y1="1635.4" x2="992.3" y2="1635.4"/>
<line class="st0" x1="850.9" y1="1.2" x2="852" y2="1"/>
<line class="st0" x1="850" y1="1.4" x2="850.9" y2="1.2"/>
<line class="st0" x1="849.5" y1="1.7" x2="850" y2="1.4"/>
<line class="st0" x1="849.3" y1="2" x2="849.3" y2="3392.9"/>
<line class="st0" x1="849.3" y1="2" x2="849.5" y2="1.7"/>
<line class="st0" x1="853.3" y1="1" x2="852" y2="1"/>
<line class="st0" x1="989.8" y1="1.4" x2="990.3" y2="1.7"/>
<line class="st0" x1="988.9" y1="1.2" x2="989.8" y2="1.4"/>
<line class="st0" x1="987.8" y1="1" x2="988.9" y2="1.2"/>
<line class="st0" x1="986.5" y1="1" x2="853.3" y2="1"/>
<line class="st0" x1="986.5" y1="1" x2="987.8" y2="1"/>
<line class="st0" x1="990.5" y1="2" x2="990.5" y2="3392.9"/>
<line class="st0" x1="990.5" y1="2" x2="990.3" y2="1.7"/>
</svg>
