<?xml version="1.0" encoding="utf-8"?>
<!-- Generator: Adobe Illustrator 23.0.1, SVG Export Plug-In . SVG Version: 6.00 Build 0)  -->
<!DOCTYPE svg PUBLIC "-//W3C//DTD SVG 1.1//EN" "http://www.w3.org/Graphics/SVG/1.1/DTD/svg11.dtd" [
	<!ENTITY ns_extend "http://ns.adobe.com/Extensibility/1.0/">
	<!ENTITY ns_ai "http://ns.adobe.com/AdobeIllustrator/10.0/">
	<!ENTITY ns_graphs "http://ns.adobe.com/Graphs/1.0/">
	<!ENTITY ns_vars "http://ns.adobe.com/Variables/1.0/">
	<!ENTITY ns_imrep "http://ns.adobe.com/ImageReplacement/1.0/">
	<!ENTITY ns_sfw "http://ns.adobe.com/SaveForWeb/1.0/">
	<!ENTITY ns_custom "http://ns.adobe.com/GenericCustomNamespace/1.0/">
	<!ENTITY ns_adobe_xpath "http://ns.adobe.com/XPath/1.0/">
]>
<svg version="1.1" id="Layer_1" xmlns:x="&ns_extend;" xmlns:i="&ns_ai;" xmlns:graph="&ns_graphs;"
	 xmlns="http://www.w3.org/2000/svg" xmlns:xlink="http://www.w3.org/1999/xlink" x="0px" y="0px" viewBox="0 0 1839.8 3394.9"
	 style="enable-background:new 0 0 1839.8 3394.9;" xml:space="preserve">
<style type="text/css">
	.st0{fill:none;stroke:#FFFFFF;stroke-width:2;stroke-linecap:round;stroke-linejoin:round;}
</style>
<metadata>
	<sfw  xmlns="&ns_sfw;">
		<slices></slices>
		<sliceSourceBounds  bottomLeftOrigin="true" height="3394.9" width="1839.8" x="580.1" y="302.6"></sliceSourceBounds>
	</sfw>
</metadata>
<line class="st0" x1="61.6" y1="3303.9" x2="849.2" y2="3303.9"/>
<line class="st0" x1="61.6" y1="1768.1" x2="61.6" y2="3303.9"/>
<line class="st0" x1="1778.2" y1="3303.9" x2="990.6" y2="3303.9"/>
<line class="st0" x1="1778.2" y1="1773.6" x2="1778.2" y2="3303.9"/>
<line class="st0" x1="61.6" y1="91" x2="849.2" y2="91"/>
<line class="st0" x1="61.6" y1="1621.3" x2="61.6" y2="91"/>
<line class="st0" x1="1778.2" y1="91" x2="990.6" y2="91"/>
<line class="st0" x1="1778.2" y1="1626.8" x2="1778.2" y2="91"/>
<line class="st0" x1="46.5" y1="3324.3" x2="46.5" y2="1768.1"/>
<line class="st0" x1="849.2" y1="3324.3" x2="46.5" y2="3324.3"/>
<line class="st0" x1="849.2" y1="1721.8" x2="849.2" y2="1721.8"/>
<line class="st0" x1="1793.3" y1="1768.1" x2="1793.3" y2="3324.3"/>
<line class="st0" x1="990.6" y1="3324.3" x2="1793.3" y2="3324.3"/>
<line class="st0" x1="990.6" y1="1721.8" x2="990.9" y2="1721.8"/>
<line class="st0" x1="46.5" y1="1626.8" x2="46.5" y2="70.5"/>
<line class="st0" x1="849.2" y1="70.5" x2="46.5" y2="70.5"/>
<line class="st0" x1="849.2" y1="1673.1" x2="849.2" y2="1673.1"/>
<line class="st0" x1="1793.3" y1="70.5" x2="1793.3" y2="1626.8"/>
<line class="st0" x1="990.6" y1="70.5" x2="1793.3" y2="70.5"/>
<line class="st0" x1="990.6" y1="1673.1" x2="990.9" y2="1673.1"/>
<line class="st0" x1="849.2" y1="1721.8" x2="849.2" y2="1721.8"/>
<line class="st0" x1="849.2" y1="1721.7" x2="849.2" y2="1721.7"/>
<line class="st0" x1="990.9" y1="1721.8" x2="990.6" y2="1721.8"/>
<line class="st0" x1="990.9" y1="1721.7" x2="990.6" y2="1721.7"/>
<line class="st0" x1="849.2" y1="1673.1" x2="849.2" y2="1673.1"/>
<line class="st0" x1="849.2" y1="1673.2" x2="849.2" y2="1673.2"/>
<line class="st0" x1="990.9" y1="1673.1" x2="990.6" y2="1673.1"/>
<line class="st0" x1="990.9" y1="1673.2" x2="990.6" y2="1673.2"/>
<line class="st0" x1="29.4" y1="1768.1" x2="29.4" y2="3341.5"/>
<line class="st0" x1="849.2" y1="3341.5" x2="29.4" y2="3341.5"/>
<line class="st0" x1="849.2" y1="1721.6" x2="849.2" y2="1721.6"/>
<line class="st0" x1="1810.4" y1="3341.5" x2="1810.4" y2="1768.1"/>
<line class="st0" x1="990.6" y1="3341.5" x2="1810.4" y2="3341.5"/>
<line class="st0" x1="990.6" y1="1721.6" x2="990.9" y2="1721.6"/>
<line class="st0" x1="29.4" y1="53.4" x2="29.4" y2="1626.8"/>
<line class="st0" x1="849.2" y1="53.4" x2="29.4" y2="53.4"/>
<line class="st0" x1="849.2" y1="1673.2" x2="849.2" y2="1673.2"/>
<line class="st0" x1="1810.4" y1="1626.8" x2="1810.4" y2="53.4"/>
<line class="st0" x1="990.6" y1="53.4" x2="1810.4" y2="53.4"/>
<line class="st0" x1="990.6" y1="1673.2" x2="990.9" y2="1673.2"/>
<line class="st0" x1="47.2" y1="3323.1" x2="849.2" y2="3323.1"/>
<line class="st0" x1="47.2" y1="1768.1" x2="47.2" y2="3323.1"/>
<line class="st0" x1="1792.6" y1="3323.1" x2="990.6" y2="3323.1"/>
<line class="st0" x1="1792.6" y1="1768.1" x2="1792.6" y2="3323.1"/>
<line class="st0" x1="47.2" y1="71.8" x2="849.2" y2="71.8"/>
<line class="st0" x1="47.2" y1="1626.8" x2="47.2" y2="71.8"/>
<line class="st0" x1="1792.6" y1="71.8" x2="990.6" y2="71.8"/>
<line class="st0" x1="1792.6" y1="1621.3" x2="1792.6" y2="71.8"/>
<line class="st0" x1="990.8" y1="1702.9" x2="990.6" y2="1702.9"/>
<line class="st0" x1="990.8" y1="1692" x2="990.6" y2="1692"/>
<line class="st0" x1="848.1" y1="1769.3" x2="849.2" y2="1768.1"/>
<line class="st0" x1="845.4" y1="1771.9" x2="848.1" y2="1769.3"/>
<line class="st0" x1="843.7" y1="1773.6" x2="845.4" y2="1771.9"/>
<line class="st0" x1="843.4" y1="1773.9" x2="843.7" y2="1773.6"/>
<line class="st0" x1="843.2" y1="1774.2" x2="843.4" y2="1773.9"/>
<line class="st0" x1="843" y1="1774.3" x2="843.2" y2="1774.2"/>
<line class="st0" x1="843" y1="1774.4" x2="843" y2="1774.3"/>
<line class="st0" x1="848.1" y1="1769.3" x2="849.2" y2="1768.1"/>
<line class="st0" x1="845.4" y1="1771.9" x2="848.1" y2="1769.3"/>
<line class="st0" x1="843.7" y1="1773.6" x2="845.4" y2="1771.9"/>
<line class="st0" x1="843.4" y1="1773.9" x2="843.7" y2="1773.6"/>
<line class="st0" x1="843.2" y1="1774.2" x2="843.4" y2="1773.9"/>
<line class="st0" x1="843" y1="1774.3" x2="843.2" y2="1774.2"/>
<line class="st0" x1="843" y1="1774.4" x2="843" y2="1774.3"/>
<line class="st0" x1="843" y1="3303.9" x2="843" y2="1774.4"/>
<line class="st0" x1="848.5" y1="1767" x2="849.2" y2="1767"/>
<line class="st0" x1="61.6" y1="1774.4" x2="843" y2="1774.4"/>
<line class="st0" x1="991.8" y1="1769.3" x2="990.6" y2="1768.1"/>
<line class="st0" x1="994.4" y1="1771.9" x2="991.8" y2="1769.3"/>
<line class="st0" x1="996.1" y1="1773.6" x2="994.4" y2="1771.9"/>
<line class="st0" x1="996.4" y1="1773.9" x2="996.1" y2="1773.6"/>
<line class="st0" x1="996.7" y1="1774.2" x2="996.4" y2="1773.9"/>
<line class="st0" x1="996.8" y1="1774.3" x2="996.7" y2="1774.2"/>
<line class="st0" x1="996.8" y1="1774.4" x2="996.8" y2="1774.3"/>
<line class="st0" x1="991.8" y1="1769.3" x2="990.6" y2="1768.1"/>
<line class="st0" x1="994.4" y1="1771.9" x2="991.8" y2="1769.3"/>
<line class="st0" x1="996.1" y1="1773.6" x2="994.4" y2="1771.9"/>
<line class="st0" x1="996.4" y1="1773.9" x2="996.1" y2="1773.6"/>
<line class="st0" x1="996.7" y1="1774.2" x2="996.4" y2="1773.9"/>
<line class="st0" x1="996.8" y1="1774.3" x2="996.7" y2="1774.2"/>
<line class="st0" x1="996.8" y1="1774.4" x2="996.8" y2="1774.3"/>
<line class="st0" x1="996.8" y1="3303.9" x2="996.8" y2="1774.4"/>
<line class="st0" x1="990.8" y1="1733.1" x2="990.6" y2="1733.1"/>
<line class="st0" x1="990.9" y1="1738" x2="990.6" y2="1738"/>
<line class="st0" x1="990.9" y1="1761.5" x2="990.6" y2="1761.5"/>
<line class="st0" x1="990.8" y1="1766.2" x2="990.6" y2="1766.2"/>
<line class="st0" x1="991.6" y1="1767" x2="990.6" y2="1767"/>
<line class="st0" x1="1778.2" y1="1774.4" x2="996.8" y2="1774.4"/>
<line class="st0" x1="848.1" y1="1625.6" x2="849.2" y2="1626.8"/>
<line class="st0" x1="845.4" y1="1623" x2="848.1" y2="1625.6"/>
<line class="st0" x1="843.7" y1="1621.3" x2="845.4" y2="1623"/>
<line class="st0" x1="843.4" y1="1620.9" x2="843.7" y2="1621.3"/>
<line class="st0" x1="843.2" y1="1620.7" x2="843.4" y2="1620.9"/>
<line class="st0" x1="843" y1="1620.6" x2="843.2" y2="1620.7"/>
<line class="st0" x1="843" y1="1620.5" x2="843" y2="1620.6"/>
<line class="st0" x1="848.1" y1="1625.6" x2="849.2" y2="1626.8"/>
<line class="st0" x1="845.4" y1="1623" x2="848.1" y2="1625.6"/>
<line class="st0" x1="843.7" y1="1621.3" x2="845.4" y2="1623"/>
<line class="st0" x1="843.4" y1="1620.9" x2="843.7" y2="1621.3"/>
<line class="st0" x1="843.2" y1="1620.7" x2="843.4" y2="1620.9"/>
<line class="st0" x1="843" y1="1620.6" x2="843.2" y2="1620.7"/>
<line class="st0" x1="843" y1="1620.5" x2="843" y2="1620.6"/>
<line class="st0" x1="843" y1="91" x2="843" y2="1620.5"/>
<line class="st0" x1="848.5" y1="1627.9" x2="849.2" y2="1627.9"/>
<line class="st0" x1="61.6" y1="1620.5" x2="843" y2="1620.5"/>
<line class="st0" x1="991.8" y1="1625.6" x2="990.6" y2="1626.8"/>
<line class="st0" x1="994.4" y1="1623" x2="991.8" y2="1625.6"/>
<line class="st0" x1="996.1" y1="1621.3" x2="994.4" y2="1623"/>
<line class="st0" x1="996.7" y1="1620.7" x2="996.4" y2="1620.9"/>
<line class="st0" x1="996.8" y1="1620.6" x2="996.7" y2="1620.7"/>
<line class="st0" x1="996.8" y1="1620.5" x2="996.8" y2="1620.6"/>
<line class="st0" x1="991.8" y1="1625.6" x2="990.6" y2="1626.8"/>
<line class="st0" x1="994.4" y1="1623" x2="991.8" y2="1625.6"/>
<line class="st0" x1="996.1" y1="1621.3" x2="994.4" y2="1623"/>
<line class="st0" x1="996.4" y1="1620.9" x2="996.1" y2="1621.3"/>
<line class="st0" x1="996.7" y1="1620.7" x2="996.4" y2="1620.9"/>
<line class="st0" x1="996.8" y1="1620.6" x2="996.7" y2="1620.7"/>
<line class="st0" x1="996.8" y1="1620.5" x2="996.8" y2="1620.6"/>
<line class="st0" x1="996.8" y1="91" x2="996.8" y2="1620.5"/>
<line class="st0" x1="990.8" y1="1661.7" x2="990.6" y2="1661.7"/>
<line class="st0" x1="990.9" y1="1656.9" x2="990.6" y2="1656.9"/>
<line class="st0" x1="990.9" y1="1633.4" x2="990.6" y2="1633.4"/>
<line class="st0" x1="990.8" y1="1628.7" x2="990.6" y2="1628.7"/>
<line class="st0" x1="991.6" y1="1627.9" x2="990.6" y2="1627.9"/>
<line class="st0" x1="1778.2" y1="1620.5" x2="996.8" y2="1620.5"/>
<line class="st0" x1="849.6" y1="3393.5" x2="850.6" y2="3393.8"/>
<line class="st0" x1="849.2" y1="3393.2" x2="849.6" y2="3393.5"/>
<line class="st0" x1="852.1" y1="3393.9" x2="850.6" y2="3393.8"/>
<line class="st0" x1="989.2" y1="3393.8" x2="990.2" y2="3393.5"/>
<line class="st0" x1="987.8" y1="3393.9" x2="852.1" y2="3393.9"/>
<line class="st0" x1="987.8" y1="3393.9" x2="989.2" y2="3393.8"/>
<line class="st0" x1="990.6" y1="3393.2" x2="990.2" y2="3393.5"/>
<line class="st0" x1="849.6" y1="1.3" x2="850.6" y2="1.1"/>
<line class="st0" x1="849.2" y1="1.7" x2="849.2" y2="3393.2"/>
<line class="st0" x1="849.2" y1="1.7" x2="849.6" y2="1.3"/>
<line class="st0" x1="852.1" y1="1" x2="850.6" y2="1.1"/>
<line class="st0" x1="989.2" y1="1.1" x2="990.2" y2="1.3"/>
<line class="st0" x1="987.8" y1="1" x2="852.1" y2="1"/>
<line class="st0" x1="987.8" y1="1" x2="989.2" y2="1.1"/>
<line class="st0" x1="990.6" y1="1.7" x2="990.6" y2="3393.2"/>
<line class="st0" x1="990.6" y1="1.7" x2="990.2" y2="1.3"/>
<line class="st0" x1="990.8" y1="1691.7" x2="990.8" y2="1691.9"/>
<line class="st0" x1="990.8" y1="1691.5" x2="990.8" y2="1690.6"/>
<line class="st0" x1="990.8" y1="1691.5" x2="990.8" y2="1691.7"/>
<line class="st0" x1="990.8" y1="1691.9" x2="990.8" y2="1691.9"/>
<line class="st0" x1="990.9" y1="1697.4" x2="990.8" y2="1691.9"/>
<line class="st0" x1="990.8" y1="1703" x2="990.9" y2="1697.4"/>
<line class="st0" x1="990.8" y1="1703" x2="990.8" y2="1703.2"/>
<line class="st0" x1="990.8" y1="1703" x2="990.8" y2="1703"/>
<line class="st0" x1="990.8" y1="1703.4" x2="990.8" y2="1703.2"/>
<line class="st0" x1="990.8" y1="1704.3" x2="990.8" y2="1703.4"/>
<line class="st0" x1="990.8" y1="1703" x2="990.8" y2="1703.2"/>
<line class="st0" x1="990.8" y1="1703" x2="990.8" y2="1703"/>
<line class="st0" x1="990.8" y1="1703.4" x2="990.8" y2="1703.2"/>
<line class="st0" x1="990.8" y1="1704.3" x2="990.8" y2="1703.4"/>
<line class="st0" x1="990.7" y1="1703" x2="990.7" y2="1703.2"/>
<line class="st0" x1="990.7" y1="1703" x2="990.7" y2="1703"/>
<line class="st0" x1="990.7" y1="1703.4" x2="990.7" y2="1703.2"/>
<line class="st0" x1="990.7" y1="1704.3" x2="990.7" y2="1703.4"/>
<line class="st0" x1="990.7" y1="1703" x2="990.7" y2="1703.2"/>
<line class="st0" x1="990.7" y1="1703" x2="990.7" y2="1703"/>
<line class="st0" x1="990.7" y1="1703.4" x2="990.7" y2="1703.2"/>
<line class="st0" x1="990.7" y1="1704.3" x2="990.7" y2="1703.4"/>
<line class="st0" x1="990.6" y1="1703" x2="990.6" y2="1703.2"/>
<line class="st0" x1="990.6" y1="1703" x2="990.6" y2="1703"/>
<line class="st0" x1="990.6" y1="1703.4" x2="990.6" y2="1703.2"/>
<line class="st0" x1="990.6" y1="1704.3" x2="990.6" y2="1703.4"/>
<line class="st0" x1="990.6" y1="1703" x2="990.6" y2="1703.2"/>
<line class="st0" x1="990.6" y1="1702.9" x2="990.6" y2="1703"/>
<line class="st0" x1="990.6" y1="1703.4" x2="990.6" y2="1703.2"/>
<line class="st0" x1="990.6" y1="1703.7" x2="990.6" y2="1703.4"/>
<line class="st0" x1="990.9" y1="1711.2" x2="990.6" y2="1711.2"/>
<line class="st0" x1="990.9" y1="1733.3" x2="990.9" y2="1711.2"/>
<line class="st0" x1="990.8" y1="1729.2" x2="990.8" y2="1729.7"/>
<line class="st0" x1="990.8" y1="1729.1" x2="990.8" y2="1729.2"/>
<line class="st0" x1="990.8" y1="1730.4" x2="990.8" y2="1729.7"/>
<line class="st0" x1="990.8" y1="1737.3" x2="990.8" y2="1737.4"/>
<line class="st0" x1="990.8" y1="1737.1" x2="990.8" y2="1730.4"/>
<line class="st0" x1="990.8" y1="1737.1" x2="990.8" y2="1737.3"/>
<line class="st0" x1="990.8" y1="1737.5" x2="990.8" y2="1737.4"/>
<line class="st0" x1="990.8" y1="1738" x2="990.8" y2="1737.5"/>
<line class="st0" x1="990.9" y1="1737.4" x2="990.8" y2="1737.4"/>
<line class="st0" x1="990.9" y1="1738.6" x2="990.9" y2="1738.7"/>
<line class="st0" x1="990.9" y1="1738.5" x2="990.9" y2="1737.4"/>
<line class="st0" x1="990.9" y1="1738.5" x2="990.9" y2="1738.6"/>
<line class="st0" x1="990.9" y1="1738.7" x2="990.9" y2="1738.7"/>
<line class="st0" x1="990.9" y1="1738.8" x2="990.9" y2="1738.7"/>
<line class="st0" x1="990.9" y1="1748.3" x2="990.9" y2="1748.5"/>
<line class="st0" x1="990.9" y1="1748.1" x2="990.9" y2="1738.8"/>
<line class="st0" x1="990.9" y1="1748.1" x2="990.9" y2="1748.3"/>
<line class="st0" x1="990.9" y1="1748.7" x2="990.9" y2="1748.5"/>
<line class="st0" x1="990.9" y1="1749.8" x2="990.9" y2="1748.7"/>
<line class="st0" x1="990.9" y1="1751.1" x2="990.9" y2="1751.3"/>
<line class="st0" x1="990.9" y1="1750.9" x2="990.9" y2="1749.8"/>
<line class="st0" x1="990.9" y1="1750.9" x2="990.9" y2="1751.1"/>
<line class="st0" x1="990.9" y1="1751.5" x2="990.9" y2="1751.3"/>
<line class="st0" x1="990.9" y1="1760.8" x2="990.9" y2="1751.5"/>
<line class="st0" x1="990.9" y1="1760.8" x2="990.9" y2="1760.9"/>
<line class="st0" x1="990.9" y1="1760.8" x2="990.9" y2="1760.8"/>
<line class="st0" x1="990.9" y1="1761" x2="990.9" y2="1760.9"/>
<line class="st0" x1="990.9" y1="1762.1" x2="990.9" y2="1761"/>
<line class="st0" x1="990.8" y1="1762" x2="990.8" y2="1762.1"/>
<line class="st0" x1="990.8" y1="1761.9" x2="990.8" y2="1761.5"/>
<line class="st0" x1="990.8" y1="1761.9" x2="990.8" y2="1762"/>
<line class="st0" x1="990.8" y1="1762.2" x2="990.8" y2="1762.1"/>
<line class="st0" x1="990.8" y1="1765.5" x2="990.8" y2="1766"/>
<line class="st0" x1="990.8" y1="1764.8" x2="990.8" y2="1762.2"/>
<line class="st0" x1="990.8" y1="1764.8" x2="990.8" y2="1765.5"/>
<line class="st0" x1="990.8" y1="1766.2" x2="990.8" y2="1766"/>
<line class="st0" x1="992.7" y1="1768.1" x2="990.8" y2="1766.2"/>
<line class="st0" x1="990.8" y1="1628.9" x2="990.8" y2="1629.4"/>
<line class="st0" x1="990.8" y1="1628.7" x2="992.7" y2="1626.8"/>
<line class="st0" x1="990.8" y1="1628.7" x2="990.8" y2="1628.9"/>
<line class="st0" x1="990.8" y1="1630.1" x2="990.8" y2="1629.4"/>
<line class="st0" x1="990.8" y1="1632.8" x2="990.8" y2="1632.9"/>
<line class="st0" x1="990.8" y1="1632.6" x2="990.8" y2="1630.1"/>
<line class="st0" x1="990.8" y1="1632.6" x2="990.8" y2="1632.8"/>
<line class="st0" x1="990.8" y1="1633" x2="990.8" y2="1632.9"/>
<line class="st0" x1="990.8" y1="1633.4" x2="990.8" y2="1633"/>
<line class="st0" x1="990.9" y1="1634" x2="990.9" y2="1634"/>
<line class="st0" x1="990.9" y1="1633.9" x2="990.9" y2="1632.8"/>
<line class="st0" x1="990.9" y1="1633.9" x2="990.9" y2="1634"/>
<line class="st0" x1="990.9" y1="1634.1" x2="990.9" y2="1634"/>
<line class="st0" x1="990.9" y1="1643.6" x2="990.9" y2="1643.8"/>
<line class="st0" x1="990.9" y1="1635.5" x2="990.9" y2="1634"/>
<line class="st0" x1="990.9" y1="1638.1" x2="990.9" y2="1635.5"/>
<line class="st0" x1="990.9" y1="1641.9" x2="990.9" y2="1638.1"/>
<line class="st0" x1="990.9" y1="1643.4" x2="990.9" y2="1641.9"/>
<line class="st0" x1="990.9" y1="1643.4" x2="990.9" y2="1643.6"/>
<line class="st0" x1="990.9" y1="1644" x2="990.9" y2="1643.8"/>
<line class="st0" x1="990.9" y1="1645.1" x2="990.9" y2="1644"/>
<line class="st0" x1="990.9" y1="1646.4" x2="990.9" y2="1646.6"/>
<line class="st0" x1="990.9" y1="1646.2" x2="990.9" y2="1645.1"/>
<line class="st0" x1="990.9" y1="1646.2" x2="990.9" y2="1646.4"/>
<line class="st0" x1="990.9" y1="1646.8" x2="990.9" y2="1646.6"/>
<line class="st0" x1="990.9" y1="1656.1" x2="990.9" y2="1646.8"/>
<line class="st0" x1="990.9" y1="1656.2" x2="990.9" y2="1656.2"/>
<line class="st0" x1="990.9" y1="1656.1" x2="990.9" y2="1656.1"/>
<line class="st0" x1="990.9" y1="1656.1" x2="990.9" y2="1656.2"/>
<line class="st0" x1="990.9" y1="1656.3" x2="990.9" y2="1656.2"/>
<line class="st0" x1="990.9" y1="1657.5" x2="990.9" y2="1656.3"/>
<line class="st0" x1="990.8" y1="1657.5" x2="990.9" y2="1657.5"/>
<line class="st0" x1="990.8" y1="1657.5" x2="990.8" y2="1657.6"/>
<line class="st0" x1="990.8" y1="1657.4" x2="990.8" y2="1656.9"/>
<line class="st0" x1="990.8" y1="1657.4" x2="990.8" y2="1657.5"/>
<line class="st0" x1="990.8" y1="1657.7" x2="990.8" y2="1657.6"/>
<line class="st0" x1="990.8" y1="1665.1" x2="990.8" y2="1665.6"/>
<line class="st0" x1="990.8" y1="1664.4" x2="990.8" y2="1657.7"/>
<line class="st0" x1="990.8" y1="1664.4" x2="990.8" y2="1665.1"/>
<line class="st0" x1="990.8" y1="1665.8" x2="990.8" y2="1665.6"/>
<line class="st0" x1="990.9" y1="1683.7" x2="990.9" y2="1661.6"/>
<line class="st0" x1="990.6" y1="1683.7" x2="990.9" y2="1683.7"/>
<line class="st0" x1="990.6" y1="1691.7" x2="990.6" y2="1691.9"/>
<line class="st0" x1="990.6" y1="1691.5" x2="990.6" y2="1691.2"/>
<line class="st0" x1="990.6" y1="1691.5" x2="990.6" y2="1691.7"/>
<line class="st0" x1="990.6" y1="1691.9" x2="990.6" y2="1691.9"/>
<line class="st0" x1="990.6" y1="1691.7" x2="990.6" y2="1691.9"/>
<line class="st0" x1="990.6" y1="1691.5" x2="990.6" y2="1690.6"/>
<line class="st0" x1="990.6" y1="1691.5" x2="990.6" y2="1691.7"/>
<line class="st0" x1="990.6" y1="1691.9" x2="990.6" y2="1691.9"/>
<line class="st0" x1="990.7" y1="1691.7" x2="990.7" y2="1691.9"/>
<line class="st0" x1="990.7" y1="1691.5" x2="990.7" y2="1690.6"/>
<line class="st0" x1="990.7" y1="1691.5" x2="990.7" y2="1691.7"/>
<line class="st0" x1="990.7" y1="1691.9" x2="990.7" y2="1691.9"/>
<line class="st0" x1="990.7" y1="1691.7" x2="990.7" y2="1691.9"/>
<line class="st0" x1="990.7" y1="1691.5" x2="990.7" y2="1690.6"/>
<line class="st0" x1="990.7" y1="1691.5" x2="990.7" y2="1691.7"/>
<line class="st0" x1="990.7" y1="1691.9" x2="990.7" y2="1691.9"/>
<line class="st0" x1="990.8" y1="1691.9" x2="990.8" y2="1691.9"/>
<line class="st0" x1="990.8" y1="1691.7" x2="990.8" y2="1691.9"/>
<line class="st0" x1="990.8" y1="1691.5" x2="990.8" y2="1690.6"/>
<line class="st0" x1="990.8" y1="1691.5" x2="990.8" y2="1691.7"/>
<line class="st0" x1="992.7" y1="1703" x2="992.7" y2="1762.4"/>
<line class="st0" x1="992.7" y1="1691.9" x2="992.7" y2="1702.9"/>
<line class="st0" x1="992.7" y1="1669" x2="992.7" y2="1691.9"/>
<line class="st0" x1="992.7" y1="1665.8" x2="992.7" y2="1669"/>
<line class="st0" x1="992.7" y1="1661.7" x2="992.7" y2="1665.8"/>
<line class="st0" x1="992.7" y1="1641.9" x2="992.7" y2="1661.6"/>
<line class="st0" x1="992.7" y1="1632.5" x2="992.7" y2="1641.9"/>
<line class="st0" x1="990.8" y1="1703" x2="990.7" y2="1703"/>
<line class="st0" x1="990.8" y1="1703" x2="990.7" y2="1703"/>
<line class="st0" x1="990.8" y1="1703" x2="990.6" y2="1703"/>
<line class="st0" x1="990.8" y1="1702.9" x2="990.6" y2="1702.9"/>
<line class="st0" x1="990.8" y1="1702.9" x2="990.6" y2="1702.9"/>
<line class="st0" x1="990.8" y1="1702.9" x2="990.6" y2="1702.9"/>
<line class="st0" x1="990.8" y1="1702.9" x2="990.6" y2="1702.9"/>
<line class="st0" x1="990.8" y1="1702.9" x2="990.6" y2="1702.9"/>
<line class="st0" x1="990.9" y1="1729.1" x2="990.8" y2="1729.1"/>
<line class="st0" x1="1838.6" y1="1767.7" x2="1838.8" y2="1766.7"/>
<line class="st0" x1="1838.4" y1="1768.1" x2="992.7" y2="1768.1"/>
<line class="st0" x1="1838.4" y1="1768.1" x2="1838.6" y2="1767.7"/>
<line class="st0" x1="1838.8" y1="1765.3" x2="1838.8" y2="1766.7"/>
<line class="st0" x1="1838.8" y1="1628.2" x2="1838.6" y2="1627.1"/>
<line class="st0" x1="1838.8" y1="1629.6" x2="1838.8" y2="1765.3"/>
<line class="st0" x1="1838.8" y1="1629.6" x2="1838.8" y2="1628.2"/>
<line class="st0" x1="1838.4" y1="1626.8" x2="992.7" y2="1626.8"/>
<line class="st0" x1="1838.4" y1="1626.8" x2="1838.6" y2="1627.1"/>
<line class="st0" x1="990.9" y1="1665.8" x2="990.8" y2="1665.8"/>
<line class="st0" x1="990.8" y1="1691.9" x2="990.6" y2="1691.9"/>
<line class="st0" x1="990.8" y1="1691.9" x2="990.6" y2="1691.9"/>
<line class="st0" x1="990.8" y1="1691.9" x2="990.6" y2="1691.9"/>
<line class="st0" x1="990.8" y1="1691.9" x2="990.6" y2="1691.9"/>
<line class="st0" x1="990.8" y1="1691.9" x2="990.6" y2="1691.9"/>
<line class="st0" x1="990.8" y1="1691.9" x2="990.6" y2="1691.9"/>
<line class="st0" x1="990.8" y1="1691.9" x2="990.7" y2="1691.9"/>
<line class="st0" x1="990.8" y1="1691.9" x2="990.7" y2="1691.9"/>
<line class="st0" x1="849.2" y1="1691.9" x2="849.2" y2="1691.9"/>
<line class="st0" x1="849.2" y1="1697.4" x2="849.2" y2="1691.9"/>
<line class="st0" x1="849.2" y1="1703" x2="849.2" y2="1697.4"/>
<line class="st0" x1="849.2" y1="1703" x2="849.2" y2="1703"/>
<line class="st0" x1="849.2" y1="1711.2" x2="849.2" y2="1711.2"/>
<line class="st0" x1="849.2" y1="1733.3" x2="849.2" y2="1711.2"/>
<line class="st0" x1="849.2" y1="1737.4" x2="849.2" y2="1737.4"/>
<line class="st0" x1="849.2" y1="1738.6" x2="849.2" y2="1738.7"/>
<line class="st0" x1="849.2" y1="1738.5" x2="849.2" y2="1737.4"/>
<line class="st0" x1="849.2" y1="1738.5" x2="849.2" y2="1738.6"/>
<line class="st0" x1="849.2" y1="1738.7" x2="849.2" y2="1738.7"/>
<line class="st0" x1="849.2" y1="1738.8" x2="849.2" y2="1738.7"/>
<line class="st0" x1="849.2" y1="1748.3" x2="849.2" y2="1748.5"/>
<line class="st0" x1="849.2" y1="1748.1" x2="849.2" y2="1738.8"/>
<line class="st0" x1="849.2" y1="1748.1" x2="849.2" y2="1748.3"/>
<line class="st0" x1="849.2" y1="1748.7" x2="849.2" y2="1748.5"/>
<line class="st0" x1="849.1" y1="1749.8" x2="849.2" y2="1748.7"/>
<line class="st0" x1="849.2" y1="1751.1" x2="849.2" y2="1751.3"/>
<line class="st0" x1="849.2" y1="1750.9" x2="849.1" y2="1749.8"/>
<line class="st0" x1="849.2" y1="1750.9" x2="849.2" y2="1751.1"/>
<line class="st0" x1="849.2" y1="1751.5" x2="849.2" y2="1751.3"/>
<line class="st0" x1="849.2" y1="1760.8" x2="849.2" y2="1751.5"/>
<line class="st0" x1="849.2" y1="1760.8" x2="849.2" y2="1760.9"/>
<line class="st0" x1="849.2" y1="1760.8" x2="849.2" y2="1760.8"/>
<line class="st0" x1="849.2" y1="1761" x2="849.2" y2="1760.9"/>
<line class="st0" x1="849.2" y1="1762.1" x2="849.2" y2="1761"/>
<line class="st0" x1="847.3" y1="1768.1" x2="849.2" y2="1766.2"/>
<line class="st0" x1="849.2" y1="1628.6" x2="847.3" y2="1626.8"/>
<line class="st0" x1="849.2" y1="1634" x2="849.2" y2="1634"/>
<line class="st0" x1="849.2" y1="1633.9" x2="849.2" y2="1632.8"/>
<line class="st0" x1="849.2" y1="1633.9" x2="849.2" y2="1634"/>
<line class="st0" x1="849.2" y1="1634.1" x2="849.2" y2="1634"/>
<line class="st0" x1="849.2" y1="1643.6" x2="849.2" y2="1643.8"/>
<line class="st0" x1="849.2" y1="1643.4" x2="849.2" y2="1634"/>
<line class="st0" x1="849.2" y1="1643.4" x2="849.2" y2="1643.6"/>
<line class="st0" x1="849.2" y1="1644" x2="849.2" y2="1643.8"/>
<line class="st0" x1="849.1" y1="1645.1" x2="849.2" y2="1644"/>
<line class="st0" x1="849.2" y1="1646.4" x2="849.2" y2="1646.6"/>
<line class="st0" x1="849.2" y1="1646.2" x2="849.1" y2="1645.1"/>
<line class="st0" x1="849.2" y1="1646.2" x2="849.2" y2="1646.4"/>
<line class="st0" x1="849.2" y1="1646.8" x2="849.2" y2="1646.6"/>
<line class="st0" x1="849.2" y1="1656.1" x2="849.2" y2="1646.8"/>
<line class="st0" x1="849.2" y1="1656.2" x2="849.2" y2="1656.2"/>
<line class="st0" x1="849.2" y1="1656.1" x2="849.2" y2="1656.1"/>
<line class="st0" x1="849.2" y1="1656.1" x2="849.2" y2="1656.2"/>
<line class="st0" x1="849.2" y1="1656.3" x2="849.2" y2="1656.2"/>
<line class="st0" x1="849.2" y1="1657.5" x2="849.2" y2="1656.3"/>
<line class="st0" x1="849.2" y1="1657.5" x2="849.2" y2="1657.5"/>
<line class="st0" x1="849.2" y1="1683.7" x2="849.2" y2="1661.6"/>
<line class="st0" x1="849.2" y1="1683.7" x2="849.2" y2="1683.7"/>
<line class="st0" x1="847.4" y1="1632.5" x2="847.4" y2="1762.4"/>
<line class="st0" x1="849.2" y1="1729.1" x2="849.2" y2="1729.1"/>
<line class="st0" x1="1.2" y1="1767.7" x2="1" y2="1766.7"/>
<line class="st0" x1="1.4" y1="1768.1" x2="847.3" y2="1768.1"/>
<line class="st0" x1="1.4" y1="1768.1" x2="1.2" y2="1767.7"/>
<line class="st0" x1="1" y1="1765.3" x2="1" y2="1766.7"/>
<line class="st0" x1="1" y1="1628.2" x2="1.2" y2="1627.1"/>
<line class="st0" x1="1" y1="1629.6" x2="1" y2="1765.3"/>
<line class="st0" x1="1" y1="1629.6" x2="1" y2="1628.2"/>
<line class="st0" x1="1.4" y1="1626.8" x2="847.3" y2="1626.8"/>
<line class="st0" x1="1.4" y1="1626.8" x2="1.2" y2="1627.1"/>
<line class="st0" x1="849.2" y1="1665.8" x2="849.2" y2="1665.8"/>
</svg>
