<?xml version="1.0" encoding="utf-8"?>
<!-- Generator: Adobe Illustrator 21.1.0, SVG Export Plug-In . SVG Version: 6.00 Build 0)  -->
<svg version="1.1" id="Слой_1" xmlns="http://www.w3.org/2000/svg" xmlns:xlink="http://www.w3.org/1999/xlink" x="0px" y="0px"
	 viewBox="0 0 32 32" style="enable-background:new 0 0 32 32;" xml:space="preserve">
<style type="text/css">
	.st0{fill:#161616;}
</style>
<title>facebook_bl</title>
<path class="st0" d="M25.2,3.4H6.8C5,3.4,3.5,5,3.5,6.8v18.3c0,1.9,1.5,3.4,3.4,3.4h9v-9h-2.3c-0.3,0-0.5-0.2-0.5-0.5v-2.9
	c0-0.3,0.2-0.5,0.5-0.5h2.3v-2.8c0-3.2,2-5,4.8-5h2.4c0.3,0,0.5,0.2,0.5,0.5v2.4c0,0.3-0.2,0.5-0.5,0.5h-1.4c-1.6,0-1.9,0.7-1.9,1.8
	v2.4h3.4c0.3,0,0.6,0.2,0.6,0.5c0,0,0,0,0,0.1l-0.3,2.9c0,0.3-0.3,0.5-0.5,0.5h-3.1v8.9h5.4c1.9,0,3.4-1.5,3.4-3.4l0,0V6.8
	C28.5,5,27,3.4,25.2,3.4z"/>
</svg>
