<?xml version="1.0" encoding="utf-8"?>
<!-- Generator: Adobe Illustrator 21.1.0, SVG Export Plug-In . SVG Version: 6.00 Build 0)  -->
<svg version="1.1" id="Слой_1" xmlns="http://www.w3.org/2000/svg" xmlns:xlink="http://www.w3.org/1999/xlink" x="0px" y="0px"
	 viewBox="0 0 32 32" style="enable-background:new 0 0 32 32;" xml:space="preserve">
<style type="text/css">
	.st0{fill:#FFFFFF;}
	.st1{fill:#3F5C9A;}
</style>
<title>facebook_rgb</title>
<path class="st0" d="M23.8,16.1L23.8,16.1l-0.3,3c0,0.3-0.3,0.5-0.5,0.5h-3.1v8.9h-4v-9h-2.3c-0.3,0-0.5-0.2-0.6-0.5v-2.9
	c0-0.3,0.3-0.5,0.5-0.5h2.3v-2.8c0-3.2,2-5,4.8-5h2.4c0.3,0,0.5,0.3,0.5,0.5v2.4c0,0.3-0.3,0.5-0.5,0.5h-1.4c-1.6,0-1.9,0.7-1.9,1.8
	v2.4h3.4C23.5,15.6,23.8,15.8,23.8,16.1z"/>
<path class="st1" d="M25.1,3.5H6.8C5,3.4,3.5,4.9,3.5,6.8c0,0,0,0,0,0v18.3c0,1.9,1.5,3.4,3.4,3.4c0,0,0,0,0,0h9v-9h-2.3
	c-0.3,0-0.5-0.2-0.6-0.5v-2.9c0-0.3,0.2-0.6,0.6-0.6l0,0h2.3v-2.8c0-3.2,2-5,4.8-5h2.4c0.3,0,0.5,0.2,0.5,0.6v2.4
	c0,0.3-0.2,0.6-0.5,0.6h-1.4c-1.6,0-1.9,0.7-1.9,1.8v2.4h3.4c0.3,0,0.6,0.2,0.6,0.5c0,0,0,0,0,0.1l-0.3,2.9c0,0.3-0.3,0.5-0.5,0.5
	h-3.1v8.9h5.4c1.9,0,3.4-1.5,3.4-3.4l0,0V6.8C28.5,5,27,3.4,25.1,3.5C25.2,3.4,25.2,3.4,25.1,3.5z"/>
<path class="st1" d="M24.3,6.8v21.7h-4.5v-8.9h3.1c0.3,0,0.5-0.2,0.5-0.5l0.3-2.9v-0.1c0-0.3-0.3-0.5-0.6-0.5h-3.4v-2.4
	c0-1.1,0.3-1.8,1.9-1.8h1.4c0.3,0,0.5-0.3,0.5-0.5V8.3c0-0.3-0.3-0.5-0.5-0.5h-2.4c-2.8,0-4.8,1.8-4.8,5v2.8h-2.3
	c-0.3,0-0.5,0.3-0.5,0.5V19c0,0.3,0.3,0.5,0.6,0.5h2.3v9H9V6.8H24.3z"/>
</svg>
