<?xml version="1.0" encoding="utf-8"?>
<!-- Generator: Adobe Illustrator 21.1.0, SVG Export Plug-In . SVG Version: 6.00 Build 0)  -->
<svg version="1.1" id="Слой_1" xmlns="http://www.w3.org/2000/svg" xmlns:xlink="http://www.w3.org/1999/xlink" x="0px" y="0px"
	 viewBox="0 0 32 32" style="enable-background:new 0 0 32 32;" xml:space="preserve">
<style type="text/css">
	.st0{fill:#0097E2;}
	.st1{fill:#FFFFFF;}
</style>
<title>skype_rgb</title>
<path class="st0" d="M28.5,19.1c-0.1-0.2-0.1-0.4,0-0.6c0.3-1.5,0.3-3,0-4.5C27.4,7.5,21.3,2.9,14.6,3.7c-0.4,0.1-0.7,0-1-0.2
	c-3.6-1.8-8-0.5-9.9,3c-1.1,2.1-1.2,4.6-0.1,6.8c0.2,0.3,0.2,0.6,0.1,0.9c-0.1,0.7-0.2,1.4-0.2,2.1v1.2c0.7,6.9,6.8,11.9,13.7,11.2
	h0.1l0.7-0.1c0.2,0,0.4,0,0.6,0.1c1.3,0.7,2.8,0.9,4.2,0.6c4-0.5,6.7-4.2,6.2-8.1C29.1,20.4,28.9,19.8,28.5,19.1L28.5,19.1z
	 M22.3,22.5c-0.8,0.9-1.8,1.5-3,1.8c-2.1,0.6-4.4,0.6-6.5,0c-1.9-0.5-3.4-1.9-3.9-3.8c-0.4-0.9,0-1.9,0.9-2.3s1.9,0,2.3,0.9
	c0.2,0.3,0.3,0.6,0.5,1c0.5,1,1.5,1.8,2.6,1.9c1,0.1,1.9,0,2.8-0.4c0.4-0.2,0.7-0.4,0.9-0.7c0.6-0.7,0.6-1.8-0.1-2.4l-0.1-0.1
	c-0.9-0.5-1.8-0.9-2.8-1c-1.4-0.3-2.7-0.6-4-1.2c-1.4-0.4-2.4-1.6-2.8-3c-0.4-1.6,0.3-3.3,1.7-4.3C12,8,13.5,7.5,15,7.4h1
	c1.4-0.1,2.8,0.2,4.1,0.8c1,0.4,1.8,1.2,2.3,2.1c0.2,0.5,0.3,1,0.2,1.6c-0.2,0.6-0.7,1.1-1.3,1.2c-0.7,0.2-1.4,0-1.9-0.6
	c-0.2-0.3-0.4-0.6-0.6-0.9c-0.5-1-1.5-1.6-2.7-1.6c-0.6,0-1.2,0-1.7,0.1s-0.9,0.3-1.3,0.6c-0.6,0.4-0.7,1.2-0.3,1.7
	c0.1,0.1,0.2,0.2,0.3,0.3c0.5,0.3,1,0.6,1.6,0.7l4,1c0.7,0.2,1.4,0.5,2.1,0.8c2.3,1.1,3.3,3.8,2.2,6.1
	C22.8,21.8,22.6,22.2,22.3,22.5L22.3,22.5z"/>
<path class="st1" d="M23,21.3c-0.2,0.5-0.4,0.9-0.7,1.2c-0.8,0.9-1.8,1.5-3,1.8c-2.1,0.6-4.4,0.6-6.5,0c-1.9-0.5-3.4-1.9-3.9-3.8
	c-0.4-0.9,0-1.9,0.9-2.3c0.9-0.4,1.9,0,2.3,0.9c0.2,0.3,0.3,0.6,0.5,1c0.5,1,1.5,1.8,2.6,1.9c1,0.1,1.9,0,2.8-0.4
	c0.4-0.2,0.7-0.4,0.9-0.7c0.6-0.7,0.6-1.8-0.1-2.4l-0.1-0.1c-0.9-0.5-1.8-0.9-2.8-1c-1.4-0.3-2.7-0.6-4-1.2c-1.4-0.4-2.4-1.6-2.8-3
	c-0.4-1.6,0.3-3.3,1.7-4.3C12,8,13.5,7.5,15,7.4h1c1.4-0.1,2.8,0.2,4.1,0.8c1,0.4,1.8,1.2,2.3,2.1c0.2,0.5,0.3,1,0.2,1.6
	c-0.2,0.6-0.7,1.1-1.3,1.2c-0.7,0.2-1.4,0-1.9-0.6c-0.2-0.3-0.4-0.6-0.6-0.9c-0.5-1-1.5-1.6-2.7-1.6c-0.6,0-1.2,0-1.7,0.1
	c-0.5,0.1-0.9,0.3-1.3,0.6c-0.6,0.4-0.7,1.2-0.3,1.7c0.1,0.1,0.2,0.2,0.3,0.3c0.5,0.3,1,0.6,1.6,0.7l4,1c0.7,0.2,1.4,0.5,2.1,0.8
	C23.1,16.3,24.1,19,23,21.3z"/>
</svg>
