<?xml version="1.0" encoding="utf-8"?>
<!-- Generator: Adobe Illustrator 21.1.0, SVG Export Plug-In . SVG Version: 6.00 Build 0)  -->
<svg version="1.1" id="Слой_1" xmlns="http://www.w3.org/2000/svg" xmlns:xlink="http://www.w3.org/1999/xlink" x="0px" y="0px"
	 viewBox="0 0 32 32" style="enable-background:new 0 0 32 32;" xml:space="preserve">
<style type="text/css">
	.st0{fill:#665CAC;}
	.st1{fill:#A0A0A0;}
	.st2{fill:#FFFFFF;}
</style>
<title>viber_rgb</title>
<path class="st0" d="M28.2,17.7c-0.7,6.3-5.3,6.7-6.2,6.9c-2.6,0.6-5.3,0.8-8,0.7c0,0-3.1,3.8-4.2,4.8c-0.1,0.1-0.2,0.2-0.5,0.1
	s-0.2-0.2-0.2-0.6v-5.2c-5.1-1.4-5.7-6.2-5.7-9.6V13c0.2-3.2,0.8-5.9,2.7-7.9c3.3-3.1,10.2-2.6,10.2-2.6c5.8,0,8.7,1.8,9.3,2.4
	C28,6.9,29,11.3,28.2,17.7z"/>
<path class="st1" d="M27.5,3.3c-0.7-0.7-4-3.1-11-3.1c0,0-8.4-0.5-12.5,3.2C1.8,5.8,1,9,1,13.2v0.4c0,4.3,0.1,11.5,7.3,13.5v3.1
	c-0.1,0.7,0.3,1.3,0.9,1.6c1,0.2,1.6-0.6,2.6-1.7c0.5-0.6,1.2-1.5,1.8-2.1c3.1,0.2,6.3,0,9.4-0.7c1-0.4,6.8-1.1,7.8-8.8
	C31.7,10.6,30.2,5.5,27.5,3.3z M30.4,18.4c-1,7.5-6.6,8.2-7.6,8.5c-3,0.7-6.1,0.9-9.2,0.7c-0.5,0.6-1.3,1.4-1.8,2
	c-1,1.1-1.7,1.9-2.5,1.7s-0.8-1.5-0.8-1.5v-3c-7.2-2-7.1-9.5-7-13.5c0.1-4,0.8-7.2,3.1-9.5c4-3.7,12.1-3.2,12.1-3.2
	c6.9,0,10,2.2,10.7,3C30,5.7,31.4,10.6,30.4,18.4L30.4,18.4z"/>
<path class="st2" d="M27.4,3.4c-0.7-0.7-3.8-3-10.7-3c0,0-8.2-0.5-12.1,3.2c-2.3,2.2-3,5.5-3.1,9.5s-0.2,11.5,7,13.6l0,0v3.1
	c0,0,0,1.3,0.8,1.5s1.5-0.6,2.5-1.7c0.5-0.6,1.3-1.4,1.8-2c3.1,0.2,6.2,0,9.3-0.7c1-0.4,6.7-1.1,7.6-8.6C31.4,10.6,30,5.7,27.4,3.4z
	 M28.2,17.7c-0.7,6.3-5.3,6.7-6.2,6.9c-2.6,0.6-5.3,0.8-8,0.7c0,0-3.1,3.8-4.2,4.8c-0.1,0.1-0.2,0.2-0.5,0.1s-0.2-0.2-0.2-0.6v-5.2
	c-5.1-1.4-5.7-6.2-5.7-9.6V13c0.2-3.2,0.8-5.9,2.7-7.9c3.3-3.1,10.2-2.6,10.2-2.6c5.8,0,8.7,1.8,9.3,2.4C28,6.9,29,11.3,28.2,17.7z"
	/>
<path class="st2" d="M19.4,13L19.4,13c0.1-1.2-0.8-2.2-2-2.4h-0.2c-0.1,0-0.1-0.1-0.1-0.1v0c0-0.1,0-0.1,0.1-0.1l0,0
	c1.3,0,2.4,1.1,2.4,2.4L19.4,13L19.4,13z"/>
<path class="st2" d="M21.4,13.6L21.4,13.6c0-1.3-0.4-2.6-1.3-3.6c-0.9-1-2.2-1.5-3.6-1.6c-0.1,0-0.1-0.1-0.1-0.1v0
	c0-0.1,0-0.1,0.1-0.1c0.7,0,1.5,0.2,2.1,0.5c0.6,0.3,1.2,0.7,1.7,1.2c0.5,0.4,0.8,1,1,1.7c0.2,0.6,0.4,1.3,0.4,2v0.1
	C21.5,13.8,21.4,13.8,21.4,13.6z"/>
<path class="st2" d="M23.6,14.5L23.6,14.5c0-2.2-0.8-4.3-2.3-5.9C19.9,7.2,18,6.4,16,6.4c-0.1,0-0.1-0.1-0.1-0.1
	c0-0.1,0.1-0.1,0.1-0.1c0,0,0,0,0,0l0,0c1,0,2,0.2,3,0.6c0.9,0.4,1.8,0.9,2.5,1.6c0.8,0.7,1.3,1.6,1.7,2.6c0.4,1.1,0.6,2.2,0.6,3.3
	L23.6,14.5L23.6,14.5z"/>
<path class="st2" d="M17.2,18.2c0.3,0,0.6-0.1,0.8-0.4l0.6-0.7c0.4-0.5,1.2-0.6,1.7-0.2c0.5,0.3,1,0.6,1.4,1c0.3,0.3,1.3,1,1.3,1
	c0.4,0.3,0.5,1,0.2,1.4l0,0c-0.3,0.6-0.8,1.1-1.2,1.5l0,0c-0.3,0.3-0.7,0.5-1.2,0.6h-0.1c-0.2,0-0.3,0-0.5-0.1l0,0
	c-1.2-0.4-2.3-0.9-3.3-1.5c-1-0.6-1.9-1.2-2.8-1.9c-0.5-0.4-0.8-0.7-1.3-1.1l0,0c-0.5-0.5-1-1-1.4-1.5c-0.7-0.9-1.3-1.8-1.8-2.8
	c-0.6-1-1.2-2.1-1.5-3.3l0,0C8,10,7.9,9.7,7.9,9.6V9.5C8,9,8.2,8.6,8.5,8.3l0,0c0.4-0.4,0.9-0.8,1.4-1.2l0,0
	c0.5-0.3,1.1-0.2,1.4,0.2c0,0,0.7,1,1.1,1.3c0.4,0.3,0.6,1,1,1.4c0.3,0.5,0.2,1.3-0.3,1.7l-0.7,0.6c-0.2,0.2-0.4,0.5-0.4,0.8
	C12.9,15.5,14.8,17.4,17.2,18.2z"/>
</svg>
