<?xml version="1.0" encoding="utf-8"?>
<!-- Generator: Adobe Illustrator 21.1.0, SVG Export Plug-In . SVG Version: 6.00 Build 0)  -->
<svg version="1.1" id="Слой_1" xmlns="http://www.w3.org/2000/svg" xmlns:xlink="http://www.w3.org/1999/xlink" x="0px" y="0px"
	 viewBox="0 0 32 32" style="enable-background:new 0 0 32 32;" xml:space="preserve">
<style type="text/css">
	.st0{fill:#161616;}
</style>
<title>whatsapp_bl</title>
<path class="st0" d="M27,8.9c-3.8-6-11.7-7.8-17.7-4.1c-6,3.8-7.8,11.7-4.1,17.7L5.6,23l-1.3,4.7l4.9-1.3l0.5,0.3
	c2,1.2,4.2,1.8,6.5,1.8c7.1,0,12.8-5.7,12.8-12.8C29,13.3,28.3,11,27,8.9z M23.7,21.2c-0.6,1-1.5,1.6-2.6,1.8c-0.7,0-1.4,0.3-4.6-1
	c-3.9-1.5-6.4-5.6-6.6-5.8c-0.9-1.1-1.5-2.5-1.6-4C8.3,11,8.8,9.9,9.7,9c0.3-0.3,0.6-0.5,1-0.5h0.7c0.3,0,0.6,0,0.9,0.7l0.1,0
	c0.4,0.8,1.1,2.7,1.2,2.9c0.1,0.2,0.1,0.5,0,0.7c-0.1,0.2-0.2,0.5-0.4,0.6l-0.6,0.7c-0.2,0.2-0.4,0.4-0.2,0.8c0.6,1,1.3,1.9,2.2,2.7
	c0.9,0.8,2,1.5,3.1,1.9c0.4,0.2,0.6,0.2,0.8-0.1c0.2-0.3,1-1.1,1.2-1.5s0.5-0.3,0.9-0.2s2.2,1,2.6,1.2c0.4,0.2,0.6,0.3,0.7,0.4
	C24.1,20,24,20.7,23.7,21.2z"/>
</svg>
