<svg xmlns="http://www.w3.org/2000/svg" viewBox="0 0 32 32"><title>youtube_bl</title><path d="M28.68,10.66a6,6,0,0,0-1-2.75,3.62,3.62,0,0,0-2.59-1.15C21.43,6.49,16,6.49,16,6.49h0s-5.43,0-9.06.27A3.62,3.62,0,0,0,4.36,7.91a6,6,0,0,0-1,2.68A42.37,42.37,0,0,0,3.06,15v2a42.4,42.4,0,0,0,.26,4.37,6,6,0,0,0,1,2.65A4.29,4.29,0,0,0,7.2,25.23c2.07.21,8.8.27,8.8.27s5.43,0,9.06-.27a3.62,3.62,0,0,0,2.59-1.15,6,6,0,0,0,1-2.68A42.29,42.29,0,0,0,28.94,17V15A42.31,42.31,0,0,0,28.68,10.66Zm-8.36,5.13-7,3.77V12l3.15,1.71Z" style="fill:#161616"/></svg>