<svg id="Group_1390" data-name="Group 1390" xmlns="http://www.w3.org/2000/svg" width="33.689" height="33.69" viewBox="0 0 33.689 33.69">
  <path id="Path_2041" data-name="Path 2041" d="M26.747,0H23.911a.732.732,0,0,0-.681.681.732.732,0,0,0,.681.681h2.722V29.833H5.761V1.361H18.806a.732.732,0,0,0,.681-.681A.732.732,0,0,0,18.806,0H5.761A1.379,1.379,0,0,0,4.4,1.361V29.833a1.311,1.311,0,0,0,1.361,1.361h.454v1.815a.732.732,0,0,0,.681.681H9.618a.732.732,0,0,0,.681-.681V31.194H22.209v1.815a.732.732,0,0,0,.681.681H25.5a.732.732,0,0,0,.681-.681V31.194h.454a1.311,1.311,0,0,0,1.361-1.361V1.361A1.362,1.362,0,0,0,26.747,0ZM8.937,32.329H7.576V31.194H8.937Zm15.994,0H23.57V31.194h1.361Z" transform="translate(0.591)" fill="#fff"/>
  <path id="Path_2042" data-name="Path 2042" d="M7.181,3.461a.732.732,0,0,0,.681-.681A.732.732,0,0,0,7.181,2.1a.732.732,0,0,0-.681.681A.654.654,0,0,0,7.181,3.461Z" transform="translate(0.873 0.282)" fill="#fff"/>
  <path id="Path_2043" data-name="Path 2043" d="M22.581,2.1a.732.732,0,0,0-.681.681.681.681,0,0,0,1.361,0A.654.654,0,0,0,22.581,2.1Z" transform="translate(2.942 0.282)" fill="#fff"/>
  <path id="Path_2044" data-name="Path 2044" d="M7.181,25.561a.681.681,0,1,0,0-1.361.732.732,0,0,0-.681.681A.654.654,0,0,0,7.181,25.561Z" transform="translate(0.873 3.251)" fill="#fff"/>
  <path id="Path_2045" data-name="Path 2045" d="M22.581,24.2a.681.681,0,1,0,.681.681C23.375,24.54,23.034,24.2,22.581,24.2Z" transform="translate(2.942 3.251)" fill="#fff"/>
  <path id="Path_2046" data-name="Path 2046" d="M15.794,10.5a8.394,8.394,0,1,0,8.394,8.394A8.375,8.375,0,0,0,15.794,10.5Zm0,15.541a7.146,7.146,0,1,1,7.146-7.146A7.117,7.117,0,0,1,15.794,26.041Z" transform="translate(0.994 1.411)" fill="#fff"/>
  <path id="Path_2047" data-name="Path 2047" d="M19.1,14.238a.647.647,0,0,0-.794,1.021,4.253,4.253,0,0,1,1.588,3.4,4.429,4.429,0,0,1-4.424,4.424,4.359,4.359,0,0,1-4.424-4.424,4.492,4.492,0,0,1,3.29-4.311A.647.647,0,1,0,14,13.1a5.707,5.707,0,1,0,7.146,5.558A5.177,5.177,0,0,0,19.1,14.238Z" transform="translate(1.317 1.756)" fill="#fff"/>
  <path id="Path_2048" data-name="Path 2048" d="M19.494,6.4a4.2,4.2,0,1,0-8.394,0,4.2,4.2,0,1,0,8.394,0Zm-7.033,0A2.836,2.836,0,1,1,15.3,9.233,2.808,2.808,0,0,1,12.461,6.4Z" transform="translate(1.491 0.296)" fill="#fff"/>
  <path id="Path_2049" data-name="Path 2049" d="M13,18.242A2.042,2.042,0,1,0,15.042,16.2,2.033,2.033,0,0,0,13,18.242Zm2.042-.794a.794.794,0,1,1-.794.794A.956.956,0,0,1,15.042,17.448Z" transform="translate(1.746 2.176)" fill="#fff"/>
  <path id="Path_2050" data-name="Path 2050" d="M17.084,6.142a2.042,2.042,0,1,0-2.042,2.042A2.033,2.033,0,0,0,17.084,6.142Zm-2.722,0a.794.794,0,1,1,.794.794A.775.775,0,0,1,14.361,6.142Z" transform="translate(1.746 0.551)" fill="#fff"/>
  <path id="Path_2051" data-name="Path 2051" d="M2.836,13.781a.732.732,0,0,0-.681-.681H.681a.681.681,0,0,0,0,1.361H2.269A.719.719,0,0,0,2.836,13.781Z" transform="translate(0 1.76)" fill="#fff"/>
  <path id="Path_2052" data-name="Path 2052" d="M2.92,18.111l-1.475.567a.586.586,0,0,0-.34.794.754.754,0,0,0,.567.454H1.9l1.475-.567a.714.714,0,0,0,.34-.907A.522.522,0,0,0,2.92,18.111Z" transform="translate(0.143 2.421)" fill="#fff"/>
  <path id="Path_2053" data-name="Path 2053" d="M28.487,18.772l-1.475-.567a.685.685,0,0,0-.567,1.248l1.475.567h.227a.579.579,0,0,0,.567-.454C28.941,19.339,28.827,19,28.487,18.772Z" transform="translate(3.501 2.44)" fill="#fff"/>
  <path id="Path_2054" data-name="Path 2054" d="M29.369,13.2H27.781a.681.681,0,1,0,0,1.361h1.588a.732.732,0,0,0,.681-.681C29.936,13.54,29.709,13.2,29.369,13.2Z" transform="translate(3.641 1.773)" fill="#fff"/>
  <path id="Path_2055" data-name="Path 2055" d="M26.786,9.72h.227l1.475-.567a.685.685,0,0,0-.567-1.248l-1.475.567a.714.714,0,0,0-.34.907C26.332,9.493,26.559,9.72,26.786,9.72Z" transform="translate(3.501 1.056)" fill="#fff"/>
  <path id="Path_2056" data-name="Path 2056" d="M3.48,8.272,2,7.705a.586.586,0,0,0-.794.34c-.227.34,0,.681.34.907l1.475.567h.227a.579.579,0,0,0,.567-.454A.624.624,0,0,0,3.48,8.272Z" transform="translate(0.15 1.029)" fill="#fff"/>
  <path id="Path_2057" data-name="Path 2057" d="M15.951,14.351h.227a.766.766,0,0,0,.681-.454A.645.645,0,0,0,16.4,13.1h0a.645.645,0,0,0-.794.454A.522.522,0,0,0,15.951,14.351Z" transform="translate(2.085 1.756)" fill="#fff"/>
  <path id="Path_2058" data-name="Path 2058" d="M18.767,1.361h0a.732.732,0,0,0,.681-.681A.635.635,0,0,0,18.881,0h0A.732.732,0,0,0,18.2.681.635.635,0,0,0,18.767,1.361Z" transform="translate(2.445)" fill="#fff"/>
</svg>
