<svg xmlns="http://www.w3.org/2000/svg" width="30.801" height="32.94" viewBox="0 0 30.801 32.94">
  <g id="Group_1391" data-name="Group 1391" transform="translate(1 1)">
    <path id="Path_2059" data-name="Path 2059" d="M.675,32.017H-.442A.493.493,0,0,1-1,31.458.493.493,0,0,1-.442,30.9H.675a.493.493,0,0,1,.558.558A.6.6,0,0,1,.675,32.017Z" transform="translate(0 -2.217)" fill="#fff"/>
    <path id="Path_2060" data-name="Path 2060" d="M27.175,29.967H1.958a.493.493,0,0,1-.558-.558V1.958A.493.493,0,0,1,1.958,1.4h25.31a.493.493,0,0,1,.558.558v27.45A.7.7,0,0,1,27.175,29.967ZM2.424,28.85H26.617V2.424H2.424Z" transform="translate(-0.167 -0.167)" fill="#fff"/>
    <path id="Path_2061" data-name="Path 2061" d="M25.1,30.127H4.258a.493.493,0,0,1-.558-.558V4.258A.6.6,0,0,1,4.258,3.7H25.1a.493.493,0,0,1,.558.558v25.31A.536.536,0,0,1,25.1,30.127ZM4.817,29.01h19.82V4.817H4.817Z" transform="translate(-0.327 -0.327)" fill="#fff"/>
    <path id="Path_2062" data-name="Path 2062" d="M27.092,34.15H1.875A1.668,1.668,0,0,1,.2,32.475V31.358A.493.493,0,0,1,.758,30.8h27.45a.493.493,0,0,1,.558.558v1.117A1.612,1.612,0,0,1,27.092,34.15ZM1.317,32.01v.558a.493.493,0,0,0,.558.558h25.31a.493.493,0,0,0,.558-.558V32.01Z" transform="translate(-0.083 -2.21)" fill="#fff"/>
    <path id="Path_2063" data-name="Path 2063" d="M27.092,2.257H1.875A1.592,1.592,0,0,1,.2.675,1.612,1.612,0,0,1,1.875-1h25.31A1.668,1.668,0,0,1,28.86.675,1.674,1.674,0,0,1,27.092,2.257ZM1.875.117a.6.6,0,0,0-.558.558.536.536,0,0,0,.558.558h25.31a.493.493,0,0,0,.558-.558.493.493,0,0,0-.558-.558H1.875Z" transform="translate(-0.083)" fill="#fff"/>
    <path id="Path_2064" data-name="Path 2064" d="M31.375,32.017H30.258a.558.558,0,1,1,0-1.117h1.117a.493.493,0,0,1,.558.558A.6.6,0,0,1,31.375,32.017Z" transform="translate(-2.133 -2.217)" fill="#fff"/>
    <path id="Path_2065" data-name="Path 2065" d="M16.492,30.127H14.258a.493.493,0,0,1-.558-.558V4.258a.493.493,0,0,1,.558-.558h2.233a.493.493,0,0,1,.558.558v25.31A.536.536,0,0,1,16.492,30.127ZM14.817,29.01h1.117V4.817H14.817V29.01Z" transform="translate(-1.021 -0.327)" fill="#fff"/>
    <path id="Path_2066" data-name="Path 2066" d="M6.057,8.2a.483.483,0,0,1-.372-.186c-.279-.186-.279-.465,0-.744L7.359,5.59a.526.526,0,0,1,.744.744L6.429,8.1C6.336,8.2,6.243,8.2,6.057,8.2Z" transform="translate(-0.45 -0.448)" fill="#fff"/>
    <path id="Path_2067" data-name="Path 2067" d="M6.062,11.237a.483.483,0,0,1-.372-.186.566.566,0,0,1,0-.744L6.806,9.19a.526.526,0,0,1,.744.744L6.434,11.051A.483.483,0,0,1,6.062,11.237Z" transform="translate(-0.455 -0.698)" fill="#fff"/>
    <path id="Path_2068" data-name="Path 2068" d="M8.962,8.2a.483.483,0,0,1-.372-.186.563.563,0,0,1,0-.744L10.265,5.59a.526.526,0,0,1,.744.744L9.334,8.1C9.241,8.2,9.148,8.2,8.962,8.2Z" transform="translate(-0.657 -0.448)" fill="#fff"/>
    <path id="Path_2069" data-name="Path 2069" d="M23.162,30.1a.483.483,0,0,1-.372-.186.566.566,0,0,1,0-.744l1.675-1.675a.526.526,0,1,1,.744.744l-1.675,1.675A.483.483,0,0,1,23.162,30.1Z" transform="translate(-1.643 -1.97)" fill="#fff"/>
    <path id="Path_2070" data-name="Path 2070" d="M23.762,26.537a.483.483,0,0,1-.372-.186.566.566,0,0,1,0-.744l1.117-1.117a.526.526,0,1,1,.744.744l-1.117,1.117C24.041,26.537,23.948,26.537,23.762,26.537Z" transform="translate(-1.685 -1.761)" fill="#fff"/>
    <path id="Path_2071" data-name="Path 2071" d="M20.262,30.1a.483.483,0,0,1-.372-.186.566.566,0,0,1,0-.744l1.675-1.675a.526.526,0,0,1,.744.744l-1.675,1.675C20.448,30,20.355,30.1,20.262,30.1Z" transform="translate(-1.442 -1.97)" fill="#fff"/>
    <path id="Path_2072" data-name="Path 2072" d="M10.675,20.383A1.668,1.668,0,0,1,9,18.708V16.475a1.675,1.675,0,0,1,3.35,0v2.233A1.612,1.612,0,0,1,10.675,20.383Zm0-4.373a.493.493,0,0,0-.558.558V18.8a.493.493,0,0,0,.558.558.493.493,0,0,0,.558-.558V16.568A.536.536,0,0,0,10.675,16.01Z" transform="translate(-0.695 -1.098)" fill="#fff"/>
    <path id="Path_2073" data-name="Path 2073" d="M20.175,20.383A1.668,1.668,0,0,1,18.5,18.708V16.475a1.675,1.675,0,1,1,3.35,0v2.233A1.666,1.666,0,0,1,20.175,20.383Zm0-4.373a.493.493,0,0,0-.558.558V18.8a.558.558,0,1,0,1.117,0V16.568C20.64,16.289,20.454,16.01,20.175,16.01Z" transform="translate(-1.355 -1.098)" fill="#fff"/>
  </g>
</svg>
