<svg xmlns="http://www.w3.org/2000/svg" xmlns:xlink="http://www.w3.org/1999/xlink" viewBox="0 0 37 37"><defs><style>.a{clip-path:url(#b);}.b{fill:#fff;}</style><clipPath id="b"><rect width="37" height="37"/></clipPath></defs><g id="a" class="a"><path class="b" d="M32.935,21.41a3,3,0,0,0-.363-1.379.62.62,0,0,1,0-.508,2.692,2.692,0,0,0,.145-2.468,2.785,2.785,0,0,0-1.887-1.6,2.535,2.535,0,0,0-2.25.508V14.3h1.089V13.209H28.581V7.693h1.089V6.6H28.581V1.089h1.089V0H3.252V1.089H4.341V6.6H3.252V7.693H4.341v5.516H3.252V14.3H4.341v1.669a2.545,2.545,0,0,0-1.016-.435A2.684,2.684,0,0,0,1,16.039,2.716,2.716,0,0,0,.349,19.6a.62.62,0,0,1,0,.508,2.685,2.685,0,0,0,0,2.758.62.62,0,0,1,0,.508A2.692,2.692,0,0,0,.2,25.837a2.785,2.785,0,0,0,1.887,1.6h.073v.581H.567a.517.517,0,0,0-.435.218c-.145.073-.145.29-.145.435l.871,3.121H-.014v1.089H32.863V31.788h-.943l.871-3.121a.637.637,0,0,0-.073-.508.517.517,0,0,0-.435-.218H30.613v-.581a2.575,2.575,0,0,0,1.96-1.6,2.856,2.856,0,0,0-.145-2.54.62.62,0,0,1,0-.508,1.749,1.749,0,0,0,.508-1.306ZM3.4,31.788H2.018l-.8-2.758h2.9Zm.943-3.846H3.252v-.581a1.907,1.907,0,0,0,1.089-.508Zm0-9.87a1.932,1.932,0,0,1-.218.871,1.571,1.571,0,0,0,0,1.6,1.709,1.709,0,0,1,0,1.669,1.709,1.709,0,0,0,0,1.669,1.463,1.463,0,0,1,.218.8,1.648,1.648,0,0,1-.653,1.306,1.17,1.17,0,0,1-.508.29v-8.2H2.163V26.2a1.406,1.406,0,0,1-1.016-1.161A1.268,1.268,0,0,1,1.365,23.8a1.571,1.571,0,0,0,0-1.6,1.709,1.709,0,0,1,0-1.669,1.709,1.709,0,0,0,0-1.669,1.463,1.463,0,0,1-.218-.8A1.648,1.648,0,0,1,1.8,16.765,1.734,1.734,0,0,1,2.817,16.4a.544.544,0,0,1,.363.073,1.67,1.67,0,0,1,1.234,1.161,1.079,1.079,0,0,0-.073.435ZM5.5,3.266H7.679V6.532H5.5V3.266Zm0,6.6H7.679v3.266H5.5V9.87Zm0,6.6H7.679V19.74H5.5V16.474ZM15.88,31.788H12.034V27.433H15.88v4.354Zm4.935,0H16.969V27.433h3.846Zm2.177,0H21.9V26.853a.572.572,0,0,0-.581-.581h-9.8a.572.572,0,0,0-.581.581v4.935H9.856v-6.6H22.992Zm4.427,0H24.154V24.675a.572.572,0,0,0-.581-.581H9.348a.572.572,0,0,0-.581.581v7.112H5.5V23.006H27.419Zm0-9.87H5.5V20.829H27.419ZM8.768,19.74V16.474h2.177V19.74Zm3.266,0V16.474h2.177V19.74Zm3.338,0V16.474h2.177V19.74Zm3.266,0V16.474h2.177V19.74Zm3.266,0V16.474h2.177V19.74Zm5.516,0H25.242V16.474h2.177Zm0-4.354H5.5V14.3H27.419ZM8.768,13.136V9.87h2.177v3.266Zm3.266,0V9.87h2.177v3.266Zm3.338,0V9.87h2.177v3.266Zm3.266,0V9.87h2.177v3.266Zm3.266,0V9.87h2.177v3.266Zm5.516,0H25.242V9.87h2.177Zm0-4.354H5.5V7.693H27.419ZM8.768,6.6V3.266h2.177V6.532H8.768Zm3.266,0V3.266h2.177V6.532H12.034Zm3.338,0V3.266h2.177V6.532H15.372Zm3.266,0V3.266h2.177V6.532H18.638Zm3.266,0V3.266h2.177V6.532H21.9Zm5.516,0H25.242V3.266h2.177Zm0-4.427H5.5V1.089H27.419Zm1.089,24.675a2.545,2.545,0,0,0,1.016.435H29.6v.581H28.508Zm3.121,2.25-.8,2.758H29.452l-.8-2.758Zm-.073-8.564a1.709,1.709,0,0,1,0,1.669,1.709,1.709,0,0,0,0,1.669,1.463,1.463,0,0,1,.218.8,1.648,1.648,0,0,1-.653,1.306,1.17,1.17,0,0,1-.508.29v-8.2H29.524V26.2a1.406,1.406,0,0,1-1.016-1.161,3.143,3.143,0,0,0-.073-.363h0a1.932,1.932,0,0,1,.218-.871,1.571,1.571,0,0,0,0-1.6,1.709,1.709,0,0,1,0-1.669,1.709,1.709,0,0,0,0-1.669,1.463,1.463,0,0,1-.218-.8,1.648,1.648,0,0,1,.653-1.306A1.734,1.734,0,0,1,30.1,16.4a.544.544,0,0,1,.363.073A1.67,1.67,0,0,1,31.7,17.636a1.268,1.268,0,0,1-.218,1.234,1.917,1.917,0,0,0,.073,1.669Zm0,0" transform="translate(2.05 2)"/></g></svg>