<svg xmlns="http://www.w3.org/2000/svg" xmlns:xlink="http://www.w3.org/1999/xlink" viewBox="0 0 37 37"><defs><style>.a{clip-path:url(#b);}.b{fill:#fff;}</style><clipPath id="b"><rect width="37" height="37"/></clipPath></defs><g id="a" class="a"><path class="b" d="M32.586,25.814H30.515V8.206l1.354.478h.478l.08-.08h0v-.08h0v-.08h0V6.294h0L16.652,0h-.159L9.242,2.709Q9,2.828,9,2.948a.434.434,0,0,0-.239.4.538.538,0,0,0,.478.319H9.4l7.091-2.629L31.55,6.692v.876l-14.9-5.577h0L1.832,7.569V6.613L7.967,4.3q.239-.12.239-.239a.356.356,0,0,0,0-.4,2.111,2.111,0,0,0-.8-.239H7.25L.8,5.816h0V5.9h0V7.808h0v.08h0v.08h0l.08.08h.478l1.275-.478V25.176H.478C.239,25.814,0,26.053,0,26.292a.514.514,0,0,0,.478.478H13.305a.514.514,0,0,0,.478-.478v-3.9a.514.514,0,0,0-.478-.478H11.871V18.484a.514.514,0,0,0-.478-.478H9.959V14.58a.514.514,0,0,0-.478-.478H5.975V12.509H26.929V14.1H23.5a.514.514,0,0,0-.478.478v3.426H21.591a.514.514,0,0,0-.478.478V21.91H19.679a.514.514,0,0,0-.478.478v3.9a.514.514,0,0,0,.478.478H32.506a.514.514,0,0,0,.478-.478A.4.4,0,0,0,32.586,25.814ZM3.426,7.808l13.066-4.94,13.066,4.86V25.734H27.965V22.308h0V18.484h0v-3.9h0V10.039a.514.514,0,0,0-.478-.478H5.5a.514.514,0,0,0-.478.478V25.814H3.426ZM24.061,22.946h2.868v2.868H24.061V22.946Zm2.948-3.9V21.91h-.956V19.042ZM5.975,21.91V19.042h.956V21.91Zm0,1.036H8.844v2.868H5.975Zm6.772,2.868H9.879V22.946h2.868Zm-1.912-3.9H7.967V19.042h2.868ZM8.923,15.138v2.868H5.975V15.138ZM5.975,11.632V10.6H26.929v1.036Zm18.086,3.506h2.868v2.868H24.061Zm-1.912,3.9h2.868V21.91H22.149Zm-1.912,3.9H23.1v2.868H20.237Z" transform="translate(2 5)"/></g></svg>