<svg xmlns="http://www.w3.org/2000/svg" xmlns:xlink="http://www.w3.org/1999/xlink" viewBox="0 0 37 37"><defs><style>.a{clip-path:url(#b);}.b{fill:#fff;}</style><clipPath id="b"><rect width="37" height="37"/></clipPath></defs><g id="a" class="a"><g transform="translate(2 2)"><g transform="translate(0 0)"><path class="b" d="M31.546,30.093H23.623v-2.98a26.423,26.423,0,0,0,8.868-3.053.661.661,0,0,0,.291-.581.547.547,0,0,0-.363-.509,17.274,17.274,0,0,1-5.6-4.143,22.834,22.834,0,0,0,3.271-1.454.661.661,0,0,0,.291-.581.547.547,0,0,0-.363-.509,15.019,15.019,0,0,1-5.306-4.216A12.042,12.042,0,0,0,27.4,10.83a.661.661,0,0,0,.291-.581.547.547,0,0,0-.363-.509,7.7,7.7,0,0,1-1.454-.872.465.465,0,0,0-.582.727c.363.291.727.509,1.018.727a13.059,13.059,0,0,1-2.544,1.018h0a10.978,10.978,0,0,1-3.2.436,8.167,8.167,0,0,1-2.326-.291L15.628,9.74a12.363,12.363,0,0,0,2.98-3.126,2.946,2.946,0,0,1,.654.363,3.379,3.379,0,0,0,1.672.654h0a2.955,2.955,0,0,0,1.817-.8c.363.436.727.872,1.018,1.236a.409.409,0,0,0,.654,0,.409.409,0,0,0,0-.654,12.635,12.635,0,0,0-.945-1.09,1.232,1.232,0,0,1,.727,0,.443.443,0,0,0,.509-.218.549.549,0,0,0-.073-.581A23.572,23.572,0,0,1,21.079.363.647.647,0,0,0,20.5,0h0a.576.576,0,0,0-.581.363,21.786,21.786,0,0,1-4.07,5.742.45.45,0,0,0-.073.581.487.487,0,0,0,.581.218,6.225,6.225,0,0,1,1.09-.363,15.019,15.019,0,0,1-2.689,2.617L13.011,8a.988.988,0,0,0-1.09,0L.872,15.555a1.654,1.654,0,0,0-.727,1.381,1.745,1.745,0,0,0,.872,1.454,1.707,1.707,0,0,0,1.672-.073l.727-.509V30.02H1.454a1.454,1.454,0,1,0,0,2.907H31.546a1.418,1.418,0,1,0,0-2.835ZM20.5,1.308A21.284,21.284,0,0,0,23.26,5.452a6.649,6.649,0,0,0-1.236.654,2.489,2.489,0,0,1-1.163.581h0A2.283,2.283,0,0,1,19.7,6.178a2.75,2.75,0,0,0-2.035-.654A26.605,26.605,0,0,0,20.5,1.308Zm2.108,28.784H21.443V27.258c.363,0,.8-.073,1.163-.073ZM15.046,15.773a2.744,2.744,0,0,0-1.454-1.89h1.963l2.835,1.89Zm-4.216.509A1.691,1.691,0,0,1,12.5,14.61a1.645,1.645,0,0,1,1.672,1.672h0a1.672,1.672,0,1,1-3.344,0Zm0-3.344,1.672-1.09,1.672,1.09Zm-1.454.945h1.963a2.6,2.6,0,0,0-1.454,1.89H8.722V14.319ZM8.8,17.808v-1.09H9.958a2.6,2.6,0,0,0,1.454,1.89H8.577a1.465,1.465,0,0,0,.218-.8ZM7.123,20.134l.581-.509h8.8a.509.509,0,0,0,0-1.018H13.593a2.6,2.6,0,0,0,1.454-1.89h4.8l.654.436v1.454H18.535a.509.509,0,1,0,0,1.018H20.5v1.89h-4.87A4.392,4.392,0,0,0,12.5,20.207h0a4.392,4.392,0,0,0-3.126,1.308H6.905v-.8a.715.715,0,0,1,.218-.581Zm1.963,4.434A3.412,3.412,0,0,1,12.5,21.152h0a3.412,3.412,0,0,1,3.416,3.416v5.524H9.086V24.568ZM20.5,27.185H16.863V25.3H20.5Zm-3.634.945H20.5v1.89H16.863ZM20.5,24.35H16.863a4.317,4.317,0,0,0-.509-1.89H20.5ZM6.76,22.46H8.577a4.317,4.317,0,0,0-.509,1.89H4.434v-.945a2.15,2.15,0,0,0,.727.145,1.574,1.574,0,0,0,1.6-1.09ZM4.434,28.13H5.67a.509.509,0,0,0,0-1.018H4.434v-1.89H8.068v1.89H7.7a.509.509,0,0,0,0,1.018h.363v1.89H4.434V28.13Zm17.009-1.817V21.225a1.033,1.033,0,0,1,.436-.145c.654-.073,1.236.509,1.744,1.09a3.5,3.5,0,0,0,2.4,1.526,2.659,2.659,0,0,0,2.253-1.744c.073-.073.073-.218.145-.291a14.64,14.64,0,0,0,2.98,1.89,25.49,25.49,0,0,1-9.958,2.762Zm6.251-5.306c-.363.654-.8,1.672-1.6,1.672-.654,0-1.163-.581-1.744-1.163a3.176,3.176,0,0,0-2.617-1.381.437.437,0,0,0-.291.073v-.291a15.008,15.008,0,0,0,4.289-.8,23.631,23.631,0,0,0,1.963,1.89ZM20.5,12.72a10.978,10.978,0,0,0,3.2-.436,17.028,17.028,0,0,0,5.233,4.507A18.907,18.907,0,0,1,21.443,18.9v-1.09l.727.509a1.67,1.67,0,0,0,1.744.073,1.6,1.6,0,0,0,.872-1.454,1.654,1.654,0,0,0-.727-1.381L19.916,12.72Zm-18.244,4.8a.86.86,0,0,1-.727.073.741.741,0,0,1-.363-.581.9.9,0,0,1,.291-.581L12.5,8.868c.436.291,10.322,7.051,11.048,7.559a.661.661,0,0,1,.291.581.576.576,0,0,1-.363.581.669.669,0,0,1-.727-.073c-1.163-.8-9.885-6.615-9.958-6.615a.66.66,0,0,0-.727,0c-.872.581-7.487,5.015-8.432,5.6h0Zm5.524-2.544v2.835a.66.66,0,0,1-.218.509L6.4,19.407a1.594,1.594,0,0,0-.509,1.236v1.236a.779.779,0,0,1-.727.727.728.728,0,0,1-.727-.727V17.154ZM31.546,31.982H1.454a.509.509,0,0,1,0-1.018H31.546a.5.5,0,0,1,.509.509.612.612,0,0,1-.509.509Zm0,0" transform="translate(0 0)"/></g></g></g></svg>