<svg id="Group_1197" data-name="Group 1197" xmlns="http://www.w3.org/2000/svg" width="33" height="33" viewBox="0 0 33 33">
  <path id="Path_1867" data-name="Path 1867" d="M121.375,130.556a9.278,9.278,0,0,1-7.141-3.352.645.645,0,1,1,.993-.825,7.988,7.988,0,1,0-1.837-5.1,8.14,8.14,0,0,0,.168,1.631.645.645,0,0,1-1.263.258,9.275,9.275,0,1,1,9.081,7.386Z" transform="translate(-104.875 -104.781)" fill="#fff"/>
  <path id="Path_1868" data-name="Path 1868" d="M246.645,5.485A.646.646,0,0,1,246,4.84V.645a.645.645,0,0,1,1.289,0v4.2A.646.646,0,0,1,246.645,5.485Z" transform="translate(-230.145)" fill="#fff"/>
  <path id="Path_1869" data-name="Path 1869" d="M246.645,432.385a.646.646,0,0,1-.645-.645v-4.2a.645.645,0,0,1,1.289,0v4.2A.646.646,0,0,1,246.645,432.385Z" transform="translate(-230.145 -399.385)" fill="#fff"/>
  <path id="Path_1870" data-name="Path 1870" d="M431.74,247.289h-4.2a.645.645,0,0,1,0-1.289h4.2a.645.645,0,0,1,0,1.289Z" transform="translate(-399.385 -230.145)" fill="#fff"/>
  <path id="Path_1871" data-name="Path 1871" d="M4.84,247.289H.645a.645.645,0,0,1,0-1.289h4.2a.645.645,0,0,1,0,1.289Z" transform="translate(0 -230.145)" fill="#fff"/>
  <path id="Path_1872" data-name="Path 1872" d="M374.521,76.331a.66.66,0,0,1-.458-.187.642.642,0,0,1,0-.909l2.971-2.971a.643.643,0,0,1,.909.909l-2.965,2.971A.66.66,0,0,1,374.521,76.331Z" transform="translate(-349.778 -67.43)" fill="#fff"/>
  <path id="Path_1873" data-name="Path 1873" d="M72.621,378.131a.66.66,0,0,1-.458-.187.642.642,0,0,1,0-.909l2.971-2.971a.643.643,0,0,1,.909.909l-2.965,2.971A.623.623,0,0,1,72.621,378.131Z" transform="translate(-67.336 -349.778)" fill="#fff"/>
  <path id="Path_1874" data-name="Path 1874" d="M377.492,378.224a.66.66,0,0,1-.458-.187l-2.971-2.965a.643.643,0,0,1,.909-.909l2.971,2.971a.635.635,0,0,1-.451,1.089Z" transform="translate(-349.778 -349.871)" fill="#fff"/>
  <path id="Path_1875" data-name="Path 1875" d="M75.686,76.331a.66.66,0,0,1-.458-.187l-2.965-2.971a.643.643,0,0,1,.909-.909l2.971,2.971a.642.642,0,0,1,0,.909A.66.66,0,0,1,75.686,76.331Z" transform="translate(-67.43 -67.43)" fill="#fff"/>
  <path id="Path_1876" data-name="Path 1876" d="M126.645,306.889a.678.678,0,0,1-.458-.187.638.638,0,0,1-.187-.458.678.678,0,0,1,.187-.458.638.638,0,0,1,.458-.187.678.678,0,0,1,.458.187.638.638,0,0,1,.187.458.638.638,0,0,1-.645.645Z" transform="translate(-117.879 -285.903)" fill="#fff"/>
  <path id="Path_1877" data-name="Path 1877" d="M313.013,191.711a.647.647,0,0,1-.645-.6,5.043,5.043,0,0,0-1.289-3.023.643.643,0,0,1,.954-.864,6.324,6.324,0,0,1,1.624,3.8.648.648,0,0,1-.6.69A.1.1,0,0,0,313.013,191.711Z" transform="translate(-290.874 -174.959)" fill="#fff"/>
  <path id="Path_1878" data-name="Path 1878" d="M334.345,279.189a.678.678,0,0,1-.458-.187.627.627,0,0,1-.187-.458.666.666,0,0,1,.187-.458.638.638,0,0,1,.458-.187.678.678,0,0,1,.458.187.638.638,0,0,1,.187.458.665.665,0,0,1-.187.458A.654.654,0,0,1,334.345,279.189Z" transform="translate(-312.192 -259.988)" fill="#fff"/>
</svg>
