<svg xmlns="http://www.w3.org/2000/svg" width="42" height="35.429" viewBox="0 0 42 35.429">
  <path id="Path_1814" data-name="Path 1814" d="M41.042,21.76A.974.974,0,0,0,42,20.78V14.649a.974.974,0,0,0-.958-.98H35.2V7.822a.974.974,0,0,0-.958-.98H28.4V.98A.974.974,0,0,0,27.444,0h-3.2a.627.627,0,0,0-.618.632.627.627,0,0,0,.618.632h2.936V6.842H14.819V1.264h6.938a.627.627,0,0,0,.618-.632A.627.627,0,0,0,21.757,0H.958A.974.974,0,0,0,0,.98V23.356a.627.627,0,0,0,.618.632.627.627,0,0,0,.618-.632v-1.6H6.8v5.578H1.236V25.884a.627.627,0,0,0-.618-.632A.627.627,0,0,0,0,25.884v8.565a.974.974,0,0,0,.958.98H41.042a.974.974,0,0,0,.958-.98V28.318a.974.974,0,0,0-.958-.98H35.2V21.76Zm-.263-1.248H28.417V14.933H40.779Zm-13.6,13.669H14.819V28.6H27.181ZM8.02,21.76H20.382v5.578H8.035V21.76ZM21,20.512H14.819V14.933H27.181v5.578ZM27.8,8.091H33.98v5.578H21.618V8.091Zm-7.417,0v5.578H8.035V8.091ZM1.236,13.669V8.091H6.8v5.578Zm0-12.4H13.6V6.842H1.236Zm0,19.247V14.933H13.6v5.578H1.236Zm0,8.091H13.6v5.578H1.236Zm39.543,5.578H28.417V28.6H40.779Zm-6.8-6.842H21.618V21.76H33.98Z" fill="#fff"/>
</svg>
