<?xml version="1.0" encoding="utf-8"?><svg xmlns="http://www.w3.org/2000/svg" xmlns:xlink="http://www.w3.org/1999/xlink"><symbol viewBox="0 0 25 25" id="symbol--angle" xmlns="http://www.w3.org/2000/svg"><g fill="currentColor"><path d="M.995 1.659l3.898 3.898-.995 1.078a.504.504 0 000 .663.505.505 0 00.664 0L5.64 6.22l2.074 2.073-1.079 1.079a.504.504 0 000 .663.505.505 0 00.664 0l1.078-1.078 2.074 2.073-1.078 1.079a.504.504 0 000 .663.505.505 0 00.663 0l1.079-1.078 2.073 2.073-.995 1.161a.504.504 0 000 .664.505.505 0 00.664 0l1.078-1.078 2.074 2.073-1.079 1.161a.504.504 0 000 .664.505.505 0 00.664 0l1.078-1.078 2.074 2.073-1.078 1.078a.504.504 0 000 .664.505.505 0 00.663 0l1.079-1.079 3.898 3.898H.912V1.658zM.497 25.047h24.055c.166 0 .415-.083.415-.332.083-.166 0-.415-.083-.498L.83.166C.663 0 .497 0 .331 0 .082.083 0 .332 0 .497V24.55c0 .249.248.498.497.498z"/><path d="M5.27 19.859v-7.957l7.958 7.957zm-.162-9.5c-.162-.162-.324-.162-.487-.08-.162.08-.325.243-.325.405v9.662c0 .244.244.487.488.487h9.662c.162 0 .406-.08.406-.324.08-.163 0-.406-.082-.488z"/></g></symbol><symbol viewBox="0 0 25 27" id="symbol--book" xmlns="http://www.w3.org/2000/svg"><g fill="currentColor"><path d="M.893 2.232h.893V15.18H9c.18 0 .36.036.526.107l2.973 1.27 3.001-1.271a1.33 1.33 0 01.523-.106h7.19V2.232h.893v13.84H15.99a2.231 2.231 0 00-.879.178L12.5 17.37l-2.612-1.12a2.225 2.225 0 00-.88-.179H.894zM2.679.892H9.82c1.233.002 2.231 1 2.233 2.233v12.27l-2.176-.93a2.218 2.218 0 00-.877-.18H2.679zm12.5 0h7.142v13.394h-6.297c-.3 0-.596.06-.871.178l-2.207.933V3.125c.002-1.232 1-2.23 2.233-2.232zm7.589 20.983v3.571c0 .247-.2.447-.447.447h-1.785a.446.446 0 01-.447-.447v-3.571c0-.247.2-.446.447-.446h1.785c.247 0 .447.2.447.446zm-13.76-4.91c.182 0 .361.036.528.107l2.964 1.27 2.964-1.27c.167-.071.346-.108.527-.108H25V1.34h-1.786V0H15.18a3.124 3.124 0 00-2.68 1.518A3.124 3.124 0 009.821 0H1.786v1.34H0v15.624h1.786v1.34c0 .74.6 1.339 1.339 1.339h17.41c.247 0 .447.2.447.446v.447h-.446c-.74 0-1.34.6-1.34 1.339v3.571c0 .74.6 1.34 1.34 1.34h1.785c.74 0 1.34-.6 1.34-1.34v-3.571c0-.74-.6-1.34-1.34-1.34h-.446v-.446c0-.74-.6-1.339-1.34-1.339H3.126a.446.446 0 01-.446-.446v-1.34z"/><path d="M21.079 21.993h.871v.871h-.871z"/></g></symbol><symbol viewBox="0 0 32 32" id="symbol--calculator" xmlns="http://www.w3.org/2000/svg"><g fill="currentColor"><path d="M30.968 27.355a3.617 3.617 0 01-3.613 3.613H4.645a3.617 3.617 0 01-3.613-3.613V4.645a3.617 3.617 0 013.613-3.613h22.71a3.617 3.617 0 013.613 3.613zM27.355 0H4.645A4.65 4.65 0 000 4.645v22.71A4.65 4.65 0 004.645 32h22.71A4.65 4.65 0 0032 27.355V4.645A4.65 4.65 0 0027.355 0z"/><path d="M29.354 15.486h-12.84V2.646a.514.514 0 00-1.028 0v12.84H2.646a.514.514 0 000 1.028h12.84v12.84a.514.514 0 001.028 0v-12.84h12.84a.514.514 0 000-1.028z"/><path d="M4.265 9.064h3.733v3.732a.533.533 0 001.066 0V9.064h3.732a.533.533 0 000-1.066H9.064V4.265a.533.533 0 00-1.066 0v3.733H4.265a.533.533 0 000 1.066zM19.204 8.8h8.53a.533.533 0 000-1.067h-8.53a.533.533 0 000 1.067zM27.735 23.2h-8.531a.533.533 0 000 1.067h8.53a.533.533 0 000-1.067zM12.107 19.893a.533.533 0 00-.754 0l-2.822 2.822-2.822-2.822a.533.533 0 00-.754.754l2.822 2.822-2.822 2.822a.533.533 0 10.754.754l2.822-2.822 2.822 2.822a.531.531 0 00.754 0 .533.533 0 000-.754L9.285 23.47l2.822-2.822a.533.533 0 000-.754zM23.181 20.629a.534.534 0 111.068 0 .534.534 0 01-1.068 0zm2.133 0c0-.882-.717-1.6-1.6-1.6-.882 0-1.599.718-1.599 1.6 0 .882.717 1.6 1.6 1.6.882 0 1.6-.718 1.6-1.6zM23.715 27.201a.534.534 0 110-1.067.534.534 0 010 1.067zm0-2.132a1.6 1.6 0 00-1.6 1.6c0 .881.717 1.599 1.6 1.599.882 0 1.6-.718 1.6-1.6 0-.882-.718-1.6-1.6-1.6z"/></g></symbol><symbol viewBox="0 0 32 32" id="symbol--favorites" xmlns="http://www.w3.org/2000/svg"><defs><clipPath id="da"><path d="M-.027 32V0h32v32z"/></clipPath></defs><path d="M-.027 32V0h32v32z" fill="transparent"/><g clip-path="url(#da)"><path d="M24.185 21.016l1.327 7.738c.066.39-.085.759-.404.994a.994.994 0 01-1.07.075l-6.95-3.652a2.303 2.303 0 00-2.143 0l-6.947 3.652a.994.994 0 01-1.07-.075 1.003 1.003 0 01-.404-.994l1.327-7.738a2.305 2.305 0 00-.662-2.04L1.566 13.5a1.001 1.001 0 01-.257-1.042.998.998 0 01.82-.693l7.77-1.13a2.291 2.291 0 001.733-1.258l3.473-7.04a1 1 0 01.913-.566c.396 0 .735.21.91.566l3.477 7.04a2.285 2.285 0 001.731 1.259l7.77 1.13a.99.99 0 01.818.692.999.999 0 01-.254 1.042l-5.623 5.478a2.3 2.3 0 00-.662 2.04zm7.182-6.598c.63-.615.853-1.518.58-2.36a2.283 2.283 0 00-1.857-1.565l-7.772-1.129a1.017 1.017 0 01-.762-.556l-3.473-7.04A2.292 2.292 0 0016.018.484c-.882 0-1.672.492-2.065 1.282L10.48 8.808a1.022 1.022 0 01-.765.556l-7.772 1.13a2.28 2.28 0 00-1.857 1.565c-.27.84-.048 1.744.583 2.359l5.622 5.479c.24.235.35.57.292.9l-1.327 7.74c-.147.87.2 1.73.917 2.25a2.284 2.284 0 002.421.175l6.95-3.655c.295-.153.65-.153.948 0l6.946 3.655c.343.18.71.267 1.074.267a2.3 2.3 0 001.351-.442 2.292 2.292 0 00.917-2.25l-1.33-7.74c-.057-.33.053-.665.295-.897z" fill="currentColor"/></g></symbol><symbol viewBox="0 0 25 25" id="symbol--gallery" xmlns="http://www.w3.org/2000/svg"><g fill="currentColor"><defs><clipPath id="ea"><path d="M0 25V0h25v25z" fill="#fff"/></clipPath></defs><path d="M0 25v0V0v0h25v25z" fill="none" stroke="currentColor" stroke-miterlimit="50" stroke-width="2" clip-path="url(#ea)"/><path d="M12.36 15.383a2.994 2.994 0 01-2.99-2.99 2.994 2.994 0 012.99-2.99 2.994 2.994 0 012.99 2.99 2.994 2.994 0 01-2.99 2.99zm0-6.768a3.783 3.783 0 00-3.778 3.778 3.783 3.783 0 003.778 3.778 3.783 3.783 0 003.778-3.778 3.783 3.783 0 00-3.778-3.778zM12.36 7.87a.394.394 0 00.394-.394V5.427a.394.394 0 00-.788 0v2.05c0 .217.176.393.394.393zM12.36 16.916a.394.394 0 00-.394.394v2.049a.394.394 0 10.788 0v-2.05a.394.394 0 00-.394-.393zM8.605 9.195a.393.393 0 00.557 0 .394.394 0 000-.557l-1.449-1.45a.394.394 0 00-.557.558zM16.115 15.591a.394.394 0 00-.557.557l1.449 1.45a.393.393 0 00.557 0 .394.394 0 000-.558zM7.837 12.393a.394.394 0 00-.394-.394H5.394a.394.394 0 100 .788h2.05a.394.394 0 00.393-.394zM19.326 11.999h-2.05a.394.394 0 100 .788h2.05a.394.394 0 100-.788zM15.837 9.31c.1 0 .201-.038.278-.115l1.45-1.449a.394.394 0 00-.558-.557l-1.449 1.449a.394.394 0 00.279.672zM8.605 15.591l-1.45 1.449a.394.394 0 00.558.557l1.449-1.449a.394.394 0 00-.557-.557z"/></g></symbol><symbol viewBox="0 0 25 25" id="symbol--gear" xmlns="http://www.w3.org/2000/svg"><g fill="currentColor"><path d="M24.074 13.99c0 .2-.162.362-.361.362h-2.339c-.752 0-1.398.431-1.685 1.126a1.795 1.795 0 00.395 1.988l1.654 1.653a.361.361 0 010 .511l-2.108 2.108a.361.361 0 01-.511 0l-1.653-1.654a1.797 1.797 0 00-1.988-.395 1.796 1.796 0 00-1.126 1.685v2.339a.361.361 0 01-.361.361h-2.982a.362.362 0 01-.36-.361v-2.339c0-.752-.432-1.398-1.127-1.685a1.799 1.799 0 00-1.988.395l-1.653 1.653a.361.361 0 01-.511 0L3.262 19.63a.361.361 0 010-.511l1.654-1.654a1.796 1.796 0 00.395-1.988 1.796 1.796 0 00-1.685-1.125H1.287a.362.362 0 01-.361-.361v-2.982a.36.36 0 01.361-.36h2.339c.752 0 1.398-.432 1.685-1.127a1.795 1.795 0 00-.395-1.988L3.262 5.881a.361.361 0 010-.511L5.37 3.262a.361.361 0 01.511 0l1.653 1.653a1.796 1.796 0 001.988.396 1.795 1.795 0 001.126-1.685V1.287c0-.199.162-.361.361-.361h2.981c.2 0 .362.162.362.361v2.339c0 .752.431 1.398 1.126 1.685a1.795 1.795 0 001.988-.395l1.653-1.653a.361.361 0 01.511 0l2.108 2.107a.361.361 0 010 .512l-1.654 1.653a1.796 1.796 0 00-.395 1.988 1.796 1.796 0 001.685 1.126h2.339a.36.36 0 01.361.36zm-2.7-4.268a.873.873 0 01-.83-.554.874.874 0 01.195-.979l1.654-1.653a1.28 1.28 0 00.376-.91 1.28 1.28 0 00-.376-.91l-2.108-2.109c-.486-.486-1.334-.487-1.821 0L16.81 4.261a.873.873 0 01-.98.195.873.873 0 01-.553-.83V1.287A1.287 1.287 0 0013.99 0h-2.982c-.71 0-1.287.577-1.287 1.287v2.339a.873.873 0 01-.554.83.872.872 0 01-.979-.195L6.536 2.607c-.487-.487-1.335-.486-1.82 0l-2.11 2.108a1.28 1.28 0 00-.376.91c0 .344.133.668.376.911L4.261 8.19a.874.874 0 01.195.98.872.872 0 01-.83.553H1.287A1.287 1.287 0 000 11.01v2.981c0 .71.577 1.288 1.287 1.288h2.339c.376 0 .686.207.83.554a.874.874 0 01-.195.979l-1.654 1.653a1.28 1.28 0 00-.376.91c0 .344.133.667.376.91l2.108 2.109c.487.486 1.334.487 1.821 0l1.653-1.654a.873.873 0 01.98-.195.873.873 0 01.553.83v2.339c0 .71.578 1.287 1.287 1.287h2.981c.71 0 1.287-.577 1.287-1.287v-2.339c0-.376.207-.686.554-.83a.873.873 0 01.98.195l1.652 1.654c.487.487 1.335.486 1.821 0l2.108-2.108a1.28 1.28 0 00.377-.91 1.28 1.28 0 00-.377-.911l-1.654-1.653a.874.874 0 01-.194-.98.873.873 0 01.83-.553h2.339c.71 0 1.287-.578 1.287-1.287V11.01c0-.71-.577-1.287-1.287-1.287z"/><path d="M12.5 15.663A3.167 3.167 0 019.337 12.5 3.167 3.167 0 0112.5 9.337a3.167 3.167 0 013.163 3.163 3.167 3.167 0 01-3.163 3.163zm0-7.23A4.071 4.071 0 008.433 12.5a4.071 4.071 0 004.067 4.067 4.071 4.071 0 004.067-4.067A4.071 4.071 0 0012.5 8.433z"/></g></symbol><symbol viewBox="0 0 36 37" id="symbol--hamburger" xmlns="http://www.w3.org/2000/svg"><g fill="currentColor"><path d="M3.939.494A3.943 3.943 0 000 4.433a.739.739 0 001.477 0A2.464 2.464 0 013.94 1.971a2.464 2.464 0 012.462 2.462A2.465 2.465 0 013.94 6.895a.739.739 0 000 1.477 3.944 3.944 0 003.939-3.939A3.943 3.943 0 003.939.494zM17.838 6.895a2.464 2.464 0 01-2.461-2.462 2.464 2.464 0 012.461-2.462A2.464 2.464 0 0120.3 4.433a2.464 2.464 0 01-2.462 2.462zm0-6.4A3.943 3.943 0 0013.9 4.432a3.944 3.944 0 003.94 3.939 3.944 3.944 0 003.938-3.939 3.943 3.943 0 00-3.94-3.938zM31.738 1.971A2.465 2.465 0 0134.2 4.433a2.464 2.464 0 01-2.462 2.462 2.464 2.464 0 01-2.462-2.462 2.464 2.464 0 012.462-2.462zm0 6.401a3.943 3.943 0 003.939-3.939 3.943 3.943 0 00-3.94-3.939A3.943 3.943 0 0027.8 4.433a3.943 3.943 0 003.939 3.94zM3.939 20.956a2.465 2.465 0 01-2.462-2.462 2.464 2.464 0 012.462-2.462 2.464 2.464 0 012.462 2.462 2.464 2.464 0 01-2.462 2.462zm0-6.4A3.944 3.944 0 000 18.493a3.944 3.944 0 003.939 3.94 3.944 3.944 0 003.939-3.94 3.944 3.944 0 00-3.939-3.939zM21.039 17.755a.739.739 0 00-.739.74 2.465 2.465 0 01-2.462 2.46 2.465 2.465 0 01-2.461-2.46 2.465 2.465 0 012.461-2.463.739.739 0 000-1.477 3.944 3.944 0 00-3.939 3.94 3.944 3.944 0 003.94 3.938 3.944 3.944 0 003.939-3.939.739.739 0 00-.74-.739zM31.738 20.956a2.464 2.464 0 01-2.462-2.462 2.464 2.464 0 012.462-2.462 2.465 2.465 0 012.462 2.462 2.465 2.465 0 01-2.462 2.462zm0-6.4a3.943 3.943 0 00-3.94 3.938 3.944 3.944 0 003.94 3.94 3.944 3.944 0 003.939-3.94 3.943 3.943 0 00-3.94-3.939zM3.939 35.017a2.465 2.465 0 01-2.462-2.462 2.464 2.464 0 012.462-2.461 2.464 2.464 0 012.462 2.461 2.464 2.464 0 01-2.462 2.462zm0-6.4A3.944 3.944 0 000 32.554a3.943 3.943 0 003.939 3.94 3.943 3.943 0 003.939-3.94 3.944 3.944 0 00-3.939-3.939zM17.838 35.017a2.464 2.464 0 01-2.461-2.462 2.464 2.464 0 012.461-2.461 2.464 2.464 0 012.462 2.461 2.464 2.464 0 01-2.462 2.462zm0-6.4a3.944 3.944 0 00-3.939 3.938 3.943 3.943 0 003.94 3.94 3.943 3.943 0 003.938-3.94 3.944 3.944 0 00-3.939-3.939zM31.738 35.017a2.464 2.464 0 01-2.462-2.462 2.464 2.464 0 012.462-2.461 2.465 2.465 0 012.462 2.461 2.465 2.465 0 01-2.462 2.462zm0-6.4a3.943 3.943 0 00-3.94 3.938 3.943 3.943 0 003.94 3.94 3.943 3.943 0 003.939-3.94 3.943 3.943 0 00-3.94-3.939z"/></g></symbol><symbol viewBox="0 0 25 23" id="symbol--handshake" xmlns="http://www.w3.org/2000/svg"><g fill="currentColor"><path d="M24.854 16.227l-1.211-1.202a.496.496 0 00-.7.705l1.212 1.201a.494.494 0 00.701-.003.496.496 0 00-.002-.701zM22.409 13.831a.496.496 0 00-.702 0l-.001.001a.496.496 0 10.703 0z"/><path d="M13.049 4.638l-1.34-1.342c.152.033.308.05.467.05h.01l1.34-.006a.488.488 0 00-.003-.977h-.002l-1.339.006h-.006c-.33 0-.64-.128-.874-.36a1.233 1.233 0 01-.365-.88V.977h3.343c.628 0 1.234.264 1.662.724l.02.021zm-.128 2.474a.863.863 0 01-1.22 0L9.248 4.658l-.477-.478a.865.865 0 01.61-1.474.86.86 0 01.61.253l2.928 2.932a.862.862 0 01.001 1.221zm-1.91 1.912a.863.863 0 01-1.22 0L7.338 6.57a.858.858 0 01-.253-.61.86.86 0 011.472-.611l1.118 1.118 1.334 1.336c.163.163.253.38.253.61 0 .231-.09.448-.253.611zM9.1 10.936a.863.863 0 01-1.22 0l-1.32-1.32-.655-.656a.865.865 0 01.61-1.474c.23 0 .447.09.61.253L9.1 9.715c.163.163.253.38.253.61 0 .231-.09.448-.253.611zm-1.91 1.912a.856.856 0 01-.61.253.856.856 0 01-.61-.253l-1.32-1.32a.865.865 0 01.61-1.474c.231 0 .448.09.61.253l1.32 1.32a.865.865 0 010 1.221zm11.077 3.243L23 11.353a1.844 1.844 0 000-2.603 1.826 1.826 0 00-.886-.49c.111-.24.17-.504.17-.776a1.83 1.83 0 00-.538-1.302 1.823 1.823 0 00-.988-.512c.21-.639.062-1.37-.445-1.878a1.827 1.827 0 00-.987-.51 1.845 1.845 0 00-.446-1.88 1.826 1.826 0 00-1.3-.539c-.311 0-.611.078-.878.223l-.047-.05A3.254 3.254 0 0014.28 0h-3.83a.488.488 0 00-.489.488v.64c0 .257.044.507.126.741a1.843 1.843 0 00-.705-.14 1.843 1.843 0 00-1.745 2.418 1.827 1.827 0 00-.988.511 1.845 1.845 0 00-.446 1.878c-.372.064-.714.24-.986.512a1.845 1.845 0 00-.368 2.076 1.844 1.844 0 00-.887 3.095l.973.974L.143 17.99a.489.489 0 00.69.69l4.838-4.842c.274.156.585.24.91.24a1.836 1.836 0 001.836-1.915 1.832 1.832 0 001.374-.536 1.83 1.83 0 00.536-1.376 1.83 1.83 0 001.91-1.912l.073.002c.471 0 .942-.18 1.3-.538a1.844 1.844 0 00.122-2.468l3.239-3.242a.856.856 0 01.61-.253c.23 0 .447.09.61.253.163.163.253.38.253.61 0 .231-.09.448-.253.611l-.477.478-1.733 1.735a.489.489 0 00.69.69l1.733-1.734a.863.863 0 111.22 1.221l-.478.478-1.255 1.257a.489.489 0 00.69.69l1.255-1.256a.856.856 0 01.61-.253c.23 0 .447.09.61.253.163.163.253.38.253.61 0 .232-.09.448-.253.611l-.655.657-.6.6a.489.489 0 00.69.69l.6-.6a.863.863 0 011.22 1.222L17.578 15.4a6.606 6.606 0 01-4.448 1.94.488.488 0 00-.328.143L8.43 21.876a.489.489 0 00.691.69l3.216-3.232a4.532 4.532 0 002.754.71l2.517 2.52a.486.486 0 00.69 0 .49.49 0 000-.691l-2.676-2.68a.488.488 0 00-.385-.14l-.154.012a3.559 3.559 0 01-2.036-.444l.313-.315a7.578 7.578 0 004.908-2.215z"/></g></symbol><symbol viewBox="0 0 25 26" id="symbol--home" xmlns="http://www.w3.org/2000/svg"><path d="M21.984 24.296h-6.035v-6.897a3.452 3.452 0 00-3.448-3.448 3.452 3.452 0 00-3.448 3.448v6.897H3.018V9.982l9.483-8.806 9.483 8.806zm-12.07 0v-6.897a2.589 2.589 0 012.587-2.586 2.589 2.589 0 012.586 2.586v6.897zm14.95-12.817L12.5 0 .139 11.48a.432.432 0 00.586.631l1.431-1.328v14.375h20.69V10.782l1.43 1.329a.429.429 0 00.61-.022.43.43 0 00-.022-.61z" fill="currentColor"/></symbol><symbol viewBox="0 0 20 16" id="symbol--letter" xmlns="http://www.w3.org/2000/svg"><path d="M18.225 13.96a.297.297 0 01-.297.297H1.891a.297.297 0 01-.297-.297V2.08c0-.163.133-.296.297-.296h16.037c.164 0 .297.133.297.297zm-.297-12.77H1.891A.891.891 0 001 2.08v11.88c0 .492.399.891.891.891h16.037a.891.891 0 00.891-.89V2.08a.891.891 0 00-.89-.891z" fill="#fff"/><path d="M18.225 13.96a.297.297 0 01-.297.297H1.891a.297.297 0 01-.297-.297V2.08c0-.163.133-.296.297-.296h16.037c.164 0 .297.133.297.297zm-.297-12.77H1.891A.891.891 0 001 2.08v11.88c0 .492.399.891.891.891h16.037a.891.891 0 00.891-.89V2.08a.891.891 0 00-.89-.891z" fill="none" stroke="#fff" stroke-miterlimit="50" stroke-width=".3"/><path d="M17.367 2.372a.298.298 0 00-.217.068l-6.858 5.724a.597.597 0 01-.765 0L2.67 2.44a.299.299 0 00-.484.175c-.019.104.02.21.101.278l6.858 5.723c.442.37 1.087.37 1.53 0l6.857-5.723a.295.295 0 00-.165-.52z" fill="#fff"/><path d="M17.367 2.372a.298.298 0 00-.217.068l-6.858 5.724a.597.597 0 01-.765 0L2.67 2.44a.299.299 0 00-.484.175c-.019.104.02.21.101.278l6.858 5.723c.442.37 1.087.37 1.53 0l6.857-5.723a.295.295 0 00-.165-.52z" fill="none" stroke="#fff" stroke-miterlimit="50" stroke-width=".3"/><path d="M6.68 8.651a.295.295 0 00-.284.092l-4.135 4.43a.295.295 0 10.432.403l4.134-4.43a.295.295 0 00-.147-.495z" fill="#fff"/><path d="M6.68 8.651a.295.295 0 00-.284.092l-4.135 4.43a.295.295 0 10.432.403l4.134-4.43a.295.295 0 00-.147-.495z" fill="none" stroke="#fff" stroke-miterlimit="50" stroke-width=".3"/><g><path d="M13.424 8.743a.295.295 0 10-.432.403l4.135 4.43a.295.295 0 00.432-.403z" fill="#fff"/><path d="M13.424 8.743a.295.295 0 10-.432.403l4.135 4.43a.295.295 0 00.432-.403z" fill="none" stroke="#fff" stroke-miterlimit="50" stroke-width=".3"/></g></symbol><symbol viewBox="0 0 95 36" id="symbol--logo" xmlns="http://www.w3.org/2000/svg"><path d="M0 21c0-1 1-2 2-2h13c1 0 2 1 2 2v13c0 1-1 2-2 2H2c-1 0-2-1-2-2z" fill="#c973eb"/><path d="M0 2c0-1 1-2 2-2h13c1 0 2 1 2 2v13c0 1-1 2-2 2H2c-1 0-2-1-2-2z" fill="url(#a)"/><text dominant-baseline="text-before-edge" style="line-height:6px;font-kerning:normal" font-size="8" font-family="'Montserrat','Montserrat-SemiBold'" letter-spacing=".4" transform="translate(46 17)" fill="currentColor"><tspan>ОКНА</tspan></text><text dominant-baseline="text-before-edge" style="line-height:10px;font-kerning:normal" font-size="10" font-family="'Montserrat','Montserrat-Bold'" font-weight="700" font-style="none" letter-spacing=".5" transform="translate(46 5)" fill="currentColor"><tspan fill="#d165e9">ПРО</tspan><tspan>СТО</tspan></text><path d="M19 2c0-1 1-2 2-2h13c1 0 2 1 2 2v13c0 1-1 2-2 2H21c-1 0-2-1-2-2z" fill="#a9b1f7"/><path d="M19 21c0-1 1-2 2-2h13c1 0 2 1 2 2v13c0 1-1 2-2 2H21c-1 0-2-1-2-2z" fill="#82dcee"/></symbol><symbol viewBox="0 0 52.966 52.966" id="symbol--magnifier" xmlns="http://www.w3.org/2000/svg"><path d="M51.704 51.273L36.845 35.82c3.79-3.801 6.138-9.041 6.138-14.82 0-11.58-9.42-21-21-21s-21 9.42-21 21 9.42 21 21 21c5.083 0 9.748-1.817 13.384-4.832l14.895 15.491a.998.998 0 001.414.028 1 1 0 00.028-1.414zM21.983 40c-10.477 0-19-8.523-19-19s8.523-19 19-19 19 8.523 19 19-8.524 19-19 19z" fill="currentColor"/></symbol><symbol viewBox="0 0 27 37" id="symbol--marker" xmlns="http://www.w3.org/2000/svg"><g fill="currentColor"><path d="M13.617 16.645a3.263 3.263 0 01-3.26-3.26 3.263 3.263 0 013.26-3.259 3.263 3.263 0 013.259 3.26 3.263 3.263 0 01-3.26 3.259zm0-7.823a4.569 4.569 0 00-4.563 4.564 4.569 4.569 0 004.563 4.563 4.569 4.569 0 004.563-4.563 4.569 4.569 0 00-4.563-4.564z"/><path d="M13.617 16.645a3.263 3.263 0 01-3.26-3.26 3.263 3.263 0 013.26-3.259 3.263 3.263 0 013.259 3.26 3.263 3.263 0 01-3.26 3.259zm0-7.823a4.569 4.569 0 00-4.563 4.564 4.569 4.569 0 004.563 4.563 4.569 4.569 0 004.563-4.563 4.569 4.569 0 00-4.563-4.564z" fill="none" stroke="currentColor" stroke-miterlimit="50" stroke-width=".5"/><path d="M22.444 21.489l-8.943 12.915-8.957-12.935C1.154 16.95 1.64 9.526 5.584 5.583a11.123 11.123 0 017.917-3.28c2.991 0 5.803 1.166 7.918 3.28 3.944 3.943 4.43 11.367 1.025 15.906zm-.103-16.827A12.42 12.42 0 0013.5 1c-3.34 0-6.478 1.3-8.84 3.662C.293 9.03-.25 17.25 3.487 22.23L13.5 36.695l10-14.444c3.752-5 3.21-13.22-1.16-17.59z"/><path d="M22.444 21.489l-8.943 12.915-8.957-12.935C1.154 16.95 1.64 9.526 5.584 5.583a11.123 11.123 0 017.917-3.28c2.991 0 5.803 1.166 7.918 3.28 3.944 3.943 4.43 11.367 1.025 15.906zm-.103-16.827A12.42 12.42 0 0013.5 1c-3.34 0-6.478 1.3-8.84 3.662C.293 9.03-.25 17.25 3.487 22.23L13.5 36.695l10-14.444c3.752-5 3.21-13.22-1.16-17.59z" fill="none" stroke="currentColor" stroke-miterlimit="50" stroke-width=".5"/></g></symbol><symbol viewBox="0 0 15 15" id="symbol--phone" xmlns="http://www.w3.org/2000/svg"><path d="M14.41 10.623c.413.398.652.933.673 1.506a2.191 2.191 0 01-.563 1.55l-.014.017a.764.764 0 01-.022.023c-.843.843-2.02 1.288-3.407 1.288h-.032c-1.022-.005-2.135-.265-3.31-.771a.579.579 0 01.46-1.063c1.015.438 2.002.672 2.855.676h.027c1.067 0 1.957-.324 2.578-.938l.004-.005a1.041 1.041 0 00-.052-1.45c-1.554-1.498-2.288-1.39-2.967-.728l-1.08 1.073a.579.579 0 01-.644.118c-.061-.027-1.517-.686-3.158-2.327l-.076-.076c-1.641-1.64-2.3-3.097-2.327-3.158a.579.579 0 01.118-.643l1.072-1.081c.663-.68.771-1.413-.727-2.967a1.04 1.04 0 00-1.45-.052l-.005.004c-.62.626-.944 1.526-.938 2.605.01 2.081 1.191 4.498 3.159 6.466.375.375.804.748 1.273 1.108a.579.579 0 11-.704.919c-.51-.391-.977-.798-1.388-1.208C1.587 9.33.28 6.609.267 4.229.26 2.83.706 1.64 1.555.79a.814.814 0 01.023-.02l.016-.015A2.19 2.19 0 013.145.19c.573.021 1.108.26 1.506.673.78.808 1.23 1.485 1.416 2.13.257.89.023 1.715-.695 2.45a.128.128 0 00-.003.004l-.777.782c.275.489.88 1.44 1.908 2.467l.076.076c1.035 1.035 1.98 1.636 2.467 1.91l.783-.778.004-.003c.735-.718 1.56-.952 2.449-.695.646.187 1.323.636 2.131 1.416zm-5.526-6.31a1.72 1.72 0 01-.514-1.229c0-.465.182-.901.514-1.23l1.51-1.496a.579.579 0 11.814.822L9.9 2.476h2a3.187 3.187 0 013.183 3.18v1.595a.579.579 0 01-1.158.001V5.658a2.029 2.029 0 00-2.026-2.024H9.842l1.366 1.354a.579.579 0 11-.814.822z" fill="#fff"/></symbol><symbol viewBox="0 0 25 23" id="symbol--scales" xmlns="http://www.w3.org/2000/svg"><path d="M24.304 12.84c0 .153-.153.229-.23.229H16.89c-.152 0-.229-.076-.229-.23v-.229c0-.152.153-.229.23-.229h7.184c.152 0 .229.153.229.23zm-3.669 2.98c-1.223 0-2.369-.84-2.675-1.987h5.427c-.459 1.147-1.529 1.987-2.752 1.987zm-.382-9.17h.459l2.369 4.967h-5.197zm.23-1.988c.305 0 .61.306.61.611a.603.603 0 01-.61.612c-.306 0-.612-.306-.612-.612 0-.305.23-.611.611-.611zM12.151.841c0-.077.076-.077.153-.077h.458c.077 0 .153.077.153.153v.84a1.06 1.06 0 00-.688 0V.842zm.382 3.668c-.611 0-1.07-.458-1.07-1.07 0-.611.459-1.07 1.07-1.07 1.07 0 1.452 1.452.535 1.987-.23.153-.382.153-.535.153zm2.751 15.438c.153 0 .23.153.23.23v.458H9.477v-.458c0-.153.153-.23.23-.23zm-8.1-8.33H1.986l2.37-4.968h.458zm1.222.917v.23c0 .152-.153.229-.23.229H.995c-.153 0-.23-.077-.23-.23v-.229c0-.153.153-.23.23-.23h7.184c.153 0 .229.154.229.23zM4.433 15.82c-1.223 0-2.37-.84-2.675-1.987h5.426a2.893 2.893 0 01-2.751 1.987zm.153-11.158c.305 0 .611.306.611.611a.603.603 0 01-.611.612.603.603 0 01-.612-.612c0-.305.306-.61.612-.61zm19.489 6.955h-.23l-2.522-5.274c.306-.229.459-.611.459-.993a1.37 1.37 0 00-1.376-1.376c-.611 0-1.07.382-1.3.84-.305-.076-.764-.152-1.146-.228l-3.592-.994c0-.611-.229-1.146-.688-1.528V.84a.848.848 0 00-.84-.84h-.459a.848.848 0 00-.84.84v1.147c-.46.382-.765.917-.688 1.529l-3.745 1.07c-.382.076-.841.152-1.223.229-.23-.535-.688-.917-1.3-.917A1.37 1.37 0 003.21 5.273c0 .383.153.765.458.994l-2.522 5.274H.994c-.535 0-.994.458-.994.993v.23c0 .534.459.993.994.993.382 1.605 1.757 2.751 3.439 2.751 1.681 0 3.057-1.146 3.439-2.751h.306c.535 0 .993-.459.993-.994v-.229a1.01 1.01 0 00-.993-.993h-.23L5.503 6.267c.229-.23.382-.459.458-.764.459 0 .917-.153 1.376-.23l3.592-.993c.153.23.306.459.535.611v14.292H9.783c-.535 0-.994.459-.994.994v.535a.994.994 0 00-.84.993v.23c0 .535.458.993.993.993h2.751c.23 0 .382-.153.382-.382 0-.23-.152-.382-.382-.382H8.942c-.153 0-.23-.077-.23-.23v-.229c0-.153.077-.229.23-.229h7.184c.153 0 .23.076.23.23v.229c0 .152-.077.229-.23.229h-2.751c-.23 0-.382.153-.382.382 0 .23.152.382.382.382h2.751c.535 0 .994-.458.994-.993v-.23c0-.458-.382-.917-.841-.993v-.535c0-.535-.459-.994-.994-.994h-1.681v-5.655c0-.23-.153-.383-.382-.383-.23 0-.382.153-.382.383v5.655h-.688V5.197c.23.076.458.076.688 0v6.573c0 .23.153.382.382.382.23 0 .382-.153.382-.382V4.89c.23-.152.382-.382.535-.611l3.592.993c.459.077.917.23 1.376.23.076.305.23.535.458.764l-2.522 5.274h-.229c-.535 0-.994.458-.994.993v.23c0 .534.459.993.994.993h.306c.382 1.605 1.757 2.751 3.439 2.751 1.681 0 3.057-1.146 3.44-2.751.534 0 .993-.459.993-.994v-.229c.076-.535-.382-.917-.917-.917z" fill="currentColor"/></symbol><symbol viewBox="0 0 15 14" id="symbol--speech-bubble" xmlns="http://www.w3.org/2000/svg"><path d="M1.64 8.535V3.543c0-.97.79-1.76 1.76-1.76h8.2c.97 0 1.76.79 1.76 1.76v4.992c0 .97-.79 1.76-1.76 1.76H5.806a.32.32 0 00-.226.094l-1.593 1.593v-1.366a.32.32 0 00-.32-.32H3.4c-.971 0-1.76-.79-1.76-1.76zM1 3.543v4.992a2.403 2.403 0 002.347 2.4v1.82a.32.32 0 00.547.226l2.045-2.045h5.66A2.403 2.403 0 0014 8.536V3.542c0-1.323-1.077-2.4-2.4-2.4H3.4a2.403 2.403 0 00-2.4 2.4z" fill="#fff"/><path d="M1.64 8.535V3.543c0-.97.79-1.76 1.76-1.76h8.2c.97 0 1.76.79 1.76 1.76v4.992c0 .97-.79 1.76-1.76 1.76H5.806a.32.32 0 00-.226.094l-1.593 1.593v-1.366a.32.32 0 00-.32-.32H3.4c-.971 0-1.76-.79-1.76-1.76zM1 3.543v4.992a2.403 2.403 0 002.347 2.4v1.82a.32.32 0 00.547.226l2.045-2.045h5.66A2.403 2.403 0 0014 8.536V3.542c0-1.323-1.077-2.4-2.4-2.4H3.4a2.403 2.403 0 00-2.4 2.4z" fill="none" stroke="#fff" stroke-miterlimit="50" stroke-width=".2"/><path d="M10.503 5.346a.716.716 0 110 1.432.716.716 0 010-1.432z" fill="#fff"/><path d="M10.503 5.346a.716.716 0 110 1.432.716.716 0 010-1.432z" fill="none" stroke="#fff" stroke-miterlimit="50" stroke-width=".2"/><path d="M7.5 5.346a.716.716 0 110 1.432.716.716 0 010-1.432z" fill="#fff"/><path d="M7.5 5.346a.716.716 0 110 1.432.716.716 0 010-1.432z" fill="none" stroke="#fff" stroke-miterlimit="50" stroke-width=".2"/><g><path d="M4.497 5.346a.716.716 0 110 1.432.716.716 0 010-1.432z" fill="#fff"/><path d="M4.497 5.346a.716.716 0 110 1.432.716.716 0 010-1.432z" fill="none" stroke="#fff" stroke-miterlimit="50" stroke-width=".2"/></g></symbol><symbol viewBox="0 0 18 18" id="symbol--whats-app" xmlns="http://www.w3.org/2000/svg"><path d="M14.105 13.739a7.296 7.296 0 01-5.194 2.15c-1.2 0-2.392-.296-3.447-.858a.778.778 0 00-.621-.048l-3.645 1.276 1.276-3.645a.778.778 0 00-.049-.621 7.363 7.363 0 01-.858-3.448c0-1.962.764-3.806 2.15-5.193A7.297 7.297 0 018.912 1.2c1.962 0 3.807.764 5.194 2.152a7.296 7.296 0 012.151 5.193 7.296 7.296 0 01-2.151 5.194zm.714-11.102A8.3 8.3 0 008.911.19c-1.104 0-2.18.214-3.198.635a8.313 8.313 0 00-2.71 1.812A8.3 8.3 0 00.556 8.545c0 1.331.321 2.654.93 3.832L.082 16.389a.768.768 0 00.183.803.768.768 0 00.802.183L5.08 15.97a8.38 8.38 0 003.832.93 8.3 8.3 0 005.908-2.448 8.3 8.3 0 002.448-5.908 8.3 8.3 0 00-2.448-5.908z" fill="#fff"/><path d="M11.529 12.01c-.149.148-.604.2-1.4-.141-.842-.36-1.78-1.035-2.644-1.898-.863-.863-1.537-1.802-1.897-2.643-.342-.796-.29-1.252-.142-1.4l.89-.889 1.097 1.098-.526.526a.771.771 0 00-.143.898 7.129 7.129 0 003.131 3.131c.3.153.66.096.898-.142l.526-.527 1.098 1.098zm.487-2.719a.987.987 0 00-1.394 0l-.42.42a6.12 6.12 0 01-2.457-2.457l.42-.42a.987.987 0 000-1.394L7.032 4.307a.987.987 0 00-1.394 0l-.906.906c-.52.52-.545 1.412-.073 2.513.41.957 1.16 2.008 2.112 2.96.952.952 2.003 1.702 2.96 2.112.523.224.998.336 1.41.336.454 0 .83-.137 1.102-.41l.906-.906a.98.98 0 00.29-.697.979.979 0 00-.29-.697z" fill="#fff"/></symbol><symbol viewBox="0 0 25 27" id="symbol--window" xmlns="http://www.w3.org/2000/svg"><g fill="currentColor"><path d="M23.208 25.44c0 .267-.178.446-.446.446H2.232c-.268 0-.447-.179-.447-.446v-.447h21.423v.447zM4.463 17.406H20.53v6.695H4.463zm16.067-.893H4.463V4.463H20.53zM2.678 2.678h19.637V24.1h-.892V4.017c0-.268-.179-.447-.446-.447H4.017c-.268 0-.447.179-.447.447V24.1h-.892zM2.232.893h20.53c.267 0 .446.178.446.446s-.179.446-.446.446H2.232a.447.447 0 01-.447-.446.48.48 0 01.447-.446zM24.547 24.1h-1.339V2.606a1.31 1.31 0 00.893-1.267A1.316 1.316 0 0022.76 0H2.232C1.473 0 .893.58.893 1.339c0 .594.383 1.079.892 1.261v21.5H.446c-.267 0-.446.18-.446.447 0 .268.179.446.446.446h.447v.447c0 .758.58 1.338 1.338 1.338h20.53c.76 0 1.34-.58 1.34-1.338v-.447h.446c.268 0 .446-.178.446-.446s-.178-.446-.446-.446z"/><path d="M5.802 7.587a.405.405 0 00.312-.134l1.34-1.339a.431.431 0 000-.624.431.431 0 00-.626 0L5.49 6.829a.431.431 0 000 .624c.089.09.178.134.312.134zM9.06 8.346c.09.09.179.134.312.134a.405.405 0 00.313-.134l2.231-2.232a.431.431 0 000-.624.431.431 0 00-.624 0L9.06 7.72a.432.432 0 000 .625zM5.802 12.05a.405.405 0 00.312-.134l.893-.892a.432.432 0 000-.625.431.431 0 00-.625 0l-.892.893a.431.431 0 000 .624c.089.09.178.134.312.134zM5.802 9.819a.405.405 0 00.312-.134l.893-.893a.432.432 0 000-.625.431.431 0 00-.625 0l-.892.893a.431.431 0 000 .625c.089.09.178.134.312.134zM7.721 7.453c.09.09.179.134.313.134a.405.405 0 00.312-.134l1.339-1.339a.431.431 0 000-.624.431.431 0 00-.625 0L7.721 6.829a.432.432 0 000 .624zM8.034 8.926c-.268 0-.447.179-.447.446 0 .268.179.447.447.447.267 0 .446-.179.446-.447 0-.267-.179-.446-.446-.446z"/></g></symbol></svg>