<svg width="25" height="25" xmlns="http://www.w3.org/2000/svg"><g fill="currentColor"><path d="M.995 1.659l3.898 3.898-.995 1.078a.504.504 0 000 .663.505.505 0 00.664 0L5.64 6.22l2.074 2.073-1.079 1.079a.504.504 0 000 .663.505.505 0 00.664 0l1.078-1.078 2.074 2.073-1.078 1.079a.504.504 0 000 .663.505.505 0 00.663 0l1.079-1.078 2.073 2.073-.995 1.161a.504.504 0 000 .664.505.505 0 00.664 0l1.078-1.078 2.074 2.073-1.079 1.161a.504.504 0 000 .664.505.505 0 00.664 0l1.078-1.078 2.074 2.073-1.078 1.078a.504.504 0 000 .664.505.505 0 00.663 0l1.079-1.079 3.898 3.898H.912V1.658zM.497 25.047h24.055c.166 0 .415-.083.415-.332.083-.166 0-.415-.083-.498L.83.166C.663 0 .497 0 .331 0 .082.083 0 .332 0 .497V24.55c0 .249.248.498.497.498z"/><path d="M5.27 19.859v-7.957l7.958 7.957zm-.162-9.5c-.162-.162-.324-.162-.487-.08-.162.08-.325.243-.325.405v9.662c0 .244.244.487.488.487h9.662c.162 0 .406-.08.406-.324.08-.163 0-.406-.082-.488z"/></g></svg>