<svg width="25" height="25" xmlns="http://www.w3.org/2000/svg"><g><path d="M24.074 13.99c0 .2-.162.362-.361.362h-2.339c-.752 0-1.398.431-1.685 1.126a1.795 1.795 0 00.395 1.988l1.654 1.653a.361.361 0 010 .511l-2.108 2.108a.361.361 0 01-.511 0l-1.653-1.654a1.797 1.797 0 00-1.988-.395 1.796 1.796 0 00-1.126 1.685v2.339c0 .199-.162.361-.361.361h-2.982a.362.362 0 01-.36-.361v-2.339c0-.752-.432-1.398-1.127-1.685a1.799 1.799 0 00-1.988.395l-1.653 1.653a.361.361 0 01-.511 0L3.262 19.63a.361.361 0 010-.511l1.654-1.654a1.796 1.796 0 00.395-1.988 1.796 1.796 0 00-1.685-1.125H1.287a.362.362 0 01-.361-.361v-2.982c0-.199.162-.36.361-.36h2.339c.752 0 1.398-.432 1.685-1.127a1.795 1.795 0 00-.395-1.988L3.262 5.881a.361.361 0 010-.511L5.37 3.262a.361.361 0 01.511 0l1.653 1.653a1.796 1.796 0 001.988.396 1.795 1.795 0 001.126-1.685V1.287c0-.199.162-.361.361-.361h2.981c.2 0 .362.162.362.361v2.339c0 .752.431 1.398 1.126 1.685a1.795 1.795 0 001.988-.395l1.653-1.653a.361.361 0 01.511 0l2.108 2.107a.361.361 0 010 .512l-1.654 1.653a1.796 1.796 0 00-.395 1.988 1.796 1.796 0 001.685 1.126h2.339c.199 0 .361.161.361.36zm-2.7-4.268a.873.873 0 01-.83-.554.874.874 0 01.195-.979l1.654-1.653a1.28 1.28 0 00.376-.91 1.28 1.28 0 00-.376-.91l-2.108-2.109c-.486-.486-1.334-.487-1.821 0L16.81 4.261a.873.873 0 01-.98.195.873.873 0 01-.553-.83V1.287C15.278.577 14.7 0 13.99 0h-2.982c-.71 0-1.287.577-1.287 1.287v2.339a.873.873 0 01-.554.83.872.872 0 01-.979-.195L6.536 2.607c-.487-.487-1.335-.486-1.82 0L2.606 4.715a1.28 1.28 0 00-.376.91c0 .344.133.668.376.911L4.261 8.19a.874.874 0 01.195.98.872.872 0 01-.83.553H1.287C.577 9.722 0 10.3 0 11.01v2.981c0 .71.577 1.288 1.287 1.288h2.339c.376 0 .686.207.83.554a.874.874 0 01-.195.979l-1.654 1.653a1.28 1.28 0 00-.376.91c0 .344.133.667.376.91l2.108 2.109c.487.486 1.334.487 1.821 0l1.653-1.654a.873.873 0 01.98-.195.873.873 0 01.553.83v2.339c0 .71.578 1.287 1.287 1.287h2.981c.71 0 1.287-.577 1.287-1.287v-2.339c0-.376.207-.686.554-.83a.873.873 0 01.98.195l1.652 1.654c.487.487 1.335.486 1.821 0l2.108-2.108a1.28 1.28 0 00.377-.91 1.28 1.28 0 00-.377-.911l-1.654-1.653a.874.874 0 01-.194-.98.873.873 0 01.83-.553h2.339c.71 0 1.287-.578 1.287-1.287v-2.982c0-.71-.577-1.287-1.287-1.287z"/><path d="M12.5 15.663A3.167 3.167 0 019.337 12.5 3.167 3.167 0 0112.5 9.337a3.167 3.167 0 013.163 3.163 3.167 3.167 0 01-3.163 3.163zm0-7.23A4.071 4.071 0 008.433 12.5a4.071 4.071 0 004.067 4.067 4.071 4.071 0 004.067-4.067A4.071 4.071 0 0012.5 8.433z"/></g></svg>