<svg width="36" height="37" xmlns="http://www.w3.org/2000/svg"><g fill="currentColor"><path d="M3.939.494A3.943 3.943 0 000 4.433a.739.739 0 001.477 0A2.464 2.464 0 013.94 1.971a2.464 2.464 0 012.462 2.462 2.465 2.465 0 01-2.462 2.462.739.739 0 000 1.477 3.944 3.944 0 003.939-3.939A3.943 3.943 0 003.939.494z"/><path d="M17.838 6.895a2.464 2.464 0 01-2.461-2.462 2.464 2.464 0 012.461-2.462A2.464 2.464 0 0120.3 4.433a2.464 2.464 0 01-2.462 2.462zm0-6.4A3.943 3.943 0 0013.9 4.432a3.944 3.944 0 003.94 3.939 3.944 3.944 0 003.938-3.939A3.943 3.943 0 0017.838.494z"/><path d="M31.738 1.971A2.465 2.465 0 0134.2 4.433a2.464 2.464 0 01-2.462 2.462 2.464 2.464 0 01-2.462-2.462 2.464 2.464 0 012.462-2.462zm0 6.401a3.943 3.943 0 003.939-3.939 3.943 3.943 0 00-3.94-3.939A3.943 3.943 0 0027.8 4.433a3.943 3.943 0 003.939 3.94z"/><path d="M3.939 20.956a2.465 2.465 0 01-2.462-2.462 2.464 2.464 0 012.462-2.462 2.464 2.464 0 012.462 2.462 2.464 2.464 0 01-2.462 2.462zm0-6.4A3.944 3.944 0 000 18.493a3.944 3.944 0 003.939 3.94 3.944 3.944 0 003.939-3.94 3.944 3.944 0 00-3.939-3.939z"/><path d="M21.039 17.755a.739.739 0 00-.739.74 2.465 2.465 0 01-2.462 2.46 2.465 2.465 0 01-2.461-2.46 2.465 2.465 0 012.461-2.463.739.739 0 000-1.477 3.944 3.944 0 00-3.939 3.94 3.944 3.944 0 003.94 3.938 3.944 3.944 0 003.939-3.939.739.739 0 00-.74-.739z"/><path d="M31.738 20.956a2.464 2.464 0 01-2.462-2.462 2.464 2.464 0 012.462-2.462 2.465 2.465 0 012.462 2.462 2.465 2.465 0 01-2.462 2.462zm0-6.4a3.943 3.943 0 00-3.94 3.938 3.944 3.944 0 003.94 3.94 3.944 3.944 0 003.939-3.94 3.943 3.943 0 00-3.94-3.939z"/><path d="M3.939 35.017a2.465 2.465 0 01-2.462-2.462 2.464 2.464 0 012.462-2.461 2.464 2.464 0 012.462 2.461 2.464 2.464 0 01-2.462 2.462zm0-6.4A3.944 3.944 0 000 32.554a3.943 3.943 0 003.939 3.94 3.943 3.943 0 003.939-3.94 3.944 3.944 0 00-3.939-3.939z"/><path d="M17.838 35.017a2.464 2.464 0 01-2.461-2.462 2.464 2.464 0 012.461-2.461 2.464 2.464 0 012.462 2.461 2.464 2.464 0 01-2.462 2.462zm0-6.4a3.944 3.944 0 00-3.939 3.938 3.943 3.943 0 003.94 3.94 3.943 3.943 0 003.938-3.94 3.944 3.944 0 00-3.939-3.939z"/><path d="M31.738 35.017a2.464 2.464 0 01-2.462-2.462 2.464 2.464 0 012.462-2.461 2.465 2.465 0 012.462 2.461 2.465 2.465 0 01-2.462 2.462zm0-6.4a3.943 3.943 0 00-3.94 3.938 3.943 3.943 0 003.94 3.94 3.943 3.943 0 003.939-3.94 3.943 3.943 0 00-3.94-3.939z"/></g></svg>