<svg width="25" height="23" xmlns="http://www.w3.org/2000/svg"><g fill="currentColor"><path d="M24.854 16.227l-1.211-1.202a.496.496 0 00-.7.705l1.212 1.201a.494.494 0 00.701-.003.496.496 0 00-.002-.701z"/><path d="M22.409 13.831a.496.496 0 00-.702 0l-.001.001a.496.496 0 10.703 0z"/><path d="M13.049 4.638l-1.34-1.342c.152.033.308.05.467.05h.01l1.34-.006a.488.488 0 00-.003-.977h-.002l-1.339.006h-.006c-.33 0-.64-.128-.874-.36a1.233 1.233 0 01-.365-.88V.977h3.343c.628 0 1.234.264 1.662.724l.02.021zm-.128 2.474a.863.863 0 01-1.22 0L9.248 4.658l-.477-.478a.865.865 0 01.61-1.474.86.86 0 01.61.253l2.928 2.932c.163.163.253.38.253.61 0 .231-.09.448-.252.611zm-1.91 1.912a.863.863 0 01-1.22 0L7.338 6.57a.858.858 0 01-.253-.61.86.86 0 011.472-.611l1.118 1.118 1.334 1.336c.163.163.253.38.253.61 0 .231-.09.448-.253.611zM9.1 10.936a.863.863 0 01-1.22 0l-1.32-1.32-.655-.656a.865.865 0 01.61-1.474c.23 0 .447.09.61.253L9.1 9.715c.163.163.253.38.253.61 0 .231-.09.448-.253.611zm-1.91 1.912a.856.856 0 01-.61.253.856.856 0 01-.61-.253l-1.32-1.32a.865.865 0 01.61-1.474c.231 0 .448.09.61.253l1.32 1.32a.865.865 0 010 1.221zm11.077 3.243l4.733-4.738a1.844 1.844 0 000-2.603 1.826 1.826 0 00-.886-.49c.111-.24.17-.504.17-.776a1.83 1.83 0 00-.538-1.302 1.823 1.823 0 00-.988-.512c.21-.639.062-1.37-.445-1.878a1.827 1.827 0 00-.987-.51 1.845 1.845 0 00-.446-1.88 1.826 1.826 0 00-1.3-.539c-.311 0-.611.078-.878.223l-.047-.05A3.254 3.254 0 0014.28 0h-3.83a.488.488 0 00-.489.488v.64c0 .257.044.507.126.741-.22-.091-.459-.14-.705-.14a1.843 1.843 0 00-1.745 2.418 1.827 1.827 0 00-.988.511 1.845 1.845 0 00-.446 1.878c-.372.064-.714.24-.986.512a1.845 1.845 0 00-.368 2.076 1.844 1.844 0 00-.887 3.095l.973.974L.143 17.99a.489.489 0 00.69.69l4.838-4.842c.274.156.585.24.91.24a1.836 1.836 0 001.836-1.915 1.832 1.832 0 001.374-.536 1.83 1.83 0 00.536-1.376 1.83 1.83 0 001.91-1.912l.073.002c.471 0 .942-.18 1.3-.538a1.844 1.844 0 00.122-2.468l3.239-3.242a.856.856 0 01.61-.253c.23 0 .447.09.61.253.163.163.253.38.253.61 0 .231-.09.448-.253.611l-.477.478-1.733 1.735a.489.489 0 00.69.69l1.733-1.734a.863.863 0 111.22 1.221l-.478.478-1.255 1.257a.489.489 0 00.69.69l1.255-1.256a.856.856 0 01.61-.253c.23 0 .447.09.61.253.163.163.253.38.253.61 0 .232-.09.448-.253.611l-.655.657-.6.6a.489.489 0 00.69.69l.6-.6a.863.863 0 011.22 1.222L17.578 15.4a6.606 6.606 0 01-4.448 1.94.488.488 0 00-.328.143L8.43 21.876a.489.489 0 00.691.69l3.216-3.232a4.532 4.532 0 002.754.71l2.517 2.52a.486.486 0 00.69 0c.19-.191.19-.5 0-.691l-2.676-2.68a.488.488 0 00-.385-.14l-.154.012a3.559 3.559 0 01-2.036-.444l.313-.315a7.578 7.578 0 004.908-2.215z"/></g></svg>