<svg width="202" height="202" xmlns="http://www.w3.org/2000/svg"><path d="M128.762 82.625a.956.956 0 00-.402-.353l-11.48-4.97a.97.97 0 00-.105-.855l-1.75-2.61a2.256 2.256 0 00-1.827-.996v-6.378l.47-.352a8.677 8.677 0 003.464-6.528l.016-.65c.208-.03.413-.088.612-.172a2.504 2.504 0 001.465-1.71l1.438-5.753a3.628 3.628 0 00-.92-3.484c.33-1.31.925-2.707 1.992-3.879a.979.979 0 00.252-.605c.035-.664.748-16.143-8.09-17.88-2.124-2.566-6.31-5.103-13.365-4.969-4.035.075-11.804 1.31-15.9 3.432a.974.974 0 00-.099 1.674l.806.546c-7.832 6.672-6.374 16.86-6.304 17.309a.975.975 0 00.274.541c.916.917 1.481 2.53 1.82 4.132a3.609 3.609 0 00-.704 3.164l1.445 5.773a2.502 2.502 0 001.149 1.548c.295.176.615.29.946.334l.027.6a8.655 8.655 0 003.455 6.498l1.355 1.037v5.933a2.257 2.257 0 00-2.728.834L84.33 76.45a.968.968 0 00-.113.831L70.191 83.37c-.015.007-.024.02-.038.027-8.33-7.666-13.554-18.59-13.554-30.7 0-23.138 19.043-41.962 42.45-41.962 23.406 0 42.448 18.824 42.448 41.962 0 11.71-4.883 22.31-12.735 29.929zm-23.457 11.572l-1.19-5.457c.119-.144.216-.307.289-.486a43.494 43.494 0 012.867 2.196c.49.412 1.087.613 1.682.613a2.616 2.616 0 002.388-1.534l4.744-10.444 11.244 4.869a42.522 42.522 0 01-22.024 10.243zm-2.869-9.884l8.858-7.96 1.643-1.478.037-.036h.002a.308.308 0 01.222-.043c.081.012.157.054.206.127l1.447 2.158-5.287 11.642a.67.67 0 01-1.038.233 45.514 45.514 0 00-4.113-3.063v-.604a.976.976 0 00-.975-.976zm-3.388 10.344c-.45 0-.897-.02-1.345-.034l1.32-6.052c.094-.432-.088-.853-.465-1.054a.98.98 0 00.083-.396v-.163c.378-.237.758-.468 1.143-.693h1.537c.383.225.764.455 1.14.692v.164c0 .142.028.273.085.396a.977.977 0 00-.466 1.054l1.28 5.87a43.105 43.105 0 01-4.312.216zm12.198-20.887l-10.694 9.613-9.798-8.808v-6.012l2 1.531a8.748 8.748 0 005.214 1.739h5.174c1.869 0 3.72-.618 5.215-1.739l2.89-2.167zM83.258 52.974l2.567-2.569a.979.979 0 00.279-.818c-.01-.068-.845-6.816 3.382-9.307 3.085-1.824 5.873-1.582 8.82-1.326 1.017.088 2.067.178 3.123.178 4.143 0 7.391-.614 9.753-1.804 2.518 1.898 3.614 6.589 3.794 10.487.03.62.222 1.221.557 1.738l2.092 3.247c.132.203.328.34.548.403l-.867 3.45a.56.56 0 01-.304.31.562.562 0 01-.435.002.973.973 0 00-1.343.88l-.042 1.662a6.717 6.717 0 01-2.685 5.042l-5.311 3.984c-1.163.873-2.605 1.333-4.06 1.348H97.97a6.772 6.772 0 01-4.037-1.342l-3.239-2.48a.962.962 0 00-.875-.67l-1.194-.913a6.71 6.71 0 01-2.683-5.035l-.074-1.616c-.013-.317-.216-.598-.485-.768a1.04 1.04 0 00-.931-.068.563.563 0 01-.689-.412l-.847-3.386a.962.962 0 00.342-.217zm32.39-23.912a4.872 4.872 0 00-.212-.922c4.656 3.025 4.66 12.829 4.613 14.757-1.336 1.584-2.009 3.413-2.342 5.044l-.01.05c-.073.358-.133.71-.176 1.043l-.347-.54a1.553 1.553 0 01-.248-.77c-.12-2.584-.763-8.482-4.007-11.48.328-.264.63-.546.902-.847 1.482-1.645 2.096-3.777 1.827-6.335zm-28.113-3.795l-.456-.31c4.028-1.562 10.114-2.462 13.487-2.524 9.256-.176 12.905 4.628 13.141 6.835.21 1.984-.24 3.606-1.337 4.823-1.845 2.05-5.526 3.09-10.94 3.09-.972 0-1.935-.083-2.955-.171-3.125-.274-6.36-.552-9.981 1.59-4.639 2.734-4.517 8.943-4.375 10.752l-.71.71a23.95 23.95 0 00-.278-1.89c-.008-.031-.009-.063-.02-.095-.355-1.834-.997-3.866-2.18-5.215-.17-1.706-.673-10.65 6.632-16.002a.975.975 0 00-.028-1.593zm9.155 60.022v.605a45.438 45.438 0 00-4.11 3.062.671.671 0 01-1.039-.234l-5.288-11.64 1.443-2.16a.306.306 0 01.423-.087l.032.025.016.015.635.57 1.579 1.42 8.287 7.448h-1.003a.976.976 0 00-.975.976zm-.96 9.227a42.524 42.524 0 01-23.962-9.704l13.24-5.748 4.757 10.468a2.62 2.62 0 002.386 1.531c.595 0 1.193-.201 1.683-.613.922-.774 1.886-1.5 2.87-2.196.07.174.16.342.283.49zm3.318-85.733c-24.483 0-44.4 19.698-44.4 43.913 0 22.967 17.924 41.86 40.662 43.746.652.054 1.31.096 1.97.122a44.51 44.51 0 001.768.045c1.599 0 3.176-.089 4.73-.252.652-.07 1.3-.15 1.944-.245 21.328-3.194 37.727-21.445 37.727-43.416 0-24.215-19.918-43.913-44.4-43.913z" fill="#a9b1f7"/><path d="M165.894 22.444a.977.977 0 01-.75-1.601l9.759-11.71a.977.977 0 011.499 1.251l-9.759 11.71a.972.972 0 01-.75.35z" fill="#a9b1f7"/><path d="M175.653 22.444a.974.974 0 01-.75-.35l-9.759-11.71a.976.976 0 111.499-1.251l9.759 11.71a.975.975 0 01-.749 1.601z" fill="#a9b1f7"/><path d="M201.024 162.966a.976.976 0 01-.976-.976V.976a.976.976 0 111.952 0V161.99c0 .54-.436.976-.976.976z" fill="#fff"/><path d="M15.614 1.952h168.82v198.096H15.615zm170.773 199.072V.976A.975.975 0 00185.41 0H14.638a.976.976 0 00-.976.976v200.048c0 .54.437.976.976.976H185.41c.54 0 .976-.436.976-.976z" fill="#a9b1f7"/><path d="M60.502 123.932a.976.976 0 01-.975-.976V110.27a.975.975 0 111.951 0v12.686c0 .54-.436.976-.976.976z" fill="#d165e9"/><g><path d="M134.179 160.039c4.036 0 7.318 3.282 7.318 7.318v7.807c0 4.036-3.282 7.32-7.318 7.32H63.918c-4.035 0-7.32-3.284-7.32-7.32v-7.807c0-4.036 3.285-7.318 7.32-7.318zm9.27 15.125v-7.807c0-5.111-4.158-9.27-9.27-9.27H63.918c-5.112 0-9.27 4.159-9.27 9.27v7.807c0 5.112 4.158 9.27 9.27 9.27h70.26c5.113 0 9.271-4.158 9.271-9.27z" fill="#d165e9"/></g><g><path d="M146.377 128.812H53.67a.976.976 0 110-1.952h92.706a.975.975 0 110 1.952z" fill="#a9b1f7"/></g><g><path d="M146.377 145.401H53.67a.976.976 0 110-1.952h92.706a.975.975 0 110 1.952z" fill="#a9b1f7"/></g><g><path d="M.976 202a.975.975 0 01-.976-.976v-94.657a.975.975 0 111.952 0v94.657c0 .54-.437.976-.976.976z" fill="#fff"/></g><g><path d="M15.614 1.952h168.82v198.096H15.615zm170.773 199.072V.976A.975.975 0 00185.41 0H14.638a.976.976 0 00-.976.976v200.048c0 .54.437.976.976.976H185.41c.54 0 .976-.436.976-.976z" fill="#a9b1f7"/><path d="M.976 202a.975.975 0 01-.976-.976v-94.657a.975.975 0 111.952 0v94.657c0 .54-.437.976-.976.976z" fill="#fff"/><path d="M201.024 162.966a.976.976 0 01-.976-.976V.976a.976.976 0 111.952 0V161.99c0 .54-.436.976-.976.976z" fill="#fff"/><path d="M146.377 145.401H53.67a.976.976 0 110-1.952h92.706a.975.975 0 110 1.952z" fill="#a9b1f7"/><path d="M146.377 128.812H53.67a.976.976 0 110-1.952h92.706a.975.975 0 110 1.952z" fill="#a9b1f7"/><g><path d="M134.179 160.039c4.036 0 7.318 3.282 7.318 7.318v7.807c0 4.036-3.282 7.32-7.318 7.32H63.918c-4.035 0-7.32-3.284-7.32-7.32v-7.807c0-4.036 3.285-7.318 7.32-7.318zm9.27 15.125v-7.807c0-5.111-4.158-9.27-9.27-9.27H63.918c-5.112 0-9.27 4.159-9.27 9.27v7.807c0 5.112 4.158 9.27 9.27 9.27h70.26c5.113 0 9.271-4.158 9.271-9.27z" fill="#d165e9"/></g><g><path d="M175.653 22.444a.974.974 0 01-.75-.35l-9.759-11.71a.976.976 0 111.499-1.251l9.759 11.71a.975.975 0 01-.749 1.601z" fill="#a9b1f7"/></g><g><path d="M165.894 22.444a.977.977 0 01-.75-1.601l9.759-11.71a.977.977 0 011.499 1.251l-9.759 11.71a.972.972 0 01-.75.35z" fill="#a9b1f7"/></g><g><path d="M128.762 82.625a.956.956 0 00-.402-.353l-11.48-4.97a.97.97 0 00-.105-.855l-1.75-2.61a2.256 2.256 0 00-1.827-.996v-6.378l.47-.352a8.677 8.677 0 003.464-6.528l.016-.65c.208-.03.413-.088.612-.172a2.504 2.504 0 001.465-1.71l1.438-5.753a3.628 3.628 0 00-.92-3.484c.33-1.31.925-2.707 1.992-3.879a.979.979 0 00.252-.605c.035-.664.748-16.143-8.09-17.88-2.124-2.566-6.31-5.103-13.365-4.969-4.035.075-11.804 1.31-15.9 3.432a.974.974 0 00-.099 1.674l.806.546c-7.832 6.672-6.374 16.86-6.304 17.309a.975.975 0 00.274.541c.916.917 1.481 2.53 1.82 4.132a3.609 3.609 0 00-.704 3.164l1.445 5.773a2.502 2.502 0 001.149 1.548c.295.176.615.29.946.334l.027.6a8.655 8.655 0 003.455 6.498l1.355 1.037v5.933a2.257 2.257 0 00-2.728.834L84.33 76.45a.968.968 0 00-.113.831L70.191 83.37c-.015.007-.024.02-.038.027-8.33-7.666-13.554-18.59-13.554-30.7 0-23.138 19.043-41.962 42.45-41.962 23.406 0 42.448 18.824 42.448 41.962 0 11.71-4.883 22.31-12.735 29.929zm-23.457 11.572l-1.19-5.457c.119-.144.216-.307.289-.486a43.494 43.494 0 012.867 2.196c.49.412 1.087.613 1.682.613a2.616 2.616 0 002.388-1.534l4.744-10.444 11.244 4.869a42.522 42.522 0 01-22.024 10.243zm-2.869-9.884l8.858-7.96 1.643-1.478.037-.036h.002a.308.308 0 01.222-.043c.081.012.157.054.206.127l1.447 2.158-5.287 11.642a.67.67 0 01-1.038.233 45.514 45.514 0 00-4.113-3.063v-.604a.976.976 0 00-.975-.976zm-3.388 10.344c-.45 0-.897-.02-1.345-.034l1.32-6.052c.094-.432-.088-.853-.465-1.054a.98.98 0 00.083-.396v-.163c.378-.237.758-.468 1.143-.693h1.537c.383.225.764.455 1.14.692v.164c0 .142.028.273.085.396a.977.977 0 00-.466 1.054l1.28 5.87a43.105 43.105 0 01-4.312.216zm12.198-20.887l-10.694 9.613-9.798-8.808v-6.012l2 1.531a8.748 8.748 0 005.214 1.739h5.174c1.869 0 3.72-.618 5.215-1.739l2.89-2.167zM83.258 52.974l2.567-2.569a.979.979 0 00.279-.818c-.01-.068-.845-6.816 3.382-9.307 3.085-1.824 5.873-1.582 8.82-1.326 1.017.088 2.067.178 3.123.178 4.143 0 7.391-.614 9.753-1.804 2.518 1.898 3.614 6.589 3.794 10.487.03.62.222 1.221.557 1.738l2.092 3.247c.132.203.328.34.548.403l-.867 3.45a.56.56 0 01-.304.31.562.562 0 01-.435.002.973.973 0 00-1.343.88l-.042 1.662a6.717 6.717 0 01-2.685 5.042l-5.311 3.984c-1.163.873-2.605 1.333-4.06 1.348H97.97a6.772 6.772 0 01-4.037-1.342l-3.239-2.48a.962.962 0 00-.875-.67l-1.194-.913a6.71 6.71 0 01-2.683-5.035l-.074-1.616c-.013-.317-.216-.598-.485-.768a1.04 1.04 0 00-.931-.068.563.563 0 01-.689-.412l-.847-3.386a.962.962 0 00.342-.217zm32.39-23.912a4.872 4.872 0 00-.212-.922c4.656 3.025 4.66 12.829 4.613 14.757-1.336 1.584-2.009 3.413-2.342 5.044l-.01.05c-.073.358-.133.71-.176 1.043l-.347-.54a1.553 1.553 0 01-.248-.77c-.12-2.584-.763-8.482-4.007-11.48.328-.264.63-.546.902-.847 1.482-1.645 2.096-3.777 1.827-6.335zm-28.113-3.795l-.456-.31c4.028-1.562 10.114-2.462 13.487-2.524 9.256-.176 12.905 4.628 13.141 6.835.21 1.984-.24 3.606-1.337 4.823-1.845 2.05-5.526 3.09-10.94 3.09-.972 0-1.935-.083-2.955-.171-3.125-.274-6.36-.552-9.981 1.59-4.639 2.734-4.517 8.943-4.375 10.752l-.71.71a23.95 23.95 0 00-.278-1.89c-.008-.031-.009-.063-.02-.095-.355-1.834-.997-3.866-2.18-5.215-.17-1.706-.673-10.65 6.632-16.002a.975.975 0 00-.028-1.593zm9.155 60.022v.605a45.438 45.438 0 00-4.11 3.062.671.671 0 01-1.039-.234l-5.288-11.64 1.443-2.16a.306.306 0 01.423-.087l.032.025.016.015.635.57 1.579 1.42 8.287 7.448h-1.003a.976.976 0 00-.975.976zm-.96 9.227a42.524 42.524 0 01-23.962-9.704l13.24-5.748 4.757 10.468a2.62 2.62 0 002.386 1.531c.595 0 1.193-.201 1.683-.613.922-.774 1.886-1.5 2.87-2.196.07.174.16.342.283.49zm3.318-85.733c-24.483 0-44.4 19.698-44.4 43.913 0 22.967 17.924 41.86 40.662 43.746.652.054 1.31.096 1.97.122a44.51 44.51 0 001.768.045c1.599 0 3.176-.089 4.73-.252.652-.07 1.3-.15 1.944-.245 21.328-3.194 37.727-21.445 37.727-43.416 0-24.215-19.918-43.913-44.4-43.913z" fill="#a9b1f7"/></g><g><path d="M60.502 123.932a.976.976 0 01-.975-.976V110.27a.975.975 0 111.951 0v12.686c0 .54-.436.976-.976.976z" fill="#d165e9"/></g></g></svg>