<svg width="20" height="16" xmlns="http://www.w3.org/2000/svg"><path d="M18.225 13.96a.297.297 0 01-.297.297H1.891a.297.297 0 01-.297-.297V2.08c0-.163.133-.296.297-.296h16.037c.164 0 .297.133.297.297zm-.297-12.77H1.891A.891.891 0 001 2.08v11.88c0 .492.399.891.891.891h16.037a.891.891 0 00.891-.89V2.08a.891.891 0 00-.89-.891z" fill="#fff"/><path d="M18.225 13.96a.297.297 0 01-.297.297H1.891a.297.297 0 01-.297-.297V2.08c0-.163.133-.296.297-.296h16.037c.164 0 .297.133.297.297zm-.297-12.77H1.891A.891.891 0 001 2.08v11.88c0 .492.399.891.891.891h16.037a.891.891 0 00.891-.89V2.08a.891.891 0 00-.89-.891z" fill="none" stroke="#fff" stroke-miterlimit="50" stroke-width=".3"/><path d="M17.367 2.372a.298.298 0 00-.217.068l-6.858 5.724a.597.597 0 01-.765 0L2.67 2.44a.299.299 0 00-.484.175c-.019.104.02.21.101.278l6.858 5.723c.442.37 1.087.37 1.53 0l6.857-5.723a.295.295 0 00-.165-.52z" fill="#fff"/><path d="M17.367 2.372a.298.298 0 00-.217.068l-6.858 5.724a.597.597 0 01-.765 0L2.67 2.44a.299.299 0 00-.484.175c-.019.104.02.21.101.278l6.858 5.723c.442.37 1.087.37 1.53 0l6.857-5.723a.295.295 0 00-.165-.52z" fill="none" stroke="#fff" stroke-miterlimit="50" stroke-width=".3"/><g><path d="M6.68 8.651a.295.295 0 00-.284.092l-4.135 4.43a.295.295 0 10.432.403l4.134-4.43a.295.295 0 00-.147-.495z" fill="#fff"/><path d="M6.68 8.651a.295.295 0 00-.284.092l-4.135 4.43a.295.295 0 10.432.403l4.134-4.43a.295.295 0 00-.147-.495z" fill="none" stroke="#fff" stroke-miterlimit="50" stroke-width=".3"/></g><g><path d="M13.424 8.743a.295.295 0 10-.432.403l4.135 4.43a.295.295 0 00.432-.403z" fill="#fff"/><path d="M13.424 8.743a.295.295 0 10-.432.403l4.135 4.43a.295.295 0 00.432-.403z" fill="none" stroke="#fff" stroke-miterlimit="50" stroke-width=".3"/></g></svg>