<svg width="25" height="23" xmlns="http://www.w3.org/2000/svg"><path d="M24.304 12.84c0 .153-.153.229-.23.229H16.89c-.152 0-.229-.076-.229-.23v-.229c0-.152.153-.229.23-.229h7.184c.152 0 .229.153.229.23zm-3.669 2.98c-1.223 0-2.369-.84-2.675-1.987h5.427c-.459 1.147-1.529 1.987-2.752 1.987zm-.382-9.17h.459l2.369 4.967h-5.197zm.23-1.988c.305 0 .61.306.61.611a.603.603 0 01-.61.612c-.306 0-.612-.306-.612-.612 0-.305.23-.611.611-.611zM12.151.841c0-.077.076-.077.153-.077h.458c.077 0 .153.077.153.153v.84a1.06 1.06 0 00-.688 0V.842zm.382 3.668c-.611 0-1.07-.458-1.07-1.07 0-.611.459-1.07 1.07-1.07 1.07 0 1.452 1.452.535 1.987-.23.153-.382.153-.535.153zm2.751 15.438c.153 0 .23.153.23.23v.458H9.477v-.458c0-.153.153-.23.23-.23zm-8.1-8.33H1.986l2.37-4.968h.458zm1.222.917v.23c0 .152-.153.229-.23.229H.995c-.153 0-.23-.077-.23-.23v-.229c0-.153.153-.23.23-.23h7.184c.153 0 .229.154.229.23zM4.433 15.82c-1.223 0-2.37-.84-2.675-1.987h5.426a2.893 2.893 0 01-2.751 1.987zm.153-11.158c.305 0 .611.306.611.611a.603.603 0 01-.611.612.603.603 0 01-.612-.612c0-.305.306-.61.612-.61zm19.489 6.955h-.23l-2.522-5.274c.306-.229.459-.611.459-.993a1.37 1.37 0 00-1.376-1.376c-.611 0-1.07.382-1.3.84-.305-.076-.764-.152-1.146-.228l-3.592-.994c0-.611-.229-1.146-.688-1.528V.84A.848.848 0 0012.84 0h-.459a.848.848 0 00-.84.84v1.147c-.46.382-.765.917-.688 1.529l-3.745 1.07c-.382.076-.841.152-1.223.229-.23-.535-.688-.917-1.3-.917A1.37 1.37 0 003.21 5.273c0 .383.153.765.458.994l-2.522 5.274H.994c-.535 0-.994.458-.994.993v.23c0 .534.459.993.994.993.382 1.605 1.757 2.751 3.439 2.751 1.681 0 3.057-1.146 3.439-2.751h.306c.535 0 .993-.459.993-.994v-.229c0-.535-.458-.993-.993-.993h-.23L5.503 6.267c.229-.23.382-.459.458-.764.459 0 .917-.153 1.376-.23l3.592-.993c.153.23.306.459.535.611v14.292H9.783c-.535 0-.994.459-.994.994v.535a.994.994 0 00-.84.993v.23c0 .535.458.993.993.993h2.751c.23 0 .382-.153.382-.382 0-.23-.152-.382-.382-.382H8.942c-.153 0-.23-.077-.23-.23v-.229c0-.153.077-.229.23-.229h7.184c.153 0 .23.076.23.23v.229c0 .152-.077.229-.23.229h-2.751c-.23 0-.382.153-.382.382 0 .23.152.382.382.382h2.751c.535 0 .994-.458.994-.993v-.23c0-.458-.382-.917-.841-.993v-.535c0-.535-.459-.994-.994-.994h-1.681v-5.655c0-.23-.153-.383-.382-.383-.23 0-.382.153-.382.383v5.655h-.688V5.197c.23.076.458.076.688 0v6.573c0 .23.153.382.382.382.23 0 .382-.153.382-.382V4.89c.23-.152.382-.382.535-.611l3.592.993c.459.077.917.23 1.376.23.076.305.23.535.458.764l-2.522 5.274h-.229c-.535 0-.994.458-.994.993v.23c0 .534.459.993.994.993h.306c.382 1.605 1.757 2.751 3.439 2.751 1.681 0 3.057-1.146 3.44-2.751.534 0 .993-.459.993-.994v-.229c.076-.535-.382-.917-.917-.917z" fill="currentColor"/></svg>