<svg width="15" height="14" xmlns="http://www.w3.org/2000/svg"><path d="M1.64 8.535V3.543c0-.97.79-1.76 1.76-1.76h8.2c.97 0 1.76.79 1.76 1.76v4.992c0 .97-.79 1.76-1.76 1.76H5.806a.32.32 0 00-.226.094l-1.593 1.593v-1.366a.32.32 0 00-.32-.32H3.4c-.971 0-1.76-.79-1.76-1.76zM1 3.543v4.992a2.403 2.403 0 002.347 2.4v1.82a.32.32 0 00.547.226l2.045-2.045h5.66c1.324 0 2.401-1.077 2.401-2.4V3.542c0-1.323-1.077-2.4-2.4-2.4H3.4a2.403 2.403 0 00-2.4 2.4z" fill="#fff"/><path d="M1.64 8.535V3.543c0-.97.79-1.76 1.76-1.76h8.2c.97 0 1.76.79 1.76 1.76v4.992c0 .97-.79 1.76-1.76 1.76H5.806a.32.32 0 00-.226.094l-1.593 1.593v-1.366a.32.32 0 00-.32-.32H3.4c-.971 0-1.76-.79-1.76-1.76zM1 3.543v4.992a2.403 2.403 0 002.347 2.4v1.82a.32.32 0 00.547.226l2.045-2.045h5.66c1.324 0 2.401-1.077 2.401-2.4V3.542c0-1.323-1.077-2.4-2.4-2.4H3.4a2.403 2.403 0 00-2.4 2.4z" fill="none" stroke="#fff" stroke-miterlimit="50" stroke-width=".2"/><path d="M10.503 5.346a.716.716 0 110 1.432.716.716 0 010-1.432z" fill="#fff"/><path d="M10.503 5.346a.716.716 0 110 1.432.716.716 0 010-1.432z" fill="none" stroke="#fff" stroke-miterlimit="50" stroke-width=".2"/><g><path d="M7.5 5.346a.716.716 0 110 1.432.716.716 0 010-1.432z" fill="#fff"/><path d="M7.5 5.346a.716.716 0 110 1.432.716.716 0 010-1.432z" fill="none" stroke="#fff" stroke-miterlimit="50" stroke-width=".2"/></g><g><path d="M4.497 5.346a.716.716 0 110 1.432.716.716 0 010-1.432z" fill="#fff"/><path d="M4.497 5.346a.716.716 0 110 1.432.716.716 0 010-1.432z" fill="none" stroke="#fff" stroke-miterlimit="50" stroke-width=".2"/></g></svg>