<?xml version="1.0" encoding="utf-8"?>
<!-- Generator: Adobe Illustrator 21.1.0, SVG Export Plug-In . SVG Version: 6.00 Build 0)  -->
<svg version="1.1" id="Слой_1" xmlns="http://www.w3.org/2000/svg" xmlns:xlink="http://www.w3.org/1999/xlink" x="0px" y="0px"
	 viewBox="0 0 32 32" style="enable-background:new 0 0 32 32;" xml:space="preserve">
<style type="text/css">
	.st0{filter:url(#Adobe_OpacityMaskFilter);}
	.st1{clip-path:url(#SVGID_2_);}
	.st2{enable-background:new    ;}
	.st3{clip-path:url(#SVGID_2_);fill:#FFFFFF;}
	.st4{clip-path:url(#SVGID_2_);mask:url(#SVGID_3_);}
	.st5{clip-path:url(#SVGID_5_);}
	.st6{clip-path:url(#SVGID_7_);fill:#161616;}
	.st7{clip-path:url(#SVGID_9_);}
	.st8{clip-path:url(#SVGID_15_);}
	.st9{clip-path:url(#SVGID_19_);}
	.st10{opacity:0.45;clip-path:url(#SVGID_25_);}
	.st11{clip-path:url(#SVGID_27_);}
</style>
<title>instagram_bl</title>
<g>
	<defs>
		<path id="SVGID_1_" d="M11.8,15.9c0-2.3,1.9-4.2,4.2-4.2c2.3,0,4.2,1.9,4.2,4.2c0,2.3-1.9,4.2-4.2,4.2
			C13.7,20.1,11.8,18.2,11.8,15.9 M9.6,15.9c0,3.5,2.9,6.4,6.4,6.4c3.5,0,6.4-2.9,6.4-6.4S19.5,9.5,16,9.5
			C12.5,9.5,9.6,12.4,9.6,15.9 M21.2,9.2c0,0.8,0.7,1.5,1.5,1.5c0.8,0,1.5-0.7,1.5-1.5c0-0.8-0.7-1.5-1.5-1.5
			C21.8,7.7,21.2,8.4,21.2,9.2 M10.9,26.1c-1.2-0.1-1.9-0.3-2.3-0.4c-0.6-0.2-1-0.5-1.4-0.9c-0.4-0.4-0.7-0.9-0.9-1.4
			c-0.2-0.4-0.4-1.1-0.4-2.3c-0.1-1.3-0.1-1.7-0.1-5.1c0-3.3,0-3.7,0.1-5.1C5.9,9.6,6.1,9,6.3,8.5c0.2-0.6,0.5-1,0.9-1.4
			C7.6,6.7,8,6.4,8.6,6.2C9.1,6,9.7,5.8,10.9,5.7c1.3-0.1,1.7-0.1,5.1-0.1c3.3,0,3.7,0,5.1,0.1c1.2,0.1,1.9,0.3,2.3,0.4
			c0.6,0.2,1,0.5,1.4,0.9c0.4,0.4,0.7,0.9,0.9,1.4c0.2,0.4,0.4,1.1,0.4,2.3c0.1,1.3,0.1,1.7,0.1,5.1c0,3.3,0,3.7-0.1,5.1
			c-0.1,1.2-0.3,1.9-0.4,2.3c-0.2,0.6-0.5,1-0.9,1.4c-0.4,0.4-0.9,0.7-1.4,0.9c-0.4,0.2-1.1,0.4-2.3,0.4c-1.3,0.1-1.7,0.1-5.1,0.1
			C12.7,26.2,12.3,26.2,10.9,26.1 M10.8,3.5c-1.3,0.1-2.2,0.3-3,0.6C7,4.4,6.3,4.8,5.6,5.5C4.9,6.2,4.5,6.9,4.2,7.7
			c-0.3,0.8-0.5,1.7-0.6,3c-0.1,1.3-0.1,1.8-0.1,5.2s0,3.8,0.1,5.2c0.1,1.3,0.3,2.2,0.6,3c0.3,0.8,0.7,1.5,1.4,2.2
			C6.3,27,7,27.4,7.8,27.8c0.8,0.3,1.7,0.5,3,0.6c1.3,0.1,1.8,0.1,5.2,0.1c3.4,0,3.8,0,5.2-0.1c1.3-0.1,2.2-0.3,3-0.6
			c0.8-0.3,1.5-0.7,2.2-1.4c0.7-0.7,1.1-1.4,1.4-2.2c0.3-0.8,0.5-1.7,0.6-3c0.1-1.3,0.1-1.8,0.1-5.2s0-3.8-0.1-5.2
			c-0.1-1.3-0.3-2.2-0.6-3c-0.3-0.8-0.7-1.5-1.4-2.2c-0.7-0.7-1.4-1.1-2.2-1.4c-0.8-0.3-1.7-0.5-3-0.6c-1.3-0.1-1.8-0.1-5.2-0.1
			C12.6,3.4,12.2,3.4,10.8,3.5"/>
	</defs>
	<use xlink:href="#SVGID_1_"  style="overflow:visible;fill:#161616;"/>
	<clipPath id="SVGID_2_">
		<use xlink:href="#SVGID_1_"  style="overflow:visible;"/>
	</clipPath>
	<defs>
		<filter id="Adobe_OpacityMaskFilter" filterUnits="userSpaceOnUse" x="-56.7" y="-56.8" width="145.5" height="145.5">
			<feColorMatrix  type="matrix" values="1 0 0 0 0  0 1 0 0 0  0 0 1 0 0  0 0 0 1 0"/>
		</filter>
	</defs>
	<mask maskUnits="userSpaceOnUse" x="-56.7" y="-56.8" width="145.5" height="145.5" id="SVGID_3_">
		<g class="st0">
			<rect x="-56.7" y="-56.8" class="st1" width="145.5" height="145.5"/>
			<g class="st2">
				<rect x="-1" y="-1.1" class="st3" width="34.1" height="34.1"/>
			</g>
		</g>
	</mask>
	<g class="st4">
		<g>
			<defs>
				<rect id="SVGID_4_" x="-56.7" y="-56.8" width="145.5" height="145.5"/>
			</defs>
			<use xlink:href="#SVGID_4_"  style="overflow:visible;fill:#161616;"/>
			<clipPath id="SVGID_5_">
				<use xlink:href="#SVGID_4_"  style="overflow:visible;"/>
			</clipPath>
			<g class="st5">
				<defs>
					<rect id="SVGID_6_" x="-56.7" y="-56.8" width="145.5" height="145.5"/>
				</defs>
				<use xlink:href="#SVGID_6_"  style="overflow:visible;fill:#161616;"/>
				<clipPath id="SVGID_7_">
					<use xlink:href="#SVGID_6_"  style="overflow:visible;"/>
				</clipPath>
				<rect x="-56.7" y="-56.8" class="st6" width="145.5" height="145.5"/>
			</g>
			<g class="st5">
				<defs>
					<rect id="SVGID_8_" x="-34.8" y="-32.9" width="123.6" height="108.8"/>
				</defs>
				<use xlink:href="#SVGID_8_"  style="overflow:visible;fill:#161616;"/>
				<clipPath id="SVGID_9_">
					<use xlink:href="#SVGID_8_"  style="overflow:visible;"/>
				</clipPath>
				<g class="st7">
					<defs>
						<rect id="SVGID_10_" x="-34.8" y="-32.9" width="123.6" height="108.8"/>
					</defs>
					<use xlink:href="#SVGID_10_"  style="overflow:visible;fill:#161616;"/>
					<clipPath id="SVGID_11_">
						<use xlink:href="#SVGID_10_"  style="overflow:visible;"/>
					</clipPath>
					<g style="clip-path:url(#SVGID_11_);">
						
							<image style="overflow:visible;" width="435" height="383" xlink:href="F5D574AA.png"  transform="matrix(0.2841 0 0 0.2841 -34.7812 -32.9469)">
						</image>
					</g>
				</g>
			</g>
			<g class="st5">
				<defs>
					<rect id="SVGID_12_" x="-47.3" y="-27" width="119" height="114.8"/>
				</defs>
				<use xlink:href="#SVGID_12_"  style="overflow:visible;fill:#161616;"/>
				<clipPath id="SVGID_13_">
					<use xlink:href="#SVGID_12_"  style="overflow:visible;"/>
				</clipPath>
				<g style="clip-path:url(#SVGID_13_);">
					
						<image style="overflow:visible;" width="419" height="404" xlink:href="F5D574AE.png"  transform="matrix(0.2841 0 0 0.2841 -47.2812 -26.981)">
					</image>
				</g>
			</g>
			<g class="st5">
				<defs>
					<rect id="SVGID_14_" x="-32.8" y="-5.1" width="81.2" height="81.2"/>
				</defs>
				<use xlink:href="#SVGID_14_"  style="overflow:visible;fill:#161616;"/>
				<clipPath id="SVGID_15_">
					<use xlink:href="#SVGID_14_"  style="overflow:visible;"/>
				</clipPath>
				<g class="st8">
					<defs>
						<rect id="SVGID_16_" x="-32.8" y="-5.1" width="81.2" height="81.2"/>
					</defs>
					<use xlink:href="#SVGID_16_"  style="overflow:visible;fill:#161616;"/>
					<clipPath id="SVGID_17_">
						<use xlink:href="#SVGID_16_"  style="overflow:visible;"/>
					</clipPath>
					<g style="clip-path:url(#SVGID_17_);">
						
							<image style="overflow:visible;" width="286" height="286" xlink:href="F5D574A9.png"  transform="matrix(0.2841 0 0 0.2841 -32.7926 -5.106)">
						</image>
					</g>
				</g>
			</g>
			<g class="st5">
				<defs>
					<rect id="SVGID_18_" x="-21.4" y="8.2" width="65.6" height="65.6"/>
				</defs>
				<use xlink:href="#SVGID_18_"  style="overflow:visible;fill:#161616;"/>
				<clipPath id="SVGID_19_">
					<use xlink:href="#SVGID_18_"  style="overflow:visible;"/>
				</clipPath>
				<g class="st9">
					<defs>
						<rect id="SVGID_20_" x="-21.4" y="8.2" width="65.6" height="65.6"/>
					</defs>
					<use xlink:href="#SVGID_20_"  style="overflow:visible;fill:#161616;"/>
					<clipPath id="SVGID_21_">
						<use xlink:href="#SVGID_20_"  style="overflow:visible;"/>
					</clipPath>
					<g transform="matrix(1 0 0 1 1.907349e-06 0)" style="clip-path:url(#SVGID_21_);">
						
							<image style="overflow:visible;" width="231" height="231" xlink:href="F5D574AB.png"  transform="matrix(0.2841 0 0 0.2841 -21.4289 8.2462)">
						</image>
					</g>
				</g>
			</g>
			<g class="st5">
				<defs>
					<rect id="SVGID_22_" x="-25.7" y="12.5" width="64.8" height="62.8"/>
				</defs>
				<use xlink:href="#SVGID_22_"  style="overflow:visible;fill:#161616;"/>
				<clipPath id="SVGID_23_">
					<use xlink:href="#SVGID_22_"  style="overflow:visible;"/>
				</clipPath>
				<g style="clip-path:url(#SVGID_23_);">
					
						<image style="overflow:visible;" width="228" height="221" xlink:href="F5D574A8.png"  transform="matrix(0.2841 0 0 0.2841 -25.6903 12.5076)">
					</image>
				</g>
			</g>
			<g class="st5">
				<defs>
					<rect id="SVGID_24_" x="-56.7" y="-56.8" width="145.5" height="145.5"/>
				</defs>
				<use xlink:href="#SVGID_24_"  style="overflow:visible;fill:#161616;"/>
				<clipPath id="SVGID_25_">
					<use xlink:href="#SVGID_24_"  style="overflow:visible;"/>
				</clipPath>
				<g class="st10">
					<g>
						<defs>
							<rect id="SVGID_26_" x="-54.7" y="-40.3" width="115.9" height="59.7"/>
						</defs>
						<use xlink:href="#SVGID_26_"  style="overflow:visible;fill:#161616;"/>
						<clipPath id="SVGID_27_">
							<use xlink:href="#SVGID_26_"  style="overflow:visible;"/>
						</clipPath>
						<g class="st11">
							<defs>
								<rect id="SVGID_28_" x="-54.7" y="-40.3" width="115.9" height="59.7"/>
							</defs>
							<use xlink:href="#SVGID_28_"  style="overflow:visible;fill:#161616;"/>
							<clipPath id="SVGID_29_">
								<use xlink:href="#SVGID_28_"  style="overflow:visible;"/>
							</clipPath>
							<g style="clip-path:url(#SVGID_29_);">
								
									<image style="overflow:visible;" width="408" height="210" xlink:href="F5D574B6.png"  transform="matrix(0.2841 0 0 0.2841 -54.6675 -40.3333)">
								</image>
							</g>
						</g>
					</g>
				</g>
			</g>
		</g>
	</g>
</g>
</svg>
