<svg xmlns="http://www.w3.org/2000/svg" viewBox="0 0 32 32"><title>skype_bl</title><path d="M28.53,19.13a.88.88,0,0,1,0-.55,12.32,12.32,0,0,0,0-4.49A12.53,12.53,0,0,0,14.58,3.75a1.72,1.72,0,0,1-1-.18,7.25,7.25,0,0,0-9.89,9.69,1.26,1.26,0,0,1,.14.9,13.05,13.05,0,0,0-.18,2.08v1.19A12.53,12.53,0,0,0,17.32,28.65h.09l.71-.1a.93.93,0,0,1,.61.1,6.89,6.89,0,0,0,4.24.62,7.23,7.23,0,0,0,5.65-10.14ZM22.3,22.48a6.09,6.09,0,0,1-3,1.82,11.3,11.3,0,0,1-6.47,0,5.44,5.44,0,0,1-3.93-3.81,1.77,1.77,0,0,1,3.25-1.41c.18.32.32.65.49,1a3.11,3.11,0,0,0,2.6,1.85,5.38,5.38,0,0,0,2.83-.38,2.66,2.66,0,0,0,.93-.68,1.72,1.72,0,0,0-.13-2.43l-.14-.11a6.89,6.89,0,0,0-2.83-1,20.91,20.91,0,0,1-4-1.17,4.31,4.31,0,0,1-2.83-3,4.05,4.05,0,0,1,1.74-4.27,7.49,7.49,0,0,1,4.24-1.5H16a8.28,8.28,0,0,1,4.07.79,4.69,4.69,0,0,1,2.33,2.12,2.26,2.26,0,0,1,.18,1.57,1.72,1.72,0,0,1-1.3,1.23,1.58,1.58,0,0,1-1.85-.61c-.21-.31-.41-.62-.61-.95A2.9,2.9,0,0,0,16.16,10a7.06,7.06,0,0,0-1.72.13,2.83,2.83,0,0,0-1.3.65,1.24,1.24,0,0,0,0,2,4.08,4.08,0,0,0,1.57.71l4,1a10.67,10.67,0,0,1,2.08.81,4.58,4.58,0,0,1,1.5,7.16Z" style="fill:#fff"/></svg>