<?xml version="1.0" encoding="utf-8"?>
<!-- Generator: Adobe Illustrator 21.1.0, SVG Export Plug-In . SVG Version: 6.00 Build 0)  -->
<svg version="1.1" id="Слой_1" xmlns="http://www.w3.org/2000/svg" xmlns:xlink="http://www.w3.org/1999/xlink" x="0px" y="0px"
	 viewBox="0 0 32 32" style="enable-background:new 0 0 32 32;" xml:space="preserve">
<style type="text/css">
	.st0{fill:#161616;}
</style>
<title>viber_bl</title>
<path class="st0" d="M25.7,5c-0.6-0.6-3.4-2.4-9.3-2.4c0,0-6.9-0.5-10.2,2.5c-1.9,2-2.5,4.7-2.7,7.9v1.7c0,3.4,0.6,8.2,5.7,9.6v5.2
	c0,0.4,0,0.5,0.2,0.6s0.4,0,0.5-0.1c1.1-0.9,4.1-4.7,4.1-4.7c2.7,0.1,5.4-0.1,8-0.7c0.8-0.3,5.5-0.6,6.2-6.9C29,11.3,28,6.9,25.7,5z
	 M23.3,20.3c-0.3,0.5-0.8,1.1-1.3,1.5c-0.3,0.3-0.7,0.5-1.2,0.6h-0.1c-0.2,0-0.3,0-0.5-0.1c-1.2-0.4-2.3-0.9-3.3-1.5
	c-1-0.6-1.9-1.2-2.8-1.9c-0.5-0.4-0.8-0.7-1.3-1.1c-0.5-0.5-1-1-1.4-1.6c-0.7-0.9-1.3-1.8-1.8-2.8c-0.6-1-1.2-2.2-1.6-3.3
	C8,10,7.9,9.7,7.9,9.6V9.5C8,9,8.2,8.6,8.5,8.3c0.5-0.4,0.9-0.8,1.4-1.2c0.2-0.1,0.4-0.2,0.6-0.2c0.3,0,0.6,0.1,0.9,0.4
	c0.3,0.5,0.7,0.9,1.1,1.3c0.3,0.3,0.6,1,1,1.4c0.3,0.5,0.2,1.3-0.3,1.7l-0.7,0.6c-0.2,0.2-0.4,0.5-0.3,0.8c0.8,2.4,2.7,4.2,5.1,5
	c0.3,0,0.6-0.1,0.8-0.4l0.6-0.7c0.4-0.5,1.1-0.6,1.7-0.2c0.5,0.3,1,0.6,1.4,1c0.3,0.3,1.3,1,1.3,1C23.4,19.2,23.5,19.8,23.3,20.3z
	 M16.6,8.4c-0.1,0-0.1,0-0.1-0.1c0-0.1,0-0.1,0.1-0.1c0.7,0,1.5,0.2,2.1,0.5c0.6,0.3,1.2,0.7,1.7,1.2c0.5,0.4,0.8,1,1,1.7
	c0.2,0.6,0.4,1.3,0.3,2v0.1c-0.2,0.1-0.3,0.1-0.3,0c0-1.3-0.5-2.6-1.3-3.6C19.2,9,17.9,8.5,16.6,8.4z M19.6,12.8L19.5,13h-0.1
	c0.1-1.2-0.8-2.3-2-2.4h-0.2c-0.1,0-0.1,0-0.1-0.1c0-0.1,0-0.1,0.1-0.1c0.7,0,1.3,0.3,1.7,0.7S19.6,12.1,19.6,12.8z M23.6,14.4
	c0-2.2-0.8-4.3-2.3-5.9C19.9,7.2,18,6.4,16,6.4c-0.1,0-0.1,0-0.1-0.1s0-0.1,0.1-0.1c1,0,2,0.2,3,0.6c0.9,0.4,1.8,0.9,2.5,1.6
	c0.7,0.7,1.3,1.6,1.6,2.6c0.4,1.1,0.6,2.2,0.6,3.3L23.6,14.4z"/>
</svg>
