<svg xmlns="http://www.w3.org/2000/svg" xmlns:xlink="http://www.w3.org/1999/xlink" viewBox="0 0 32 32"><defs><linearGradient id="a" x1="-563.45" y1="177.58" x2="-563.45" y2="192.33" gradientTransform="matrix(2.04, 0, 0, -2.04, 1165.53, 393.12)" gradientUnits="userSpaceOnUse"><stop offset="0" stop-color="#20b038"/><stop offset="1" stop-color="#60d66a"/></linearGradient></defs><title>whatsapp_rgb</title><path d="M27.18,4.82A15.63,15.63,0,0,0,2.58,23.66L.37,31.76l8.28-2.17a15.62,15.62,0,0,0,7.47,1.9h0A15.63,15.63,0,0,0,27.18,4.82Zm-11.06,24h0A13,13,0,0,1,9.51,27L9,26.77,4.12,28.05,5.43,23.2l-.35-.44a13,13,0,1,1,24-6.9h0A13,13,0,0,1,16.12,28.85Z" style="fill:#a0a0a0"/><path d="M1.09,30.86,3.2,23.14A14.91,14.91,0,1,1,31.08,15.7h0a14.94,14.94,0,0,1-15,14.85h0A14.91,14.91,0,0,1,9,28.73Z" style="fill:url(#a)"/><path d="M12.26,9.22c-.29-.64-.59-.65-.87-.67h-.74a1.42,1.42,0,0,0-1,.48,4.33,4.33,0,0,0-1.35,3.21,7.48,7.48,0,0,0,1.58,4c.19.25,2.67,4.28,6.6,5.83,3.26,1.29,3.92,1,4.63,1a3.89,3.89,0,0,0,2.61-1.83,3.21,3.21,0,0,0,.23-1.83c-.1-.16-.35-.25-.74-.45s-2.28-1.13-2.63-1.21-.61-.19-.87.19-1,1.21-1.21,1.52-.45.29-.84.1a10.55,10.55,0,0,1-3.1-1.92,11.64,11.64,0,0,1-2.17-2.74c-.23-.39,0-.59.17-.79l.58-.68a2.64,2.64,0,0,0,.39-.64.72.72,0,0,0,0-.68c-.1-.19-.85-2.1-1.21-2.86Z" style="fill:#fff"/><path d="M27,4.77A15.45,15.45,0,0,0,2.74,23.4l-2.19,8,8.17-2.15a15.43,15.43,0,0,0,7.38,1.88h0A15.45,15.45,0,0,0,27,4.76ZM16.13,28.54h0A12.83,12.83,0,0,1,9.6,26.74l-.47-.28L4.27,27.74,5.57,23l-.3-.48A12.84,12.84,0,1,1,29,15.7h0A12.85,12.85,0,0,1,16.12,28.52Z" style="fill:#fff"/></svg>