<?xml version="1.0" encoding="utf-8"?>
<!-- Generator: Adobe Illustrator 21.1.0, SVG Export Plug-In . SVG Version: 6.00 Build 0)  -->
<svg version="1.1" id="Слой_1" xmlns="http://www.w3.org/2000/svg" xmlns:xlink="http://www.w3.org/1999/xlink" x="0px" y="0px"
	 viewBox="0 0 32 32" style="enable-background:new 0 0 32 32;" xml:space="preserve">
<style type="text/css">
	.st0{fill:#FFFFFF;}
	.st1{fill:#FF0000;}
</style>
<title>youtube_rgb</title>
<polygon class="st0" points="20.3,15.8 13.3,19.6 13.3,12 16.5,13.7 "/>
<path class="st1" d="M28.7,10.7c-0.1-1-0.4-1.9-1-2.8c-0.7-0.7-1.6-1.1-2.6-1.2C21.4,6.5,16,6.5,16,6.5l0,0c0,0-5.4,0-9.1,0.3
	C6,6.8,5,7.2,4.4,7.9c-0.5,0.8-0.9,1.7-1,2.7c-0.2,1.5-0.3,2.9-0.3,4.4v2c0,1.5,0.1,2.9,0.3,4.4c0.1,1,0.5,1.9,1,2.6
	c0.8,0.8,1.8,1.2,2.9,1.2c2.1,0.2,8.8,0.3,8.8,0.3s5.4,0,9.1-0.3c1,0,1.9-0.4,2.6-1.1c0.5-0.8,0.9-1.7,1-2.7
	c0.2-1.5,0.3-2.9,0.3-4.4v-2C28.9,13.5,28.8,12.1,28.7,10.7z M20.3,15.8l-7,3.8V12l3.1,1.7L20.3,15.8z"/>
</svg>
