<svg xmlns="http://www.w3.org/2000/svg" viewBox="0 0 92.257 29.684"><defs><style>.a{fill:#fff;}</style></defs><g transform="translate(0 0.018)"><path class="a" d="M177.258,29.962h-6.839c-.3-1.394-.61-2.744-.915-4.225H165.5c-1.525,0-3.093.044-4.617,0a1.156,1.156,0,0,0-1.35,1,23.2,23.2,0,0,1-1,2.744c-.087.218-.392.523-.566.523-2.4.044-4.791.044-7.361.044,1.045-2.483,2-4.835,2.962-7.144,2.657-6.316,5.314-12.676,7.971-18.992A3.585,3.585,0,0,1,165.366,1.3c1.7,0,3.354.044,5.053,0,.61,0,.871.174,1,.784,1.307,6.4,2.657,12.806,4.007,19.166C176.038,24.081,176.648,26.956,177.258,29.962Zm-11.151-20.6h-.261c-1.263,3.441-2.483,6.926-3.79,10.454h6.185C167.544,16.241,166.847,12.8,166.107,9.358Z" transform="translate(-85.001 -0.744)"/><path class="a" d="M19.471,20.693c1-2.483,1.873-4.748,2.788-6.969C23.827,9.759,25.395,5.8,27.006,1.875a1.455,1.455,0,0,1,.871-.74c2.309-.044,4.617-.044,7.1-.044a9,9,0,0,1-.392,1.045L23.347,28.925a1.216,1.216,0,0,1-1.394.915c-1.96-.044-3.964-.044-5.924,0-.784.087-1.045-.218-1.22-.915-1.873-7.318-3.79-14.636-5.663-22a3.7,3.7,0,0,0-2.4-2.875C4.574,3.269,2.4,2.529,0,1.7c.261-.218.479-.566.74-.566,4.095-.044,8.189-.087,12.284,0a3.37,3.37,0,0,1,3.267,3.049c.958,5.053,1.917,10.149,2.875,15.2C19.209,19.734,19.34,20.083,19.471,20.693Z" transform="translate(0 -0.622)"/><path class="a" d="M125.384,1.21c-.436,2.091-.871,4.007-1.263,5.793-1.829-.348-3.572-.828-5.358-1a10.211,10.211,0,0,0-3.441.392,2.224,2.224,0,0,0-1.786,1.96,2.132,2.132,0,0,0,1.307,2c1.742,1.045,3.528,2.047,5.314,3.093,6.011,3.615,4.225,10.933.131,13.721a15.06,15.06,0,0,1-8.581,2.483,23.809,23.809,0,0,1-8.015-1.133c-.7-.218-.915-.523-.7-1.307.436-1.7.74-3.441,1.089-5.053a50.863,50.863,0,0,0,5.924,1.437,12.746,12.746,0,0,0,4.051-.3,2.542,2.542,0,0,0,2.134-2.047,2.341,2.341,0,0,0-1.35-2.57c-1.525-.958-3.18-1.742-4.7-2.657-6.8-3.964-4.574-11.151-.087-13.852,4.095-2.439,8.494-2.614,13.024-1.612C123.816.73,124.557.992,125.384,1.21Z" transform="translate(-58.086 0)"/><path class="a" d="M87.247,1.192c-.348,1.655-.653,3.18-.958,4.7-1.612,7.449-3.18,14.941-4.791,22.389,0,.087-.044.174-.044.3-.087,1.089-.653,1.481-1.786,1.394-1.917-.087-3.877-.044-5.968-.044.479-2.178.915-4.269,1.35-6.316,1.525-7.187,3.093-14.331,4.574-21.518.174-.784.479-.958,1.22-.915Z" transform="translate(-41.597 -0.679)"/></g></svg>