<svg id="Compare-01" xmlns="http://www.w3.org/2000/svg" width="15.602" height="15.602" viewBox="0 0 15.602 15.602">
  <path id="Path_1910" data-name="Path 1910" d="M230.469,5.852a1.67,1.67,0,0,1-.331.755A1.424,1.424,0,0,1,229,7.124c-1.386,0-2.772.008-4.158,0a1.4,1.4,0,0,1-1.416-1.087,1.579,1.579,0,0,1-.048-.408c0-1.371-.006-2.742,0-4.113a1.369,1.369,0,0,1,.814-1.333,1.6,1.6,0,0,1,.644-.144c1.391-.013,2.783-.005,4.173-.007a1.424,1.424,0,0,1,1.438,1.211.417.417,0,0,0,.022.069Zm-3.55.562h2.026a.728.728,0,0,0,.817-.817V1.56a.732.732,0,0,0-.816-.82H224.91a.731.731,0,0,0-.822.828V5.588a.728.728,0,0,0,.821.826Z" transform="translate(-214.867 -0.03)" fill="#666"/>
  <path id="Path_1911" data-name="Path 1911" d="M1.3,230.4a1.658,1.658,0,0,1-.686-.27,1.408,1.408,0,0,1-.593-1.177q-.006-2.095,0-4.19A1.414,1.414,0,0,1,1.492,223.3q2.072-.013,4.143,0a1.4,1.4,0,0,1,1.431,1.089,1.579,1.579,0,0,1,.047.406q0,2.049,0,4.1A1.4,1.4,0,0,1,6.3,230.25a3.036,3.036,0,0,1-.46.146Zm2.273-6.381H1.548a.728.728,0,0,0-.82.814v4.052a.73.73,0,0,0,.813.808H5.593a.726.726,0,0,0,.809-.809v-4.052a.725.725,0,0,0-.818-.813Z" transform="translate(-0.019 -214.795)" fill="#666"/>
  <path id="Path_1912" data-name="Path 1912" d="M.009,3.546c0-.691,0-1.381,0-2.071A1.373,1.373,0,0,1,.821.154,1.589,1.589,0,0,1,1.465.011C2.855,0,4.246,0,5.637.005A1.4,1.4,0,0,1,7.052,1.092a1.513,1.513,0,0,1,.048.391q0,2.064,0,4.127A1.406,1.406,0,0,1,6.018,7.045a1.671,1.671,0,0,1-.436.05q-2.033.006-4.066,0A1.413,1.413,0,0,1,.059,6.021a1.688,1.688,0,0,1-.048-.435C.006,4.906.009,4.226.009,3.546Zm6.381.008V1.528A.728.728,0,0,0,5.573.711H1.536a.733.733,0,0,0-.821.816V5.565a.731.731,0,0,0,.827.822H5.564a.727.727,0,0,0,.825-.821q0-1.005,0-2.011Z" transform="translate(-0.007 -0.002)" fill="#666"/>
  <path id="Path_1913" data-name="Path 1913" d="M263.371,263.309v.838c0,.183,0,.366,0,.548a.349.349,0,0,1-.346.383.355.355,0,0,1-.359-.387c0-.416,0-.833,0-1.249,0-.038,0-.078-.008-.133h-1.024c-.132,0-.264,0-.4,0a.349.349,0,0,1-.027-.7,2.652,2.652,0,0,1,.334-.008h1.121v-1.366a.365.365,0,0,1,.229-.377.35.35,0,0,1,.476.348c.007.406,0,.812,0,1.219v.177h1.2c.066,0,.132,0,.2,0a.352.352,0,0,1,.369.361.343.343,0,0,1-.371.343c-.3.006-.609,0-.914,0Z" transform="translate(-250.961 -250.9)" fill="#666"/>
</svg>
