<svg xmlns="http://www.w3.org/2000/svg" width="24.123" height="22.172" viewBox="0 0 24.123 22.172">
  <g id="Group_12810" data-name="Group 12810" transform="translate(-1356.536 -764.925)">
    <path id="Path_20405" data-name="Path 20405" d="M343.355,28.608h-.322a23.9,23.9,0,0,0-2.635-5.582,1.273,1.273,0,1,0-1.439,0,23.9,23.9,0,0,0-2.635,5.582H336a.481.481,0,0,0-.481.481,4.157,4.157,0,1,0,8.315,0A.481.481,0,0,0,343.355,28.608Zm-3.677-6.943a.312.312,0,1,1-.312.312A.312.312,0,0,1,339.678,21.665Zm0,2.031a24.719,24.719,0,0,1,2.378,4.912H337.3A24.119,24.119,0,0,1,339.678,23.7Zm0,8.589a3.2,3.2,0,0,1-3.16-2.716h6.321A3.2,3.2,0,0,1,339.678,32.285Z" transform="translate(1036.823 744.221)" fill="#fff"/>
    <path id="Path_20406" data-name="Path 20406" d="M16.339,63.7h-1.27v-1.22A.481.481,0,0,0,14.588,62h-1.22V48.578a1.818,1.818,0,0,0,.54-1.2l2.032-.437a.481.481,0,0,0-.2-.94l-2.037.438a1.823,1.823,0,0,0-3.434.739L5.186,48.267a1.273,1.273,0,1,0-1.748,1.8A23.9,23.9,0,0,0,.8,55.648H.481A.481.481,0,0,0,0,56.128a4.157,4.157,0,1,0,8.315,0,.481.481,0,0,0-.481-.481H7.512a23.9,23.9,0,0,0-2.635-5.582,1.275,1.275,0,0,0,.54-.866l5.048-1.086a1.835,1.835,0,0,0,.34.464V62H9.585a.481.481,0,0,0-.481.481V63.7H7.834a.481.481,0,0,0-.481.481v1.8a.481.481,0,0,0,.481.481h8.5a.481.481,0,0,0,.481-.481v-1.8A.481.481,0,0,0,16.339,63.7ZM12.087,46.419a.862.862,0,1,1-.862.862A.863.863,0,0,1,12.087,46.419ZM4.157,48.7a.312.312,0,1,1-.312.312A.312.312,0,0,1,4.157,48.7Zm0,10.62A3.2,3.2,0,0,1,1,56.609H7.318A3.2,3.2,0,0,1,4.157,59.325ZM1.782,55.648a24.122,24.122,0,0,1,2.375-4.913,24.722,24.722,0,0,1,2.378,4.913Zm9.985-6.572a1.8,1.8,0,0,0,.64,0V62h-.64Zm2.341,13.886v.74H10.066v-.74Zm1.751,1.7v.84H8.315v-.84Z" transform="translate(1356.536 720.633)" fill="#fff"/>
    <path id="Path_20407" data-name="Path 20407" d="M358.295,49.869a.481.481,0,0,0,.1-.011l.35-.075a.481.481,0,0,0-.2-.94l-.35.075a.481.481,0,0,0,.1.95Z" transform="translate(1015.58 717.417)" fill="#fff"/>
  </g>
</svg>
