<svg id="Group_12800" data-name="Group 12800" xmlns="http://www.w3.org/2000/svg" width="34.947" height="37.443" viewBox="0 0 34.947 37.443">
  <path id="Path_19332" data-name="Path 19332" d="M744.939,427.915h-1.248a.624.624,0,1,1,0-1.248h1.248a.624.624,0,0,1,0,1.248Z" transform="translate(-743.067 -392.969)" fill="#fff"/>
  <path id="Path_19333" data-name="Path 19333" d="M806.53,32.45H777.824a.59.59,0,0,1-.624-.624V.624A.59.59,0,0,1,777.824,0H806.53a.589.589,0,0,1,.624.624v31.2A.589.589,0,0,1,806.53,32.45ZM778.448,31.2h27.458V1.248H778.448Z" transform="translate(-774.704 2.496)" fill="#fff"/>
  <path id="Path_19334" data-name="Path 19334" d="M835.671,64.087H811.957a.59.59,0,0,1-.624-.624V34.757a.59.59,0,0,1,.624-.624h23.714a.59.59,0,0,1,.624.624V63.463A.59.59,0,0,1,835.671,64.087Zm-23.09-1.248h22.466V35.381H812.581Z" transform="translate(-806.341 -29.141)" fill="#fff"/>
  <path id="Path_19335" data-name="Path 19335" d="M790.711,430.411H762.005a1.839,1.839,0,0,1-1.872-1.872v-1.248a.59.59,0,0,1,.624-.624h31.2a.59.59,0,0,1,.624.624v1.248A1.839,1.839,0,0,1,790.711,430.411Zm-29.33-2.5v.624a.589.589,0,0,0,.624.624h28.706a.59.59,0,0,0,.624-.624v-.624Z" transform="translate(-758.885 -392.969)" fill="#fff"/>
  <path id="Path_19336" data-name="Path 19336" d="M790.711-30.389H762.005a1.878,1.878,0,0,1-1.872-1.872,1.839,1.839,0,0,1,1.872-1.872h28.706a1.839,1.839,0,0,1,1.872,1.872A1.839,1.839,0,0,1,790.711-30.389Zm-28.706-2.5a.671.671,0,0,0-.624.624.625.625,0,0,0,.624.624h28.706a.59.59,0,0,0,.624-.624.59.59,0,0,0-.624-.624Z" transform="translate(-758.885 34.133)" fill="#fff"/>
  <path id="Path_19337" data-name="Path 19337" d="M1188.672,427.915h-1.248a.624.624,0,0,1,0-1.248h1.248a.624.624,0,0,1,0,1.248Z" transform="translate(-1154.35 -392.969)" fill="#fff"/>
  <path id="Path_19338" data-name="Path 19338" d="M959.52,64.087h-2.5a.59.59,0,0,1-.624-.624V34.757a.59.59,0,0,1,.624-.624h2.5a.59.59,0,0,1,.624.624V63.463A.59.59,0,0,1,959.52,64.087Zm-1.872-1.248H958.9V35.381h-1.248Z" transform="translate(-940.799 -29.141)" fill="#fff"/>
  <path id="Path_19339" data-name="Path 19339" d="M837.557,62.853a.567.567,0,0,1-.437-.187.6.6,0,0,1,0-.874l1.872-1.872a.618.618,0,1,1,.874.874l-1.872,1.872A.567.567,0,0,1,837.557,62.853Z" transform="translate(-830.069 -52.869)" fill="#fff"/>
  <path id="Path_19340" data-name="Path 19340" d="M837.557,113.429a.567.567,0,0,1-.437-.187.6.6,0,0,1,0-.874l1.248-1.248a.618.618,0,0,1,.874.874l-1.248,1.248A.567.567,0,0,1,837.557,113.429Z" transform="translate(-830.069 -100.325)" fill="#fff"/>
  <path id="Path_19341" data-name="Path 19341" d="M880.224,62.853a.567.567,0,0,1-.437-.187.6.6,0,0,1,0-.874l1.872-1.872a.618.618,0,1,1,.874.874l-1.872,1.872A.567.567,0,0,1,880.224,62.853Z" transform="translate(-869.615 -52.869)" fill="#fff"/>
  <path id="Path_19342" data-name="Path 19342" d="M1085.024,378.587a.566.566,0,0,1-.437-.187.6.6,0,0,1,0-.874l1.872-1.872a.618.618,0,1,1,.874.874l-1.872,1.872A.566.566,0,0,1,1085.024,378.587Z" transform="translate(-1059.438 -345.512)" fill="#fff"/>
  <path id="Path_19343" data-name="Path 19343" d="M1093.557,335.3a.567.567,0,0,1-.437-.187.6.6,0,0,1,0-.874l1.248-1.248a.618.618,0,0,1,.874.874l-1.248,1.248A.566.566,0,0,1,1093.557,335.3Z" transform="translate(-1067.347 -305.966)" fill="#fff"/>
  <path id="Path_19344" data-name="Path 19344" d="M1042.357,378.587a.567.567,0,0,1-.437-.187.6.6,0,0,1,0-.874l1.872-1.872a.618.618,0,1,1,.874.874l-1.872,1.872A.567.567,0,0,1,1042.357,378.587Z" transform="translate(-1019.892 -345.512)" fill="#fff"/>
  <path id="Path_19345" data-name="Path 19345" d="M890.005,202.507a1.839,1.839,0,0,1-1.872-1.872v-2.5a1.872,1.872,0,1,1,3.744,0v2.5A1.839,1.839,0,0,1,890.005,202.507Zm0-4.992a.59.59,0,0,0-.624.624v2.5a.624.624,0,0,0,1.248,0v-2.5A.625.625,0,0,0,890.005,197.515Z" transform="translate(-877.524 -179.418)" fill="#fff"/>
  <path id="Path_19346" data-name="Path 19346" d="M1026.539,202.507a1.839,1.839,0,0,1-1.872-1.872v-2.5a1.872,1.872,0,1,1,3.744,0v2.5A1.839,1.839,0,0,1,1026.539,202.507Zm0-4.992a.59.59,0,0,0-.624.624v2.5a.624.624,0,0,0,1.248,0v-2.5A.625.625,0,0,0,1026.539,197.515Z" transform="translate(-1004.074 -179.418)" fill="#fff"/>
</svg>
