<svg id="window-2" xmlns="http://www.w3.org/2000/svg" width="22.193" height="23.778" viewBox="0 0 22.193 23.778">
  <g id="Group_13528" data-name="Group 13528" transform="translate(0 0)">
    <g id="Group_13527" data-name="Group 13527">
      <path id="Path_23046" data-name="Path 23046" d="M37.864,20.4H36.675V1.314A1.164,1.164,0,0,0,37.468.189,1.168,1.168,0,0,0,36.279-1H18.049A1.168,1.168,0,0,0,16.86.189a1.189,1.189,0,0,0,.793,1.12V20.4H16.463a.4.4,0,0,0,0,.793h.4v.4a1.168,1.168,0,0,0,1.189,1.189h18.23a1.168,1.168,0,0,0,1.189-1.189v-.4h.4a.4.4,0,0,0,0-.793ZM18.049-.207h18.23a.374.374,0,0,1,.4.4.374.374,0,0,1-.4.4H18.049a.4.4,0,0,1-.4-.4A.426.426,0,0,1,18.049-.207Zm.4,1.585H35.882V20.4H35.09V2.567a.374.374,0,0,0-.4-.4H19.634a.374.374,0,0,0-.4.4V20.4h-.793ZM34.3,13.663H20.03V2.963H34.3Zm-14.267.793H34.3V20.4H20.03ZM36.675,21.59a.374.374,0,0,1-.4.4H18.049a.374.374,0,0,1-.4-.4v-.4H36.675v.4Z" transform="translate(-16.067 1)" fill="#353535"/>
      <path id="Path_23047" data-name="Path 23047" d="M118.863,103.381a.36.36,0,0,0,.277-.119l1.189-1.189a.392.392,0,0,0-.555-.555l-1.189,1.189a.383.383,0,0,0,0,.555A.36.36,0,0,0,118.863,103.381Z" transform="translate(-113.711 -96.644)" fill="#353535"/>
      <path id="Path_23048" data-name="Path 23048" d="M186.852,104.054a.383.383,0,0,0,.555,0l1.982-1.982a.392.392,0,0,0-.555-.555l-1.982,1.982A.383.383,0,0,0,186.852,104.054Z" transform="translate(-178.807 -96.643)" fill="#353535"/>
      <path id="Path_23049" data-name="Path 23049" d="M118.863,196.851a.36.36,0,0,0,.277-.119l.793-.793a.392.392,0,1,0-.555-.555l-.793.793a.383.383,0,0,0,0,.555A.36.36,0,0,0,118.863,196.851Z" transform="translate(-113.711 -186.151)" fill="#353535"/>
      <path id="Path_23050" data-name="Path 23050" d="M118.863,154.184a.36.36,0,0,0,.277-.119l.793-.793a.392.392,0,1,0-.555-.555l-.793.793a.383.383,0,0,0,0,.555A.36.36,0,0,0,118.863,154.184Z" transform="translate(-113.711 -145.465)" fill="#353535"/>
      <path id="Path_23051" data-name="Path 23051" d="M161.252,103.263a.383.383,0,0,0,.555,0L163,102.074a.392.392,0,0,0-.555-.555l-1.189,1.189A.383.383,0,0,0,161.252,103.263Z" transform="translate(-154.396 -96.644)" fill="#353535"/>
      <path id="Path_23052" data-name="Path 23052" d="M161.53,169.667a.4.4,0,1,0,.4.4A.374.374,0,0,0,161.53,169.667Z" transform="translate(-154.397 -161.741)" fill="#353535"/>
    </g>
  </g>
</svg>
