<svg xmlns="http://www.w3.org/2000/svg" width="44.315" height="47.48" viewBox="0 0 44.315 47.48">
  <g id="Group_12800" data-name="Group 12800" transform="translate(-743.067 34.133)">
    <path id="Path_19332" data-name="Path 19332" d="M745.441,428.25h-1.583a.791.791,0,1,1,0-1.583h1.583a.791.791,0,1,1,0,1.583Z" transform="translate(0 -418.068)" fill="#fff"/>
    <path id="Path_19333" data-name="Path 19333" d="M814.393,41.149h-36.4a.748.748,0,0,1-.791-.791V.791A.748.748,0,0,1,777.991,0h36.4a.748.748,0,0,1,.791.791V40.358A.748.748,0,0,1,814.393,41.149Zm-35.61-1.583H813.6V1.583H778.783Z" transform="translate(-30.968 -30.968)" fill="#fff"/>
    <path id="Path_19334" data-name="Path 19334" d="M842.2,72.117H812.124a.748.748,0,0,1-.791-.791v-36.4a.748.748,0,0,1,.791-.791H842.2a.748.748,0,0,1,.791.791v36.4A.748.748,0,0,1,842.2,72.117Zm-29.279-1.583H841.4V35.716H812.916Z" transform="translate(-61.935 -61.935)" fill="#fff"/>
    <path id="Path_19335" data-name="Path 19335" d="M798.908,431.415h-36.4a2.332,2.332,0,0,1-2.374-2.374v-1.583a.748.748,0,0,1,.791-.791h39.567a.748.748,0,0,1,.791.791v1.583A2.332,2.332,0,0,1,798.908,431.415Zm-37.193-3.165v.791a.748.748,0,0,0,.791.791h36.4a.748.748,0,0,0,.791-.791v-.791Z" transform="translate(-15.483 -418.068)" fill="#fff"/>
    <path id="Path_19336" data-name="Path 19336" d="M798.908-29.385h-36.4a2.381,2.381,0,0,1-2.374-2.374,2.332,2.332,0,0,1,2.374-2.374h36.4a2.332,2.332,0,0,1,2.374,2.374A2.332,2.332,0,0,1,798.908-29.385Zm-36.4-3.165a.851.851,0,0,0-.791.791.793.793,0,0,0,.791.791h36.4a.748.748,0,0,0,.791-.791.748.748,0,0,0-.791-.791Z" transform="translate(-15.483)" fill="#fff"/>
    <path id="Path_19337" data-name="Path 19337" d="M1189.174,428.25h-1.583a.791.791,0,0,1,0-1.583h1.583a.791.791,0,0,1,0,1.583Z" transform="translate(-402.584 -418.068)" fill="#fff"/>
    <path id="Path_19338" data-name="Path 19338" d="M960.357,72.117h-3.165a.748.748,0,0,1-.791-.791v-36.4a.748.748,0,0,1,.791-.791h3.165a.748.748,0,0,1,.791.791v36.4A.748.748,0,0,1,960.357,72.117Zm-2.374-1.583h1.583V35.716h-1.583Z" transform="translate(-193.55 -61.935)" fill="#fff"/>
    <path id="Path_19339" data-name="Path 19339" d="M837.725,63.69a.719.719,0,0,1-.554-.237.765.765,0,0,1,0-1.108l2.374-2.374a.783.783,0,0,1,1.108,1.108l-2.374,2.374A.718.718,0,0,1,837.725,63.69Z" transform="translate(-85.162 -85.162)" fill="#fff"/>
    <path id="Path_19340" data-name="Path 19340" d="M837.725,114.1a.719.719,0,0,1-.554-.237.765.765,0,0,1,0-1.108l1.583-1.583a.783.783,0,0,1,1.108,1.108l-1.583,1.583A.718.718,0,0,1,837.725,114.1Z" transform="translate(-85.162 -131.614)" fill="#fff"/>
    <path id="Path_19341" data-name="Path 19341" d="M880.391,63.69a.718.718,0,0,1-.554-.237.765.765,0,0,1,0-1.108l2.374-2.374a.783.783,0,0,1,1.108,1.108l-2.374,2.374A.719.719,0,0,1,880.391,63.69Z" transform="translate(-123.872 -85.162)" fill="#fff"/>
    <path id="Path_19342" data-name="Path 19342" d="M1085.192,379.423a.718.718,0,0,1-.554-.237.765.765,0,0,1,0-1.108l2.374-2.374a.783.783,0,1,1,1.108,1.108l-2.374,2.374A.718.718,0,0,1,1085.192,379.423Z" transform="translate(-309.68 -371.616)" fill="#fff"/>
    <path id="Path_19343" data-name="Path 19343" d="M1093.725,335.966a.719.719,0,0,1-.554-.237.765.765,0,0,1,0-1.108l1.583-1.583a.783.783,0,0,1,1.108,1.108l-1.583,1.583A.718.718,0,0,1,1093.725,335.966Z" transform="translate(-317.422 -332.906)" fill="#fff"/>
    <path id="Path_19344" data-name="Path 19344" d="M1042.525,379.423a.718.718,0,0,1-.554-.237.765.765,0,0,1,0-1.108l2.374-2.374a.783.783,0,1,1,1.108,1.108l-2.374,2.374A.718.718,0,0,1,1042.525,379.423Z" transform="translate(-270.97 -371.616)" fill="#fff"/>
    <path id="Path_19345" data-name="Path 19345" d="M890.507,204.18a2.332,2.332,0,0,1-2.374-2.374v-3.165a2.374,2.374,0,1,1,4.748,0v3.165A2.332,2.332,0,0,1,890.507,204.18Zm0-6.331a.748.748,0,0,0-.791.791v3.165a.791.791,0,0,0,1.583,0v-3.165A.793.793,0,0,0,890.507,197.85Z" transform="translate(-131.613 -209.034)" fill="#fff"/>
    <path id="Path_19346" data-name="Path 19346" d="M1027.041,204.18a2.332,2.332,0,0,1-2.374-2.374v-3.165a2.374,2.374,0,1,1,4.748,0v3.165A2.332,2.332,0,0,1,1027.041,204.18Zm0-6.331a.748.748,0,0,0-.792.791v3.165a.791.791,0,0,0,1.583,0v-3.165A.793.793,0,0,0,1027.041,197.85Z" transform="translate(-255.486 -209.034)" fill="#fff"/>
  </g>
</svg>
