<?xml version="1.0" encoding="utf-8"?>
<!-- Generator: Adobe Illustrator 22.1.0, SVG Export Plug-In . SVG Version: 6.00 Build 0)  -->
<svg version="1.1" id="Слой_1" xmlns="http://www.w3.org/2000/svg" xmlns:xlink="http://www.w3.org/1999/xlink" x="0px" y="0px"
	 width="20px" height="20px" viewBox="0 0 20 20" style="enable-background:new 0 0 20 20;" xml:space="preserve">
<style type="text/css">
	.st0{opacity:0.29;fill:#FFFFFF;}
	.st1{fill:#FFFFFF;}
	.st2{fill:#2D70E4;}
	.st3{fill:#343434;}
	.st4{fill:#4FB725;}
	.st5{fill:none;stroke:#FFFFFF;stroke-miterlimit:10;}
</style>
<g>
	<g>
		<path class="st1" d="M10,0L10,0C4.5,0,0,4.5,0,10c0,2.2,0.7,4.2,1.9,5.9l-1.2,3.7l3.8-1.2C6.1,19.4,8,20,10,20c5.5,0,10-4.5,10-10
			S15.5,0,10,0z M15.8,14.1c-0.2,0.7-1.2,1.2-2,1.4c-0.5,0.1-1.2,0.2-3.5-0.8c-2.9-1.2-4.8-4.2-5-4.4c-0.1-0.2-1.2-1.6-1.2-3
			s0.7-2.1,1-2.4c0.2-0.2,0.6-0.4,1-0.4c0.1,0,0.2,0,0.3,0c0.3,0,0.4,0,0.6,0.5c0.2,0.6,0.8,2,0.9,2.2c0.1,0.1,0.1,0.3,0,0.5
			C8.1,8,8,8.1,7.8,8.2C7.7,8.4,7.5,8.5,7.4,8.7C7.3,8.9,7.1,9.1,7.3,9.3c0.2,0.3,0.8,1.2,1.6,2c1.1,1,2,1.3,2.3,1.4
			c0.2,0.1,0.5,0.1,0.7-0.1c0.2-0.2,0.5-0.6,0.8-1c0.2-0.3,0.5-0.3,0.7-0.2c0.3,0.1,1.7,0.8,2,0.9c0.3,0.1,0.5,0.2,0.6,0.3
			C16.1,12.9,16.1,13.4,15.8,14.1z"/>
	</g>
</g>
</svg>
