<svg xmlns="http://www.w3.org/2000/svg" width="55.026" height="50.39" viewBox="0 0 55.026 50.39">
  <g id="Group_778" data-name="Group 778" transform="translate(-586.188 85.333)">
    <path id="Path_1286" data-name="Path 1286" d="M716.881-54.333l-6.109-12.215a5.733,5.733,0,0,0-4.25-3.1L694.349-71.52h0a6.138,6.138,0,0,0-6.271,3.1l-7.161-14.323a4.66,4.66,0,0,0-4.191-2.589,4.738,4.738,0,0,0-4.684,4.891,4.7,4.7,0,0,0,.494,2.095l14,28a1.124,1.124,0,0,1-.05,1.114,1.128,1.128,0,0,1-.974.543h-9.548a3.929,3.929,0,0,0-3.924,3.924,3.959,3.959,0,0,0,.414,1.756l.852,1.7a1.145,1.145,0,0,0,.683.58l16.176,5.055a15.853,15.853,0,0,0,4.736.724A15.946,15.946,0,0,0,702-36.62L712.771-42a9.138,9.138,0,0,0,5.08-8.22A9.252,9.252,0,0,0,716.881-54.333Zm-5.135,10.281L700.98-38.669a13.728,13.728,0,0,1-10.129.816l-15.712-4.911-.634-1.266a1.651,1.651,0,0,1-.172-.733,1.635,1.635,0,0,1,1.634-1.634h9.548a3.416,3.416,0,0,0,2.923-1.629,3.415,3.415,0,0,0,.15-3.343l-14-28.005a2.693,2.693,0,0,1-.252-1.276,2.4,2.4,0,0,1,2.393-2.393,2.381,2.381,0,0,1,2.142,1.323l8.183,16.367a1.193,1.193,0,0,0,2.049,0l.923-1.846A3.838,3.838,0,0,1,694-69.256l12.174,1.873a3.44,3.44,0,0,1,2.55,1.86l6.109,12.215a6.934,6.934,0,0,1,.728,3.086A6.862,6.862,0,0,1,711.747-44.051Z" transform="translate(-76.637 0)" fill="#434343"/>
    <path id="Path_1287" data-name="Path 1287" d="M597.3,181.669a1.145,1.145,0,0,0-1.619,0l-3.771,3.771-3.771-3.771a1.145,1.145,0,1,0-1.62,1.619l4.581,4.581a1.145,1.145,0,0,0,1.619,0l4.581-4.581A1.145,1.145,0,0,0,597.3,181.669Z" transform="translate(1183.827 115.503) rotate(-180)" fill="#434343"/>
    <rect id="Rectangle_1299" data-name="Rectangle 1299" width="2.577" height="18.252" rx="1.288" transform="translate(590.625 -70.803)" fill="#434343"/>
  </g>
</svg>
