<svg xmlns="http://www.w3.org/2000/svg" width="20.045" height="31.267" viewBox="0 0 20.045 31.267">
  <path id="compass" d="M104.256,26.4l-.182-.534a1.993,1.993,0,0,0-.849-2.489l-2.98-8.74h2.13V14.8a.5.5,0,1,0,1,0v-1.33a.5.5,0,1,0-1,0v.166h-2.47L97.36,6.173a.5.5,0,0,0-.045-.1A2.992,2.992,0,0,0,94.85,2.7V.5a.5.5,0,1,0-1,0V2.7a2.993,2.993,0,0,0-2.447,3.482l-2.541,7.453H86.327v-.166a.5.5,0,1,0-1,0V14.8a.5.5,0,1,0,1,0v-.166h2.2l-1.578,4.628a.5.5,0,1,0,.944.322L92.006,7.516a2.989,2.989,0,0,0,.757.677L85.878,28.386a1.46,1.46,0,0,1-.409-.527,1.4,1.4,0,0,1-.021-1.111l.01-.026,1.789-5.247a.5.5,0,1,0-.944-.322l-.75,2.2a1.993,1.993,0,0,0-.872,2.557l-.163.477a2.387,2.387,0,0,0,.043,1.883,2.472,2.472,0,0,0,.983,1.1l-.422,1.238a.5.5,0,1,0,.944.322l1.394-4.09a1.994,1.994,0,0,0,.854-2.505l3.306-9.7h2.232v.832a.5.5,0,1,0,1,0v-.832h2.232l3.306,9.7a1.994,1.994,0,0,0,.854,2.506l1.394,4.09a.5.5,0,1,0,.944-.322l-.422-1.237a2.52,2.52,0,0,0,1.1-2.97Zm-3.025-1.295a1,1,0,1,1,1,1A1,1,0,0,1,101.231,25.105Zm.851-1.99a1.983,1.983,0,0,0-.945.321L95.94,8.192a2.988,2.988,0,0,0,.8-.736ZM94.85,8.149a.5.5,0,1,1-.01-.1A.5.5,0,0,1,94.85,8.149Zm-.5-4.49a2,2,0,0,1,1.2,3.592,1.5,1.5,0,0,0-2.393,0,2,2,0,0,1,1.2-3.592Zm.5,9.98v-.832a.5.5,0,1,0-1,0v.832H91.961l1.47-4.311a1.492,1.492,0,0,0,1.842,0l1.47,4.311H94.85Zm7.975,14.751-.442-1.3a1.982,1.982,0,0,0,.943-.324A1.519,1.519,0,0,1,102.826,28.39Z" transform="translate(-84.345)" fill="#fff"/>
</svg>
