<svg xmlns="http://www.w3.org/2000/svg" width="444" height="618.061" viewBox="0 0 444 618.061">
  <g id="window" transform="translate(-10.5 -147.439)">
    <rect id="Rectangle_1301" data-name="Rectangle 1301" width="336" height="484" transform="translate(66 187)" fill="#fff" stroke="#353535" stroke-width="1"/>
    <g id="Rectangle_1305" data-name="Rectangle 1305" transform="translate(26 724)" fill="#fff" stroke="#353535" stroke-width="1">
      <rect width="417" height="17" stroke="none"/>
      <rect x="0.5" y="0.5" width="416" height="16" fill="none"/>
    </g>
    <g id="center">
      <g id="Rectangle_1303" data-name="Rectangle 1303" transform="translate(83 204)" fill="#fff" stroke="#353535" stroke-width="1">
        <rect width="302" height="450" stroke="none"/>
        <rect x="0.5" y="0.5" width="301" height="449" fill="none"/>
      </g>
      <g id="Rectangle_1304" data-name="Rectangle 1304" transform="translate(89 210)" fill="#fff" stroke="#353535" stroke-width="1">
        <rect width="290" height="438" stroke="none"/>
        <rect x="0.5" y="0.5" width="289" height="437" fill="none"/>
      </g>
      <path id="Path_452" data-name="Path 452" d="M176.257,124.8a4.722,4.722,0,0,0-4.657,4.657,4.526,4.526,0,0,0,2.523,4.075h.194v25.616a2.135,2.135,0,1,0,4.269,0V133.533h.194a4.526,4.526,0,0,0,2.523-4.075A5.379,5.379,0,0,0,176.257,124.8Zm1.164,34.543a1.164,1.164,0,1,1-2.329,0V131.98a1.164,1.164,0,0,1,2.329,0v27.362Zm.97-26.78v-.388a2.135,2.135,0,1,0-4.269,0v.388a3.771,3.771,0,0,1-1.552-3.1,3.685,3.685,0,0,1,3.687-3.687,3.817,3.817,0,0,1,3.687,3.687A4.051,4.051,0,0,1,178.392,132.562Z" transform="translate(216.955 285.717)" fill="#353535"/>
    </g>
    <g id="Group_788" data-name="Group 788">
      <path id="Path_1289" data-name="Path 1289" d="M-7342.632-7748.813V-8233.05l-38.108-37.871v558.969l38.108-36.861Z" transform="translate(7408.704 8420.271)" fill="#fff" stroke="#353535" stroke-linejoin="round" stroke-width="1"/>
      <path id="Path_1290" data-name="Path 1290" d="M-7344.982-8233.442l-36.222-37.176,410.133-.473-38.052,37.591Z" transform="translate(7410.299 8420.442)" fill="#fff" stroke="#353535" stroke-width="1"/>
      <g id="Path_1291" data-name="Path 1291" transform="translate(7410.579 8419.537)" fill="#fff">
        <path d="M -6971.72216796875 -7710.9990234375 L -7008.39501953125 -7748.11279296875 L -7008.4990234375 -8232.70703125 L -6971.1494140625 -8269.71484375 L -6971.72216796875 -7710.9990234375 Z" stroke="none"/>
        <path d="M -6971.650390625 -8268.513671875 L -7007.9990234375 -8232.498046875 L -7007.89501953125 -7748.318359375 L -6972.220703125 -7712.2158203125 L -6971.650390625 -8268.513671875 M -6970.64794921875 -8270.9150390625 L -6971.22314453125 -7709.783203125 L -7008.89501953125 -7747.9072265625 L -7008.9990234375 -8232.9150390625 L -6970.64794921875 -8270.9150390625 Z" stroke="none" fill="#353535"/>
      </g>
      <g id="down">
        <g id="Rectangle_1302" data-name="Rectangle 1302" transform="translate(11 715)" fill="#353535" stroke="#353535" stroke-width="1">
          <rect width="443" height="10" stroke="none"/>
          <rect x="0.5" y="0.5" width="442" height="9" fill="none"/>
        </g>
        <path id="Path_1293" data-name="Path 1293" d="M-7390.412-7704.537l46.1-44.463,335.052-.01,43.8,44.382" transform="translate(7411 8420)" fill="none" stroke="#1a03fb" stroke-width="2"/>
      </g>
    </g>
    <line id="Line_207" data-name="Line 207" y2="484" transform="translate(130.5 187.5)" fill="none" stroke="#353535" stroke-width="2"/>
    <line id="Line_208" data-name="Line 208" x2="336" transform="translate(66.5 606.5)" fill="none" stroke="#353535" stroke-width="2"/>
    <line id="Line_209" data-name="Line 209" x2="44" y2="44" transform="translate(401.5 670.5)" fill="none" stroke="red" stroke-width="3"/>
    <line id="Line_210" data-name="Line 210" y1="39" x2="39" transform="translate(401.5 148.5)" fill="none" stroke="red" stroke-width="3"/>
    <g id="max-down">
      <g id="Group_786" data-name="Group 786">
        <line id="Line_211" data-name="Line 211" y2="5" transform="translate(11.5 729.5)" fill="none" stroke="#353535" stroke-width="1"/>
        <line id="Line_212" data-name="Line 212" y2="5" transform="translate(11.5 739.5)" fill="none" stroke="#353535" stroke-width="1"/>
        <line id="Line_213" data-name="Line 213" y2="5" transform="translate(11.5 749.5)" fill="none" stroke="#353535" stroke-width="1"/>
        <line id="Line_214" data-name="Line 214" y2="5" transform="translate(11.5 759.5)" fill="none" stroke="#353535" stroke-width="1"/>
      </g>
      <g id="Group_787" data-name="Group 787">
        <line id="Line_215" data-name="Line 215" y2="5" transform="translate(453.5 729.5)" fill="none" stroke="#353535" stroke-width="1"/>
        <line id="Line_216" data-name="Line 216" y2="5" transform="translate(453.5 739.5)" fill="none" stroke="#353535" stroke-width="1"/>
        <line id="Line_217" data-name="Line 217" y2="5" transform="translate(453.5 749.5)" fill="none" stroke="#353535" stroke-width="1"/>
        <line id="Line_218" data-name="Line 218" y2="5" transform="translate(453.5 759.5)" fill="none" stroke="#353535" stroke-width="1"/>
      </g>
      <line id="Line_219" data-name="Line 219" x2="442" transform="translate(11.5 764.5)" fill="none" stroke="#353535" stroke-linecap="square" stroke-width="2"/>
    </g>
  </g>
</svg>
