<svg xmlns="http://www.w3.org/2000/svg" width="22.182" height="20.334" viewBox="0 0 22.182 20.334">
  <path id="Path_22989" data-name="Path 22989" d="M17.8,21.333a4.354,4.354,0,0,0-3.1,1.284L4.6,32.718a3.076,3.076,0,1,0,4.351,4.351l9.4-9.4a.462.462,0,1,0-.653-.653l-9.4,9.4a2.152,2.152,0,1,1-3.044-3.044l10.1-10.1a3.459,3.459,0,0,1,4.892,4.892L9.061,39.347A4.766,4.766,0,0,1,2.32,32.606L12.8,22.122a.462.462,0,0,0-.653-.653L1.667,31.953A5.691,5.691,0,0,0,9.714,40L20.9,28.816a4.383,4.383,0,0,0-3.1-7.483Z" transform="translate(0 -21.333)" fill="#fff"/>
</svg>
