<svg width="25" height="27" xmlns="http://www.w3.org/2000/svg"><path d="M23.208 25.44c0 .267-.178.446-.446.446H2.232c-.268 0-.447-.179-.447-.446v-.447h21.423v.447zM4.463 17.406H20.53v6.695H4.463zm16.067-.893H4.463V4.463H20.53zM2.678 2.678h19.637V24.1h-.892V4.017c0-.268-.179-.447-.446-.447H4.017c-.268 0-.447.179-.447.447V24.1h-.892zM2.232.893h20.53c.267 0 .446.178.446.446s-.179.446-.446.446H2.232a.447.447 0 01-.447-.446.48.48 0 01.447-.446zM24.547 24.1h-1.339V2.606a1.31 1.31 0 00.893-1.267C24.1.58 23.52 0 22.76 0H2.232C1.473 0 .893.58.893 1.339c0 .594.383 1.079.892 1.261v21.5H.446c-.267 0-.446.18-.446.447 0 .268.179.446.446.446h.447v.447c0 .758.58 1.338 1.338 1.338h20.53c.76 0 1.34-.58 1.34-1.338v-.447h.446c.268 0 .446-.178.446-.446s-.178-.446-.446-.446z" fill="#363636"/><path d="M5.802 7.587a.405.405 0 00.312-.134l1.34-1.339a.431.431 0 000-.624.431.431 0 00-.626 0L5.49 6.829a.431.431 0 000 .624c.089.09.178.134.312.134z" fill="#363636"/><path d="M9.06 8.346c.09.09.179.134.312.134a.405.405 0 00.313-.134l2.231-2.232a.431.431 0 000-.624.431.431 0 00-.624 0L9.06 7.72a.432.432 0 000 .625z" fill="#363636"/><path d="M5.802 12.05a.405.405 0 00.312-.134l.893-.892a.432.432 0 000-.625.431.431 0 00-.625 0l-.892.893a.431.431 0 000 .624c.089.09.178.134.312.134z" fill="#363636"/><g><path d="M5.802 9.819a.405.405 0 00.312-.134l.893-.893a.432.432 0 000-.625.431.431 0 00-.625 0l-.892.893a.431.431 0 000 .625c.089.09.178.134.312.134z" fill="#363636"/></g><g><path d="M7.721 7.453c.09.09.179.134.313.134a.405.405 0 00.312-.134l1.339-1.339a.431.431 0 000-.624.431.431 0 00-.625 0L7.721 6.829a.432.432 0 000 .624z" fill="#363636"/></g><g><path d="M8.034 8.926c-.268 0-.447.179-.447.446 0 .268.179.447.447.447.267 0 .446-.179.446-.447 0-.267-.179-.446-.446-.446z" fill="#363636"/></g></svg>