<svg width="32" height="32" xmlns="http://www.w3.org/2000/svg"><path d="M30.968 27.355a3.617 3.617 0 01-3.613 3.613H4.645a3.617 3.617 0 01-3.613-3.613V4.645a3.617 3.617 0 013.613-3.613h22.71a3.617 3.617 0 013.613 3.613zM27.355 0H4.645A4.65 4.65 0 000 4.645v22.71A4.65 4.65 0 004.645 32h22.71A4.65 4.65 0 0032 27.355V4.645A4.65 4.65 0 0027.355 0z" fill="#fff"/><path d="M29.354 15.486h-12.84V2.646a.514.514 0 00-1.028 0v12.84H2.646a.514.514 0 000 1.028h12.84v12.84a.514.514 0 001.028 0v-12.84h12.84a.514.514 0 000-1.028z" fill="#fff"/><path d="M4.265 9.064h3.733v3.732a.533.533 0 001.066 0V9.064h3.732a.533.533 0 000-1.066H9.064V4.265a.533.533 0 00-1.066 0v3.733H4.265a.533.533 0 000 1.066z" fill="#fff"/><path d="M19.204 8.8h8.53a.533.533 0 000-1.067h-8.53a.533.533 0 000 1.067z" fill="#fff"/><g><path d="M27.735 23.2h-8.531a.533.533 0 000 1.067h8.53a.533.533 0 000-1.067z" fill="#fff"/></g><g><path d="M12.107 19.893a.533.533 0 00-.754 0l-2.822 2.822-2.822-2.822a.533.533 0 00-.754.754l2.822 2.822-2.822 2.822a.533.533 0 10.754.754l2.822-2.822 2.822 2.822a.531.531 0 00.754 0 .533.533 0 000-.754L9.285 23.47l2.822-2.822a.533.533 0 000-.754z" fill="#fff"/></g><g><path d="M23.181 20.629a.534.534 0 111.068 0 .534.534 0 01-1.068 0zm2.133 0c0-.882-.717-1.6-1.6-1.6-.882 0-1.599.718-1.599 1.6 0 .882.717 1.6 1.6 1.6.882 0 1.6-.718 1.6-1.6z" fill="#fff"/></g><g><path d="M23.715 27.201a.534.534 0 110-1.067.534.534 0 010 1.067zm0-2.132c-.883 0-1.6.717-1.6 1.6 0 .881.717 1.599 1.6 1.599.882 0 1.6-.718 1.6-1.6 0-.882-.718-1.6-1.6-1.6z" fill="#fff"/></g></svg>